<svg width="146" height="37" viewBox="0 0 146 37" fill="none" xmlns="http://www.w3.org/2000/svg">
<mask id="mask0_2310_3033" style="mask-type:luminance" maskUnits="userSpaceOnUse" x="0" y="0" width="146" height="37">
<path d="M0 0H145.339V36.8385H0V0Z" fill="white"/>
</mask>
<g mask="url(#mask0_2310_3033)">
<mask id="mask1_2310_3033" style="mask-type:luminance" maskUnits="userSpaceOnUse" x="0" y="0" width="146" height="37">
<path d="M13.9635 0H131.26C138.974 0 145.224 6.25521 145.224 13.9635V22.875C145.224 30.5885 138.974 36.8385 131.26 36.8385H13.9635C6.25 36.8385 0 30.5885 0 22.875V13.9635C0 6.25521 6.25 0 13.9635 0Z" fill="white"/>
</mask>
<g mask="url(#mask1_2310_3033)">
<mask id="mask2_2310_3033" style="mask-type:luminance" maskUnits="userSpaceOnUse" x="-1" y="-2" width="148" height="40">
<path d="M146.155 -1.125H-0.511719V37.5417H146.155V-1.125Z" fill="white"/>
</mask>
<g mask="url(#mask2_2310_3033)">
<mask id="mask3_2310_3033" style="mask-type:luminance" maskUnits="userSpaceOnUse" x="0" y="0" width="146" height="37">
<path d="M0 0H145.339V36.8385H0V0Z" fill="white"/>
</mask>
<g mask="url(#mask3_2310_3033)">
<mask id="mask4_2310_3033" style="mask-type:luminance" maskUnits="userSpaceOnUse" x="0" y="0" width="146" height="37">
<path d="M13.9635 0H131.26C138.974 0 145.224 6.25521 145.224 13.9635V22.875C145.224 30.5885 138.974 36.8385 131.26 36.8385H13.9635C6.25 36.8385 0 30.5885 0 22.875V13.9635C0 6.25521 6.25 0 13.9635 0Z" fill="white"/>
</mask>
<g mask="url(#mask4_2310_3033)">
<path d="M0 0H145.198V36.8385H0V0Z" fill="#1F3D58"/>
</g>
</g>
</g>
</g>
</g>
<mask id="mask5_2310_3033" style="mask-type:luminance" maskUnits="userSpaceOnUse" x="0" y="0" width="146" height="37">
<path d="M0.0117188 0H145.418V36.9063H0.0117188V0Z" fill="white"/>
</mask>
<g mask="url(#mask5_2310_3033)">
<mask id="mask6_2310_3033" style="mask-type:luminance" maskUnits="userSpaceOnUse" x="0" y="0" width="146" height="37">
<path d="M13.9753 0H131.241C138.954 0 145.204 6.25 145.204 13.9635V22.8698C145.204 30.5781 138.954 36.8281 131.241 36.8281H13.9753C6.26172 36.8281 0.0117188 30.5781 0.0117188 22.8698V13.9635C0.0117188 6.25 6.26172 0 13.9753 0Z" fill="white"/>
</mask>
<g mask="url(#mask6_2310_3033)">
<path d="M13.9753 0H131.241C138.954 0 145.204 6.25 145.204 13.9635V22.8698C145.204 30.5781 138.954 36.8281 131.241 36.8281H13.9753C6.26172 36.8281 0.0117188 30.5781 0.0117188 22.8698V13.9635C0.0117188 6.25 6.26172 0 13.9753 0Z" stroke="#C8B7A1" stroke-width="3.9901"/>
</g>
</g>
<path d="M17.9922 24.916H128.096V25.9108H17.9922V24.916Z" fill="#C8B7A1"/>
<path d="M23.1602 23.7936L19.5352 15.002C19.4779 14.877 19.3529 14.804 19.1602 14.7728C18.9779 14.7311 18.8372 14.7103 18.7435 14.7103H18.6602V14.502H20.8268V14.7103H20.7227C20.6497 14.7103 20.556 14.7207 20.431 14.7311C20.306 14.7467 20.2018 14.7728 20.1185 14.8145C20.0456 14.8561 20.0247 14.929 20.056 15.0228L23.431 23.1686L26.7852 15.0228C26.8268 14.929 26.7904 14.8561 26.681 14.8145C26.582 14.7728 26.457 14.7467 26.306 14.7311C26.1654 14.7207 26.0456 14.7103 25.9518 14.7103H25.806V14.502H27.9935V14.7103H27.9518C27.8945 14.7103 27.7956 14.7207 27.6602 14.7311C27.5195 14.7467 27.3893 14.7728 27.2643 14.8145C27.1393 14.8561 27.056 14.929 27.0143 15.0228L23.5352 23.4186L23.3268 23.9186H23.2227L23.1602 23.7936Z" fill="#C8B7A1"/>
<path d="M35.5872 23.0859H35.8164L35.2956 23.9193H30.0664V23.7318H30.2331C30.3424 23.7214 30.4831 23.6901 30.6497 23.6484C30.8164 23.6068 30.8997 23.5339 30.8997 23.4193V15.0443C30.8997 14.9609 30.8581 14.8984 30.7747 14.8568C30.6914 14.8151 30.5924 14.7891 30.4831 14.7734C30.3685 14.7474 30.2747 14.7318 30.1914 14.7318C30.1081 14.7318 30.0664 14.7318 30.0664 14.7318V14.5234H35.1914V15.3359H35.1081C35.0924 15.3255 35.0508 15.2682 34.9831 15.1693C34.9258 15.0599 34.8477 14.9609 34.7539 14.8776C34.6706 14.7839 34.5768 14.7318 34.4831 14.7318H31.3789V18.6068H34.5247C34.5924 18.6068 34.6549 18.5547 34.7122 18.4401C34.7643 18.3307 34.7956 18.2734 34.7956 18.2734H34.8789V19.1276H34.7956C34.7956 19.1276 34.7643 19.0755 34.7122 18.9609C34.6549 18.8516 34.5924 18.7943 34.5247 18.7943H31.3789V23.7318H34.7747C34.9102 23.7318 35.0352 23.6849 35.1497 23.5859C35.2747 23.4922 35.3685 23.3932 35.4414 23.2943C35.5247 23.1849 35.5716 23.1172 35.5872 23.0859Z" fill="#C8B7A1"/>
<path d="M38.0195 23.7109C38.2383 23.7109 38.4362 23.6901 38.6029 23.6484C38.7799 23.5964 38.8737 23.513 38.8737 23.3984V15.0234C38.8737 14.9141 38.7799 14.8359 38.6029 14.7943C38.4362 14.7526 38.2383 14.7318 38.0195 14.7318V14.5234H41.1445C41.6862 14.5234 42.1706 14.6276 42.6029 14.8359C43.0299 15.0339 43.3737 15.3255 43.6237 15.7109C43.8841 16.0859 44.0195 16.5391 44.0195 17.0651C44.0195 17.5234 43.9154 17.9401 43.707 18.3151C43.5091 18.6797 43.2383 18.9766 42.8945 19.2109C42.5456 19.4349 42.1497 19.5807 41.707 19.6484C42.0404 19.8151 42.3372 20.013 42.6029 20.2318C42.8633 20.4401 43.0508 20.7943 43.1654 21.2943C43.2174 21.5026 43.2904 21.7474 43.3737 22.0234C43.457 22.3047 43.5612 22.5755 43.6862 22.8359C43.8112 23.0859 43.9622 23.2943 44.1445 23.4609C44.3372 23.6276 44.5612 23.7109 44.8112 23.7109V23.9193H44.0404C43.707 23.6589 43.457 23.388 43.2904 23.1068C43.1237 22.8307 42.9987 22.5339 42.9154 22.2109C42.832 21.8932 42.7331 21.5443 42.6237 21.1693C42.5664 20.9505 42.457 20.7266 42.2904 20.5026C42.1341 20.2682 41.957 20.0755 41.7487 19.9193C41.5508 19.7682 41.3581 19.6901 41.1654 19.6901H39.3529V23.3984C39.3529 23.513 39.4362 23.5964 39.6029 23.6484C39.7695 23.6901 39.9674 23.7109 40.207 23.7109V23.9193H38.0195V23.7109ZM41.1445 19.5026C41.5872 19.5026 41.9883 19.3932 42.3529 19.1693C42.7122 18.9505 42.9987 18.6589 43.207 18.2943C43.4258 17.9193 43.5404 17.513 43.5404 17.0651C43.5404 16.6224 43.4258 16.2266 43.207 15.8776C42.9987 15.5182 42.7122 15.2422 42.3529 15.0443C41.9883 14.8359 41.5872 14.7318 41.1445 14.7318H40.0195C39.9049 14.7318 39.7695 14.7526 39.6029 14.7943C39.4362 14.8359 39.3529 14.9193 39.3529 15.0443V19.5026H41.1445Z" fill="#C8B7A1"/>
<path d="M57.1732 24.0436C56.5742 24.0436 56.0378 23.9082 55.569 23.627C55.0951 23.3509 54.7253 22.9603 54.4648 22.4603C54.1992 21.9499 54.069 21.3561 54.069 20.6895V15.002C54.0534 14.8926 53.9648 14.8249 53.7982 14.7936C53.6419 14.752 53.5065 14.7259 53.3815 14.7103H53.2148V14.502H55.4023V14.7103H55.2148C55.1003 14.7259 54.9648 14.752 54.7982 14.7936C54.6315 14.8249 54.5482 14.8978 54.5482 15.0228V20.6895C54.5482 21.179 54.6211 21.6374 54.7773 22.0645C54.944 22.4811 55.1732 22.8353 55.4648 23.127C55.7409 23.377 56.0117 23.5645 56.2773 23.6895C56.5378 23.804 56.8398 23.8561 57.1732 23.8561C57.7148 23.8561 58.194 23.7207 58.6107 23.4395C59.0273 23.1634 59.3503 22.7884 59.5898 22.3145C59.8242 21.8301 59.944 21.2884 59.944 20.6895V15.0228C59.944 14.8978 59.8607 14.8249 59.694 14.7936C59.5378 14.752 59.4023 14.7259 59.2773 14.7103H59.1107V14.502H60.9857V14.7103H60.819C60.7044 14.7259 60.569 14.752 60.4023 14.7936C60.2357 14.8249 60.1523 14.8978 60.1523 15.0228V20.6895C60.1523 21.3457 60.0169 21.9186 59.7565 22.4186C59.5065 22.9186 59.1523 23.3145 58.694 23.6061C58.2461 23.8978 57.7409 24.0436 57.1732 24.0436Z" fill="#C8B7A1"/>
<path d="M63.1992 23.7109H63.3659C63.4753 23.7109 63.6159 23.6901 63.7826 23.6484C63.9596 23.5964 64.0534 23.513 64.0534 23.3984V15.0443C64.0534 14.9193 63.9701 14.8359 63.8034 14.7943C63.6367 14.7526 63.4909 14.7318 63.3659 14.7318H63.1992V14.5234H66.0951C66.7721 14.5234 67.3503 14.7474 67.8242 15.1901C68.0586 15.3984 68.2305 15.6484 68.3451 15.9401C68.4701 16.2318 68.5326 16.5391 68.5326 16.8568C68.5326 17.1797 68.4701 17.4818 68.3451 17.7734C68.2305 18.0651 68.0586 18.3099 67.8242 18.5026C67.5586 18.7526 67.2721 18.9297 66.9701 19.0234C67.4701 19.1224 67.9076 19.3359 68.2826 19.6693C68.793 20.1589 69.0534 20.7474 69.0534 21.4401C69.0534 21.7891 68.9805 22.1172 68.8451 22.4193C68.7044 22.7266 68.5169 22.9922 68.2826 23.2109C67.7826 23.6849 67.168 23.9193 66.4492 23.9193H63.1992V23.7109ZM66.1992 18.9818C66.543 18.9557 66.8555 18.8464 67.1367 18.6484C67.4284 18.4401 67.6576 18.1849 67.8242 17.8776C68.0013 17.5599 68.0951 17.2214 68.0951 16.8568C68.0951 16.4714 68.0013 16.1172 67.8242 15.7943C67.6419 15.4766 67.3971 15.2214 67.0951 15.0234C66.7878 14.8307 66.4544 14.7318 66.0951 14.7318H65.1992C65.0846 14.7318 64.9492 14.7526 64.7826 14.7943C64.6159 14.8359 64.5326 14.9193 64.5326 15.0443V18.9818H66.1992ZM66.4492 23.7109C67.0326 23.7109 67.5326 23.4818 67.9492 23.0234C68.1576 22.8047 68.3138 22.5599 68.4284 22.2943C68.5378 22.0182 68.5951 21.7318 68.5951 21.4401C68.5951 21.1641 68.5378 20.888 68.4284 20.6068C68.3138 20.3307 68.1576 20.0807 67.9492 19.8568C67.5326 19.3984 67.0326 19.1693 66.4492 19.1693H66.1992C66.1836 19.1693 66.1628 19.1693 66.1367 19.1693C66.1211 19.1693 66.1055 19.1693 66.0951 19.1693H64.5326V23.3984C64.5326 23.513 64.6159 23.5964 64.7826 23.6484C64.9492 23.6901 65.0846 23.7109 65.1992 23.7109H66.4492Z" fill="#C8B7A1"/>
<path d="M71.2578 23.7305H71.4245C71.5339 23.7201 71.6745 23.6888 71.8411 23.6471C72.0182 23.6055 72.112 23.5326 72.112 23.418V15.043C72.0964 14.9336 72.0078 14.8555 71.8411 14.8138C71.6745 14.7617 71.5339 14.7305 71.4245 14.7305H71.2578V14.543H73.4453V14.7305H73.2578C73.1432 14.7305 73.0078 14.7617 72.8411 14.8138C72.6745 14.8555 72.5911 14.9336 72.5911 15.043V23.418C72.5911 23.5326 72.6745 23.6055 72.8411 23.6471C73.0078 23.6888 73.1432 23.7201 73.2578 23.7305H73.4453V23.918H71.2578V23.7305Z" fill="#C8B7A1"/>
<path d="M79.6029 24.0853C79.0456 24.0853 78.5299 23.9603 78.0612 23.7103C77.5872 23.4603 77.1654 23.1217 76.7904 22.6895C76.4258 22.2467 76.1445 21.7311 75.9362 21.1478C75.7383 20.5645 75.6445 19.9395 75.6445 19.2728C75.6445 18.6061 75.7383 17.9811 75.9362 17.3978C76.1445 16.8145 76.4258 16.304 76.7904 15.8561C77.1654 15.4134 77.5872 15.0645 78.0612 14.8145C78.5299 14.5645 79.0456 14.4395 79.6029 14.4395C80.1706 14.4395 80.707 14.5645 81.207 14.8145L81.1654 14.7936C81.4154 14.8926 81.6445 15.002 81.8529 15.127C82.0716 15.252 82.2487 15.3561 82.3737 15.4395C82.4987 15.5124 82.5612 15.5436 82.5612 15.5436L82.7695 16.4186H82.7904L82.6029 16.5228C82.4206 16.1061 82.1706 15.7624 81.8529 15.4811C81.5299 15.2051 81.1758 14.9967 80.7904 14.8561C80.3997 14.7207 80.0039 14.6478 79.6029 14.6478C79.1289 14.6478 78.6758 14.7728 78.2487 15.0228C77.832 15.2728 77.4622 15.6217 77.1445 16.0645C76.8216 16.4967 76.5716 16.9915 76.3945 17.5436C76.2122 18.0853 76.1237 18.6634 76.1237 19.2728C76.1237 19.8457 76.1966 20.3926 76.3529 20.9186C76.5195 21.4342 76.7487 21.9082 77.0404 22.3353C77.3424 22.752 77.6914 23.1009 78.082 23.377C78.4674 23.6582 78.8841 23.8249 79.332 23.877C79.3737 23.8926 79.4154 23.8978 79.457 23.8978C79.5091 23.8978 79.5612 23.8978 79.6029 23.8978C80.2279 23.8978 80.8164 23.7103 81.3737 23.3353C81.9414 22.9499 82.3997 22.429 82.7487 21.7728L82.9154 21.8561L82.6654 22.8978C82.6654 22.8978 82.5872 22.9499 82.4362 23.0436C82.2799 23.127 82.082 23.2415 81.832 23.377C81.5924 23.502 81.332 23.627 81.0404 23.752H81.0612C80.6029 23.9707 80.1133 24.0853 79.6029 24.0853Z" fill="#C8B7A1"/>
<path d="M84.3281 23.7318C84.5052 23.7318 84.6927 23.7214 84.8906 23.6901C85.099 23.6641 85.2292 23.5755 85.2865 23.4193L88.7448 14.5234H88.9531V14.5443L92.4115 23.4609C92.4792 23.5755 92.5885 23.6484 92.7448 23.6901C92.9115 23.7214 93.0885 23.7318 93.2865 23.7318V23.9193H91.099V23.7318C91.3177 23.7318 91.5156 23.7109 91.6823 23.6693C91.8594 23.6276 91.9219 23.5443 91.8698 23.4193L90.5156 19.8568H86.8906L85.5156 23.4193C85.4844 23.5026 85.5208 23.5755 85.6198 23.6276C85.7292 23.6693 85.8698 23.7005 86.0365 23.7109C86.2031 23.7266 86.3594 23.7318 86.5156 23.7318V23.9193H84.3281V23.7318ZM90.4323 19.6693L88.7031 15.1901L86.974 19.6693H90.4323Z" fill="#C8B7A1"/>
<path d="M98.7865 24.0853C98.2292 24.0853 97.7135 23.9603 97.2448 23.7103C96.7708 23.4603 96.349 23.1217 95.974 22.6895C95.6094 22.2467 95.3281 21.7311 95.1198 21.1478C94.9219 20.5645 94.8281 19.9395 94.8281 19.2728C94.8281 18.6061 94.9219 17.9811 95.1198 17.3978C95.3281 16.8145 95.6094 16.304 95.974 15.8561C96.349 15.4134 96.7708 15.0645 97.2448 14.8145C97.7135 14.5645 98.2292 14.4395 98.7865 14.4395C99.3542 14.4395 99.8906 14.5645 100.391 14.8145L100.349 14.7936C100.599 14.8926 100.828 15.002 101.036 15.127C101.255 15.252 101.432 15.3561 101.557 15.4395C101.682 15.5124 101.745 15.5436 101.745 15.5436L101.953 16.4186H101.974L101.786 16.5228C101.604 16.1061 101.354 15.7624 101.036 15.4811C100.714 15.2051 100.359 14.9967 99.974 14.8561C99.5833 14.7207 99.1875 14.6478 98.7865 14.6478C98.3125 14.6478 97.8594 14.7728 97.4323 15.0228C97.0156 15.2728 96.6458 15.6217 96.3281 16.0645C96.0052 16.4967 95.7552 16.9915 95.5781 17.5436C95.3958 18.0853 95.3073 18.6634 95.3073 19.2728C95.3073 19.8457 95.3802 20.3926 95.5365 20.9186C95.7031 21.4342 95.9323 21.9082 96.224 22.3353C96.526 22.752 96.875 23.1009 97.2656 23.377C97.651 23.6582 98.0677 23.8249 98.5156 23.877C98.5573 23.8926 98.599 23.8978 98.6406 23.8978C98.6927 23.8978 98.7448 23.8978 98.7865 23.8978C99.4115 23.8978 100 23.7103 100.557 23.3353C101.125 22.9499 101.583 22.429 101.932 21.7728L102.099 21.8561L101.849 22.8978C101.849 22.8978 101.771 22.9499 101.62 23.0436C101.464 23.127 101.266 23.2415 101.016 23.377C100.776 23.502 100.516 23.627 100.224 23.752H100.245C99.7865 23.9707 99.2969 24.0853 98.7865 24.0853Z" fill="#C8B7A1"/>
<path d="M104.309 23.7305H104.475C104.585 23.7201 104.725 23.6888 104.892 23.6471C105.069 23.6055 105.163 23.5326 105.163 23.418V15.043C105.147 14.9336 105.059 14.8555 104.892 14.8138C104.725 14.7617 104.585 14.7305 104.475 14.7305H104.309V14.543H106.496V14.7305H106.309C106.194 14.7305 106.059 14.7617 105.892 14.8138C105.725 14.8555 105.642 14.9336 105.642 15.043V23.418C105.642 23.5326 105.725 23.6055 105.892 23.6471C106.059 23.6888 106.194 23.7201 106.309 23.7305H106.496V23.918H104.309V23.7305Z" fill="#C8B7A1"/>
<path d="M111.97 13.6478L113.116 12.3145L113.449 12.6686L112.137 13.7936L111.97 13.6478ZM112.658 24.127C112.116 24.127 111.6 23.9915 111.116 23.7311C110.642 23.4707 110.22 23.1061 109.845 22.6478C109.48 22.1895 109.199 21.679 108.991 21.1061C108.793 20.5228 108.699 19.9186 108.699 19.2936C108.699 18.6582 108.793 18.0436 108.991 17.4603C109.199 16.877 109.48 16.3665 109.845 15.9186C110.22 15.4759 110.642 15.1217 111.116 14.8561C111.6 14.5957 112.116 14.4603 112.658 14.4603H112.783C113.324 14.4603 113.829 14.5957 114.303 14.8561C114.788 15.1217 115.21 15.4811 115.574 15.9395C115.949 16.3978 116.23 16.9186 116.428 17.502C116.637 18.0749 116.741 18.6686 116.741 19.2936C116.741 19.9186 116.637 20.5228 116.428 21.1061C116.23 21.6895 115.954 22.2103 115.595 22.6686C115.23 23.1165 114.809 23.4707 114.324 23.7311C113.85 23.9915 113.335 24.127 112.783 24.127H112.658ZM111.533 23.6478C112.324 23.9811 113.116 23.9811 113.908 23.6478C114.366 23.429 114.767 23.0957 115.116 22.6478C115.475 22.2051 115.751 21.6895 115.949 21.1061C116.142 20.5228 116.241 19.9186 116.241 19.2936C116.241 18.6009 116.121 17.9395 115.887 17.3145C115.647 16.679 115.324 16.1374 114.908 15.6895C114.491 15.2311 114.017 14.929 113.491 14.7728C113.366 14.7467 113.23 14.7259 113.095 14.7103C112.97 14.6842 112.845 14.6686 112.72 14.6686C112.595 14.6686 112.46 14.679 112.324 14.6895C112.199 14.7051 112.074 14.7311 111.949 14.7728C111.418 14.9395 110.949 15.252 110.533 15.7103C110.116 16.1582 109.783 16.6895 109.533 17.3145C109.293 17.9395 109.178 18.6009 109.178 19.2936C109.178 19.9186 109.272 20.5228 109.47 21.1061C109.678 21.6895 109.954 22.2051 110.303 22.6478C110.663 23.0957 111.074 23.429 111.533 23.6478Z" fill="#C8B7A1"/>
<path d="M118.816 23.7318C119.035 23.7318 119.233 23.7109 119.4 23.6693C119.566 23.6172 119.65 23.5339 119.65 23.4193V15.0234C119.65 14.9141 119.566 14.8359 119.4 14.7943C119.233 14.7422 119.035 14.7109 118.816 14.7109V14.5234H120.129L125.504 22.9818V15.0234C125.504 14.9141 125.421 14.8359 125.254 14.7943C125.087 14.7422 124.889 14.7109 124.671 14.7109V14.5234H126.546V14.7109C126.322 14.7109 126.118 14.7422 125.941 14.7943C125.775 14.8359 125.691 14.9141 125.691 15.0234V23.9193H125.525L119.858 14.9609V23.4193C119.858 23.5339 119.941 23.6172 120.108 23.6693C120.275 23.7109 120.467 23.7318 120.691 23.7318V23.9193H118.816V23.7318Z" fill="#C8B7A1"/>
</svg>
