<svg width="252" height="293" viewBox="0 0 252 293" fill="none" xmlns="http://www.w3.org/2000/svg">
<mask id="mask0_2381_1559" style="mask-type:luminance" maskUnits="userSpaceOnUse" x="0" y="0" width="252" height="293">
<path d="M0 0H251.609V293H0V0Z" fill="white"/>
</mask>
<g mask="url(#mask0_2381_1559)">
<mask id="mask1_2381_1559" style="mask-type:luminance" maskUnits="userSpaceOnUse" x="0" y="0" width="252" height="293">
<path d="M251.609 23.0455V269.63C251.609 275.741 249.188 281.6 244.885 285.922C240.583 290.243 234.75 292.676 228.667 292.676H22.9427C16.8594 292.676 11.0208 290.243 6.71875 285.922C2.41667 281.6 0 275.741 0 269.63V23.0455C0 16.9297 2.41667 11.0702 6.71875 6.74886C11.0208 2.4275 16.8594 0 22.9427 0H228.667C234.75 0 240.583 2.4275 244.885 6.74886C249.188 11.0702 251.609 16.9297 251.609 23.0455Z" fill="white"/>
</mask>
<g mask="url(#mask1_2381_1559)">
<mask id="mask2_2381_1559" style="mask-type:luminance" maskUnits="userSpaceOnUse" x="-1" y="-1" width="254" height="295">
<path d="M252.689 -0.978516H-0.644531V293.669H252.689V-0.978516Z" fill="white"/>
</mask>
<g mask="url(#mask2_2381_1559)">
<mask id="mask3_2381_1559" style="mask-type:luminance" maskUnits="userSpaceOnUse" x="0" y="0" width="252" height="293">
<path d="M0 0H251.609V292.33H0V0Z" fill="white"/>
</mask>
<g mask="url(#mask3_2381_1559)">
<mask id="mask4_2381_1559" style="mask-type:luminance" maskUnits="userSpaceOnUse" x="0" y="0" width="252" height="293">
<path d="M251.609 23.0455V269.63C251.609 275.741 249.188 281.6 244.885 285.922C240.583 290.243 234.75 292.676 228.667 292.676H22.9427C16.8594 292.676 11.0208 290.243 6.71875 285.922C2.41667 281.6 0 275.741 0 269.63V23.0455C0 16.9297 2.41667 11.0702 6.71875 6.74886C11.0208 2.4275 16.8594 0 22.9427 0H228.667C234.75 0 240.583 2.4275 244.885 6.74886C249.188 11.0702 251.609 16.9297 251.609 23.0455Z" fill="white"/>
</mask>
<g mask="url(#mask4_2381_1559)">
<path d="M0 0H251.609V292.22H0V0Z" fill="#1F3D58"/>
</g>
</g>
</g>
</g>
</g>
<mask id="mask5_2381_1559" style="mask-type:luminance" maskUnits="userSpaceOnUse" x="55" y="40" width="146" height="154">
<path d="M200.833 40H55.5V193.333H200.833V40Z" fill="white"/>
</mask>
<g mask="url(#mask5_2381_1559)">
<path d="M71.457 54.862C70.8737 54.862 70.3216 54.7266 69.8112 54.4661C69.2956 54.1901 68.8424 53.8151 68.457 53.3411C68.0664 52.8724 67.7591 52.3203 67.5404 51.6953C67.3164 51.0703 67.207 50.3984 67.207 49.6745C67.207 48.9661 67.3164 48.2995 67.5404 47.6745C67.7591 47.0391 68.0664 46.487 68.457 46.0286C68.8424 45.5599 69.2956 45.1901 69.8112 44.9245C70.3216 44.6484 70.8737 44.5078 71.457 44.5078C72.0664 44.5078 72.6445 44.6432 73.1862 44.9036L73.1445 44.862C73.4049 44.987 73.6497 45.112 73.8737 45.237C74.1081 45.362 74.2956 45.4661 74.4362 45.5495C74.5716 45.6328 74.6445 45.6745 74.6445 45.6745L74.8529 46.6328H74.8737L74.6862 46.737C74.4883 46.2943 74.2174 45.9245 73.8737 45.6328C73.5247 45.3307 73.1445 45.1016 72.7279 44.9453C72.3112 44.7943 71.8841 44.7161 71.457 44.7161C70.9414 44.7161 70.457 44.8568 69.9987 45.1328C69.5508 45.3984 69.1549 45.7682 68.8112 46.237C68.4779 46.7109 68.2122 47.2474 68.0195 47.8411C67.8216 48.4245 67.7279 49.0391 67.7279 49.6745C67.7279 50.2891 67.8112 50.8776 67.9779 51.4453C68.1549 52.0182 68.3997 52.5286 68.707 52.987C69.0247 53.4349 69.3945 53.7995 69.8112 54.0911C70.2383 54.3828 70.6914 54.5651 71.1654 54.6328C71.207 54.6484 71.2539 54.6536 71.3112 54.6536C71.3633 54.6536 71.4154 54.6536 71.457 54.6536C72.1341 54.6536 72.7747 54.4557 73.3737 54.0495C73.9674 53.6328 74.457 53.0807 74.832 52.3828L75.0195 52.4661L74.7487 53.5703C74.7487 53.5703 74.6654 53.6276 74.4987 53.737C74.3424 53.8359 74.1341 53.9557 73.8737 54.0911C73.6081 54.2318 73.3164 54.3724 72.9987 54.5078H73.0195C72.5299 54.7422 72.0091 54.862 71.457 54.862Z" fill="#C8B7A1"/>
<path d="M76.5352 54.4648C76.7435 54.4648 76.9518 54.4544 77.1602 54.4232C77.3685 54.3971 77.5039 54.3086 77.5768 54.1523L81.2852 44.5898H81.5143L85.2227 54.1732C85.2904 54.2982 85.4102 54.3815 85.5768 54.4232C85.7539 54.4544 85.9518 54.4648 86.1602 54.4648V54.6732H83.8268V54.4648C84.0456 54.4648 84.2487 54.444 84.431 54.4023C84.6237 54.3607 84.6914 54.2721 84.6393 54.1315L83.181 50.2982H79.2852L77.806 54.1315H77.8268C77.7852 54.2305 77.8164 54.3086 77.931 54.3607C78.056 54.4023 78.207 54.4336 78.3893 54.444C78.5664 54.4596 78.7331 54.4648 78.8893 54.4648V54.6732H76.5352V54.4648ZM83.0977 50.1107L81.2435 45.319L79.3893 50.1107H83.0977Z" fill="#C8B7A1"/>
<path d="M90.4766 54.737C90.2109 54.6693 89.9661 54.5703 89.7474 54.4453C89.7057 54.4349 89.6641 54.4193 89.6224 54.4036C89.5911 54.3776 89.5599 54.3568 89.5182 54.3411C89.1953 54.1641 88.9245 54.0078 88.7057 53.8828C88.4818 53.7474 88.3724 53.6693 88.3724 53.6536L88.1016 52.5703L88.2682 52.4661C88.2786 52.4661 88.2891 52.4766 88.2891 52.487C88.4818 52.8516 88.7057 53.1745 88.9557 53.4661C89.2161 53.7578 89.5026 54.0026 89.8099 54.1953C90.2109 54.4453 90.6536 54.5911 91.1432 54.6328C91.6276 54.6745 92.0859 54.6068 92.5182 54.4245C92.9609 54.2318 93.3151 53.9141 93.5807 53.4661C93.7057 53.2891 93.7943 53.1016 93.8516 52.9036C93.9193 52.6953 93.9557 52.4974 93.9557 52.2995C93.9557 52.0651 93.8984 51.8411 93.7891 51.6328C93.6901 51.4141 93.5495 51.2109 93.3724 51.0286C93.2474 50.9036 93.1068 50.7943 92.9557 50.6953C92.8151 50.6016 92.6641 50.5182 92.4974 50.4453L90.0599 49.2995C89.6276 49.0911 89.2891 48.7891 89.0391 48.3828C88.7891 47.9818 88.6641 47.5495 88.6641 47.0911V46.9453C88.6745 46.5026 88.7943 46.1068 89.0182 45.7578C89.237 45.4141 89.5286 45.1328 89.8932 44.9245C90.2682 44.7161 90.6693 44.6068 91.1016 44.5911C91.1536 44.5807 91.2057 44.5703 91.2474 44.5703C91.2995 44.5703 91.3568 44.5703 91.4141 44.5703C91.6484 44.5703 91.8776 44.612 92.1016 44.6953C92.3203 44.7682 92.5391 44.8568 92.7474 44.9661C92.7891 44.9974 92.8203 45.0182 92.8516 45.0286C92.8776 45.0443 92.9141 45.0651 92.9557 45.0911C93.2318 45.2161 93.4661 45.3411 93.6641 45.4661C93.8724 45.5807 93.9766 45.6432 93.9766 45.6536L94.1641 46.3828L93.9766 46.487C93.6849 45.987 93.3099 45.5911 92.8516 45.2995C92.3932 44.9974 91.9141 44.8359 91.4141 44.8203C91.3151 44.8099 91.2266 44.8099 91.1432 44.8203C90.7943 44.8359 90.4609 44.9453 90.1432 45.1536C89.8203 45.362 89.5599 45.6328 89.3516 45.9661C89.1432 46.2891 89.0286 46.6224 89.0182 46.9661V47.0703C89.0182 47.4453 89.1432 47.7943 89.3932 48.112C89.6432 48.4349 89.9453 48.6849 90.3099 48.862L92.7682 49.987C93.2786 50.2266 93.6693 50.5495 93.9349 50.9661C94.2109 51.3724 94.3516 51.8151 94.3516 52.2995C94.3516 52.7734 94.2109 53.2109 93.9349 53.612C93.6693 54.0026 93.3099 54.3099 92.8516 54.5286C92.1016 54.9141 91.3099 54.987 90.4766 54.737Z" fill="#C8B7A1"/>
<path d="M95.7266 54.4648C95.9349 54.4648 96.1432 54.4544 96.3516 54.4232C96.5599 54.3971 96.6953 54.3086 96.7682 54.1523L100.477 44.5898H100.706L104.414 54.1732C104.482 54.2982 104.602 54.3815 104.768 54.4232C104.945 54.4544 105.143 54.4648 105.352 54.4648V54.6732H103.018V54.4648C103.237 54.4648 103.44 54.444 103.622 54.4023C103.815 54.3607 103.883 54.2721 103.831 54.1315L102.372 50.2982H98.4766L96.9974 54.1315H97.0182C96.9766 54.2305 97.0078 54.3086 97.1224 54.3607C97.2474 54.4023 97.3984 54.4336 97.5807 54.444C97.7578 54.4596 97.9245 54.4648 98.0807 54.4648V54.6732H95.7266V54.4648ZM102.289 50.1107L100.435 45.319L98.5807 50.1107H102.289Z" fill="#C8B7A1"/>
<path d="M116.563 54.6732H114.375V54.4648H114.563C114.698 54.4648 114.854 54.444 115.021 54.4023C115.198 54.3503 115.292 54.2565 115.292 54.1315V45.1315C115.292 45.0221 115.198 44.944 115.021 44.9023C114.854 44.8503 114.698 44.8138 114.563 44.7982H114.375V44.5898H117.792C118.344 44.5898 118.875 44.7253 119.375 44.9857C119.875 45.2513 120.313 45.6211 120.688 46.0898C121.063 46.5482 121.354 47.0846 121.563 47.694C121.781 48.293 121.896 48.9388 121.896 49.6315C121.896 50.3294 121.781 50.9805 121.563 51.5898C121.354 52.2044 121.063 52.7461 120.688 53.2148C120.313 53.6732 119.875 54.0378 119.375 54.2982C118.875 54.5638 118.344 54.694 117.792 54.694H116.563V54.6732ZM117.792 54.4648C117.833 54.4648 117.875 54.4648 117.917 54.4648C117.958 54.4648 118 54.4648 118.042 54.4648C118.5 54.4128 118.927 54.2461 119.333 53.9648C119.734 53.6732 120.089 53.3086 120.396 52.8607C120.714 52.418 120.958 51.918 121.125 51.3607C121.302 50.8086 121.396 50.2305 121.396 49.6315C121.396 49.0221 121.297 48.4336 121.104 47.8607C120.922 47.2773 120.667 46.7565 120.333 46.2982C120 45.8398 119.615 45.4805 119.188 45.2148C118.755 44.9544 118.292 44.8138 117.792 44.7982V44.819H116.563V44.7982H116.542C116.417 44.8138 116.26 44.8503 116.083 44.9023C115.901 44.944 115.813 45.0221 115.813 45.1315V54.1315C115.813 54.2565 115.901 54.3503 116.083 54.4023C116.26 54.444 116.417 54.4648 116.542 54.4648H117.792Z" fill="#C8B7A1"/>
<path d="M124.113 54.4648H124.28C124.415 54.4648 124.572 54.444 124.738 54.4023C124.915 54.3503 125.009 54.2565 125.009 54.1315V45.1315C125.009 45.0482 124.957 44.9857 124.863 44.944C124.78 44.8919 124.676 44.8555 124.551 44.8398C124.436 44.8294 124.332 44.819 124.238 44.819C124.155 44.8086 124.113 44.7982 124.113 44.7982V44.5898H129.634V45.444H129.53C129.514 45.4336 129.473 45.3711 129.405 45.2565C129.348 45.1471 129.27 45.043 129.176 44.944C129.077 44.8503 128.973 44.7982 128.863 44.7982H125.53V48.9648H128.905C128.973 48.9648 129.035 48.9128 129.092 48.7982C129.16 48.6888 129.197 48.6315 129.197 48.6315H129.301V49.5273H129.197C129.197 49.5273 129.16 49.4753 129.092 49.3607C129.035 49.2357 128.973 49.1732 128.905 49.1732H125.53V54.4648H129.176C129.327 54.4648 129.467 54.418 129.592 54.319C129.717 54.2096 129.822 54.1003 129.905 53.9857C129.988 53.8763 130.035 53.8086 130.051 53.7773H130.28L129.717 54.6732H124.113V54.4648Z" fill="#C8B7A1"/>
<path d="M132.652 54.4648H132.819C132.954 54.4544 133.111 54.4232 133.277 54.3815C133.454 54.3294 133.548 54.2357 133.548 54.1107V45.1315C133.548 45.0482 133.496 44.9857 133.402 44.944C133.319 44.8919 133.215 44.8555 133.09 44.8398C132.975 44.8138 132.871 44.7982 132.777 44.7982C132.694 44.7878 132.652 44.7773 132.652 44.7773V44.5898H134.986V44.7773C134.986 44.7773 134.934 44.7878 134.84 44.7982C134.757 44.7982 134.652 44.8138 134.527 44.8398C134.402 44.8555 134.288 44.8919 134.194 44.944C134.111 44.9857 134.069 45.0482 134.069 45.1315V54.4648H137.757C137.908 54.4648 138.048 54.418 138.173 54.319C138.298 54.2096 138.402 54.1003 138.486 53.9857C138.569 53.8607 138.616 53.793 138.632 53.7773V53.7565H138.861L138.319 54.6732H132.652V54.4648Z" fill="#C8B7A1"/>
<path d="M147.891 54.4648H148.057C148.193 54.4544 148.349 54.4232 148.516 54.3815C148.693 54.3294 148.786 54.2357 148.786 54.1107V45.1315C148.786 45.0482 148.734 44.9857 148.641 44.944C148.557 44.8919 148.453 44.8555 148.328 44.8398C148.214 44.8138 148.109 44.7982 148.016 44.7982C147.932 44.7878 147.891 44.7773 147.891 44.7773V44.5898H150.224V44.7773C150.224 44.7773 150.172 44.7878 150.078 44.7982C149.995 44.7982 149.891 44.8138 149.766 44.8398C149.641 44.8555 149.526 44.8919 149.432 44.944C149.349 44.9857 149.307 45.0482 149.307 45.1315V54.4648H152.995C153.146 54.4648 153.286 54.418 153.411 54.319C153.536 54.2096 153.641 54.1003 153.724 53.9857C153.807 53.8607 153.854 53.793 153.87 53.7773V53.7565H154.099L153.557 54.6732H147.891V54.4648Z" fill="#C8B7A1"/>
<path d="M156.188 54.4648C156.396 54.4648 156.604 54.4544 156.813 54.4232C157.021 54.3971 157.156 54.3086 157.229 54.1523L160.938 44.5898H161.167L164.875 54.1732C164.943 54.2982 165.063 54.3815 165.229 54.4232C165.406 54.4544 165.604 54.4648 165.813 54.4648V54.6732H163.479V54.4648C163.698 54.4648 163.901 54.444 164.083 54.4023C164.276 54.3607 164.344 54.2721 164.292 54.1315L162.833 50.2982H158.938L157.458 54.1315H157.479C157.438 54.2305 157.469 54.3086 157.583 54.3607C157.708 54.4023 157.859 54.4336 158.042 54.444C158.219 54.4596 158.385 54.4648 158.542 54.4648V54.6732H156.188V54.4648ZM162.75 50.1107L160.896 45.319L159.042 50.1107H162.75Z" fill="#C8B7A1"/>
<path d="M171.859 54.8405C171.286 54.8405 170.745 54.7051 170.234 54.4447C169.719 54.1686 169.26 53.7936 168.859 53.3197C168.469 52.8509 168.161 52.2988 167.943 51.6738C167.719 51.0488 167.609 50.3822 167.609 49.6738C167.609 48.9551 167.719 48.278 167.943 47.653C168.161 47.028 168.469 46.4811 168.859 46.0072C169.26 45.5384 169.719 45.1686 170.234 44.903C170.745 44.627 171.286 44.4863 171.859 44.4863C172.161 44.4863 172.464 44.5228 172.755 44.5905C173.047 44.6634 173.323 44.7572 173.589 44.8822L173.547 44.8613C173.807 44.9759 174.052 45.0905 174.276 45.2155C174.51 45.3405 174.698 45.4551 174.839 45.5488C174.974 45.6322 175.047 45.6738 175.047 45.6738L175.276 46.6113L175.089 46.7155C174.891 46.2728 174.62 45.903 174.276 45.6113C173.927 45.3092 173.547 45.0801 173.13 44.9238C172.714 44.7728 172.286 44.6947 171.859 44.6947C171.344 44.6947 170.859 44.8353 170.401 45.1113C169.953 45.377 169.557 45.7467 169.214 46.2155C168.88 46.6895 168.615 47.2259 168.422 47.8197C168.224 48.403 168.13 49.0228 168.13 49.6738C168.13 50.2728 168.214 50.8561 168.38 51.4238C168.557 51.9967 168.807 52.5072 169.13 52.9655C169.448 53.4134 169.818 53.778 170.234 54.0697C170.651 54.3613 171.094 54.5436 171.568 54.6113C171.609 54.627 171.656 54.6322 171.714 54.6322C171.766 54.6322 171.818 54.6322 171.859 54.6322C172.245 54.6322 172.62 54.5697 172.984 54.4447C173.344 54.3092 173.677 54.1217 173.984 53.8822C174.526 53.4655 174.797 52.903 174.797 52.1947V51.153C174.797 51.028 174.703 50.9447 174.526 50.903C174.344 50.8613 174.193 50.8353 174.068 50.8197H173.901V50.6113H176.214V50.8197H176.047C175.922 50.8353 175.766 50.8613 175.589 50.903C175.406 50.9447 175.318 51.028 175.318 51.153V53.3405C175.318 53.3405 175.219 53.4134 175.026 53.5488C174.844 53.6738 174.609 53.8353 174.318 54.028C174.036 54.2103 173.74 54.3613 173.422 54.4863C172.932 54.7207 172.411 54.8405 171.859 54.8405Z" fill="#C8B7A1"/>
<path d="M182.84 54.8815C182.267 54.8815 181.725 54.7409 181.215 54.4648C180.699 54.1888 180.241 53.8086 179.84 53.319C179.449 52.819 179.142 52.2669 178.923 51.6523C178.699 51.0273 178.59 50.3815 178.59 49.7148C178.59 49.0221 178.699 48.3711 178.923 47.7565C179.142 47.1315 179.449 46.5794 179.84 46.0898C180.241 45.6055 180.699 45.2253 181.215 44.944C181.725 44.668 182.267 44.5273 182.84 44.5273H182.986C183.569 44.5273 184.116 44.668 184.632 44.944C185.142 45.2253 185.595 45.6107 185.986 46.1107C186.371 46.6003 186.678 47.1523 186.902 47.7773C187.121 48.3919 187.236 49.0378 187.236 49.7148C187.236 50.3815 187.121 51.0273 186.902 51.6523C186.678 52.2773 186.371 52.8346 185.986 53.319C185.611 53.8086 185.163 54.1888 184.652 54.4648C184.137 54.7409 183.579 54.8815 182.986 54.8815H182.84ZM181.632 54.3815C182.491 54.7409 183.345 54.7409 184.194 54.3815C184.678 54.1471 185.111 53.793 185.486 53.319C185.871 52.8503 186.173 52.2982 186.382 51.6732C186.59 51.0378 186.694 50.3815 186.694 49.7148C186.694 48.9648 186.559 48.2513 186.298 47.569C186.048 46.8919 185.699 46.3086 185.257 45.819C184.809 45.3346 184.309 45.0169 183.757 44.8607C183.6 44.819 183.454 44.793 183.319 44.7773C183.178 44.7513 183.038 44.7357 182.902 44.7357C182.777 44.7357 182.637 44.7461 182.486 44.7565C182.345 44.7721 182.204 44.8086 182.069 44.8607C181.512 45.0273 181.012 45.3555 180.569 45.8398C180.121 46.3294 179.767 46.9128 179.507 47.5898C179.241 48.2565 179.111 48.9648 179.111 49.7148C179.111 50.3815 179.215 51.0378 179.423 51.6732C179.642 52.2982 179.944 52.8503 180.319 53.319C180.704 53.793 181.142 54.1471 181.632 54.3815Z" fill="#C8B7A1"/>
<path d="M87.4844 73.901C86.901 73.901 86.349 73.7656 85.8385 73.5052C85.3229 73.2292 84.8698 72.8542 84.4844 72.3802C84.0937 71.9115 83.7865 71.3594 83.5677 70.7344C83.3437 70.1094 83.2344 69.4375 83.2344 68.7135C83.2344 68.0052 83.3437 67.3385 83.5677 66.7135C83.7865 66.0781 84.0937 65.526 84.4844 65.0677C84.8698 64.599 85.3229 64.2292 85.8385 63.9635C86.349 63.6875 86.901 63.5469 87.4844 63.5469C88.0937 63.5469 88.6719 63.6823 89.2135 63.9427L89.1719 63.901C89.4323 64.026 89.6771 64.151 89.901 64.276C90.1354 64.401 90.3229 64.5052 90.4635 64.5885C90.599 64.6719 90.6719 64.7135 90.6719 64.7135L90.8802 65.6719H90.901L90.7135 65.776C90.5156 65.3333 90.2448 64.9635 89.901 64.6719C89.5521 64.3698 89.1719 64.1406 88.7552 63.9844C88.3385 63.8333 87.9115 63.7552 87.4844 63.7552C86.9687 63.7552 86.4844 63.8958 86.026 64.1719C85.5781 64.4375 85.1823 64.8073 84.8385 65.276C84.5052 65.75 84.2396 66.2865 84.0469 66.8802C83.849 67.4635 83.7552 68.0781 83.7552 68.7135C83.7552 69.3281 83.8385 69.9167 84.0052 70.4844C84.1823 71.0573 84.4271 71.5677 84.7344 72.026C85.0521 72.474 85.4219 72.8385 85.8385 73.1302C86.2656 73.4219 86.7187 73.6042 87.1927 73.6719C87.2344 73.6875 87.2812 73.6927 87.3385 73.6927C87.3906 73.6927 87.4427 73.6927 87.4844 73.6927C88.1615 73.6927 88.8021 73.4948 89.401 73.0885C89.9948 72.6719 90.4844 72.1198 90.8594 71.4219L91.0469 71.5052L90.776 72.6094C90.776 72.6094 90.6927 72.6667 90.526 72.776C90.3698 72.875 90.1615 72.9948 89.901 73.1302C89.6354 73.2708 89.3437 73.4115 89.026 73.5469H89.0469C88.5573 73.7813 88.0365 73.901 87.4844 73.901Z" fill="#C8B7A1"/>
<path d="M93.418 73.7142V73.5059H93.5846C93.7201 73.5059 93.8815 73.485 94.0638 73.4434C94.2409 73.3913 94.3346 73.2975 94.3346 73.1725V64.1725C94.319 64.0632 94.2201 63.985 94.043 63.9434C93.8763 63.8913 93.7201 63.8548 93.5846 63.8392H93.418V63.6309H95.7721V63.8392H95.5846C95.4596 63.8548 95.3034 63.8913 95.1263 63.9434C94.944 63.985 94.8555 64.0632 94.8555 64.1725V68.0267H99.8971V64.1725C99.8971 64.0632 99.8034 63.985 99.6263 63.9434C99.4596 63.8913 99.3034 63.8548 99.168 63.8392H98.9805V63.6309H101.335V63.8392H101.168C101.027 63.8548 100.866 63.8913 100.689 63.9434C100.507 63.985 100.418 64.0632 100.418 64.1725V73.1725C100.418 73.2975 100.507 73.3913 100.689 73.4434C100.866 73.485 101.027 73.5059 101.168 73.5059H101.335V73.7142H98.9805V73.5059H99.168C99.3034 73.5059 99.4596 73.485 99.6263 73.4434C99.8034 73.3913 99.8971 73.2975 99.8971 73.1725V68.2142H94.8555V73.1725C94.8555 73.2975 94.944 73.3913 95.1263 73.4434C95.3034 73.485 95.4596 73.5059 95.5846 73.5059H95.7721V73.7142H93.418Z" fill="#C8B7A1"/>
<path d="M107.949 73.9225C107.376 73.9225 106.835 73.7819 106.324 73.5059C105.809 73.2298 105.35 72.8496 104.949 72.36C104.559 71.86 104.251 71.3079 104.033 70.6934C103.809 70.0684 103.699 69.4225 103.699 68.7559C103.699 68.0632 103.809 67.4121 104.033 66.7975C104.251 66.1725 104.559 65.6204 104.949 65.1309C105.35 64.6465 105.809 64.2663 106.324 63.985C106.835 63.709 107.376 63.5684 107.949 63.5684H108.095C108.678 63.5684 109.225 63.709 109.741 63.985C110.251 64.2663 110.704 64.6517 111.095 65.1517C111.48 65.6413 111.788 66.1934 112.012 66.8184C112.23 67.4329 112.345 68.0788 112.345 68.7559C112.345 69.4225 112.23 70.0684 112.012 70.6934C111.788 71.3184 111.48 71.8757 111.095 72.36C110.72 72.8496 110.272 73.2298 109.762 73.5059C109.246 73.7819 108.689 73.9225 108.095 73.9225H107.949ZM106.741 73.4225C107.6 73.7819 108.454 73.7819 109.303 73.4225C109.788 73.1882 110.22 72.834 110.595 72.36C110.98 71.8913 111.283 71.3392 111.491 70.7142C111.699 70.0788 111.803 69.4225 111.803 68.7559C111.803 68.0059 111.668 67.2923 111.408 66.61C111.158 65.9329 110.809 65.3496 110.366 64.86C109.918 64.3757 109.418 64.0579 108.866 63.9017C108.71 63.86 108.564 63.834 108.428 63.8184C108.288 63.7923 108.147 63.7767 108.012 63.7767C107.887 63.7767 107.746 63.7871 107.595 63.7975C107.454 63.8132 107.314 63.8496 107.178 63.9017C106.621 64.0684 106.121 64.3965 105.678 64.8809C105.23 65.3704 104.876 65.9538 104.616 66.6309C104.35 67.2975 104.22 68.0059 104.22 68.7559C104.22 69.4225 104.324 70.0788 104.533 70.7142C104.751 71.3392 105.053 71.8913 105.428 72.36C105.814 72.834 106.251 73.1882 106.741 73.4225Z" fill="#C8B7A1"/>
<path d="M114.566 73.5059C114.816 73.5059 115.03 73.4798 115.212 73.4225C115.389 73.3704 115.483 73.2767 115.483 73.1517V64.1725C115.483 64.0475 115.389 63.9642 115.212 63.9225C115.03 63.8704 114.816 63.8392 114.566 63.8392V63.6309H117.941C118.509 63.6309 119.025 63.7454 119.483 63.9642C119.952 64.1725 120.327 64.4798 120.608 64.8809C120.884 65.2871 121.025 65.7767 121.025 66.36C121.025 66.8496 120.91 67.2923 120.691 67.6934C120.467 68.084 120.171 68.4017 119.796 68.6517C119.421 68.9017 118.993 69.0632 118.525 69.1309C118.884 69.3132 119.202 69.5215 119.483 69.7559C119.775 69.9798 119.983 70.3548 120.108 70.8809C120.16 71.1204 120.233 71.3809 120.316 71.6725C120.4 71.9642 120.509 72.2507 120.65 72.5267C120.785 72.8079 120.952 73.0423 121.15 73.235C121.358 73.4173 121.592 73.5059 121.858 73.5059V73.7142H121.046C120.681 73.4382 120.41 73.1517 120.233 72.86C120.051 72.5579 119.91 72.235 119.816 71.9017C119.733 71.5579 119.634 71.1725 119.525 70.7559C119.467 70.5215 119.348 70.2871 119.171 70.0475C118.988 69.7975 118.785 69.5892 118.566 69.4225C118.358 69.2559 118.155 69.1725 117.962 69.1725H116.004V73.1517C116.004 73.2767 116.092 73.3704 116.275 73.4225C116.452 73.4798 116.671 73.5059 116.921 73.5059V73.7142H114.566V73.5059ZM117.941 68.985C118.41 68.985 118.842 68.8704 119.233 68.6309C119.618 68.3809 119.926 68.0632 120.15 67.6725C120.384 67.2715 120.504 66.834 120.504 66.36C120.504 65.8757 120.384 65.4434 120.15 65.0684C119.926 64.6934 119.618 64.3965 119.233 64.1725C118.842 63.9538 118.41 63.8392 117.941 63.8392H116.733C116.608 63.8548 116.452 63.8809 116.275 63.9225C116.092 63.9642 116.004 64.0475 116.004 64.1725V68.985H117.941Z" fill="#C8B7A1"/>
<path d="M123.949 73.5059C124.199 73.5059 124.413 73.4798 124.595 73.4225C124.772 73.3704 124.866 73.2767 124.866 73.1517V64.1725C124.866 64.0475 124.772 63.9642 124.595 63.9225C124.413 63.8704 124.199 63.8392 123.949 63.8392V63.6309H127.324C127.892 63.6309 128.408 63.7454 128.866 63.9642C129.335 64.1725 129.71 64.4798 129.991 64.8809C130.267 65.2871 130.408 65.7767 130.408 66.36C130.408 66.8496 130.293 67.2923 130.074 67.6934C129.85 68.084 129.553 68.4017 129.178 68.6517C128.803 68.9017 128.376 69.0632 127.908 69.1309C128.267 69.3132 128.585 69.5215 128.866 69.7559C129.158 69.9798 129.366 70.3548 129.491 70.8809C129.543 71.1204 129.616 71.3809 129.699 71.6725C129.783 71.9642 129.892 72.2507 130.033 72.5267C130.168 72.8079 130.335 73.0423 130.533 73.235C130.741 73.4173 130.975 73.5059 131.241 73.5059V73.7142H130.428C130.064 73.4382 129.793 73.1517 129.616 72.86C129.434 72.5579 129.293 72.235 129.199 71.9017C129.116 71.5579 129.017 71.1725 128.908 70.7559C128.85 70.5215 128.73 70.2871 128.553 70.0475C128.371 69.7975 128.168 69.5892 127.949 69.4225C127.741 69.2559 127.538 69.1725 127.345 69.1725H125.387V73.1517C125.387 73.2767 125.475 73.3704 125.658 73.4225C125.835 73.4798 126.053 73.5059 126.303 73.5059V73.7142H123.949V73.5059ZM127.324 68.985C127.793 68.985 128.225 68.8704 128.616 68.6309C129.001 68.3809 129.309 68.0632 129.533 67.6725C129.767 67.2715 129.887 66.834 129.887 66.36C129.887 65.8757 129.767 65.4434 129.533 65.0684C129.309 64.6934 129.001 64.3965 128.616 64.1725C128.225 63.9538 127.793 63.8392 127.324 63.8392H126.116C125.991 63.8548 125.835 63.8809 125.658 63.9225C125.475 63.9642 125.387 64.0475 125.387 64.1725V68.985H127.324Z" fill="#C8B7A1"/>
<path d="M133.328 73.5059H133.495C133.63 73.5059 133.792 73.485 133.974 73.4434C134.151 73.3913 134.245 73.2975 134.245 73.1725V64.1725C134.229 64.0632 134.13 63.985 133.953 63.9434C133.786 63.8913 133.63 63.8548 133.495 63.8392H133.328V63.6309H135.682V63.8392H135.495C135.37 63.8548 135.214 63.8913 135.036 63.9434C134.854 63.985 134.766 64.0632 134.766 64.1725V73.1725C134.766 73.2975 134.854 73.3913 135.036 73.4434C135.214 73.485 135.37 73.5059 135.495 73.5059H135.682V73.7142H133.328V73.5059Z" fill="#C8B7A1"/>
<path d="M138.043 73.5059H138.21C138.345 73.4954 138.501 73.4642 138.668 73.4225C138.845 73.3704 138.939 73.2767 138.939 73.1517V64.1725C138.939 64.0892 138.887 64.0267 138.793 63.985C138.71 63.9329 138.605 63.8965 138.48 63.8809C138.366 63.8548 138.262 63.8392 138.168 63.8392C138.085 63.8288 138.043 63.8184 138.043 63.8184V63.6309H140.376V63.8184C140.376 63.8184 140.324 63.8288 140.23 63.8392C140.147 63.8392 140.043 63.8548 139.918 63.8809C139.793 63.8965 139.678 63.9329 139.585 63.985C139.501 64.0267 139.46 64.0892 139.46 64.1725V73.5059H143.147C143.298 73.5059 143.439 73.459 143.564 73.36C143.689 73.2507 143.793 73.1413 143.876 73.0267C143.96 72.9017 144.007 72.834 144.022 72.8184V72.7975H144.251L143.71 73.7142H138.043V73.5059Z" fill="#C8B7A1"/>
<path d="M146.48 73.5059H146.647C146.783 73.4954 146.939 73.4642 147.105 73.4225C147.283 73.3704 147.376 73.2767 147.376 73.1517V64.1725C147.376 64.0892 147.324 64.0267 147.23 63.985C147.147 63.9329 147.043 63.8965 146.918 63.8809C146.803 63.8548 146.699 63.8392 146.605 63.8392C146.522 63.8288 146.48 63.8184 146.48 63.8184V63.6309H148.814V63.8184C148.814 63.8184 148.762 63.8288 148.668 63.8392C148.585 63.8392 148.48 63.8548 148.355 63.8809C148.23 63.8965 148.116 63.9329 148.022 63.985C147.939 64.0267 147.897 64.0892 147.897 64.1725V73.5059H151.585C151.736 73.5059 151.876 73.459 152.001 73.36C152.126 73.2507 152.23 73.1413 152.314 73.0267C152.397 72.9017 152.444 72.834 152.46 72.8184V72.7975H152.689L152.147 73.7142H146.48V73.5059Z" fill="#C8B7A1"/>
<path d="M158.172 73.9225C157.599 73.9225 157.057 73.7819 156.547 73.5059C156.031 73.2298 155.573 72.8496 155.172 72.36C154.781 71.86 154.474 71.3079 154.255 70.6934C154.031 70.0684 153.922 69.4225 153.922 68.7559C153.922 68.0632 154.031 67.4121 154.255 66.7975C154.474 66.1725 154.781 65.6204 155.172 65.1309C155.573 64.6465 156.031 64.2663 156.547 63.985C157.057 63.709 157.599 63.5684 158.172 63.5684H158.318C158.901 63.5684 159.448 63.709 159.964 63.985C160.474 64.2663 160.927 64.6517 161.318 65.1517C161.703 65.6413 162.01 66.1934 162.234 66.8184C162.453 67.4329 162.568 68.0788 162.568 68.7559C162.568 69.4225 162.453 70.0684 162.234 70.6934C162.01 71.3184 161.703 71.8757 161.318 72.36C160.943 72.8496 160.495 73.2298 159.984 73.5059C159.469 73.7819 158.911 73.9225 158.318 73.9225H158.172ZM156.964 73.4225C157.823 73.7819 158.677 73.7819 159.526 73.4225C160.01 73.1882 160.443 72.834 160.818 72.36C161.203 71.8913 161.505 71.3392 161.714 70.7142C161.922 70.0788 162.026 69.4225 162.026 68.7559C162.026 68.0059 161.891 67.2923 161.63 66.61C161.38 65.9329 161.031 65.3496 160.589 64.86C160.141 64.3757 159.641 64.0579 159.089 63.9017C158.932 63.86 158.786 63.834 158.651 63.8184C158.51 63.7923 158.37 63.7767 158.234 63.7767C158.109 63.7767 157.969 63.7871 157.818 63.7975C157.677 63.8132 157.536 63.8496 157.401 63.9017C156.844 64.0684 156.344 64.3965 155.901 64.8809C155.453 65.3704 155.099 65.9538 154.839 66.6309C154.573 67.2975 154.443 68.0059 154.443 68.7559C154.443 69.4225 154.547 70.0788 154.755 70.7142C154.974 71.3392 155.276 71.8913 155.651 72.36C156.036 72.834 156.474 73.1882 156.964 73.4225Z" fill="#C8B7A1"/>
<path d="M166.346 73.3802C166.023 73.2031 165.753 73.0469 165.534 72.9219C165.31 72.7865 165.201 72.7083 165.201 72.6927L164.93 71.6094L165.096 71.5052C165.107 71.5052 165.117 71.5156 165.117 71.526C165.31 71.8906 165.534 72.2135 165.784 72.5052C166.044 72.7969 166.331 73.0417 166.638 73.2344C167.055 73.4844 167.503 73.6302 167.992 73.6719C168.477 73.7135 168.935 73.6458 169.367 73.4635C169.784 73.2552 170.122 72.9531 170.388 72.5469C170.648 72.1458 170.784 71.7448 170.784 71.3385C170.784 70.9531 170.643 70.5885 170.367 70.2552C170.086 69.9219 169.742 69.6667 169.326 69.4844L166.888 68.3385C166.456 68.1302 166.117 67.8281 165.867 67.4219C165.617 67.0208 165.492 66.5885 165.492 66.1302V65.9844C165.503 65.5 165.638 65.0833 165.888 64.7344C166.138 64.375 166.461 64.099 166.867 63.901C167.284 63.7083 167.742 63.6094 168.242 63.6094C168.477 63.6094 168.706 63.651 168.93 63.7344C169.148 63.8073 169.367 63.8958 169.576 64.0052C169.617 64.0365 169.648 64.0573 169.68 64.0677C169.706 64.0833 169.742 64.1042 169.784 64.1302C170.06 64.2552 170.294 64.3802 170.492 64.5052C170.701 64.6198 170.805 64.6823 170.805 64.6927L170.992 65.4219L170.805 65.526C170.513 65.026 170.138 64.6302 169.68 64.3385C169.221 64.0365 168.742 63.875 168.242 63.8594C167.893 63.8594 167.534 63.9583 167.159 64.151C166.794 64.349 166.492 64.6094 166.242 64.9427C165.992 65.2656 165.857 65.6198 165.846 66.0052V66.1094C165.846 66.4844 165.971 66.8333 166.221 67.151C166.471 67.474 166.773 67.724 167.138 67.901L169.596 69.026C170.107 69.2656 170.497 69.5885 170.763 70.0052C171.039 70.4115 171.18 70.8542 171.18 71.3385C171.18 71.8125 171.039 72.25 170.763 72.651C170.497 73.0417 170.138 73.349 169.68 73.5677C169.138 73.8281 168.565 73.9323 167.971 73.8802C167.388 73.8385 166.846 73.6719 166.346 73.3802Z" fill="#C8B7A1"/>
<path d="M89.2539 111.979C88.6706 111.979 88.1185 111.844 87.6081 111.583C87.0924 111.307 86.6393 110.932 86.2539 110.458C85.8633 109.99 85.556 109.438 85.3372 108.813C85.1133 108.188 85.0039 107.516 85.0039 106.792C85.0039 106.083 85.1133 105.417 85.3372 104.792C85.556 104.156 85.8633 103.604 86.2539 103.146C86.6393 102.677 87.0924 102.307 87.6081 102.042C88.1185 101.766 88.6706 101.625 89.2539 101.625C89.8633 101.625 90.4414 101.76 90.9831 102.021L90.9414 101.979C91.2018 102.104 91.4466 102.229 91.6706 102.354C91.9049 102.479 92.0924 102.583 92.2331 102.667C92.3685 102.75 92.4414 102.792 92.4414 102.792L92.6497 103.75H92.6706L92.4831 103.854C92.2852 103.411 92.0143 103.042 91.6706 102.75C91.3216 102.448 90.9414 102.219 90.5247 102.063C90.1081 101.911 89.681 101.833 89.2539 101.833C88.7383 101.833 88.2539 101.974 87.7956 102.25C87.3477 102.516 86.9518 102.885 86.6081 103.354C86.2747 103.828 86.0091 104.365 85.8164 104.958C85.6185 105.542 85.5247 106.156 85.5247 106.792C85.5247 107.406 85.6081 107.995 85.7747 108.563C85.9518 109.135 86.1966 109.646 86.5039 110.104C86.8216 110.552 87.1914 110.917 87.6081 111.208C88.0352 111.5 88.4883 111.682 88.9622 111.75C89.0039 111.766 89.0508 111.771 89.1081 111.771C89.1602 111.771 89.2122 111.771 89.2539 111.771C89.931 111.771 90.5716 111.573 91.1706 111.167C91.7643 110.75 92.2539 110.198 92.6289 109.5L92.8164 109.583L92.5456 110.688C92.5456 110.688 92.4622 110.745 92.2956 110.854C92.1393 110.953 91.931 111.073 91.6706 111.208C91.4049 111.349 91.1133 111.49 90.7956 111.625H90.8164C90.3268 111.859 89.806 111.979 89.2539 111.979Z" fill="#C8B7A1"/>
<path d="M101.121 110.896H101.35L100.788 111.792H95.1836V111.584H95.3503C95.4857 111.584 95.6419 111.563 95.8086 111.521C95.9857 111.469 96.0794 111.376 96.0794 111.251V102.251C96.0794 102.167 96.0273 102.105 95.9336 102.063C95.8503 102.011 95.7461 101.975 95.6211 101.959C95.5065 101.949 95.4023 101.938 95.3086 101.938C95.2253 101.928 95.1836 101.917 95.1836 101.917V101.709H100.704V102.563H100.6C100.585 102.553 100.543 102.49 100.475 102.376C100.418 102.266 100.34 102.162 100.246 102.063C100.147 101.969 100.043 101.917 99.9336 101.917H96.6003V106.084H99.9753C100.043 106.084 100.105 106.032 100.163 105.917C100.23 105.808 100.267 105.751 100.267 105.751H100.371V106.646H100.267C100.267 106.646 100.23 106.594 100.163 106.48C100.105 106.355 100.043 106.292 99.9753 106.292H96.6003V111.584H100.246C100.397 111.584 100.538 111.537 100.663 111.438C100.788 111.329 100.892 111.219 100.975 111.105C101.059 110.995 101.105 110.928 101.121 110.896Z" fill="#C8B7A1"/>
<path d="M103.723 111.584C103.973 111.584 104.186 111.558 104.368 111.501C104.546 111.449 104.639 111.355 104.639 111.23V102.251C104.639 102.126 104.546 102.042 104.368 102.001C104.186 101.949 103.973 101.917 103.723 101.917V101.709H107.098C107.665 101.709 108.181 101.824 108.639 102.042C109.108 102.251 109.483 102.558 109.764 102.959C110.04 103.365 110.181 103.855 110.181 104.438C110.181 104.928 110.066 105.37 109.848 105.771C109.624 106.162 109.327 106.48 108.952 106.73C108.577 106.98 108.15 107.141 107.681 107.209C108.04 107.391 108.358 107.6 108.639 107.834C108.931 108.058 109.139 108.433 109.264 108.959C109.316 109.199 109.389 109.459 109.473 109.751C109.556 110.042 109.665 110.329 109.806 110.605C109.941 110.886 110.108 111.12 110.306 111.313C110.514 111.495 110.749 111.584 111.014 111.584V111.792H110.202C109.837 111.516 109.566 111.23 109.389 110.938C109.207 110.636 109.066 110.313 108.973 109.98C108.889 109.636 108.79 109.251 108.681 108.834C108.624 108.6 108.504 108.365 108.327 108.126C108.145 107.876 107.941 107.667 107.723 107.501C107.514 107.334 107.311 107.251 107.118 107.251H105.16V111.23C105.16 111.355 105.249 111.449 105.431 111.501C105.608 111.558 105.827 111.584 106.077 111.584V111.792H103.723V111.584ZM107.098 107.063C107.566 107.063 107.999 106.949 108.389 106.709C108.775 106.459 109.082 106.141 109.306 105.751C109.54 105.35 109.66 104.912 109.66 104.438C109.66 103.954 109.54 103.521 109.306 103.146C109.082 102.771 108.775 102.475 108.389 102.251C107.999 102.032 107.566 101.917 107.098 101.917H105.889C105.764 101.933 105.608 101.959 105.431 102.001C105.249 102.042 105.16 102.126 105.16 102.251V107.063H107.098Z" fill="#C8B7A1"/>
<path d="M119.184 110.896H119.413L118.85 111.792H113.246V111.584H113.413C113.548 111.584 113.704 111.563 113.871 111.521C114.048 111.469 114.142 111.376 114.142 111.251V102.251C114.142 102.167 114.09 102.105 113.996 102.063C113.913 102.011 113.809 101.975 113.684 101.959C113.569 101.949 113.465 101.938 113.371 101.938C113.288 101.928 113.246 101.917 113.246 101.917V101.709H118.767V102.563H118.663C118.647 102.553 118.605 102.49 118.538 102.376C118.48 102.266 118.402 102.162 118.309 102.063C118.21 101.969 118.105 101.917 117.996 101.917H114.663V106.084H118.038C118.105 106.084 118.168 106.032 118.225 105.917C118.293 105.808 118.329 105.751 118.329 105.751H118.434V106.646H118.329C118.329 106.646 118.293 106.594 118.225 106.48C118.168 106.355 118.105 106.292 118.038 106.292H114.663V111.584H118.309C118.46 111.584 118.6 111.537 118.725 111.438C118.85 111.329 118.954 111.219 119.038 111.105C119.121 110.995 119.168 110.928 119.184 110.896Z" fill="#C8B7A1"/>
<path d="M121.789 111.584C122.039 111.584 122.253 111.563 122.435 111.521C122.612 111.469 122.706 111.376 122.706 111.251V102.251C122.69 102.126 122.591 102.037 122.414 101.98C122.247 101.928 122.039 101.896 121.789 101.896V101.709H123.268L126.956 110.813L130.56 101.709H132.039V101.896C131.789 101.896 131.57 101.928 131.393 101.98C131.211 102.037 131.122 102.126 131.122 102.251V111.251C131.122 111.376 131.211 111.469 131.393 111.521C131.57 111.563 131.789 111.584 132.039 111.584V111.792H129.706V111.584C129.956 111.584 130.169 111.563 130.352 111.521C130.529 111.469 130.622 111.376 130.622 111.251V102.126L126.81 111.73H126.768L122.914 102.209V111.251C122.914 111.376 123.003 111.469 123.185 111.521C123.362 111.563 123.581 111.584 123.831 111.584V111.792H121.789V111.584Z" fill="#C8B7A1"/>
<path d="M138.66 112.001C138.087 112.001 137.546 111.86 137.035 111.584C136.52 111.308 136.061 110.928 135.66 110.438C135.27 109.938 134.962 109.386 134.743 108.771C134.52 108.146 134.41 107.501 134.41 106.834C134.41 106.141 134.52 105.49 134.743 104.876C134.962 104.251 135.27 103.699 135.66 103.209C136.061 102.725 136.52 102.344 137.035 102.063C137.546 101.787 138.087 101.646 138.66 101.646H138.806C139.389 101.646 139.936 101.787 140.452 102.063C140.962 102.344 141.415 102.73 141.806 103.23C142.191 103.719 142.499 104.271 142.723 104.896C142.941 105.511 143.056 106.157 143.056 106.834C143.056 107.501 142.941 108.146 142.723 108.771C142.499 109.396 142.191 109.954 141.806 110.438C141.431 110.928 140.983 111.308 140.473 111.584C139.957 111.86 139.4 112.001 138.806 112.001H138.66ZM137.452 111.501C138.311 111.86 139.165 111.86 140.014 111.501C140.499 111.266 140.931 110.912 141.306 110.438C141.691 109.969 141.993 109.417 142.202 108.792C142.41 108.157 142.514 107.501 142.514 106.834C142.514 106.084 142.379 105.37 142.118 104.688C141.868 104.011 141.52 103.428 141.077 102.938C140.629 102.454 140.129 102.136 139.577 101.98C139.421 101.938 139.275 101.912 139.139 101.896C138.999 101.87 138.858 101.855 138.723 101.855C138.598 101.855 138.457 101.865 138.306 101.876C138.165 101.891 138.025 101.928 137.889 101.98C137.332 102.146 136.832 102.475 136.389 102.959C135.941 103.449 135.587 104.032 135.327 104.709C135.061 105.376 134.931 106.084 134.931 106.834C134.931 107.501 135.035 108.157 135.243 108.792C135.462 109.417 135.764 109.969 136.139 110.438C136.525 110.912 136.962 111.266 137.452 111.501Z" fill="#C8B7A1"/>
<path d="M145.277 111.584C145.527 111.584 145.736 111.563 145.902 111.521C146.079 111.469 146.173 111.376 146.173 111.251V102.251C146.173 102.126 146.079 102.037 145.902 101.98C145.736 101.928 145.527 101.896 145.277 101.896V101.709H146.694L152.465 110.771V102.251C152.465 102.126 152.371 102.037 152.194 101.98C152.012 101.928 151.803 101.896 151.569 101.896V101.709H153.59V101.896C153.34 101.896 153.121 101.928 152.944 101.98C152.762 102.037 152.673 102.126 152.673 102.251V111.792H152.486L146.402 102.167V111.251C146.402 111.376 146.491 111.469 146.673 111.521C146.85 111.563 147.069 111.584 147.319 111.584V111.792H145.277V111.584Z" fill="#C8B7A1"/>
<path d="M155.957 111.584H156.124C156.259 111.584 156.421 111.563 156.603 111.521C156.78 111.469 156.874 111.376 156.874 111.251V102.251C156.858 102.141 156.759 102.063 156.582 102.021C156.415 101.969 156.259 101.933 156.124 101.917H155.957V101.709H158.311V101.917H158.124C157.999 101.933 157.842 101.969 157.665 102.021C157.483 102.063 157.395 102.141 157.395 102.251V111.251C157.395 111.376 157.483 111.469 157.665 111.521C157.842 111.563 157.999 111.584 158.124 111.584H158.311V111.792H155.957V111.584Z" fill="#C8B7A1"/>
<path d="M159.812 111.584C160.021 111.584 160.229 111.574 160.438 111.542C160.646 111.516 160.781 111.428 160.854 111.271L164.563 101.709H164.792L168.5 111.292C168.568 111.417 168.688 111.501 168.854 111.542C169.031 111.574 169.229 111.584 169.438 111.584V111.792H167.104V111.584C167.323 111.584 167.526 111.563 167.708 111.521C167.901 111.48 167.969 111.391 167.917 111.251L166.458 107.417H162.563L161.083 111.251H161.104C161.063 111.35 161.094 111.428 161.208 111.48C161.333 111.521 161.484 111.553 161.667 111.563C161.844 111.579 162.01 111.584 162.167 111.584V111.792H159.812V111.584ZM166.375 107.23L164.521 102.438L162.667 107.23H166.375Z" fill="#C8B7A1"/>
<path d="M72.862 130.623C73.112 130.623 73.2995 130.613 73.4245 130.581C73.5599 130.555 73.6745 130.472 73.7578 130.331L76.3411 125.873L73.6745 121.248C73.6016 121.123 73.487 121.04 73.3203 120.998C73.1536 120.956 72.9453 120.936 72.6953 120.936V120.748H75.0911V120.936C74.8411 120.936 74.6172 120.967 74.4245 121.019C74.2422 121.061 74.1797 121.154 74.237 121.29L76.6328 125.373L79.0286 121.29C79.0807 121.139 79.0078 121.04 78.7995 120.998C78.5911 120.956 78.362 120.936 78.112 120.936V120.748H80.1745V120.936C79.9245 120.936 79.7266 120.956 79.5911 120.998C79.4661 121.029 79.3516 121.113 79.2578 121.248L76.737 125.561L79.487 130.331C79.5703 130.456 79.6849 130.54 79.8411 130.581C80.0078 130.613 80.2161 130.623 80.4661 130.623V130.831H78.0703V130.623C78.3203 130.623 78.5339 130.602 78.7161 130.561C78.9089 130.519 78.9766 130.43 78.9245 130.29L76.4453 126.081L74.0078 130.29C73.9349 130.43 74.0078 130.519 74.2161 130.561C74.4349 130.602 74.6641 130.623 74.9036 130.623V130.831H72.862V130.623Z" fill="#C8B7A1"/>
<path d="M82.9987 130.623C83.2487 130.623 83.4362 130.613 83.5612 130.581C83.6966 130.555 83.8112 130.472 83.8945 130.331L86.4779 125.873L83.8112 121.248C83.7383 121.123 83.6237 121.04 83.457 120.998C83.2904 120.956 83.082 120.936 82.832 120.936V120.748H85.2279V120.936C84.9779 120.936 84.7539 120.967 84.5612 121.019C84.3789 121.061 84.3164 121.154 84.3737 121.29L86.7695 125.373L89.1654 121.29C89.2174 121.139 89.1445 121.04 88.9362 120.998C88.7279 120.956 88.4987 120.936 88.2487 120.936V120.748H90.3112V120.936C90.0612 120.936 89.8633 120.956 89.7279 120.998C89.6029 121.029 89.4883 121.113 89.3945 121.248L86.8737 125.561L89.6237 130.331C89.707 130.456 89.8216 130.54 89.9779 130.581C90.1445 130.613 90.3529 130.623 90.6029 130.623V130.831H88.207V130.623C88.457 130.623 88.6706 130.602 88.8529 130.561C89.0456 130.519 89.1133 130.43 89.0612 130.29L86.582 126.081L84.1445 130.29C84.0716 130.43 84.1445 130.519 84.3529 130.561C84.5716 130.602 84.8008 130.623 85.0404 130.623V130.831H82.9987V130.623Z" fill="#C8B7A1"/>
<path d="M93.1393 130.623C93.3893 130.623 93.5768 130.613 93.7018 130.581C93.8372 130.555 93.9518 130.472 94.0352 130.331L96.6185 125.873L93.9518 121.248C93.8789 121.123 93.7643 121.04 93.5977 120.998C93.431 120.956 93.2227 120.936 92.9727 120.936V120.748H95.3685V120.936C95.1185 120.936 94.8945 120.967 94.7018 121.019C94.5195 121.061 94.457 121.154 94.5143 121.29L96.9102 125.373L99.306 121.29C99.3581 121.139 99.2852 121.04 99.0768 120.998C98.8685 120.956 98.6393 120.936 98.3893 120.936V120.748H100.452V120.936C100.202 120.936 100.004 120.956 99.8685 120.998C99.7435 121.029 99.6289 121.113 99.5352 121.248L97.0143 125.561L99.7643 130.331C99.8477 130.456 99.9622 130.54 100.118 130.581C100.285 130.613 100.493 130.623 100.743 130.623V130.831H98.3477V130.623C98.5977 130.623 98.8112 130.602 98.9935 130.561C99.1862 130.519 99.2539 130.43 99.2018 130.29L96.7227 126.081L94.2852 130.29C94.2122 130.43 94.2852 130.519 94.4935 130.561C94.7122 130.602 94.9414 130.623 95.181 130.623V130.831H93.1393V130.623Z" fill="#C8B7A1"/>
<path d="M109.766 126.52H113.557V127.04H109.766V126.52Z" fill="#C8B7A1"/>
<path d="M126.199 131.02C125.533 131.02 124.928 130.884 124.387 130.624C123.845 130.363 123.283 129.988 122.699 129.499L122.574 128.52L122.783 128.436C122.918 128.884 123.178 129.285 123.553 129.645C123.928 130.009 124.35 130.29 124.824 130.499C125.293 130.707 125.751 130.811 126.199 130.811C126.767 130.811 127.283 130.686 127.741 130.436C128.21 130.176 128.585 129.842 128.866 129.436C129.142 129.02 129.283 128.577 129.283 128.103C129.283 127.634 129.142 127.197 128.866 126.79C128.585 126.374 128.21 126.04 127.741 125.79C127.283 125.53 126.767 125.395 126.199 125.395H125.824V125.186H126.053C126.512 125.186 126.918 125.082 127.283 124.874C127.658 124.665 127.954 124.395 128.178 124.061C128.397 123.728 128.512 123.368 128.512 122.978C128.512 122.603 128.397 122.249 128.178 121.915C127.954 121.582 127.658 121.311 127.283 121.103C126.918 120.895 126.512 120.79 126.053 120.79C125.663 120.79 125.303 120.874 124.97 121.04C124.647 121.207 124.366 121.431 124.116 121.707C123.866 121.988 123.663 122.29 123.512 122.624L123.345 122.52L123.574 121.561C123.96 121.311 124.35 121.092 124.741 120.895C125.126 120.686 125.564 120.582 126.053 120.582C126.595 120.582 127.085 120.686 127.533 120.895C127.991 121.103 128.35 121.389 128.616 121.749C128.892 122.098 129.033 122.509 129.033 122.978C129.033 123.535 128.845 124.014 128.47 124.415C128.095 124.822 127.605 125.103 127.012 125.27C127.553 125.353 128.033 125.53 128.449 125.79C128.866 126.056 129.189 126.389 129.428 126.79C129.678 127.181 129.803 127.618 129.803 128.103C129.803 128.676 129.637 129.181 129.303 129.624C128.98 130.056 128.553 130.395 128.012 130.645C127.47 130.895 126.866 131.02 126.199 131.02Z" fill="#C8B7A1"/>
<path d="M132.629 130.916C132.488 130.916 132.368 130.864 132.275 130.77C132.176 130.676 132.129 130.557 132.129 130.416C132.129 130.281 132.176 130.161 132.275 130.062C132.368 129.968 132.488 129.916 132.629 129.916C132.764 129.916 132.884 129.968 132.983 130.062C133.077 130.161 133.129 130.281 133.129 130.416C133.129 130.557 133.077 130.676 132.983 130.77C132.884 130.864 132.764 130.916 132.629 130.916Z" fill="#C8B7A1"/>
<path d="M139.411 130.957C138.87 130.957 138.354 130.827 137.87 130.561C137.396 130.301 136.979 129.931 136.62 129.457C136.255 128.988 135.974 128.436 135.766 127.811C135.557 127.176 135.453 126.478 135.453 125.728C135.453 124.993 135.557 124.311 135.766 123.686C135.974 123.051 136.255 122.493 136.62 122.02C136.979 121.551 137.396 121.181 137.87 120.915C138.354 120.655 138.87 120.52 139.411 120.52C139.953 120.52 140.458 120.655 140.932 120.915C141.417 121.181 141.839 121.551 142.203 122.02C142.562 122.493 142.849 123.051 143.057 123.686C143.266 124.311 143.37 124.993 143.37 125.728C143.37 126.478 143.266 127.176 143.057 127.811C142.849 128.436 142.562 128.988 142.203 129.457C141.839 129.931 141.417 130.301 140.932 130.561C140.458 130.827 139.953 130.957 139.411 130.957ZM139.411 130.749C139.88 130.749 140.328 130.618 140.745 130.353C141.161 130.092 141.526 129.723 141.849 129.249C142.167 128.78 142.411 128.243 142.578 127.645C142.755 127.035 142.849 126.395 142.849 125.728C142.849 125.061 142.755 124.431 142.578 123.832C142.411 123.238 142.167 122.702 141.849 122.228C141.526 121.759 141.161 121.389 140.745 121.124C140.328 120.863 139.88 120.728 139.411 120.728C138.937 120.728 138.495 120.863 138.078 121.124C137.661 121.389 137.292 121.759 136.974 122.228C136.651 122.702 136.401 123.238 136.224 123.832C136.057 124.431 135.974 125.061 135.974 125.728C135.974 126.395 136.057 127.035 136.224 127.645C136.401 128.243 136.651 128.78 136.974 129.249C137.292 129.723 137.661 130.092 138.078 130.353C138.495 130.618 138.937 130.749 139.411 130.749Z" fill="#C8B7A1"/>
<path d="M149.693 130.957C149.151 130.957 148.635 130.827 148.151 130.561C147.677 130.301 147.26 129.931 146.901 129.457C146.536 128.988 146.255 128.436 146.047 127.811C145.839 127.176 145.734 126.478 145.734 125.728C145.734 124.993 145.839 124.311 146.047 123.686C146.255 123.051 146.536 122.493 146.901 122.02C147.26 121.551 147.677 121.181 148.151 120.915C148.635 120.655 149.151 120.52 149.693 120.52C150.234 120.52 150.74 120.655 151.214 120.915C151.698 121.181 152.12 121.551 152.484 122.02C152.844 122.493 153.13 123.051 153.339 123.686C153.547 124.311 153.651 124.993 153.651 125.728C153.651 126.478 153.547 127.176 153.339 127.811C153.13 128.436 152.844 128.988 152.484 129.457C152.12 129.931 151.698 130.301 151.214 130.561C150.74 130.827 150.234 130.957 149.693 130.957ZM149.693 130.749C150.161 130.749 150.609 130.618 151.026 130.353C151.443 130.092 151.807 129.723 152.13 129.249C152.448 128.78 152.693 128.243 152.859 127.645C153.036 127.035 153.13 126.395 153.13 125.728C153.13 125.061 153.036 124.431 152.859 123.832C152.693 123.238 152.448 122.702 152.13 122.228C151.807 121.759 151.443 121.389 151.026 121.124C150.609 120.863 150.161 120.728 149.693 120.728C149.219 120.728 148.776 120.863 148.359 121.124C147.943 121.389 147.573 121.759 147.255 122.228C146.932 122.702 146.682 123.238 146.505 123.832C146.339 124.431 146.255 125.061 146.255 125.728C146.255 126.395 146.339 127.035 146.505 127.645C146.682 128.243 146.932 128.78 147.255 129.249C147.573 129.723 147.943 130.092 148.359 130.353C148.776 130.618 149.219 130.749 149.693 130.749Z" fill="#C8B7A1"/>
<path d="M162.672 130.623H162.859C162.995 130.613 163.151 130.581 163.318 130.54C163.495 130.498 163.589 130.415 163.589 130.29V121.29C163.589 121.165 163.495 121.081 163.318 121.04C163.151 120.998 162.995 120.972 162.859 120.956H162.672V120.748H166.047C166.615 120.748 167.13 120.883 167.589 121.144C168.057 121.394 168.432 121.743 168.714 122.186C168.99 122.618 169.13 123.118 169.13 123.686C169.13 124.243 168.99 124.748 168.714 125.206C168.432 125.654 168.057 125.998 167.589 126.248C167.13 126.498 166.615 126.623 166.047 126.623H164.109V130.29C164.109 130.415 164.198 130.498 164.38 130.54C164.557 130.581 164.714 130.613 164.839 130.623H165.026V130.831H162.672V130.623ZM166.047 126.415C166.516 126.415 166.948 126.29 167.339 126.04C167.724 125.779 168.031 125.436 168.255 125.019C168.49 124.592 168.609 124.144 168.609 123.686C168.609 123.217 168.49 122.769 168.255 122.352C168.031 121.936 167.724 121.602 167.339 121.352C166.948 121.092 166.516 120.956 166.047 120.956H164.839C164.714 120.972 164.557 120.998 164.38 121.04C164.198 121.081 164.109 121.165 164.109 121.29V126.415H166.047Z" fill="#C8B7A1"/>
<path d="M171.496 130.623C171.746 130.623 171.96 130.602 172.142 130.561C172.319 130.508 172.413 130.415 172.413 130.29V121.29C172.397 121.165 172.298 121.076 172.121 121.019C171.954 120.967 171.746 120.936 171.496 120.936V120.748H172.975L176.663 129.852L180.267 120.748H181.746V120.936C181.496 120.936 181.277 120.967 181.1 121.019C180.918 121.076 180.829 121.165 180.829 121.29V130.29C180.829 130.415 180.918 130.508 181.1 130.561C181.277 130.602 181.496 130.623 181.746 130.623V130.831H179.413V130.623C179.663 130.623 179.876 130.602 180.059 130.561C180.236 130.508 180.329 130.415 180.329 130.29V121.165L176.517 130.769H176.475L172.621 121.248V130.29C172.621 130.415 172.71 130.508 172.892 130.561C173.069 130.602 173.288 130.623 173.538 130.623V130.831H171.496V130.623Z" fill="#C8B7A1"/>
<path d="M87.5117 168.703C87.7617 168.703 87.9753 168.677 88.1576 168.62C88.3346 168.568 88.4284 168.474 88.4284 168.349V159.37C88.4284 159.245 88.3346 159.161 88.1576 159.12C87.9753 159.068 87.7617 159.036 87.5117 159.036V158.828H90.8867C91.4544 158.828 91.9701 158.943 92.4284 159.161C92.8971 159.37 93.2721 159.677 93.5534 160.078C93.8294 160.484 93.9701 160.974 93.9701 161.557C93.9701 162.047 93.8555 162.49 93.6367 162.891C93.4128 163.281 93.1159 163.599 92.7409 163.849C92.3659 164.099 91.9388 164.26 91.4701 164.328C91.8294 164.51 92.1471 164.719 92.4284 164.953C92.7201 165.177 92.9284 165.552 93.0534 166.078C93.1055 166.318 93.1784 166.578 93.2617 166.87C93.3451 167.161 93.4544 167.448 93.5951 167.724C93.7305 168.005 93.8971 168.24 94.0951 168.432C94.3034 168.615 94.5378 168.703 94.8034 168.703V168.911H93.9909C93.6263 168.635 93.3555 168.349 93.1784 168.057C92.9961 167.755 92.8555 167.432 92.7617 167.099C92.6784 166.755 92.5794 166.37 92.4701 165.953C92.4128 165.719 92.293 165.484 92.1159 165.245C91.9336 164.995 91.7305 164.786 91.5117 164.62C91.3034 164.453 91.1003 164.37 90.9076 164.37H88.9492V168.349C88.9492 168.474 89.0378 168.568 89.2201 168.62C89.3971 168.677 89.6159 168.703 89.8659 168.703V168.911H87.5117V168.703ZM90.8867 164.182C91.3555 164.182 91.7878 164.068 92.1784 163.828C92.5638 163.578 92.8711 163.26 93.0951 162.87C93.3294 162.469 93.4492 162.031 93.4492 161.557C93.4492 161.073 93.3294 160.641 93.0951 160.266C92.8711 159.891 92.5638 159.594 92.1784 159.37C91.7878 159.151 91.3555 159.036 90.8867 159.036H89.6784C89.5534 159.052 89.3971 159.078 89.2201 159.12C89.0378 159.161 88.9492 159.245 88.9492 159.37V164.182H90.8867Z" fill="#C8B7A1"/>
<path d="M102.977 168.016H103.206L102.643 168.911H97.0391V168.703H97.2057C97.3411 168.703 97.4974 168.682 97.6641 168.641C97.8411 168.589 97.9349 168.495 97.9349 168.37V159.37C97.9349 159.286 97.8828 159.224 97.7891 159.182C97.7057 159.13 97.6016 159.094 97.4766 159.078C97.362 159.068 97.2578 159.057 97.1641 159.057C97.0807 159.047 97.0391 159.036 97.0391 159.036V158.828H102.56V159.682H102.456C102.44 159.672 102.398 159.609 102.331 159.495C102.273 159.385 102.195 159.281 102.102 159.182C102.003 159.089 101.898 159.036 101.789 159.036H98.4557V163.203H101.831C101.898 163.203 101.961 163.151 102.018 163.036C102.086 162.927 102.122 162.87 102.122 162.87H102.227V163.766H102.122C102.122 163.766 102.086 163.714 102.018 163.599C101.961 163.474 101.898 163.411 101.831 163.411H98.4557V168.703H102.102C102.253 168.703 102.393 168.656 102.518 168.557C102.643 168.448 102.747 168.339 102.831 168.224C102.914 168.115 102.961 168.047 102.977 168.016Z" fill="#C8B7A1"/>
<path d="M109.684 169.098C109.1 169.098 108.548 168.963 108.038 168.702C107.522 168.426 107.069 168.051 106.684 167.577C106.293 167.109 105.986 166.557 105.767 165.932C105.543 165.307 105.434 164.635 105.434 163.911C105.434 163.202 105.543 162.536 105.767 161.911C105.986 161.275 106.293 160.723 106.684 160.265C107.069 159.796 107.522 159.426 108.038 159.161C108.548 158.885 109.1 158.744 109.684 158.744C110.293 158.744 110.871 158.88 111.413 159.14L111.371 159.098C111.632 159.223 111.876 159.348 112.1 159.473C112.335 159.598 112.522 159.702 112.663 159.786C112.798 159.869 112.871 159.911 112.871 159.911L113.079 160.869H113.1L112.913 160.973C112.715 160.531 112.444 160.161 112.1 159.869C111.751 159.567 111.371 159.338 110.954 159.182C110.538 159.031 110.111 158.952 109.684 158.952C109.168 158.952 108.684 159.093 108.225 159.369C107.777 159.635 107.382 160.005 107.038 160.473C106.704 160.947 106.439 161.484 106.246 162.077C106.048 162.661 105.954 163.275 105.954 163.911C105.954 164.525 106.038 165.114 106.204 165.682C106.382 166.255 106.626 166.765 106.934 167.223C107.251 167.671 107.621 168.036 108.038 168.327C108.465 168.619 108.918 168.801 109.392 168.869C109.434 168.885 109.48 168.89 109.538 168.89C109.59 168.89 109.642 168.89 109.684 168.89C110.361 168.89 111.001 168.692 111.6 168.286C112.194 167.869 112.684 167.317 113.059 166.619L113.246 166.702L112.975 167.807C112.975 167.807 112.892 167.864 112.725 167.973C112.569 168.072 112.361 168.192 112.1 168.327C111.835 168.468 111.543 168.609 111.225 168.744H111.246C110.757 168.979 110.236 169.098 109.684 169.098Z" fill="#C8B7A1"/>
<path d="M121.555 168.016H121.784L121.221 168.911H115.617V168.703H115.784C115.919 168.703 116.076 168.682 116.242 168.641C116.419 168.589 116.513 168.495 116.513 168.37V159.37C116.513 159.286 116.461 159.224 116.367 159.182C116.284 159.13 116.18 159.094 116.055 159.078C115.94 159.068 115.836 159.057 115.742 159.057C115.659 159.047 115.617 159.036 115.617 159.036V158.828H121.138V159.682H121.034C121.018 159.672 120.977 159.609 120.909 159.495C120.852 159.385 120.773 159.281 120.68 159.182C120.581 159.089 120.477 159.036 120.367 159.036H117.034V163.203H120.409C120.477 163.203 120.539 163.151 120.596 163.036C120.664 162.927 120.701 162.87 120.701 162.87H120.805V163.766H120.701C120.701 163.766 120.664 163.714 120.596 163.599C120.539 163.474 120.477 163.411 120.409 163.411H117.034V168.703H120.68C120.831 168.703 120.971 168.656 121.096 168.557C121.221 168.448 121.326 168.339 121.409 168.224C121.492 168.115 121.539 168.047 121.555 168.016Z" fill="#C8B7A1"/>
<path d="M124.156 168.703H124.344C124.479 168.693 124.635 168.661 124.802 168.62C124.979 168.578 125.073 168.495 125.073 168.37V159.37C125.073 159.245 124.979 159.161 124.802 159.12C124.635 159.078 124.479 159.052 124.344 159.036H124.156V158.828H127.531C128.099 158.828 128.615 158.964 129.073 159.224C129.542 159.474 129.917 159.823 130.198 160.266C130.474 160.698 130.615 161.198 130.615 161.766C130.615 162.323 130.474 162.828 130.198 163.286C129.917 163.734 129.542 164.078 129.073 164.328C128.615 164.578 128.099 164.703 127.531 164.703H125.594V168.37C125.594 168.495 125.682 168.578 125.865 168.62C126.042 168.661 126.198 168.693 126.323 168.703H126.51V168.911H124.156V168.703ZM127.531 164.495C128 164.495 128.432 164.37 128.823 164.12C129.208 163.859 129.516 163.516 129.74 163.099C129.974 162.672 130.094 162.224 130.094 161.766C130.094 161.297 129.974 160.849 129.74 160.432C129.516 160.016 129.208 159.682 128.823 159.432C128.432 159.172 128 159.036 127.531 159.036H126.323C126.198 159.052 126.042 159.078 125.865 159.12C125.682 159.161 125.594 159.245 125.594 159.37V164.495H127.531Z" fill="#C8B7A1"/>
<path d="M137.086 169.098C136.503 169.098 135.951 168.963 135.44 168.702C134.924 168.426 134.471 168.051 134.086 167.577C133.695 167.109 133.388 166.557 133.169 165.932C132.945 165.307 132.836 164.635 132.836 163.911C132.836 163.202 132.945 162.536 133.169 161.911C133.388 161.275 133.695 160.723 134.086 160.265C134.471 159.796 134.924 159.426 135.44 159.161C135.951 158.885 136.503 158.744 137.086 158.744C137.695 158.744 138.273 158.88 138.815 159.14L138.773 159.098C139.034 159.223 139.279 159.348 139.503 159.473C139.737 159.598 139.924 159.702 140.065 159.786C140.201 159.869 140.273 159.911 140.273 159.911L140.482 160.869H140.503L140.315 160.973C140.117 160.531 139.846 160.161 139.503 159.869C139.154 159.567 138.773 159.338 138.357 159.182C137.94 159.031 137.513 158.952 137.086 158.952C136.57 158.952 136.086 159.093 135.628 159.369C135.18 159.635 134.784 160.005 134.44 160.473C134.107 160.947 133.841 161.484 133.648 162.077C133.451 162.661 133.357 163.275 133.357 163.911C133.357 164.525 133.44 165.114 133.607 165.682C133.784 166.255 134.029 166.765 134.336 167.223C134.654 167.671 135.023 168.036 135.44 168.327C135.867 168.619 136.32 168.801 136.794 168.869C136.836 168.885 136.883 168.89 136.94 168.89C136.992 168.89 137.044 168.89 137.086 168.89C137.763 168.89 138.404 168.692 139.003 168.286C139.596 167.869 140.086 167.317 140.461 166.619L140.648 166.702L140.378 167.807C140.378 167.807 140.294 167.864 140.128 167.973C139.971 168.072 139.763 168.192 139.503 168.327C139.237 168.468 138.945 168.609 138.628 168.744H138.648C138.159 168.979 137.638 169.098 137.086 169.098Z" fill="#C8B7A1"/>
<path d="M143.02 168.703H143.186C143.322 168.703 143.483 168.682 143.665 168.641C143.842 168.589 143.936 168.495 143.936 168.37V159.37C143.921 159.26 143.822 159.182 143.645 159.141C143.478 159.089 143.322 159.052 143.186 159.036H143.02V158.828H145.374V159.036H145.186C145.061 159.052 144.905 159.089 144.728 159.141C144.546 159.182 144.457 159.26 144.457 159.37V168.37C144.457 168.495 144.546 168.589 144.728 168.641C144.905 168.682 145.061 168.703 145.186 168.703H145.374V168.911H143.02V168.703Z" fill="#C8B7A1"/>
<path d="M151.251 157.87L152.48 156.453L152.835 156.828L151.418 158.036L151.251 157.87ZM151.98 169.12C151.408 169.12 150.866 168.979 150.355 168.703C149.84 168.427 149.382 168.047 148.98 167.557C148.59 167.057 148.283 166.505 148.064 165.891C147.84 165.266 147.73 164.62 147.73 163.953C147.73 163.26 147.84 162.609 148.064 161.995C148.283 161.37 148.59 160.818 148.98 160.328C149.382 159.844 149.84 159.464 150.355 159.182C150.866 158.906 151.408 158.766 151.98 158.766H152.126C152.71 158.766 153.257 158.906 153.772 159.182C154.283 159.464 154.736 159.849 155.126 160.349C155.512 160.839 155.819 161.391 156.043 162.016C156.262 162.63 156.376 163.276 156.376 163.953C156.376 164.62 156.262 165.266 156.043 165.891C155.819 166.516 155.512 167.073 155.126 167.557C154.751 168.047 154.303 168.427 153.793 168.703C153.277 168.979 152.72 169.12 152.126 169.12H151.98ZM150.772 168.62C151.632 168.979 152.486 168.979 153.335 168.62C153.819 168.385 154.251 168.031 154.626 167.557C155.012 167.089 155.314 166.536 155.522 165.911C155.73 165.276 155.835 164.62 155.835 163.953C155.835 163.203 155.699 162.49 155.439 161.807C155.189 161.13 154.84 160.547 154.397 160.057C153.949 159.573 153.449 159.255 152.897 159.099C152.741 159.057 152.595 159.031 152.46 159.016C152.319 158.99 152.178 158.974 152.043 158.974C151.918 158.974 151.777 158.984 151.626 158.995C151.486 159.01 151.345 159.047 151.21 159.099C150.652 159.266 150.152 159.594 149.71 160.078C149.262 160.568 148.908 161.151 148.647 161.828C148.382 162.495 148.251 163.203 148.251 163.953C148.251 164.62 148.355 165.276 148.564 165.911C148.783 166.536 149.085 167.089 149.46 167.557C149.845 168.031 150.283 168.385 150.772 168.62Z" fill="#C8B7A1"/>
<path d="M158.598 168.703C158.848 168.703 159.056 168.682 159.223 168.641C159.4 168.589 159.493 168.495 159.493 168.37V159.37C159.493 159.245 159.4 159.156 159.223 159.099C159.056 159.047 158.848 159.016 158.598 159.016V158.828H160.014L165.785 167.891V159.37C165.785 159.245 165.691 159.156 165.514 159.099C165.332 159.047 165.124 159.016 164.889 159.016V158.828H166.91V159.016C166.66 159.016 166.441 159.047 166.264 159.099C166.082 159.156 165.993 159.245 165.993 159.37V168.911H165.806L159.723 159.286V168.37C159.723 168.495 159.811 168.589 159.993 168.641C160.171 168.682 160.389 168.703 160.639 168.703V168.911H158.598V168.703Z" fill="#C8B7A1"/>
<mask id="mask6_2381_1559" style="mask-type:luminance" maskUnits="userSpaceOnUse" x="55" y="177" width="10" height="13">
<path d="M55.7227 177.332H64.832V189.332H55.7227V177.332Z" fill="white"/>
</mask>
<g mask="url(#mask6_2381_1559)">
<path d="M60.3086 188.137C59.6419 188.137 59.0378 188.001 58.4961 187.741C57.9544 187.48 57.3919 187.105 56.8086 186.616L56.6836 185.637L56.8919 185.553C57.0273 186.001 57.2878 186.402 57.6628 186.762C58.0378 187.126 58.4596 187.408 58.9336 187.616C59.4023 187.824 59.8607 187.928 60.3086 187.928C60.8763 187.928 61.3919 187.803 61.8503 187.553C62.319 187.293 62.694 186.96 62.9753 186.553C63.2513 186.137 63.3919 185.694 63.3919 185.22C63.3919 184.751 63.2513 184.314 62.9753 183.908C62.694 183.491 62.319 183.158 61.8503 182.908C61.3919 182.647 60.8763 182.512 60.3086 182.512H59.9336V182.303H60.1628C60.6211 182.303 61.0273 182.199 61.3919 181.991C61.7669 181.783 62.0638 181.512 62.2878 181.178C62.5065 180.845 62.6211 180.486 62.6211 180.095C62.6211 179.72 62.5065 179.366 62.2878 179.033C62.0638 178.699 61.7669 178.428 61.3919 178.22C61.0273 178.012 60.6211 177.908 60.1628 177.908C59.7721 177.908 59.4128 177.991 59.0794 178.158C58.7565 178.324 58.4753 178.548 58.2253 178.824C57.9753 179.105 57.7721 179.408 57.6211 179.741L57.4544 179.637L57.6836 178.678C58.069 178.428 58.4596 178.21 58.8503 178.012C59.2357 177.803 59.6732 177.699 60.1628 177.699C60.7044 177.699 61.194 177.803 61.6419 178.012C62.1003 178.22 62.4596 178.507 62.7253 178.866C63.0013 179.215 63.1419 179.626 63.1419 180.095C63.1419 180.652 62.9544 181.132 62.5794 181.533C62.2044 181.939 61.7148 182.22 61.1211 182.387C61.6628 182.47 62.1419 182.647 62.5586 182.908C62.9753 183.173 63.2982 183.507 63.5378 183.908C63.7878 184.298 63.9128 184.736 63.9128 185.22C63.9128 185.793 63.7461 186.298 63.4128 186.741C63.0898 187.173 62.6628 187.512 62.1211 187.762C61.5794 188.012 60.9753 188.137 60.3086 188.137Z" fill="#C8B7A1"/>
</g>
<path d="M66.7383 188.033C66.5977 188.033 66.4779 187.981 66.3841 187.887C66.2852 187.794 66.2383 187.674 66.2383 187.533C66.2383 187.398 66.2852 187.278 66.3841 187.179C66.4779 187.085 66.5977 187.033 66.7383 187.033C66.8737 187.033 66.9935 187.085 67.0924 187.179C67.1862 187.278 67.2383 187.398 67.2383 187.533C67.2383 187.674 67.1862 187.794 67.0924 187.887C66.9935 187.981 66.8737 188.033 66.7383 188.033Z" fill="#C8B7A1"/>
<path d="M73.5247 188.074C72.9831 188.074 72.4674 187.944 71.9831 187.678C71.5091 187.418 71.0924 187.048 70.7331 186.574C70.3685 186.105 70.0872 185.553 69.8789 184.928C69.6706 184.293 69.5664 183.595 69.5664 182.845C69.5664 182.111 69.6706 181.428 69.8789 180.803C70.0872 180.168 70.3685 179.611 70.7331 179.137C71.0924 178.668 71.5091 178.298 71.9831 178.033C72.4674 177.772 72.9831 177.637 73.5247 177.637C74.0664 177.637 74.5716 177.772 75.0456 178.033C75.5299 178.298 75.9518 178.668 76.3164 179.137C76.6758 179.611 76.9622 180.168 77.1706 180.803C77.3789 181.428 77.4831 182.111 77.4831 182.845C77.4831 183.595 77.3789 184.293 77.1706 184.928C76.9622 185.553 76.6758 186.105 76.3164 186.574C75.9518 187.048 75.5299 187.418 75.0456 187.678C74.5716 187.944 74.0664 188.074 73.5247 188.074ZM73.5247 187.866C73.9935 187.866 74.4414 187.736 74.8581 187.47C75.2747 187.21 75.6393 186.84 75.9622 186.366C76.2799 185.897 76.5247 185.361 76.6914 184.762C76.8685 184.152 76.9622 183.512 76.9622 182.845C76.9622 182.178 76.8685 181.548 76.6914 180.949C76.5247 180.355 76.2799 179.819 75.9622 179.345C75.6393 178.876 75.2747 178.507 74.8581 178.241C74.4414 177.98 73.9935 177.845 73.5247 177.845C73.0508 177.845 72.6081 177.98 72.1914 178.241C71.7747 178.507 71.4049 178.876 71.0872 179.345C70.7643 179.819 70.5143 180.355 70.3372 180.949C70.1706 181.548 70.0872 182.178 70.0872 182.845C70.0872 183.512 70.1706 184.152 70.3372 184.762C70.5143 185.361 70.7643 185.897 71.0872 186.366C71.4049 186.84 71.7747 187.21 72.1914 187.47C72.6081 187.736 73.0508 187.866 73.5247 187.866Z" fill="#C8B7A1"/>
<path d="M83.806 188.074C83.2643 188.074 82.7487 187.944 82.2643 187.678C81.7904 187.418 81.3737 187.048 81.0143 186.574C80.6497 186.105 80.3685 185.553 80.1602 184.928C79.9518 184.293 79.8477 183.595 79.8477 182.845C79.8477 182.111 79.9518 181.428 80.1602 180.803C80.3685 180.168 80.6497 179.611 81.0143 179.137C81.3737 178.668 81.7904 178.298 82.2643 178.033C82.7487 177.772 83.2643 177.637 83.806 177.637C84.3477 177.637 84.8529 177.772 85.3268 178.033C85.8112 178.298 86.2331 178.668 86.5977 179.137C86.957 179.611 87.2435 180.168 87.4518 180.803C87.6602 181.428 87.7643 182.111 87.7643 182.845C87.7643 183.595 87.6602 184.293 87.4518 184.928C87.2435 185.553 86.957 186.105 86.5977 186.574C86.2331 187.048 85.8112 187.418 85.3268 187.678C84.8529 187.944 84.3477 188.074 83.806 188.074ZM83.806 187.866C84.2747 187.866 84.7227 187.736 85.1393 187.47C85.556 187.21 85.9206 186.84 86.2435 186.366C86.5612 185.897 86.806 185.361 86.9727 184.762C87.1497 184.152 87.2435 183.512 87.2435 182.845C87.2435 182.178 87.1497 181.548 86.9727 180.949C86.806 180.355 86.5612 179.819 86.2435 179.345C85.9206 178.876 85.556 178.507 85.1393 178.241C84.7227 177.98 84.2747 177.845 83.806 177.845C83.332 177.845 82.8893 177.98 82.4727 178.241C82.056 178.507 81.6862 178.876 81.3685 179.345C81.0456 179.819 80.7956 180.355 80.6185 180.949C80.4518 181.548 80.3685 182.178 80.3685 182.845C80.3685 183.512 80.4518 184.152 80.6185 184.762C80.7956 185.361 81.0456 185.897 81.3685 186.366C81.6862 186.84 82.056 187.21 82.4727 187.47C82.8893 187.736 83.332 187.866 83.806 187.866Z" fill="#C8B7A1"/>
<path d="M96.7812 187.742H96.9688C97.1042 187.732 97.2604 187.701 97.4271 187.659C97.6042 187.617 97.6979 187.534 97.6979 187.409V178.409C97.6979 178.284 97.6042 178.201 97.4271 178.159C97.2604 178.117 97.1042 178.091 96.9688 178.076H96.7812V177.867H100.156C100.724 177.867 101.24 178.003 101.698 178.263C102.167 178.513 102.542 178.862 102.823 179.305C103.099 179.737 103.24 180.237 103.24 180.805C103.24 181.362 103.099 181.867 102.823 182.326C102.542 182.773 102.167 183.117 101.698 183.367C101.24 183.617 100.724 183.742 100.156 183.742H98.2188V187.409C98.2188 187.534 98.3073 187.617 98.4896 187.659C98.6667 187.701 98.8229 187.732 98.9479 187.742H99.1354V187.951H96.7812V187.742ZM100.156 183.534C100.625 183.534 101.057 183.409 101.448 183.159C101.833 182.898 102.141 182.555 102.365 182.138C102.599 181.711 102.719 181.263 102.719 180.805C102.719 180.336 102.599 179.888 102.365 179.471C102.141 179.055 101.833 178.721 101.448 178.471C101.057 178.211 100.625 178.076 100.156 178.076H98.9479C98.8229 178.091 98.6667 178.117 98.4896 178.159C98.3073 178.201 98.2188 178.284 98.2188 178.409V183.534H100.156Z" fill="#C8B7A1"/>
<path d="M105.609 187.742C105.859 187.742 106.073 187.721 106.255 187.68C106.432 187.628 106.526 187.534 106.526 187.409V178.409C106.51 178.284 106.411 178.195 106.234 178.138C106.068 178.086 105.859 178.055 105.609 178.055V177.867H107.089L110.776 186.971L114.38 177.867H115.859V178.055C115.609 178.055 115.391 178.086 115.214 178.138C115.031 178.195 114.943 178.284 114.943 178.409V187.409C114.943 187.534 115.031 187.628 115.214 187.68C115.391 187.721 115.609 187.742 115.859 187.742V187.951H113.526V187.742C113.776 187.742 113.99 187.721 114.172 187.68C114.349 187.628 114.443 187.534 114.443 187.409V178.284L110.63 187.888H110.589L106.734 178.367V187.409C106.734 187.534 106.823 187.628 107.005 187.68C107.182 187.721 107.401 187.742 107.651 187.742V187.951H105.609V187.742Z" fill="#C8B7A1"/>
<path d="M124.887 183.637H128.678V184.158H124.887V183.637Z" fill="#C8B7A1"/>
<path d="M142.716 187.742H142.883C143.008 187.732 143.159 187.701 143.341 187.659C143.534 187.607 143.633 187.513 143.633 187.388V185.763H137.695L143.633 177.867H144.133V185.555H144.695C144.831 185.555 144.966 185.508 145.091 185.409C145.216 185.299 145.32 185.19 145.404 185.076C145.487 184.951 145.534 184.878 145.549 184.846H145.799L145.237 185.763H144.133V187.388C144.133 187.513 144.221 187.607 144.404 187.659C144.581 187.701 144.737 187.732 144.862 187.742H145.049V187.951H142.716V187.742ZM143.633 185.555V178.201L138.112 185.555H143.633Z" fill="#C8B7A1"/>
<path d="M148.621 188.033C148.48 188.033 148.361 187.981 148.267 187.887C148.168 187.794 148.121 187.674 148.121 187.533C148.121 187.398 148.168 187.278 148.267 187.179C148.361 187.085 148.48 187.033 148.621 187.033C148.757 187.033 148.876 187.085 148.975 187.179C149.069 187.278 149.121 187.398 149.121 187.533C149.121 187.674 149.069 187.794 148.975 187.887C148.876 187.981 148.757 188.033 148.621 188.033Z" fill="#C8B7A1"/>
<path d="M155.404 188.074C154.862 188.074 154.346 187.944 153.862 187.678C153.388 187.418 152.971 187.048 152.612 186.574C152.247 186.105 151.966 185.553 151.758 184.928C151.549 184.293 151.445 183.595 151.445 182.845C151.445 182.111 151.549 181.428 151.758 180.803C151.966 180.168 152.247 179.611 152.612 179.137C152.971 178.668 153.388 178.298 153.862 178.033C154.346 177.772 154.862 177.637 155.404 177.637C155.945 177.637 156.451 177.772 156.924 178.033C157.409 178.298 157.831 178.668 158.195 179.137C158.555 179.611 158.841 180.168 159.049 180.803C159.258 181.428 159.362 182.111 159.362 182.845C159.362 183.595 159.258 184.293 159.049 184.928C158.841 185.553 158.555 186.105 158.195 186.574C157.831 187.048 157.409 187.418 156.924 187.678C156.451 187.944 155.945 188.074 155.404 188.074ZM155.404 187.866C155.872 187.866 156.32 187.736 156.737 187.47C157.154 187.21 157.518 186.84 157.841 186.366C158.159 185.897 158.404 185.361 158.57 184.762C158.747 184.152 158.841 183.512 158.841 182.845C158.841 182.178 158.747 181.548 158.57 180.949C158.404 180.355 158.159 179.819 157.841 179.345C157.518 178.876 157.154 178.507 156.737 178.241C156.32 177.98 155.872 177.845 155.404 177.845C154.93 177.845 154.487 177.98 154.07 178.241C153.654 178.507 153.284 178.876 152.966 179.345C152.643 179.819 152.393 180.355 152.216 180.949C152.049 181.548 151.966 182.178 151.966 182.845C151.966 183.512 152.049 184.152 152.216 184.762C152.393 185.361 152.643 185.897 152.966 186.366C153.284 186.84 153.654 187.21 154.07 187.47C154.487 187.736 154.93 187.866 155.404 187.866Z" fill="#C8B7A1"/>
<path d="M165.685 188.074C165.143 188.074 164.628 187.944 164.143 187.678C163.669 187.418 163.253 187.048 162.893 186.574C162.529 186.105 162.247 185.553 162.039 184.928C161.831 184.293 161.727 183.595 161.727 182.845C161.727 182.111 161.831 181.428 162.039 180.803C162.247 180.168 162.529 179.611 162.893 179.137C163.253 178.668 163.669 178.298 164.143 178.033C164.628 177.772 165.143 177.637 165.685 177.637C166.227 177.637 166.732 177.772 167.206 178.033C167.69 178.298 168.112 178.668 168.477 179.137C168.836 179.611 169.122 180.168 169.331 180.803C169.539 181.428 169.643 182.111 169.643 182.845C169.643 183.595 169.539 184.293 169.331 184.928C169.122 185.553 168.836 186.105 168.477 186.574C168.112 187.048 167.69 187.418 167.206 187.678C166.732 187.944 166.227 188.074 165.685 188.074ZM165.685 187.866C166.154 187.866 166.602 187.736 167.018 187.47C167.435 187.21 167.799 186.84 168.122 186.366C168.44 185.897 168.685 185.361 168.852 184.762C169.029 184.152 169.122 183.512 169.122 182.845C169.122 182.178 169.029 181.548 168.852 180.949C168.685 180.355 168.44 179.819 168.122 179.345C167.799 178.876 167.435 178.507 167.018 178.241C166.602 177.98 166.154 177.845 165.685 177.845C165.211 177.845 164.768 177.98 164.352 178.241C163.935 178.507 163.565 178.876 163.247 179.345C162.924 179.819 162.674 180.355 162.497 180.949C162.331 181.548 162.247 182.178 162.247 182.845C162.247 183.512 162.331 184.152 162.497 184.762C162.674 185.361 162.924 185.897 163.247 186.366C163.565 186.84 163.935 187.21 164.352 187.47C164.768 187.736 165.211 187.866 165.685 187.866Z" fill="#C8B7A1"/>
<path d="M178.664 187.742H178.852C178.987 187.732 179.143 187.701 179.31 187.659C179.487 187.617 179.581 187.534 179.581 187.409V178.409C179.581 178.284 179.487 178.201 179.31 178.159C179.143 178.117 178.987 178.091 178.852 178.076H178.664V177.867H182.039C182.607 177.867 183.122 178.003 183.581 178.263C184.049 178.513 184.424 178.862 184.706 179.305C184.982 179.737 185.122 180.237 185.122 180.805C185.122 181.362 184.982 181.867 184.706 182.326C184.424 182.773 184.049 183.117 183.581 183.367C183.122 183.617 182.607 183.742 182.039 183.742H180.102V187.409C180.102 187.534 180.19 187.617 180.372 187.659C180.549 187.701 180.706 187.732 180.831 187.742H181.018V187.951H178.664V187.742ZM182.039 183.534C182.508 183.534 182.94 183.409 183.331 183.159C183.716 182.898 184.023 182.555 184.247 182.138C184.482 181.711 184.602 181.263 184.602 180.805C184.602 180.336 184.482 179.888 184.247 179.471C184.023 179.055 183.716 178.721 183.331 178.471C182.94 178.211 182.508 178.076 182.039 178.076H180.831C180.706 178.091 180.549 178.117 180.372 178.159C180.19 178.201 180.102 178.284 180.102 178.409V183.534H182.039Z" fill="#C8B7A1"/>
<path d="M187.488 187.742C187.738 187.742 187.952 187.721 188.134 187.68C188.311 187.628 188.405 187.534 188.405 187.409V178.409C188.389 178.284 188.29 178.195 188.113 178.138C187.947 178.086 187.738 178.055 187.488 178.055V177.867H188.967L192.655 186.971L196.259 177.867H197.738V178.055C197.488 178.055 197.27 178.086 197.092 178.138C196.91 178.195 196.822 178.284 196.822 178.409V187.409C196.822 187.534 196.91 187.628 197.092 187.68C197.27 187.721 197.488 187.742 197.738 187.742V187.951H195.405V187.742C195.655 187.742 195.868 187.721 196.051 187.68C196.228 187.628 196.322 187.534 196.322 187.409V178.284L192.509 187.888H192.467L188.613 178.367V187.409C188.613 187.534 188.702 187.628 188.884 187.68C189.061 187.721 189.28 187.742 189.53 187.742V187.951H187.488V187.742Z" fill="#C8B7A1"/>
</g>
</svg>
