<svg width="253" height="293" viewBox="0 0 253 293" fill="none" xmlns="http://www.w3.org/2000/svg">
<mask id="mask0_2315_4984" style="mask-type:luminance" maskUnits="userSpaceOnUse" x="0" y="0" width="253" height="293">
<path d="M0.859375 0.146484H252.964V292.631H0.859375V0.146484Z" fill="white"/>
</mask>
<g mask="url(#mask0_2315_4984)">
<mask id="mask1_2315_4984" style="mask-type:luminance" maskUnits="userSpaceOnUse" x="0" y="0" width="253" height="293">
<path d="M252.964 23.1361V269.11C252.964 275.204 250.542 281.053 246.234 285.365C241.922 289.673 236.073 292.094 229.979 292.094H23.8438C17.75 292.094 11.901 289.673 7.58854 285.365C3.28125 281.053 0.859375 275.204 0.859375 269.11V23.1361C0.859375 17.0371 3.28125 11.1934 7.58854 6.88086C11.901 2.56836 17.75 0.146484 23.8438 0.146484H229.979C236.073 0.146484 241.922 2.56836 246.234 6.88086C250.542 11.1934 252.964 17.0371 252.964 23.1361Z" fill="white"/>
</mask>
<g mask="url(#mask1_2315_4984)">
<mask id="mask2_2315_4984" style="mask-type:luminance" maskUnits="userSpaceOnUse" x="0" y="-1" width="254" height="294">
<path d="M253.665 -0.666016H0.332031V292.667H253.665V-0.666016Z" fill="white"/>
</mask>
<g mask="url(#mask2_2315_4984)">
<mask id="mask3_2315_4984" style="mask-type:luminance" maskUnits="userSpaceOnUse" x="0" y="0" width="253" height="293">
<path d="M0.859375 0.146484H252.964V292.219H0.859375V0.146484Z" fill="white"/>
</mask>
<g mask="url(#mask3_2315_4984)">
<mask id="mask4_2315_4984" style="mask-type:luminance" maskUnits="userSpaceOnUse" x="0" y="0" width="253" height="293">
<path d="M252.964 23.1361V269.11C252.964 275.204 250.542 281.053 246.234 285.365C241.922 289.673 236.073 292.094 229.979 292.094H23.8438C17.75 292.094 11.901 289.673 7.58854 285.365C3.28125 281.053 0.859375 275.204 0.859375 269.11V23.1361C0.859375 17.0371 3.28125 11.1934 7.58854 6.88086C11.901 2.56836 17.75 0.146484 23.8438 0.146484H229.979C236.073 0.146484 241.922 2.56836 246.234 6.88086C250.542 11.1934 252.964 17.0371 252.964 23.1361Z" fill="white"/>
</mask>
<g mask="url(#mask4_2315_4984)">
<path d="M0.859375 0.146484H252.964V291.646H0.859375V0.146484Z" fill="#1F3D58"/>
</g>
</g>
</g>
</g>
</g>
<path d="M78.737 63.4499H73.0078C72.8516 63.4499 72.7005 63.5228 72.5495 63.6582C72.3932 63.7832 72.2682 63.9186 72.1745 64.054C72.0755 64.179 72.013 64.2624 71.987 64.304H71.6953L72.5911 62.8457H79.237L74.8411 74.8457H74.1953L78.737 63.4499Z" fill="#C8B7A1"/>
<path d="M92.5638 74.8444H89.9805V74.6152H90.1888C90.3555 74.6048 90.543 74.5684 90.7513 74.5111C90.9596 74.459 91.0638 74.3548 91.0638 74.1986V63.5111C91.0638 63.36 90.9596 63.2559 90.7513 63.1986C90.543 63.1465 90.3555 63.11 90.1888 63.0944H89.9805V62.8652H94.043C94.7096 62.8652 95.3346 63.0215 95.918 63.3236C96.5013 63.6309 97.0117 64.0632 97.4596 64.6152C97.918 65.1569 98.2721 65.7975 98.5221 66.5319C98.7721 67.2559 98.8971 68.0267 98.8971 68.8444C98.8971 69.6777 98.7721 70.459 98.5221 71.1777C98.2721 71.9017 97.918 72.5423 97.4596 73.0944C97.0117 73.6517 96.5013 74.0892 95.918 74.4069C95.3346 74.7142 94.7096 74.8652 94.043 74.8652H92.5638V74.8444ZM94.043 74.6152C94.0846 74.6152 94.1263 74.6152 94.168 74.6152C94.2201 74.6048 94.2721 74.5944 94.3138 74.5944C94.8659 74.5267 95.3867 74.3236 95.8763 73.9902C96.3607 73.6569 96.7826 73.2298 97.1471 72.6986C97.5221 72.1569 97.8034 71.5632 98.0013 70.9069C98.2096 70.2559 98.3138 69.5684 98.3138 68.8444C98.3138 68.11 98.1992 67.4017 97.9805 66.7194C97.7565 66.0423 97.444 65.4277 97.043 64.8861C96.6523 64.334 96.1992 63.9017 95.6888 63.5944C95.1732 63.2767 94.6263 63.11 94.043 63.0944V63.1152H92.5638V63.0944H92.543C92.3867 63.11 92.1992 63.1465 91.9805 63.1986C91.7721 63.2559 91.668 63.36 91.668 63.5111V74.1986C91.668 74.3548 91.7721 74.459 91.9805 74.5111C92.1992 74.5684 92.3867 74.6048 92.543 74.6152H94.043Z" fill="#C8B7A1"/>
<path d="M101.727 74.6165H101.935C102.086 74.6061 102.268 74.5697 102.477 74.5124C102.685 74.4603 102.789 74.3561 102.789 74.1999V63.5124C102.789 63.403 102.732 63.3197 102.622 63.2624C102.523 63.2103 102.398 63.1738 102.247 63.1582C102.107 63.1322 101.982 63.1165 101.872 63.1165C101.773 63.1061 101.727 63.0957 101.727 63.0957V62.8457H108.268V63.8874H108.164C108.148 63.8613 108.102 63.7832 108.018 63.6582C107.935 63.5228 107.836 63.3978 107.727 63.2832C107.612 63.1582 107.497 63.0957 107.372 63.0957H103.393V68.054H107.414C107.497 68.054 107.57 67.9863 107.643 67.8457C107.727 67.7103 107.768 67.6374 107.768 67.6374H107.893V68.7207H107.768C107.768 68.7207 107.727 68.653 107.643 68.5124C107.57 68.377 107.497 68.304 107.414 68.304H103.393V74.6165H107.747C107.914 74.6165 108.065 74.554 108.206 74.429C108.357 74.304 108.482 74.1738 108.581 74.0332C108.69 73.8978 108.753 73.8145 108.768 73.7832H109.06L108.393 74.8457H101.727V74.6165Z" fill="#C8B7A1"/>
<path d="M119.789 74.6165C120.081 74.6165 120.331 74.5905 120.539 74.5332C120.758 74.4655 120.872 74.3561 120.872 74.1999V63.4915C120.857 63.3405 120.747 63.2363 120.539 63.179C120.331 63.1113 120.081 63.0749 119.789 63.0749V62.8457H121.539L125.914 73.6999L130.206 62.8457H131.977V63.0749C131.685 63.0749 131.424 63.1113 131.206 63.179C130.997 63.2363 130.893 63.3405 130.893 63.4915V74.1999C130.893 74.3561 130.997 74.4655 131.206 74.5332C131.424 74.5905 131.685 74.6165 131.977 74.6165V74.8457H129.185V74.6165C129.477 74.6165 129.727 74.5905 129.935 74.5332C130.154 74.4655 130.268 74.3561 130.268 74.1999V63.3457L125.747 74.7624H125.685L121.102 63.429V74.1999C121.102 74.3561 121.206 74.4655 121.414 74.5332C121.633 74.5905 121.893 74.6165 122.185 74.6165V74.8457H119.789V74.6165Z" fill="#C8B7A1"/>
<path d="M134.797 74.6165C135.031 74.6165 135.276 74.5957 135.526 74.554C135.786 74.5124 135.953 74.403 136.026 74.2207L140.443 62.8457H140.693V62.8665L145.109 74.2415C145.203 74.3978 145.349 74.502 145.547 74.554C145.755 74.5957 145.984 74.6165 146.234 74.6165V74.8457H143.443V74.6165C143.719 74.6165 143.969 74.5905 144.193 74.5332C144.427 74.4811 144.51 74.3665 144.443 74.1999L142.693 69.6582H138.068L136.297 74.1999H136.318C136.276 74.3145 136.318 74.403 136.443 74.4707C136.578 74.528 136.755 74.5697 136.964 74.5957C137.182 74.6113 137.385 74.6165 137.568 74.6165V74.8457H134.797V74.6165ZM142.589 69.4082L140.38 63.6999L138.172 69.4082H142.589Z" fill="#C8B7A1"/>
<path d="M148.621 74.5957C148.913 74.5957 149.163 74.5697 149.371 74.5124C149.59 74.4447 149.704 74.3353 149.704 74.179V63.4915C149.704 63.3405 149.59 63.2363 149.371 63.179C149.163 63.127 148.913 63.0957 148.621 63.0957V62.8457H152.621C153.298 62.8457 153.918 62.9811 154.475 63.2415C155.027 63.4915 155.465 63.8613 155.788 64.3457C156.121 64.8353 156.288 65.4082 156.288 66.0749C156.288 66.6738 156.152 67.2103 155.892 67.679C155.626 68.1374 155.272 68.5228 154.829 68.8249C154.382 69.1165 153.876 69.304 153.309 69.3874C153.736 69.6113 154.121 69.8613 154.454 70.1374C154.798 70.403 155.048 70.8561 155.204 71.4915C155.272 71.7572 155.355 72.0697 155.454 72.429C155.548 72.778 155.684 73.1165 155.85 73.4499C156.017 73.7728 156.215 74.0436 156.454 74.2624C156.689 74.4863 156.965 74.5957 157.288 74.5957V74.8457H156.309C155.892 74.5124 155.569 74.1738 155.35 73.8249C155.142 73.4655 154.98 73.0853 154.871 72.679C154.757 72.2624 154.632 71.8145 154.496 71.3249C154.423 71.0488 154.288 70.7624 154.079 70.4707C153.871 70.179 153.632 69.9395 153.371 69.7415C153.121 69.5488 152.876 69.4499 152.642 69.4499H150.309V74.179C150.309 74.3353 150.413 74.4447 150.621 74.5124C150.84 74.5697 151.1 74.5957 151.392 74.5957V74.8457H148.621V74.5957ZM152.621 69.1999C153.189 69.1999 153.704 69.0645 154.163 68.7832C154.621 68.5072 154.986 68.1322 155.267 67.6582C155.543 67.1738 155.684 66.6478 155.684 66.0749C155.684 65.5228 155.543 65.0228 155.267 64.5749C154.986 64.1165 154.621 63.7572 154.163 63.4915C153.704 63.2311 153.189 63.0957 152.621 63.0957H151.184C151.027 63.1113 150.84 63.1478 150.621 63.1999C150.413 63.2415 150.309 63.3457 150.309 63.5124V69.1999H152.621Z" fill="#C8B7A1"/>
<path d="M167.717 63.0749H162.009C161.884 63.0749 161.759 63.1374 161.634 63.2624C161.52 63.3874 161.426 63.5228 161.342 63.6582C161.259 63.7832 161.217 63.8613 161.217 63.8874H161.092V62.8457H168.592L161.217 74.6165H167.738C167.905 74.6165 168.056 74.554 168.197 74.429C168.348 74.304 168.473 74.1738 168.572 74.0332C168.681 73.8822 168.738 73.7988 168.738 73.7832L168.759 73.7624H169.051L168.384 74.8457H160.363L167.717 63.0749Z" fill="#C8B7A1"/>
<path d="M176.938 75.0957C176.24 75.0957 175.589 74.929 174.979 74.5957C174.365 74.2624 173.823 73.804 173.354 73.2207C172.88 72.6374 172.51 71.9811 172.25 71.2415C172 70.5072 171.875 69.7363 171.875 68.929C171.875 68.127 172 67.3561 172.25 66.6165C172.51 65.8665 172.88 65.2103 173.354 64.6374C173.823 64.0697 174.365 63.6165 174.979 63.2832C175.589 62.9499 176.24 62.7832 176.938 62.7832H177.083C177.776 62.7832 178.427 62.9499 179.042 63.2832C179.667 63.6165 180.208 64.0749 180.667 64.6582C181.125 65.2415 181.484 65.903 181.75 66.6374C182.01 67.377 182.146 68.1374 182.146 68.929C182.146 69.7363 182.01 70.5124 181.75 71.2624C181.484 72.002 181.125 72.6582 180.667 73.2415C180.208 73.8145 179.672 74.2624 179.063 74.5957C178.448 74.929 177.792 75.0957 177.083 75.0957H176.938ZM175.479 74.5124C176.505 74.9395 177.521 74.9395 178.521 74.5124C179.115 74.2207 179.635 73.7988 180.083 73.2415C180.526 72.6738 180.875 72.0124 181.125 71.2624C181.385 70.5124 181.521 69.7363 181.521 68.929C181.521 68.0436 181.365 67.1947 181.063 66.3874C180.755 65.5853 180.333 64.8978 179.792 64.3249C179.26 63.7415 178.667 63.3561 178 63.1582C177.833 63.1165 177.667 63.0905 177.5 63.0749C177.333 63.0488 177.167 63.0332 177 63.0332C176.833 63.0332 176.667 63.0436 176.5 63.054C176.333 63.0697 176.172 63.1061 176.021 63.1582C175.354 63.3665 174.75 63.7624 174.208 64.3457C173.677 64.9186 173.255 65.6061 172.938 66.4082C172.63 67.1999 172.479 68.0436 172.479 68.929C172.479 69.7363 172.609 70.5124 172.875 71.2624C173.135 72.0124 173.49 72.6738 173.938 73.2415C174.396 73.7988 174.906 74.2207 175.479 74.5124Z" fill="#C8B7A1"/>
<path d="M84.6615 97.8346H82.0781V97.6055H82.2865C82.4531 97.5951 82.6406 97.5586 82.849 97.5013C83.0573 97.4492 83.1615 97.3451 83.1615 97.1888V86.5013C83.1615 86.3503 83.0573 86.2461 82.849 86.1888C82.6406 86.1367 82.4531 86.1003 82.2865 86.0846H82.0781V85.8555H86.1406C86.8073 85.8555 87.4323 86.0117 88.0156 86.3138C88.599 86.6211 89.1094 87.0534 89.5573 87.6055C90.0156 88.1471 90.3698 88.7878 90.6198 89.5221C90.8698 90.2461 90.9948 91.0169 90.9948 91.8346C90.9948 92.668 90.8698 93.4492 90.6198 94.168C90.3698 94.8919 90.0156 95.5326 89.5573 96.0846C89.1094 96.6419 88.599 97.0794 88.0156 97.3971C87.4323 97.7044 86.8073 97.8555 86.1406 97.8555H84.6615V97.8346ZM86.1406 97.6055C86.1823 97.6055 86.224 97.6055 86.2656 97.6055C86.3177 97.5951 86.3698 97.5846 86.4115 97.5846C86.9635 97.5169 87.4844 97.3138 87.974 96.9805C88.4583 96.6471 88.8802 96.2201 89.2448 95.6888C89.6198 95.1471 89.901 94.5534 90.099 93.8971C90.3073 93.2461 90.4115 92.5586 90.4115 91.8346C90.4115 91.1003 90.2969 90.3919 90.0781 89.7096C89.8542 89.0326 89.5417 88.418 89.1406 87.8763C88.75 87.3242 88.2969 86.8919 87.7865 86.5846C87.2708 86.2669 86.724 86.1003 86.1406 86.0846V86.1055H84.6615V86.0846H84.6406C84.4844 86.1003 84.2969 86.1367 84.0781 86.1888C83.8698 86.2461 83.7656 86.3503 83.7656 86.5013V97.1888C83.7656 97.3451 83.8698 97.4492 84.0781 97.5013C84.2969 97.5586 84.4844 97.5951 84.6406 97.6055H86.1406Z" fill="#C8B7A1"/>
<path d="M93.8281 97.6048H94.0365C94.1875 97.5944 94.3698 97.5579 94.5781 97.5007C94.7865 97.4486 94.8906 97.3444 94.8906 97.1882V86.5007C94.8906 86.3913 94.8333 86.3079 94.724 86.2507C94.625 86.1986 94.5 86.1621 94.349 86.1465C94.2083 86.1204 94.0833 86.1048 93.974 86.1048C93.875 86.0944 93.8281 86.084 93.8281 86.084V85.834H100.37V86.8757H100.266C100.25 86.8496 100.203 86.7715 100.12 86.6465C100.036 86.5111 99.9375 86.3861 99.8281 86.2715C99.7135 86.1465 99.599 86.084 99.474 86.084H95.4948V91.0423H99.5156C99.599 91.0423 99.6719 90.9746 99.7448 90.834C99.8281 90.6986 99.8698 90.6257 99.8698 90.6257H99.9948V91.709H99.8698C99.8698 91.709 99.8281 91.6413 99.7448 91.5007C99.6719 91.3652 99.599 91.2923 99.5156 91.2923H95.4948V97.6048H99.849C100.016 97.6048 100.167 97.5423 100.307 97.4173C100.458 97.2923 100.583 97.1621 100.682 97.0215C100.792 96.8861 100.854 96.8027 100.87 96.7715H101.161L100.495 97.834H93.8281V97.6048Z" fill="#C8B7A1"/>
<path d="M103.98 97.584H104.189C104.34 97.5736 104.522 97.5371 104.73 97.4798C104.939 97.4277 105.043 97.3236 105.043 97.1673V86.5007C105.043 86.3913 104.986 86.3079 104.876 86.2507C104.777 86.1829 104.652 86.1413 104.501 86.1257C104.361 86.0996 104.236 86.084 104.126 86.084C104.027 86.0736 103.98 86.0632 103.98 86.0632V85.834H106.751V86.0632C106.751 86.0632 106.694 86.0736 106.585 86.084C106.47 86.084 106.34 86.0996 106.189 86.1257C106.048 86.1413 105.923 86.1829 105.814 86.2507C105.699 86.3079 105.647 86.3913 105.647 86.5007V97.584H110.064C110.23 97.584 110.382 97.5215 110.522 97.3965C110.673 97.2715 110.798 97.1413 110.897 97.0007C111.007 96.8652 111.064 96.7871 111.064 96.7715V96.7507H111.355L110.689 97.834H103.98V97.584Z" fill="#C8B7A1"/>
<path d="M122.094 97.584C122.094 97.2819 122.135 96.9538 122.219 96.6048C122.302 96.2454 122.411 95.8965 122.552 95.5632C122.688 95.2194 122.833 94.9121 122.99 94.6465C123.224 94.2298 123.563 93.8496 124.01 93.5007C124.453 93.1569 124.932 92.8079 125.448 92.459C125.974 92.1152 126.469 91.7507 126.927 91.3757C127.396 91.0007 127.781 90.5944 128.073 90.1465C128.375 89.7038 128.531 89.2038 128.531 88.6465C128.531 88.1882 128.396 87.7663 128.135 87.3757C127.87 86.9746 127.516 86.6569 127.073 86.4173C126.641 86.1673 126.146 86.0423 125.594 86.0423C125.146 86.0423 124.729 86.1413 124.344 86.334C123.953 86.5319 123.604 86.7923 123.302 87.1257C122.995 87.4486 122.75 87.8079 122.573 88.209L122.365 88.084C122.365 88.0736 122.37 88.0632 122.385 88.0632H122.365L122.635 86.959C123.188 86.5996 123.703 86.3132 124.177 86.1048C124.661 85.8861 125.135 85.7715 125.594 85.7715C126.26 85.7715 126.854 85.8965 127.385 86.1465C127.911 86.3861 128.333 86.7194 128.656 87.1465C128.99 87.5788 129.156 88.0788 129.156 88.6465C129.156 89.3027 129.036 89.8548 128.802 90.3132C128.578 90.7715 128.281 91.1777 127.906 91.5215C127.531 91.8548 127.115 92.1673 126.656 92.459C126.198 92.7507 125.729 93.0423 125.26 93.334C124.802 93.6152 124.365 93.9329 123.948 94.2923C123.542 94.6413 123.203 95.0527 122.927 95.5215C122.661 95.9954 122.495 96.5579 122.427 97.209H128.177C128.344 97.209 128.516 97.1257 128.698 96.959C128.875 96.7923 129.036 96.5944 129.177 96.3548H129.469L128.573 97.834H122.094V97.584Z" fill="#C8B7A1"/>
<path d="M137.005 97.9798C136.349 97.9798 135.74 97.8288 135.172 97.5215C134.599 97.2194 134.099 96.7819 133.672 96.209C133.24 95.6413 132.901 94.9798 132.651 94.2298C132.411 93.4798 132.297 92.6621 132.297 91.7715C132.297 90.8861 132.411 90.0632 132.651 89.3132C132.901 88.5632 133.24 87.9121 133.672 87.3548C134.099 86.7871 134.599 86.3496 135.172 86.0423C135.74 85.7402 136.349 85.584 137.005 85.584C137.641 85.584 138.24 85.7402 138.797 86.0423C139.365 86.3496 139.865 86.7871 140.297 87.3548C140.74 87.9121 141.078 88.5632 141.318 89.3132C141.568 90.0632 141.693 90.8861 141.693 91.7715C141.693 92.6621 141.568 93.4798 141.318 94.2298C141.078 94.9798 140.74 95.6413 140.297 96.209C139.865 96.7819 139.365 97.2194 138.797 97.5215C138.24 97.8288 137.641 97.9798 137.005 97.9798ZM137.005 97.7298C137.557 97.7298 138.078 97.5736 138.568 97.2507C139.068 96.9329 139.505 96.5007 139.88 95.959C140.266 95.4069 140.568 94.7663 140.776 94.0423C140.984 93.3236 141.089 92.5632 141.089 91.7715C141.089 90.9694 140.984 90.209 140.776 89.5007C140.568 88.7819 140.266 88.1465 139.88 87.6048C139.505 87.0527 139.068 86.6152 138.568 86.2923C138.078 85.9746 137.557 85.8132 137.005 85.8132C136.432 85.8132 135.901 85.9746 135.401 86.2923C134.911 86.6152 134.474 87.0527 134.089 87.6048C133.714 88.1465 133.422 88.7819 133.214 89.5007C133.005 90.209 132.901 90.9694 132.901 91.7715C132.901 92.5632 133.005 93.3236 133.214 94.0423C133.422 94.7663 133.714 95.4069 134.089 95.959C134.474 96.5007 134.911 96.9329 135.401 97.2507C135.901 97.5736 136.432 97.7298 137.005 97.7298Z" fill="#C8B7A1"/>
<path d="M144.52 97.584C144.52 97.2819 144.561 96.9538 144.645 96.6048C144.728 96.2454 144.837 95.8965 144.978 95.5632C145.113 95.2194 145.259 94.9121 145.415 94.6465C145.65 94.2298 145.988 93.8496 146.436 93.5007C146.879 93.1569 147.358 92.8079 147.874 92.459C148.4 92.1152 148.895 91.7507 149.353 91.3757C149.822 91.0007 150.207 90.5944 150.499 90.1465C150.801 89.7038 150.957 89.2038 150.957 88.6465C150.957 88.1882 150.822 87.7663 150.561 87.3757C150.296 86.9746 149.941 86.6569 149.499 86.4173C149.066 86.1673 148.572 86.0423 148.02 86.0423C147.572 86.0423 147.155 86.1413 146.77 86.334C146.379 86.5319 146.03 86.7923 145.728 87.1257C145.421 87.4486 145.176 87.8079 144.999 88.209L144.79 88.084C144.79 88.0736 144.796 88.0632 144.811 88.0632H144.79L145.061 86.959C145.613 86.5996 146.129 86.3132 146.603 86.1048C147.087 85.8861 147.561 85.7715 148.02 85.7715C148.686 85.7715 149.28 85.8965 149.811 86.1465C150.337 86.3861 150.759 86.7194 151.082 87.1465C151.415 87.5788 151.582 88.0788 151.582 88.6465C151.582 89.3027 151.462 89.8548 151.228 90.3132C151.004 90.7715 150.707 91.1777 150.332 91.5215C149.957 91.8548 149.54 92.1673 149.082 92.459C148.624 92.7507 148.155 93.0423 147.686 93.334C147.228 93.6152 146.79 93.9329 146.374 94.2923C145.967 94.6413 145.629 95.0527 145.353 95.5215C145.087 95.9954 144.921 96.5579 144.853 97.209H150.603C150.77 97.209 150.941 97.1257 151.124 96.959C151.301 96.7923 151.462 96.5944 151.603 96.3548H151.895L150.999 97.834H144.52V97.584Z" fill="#C8B7A1"/>
<path d="M159.765 98.0843C158.917 98.0843 158.172 97.8968 157.536 97.5218C156.911 97.1468 156.396 96.6468 155.995 96.0218C155.588 95.3864 155.312 94.6625 155.161 93.8552C155.005 93.0531 154.979 92.2198 155.078 91.3552C155.187 90.4281 155.417 89.6 155.765 88.876C156.125 88.1416 156.578 87.5166 157.12 87.001C157.661 86.4906 158.25 86.1156 158.89 85.876C159.359 85.6989 159.812 85.626 160.245 85.6677C160.672 85.7093 161.104 85.8239 161.536 86.001C161.963 86.1677 162.39 86.3656 162.807 86.5843L163.182 87.6885L162.974 87.8552C162.75 87.4385 162.453 87.0843 162.078 86.7927C161.713 86.501 161.333 86.2718 160.932 86.1052C160.292 85.8864 159.682 85.8916 159.099 86.126C158.515 86.35 157.979 86.7302 157.495 87.2718C157.021 87.8135 156.625 88.4541 156.307 89.1885C156 89.9125 155.792 90.6625 155.682 91.4385C155.609 92.1208 155.625 92.8031 155.724 93.4802C155.859 92.9281 156.125 92.4333 156.515 92.001C156.901 91.5739 157.375 91.2406 157.932 91.001C158.5 90.751 159.109 90.626 159.765 90.626C160.526 90.626 161.224 90.7927 161.849 91.126C162.484 91.4489 162.984 91.8916 163.349 92.4593C163.724 93.0166 163.911 93.6468 163.911 94.3552C163.911 95.0635 163.724 95.7041 163.349 96.2718C162.984 96.8291 162.484 97.2718 161.849 97.6052C161.224 97.9229 160.526 98.0843 159.765 98.0843ZM159.765 97.876C160.443 97.876 161.057 97.7198 161.599 97.3968C162.151 97.0635 162.588 96.6364 162.911 96.1052C163.245 95.5635 163.411 94.9802 163.411 94.3552C163.411 93.7302 163.245 93.1573 162.911 92.626C162.588 92.0843 162.151 91.6573 161.599 91.3343C161.057 91.001 160.443 90.8343 159.765 90.8343C159.099 90.8343 158.484 91.001 157.932 91.3343C157.375 91.6573 156.932 92.0843 156.599 92.626C156.276 93.1573 156.12 93.7302 156.12 94.3552C156.12 94.9802 156.286 95.5635 156.62 96.1052C156.953 96.6364 157.396 97.0635 157.953 97.3968C158.505 97.7198 159.109 97.876 159.765 97.876Z" fill="#C8B7A1"/>
<mask id="mask5_2315_4984" style="mask-type:luminance" maskUnits="userSpaceOnUse" x="49" y="187" width="157" height="47">
<path d="M205.668 187.334H49.668V234.001H205.668V187.334Z" fill="white"/>
</mask>
<g mask="url(#mask5_2315_4984)">
<path d="M51.4453 199.803H51.612C51.737 199.792 51.8932 199.735 52.0911 199.636C52.2995 199.542 52.5182 199.365 52.7578 199.115C52.9922 198.855 53.2266 198.464 53.4661 197.949L55.5703 193.344L56.6328 190.99L60.1536 198.719C60.2891 199.042 60.4557 199.277 60.6536 199.428C60.862 199.584 61.0495 199.678 61.2161 199.719C61.3932 199.761 61.5182 199.792 61.5911 199.803H61.6328V199.886H57.4453V199.803H57.5078C57.5599 199.803 57.638 199.792 57.737 199.761C57.8307 199.735 57.9245 199.688 58.0078 199.615C58.0911 199.548 58.138 199.443 58.1536 199.303C58.1641 199.152 58.1172 198.959 58.0078 198.719L57.3203 197.219H53.9036L53.5703 197.949C53.4036 198.298 53.2995 198.584 53.2578 198.803C53.2266 199.027 53.2266 199.209 53.2578 199.344C53.2995 199.485 53.362 199.589 53.4453 199.657C53.5286 199.714 53.6016 199.756 53.6745 199.782C53.7578 199.798 53.8099 199.803 53.8411 199.803H53.8828V199.886H51.4453V199.803ZM57.2786 197.115L55.612 193.469L53.9453 197.115H57.2786Z" fill="#C8B7A1"/>
<path d="M66.5299 190.47C66.556 190.069 66.707 189.793 66.9883 189.637C67.082 189.595 67.1654 189.569 67.2383 189.553C67.3216 189.527 67.3893 189.512 67.4466 189.512C67.6549 189.512 67.8529 189.59 68.0508 189.741C68.2591 189.923 68.4674 190.012 68.6758 190.012C68.8008 190.012 68.931 189.98 69.0716 189.908C69.207 189.824 69.2904 189.73 69.3216 189.616H69.4049C69.3893 189.772 69.332 189.918 69.2383 190.053C69.1393 190.178 69.0352 190.283 68.9258 190.366C68.8112 190.439 68.7018 190.47 68.5924 190.47C68.4518 190.47 68.3268 190.449 68.2174 190.408C68.1029 190.355 67.957 190.257 67.7799 190.116C67.6549 190.007 67.5091 189.949 67.3424 189.949C67.2018 189.949 67.0508 190.007 66.8841 190.116C66.7279 190.215 66.6445 190.335 66.6341 190.47H66.5299ZM64.7799 192.491L64.6133 192.324V198.762C64.6237 198.986 64.6758 199.173 64.7591 199.324C64.8529 199.465 64.9674 199.569 65.0924 199.637C65.2279 199.694 65.3529 199.736 65.4674 199.762C65.5924 199.793 65.681 199.803 65.7383 199.803H65.8008V199.887H63.3633V199.803H63.4049C63.457 199.803 63.5508 199.793 63.6758 199.762C63.8008 199.736 63.9258 199.694 64.0508 199.637C64.1758 199.569 64.2799 199.465 64.3633 199.324C64.457 199.173 64.5143 198.986 64.5299 198.762V192.345C64.5143 191.902 64.4049 191.585 64.1966 191.387C63.9987 191.194 63.7227 191.095 63.3633 191.095V190.991H66.2591L71.3008 196.72V192.137C71.2852 191.861 71.2174 191.652 71.0924 191.512C70.9779 191.376 70.8477 191.277 70.6966 191.22C70.5404 191.152 70.4049 191.116 70.2799 191.116C70.1654 191.105 70.1133 191.095 70.1133 191.095V190.991H72.5716V191.095C72.5716 191.095 72.5091 191.105 72.3841 191.116C72.2695 191.116 72.1393 191.152 71.9883 191.22C71.832 191.277 71.6966 191.376 71.5716 191.512C71.457 191.652 71.3945 191.861 71.3841 192.137V199.887H71.2799L64.7799 192.491Z" fill="#C8B7A1"/>
<path d="M74.293 199.803H74.4596C74.5846 199.792 74.7409 199.735 74.9388 199.636C75.1471 199.542 75.3659 199.365 75.6055 199.115C75.8398 198.855 76.0742 198.464 76.3138 197.949L78.418 193.344L79.4805 190.99L83.0013 198.719C83.1367 199.042 83.3034 199.277 83.5013 199.428C83.7096 199.584 83.8971 199.678 84.0638 199.719C84.2409 199.761 84.3659 199.792 84.4388 199.803H84.4805V199.886H80.293V199.803H80.3555C80.4076 199.803 80.4857 199.792 80.5846 199.761C80.6784 199.735 80.7721 199.688 80.8555 199.615C80.9388 199.548 80.9857 199.443 81.0013 199.303C81.0117 199.152 80.9648 198.959 80.8555 198.719L80.168 197.219H76.7513L76.418 197.949C76.2513 198.298 76.1471 198.584 76.1055 198.803C76.0742 199.027 76.0742 199.209 76.1055 199.344C76.1471 199.485 76.2096 199.589 76.293 199.657C76.3763 199.714 76.4492 199.756 76.5221 199.782C76.6055 199.798 76.6576 199.803 76.6888 199.803H76.7305V199.886H74.293V199.803ZM80.1263 197.115L78.4596 193.469L76.793 197.115H80.1263Z" fill="#C8B7A1"/>
<path d="M86.2109 199.782C86.6276 199.798 86.9297 199.699 87.1276 199.49C87.3203 199.282 87.4193 199.021 87.4193 198.699V192.157C87.4193 191.813 87.3047 191.548 87.0859 191.365C86.8776 191.188 86.5859 191.094 86.2109 191.094V190.99H91.5026C91.763 190.99 92.0234 191.027 92.2734 191.094C92.5339 191.152 92.7839 191.251 93.0234 191.386C93.4505 191.636 93.8359 191.98 94.1693 192.407C94.487 192.813 94.7318 193.277 94.8984 193.803C95.0651 194.334 95.1484 194.881 95.1484 195.449C95.1484 196.615 94.8203 197.631 94.1693 198.49C94.013 198.699 93.8411 198.896 93.6484 199.074C93.4505 199.24 93.2422 199.381 93.0234 199.49C92.7839 199.631 92.4818 199.735 92.1068 199.803C91.7318 199.86 91.3568 199.886 90.9818 199.886H86.2109V199.782ZM91.0443 199.782C91.3464 199.782 91.6068 199.709 91.8151 199.553C92.0234 199.386 92.1953 199.178 92.3359 198.928C92.487 198.667 92.612 198.376 92.7109 198.053C92.8047 197.735 92.8776 197.417 92.9193 197.094C92.9609 196.761 92.987 196.459 93.0026 196.178C93.0286 195.886 93.0443 195.646 93.0443 195.449C93.0443 195.256 93.0339 195.021 93.0234 194.74C93.0234 194.449 93.0026 194.146 92.9609 193.824C92.9297 193.49 92.8776 193.167 92.7943 192.844C92.7214 192.527 92.6172 192.24 92.4818 191.99C92.3568 191.73 92.1953 191.521 92.0026 191.365C91.8047 191.199 91.5547 191.115 91.2526 191.115H89.5651V198.719C89.5651 199.068 89.6328 199.318 89.7734 199.469C89.9245 199.61 90.1172 199.699 90.3568 199.74C90.5911 199.771 90.8203 199.782 91.0443 199.782Z" fill="#C8B7A1"/>
<path d="M96.875 199.803C97.25 199.803 97.5417 199.709 97.75 199.511C97.9688 199.303 98.0833 199.032 98.0833 198.699V192.178C98.0833 191.834 97.9688 191.568 97.75 191.386C97.5417 191.193 97.25 191.094 96.875 191.094V190.99H103.875L104.229 193.282L104.146 193.324L104.104 193.136C104.089 193.042 104.047 192.907 103.979 192.74C103.906 192.563 103.802 192.381 103.667 192.199C103.542 192.006 103.359 191.824 103.125 191.657C102.885 191.49 102.594 191.36 102.25 191.261C101.901 191.152 101.479 191.094 100.979 191.094H100.229V195.178H101.771C102.005 195.167 102.193 195.115 102.333 195.032C102.469 194.938 102.573 194.824 102.646 194.699C102.714 194.574 102.755 194.459 102.771 194.344C102.797 194.219 102.813 194.126 102.813 194.053V194.011H102.896V196.449H102.813V196.386C102.813 196.334 102.797 196.251 102.771 196.136C102.755 196.011 102.714 195.886 102.646 195.761C102.573 195.626 102.469 195.511 102.333 195.428C102.193 195.334 102.005 195.277 101.771 195.261H100.229V198.699C100.229 199.032 100.333 199.303 100.542 199.511C100.76 199.709 101.063 199.803 101.438 199.803C102.323 199.803 103.068 199.615 103.667 199.24C104.26 198.865 104.677 198.303 104.917 197.553H105.021L104.333 199.886H96.875V199.803Z" fill="#C8B7A1"/>
<path d="M113.613 199.803C113.988 199.803 114.28 199.709 114.488 199.511C114.707 199.303 114.822 199.032 114.822 198.699V192.178C114.822 191.834 114.707 191.568 114.488 191.386C114.28 191.193 113.988 191.094 113.613 191.094V190.99H120.613L120.967 193.282L120.884 193.324L120.842 193.136C120.827 193.042 120.785 192.907 120.717 192.74C120.645 192.563 120.54 192.381 120.405 192.199C120.28 192.006 120.098 191.824 119.863 191.657C119.624 191.49 119.332 191.36 118.988 191.261C118.639 191.152 118.217 191.094 117.717 191.094H116.967V195.178H118.509C118.743 195.167 118.931 195.115 119.072 195.032C119.207 194.938 119.311 194.824 119.384 194.699C119.452 194.574 119.493 194.459 119.509 194.344C119.535 194.219 119.551 194.126 119.551 194.053V194.011H119.634V196.449H119.551V196.386C119.551 196.334 119.535 196.251 119.509 196.136C119.493 196.011 119.452 195.886 119.384 195.761C119.311 195.626 119.207 195.511 119.072 195.428C118.931 195.334 118.743 195.277 118.509 195.261H116.967V198.699C116.967 199.032 117.072 199.303 117.28 199.511C117.499 199.709 117.801 199.803 118.176 199.803C119.061 199.803 119.806 199.615 120.405 199.24C120.999 198.865 121.415 198.303 121.655 197.553H121.759L121.072 199.886H113.613V199.803Z" fill="#C8B7A1"/>
<path d="M123.477 199.803C123.852 199.803 124.143 199.709 124.352 199.511C124.57 199.303 124.685 199.032 124.685 198.699V192.178C124.685 191.834 124.57 191.568 124.352 191.386C124.143 191.193 123.852 191.094 123.477 191.094V190.99H128.039V191.094C127.664 191.094 127.362 191.193 127.143 191.386C126.935 191.568 126.831 191.834 126.831 192.178V198.699C126.831 199.032 126.935 199.303 127.143 199.511C127.362 199.709 127.664 199.803 128.039 199.803C128.924 199.803 129.669 199.615 130.268 199.24C130.862 198.865 131.279 198.303 131.518 197.553H131.622L130.935 199.886H123.477V199.803Z" fill="#C8B7A1"/>
<path d="M140.215 199.803C140.59 199.803 140.882 199.709 141.09 199.511C141.309 199.303 141.423 199.032 141.423 198.699V192.178C141.423 191.834 141.309 191.568 141.09 191.386C140.882 191.193 140.59 191.094 140.215 191.094V190.99H147.215L147.569 193.282L147.486 193.324L147.444 193.136C147.428 193.042 147.387 192.907 147.319 192.74C147.246 192.563 147.142 192.381 147.007 192.199C146.882 192.006 146.699 191.824 146.465 191.657C146.225 191.49 145.934 191.36 145.59 191.261C145.241 191.152 144.819 191.094 144.319 191.094H143.569V195.178H145.111C145.345 195.167 145.533 195.115 145.673 195.032C145.809 194.938 145.913 194.824 145.986 194.699C146.053 194.574 146.095 194.459 146.111 194.344C146.137 194.219 146.152 194.126 146.152 194.053V194.011H146.236V196.449H146.152V196.386C146.152 196.334 146.137 196.251 146.111 196.136C146.095 196.011 146.053 195.886 145.986 195.761C145.913 195.626 145.809 195.511 145.673 195.428C145.533 195.334 145.345 195.277 145.111 195.261H143.569V198.699C143.569 199.032 143.673 199.303 143.882 199.511C144.1 199.709 144.402 199.803 144.777 199.803C145.663 199.803 146.408 199.615 147.007 199.24C147.6 198.865 148.017 198.303 148.257 197.553H148.361L147.673 199.886H140.215V199.803Z" fill="#C8B7A1"/>
<path d="M151.582 192.178C151.426 191.844 151.249 191.605 151.04 191.449C150.842 191.298 150.665 191.199 150.499 191.157C150.332 191.115 150.207 191.094 150.124 191.094H150.082V190.99H154.27V191.094H154.207C154.165 191.094 154.092 191.11 153.999 191.136C153.9 191.152 153.811 191.193 153.728 191.261C153.645 191.334 153.587 191.443 153.561 191.594C153.546 191.735 153.592 191.928 153.707 192.178L156.103 197.428L158.145 192.928C158.311 192.584 158.405 192.298 158.436 192.074C158.478 191.855 158.478 191.678 158.436 191.553C158.405 191.417 158.353 191.318 158.27 191.261C158.186 191.193 158.103 191.152 158.02 191.136C157.947 191.11 157.9 191.094 157.874 191.094H157.832V190.99H160.27V191.094H160.103C159.978 191.11 159.816 191.167 159.624 191.261C159.426 191.344 159.207 191.521 158.957 191.782C158.717 192.032 158.483 192.417 158.249 192.928L156.145 197.532L155.082 199.886L151.582 192.178Z" fill="#C8B7A1"/>
<path d="M162 199.803C162.375 199.803 162.667 199.709 162.875 199.511C163.094 199.303 163.208 199.032 163.208 198.699V192.178C163.208 191.834 163.094 191.568 162.875 191.386C162.667 191.193 162.375 191.094 162 191.094V190.99H169L169.354 193.282L169.271 193.324L169.229 193.136C169.214 193.042 169.172 192.907 169.104 192.74C169.031 192.563 168.927 192.381 168.792 192.199C168.667 192.006 168.484 191.824 168.25 191.657C168.01 191.49 167.719 191.36 167.375 191.261C167.026 191.152 166.604 191.094 166.104 191.094H165.354V195.178H166.896C167.13 195.167 167.318 195.115 167.458 195.032C167.594 194.938 167.698 194.824 167.771 194.699C167.839 194.574 167.88 194.459 167.896 194.344C167.922 194.219 167.938 194.126 167.938 194.053V194.011H168.021V196.449H167.938V196.386C167.938 196.334 167.922 196.251 167.896 196.136C167.88 196.011 167.839 195.886 167.771 195.761C167.698 195.626 167.594 195.511 167.458 195.428C167.318 195.334 167.13 195.277 166.896 195.261H165.354V198.699C165.354 199.032 165.458 199.303 165.667 199.511C165.885 199.709 166.188 199.803 166.563 199.803C167.448 199.803 168.193 199.615 168.792 199.24C169.385 198.865 169.802 198.303 170.042 197.553H170.146L169.458 199.886H162V199.803Z" fill="#C8B7A1"/>
<path d="M173.284 192.49L173.117 192.324V198.761C173.128 198.985 173.18 199.173 173.263 199.324C173.357 199.464 173.471 199.568 173.596 199.636C173.732 199.693 173.857 199.735 173.971 199.761C174.096 199.792 174.185 199.803 174.242 199.803H174.305V199.886H171.867V199.803H171.909C171.961 199.803 172.055 199.792 172.18 199.761C172.305 199.735 172.43 199.693 172.555 199.636C172.68 199.568 172.784 199.464 172.867 199.324C172.961 199.173 173.018 198.985 173.034 198.761V192.344C173.018 191.902 172.909 191.584 172.701 191.386C172.503 191.193 172.227 191.094 171.867 191.094V190.99H174.763L179.805 196.719V192.136C179.789 191.86 179.721 191.652 179.596 191.511C179.482 191.376 179.352 191.277 179.201 191.219C179.044 191.152 178.909 191.115 178.784 191.115C178.669 191.105 178.617 191.094 178.617 191.094V190.99H181.076V191.094C181.076 191.094 181.013 191.105 180.888 191.115C180.773 191.115 180.643 191.152 180.492 191.219C180.336 191.277 180.201 191.376 180.076 191.511C179.961 191.652 179.898 191.86 179.888 192.136V199.886H179.784L173.284 192.49Z" fill="#C8B7A1"/>
<path d="M184.922 199.803C185.297 199.803 185.594 199.709 185.818 199.511C186.036 199.303 186.151 199.032 186.151 198.699V191.094H186.047C185.547 191.094 185.115 191.152 184.755 191.261C184.406 191.36 184.115 191.49 183.88 191.657C183.656 191.824 183.474 192.006 183.339 192.199C183.198 192.381 183.094 192.563 183.026 192.74C182.969 192.907 182.927 193.042 182.901 193.136L182.88 193.324L182.797 193.282L183.151 190.99H191.276L191.609 193.282L191.547 193.324L191.505 193.136C191.49 193.042 191.448 192.907 191.38 192.74C191.307 192.563 191.203 192.381 191.068 192.199C190.927 192.006 190.74 191.824 190.505 191.657C190.281 191.49 189.995 191.36 189.651 191.261C189.302 191.152 188.88 191.094 188.38 191.094H188.276V198.699C188.276 199.032 188.38 199.303 188.589 199.511C188.807 199.709 189.109 199.803 189.484 199.803V199.886H184.922V199.803Z" fill="#C8B7A1"/>
<path d="M197.865 199.887C197.24 199.887 196.646 199.773 196.094 199.533C195.552 199.299 195.073 198.971 194.656 198.554C194.24 198.137 193.911 197.658 193.677 197.117C193.453 196.564 193.344 195.981 193.344 195.367C193.344 194.757 193.453 194.179 193.677 193.637C193.911 193.085 194.24 192.596 194.656 192.179C195.073 191.762 195.552 191.439 196.094 191.2C196.646 190.965 197.24 190.846 197.865 190.846C198.474 190.846 199.052 190.965 199.594 191.2C200.146 191.439 200.635 191.762 201.052 192.179C201.469 192.596 201.786 193.085 202.01 193.637C202.245 194.179 202.365 194.757 202.365 195.367C202.365 195.992 202.245 196.585 202.01 197.137C201.786 197.679 201.469 198.158 201.052 198.575C200.635 198.981 200.156 199.299 199.615 199.533C199.073 199.773 198.49 199.887 197.865 199.887ZM197.865 199.762C197.99 199.762 198.146 199.742 198.344 199.7C198.552 199.648 198.766 199.544 198.99 199.387C199.208 199.236 199.417 199.002 199.615 198.679C199.807 198.361 199.958 197.939 200.073 197.408C200.198 196.867 200.26 196.189 200.26 195.367C200.26 194.575 200.198 193.919 200.073 193.387C199.958 192.861 199.807 192.439 199.615 192.117C199.417 191.799 199.208 191.554 198.99 191.387C198.766 191.221 198.552 191.111 198.344 191.054C198.146 191.002 197.99 190.971 197.865 190.971C197.724 190.971 197.552 191.002 197.344 191.054C197.146 191.111 196.938 191.221 196.719 191.387C196.51 191.554 196.307 191.799 196.115 192.117C195.917 192.439 195.76 192.861 195.635 193.387C195.51 193.919 195.448 194.575 195.448 195.367C195.448 196.189 195.51 196.867 195.635 197.408C195.76 197.939 195.917 198.361 196.115 198.679C196.307 199.002 196.51 199.236 196.719 199.387C196.938 199.544 197.146 199.648 197.344 199.7C197.552 199.742 197.724 199.762 197.865 199.762Z" fill="#C8B7A1"/>
<path d="M72.543 213.563H72.7096C72.8346 213.552 72.9909 213.495 73.1888 213.396C73.3971 213.302 73.6159 213.125 73.8555 212.875C74.0898 212.615 74.3242 212.224 74.5638 211.708L76.668 207.104L77.7305 204.75L81.2513 212.479C81.3867 212.802 81.5534 213.036 81.7513 213.188C81.9596 213.344 82.1471 213.438 82.3138 213.479C82.4909 213.521 82.6159 213.552 82.6888 213.563H82.7305V213.646H78.543V213.563H78.6055C78.6576 213.563 78.7357 213.552 78.8346 213.521C78.9284 213.495 79.0221 213.448 79.1055 213.375C79.1888 213.307 79.2357 213.203 79.2513 213.063C79.2617 212.911 79.2148 212.719 79.1055 212.479L78.418 210.979H75.0013L74.668 211.708C74.5013 212.057 74.3971 212.344 74.3555 212.563C74.3242 212.786 74.3242 212.969 74.3555 213.104C74.3971 213.245 74.4596 213.349 74.543 213.417C74.6263 213.474 74.6992 213.516 74.7721 213.542C74.8555 213.557 74.9076 213.563 74.9388 213.563H74.9805V213.646H72.543V213.563ZM78.3763 210.875L76.7096 207.229L75.043 210.875H78.3763Z" fill="#C8B7A1"/>
<path d="M93.4609 213.563C93.8359 213.563 94.1328 213.469 94.3568 213.271C94.5755 213.063 94.6901 212.792 94.6901 212.458V204.854H94.5859C94.0859 204.854 93.6536 204.911 93.2943 205.021C92.9453 205.12 92.6536 205.25 92.4193 205.417C92.1953 205.583 92.013 205.766 91.8776 205.958C91.737 206.141 91.6328 206.323 91.5651 206.5C91.5078 206.667 91.4661 206.802 91.4401 206.896L91.4193 207.083L91.3359 207.042L91.6901 204.75H99.8151L100.148 207.042L100.086 207.083L100.044 206.896C100.029 206.802 99.987 206.667 99.9193 206.5C99.8464 206.323 99.7422 206.141 99.6068 205.958C99.4661 205.766 99.2786 205.583 99.0443 205.417C98.8203 205.25 98.5339 205.12 98.1901 205.021C97.8411 204.911 97.4193 204.854 96.9193 204.854H96.8151V212.458C96.8151 212.792 96.9193 213.063 97.1276 213.271C97.3464 213.469 97.6484 213.563 98.0234 213.563V213.646H93.4609V213.563Z" fill="#C8B7A1"/>
<path d="M106.654 213.708C106.221 213.708 105.789 213.641 105.362 213.5C104.945 213.349 104.555 213.141 104.195 212.875C103.846 212.615 103.57 212.302 103.362 211.938C103.154 211.578 103.049 211.182 103.049 210.75V205.938C103.049 205.594 102.945 205.328 102.737 205.146C102.529 204.953 102.242 204.854 101.883 204.854V204.75H106.32V204.854C105.945 204.854 105.654 204.953 105.445 205.146C105.247 205.328 105.154 205.573 105.154 205.875V209.979C105.154 210.271 105.164 210.583 105.195 210.917C105.237 211.25 105.289 211.578 105.362 211.896C105.445 212.203 105.555 212.49 105.695 212.75C105.831 213 106.013 213.208 106.237 213.375C106.456 213.531 106.737 213.604 107.07 213.604C107.263 213.604 107.487 213.578 107.737 213.521C107.997 213.453 108.258 213.354 108.508 213.229C108.768 213.094 109.013 212.917 109.237 212.708C109.471 212.49 109.654 212.224 109.779 211.917C109.914 211.615 109.987 211.25 109.987 210.833V205.896C109.987 205.563 109.883 205.307 109.674 205.125C109.466 204.948 109.174 204.854 108.799 204.854V204.75H111.237V204.854C110.872 204.854 110.591 204.948 110.383 205.125C110.174 205.307 110.07 205.563 110.07 205.896V210.833C110.07 211.474 109.914 212.01 109.612 212.438C109.305 212.854 108.888 213.177 108.362 213.396C107.846 213.604 107.279 213.708 106.654 213.708Z" fill="#C8B7A1"/>
<path d="M124.336 213.647C123.737 213.647 123.174 213.543 122.648 213.335C122.117 213.116 121.648 212.809 121.232 212.418C120.826 212.017 120.503 211.559 120.253 211.043C120.003 210.533 119.862 209.975 119.836 209.376V208.855C119.888 207.73 120.341 206.746 121.19 205.897C121.607 205.496 122.086 205.184 122.628 204.96C123.169 204.725 123.737 204.605 124.336 204.605C124.862 204.605 125.367 204.699 125.857 204.876C126.341 205.033 126.695 205.095 126.919 205.064C127.154 205.022 127.279 204.908 127.294 204.71H127.378V207.147H127.294C127.279 206.595 127.117 206.137 126.815 205.772C126.523 205.413 126.091 205.137 125.523 204.939C125.258 204.855 125.013 204.803 124.794 204.772C124.586 204.746 124.43 204.73 124.336 204.73C124.211 204.73 124.044 204.762 123.836 204.814C123.638 204.871 123.43 204.98 123.211 205.147C122.987 205.314 122.779 205.559 122.586 205.876C122.388 206.199 122.232 206.621 122.107 207.147C121.982 207.678 121.919 208.335 121.919 209.126C121.919 209.918 121.982 210.585 122.107 211.126C122.232 211.658 122.388 212.079 122.586 212.397C122.779 212.72 122.987 212.96 123.211 213.126C123.43 213.283 123.638 213.387 123.836 213.439C124.044 213.496 124.211 213.522 124.336 213.522C124.544 213.522 124.784 213.496 125.065 213.439C125.357 213.371 125.596 213.293 125.794 213.21V210.793C125.779 210.449 125.659 210.184 125.44 210.001C125.232 209.824 124.961 209.73 124.628 209.73V209.647H129.065V209.73C128.716 209.73 128.44 209.829 128.232 210.022C128.023 210.204 127.909 210.454 127.898 210.772V213.564H127.794C127.794 213.428 127.695 213.329 127.503 213.272C127.305 213.22 127.065 213.204 126.773 213.23C126.482 213.246 126.174 213.293 125.857 213.376C125.367 213.559 124.862 213.647 124.336 213.647Z" fill="#C8B7A1"/>
<path d="M135.318 213.647C134.693 213.647 134.099 213.533 133.547 213.293C133.005 213.059 132.526 212.73 132.109 212.314C131.693 211.897 131.365 211.418 131.13 210.876C130.906 210.324 130.797 209.741 130.797 209.126C130.797 208.517 130.906 207.939 131.13 207.397C131.365 206.845 131.693 206.355 132.109 205.939C132.526 205.522 133.005 205.199 133.547 204.96C134.099 204.725 134.693 204.605 135.318 204.605C135.927 204.605 136.505 204.725 137.047 204.96C137.599 205.199 138.089 205.522 138.505 205.939C138.922 206.355 139.24 206.845 139.464 207.397C139.698 207.939 139.818 208.517 139.818 209.126C139.818 209.751 139.698 210.345 139.464 210.897C139.24 211.439 138.922 211.918 138.505 212.335C138.089 212.741 137.609 213.059 137.068 213.293C136.526 213.533 135.943 213.647 135.318 213.647ZM135.318 213.522C135.443 213.522 135.599 213.501 135.797 213.46C136.005 213.408 136.219 213.303 136.443 213.147C136.661 212.996 136.87 212.762 137.068 212.439C137.26 212.121 137.411 211.699 137.526 211.168C137.651 210.626 137.714 209.949 137.714 209.126C137.714 208.335 137.651 207.678 137.526 207.147C137.411 206.621 137.26 206.199 137.068 205.876C136.87 205.559 136.661 205.314 136.443 205.147C136.219 204.98 136.005 204.871 135.797 204.814C135.599 204.762 135.443 204.73 135.318 204.73C135.177 204.73 135.005 204.762 134.797 204.814C134.599 204.871 134.391 204.98 134.172 205.147C133.964 205.314 133.76 205.559 133.568 205.876C133.37 206.199 133.214 206.621 133.089 207.147C132.964 207.678 132.901 208.335 132.901 209.126C132.901 209.949 132.964 210.626 133.089 211.168C133.214 211.699 133.37 212.121 133.568 212.439C133.76 212.762 133.964 212.996 134.172 213.147C134.391 213.303 134.599 213.408 134.797 213.46C135.005 213.501 135.177 213.522 135.318 213.522Z" fill="#C8B7A1"/>
<path d="M146.072 213.647C145.447 213.647 144.853 213.533 144.301 213.293C143.759 213.059 143.28 212.73 142.863 212.314C142.447 211.897 142.118 211.418 141.884 210.876C141.66 210.324 141.551 209.741 141.551 209.126C141.551 208.517 141.66 207.939 141.884 207.397C142.118 206.845 142.447 206.355 142.863 205.939C143.28 205.522 143.759 205.199 144.301 204.96C144.853 204.725 145.447 204.605 146.072 204.605C146.681 204.605 147.259 204.725 147.801 204.96C148.353 205.199 148.842 205.522 149.259 205.939C149.676 206.355 149.993 206.845 150.217 207.397C150.452 207.939 150.572 208.517 150.572 209.126C150.572 209.751 150.452 210.345 150.217 210.897C149.993 211.439 149.676 211.918 149.259 212.335C148.842 212.741 148.363 213.059 147.822 213.293C147.28 213.533 146.697 213.647 146.072 213.647ZM146.072 213.522C146.197 213.522 146.353 213.501 146.551 213.46C146.759 213.408 146.973 213.303 147.197 213.147C147.415 212.996 147.624 212.762 147.822 212.439C148.014 212.121 148.165 211.699 148.28 211.168C148.405 210.626 148.467 209.949 148.467 209.126C148.467 208.335 148.405 207.678 148.28 207.147C148.165 206.621 148.014 206.199 147.822 205.876C147.624 205.559 147.415 205.314 147.197 205.147C146.973 204.98 146.759 204.871 146.551 204.814C146.353 204.762 146.197 204.73 146.072 204.73C145.931 204.73 145.759 204.762 145.551 204.814C145.353 204.871 145.145 204.98 144.926 205.147C144.717 205.314 144.514 205.559 144.322 205.876C144.124 206.199 143.967 206.621 143.842 207.147C143.717 207.678 143.655 208.335 143.655 209.126C143.655 209.949 143.717 210.626 143.842 211.168C143.967 211.699 144.124 212.121 144.322 212.439C144.514 212.762 144.717 212.996 144.926 213.147C145.145 213.303 145.353 213.408 145.551 213.46C145.759 213.501 145.931 213.522 146.072 213.522Z" fill="#C8B7A1"/>
<path d="M156.805 213.647C156.206 213.647 155.643 213.543 155.117 213.335C154.586 213.116 154.117 212.809 153.701 212.418C153.294 212.017 152.971 211.559 152.721 211.043C152.471 210.533 152.331 209.975 152.305 209.376V208.855C152.357 207.73 152.81 206.746 153.659 205.897C154.076 205.496 154.555 205.184 155.096 204.96C155.638 204.725 156.206 204.605 156.805 204.605C157.331 204.605 157.836 204.699 158.326 204.876C158.81 205.033 159.164 205.095 159.388 205.064C159.622 205.022 159.747 204.908 159.763 204.71H159.846V207.147H159.763C159.747 206.595 159.586 206.137 159.284 205.772C158.992 205.413 158.56 205.137 157.992 204.939C157.727 204.855 157.482 204.803 157.263 204.772C157.055 204.746 156.898 204.73 156.805 204.73C156.68 204.73 156.513 204.762 156.305 204.814C156.107 204.871 155.898 204.98 155.68 205.147C155.456 205.314 155.247 205.559 155.055 205.876C154.857 206.199 154.701 206.621 154.576 207.147C154.451 207.678 154.388 208.335 154.388 209.126C154.388 209.918 154.451 210.585 154.576 211.126C154.701 211.658 154.857 212.079 155.055 212.397C155.247 212.72 155.456 212.96 155.68 213.126C155.898 213.283 156.107 213.387 156.305 213.439C156.513 213.496 156.68 213.522 156.805 213.522C157.013 213.522 157.253 213.496 157.534 213.439C157.826 213.371 158.065 213.293 158.263 213.21V210.793C158.247 210.449 158.128 210.184 157.909 210.001C157.701 209.824 157.43 209.73 157.096 209.73V209.647H161.534V209.73C161.185 209.73 160.909 209.829 160.701 210.022C160.492 210.204 160.378 210.454 160.367 210.772V213.564H160.263C160.263 213.428 160.164 213.329 159.971 213.272C159.773 213.22 159.534 213.204 159.242 213.23C158.951 213.246 158.643 213.293 158.326 213.376C157.836 213.559 157.331 213.647 156.805 213.647Z" fill="#C8B7A1"/>
<path d="M163.262 213.563C163.637 213.563 163.928 213.469 164.137 213.271C164.355 213.063 164.47 212.792 164.47 212.458V205.938C164.47 205.594 164.355 205.328 164.137 205.146C163.928 204.953 163.637 204.854 163.262 204.854V204.75H167.824V204.854C167.449 204.854 167.147 204.953 166.928 205.146C166.72 205.328 166.616 205.594 166.616 205.938V212.458C166.616 212.792 166.72 213.063 166.928 213.271C167.147 213.469 167.449 213.563 167.824 213.563C168.71 213.563 169.454 213.375 170.053 213C170.647 212.625 171.064 212.063 171.303 211.313H171.408L170.72 213.646H163.262V213.563Z" fill="#C8B7A1"/>
<path d="M173.129 213.563C173.504 213.563 173.796 213.469 174.004 213.271C174.223 213.063 174.337 212.792 174.337 212.458V205.938C174.337 205.594 174.223 205.328 174.004 205.146C173.796 204.953 173.504 204.854 173.129 204.854V204.75H180.129L180.483 207.042L180.4 207.083L180.358 206.896C180.342 206.802 180.301 206.667 180.233 206.5C180.16 206.323 180.056 206.141 179.921 205.958C179.796 205.766 179.613 205.583 179.379 205.417C179.139 205.25 178.848 205.12 178.504 205.021C178.155 204.911 177.733 204.854 177.233 204.854H176.483V208.938H178.025C178.259 208.927 178.447 208.875 178.587 208.792C178.723 208.698 178.827 208.583 178.9 208.458C178.967 208.333 179.009 208.219 179.025 208.104C179.051 207.979 179.066 207.885 179.066 207.813V207.771H179.15V210.208H179.066V210.146C179.066 210.094 179.051 210.01 179.025 209.896C179.009 209.771 178.967 209.646 178.9 209.521C178.827 209.385 178.723 209.271 178.587 209.188C178.447 209.094 178.259 209.036 178.025 209.021H176.483V212.458C176.483 212.792 176.587 213.063 176.796 213.271C177.014 213.469 177.316 213.563 177.691 213.563C178.577 213.563 179.322 213.375 179.921 213C180.514 212.625 180.931 212.063 181.171 211.313H181.275L180.587 213.646H173.129V213.563Z" fill="#C8B7A1"/>
<path d="M89.3724 227.407C88.7578 227.407 88.1901 227.303 87.6641 227.094C87.1328 226.876 86.6641 226.568 86.2474 226.178C85.8411 225.777 85.5182 225.318 85.2682 224.803C85.0182 224.292 84.8776 223.735 84.8516 223.136V222.615C84.8776 222.063 85.0026 221.532 85.2266 221.032C85.4609 220.532 85.7682 220.094 86.1432 219.719L86.1849 219.699C86.6016 219.271 87.0807 218.943 87.6224 218.719C88.1745 218.485 88.7578 218.365 89.3724 218.365C89.8984 218.365 90.3984 218.459 90.8724 218.636C91.3568 218.792 91.7109 218.855 91.9349 218.824C92.1693 218.782 92.2943 218.667 92.3099 218.469H92.4141V220.907H92.3099C92.2943 220.521 92.2057 220.178 92.0391 219.886C91.8724 219.584 91.6484 219.324 91.3724 219.115C91.0911 218.907 90.7786 218.751 90.4349 218.636C90.0859 218.527 89.7318 218.469 89.3724 218.469C89.2318 218.469 89.0599 218.501 88.8516 218.553C88.6536 218.61 88.4453 218.719 88.2266 218.886C88.0182 219.053 87.8151 219.303 87.6224 219.636C87.4245 219.959 87.2682 220.381 87.1432 220.907C87.0182 221.438 86.9557 222.094 86.9557 222.886C86.9557 223.678 87.0182 224.344 87.1432 224.886C87.2682 225.417 87.4245 225.844 87.6224 226.178C87.8151 226.501 88.0182 226.74 88.2266 226.907C88.4453 227.074 88.6536 227.188 88.8516 227.24C89.0599 227.298 89.2318 227.324 89.3724 227.324C89.9401 227.324 90.4401 227.209 90.8724 226.969C91.3151 226.719 91.6641 226.381 91.9141 225.949C92.1745 225.521 92.3099 225.006 92.3099 224.407V224.261H92.4141V227.324H92.3099C92.2943 227.115 92.1693 227.001 91.9349 226.969C91.6953 226.943 91.3411 227.001 90.8724 227.136C90.3984 227.318 89.8984 227.407 89.3724 227.407Z" fill="#C8B7A1"/>
<path d="M94.1289 227.322H94.2956C94.4206 227.312 94.5768 227.255 94.7747 227.156C94.9831 227.062 95.2018 226.885 95.4414 226.635C95.6758 226.374 95.9102 225.984 96.1497 225.468L98.2539 220.864L99.3164 218.51L102.837 226.239C102.973 226.562 103.139 226.796 103.337 226.947C103.546 227.104 103.733 227.197 103.9 227.239C104.077 227.281 104.202 227.312 104.275 227.322H104.316V227.406H100.129V227.322H100.191C100.243 227.322 100.322 227.312 100.421 227.281C100.514 227.255 100.608 227.208 100.691 227.135C100.775 227.067 100.822 226.963 100.837 226.822C100.848 226.671 100.801 226.479 100.691 226.239L100.004 224.739H96.5872L96.2539 225.468C96.0872 225.817 95.9831 226.104 95.9414 226.322C95.9102 226.546 95.9102 226.729 95.9414 226.864C95.9831 227.005 96.0456 227.109 96.1289 227.176C96.2122 227.234 96.2852 227.275 96.3581 227.301C96.4414 227.317 96.4935 227.322 96.5247 227.322H96.5664V227.406H94.1289V227.322ZM99.9622 224.635L98.2956 220.989L96.6289 224.635H99.9622Z" fill="#C8B7A1"/>
<path d="M106.047 227.322C106.422 227.322 106.714 227.229 106.922 227.031C107.141 226.822 107.255 226.551 107.255 226.218V219.697C107.255 219.354 107.141 219.088 106.922 218.906C106.714 218.713 106.422 218.614 106.047 218.614V218.51H110.609V218.614C110.234 218.614 109.932 218.713 109.714 218.906C109.505 219.088 109.401 219.354 109.401 219.697V226.218C109.401 226.551 109.505 226.822 109.714 227.031C109.932 227.229 110.234 227.322 110.609 227.322C111.495 227.322 112.24 227.135 112.839 226.76C113.432 226.385 113.849 225.822 114.089 225.072H114.193L113.505 227.406H106.047V227.322Z" fill="#C8B7A1"/>
<path d="M115.914 227.322C116.289 227.322 116.581 227.229 116.789 227.031C117.008 226.822 117.122 226.551 117.122 226.218V219.697C117.122 219.354 117.008 219.088 116.789 218.906C116.581 218.713 116.289 218.614 115.914 218.614V218.51H122.914L123.268 220.801L123.185 220.843L123.143 220.656C123.128 220.562 123.086 220.426 123.018 220.26C122.945 220.083 122.841 219.9 122.706 219.718C122.581 219.525 122.398 219.343 122.164 219.176C121.924 219.01 121.633 218.88 121.289 218.781C120.94 218.671 120.518 218.614 120.018 218.614H119.268V222.697H120.81C121.044 222.687 121.232 222.635 121.372 222.551C121.508 222.458 121.612 222.343 121.685 222.218C121.753 222.093 121.794 221.979 121.81 221.864C121.836 221.739 121.852 221.645 121.852 221.572V221.531H121.935V223.968H121.852V223.906C121.852 223.854 121.836 223.77 121.81 223.656C121.794 223.531 121.753 223.406 121.685 223.281C121.612 223.145 121.508 223.031 121.372 222.947C121.232 222.854 121.044 222.796 120.81 222.781H119.268V226.218C119.268 226.551 119.372 226.822 119.581 227.031C119.799 227.229 120.102 227.322 120.477 227.322C121.362 227.322 122.107 227.135 122.706 226.76C123.299 226.385 123.716 225.822 123.956 225.072H124.06L123.372 227.406H115.914V227.322Z" fill="#C8B7A1"/>
<path d="M127.194 220.01L127.027 219.843V226.281C127.038 226.505 127.09 226.692 127.173 226.843C127.267 226.984 127.382 227.088 127.507 227.156C127.642 227.213 127.767 227.255 127.882 227.281C128.007 227.312 128.095 227.322 128.152 227.322H128.215V227.406H125.777V227.322H125.819C125.871 227.322 125.965 227.312 126.09 227.281C126.215 227.255 126.34 227.213 126.465 227.156C126.59 227.088 126.694 226.984 126.777 226.843C126.871 226.692 126.928 226.505 126.944 226.281V219.864C126.928 219.421 126.819 219.104 126.611 218.906C126.413 218.713 126.137 218.614 125.777 218.614V218.51H128.673L133.715 224.239V219.656C133.699 219.38 133.632 219.171 133.507 219.031C133.392 218.895 133.262 218.796 133.111 218.739C132.954 218.671 132.819 218.635 132.694 218.635C132.579 218.624 132.527 218.614 132.527 218.614V218.51H134.986V218.614C134.986 218.614 134.923 218.624 134.798 218.635C134.684 218.635 134.553 218.671 134.402 218.739C134.246 218.796 134.111 218.895 133.986 219.031C133.871 219.171 133.809 219.38 133.798 219.656V227.406H133.694L127.194 220.01Z" fill="#C8B7A1"/>
<path d="M136.707 227.301C137.124 227.317 137.426 227.218 137.624 227.01C137.816 226.801 137.915 226.541 137.915 226.218V219.676C137.915 219.333 137.801 219.067 137.582 218.885C137.374 218.708 137.082 218.614 136.707 218.614V218.51H141.999C142.259 218.51 142.52 218.546 142.77 218.614C143.03 218.671 143.28 218.77 143.52 218.906C143.947 219.156 144.332 219.499 144.665 219.926C144.983 220.333 145.228 220.796 145.395 221.322C145.561 221.854 145.645 222.4 145.645 222.968C145.645 224.135 145.316 225.15 144.665 226.01C144.509 226.218 144.337 226.416 144.145 226.593C143.947 226.76 143.738 226.9 143.52 227.01C143.28 227.15 142.978 227.255 142.603 227.322C142.228 227.38 141.853 227.406 141.478 227.406H136.707V227.301ZM141.54 227.301C141.842 227.301 142.103 227.229 142.311 227.072C142.52 226.906 142.691 226.697 142.832 226.447C142.983 226.187 143.108 225.895 143.207 225.572C143.301 225.255 143.374 224.937 143.415 224.614C143.457 224.281 143.483 223.979 143.499 223.697C143.525 223.406 143.54 223.166 143.54 222.968C143.54 222.775 143.53 222.541 143.52 222.26C143.52 221.968 143.499 221.666 143.457 221.343C143.426 221.01 143.374 220.687 143.29 220.364C143.217 220.046 143.113 219.76 142.978 219.51C142.853 219.249 142.691 219.041 142.499 218.885C142.301 218.718 142.051 218.635 141.749 218.635H140.061V226.239C140.061 226.588 140.129 226.838 140.27 226.989C140.421 227.13 140.613 227.218 140.853 227.26C141.087 227.291 141.316 227.301 141.54 227.301Z" fill="#C8B7A1"/>
<path d="M147.367 227.322H147.534C147.659 227.312 147.815 227.255 148.013 227.156C148.221 227.062 148.44 226.885 148.68 226.635C148.914 226.374 149.148 225.984 149.388 225.468L151.492 220.864L152.555 218.51L156.076 226.239C156.211 226.562 156.378 226.796 156.576 226.947C156.784 227.104 156.971 227.197 157.138 227.239C157.315 227.281 157.44 227.312 157.513 227.322H157.555V227.406H153.367V227.322H153.43C153.482 227.322 153.56 227.312 153.659 227.281C153.753 227.255 153.846 227.208 153.93 227.135C154.013 227.067 154.06 226.963 154.076 226.822C154.086 226.671 154.039 226.479 153.93 226.239L153.242 224.739H149.826L149.492 225.468C149.326 225.817 149.221 226.104 149.18 226.322C149.148 226.546 149.148 226.729 149.18 226.864C149.221 227.005 149.284 227.109 149.367 227.176C149.451 227.234 149.523 227.275 149.596 227.301C149.68 227.317 149.732 227.322 149.763 227.322H149.805V227.406H147.367V227.322ZM153.201 224.635L151.534 220.989L149.867 224.635H153.201Z" fill="#C8B7A1"/>
<path d="M159.285 227.322C159.66 227.322 159.952 227.234 160.16 227.051C160.379 226.874 160.493 226.593 160.493 226.218V219.697C160.493 219.463 160.452 219.275 160.368 219.135C160.285 218.999 160.181 218.895 160.056 218.822C159.941 218.739 159.827 218.687 159.702 218.656C159.577 218.63 159.478 218.614 159.41 218.614H159.285V218.51H163.743C164.16 218.51 164.561 218.551 164.952 218.635C165.337 218.718 165.686 218.854 165.993 219.031C166.296 219.213 166.54 219.458 166.723 219.76C166.9 220.051 166.993 220.4 166.993 220.801C166.993 221.26 166.874 221.65 166.639 221.968C166.415 222.275 166.124 222.52 165.764 222.697C165.415 222.88 165.035 223.005 164.618 223.072C165.103 223.104 165.493 223.187 165.785 223.322C166.077 223.447 166.316 223.666 166.514 223.968C166.707 224.26 166.889 224.676 167.056 225.218C167.233 225.76 167.41 226.187 167.577 226.489C167.754 226.796 167.952 227.01 168.16 227.135C168.379 227.26 168.645 227.322 168.952 227.322V227.406H167.098C166.707 227.406 166.332 227.249 165.973 226.926C165.608 226.593 165.27 226.025 164.952 225.218C164.796 224.817 164.686 224.484 164.618 224.218C164.546 223.958 164.483 223.749 164.431 223.593C164.374 223.426 164.296 223.317 164.202 223.26C164.118 223.192 163.983 223.156 163.806 223.156H162.639V226.239C162.639 226.604 162.723 226.874 162.889 227.051C163.066 227.234 163.353 227.322 163.743 227.322V227.406H159.285V227.322ZM163.743 223.051C163.993 223.051 164.202 222.958 164.368 222.76C164.535 222.551 164.66 222.281 164.743 221.947C164.837 221.604 164.889 221.218 164.889 220.801C164.889 220.385 164.837 220.01 164.743 219.676C164.66 219.343 164.535 219.088 164.368 218.906C164.202 218.713 163.993 218.614 163.743 218.614H162.639V223.051H163.743Z" fill="#C8B7A1"/>
</g>
</svg>
