<svg width="252" height="293" viewBox="0 0 252 293" fill="none" xmlns="http://www.w3.org/2000/svg">
<mask id="mask0_2417_329" style="mask-type:luminance" maskUnits="userSpaceOnUse" x="0" y="0" width="252" height="293">
<path d="M0 0H251.6V293H0V0Z" fill="white"/>
</mask>
<g mask="url(#mask0_2417_329)">
<mask id="mask1_2417_329" style="mask-type:luminance" maskUnits="userSpaceOnUse" x="0" y="0" width="252" height="293">
<path d="M251.6 23.0495V269.684C251.6 275.794 249.186 281.658 244.884 285.981C240.582 290.303 234.745 292.733 228.658 292.733H22.9418C16.8552 292.733 11.0235 290.303 6.72126 285.981C2.41903 281.658 0 275.794 0 269.684V23.0495C0 16.9343 2.41903 11.0752 6.72126 6.75281C11.0235 2.43039 16.8552 0 22.9418 0H228.658C234.745 0 240.582 2.43039 244.884 6.75281C249.186 11.0752 251.6 16.9343 251.6 23.0495Z" fill="white"/>
</mask>
<g mask="url(#mask1_2417_329)">
<mask id="mask2_2417_329" style="mask-type:luminance" maskUnits="userSpaceOnUse" x="0" y="-1" width="252" height="294">
<path d="M251.704 -0.0253906H0V293.001H251.704V-0.0253906Z" fill="white"/>
</mask>
<g mask="url(#mask2_2417_329)">
<mask id="mask3_2417_329" style="mask-type:luminance" maskUnits="userSpaceOnUse" x="0" y="0" width="252" height="293">
<path d="M0 0H251.6V292.801H0V0Z" fill="white"/>
</mask>
<g mask="url(#mask3_2417_329)">
<mask id="mask4_2417_329" style="mask-type:luminance" maskUnits="userSpaceOnUse" x="0" y="0" width="252" height="293">
<path d="M251.6 23.0495V269.684C251.6 275.794 249.186 281.658 244.884 285.981C240.582 290.303 234.745 292.733 228.658 292.733H22.9418C16.8552 292.733 11.0235 290.303 6.72126 285.981C2.41903 281.658 0 275.794 0 269.684V23.0495C0 16.9343 2.41903 11.0752 6.72126 6.75281C11.0235 2.43039 16.8552 0 22.9418 0H228.658C234.745 0 240.582 2.43039 244.884 6.75281C249.186 11.0752 251.6 16.9343 251.6 23.0495Z" fill="white"/>
</mask>
<g mask="url(#mask4_2417_329)">
<path d="M0 0H251.6V292.279H0V0Z" fill="#1F3D58"/>
</g>
</g>
</g>
</g>
</g>
<mask id="mask5_2417_329" style="mask-type:luminance" maskUnits="userSpaceOnUse" x="53" y="38" width="147" height="155">
<path d="M199.764 38.7773H53.2695V192.65H199.764V38.7773Z" fill="white"/>
</mask>
<g mask="url(#mask5_2417_329)">
<path d="M70.008 52.7488C69.4097 52.7488 68.8531 52.6129 68.3433 52.3515C67.8283 52.0745 67.3757 51.6982 66.9907 51.2226C66.6006 50.7522 66.2936 50.1982 66.0751 49.571C65.8514 48.9333 65.7422 48.2539 65.7422 47.543C65.7422 46.8218 65.8514 46.1423 66.0751 45.5151C66.2936 44.8775 66.6006 44.3182 66.9907 43.8426C67.3757 43.3722 67.8283 43.0011 68.3433 42.7345C68.8531 42.4575 69.4097 42.3164 70.008 42.3164C70.6167 42.3164 71.1941 42.4523 71.7351 42.7136L71.6935 42.6927C71.9536 42.8077 72.1981 42.9331 72.4218 43.069C72.6559 43.1945 72.8432 43.299 72.9837 43.3826C73.1189 43.4663 73.1918 43.5081 73.1918 43.5081L73.4207 44.4698L73.2334 44.5743C73.0357 44.13 72.7652 43.7537 72.4218 43.4454C72.0733 43.1422 71.6935 42.9122 71.2773 42.7554C70.8612 42.6039 70.4346 42.5255 70.008 42.5255C69.493 42.5255 69.0092 42.6666 68.5514 42.9436C68.104 43.2258 67.7086 43.6022 67.3653 44.0726C67.0167 44.5482 66.7462 45.0865 66.5537 45.6824C66.356 46.2677 66.2624 46.8897 66.2624 47.543C66.2624 48.1598 66.3508 48.7504 66.5329 49.3201C66.7098 49.8793 66.9543 50.3863 67.2612 50.8463C67.5786 51.3062 67.9479 51.6825 68.3641 51.9752C68.7803 52.2679 69.2277 52.4509 69.7167 52.5188C69.7583 52.5345 69.8051 52.5397 69.8623 52.5397C69.9144 52.5397 69.9664 52.5397 70.008 52.5397C70.6843 52.5397 71.3242 52.3411 71.9224 51.9334C72.5155 51.5153 73.0045 50.9508 73.379 50.24L73.5663 50.3445L73.2958 51.4526C73.2958 51.4526 73.2126 51.5101 73.0461 51.6198C72.89 51.7191 72.6819 51.8393 72.4218 51.9752C72.1565 52.1163 71.8652 52.2575 71.5479 52.3934H71.5687C71.0797 52.6286 70.5594 52.7488 70.008 52.7488Z" fill="#C8B7A1"/>
<path d="M75.0703 52.35C75.2784 52.35 75.4865 52.3395 75.6946 52.3081C75.9131 52.282 76.0587 52.1932 76.1316 52.0364L79.8355 42.3984H80.0436V42.4193L83.7684 52.0573C83.8517 52.1827 83.9765 52.2663 84.143 52.3081C84.3094 52.3395 84.4967 52.35 84.7048 52.35V52.559H82.3742V52.35C82.5927 52.35 82.8008 52.329 82.9985 52.2872C83.191 52.2454 83.2586 52.1566 83.2066 52.0154L81.7291 48.1686H77.8379L76.3397 52.0154H76.3605C76.3188 52.1148 76.3501 52.1932 76.4645 52.2454C76.5894 52.2872 76.7402 52.3186 76.9223 52.329C77.0992 52.3447 77.2656 52.35 77.4217 52.35V52.559H75.0703V52.35ZM81.6459 47.9596L79.7731 43.1302L77.9211 47.9596H81.6459Z" fill="#C8B7A1"/>
<path d="M89.0167 52.6217C88.767 52.5538 88.5225 52.4545 88.2884 52.329C88.2572 52.3186 88.226 52.3029 88.1844 52.2872C88.1428 52.2611 88.1012 52.2402 88.0595 52.2245C87.737 52.0468 87.4665 51.89 87.248 51.7646C87.0243 51.6287 86.915 51.5503 86.915 51.5346L86.6445 50.4475V50.4266L86.8318 50.3429C87.0243 50.7088 87.248 51.0433 87.4977 51.3464C87.7578 51.6391 88.0439 51.8848 88.3509 52.0782C88.767 52.329 89.2144 52.4754 89.7034 52.5172C90.1872 52.559 90.645 52.4911 91.0768 52.3081C91.519 52.1148 91.8728 51.7959 92.1381 51.3464C92.2473 51.1687 92.3358 50.9806 92.4086 50.782C92.4762 50.5729 92.5126 50.3638 92.5126 50.1548C92.5126 49.9352 92.4554 49.7157 92.3462 49.5067C92.2473 49.2871 92.1069 49.0833 91.93 48.9004C91.8051 48.7645 91.6647 48.6443 91.5138 48.545C91.3733 48.4509 91.2225 48.3673 91.056 48.2941L88.6006 47.1651C88.1844 46.9456 87.841 46.632 87.5809 46.2243C87.3312 45.8219 87.2064 45.3881 87.2064 44.9281V44.7818C87.2324 44.3375 87.352 43.9403 87.5601 43.5901C87.7786 43.2452 88.0699 42.9629 88.4341 42.7538C88.8087 42.5448 89.2144 42.4298 89.6618 42.3984C89.7034 42.3984 89.7503 42.3984 89.8075 42.3984C89.8595 42.3984 89.9167 42.3984 89.9739 42.3984C90.1924 42.3984 90.4161 42.4403 90.6398 42.5239C90.8739 42.5971 91.0976 42.6859 91.3057 42.7957C91.3317 42.8113 91.3577 42.8322 91.389 42.8584C91.4306 42.8741 91.4722 42.8897 91.5138 42.9002C91.7895 43.0256 92.0236 43.1511 92.2213 43.2765C92.4294 43.402 92.5334 43.4751 92.5334 43.4856L92.7207 44.2173L92.5334 44.3218C92.2265 43.8096 91.8467 43.402 91.389 43.1093C90.9416 42.8166 90.4734 42.6598 89.9739 42.6284C89.8751 42.6284 89.7867 42.6284 89.7034 42.6284C89.3393 42.6598 89.0011 42.7748 88.6838 42.9838C88.3613 43.1929 88.1012 43.4647 87.8931 43.7992C87.6954 44.1232 87.5861 44.4577 87.5601 44.8027V44.9072C87.5601 45.2835 87.685 45.6337 87.9347 45.9526C88.1948 46.2766 88.5017 46.5275 88.8503 46.7052L91.3265 47.855C91.8259 48.0955 92.2109 48.4195 92.4918 48.8377C92.7675 49.2453 92.908 49.6844 92.908 50.1548C92.908 50.6461 92.7675 51.0903 92.4918 51.4928C92.2109 51.8848 91.8519 52.1932 91.4098 52.4127C90.645 52.7994 89.8491 52.8726 89.0167 52.6217Z" fill="#C8B7A1"/>
<path d="M94.2773 52.35C94.4854 52.35 94.6935 52.3395 94.9016 52.3081C95.1201 52.282 95.2658 52.1932 95.3386 52.0364L99.0426 42.3984H99.2507V42.4193L102.975 52.0573C103.059 52.1827 103.184 52.2663 103.35 52.3081C103.516 52.3395 103.704 52.35 103.912 52.35V52.559H101.581V52.35C101.8 52.35 102.008 52.329 102.206 52.2872C102.398 52.2454 102.466 52.1566 102.414 52.0154L100.936 48.1686H97.0449L95.5467 52.0154H95.5675C95.5259 52.1148 95.5571 52.1932 95.6715 52.2454C95.7964 52.2872 95.9473 52.3186 96.1293 52.329C96.3062 52.3447 96.4727 52.35 96.6287 52.35V52.559H94.2773V52.35ZM100.853 47.9596L98.9801 43.1302L97.1282 47.9596H100.853Z" fill="#C8B7A1"/>
<path d="M115.122 52.5596H112.938V52.3505H113.125C113.26 52.3505 113.416 52.3296 113.583 52.2878C113.759 52.2355 113.853 52.1415 113.853 52.016V42.9635C113.853 42.8381 113.759 42.7544 113.583 42.7126C113.416 42.6603 113.26 42.629 113.125 42.629H112.938V42.4199H116.371C116.922 42.4199 117.453 42.5558 117.952 42.8171C118.452 43.0837 118.889 43.4443 119.263 43.9043C119.638 44.3642 119.929 44.9026 120.137 45.5141C120.356 46.1308 120.47 46.7842 120.47 47.4793C120.47 48.1901 120.356 48.8539 120.137 49.4654C119.929 50.0822 119.638 50.6257 119.263 51.0961C118.889 51.5561 118.452 51.9219 117.952 52.1833C117.453 52.4498 116.922 52.5805 116.371 52.5805H115.122V52.5596ZM116.371 52.3505C116.397 52.3505 116.433 52.3505 116.475 52.3505C116.517 52.3505 116.558 52.3505 116.6 52.3505C117.068 52.2983 117.505 52.131 117.911 51.8488C118.311 51.5561 118.665 51.1902 118.972 50.7407C119.289 50.2808 119.534 49.779 119.7 49.2355C119.877 48.6814 119.971 48.096 119.971 47.4793C119.971 46.8678 119.872 46.2772 119.68 45.7022C119.497 45.1169 119.243 44.5942 118.91 44.1343C118.577 43.6743 118.187 43.3137 117.744 43.0471C117.313 42.7701 116.855 42.629 116.371 42.629H115.102C114.977 42.629 114.821 42.6603 114.644 42.7126C114.462 42.7544 114.373 42.8381 114.373 42.9635V52.016C114.373 52.1415 114.462 52.2355 114.644 52.2878C114.821 52.3296 114.977 52.3505 115.102 52.3505H116.371Z" fill="#C8B7A1"/>
<path d="M122.68 52.35H122.867C122.992 52.35 123.143 52.329 123.325 52.2872C123.502 52.235 123.595 52.1409 123.595 52.0154V42.9629C123.595 42.8793 123.543 42.8166 123.45 42.7748C123.366 42.7225 123.262 42.6859 123.137 42.6702C123.013 42.6441 122.898 42.6284 122.805 42.6284C122.721 42.6284 122.68 42.6284 122.68 42.6284V42.3984H128.215V43.2765H128.111C128.095 43.2661 128.054 43.2033 127.986 43.0884C127.913 42.9786 127.83 42.8741 127.736 42.7748C127.653 42.6807 127.554 42.6284 127.445 42.6284H124.095V46.8097H127.466C127.549 46.8097 127.617 46.7575 127.674 46.6425C127.741 46.5327 127.778 46.4752 127.778 46.4752H127.882V47.3742H127.778C127.778 47.3742 127.741 47.3219 127.674 47.2069C127.617 47.0972 127.549 47.0397 127.466 47.0397H124.095V52.35H127.757C127.908 52.35 128.038 52.3029 128.152 52.2036C128.277 52.0938 128.381 51.9841 128.465 51.8691C128.558 51.7593 128.61 51.6914 128.61 51.66H128.86L128.298 52.559H122.68V52.35Z" fill="#C8B7A1"/>
<path d="M131.219 52.35H131.406C131.531 52.3395 131.682 52.3081 131.864 52.2663C132.041 52.2141 132.134 52.12 132.134 51.9945V42.9629C132.134 42.8793 132.082 42.8113 131.989 42.7538C131.905 42.7016 131.801 42.665 131.677 42.6493C131.552 42.6389 131.437 42.6284 131.344 42.6284C131.26 42.618 131.219 42.6075 131.219 42.6075V42.3984H133.549V42.6075C133.549 42.6075 133.497 42.618 133.404 42.6284C133.32 42.6284 133.216 42.6389 133.092 42.6493C132.967 42.665 132.852 42.7016 132.759 42.7538C132.675 42.8113 132.634 42.8793 132.634 42.9629V52.35H136.338C136.489 52.35 136.619 52.3029 136.733 52.2036C136.858 52.0938 136.962 51.9841 137.045 51.8691C137.139 51.7437 137.196 51.6757 137.212 51.66V51.6391H137.441L136.879 52.559H131.219V52.35Z" fill="#C8B7A1"/>
<path d="M146.473 52.35H146.66C146.785 52.3395 146.936 52.3081 147.118 52.2663C147.295 52.2141 147.388 52.12 147.388 51.9945V42.9629C147.388 42.8793 147.336 42.8113 147.243 42.7538C147.159 42.7016 147.055 42.665 146.93 42.6493C146.806 42.6389 146.691 42.6284 146.598 42.6284C146.514 42.618 146.473 42.6075 146.473 42.6075V42.3984H148.803V42.6075C148.803 42.6075 148.751 42.618 148.658 42.6284C148.574 42.6284 148.47 42.6389 148.345 42.6493C148.221 42.665 148.106 42.7016 148.013 42.7538C147.929 42.8113 147.888 42.8793 147.888 42.9629V52.35H151.592C151.743 52.35 151.873 52.3029 151.987 52.2036C152.112 52.0938 152.216 51.9841 152.299 51.8691C152.393 51.7437 152.45 51.6757 152.466 51.66V51.6391H152.695L152.133 52.559H146.473V52.35Z" fill="#C8B7A1"/>
<path d="M154.773 52.35C154.982 52.35 155.19 52.3395 155.398 52.3081C155.616 52.282 155.762 52.1932 155.835 52.0364L159.539 42.3984H159.747V42.4193L163.472 52.0573C163.555 52.1827 163.68 52.2663 163.846 52.3081C164.013 52.3395 164.2 52.35 164.408 52.35V52.559H162.077V52.35C162.296 52.35 162.504 52.329 162.702 52.2872C162.894 52.2454 162.962 52.1566 162.91 52.0154L161.432 48.1686H157.541L156.043 52.0154H156.064C156.022 52.1148 156.053 52.1932 156.168 52.2454C156.292 52.2872 156.443 52.3186 156.625 52.329C156.802 52.3447 156.969 52.35 157.125 52.35V52.559H154.773V52.35ZM161.349 47.9596L159.476 43.1302L157.624 47.9596H161.349Z" fill="#C8B7A1"/>
<path d="M170.469 52.7273C169.886 52.7273 169.335 52.5914 168.825 52.3301C168.31 52.0531 167.852 51.6767 167.452 51.2011C167.061 50.7307 166.755 50.1767 166.536 49.5495C166.312 48.9118 166.203 48.2324 166.203 47.5216C166.203 46.8003 166.312 46.1208 166.536 45.4936C166.755 44.8664 167.061 44.3176 167.452 43.842C167.852 43.3716 168.31 42.9953 168.825 42.7131C169.335 42.436 169.886 42.2949 170.469 42.2949C170.76 42.2949 171.052 42.3315 171.343 42.3995C171.645 42.4726 171.931 42.5772 172.196 42.7131L172.154 42.6712C172.415 42.7967 172.659 42.9221 172.883 43.0476C173.117 43.173 173.304 43.288 173.445 43.3821C173.58 43.4657 173.653 43.5075 173.653 43.5075L173.882 44.4483L173.694 44.5528C173.497 44.1086 173.226 43.7375 172.883 43.4448C172.534 43.1416 172.154 42.9117 171.738 42.7549C171.322 42.6033 170.896 42.5249 170.469 42.5249C169.954 42.5249 169.47 42.666 169.012 42.943C168.565 43.2096 168.17 43.5807 167.826 44.0511C167.478 44.5267 167.207 45.065 167.015 45.6609C166.817 46.2463 166.723 46.8682 166.723 47.5216C166.723 48.1383 166.812 48.7289 166.994 49.2986C167.171 49.8735 167.42 50.3858 167.743 50.8457C168.06 51.2952 168.419 51.6611 168.825 51.9537C169.241 52.2464 169.689 52.4294 170.178 52.4973C170.219 52.513 170.266 52.5182 170.323 52.5182C170.375 52.5182 170.427 52.5182 170.469 52.5182C170.854 52.5182 171.228 52.4555 171.593 52.3301C171.952 52.1942 172.285 52.006 172.591 51.7656C173.143 51.337 173.424 50.7725 173.424 50.0722V49.0268C173.424 48.8909 173.325 48.7969 173.132 48.755C172.95 48.7132 172.8 48.6923 172.675 48.6923H172.508V48.4833H174.839V48.6923H174.652C174.527 48.6923 174.371 48.7132 174.194 48.755C174.012 48.7969 173.923 48.8909 173.923 49.0268V51.222C173.923 51.222 173.83 51.2952 173.653 51.4311C173.471 51.5565 173.237 51.7133 172.945 51.891C172.654 52.074 172.347 52.236 172.03 52.3719C171.541 52.6071 171.02 52.7273 170.469 52.7273Z" fill="#C8B7A1"/>
<path d="M181.461 52.7689C180.878 52.7689 180.327 52.6278 179.817 52.3507C179.302 52.0737 178.844 51.6922 178.444 51.2009C178.054 50.6991 177.747 50.1451 177.528 49.5284C177.305 48.9012 177.195 48.2478 177.195 47.5632C177.195 46.868 177.305 46.2042 177.528 45.577C177.747 44.9498 178.054 44.401 178.444 43.9254C178.844 43.4393 179.302 43.0578 179.817 42.7756C180.327 42.4985 180.878 42.3574 181.461 42.3574H181.586C182.179 42.3574 182.736 42.4985 183.251 42.7756C183.761 43.0578 184.213 43.4446 184.603 43.9463C184.988 44.4376 185.295 44.9916 185.519 45.6188C185.737 46.2356 185.852 46.8837 185.852 47.5632C185.852 48.2478 185.737 48.9012 185.519 49.5284C185.295 50.1556 184.988 50.7148 184.603 51.2009C184.229 51.6922 183.781 52.0737 183.272 52.3507C182.756 52.6278 182.195 52.7689 181.586 52.7689H181.461ZM180.254 52.2671C181.113 52.6278 181.966 52.6278 182.814 52.2671C183.298 52.0319 183.729 51.6765 184.104 51.2009C184.489 50.7148 184.791 50.1556 184.999 49.5284C185.217 48.9012 185.332 48.2478 185.332 47.5632C185.332 46.8105 185.196 46.0945 184.936 45.4098C184.671 44.7303 184.317 44.1449 183.875 43.6536C183.428 43.1676 182.923 42.8383 182.356 42.671C182.215 42.6449 182.075 42.624 181.94 42.6083C181.799 42.5822 181.659 42.5665 181.524 42.5665C181.383 42.5665 181.243 42.5769 181.107 42.5874C180.967 42.6031 180.826 42.6292 180.691 42.671C180.119 42.854 179.614 43.1885 179.172 43.6745C178.725 44.1658 178.371 44.7512 178.111 45.4307C177.846 46.0997 177.716 46.8105 177.716 47.5632C177.716 48.2478 177.825 48.9012 178.048 49.5284C178.267 50.1556 178.569 50.7148 178.943 51.2009C179.328 51.6765 179.765 52.0319 180.254 52.2671Z" fill="#C8B7A1"/>
<path d="M86.0432 71.8874C85.4449 71.8874 84.8883 71.7516 84.3785 71.4902C83.8634 71.2132 83.4108 70.8369 83.0259 70.3613C82.6357 69.8909 82.3288 69.3368 82.1103 68.7096C81.8866 68.072 81.7773 67.3925 81.7773 66.6817C81.7773 65.9604 81.8866 65.281 82.1103 64.6538C82.3288 64.0161 82.6357 63.4569 83.0259 62.9813C83.4108 62.5109 83.8634 62.1398 84.3785 61.8732C84.8883 61.5962 85.4449 61.4551 86.0432 61.4551C86.6518 61.4551 87.2293 61.591 87.7703 61.8523L87.7287 61.8314C87.9888 61.9464 88.2333 62.0718 88.457 62.2077C88.6911 62.3332 88.8784 62.4377 89.0188 62.5213C89.1541 62.6049 89.2269 62.6468 89.2269 62.6468L89.4558 63.6085L89.2685 63.713C89.0709 63.2687 88.8003 62.8924 88.457 62.584C88.1084 62.2809 87.7287 62.0509 87.3125 61.8941C86.8963 61.7425 86.4697 61.6641 86.0432 61.6641C85.5281 61.6641 85.0443 61.8053 84.5865 62.0823C84.1392 62.3645 83.7438 62.7408 83.4004 63.2112C83.0519 63.6869 82.7814 64.2252 82.5889 64.821C82.3912 65.4064 82.2976 66.0284 82.2976 66.6817C82.2976 67.2985 82.386 67.8891 82.5681 68.4588C82.745 69.018 82.9895 69.525 83.2964 69.9849C83.6137 70.4449 83.9831 70.8212 84.3993 71.1139C84.8154 71.4066 85.2628 71.5895 85.7518 71.6575C85.7935 71.6732 85.8403 71.6784 85.8975 71.6784C85.9495 71.6784 86.0015 71.6784 86.0432 71.6784C86.7194 71.6784 87.3593 71.4798 87.9576 71.0721C88.5506 70.654 89.0396 70.0895 89.4142 69.3787L89.6015 69.4832L89.331 70.5912C89.331 70.5912 89.2477 70.6487 89.0813 70.7585C88.9252 70.8578 88.7171 70.978 88.457 71.1139C88.1917 71.255 87.9004 71.3961 87.583 71.532H87.6038C87.1148 71.7672 86.5946 71.8874 86.0432 71.8874Z" fill="#C8B7A1"/>
<path d="M91.9648 71.7002V71.4912H92.1521C92.277 71.4912 92.4278 71.4702 92.6099 71.4284C92.7868 71.3762 92.8804 71.2821 92.8804 71.1567V62.1041C92.8804 61.9787 92.7868 61.8951 92.6099 61.8532C92.4278 61.801 92.277 61.7696 92.1521 61.7696H91.9648V61.5605H94.3162V61.7696H94.129C94.0041 61.7696 93.848 61.801 93.6712 61.8532C93.4891 61.8951 93.4007 61.9787 93.4007 62.1041V65.9718H98.4572V62.1041C98.4572 61.9787 98.3636 61.8951 98.1867 61.8532C98.0202 61.801 97.8642 61.7696 97.7289 61.7696H97.5416V61.5605H99.893V61.7696H99.7266C99.5861 61.7696 99.4248 61.801 99.2479 61.8532C99.0659 61.8951 98.9774 61.9787 98.9774 62.1041V71.1567C98.9774 71.2821 99.0659 71.3762 99.2479 71.4284C99.4248 71.4702 99.5861 71.4912 99.7266 71.4912H99.893V71.7002H97.5416V71.4912H97.7289C97.8642 71.4912 98.0202 71.4702 98.1867 71.4284C98.3636 71.3762 98.4572 71.2821 98.4572 71.1567V66.1809H93.4007V71.1567C93.4007 71.2821 93.4891 71.3762 93.6712 71.4284C93.848 71.4702 94.0041 71.4912 94.129 71.4912H94.3162V71.7002H91.9648Z" fill="#C8B7A1"/>
<path d="M106.52 71.9095C105.937 71.9095 105.386 71.7684 104.876 71.4914C104.361 71.2144 103.903 70.8328 103.502 70.3415C103.112 69.8398 102.805 69.2857 102.587 68.669C102.363 68.0418 102.254 67.3885 102.254 66.7038C102.254 66.0086 102.363 65.3449 102.587 64.7177C102.805 64.0905 103.112 63.5417 103.502 63.066C103.903 62.58 104.361 62.1984 104.876 61.9162C105.386 61.6392 105.937 61.498 106.52 61.498H106.645C107.238 61.498 107.794 61.6392 108.309 61.9162C108.819 62.1984 109.272 62.5852 109.662 63.0869C110.047 63.5782 110.354 64.1323 110.577 64.7595C110.796 65.3762 110.91 66.0243 110.91 66.7038C110.91 67.3885 110.796 68.0418 110.577 68.669C110.354 69.2962 110.047 69.8554 109.662 70.3415C109.287 70.8328 108.84 71.2144 108.33 71.4914C107.815 71.7684 107.253 71.9095 106.645 71.9095H106.52ZM105.313 71.4077C106.171 71.7684 107.024 71.7684 107.872 71.4077C108.356 71.1726 108.788 70.8171 109.162 70.3415C109.547 69.8554 109.849 69.2962 110.057 68.669C110.276 68.0418 110.39 67.3885 110.39 66.7038C110.39 65.9511 110.255 65.2351 109.995 64.5504C109.729 63.8709 109.376 63.2856 108.934 62.7943C108.486 62.3082 107.982 61.9789 107.415 61.8116C107.274 61.7855 107.134 61.7646 106.998 61.7489C106.858 61.7228 106.717 61.7071 106.582 61.7071C106.442 61.7071 106.301 61.7176 106.166 61.728C106.026 61.7437 105.885 61.7698 105.75 61.8116C105.178 61.9946 104.673 62.3291 104.231 62.8152C103.783 63.3065 103.43 63.8918 103.169 64.5713C102.904 65.2403 102.774 65.9511 102.774 66.7038C102.774 67.3885 102.883 68.0418 103.107 68.669C103.326 69.2962 103.627 69.8554 104.002 70.3415C104.387 70.8171 104.824 71.1726 105.313 71.4077Z" fill="#C8B7A1"/>
<path d="M113.129 71.4906C113.379 71.4906 113.592 71.4644 113.774 71.407C113.951 71.3547 114.044 71.2606 114.044 71.1352V62.0826C114.044 61.9572 113.951 61.8736 113.774 61.8318C113.592 61.7899 113.379 61.769 113.129 61.769V61.5391H116.5C117.083 61.5391 117.603 61.654 118.061 61.8736C118.529 62.0983 118.903 62.4119 119.184 62.8144C119.46 63.222 119.6 63.7133 119.6 64.2987C119.6 64.79 119.486 65.2343 119.268 65.6367C119.044 66.0287 118.747 66.3476 118.373 66.5984C117.998 66.8493 117.572 67.0114 117.103 67.0793C117.462 67.2779 117.78 67.4922 118.061 67.7274C118.352 67.9521 118.56 68.3285 118.685 68.8564C118.737 69.0811 118.81 69.3477 118.893 69.6508C118.976 69.9435 119.085 70.231 119.226 70.508C119.361 70.7902 119.528 71.0254 119.725 71.2188C119.933 71.4017 120.168 71.4906 120.433 71.4906V71.6996H119.621C119.257 71.4226 118.987 71.1352 118.81 70.8425C118.628 70.5393 118.487 70.2101 118.394 69.8599C118.31 69.5149 118.211 69.1386 118.102 68.7309C118.045 68.4957 117.925 68.2605 117.748 68.0201C117.566 67.7692 117.364 67.5601 117.145 67.3929C116.937 67.2256 116.729 67.142 116.521 67.142H114.565V71.1352C114.565 71.2606 114.653 71.3547 114.835 71.407C115.012 71.4644 115.231 71.4906 115.48 71.4906V71.6996H113.129V71.4906ZM116.5 66.933C116.984 66.933 117.416 66.818 117.79 66.5775C118.175 66.3423 118.487 66.0235 118.726 65.6158C118.961 65.2134 119.08 64.7744 119.08 64.2987C119.08 63.8126 118.961 63.3788 118.726 63.0025C118.487 62.6262 118.175 62.3283 117.79 62.1035C117.416 61.884 116.984 61.769 116.5 61.769H115.293C115.168 61.769 115.012 61.7899 114.835 61.8318C114.653 61.8736 114.565 61.9676 114.565 62.1035V66.933H116.5Z" fill="#C8B7A1"/>
<path d="M122.516 71.4906C122.765 71.4906 122.979 71.4644 123.161 71.407C123.338 71.3547 123.431 71.2606 123.431 71.1352V62.0826C123.431 61.9572 123.338 61.8736 123.161 61.8318C122.979 61.7899 122.765 61.769 122.516 61.769V61.5391H125.887C126.469 61.5391 126.99 61.654 127.447 61.8736C127.916 62.0983 128.29 62.4119 128.571 62.8144C128.847 63.222 128.987 63.7133 128.987 64.2987C128.987 64.79 128.873 65.2343 128.654 65.6367C128.431 66.0287 128.134 66.3476 127.759 66.5984C127.385 66.8493 126.958 67.0114 126.49 67.0793C126.849 67.2779 127.166 67.4922 127.447 67.7274C127.739 67.9521 127.947 68.3285 128.072 68.8564C128.124 69.0811 128.196 69.3477 128.28 69.6508C128.363 69.9435 128.472 70.231 128.613 70.508C128.748 70.7902 128.914 71.0254 129.112 71.2188C129.32 71.4017 129.554 71.4906 129.82 71.4906V71.6996H129.008C128.644 71.4226 128.373 71.1352 128.196 70.8425C128.014 70.5393 127.874 70.2101 127.78 69.8599C127.697 69.5149 127.598 69.1386 127.489 68.7309C127.432 68.4957 127.312 68.2605 127.135 68.0201C126.953 67.7692 126.75 67.5601 126.532 67.3929C126.324 67.2256 126.116 67.142 125.907 67.142H123.951V71.1352C123.951 71.2606 124.04 71.3547 124.222 71.407C124.399 71.4644 124.617 71.4906 124.867 71.4906V71.6996H122.516V71.4906ZM125.887 66.933C126.37 66.933 126.802 66.818 127.177 66.5775C127.562 66.3423 127.874 66.0235 128.113 65.6158C128.347 65.2134 128.467 64.7744 128.467 64.2987C128.467 63.8126 128.347 63.3788 128.113 63.0025C127.874 62.6262 127.562 62.3283 127.177 62.1035C126.802 61.884 126.37 61.769 125.887 61.769H124.68C124.555 61.769 124.399 61.7899 124.222 61.8318C124.04 61.8736 123.951 61.9676 123.951 62.1035V66.933H125.887Z" fill="#C8B7A1"/>
<path d="M131.902 71.4912H132.09C132.214 71.4912 132.365 71.4702 132.547 71.4284C132.724 71.3762 132.818 71.2821 132.818 71.1567V62.1041C132.818 61.9787 132.724 61.8951 132.547 61.8532C132.365 61.801 132.214 61.7696 132.09 61.7696H131.902V61.5605H134.254V61.7696H134.066C133.942 61.7696 133.786 61.801 133.609 61.8532C133.427 61.8951 133.338 61.9787 133.338 62.1041V71.1567C133.338 71.2821 133.427 71.3762 133.609 71.4284C133.786 71.4702 133.942 71.4912 134.066 71.4912H134.254V71.7002H131.902V71.4912Z" fill="#C8B7A1"/>
<path d="M136.617 71.4906H136.804C136.929 71.4801 137.08 71.4488 137.262 71.407C137.439 71.3547 137.533 71.2606 137.533 71.1352V62.1035C137.533 62.0199 137.481 61.952 137.387 61.8945C137.304 61.8422 137.2 61.8056 137.075 61.7899C136.95 61.7795 136.836 61.769 136.742 61.769C136.659 61.7586 136.617 61.7481 136.617 61.7481V61.5391H138.948V61.7481C138.948 61.7481 138.896 61.7586 138.802 61.769C138.719 61.769 138.615 61.7795 138.49 61.7899C138.365 61.8056 138.251 61.8422 138.157 61.8945C138.074 61.952 138.032 62.0199 138.032 62.1035V71.4906H141.736C141.887 71.4906 142.017 71.4435 142.132 71.3442C142.256 71.2345 142.36 71.1247 142.444 71.0097C142.537 70.8843 142.595 70.8163 142.61 70.8007V70.7798H142.839L142.277 71.6996H136.617V71.4906Z" fill="#C8B7A1"/>
<path d="M145.062 71.4906H145.25C145.375 71.4801 145.525 71.4488 145.708 71.407C145.884 71.3547 145.978 71.2606 145.978 71.1352V62.1035C145.978 62.0199 145.926 61.952 145.832 61.8945C145.749 61.8422 145.645 61.8056 145.52 61.7899C145.395 61.7795 145.281 61.769 145.187 61.769C145.104 61.7586 145.062 61.7481 145.062 61.7481V61.5391H147.393V61.7481C147.393 61.7481 147.341 61.7586 147.247 61.769C147.164 61.769 147.06 61.7795 146.935 61.7899C146.81 61.8056 146.696 61.8422 146.602 61.8945C146.519 61.952 146.478 62.0199 146.478 62.1035V71.4906H150.181C150.332 71.4906 150.462 71.4435 150.577 71.3442C150.702 71.2345 150.806 71.1247 150.889 71.0097C150.983 70.8843 151.04 70.8163 151.055 70.8007V70.7798H151.284L150.723 71.6996H145.062V71.4906Z" fill="#C8B7A1"/>
<path d="M156.774 71.9095C156.191 71.9095 155.64 71.7684 155.13 71.4914C154.615 71.2144 154.157 70.8328 153.756 70.3415C153.366 69.8398 153.059 69.2857 152.841 68.669C152.617 68.0418 152.508 67.3885 152.508 66.7038C152.508 66.0086 152.617 65.3449 152.841 64.7177C153.059 64.0905 153.366 63.5417 153.756 63.066C154.157 62.58 154.615 62.1984 155.13 61.9162C155.64 61.6392 156.191 61.498 156.774 61.498H156.898C157.492 61.498 158.048 61.6392 158.563 61.9162C159.073 62.1984 159.526 62.5852 159.916 63.0869C160.301 63.5782 160.608 64.1323 160.831 64.7595C161.05 65.3762 161.164 66.0243 161.164 66.7038C161.164 67.3885 161.05 68.0418 160.831 68.669C160.608 69.2962 160.301 69.8554 159.916 70.3415C159.541 70.8328 159.094 71.2144 158.584 71.4914C158.069 71.7684 157.507 71.9095 156.898 71.9095H156.774ZM155.567 71.4077C156.425 71.7684 157.278 71.7684 158.126 71.4077C158.61 71.1726 159.042 70.8171 159.416 70.3415C159.801 69.8554 160.103 69.2962 160.311 68.669C160.53 68.0418 160.644 67.3885 160.644 66.7038C160.644 65.9511 160.509 65.2351 160.249 64.5504C159.983 63.8709 159.63 63.2856 159.187 62.7943C158.74 62.3082 158.235 61.9789 157.668 61.8116C157.528 61.7855 157.387 61.7646 157.252 61.7489C157.112 61.7228 156.971 61.7071 156.836 61.7071C156.696 61.7071 156.555 61.7176 156.42 61.728C156.279 61.7437 156.139 61.7698 156.004 61.8116C155.431 61.9946 154.927 62.3291 154.485 62.8152C154.037 63.3065 153.684 63.8918 153.423 64.5713C153.158 65.2403 153.028 65.9511 153.028 66.7038C153.028 67.3885 153.137 68.0418 153.361 68.669C153.579 69.2962 153.881 69.8554 154.256 70.3415C154.641 70.8171 155.078 71.1726 155.567 71.4077Z" fill="#C8B7A1"/>
<path d="M164.938 71.3651C164.616 71.1874 164.345 71.0306 164.127 70.9052C163.903 70.7693 163.794 70.6909 163.794 70.6752L163.523 69.5881V69.5672L163.711 69.4835C163.903 69.8494 164.127 70.1839 164.377 70.4871C164.637 70.7798 164.923 71.0254 165.23 71.2188C165.646 71.4697 166.093 71.616 166.582 71.6578C167.082 71.6996 167.54 71.6317 167.956 71.4488C168.382 71.2397 168.731 70.9366 168.996 70.5289C169.256 70.1264 169.392 69.7135 169.392 69.2954C169.392 68.9086 169.246 68.5532 168.955 68.2292C168.674 67.8947 168.335 67.6333 167.935 67.4347L165.479 66.3058C165.063 66.0862 164.72 65.7726 164.46 65.365C164.21 64.9625 164.085 64.5287 164.085 64.0688V63.9224C164.111 63.4363 164.241 63.0182 164.481 62.668C164.73 62.3074 165.053 62.0304 165.459 61.8318C165.875 61.6384 166.338 61.5391 166.853 61.5391C167.071 61.5391 167.295 61.5809 167.519 61.6645C167.753 61.7377 167.977 61.8265 168.185 61.9363C168.211 61.952 168.237 61.9729 168.268 61.999C168.309 62.0147 168.351 62.0304 168.393 62.0408C168.668 62.1663 168.903 62.2917 169.1 62.4171C169.308 62.5426 169.412 62.6158 169.412 62.6262L169.6 63.3579L169.412 63.4625C169.105 62.9503 168.726 62.5426 168.268 62.2499C167.82 61.9572 167.352 61.8004 166.853 61.769C166.489 61.769 166.125 61.8683 165.75 62.0617C165.386 62.2603 165.084 62.5217 164.834 62.8562C164.595 63.1907 164.465 63.5565 164.439 63.9433V64.0478C164.439 64.4242 164.564 64.7744 164.814 65.0932C165.074 65.4172 165.381 65.6681 165.729 65.8458L168.205 66.9957C168.705 67.2361 169.09 67.5601 169.371 67.9783C169.646 68.386 169.787 68.825 169.787 69.2954C169.787 69.7867 169.646 70.231 169.371 70.6334C169.09 71.0254 168.731 71.3338 168.289 71.5533C167.732 71.8146 167.165 71.9192 166.582 71.8669C166 71.8251 165.448 71.6578 164.938 71.3651Z" fill="#C8B7A1"/>
<path d="M87.8127 110.171C87.2144 110.171 86.6578 110.035 86.148 109.773C85.633 109.496 85.1804 109.12 84.7954 108.644C84.4052 108.174 84.0983 107.62 83.8798 106.993C83.6561 106.355 83.5469 105.676 83.5469 104.965C83.5469 104.244 83.6561 103.564 83.8798 102.937C84.0983 102.299 84.4052 101.74 84.7954 101.264C85.1804 100.794 85.633 100.423 86.148 100.156C86.6578 99.8794 87.2144 99.7383 87.8127 99.7383C88.4214 99.7383 88.9988 99.8742 89.5398 100.136L89.4982 100.115C89.7583 100.23 90.0028 100.355 90.2265 100.491C90.4606 100.616 90.6479 100.721 90.7884 100.805C90.9236 100.888 90.9964 100.93 90.9964 100.93L91.2253 101.892L91.0381 101.996C90.8404 101.552 90.5699 101.176 90.2265 100.867C89.878 100.564 89.4982 100.334 89.082 100.177C88.6659 100.026 88.2393 99.9473 87.8127 99.9473C87.2977 99.9473 86.8139 100.088 86.3561 100.365C85.9087 100.648 85.5133 101.024 85.17 101.494C84.8214 101.97 84.5509 102.508 84.3584 103.104C84.1607 103.69 84.0671 104.312 84.0671 104.965C84.0671 105.582 84.1555 106.172 84.3376 106.742C84.5145 107.301 84.759 107.808 85.0659 108.268C85.3833 108.728 85.7526 109.104 86.1688 109.397C86.585 109.69 87.0324 109.873 87.5214 109.941C87.563 109.956 87.6098 109.962 87.667 109.962C87.7191 109.962 87.7711 109.962 87.8127 109.962C88.489 109.962 89.1289 109.763 89.7271 109.355C90.3202 108.937 90.8092 108.373 91.1837 107.662L91.371 107.766L91.1005 108.874C91.1005 108.874 91.0173 108.932 90.8508 109.042C90.6947 109.141 90.4866 109.261 90.2265 109.397C89.9612 109.538 89.6699 109.679 89.3525 109.815H89.3734C88.8843 110.05 88.3641 110.171 87.8127 110.171Z" fill="#C8B7A1"/>
<path d="M99.6649 109.082H99.9146L99.3528 109.981H93.7344V109.772H93.9217C94.0465 109.772 94.1974 109.751 94.3794 109.709C94.5563 109.657 94.65 109.563 94.65 109.437V100.385C94.65 100.301 94.5979 100.238 94.5043 100.197C94.4211 100.144 94.317 100.108 94.1922 100.092C94.0673 100.066 93.9529 100.05 93.8592 100.05C93.776 100.05 93.7344 100.05 93.7344 100.05V99.8203H99.2695V100.698H99.1655C99.1499 100.688 99.1083 100.625 99.0406 100.51C98.9678 100.4 98.8846 100.296 98.7909 100.197C98.7077 100.103 98.6089 100.05 98.4996 100.05H95.1494V104.232H98.5204C98.6036 104.232 98.6713 104.179 98.7285 104.064C98.7961 103.955 98.8325 103.897 98.8325 103.897H98.9366V104.796H98.8325C98.8325 104.796 98.7961 104.744 98.7285 104.629C98.6713 104.519 98.6036 104.462 98.5204 104.462H95.1494V109.772H98.8117C98.9626 109.772 99.0927 109.725 99.2071 109.625C99.332 109.516 99.436 109.406 99.5192 109.291C99.6129 109.181 99.6649 109.113 99.6649 109.082Z" fill="#C8B7A1"/>
<path d="M102.277 109.772C102.527 109.772 102.74 109.746 102.922 109.688C103.099 109.636 103.193 109.542 103.193 109.416V100.364C103.193 100.238 103.099 100.155 102.922 100.113C102.74 100.071 102.527 100.05 102.277 100.05V99.8203H105.648C106.231 99.8203 106.751 99.9353 107.209 100.155C107.677 100.38 108.052 100.693 108.333 101.096C108.608 101.503 108.749 101.995 108.749 102.58C108.749 103.071 108.634 103.516 108.416 103.918C108.192 104.31 107.896 104.629 107.521 104.88C107.147 105.131 106.72 105.293 106.252 105.361C106.611 105.559 106.928 105.773 107.209 106.009C107.5 106.233 107.708 106.61 107.833 107.138C107.885 107.362 107.958 107.629 108.041 107.932C108.125 108.225 108.234 108.512 108.374 108.789C108.51 109.071 108.676 109.307 108.874 109.5C109.082 109.683 109.316 109.772 109.581 109.772V109.981H108.77C108.406 109.704 108.135 109.416 107.958 109.124C107.776 108.821 107.636 108.491 107.542 108.141C107.459 107.796 107.36 107.42 107.251 107.012C107.193 106.777 107.074 106.542 106.897 106.301C106.715 106.05 106.512 105.841 106.293 105.674C106.085 105.507 105.877 105.423 105.669 105.423H103.713V109.416C103.713 109.542 103.802 109.636 103.984 109.688C104.161 109.746 104.379 109.772 104.629 109.772V109.981H102.277V109.772ZM105.648 105.214C106.132 105.214 106.564 105.099 106.939 104.859C107.323 104.624 107.636 104.305 107.875 103.897C108.109 103.495 108.229 103.056 108.229 102.58C108.229 102.094 108.109 101.66 107.875 101.284C107.636 100.907 107.323 100.61 106.939 100.385C106.564 100.165 106.132 100.05 105.648 100.05H104.441C104.317 100.05 104.161 100.071 103.984 100.113C103.802 100.155 103.713 100.249 103.713 100.385V105.214H105.648Z" fill="#C8B7A1"/>
<path d="M117.739 109.082H117.989L117.427 109.981H111.809V109.772H111.996C112.121 109.772 112.272 109.751 112.454 109.709C112.631 109.657 112.724 109.563 112.724 109.437V100.385C112.724 100.301 112.672 100.238 112.579 100.197C112.495 100.144 112.391 100.108 112.266 100.092C112.142 100.066 112.027 100.05 111.933 100.05C111.85 100.05 111.809 100.05 111.809 100.05V99.8203H117.344V100.698H117.24C117.224 100.688 117.182 100.625 117.115 100.51C117.042 100.4 116.959 100.296 116.865 100.197C116.782 100.103 116.683 100.05 116.574 100.05H113.224V104.232H116.595C116.678 104.232 116.745 104.179 116.803 104.064C116.87 103.955 116.907 103.897 116.907 103.897H117.011V104.796H116.907C116.907 104.796 116.87 104.744 116.803 104.629C116.745 104.519 116.678 104.462 116.595 104.462H113.224V109.772H116.886C117.037 109.772 117.167 109.725 117.281 109.625C117.406 109.516 117.51 109.406 117.593 109.291C117.687 109.181 117.739 109.113 117.739 109.082Z" fill="#C8B7A1"/>
<path d="M120.355 109.772C120.605 109.772 120.818 109.751 121.001 109.709C121.177 109.657 121.271 109.563 121.271 109.437V100.364C121.271 100.238 121.177 100.155 121.001 100.113C120.818 100.061 120.605 100.029 120.355 100.029V99.8203H121.833L125.516 108.998L129.137 99.8203H130.635V100.029C130.385 100.029 130.167 100.061 129.99 100.113C129.808 100.155 129.719 100.238 129.719 100.364V109.437C129.719 109.563 129.808 109.657 129.99 109.709C130.167 109.751 130.385 109.772 130.635 109.772V109.981H128.284V109.772C128.533 109.772 128.747 109.751 128.929 109.709C129.106 109.657 129.199 109.563 129.199 109.437V100.259L125.37 109.918H125.329L121.479 100.322V109.437C121.479 109.563 121.568 109.657 121.75 109.709C121.927 109.751 122.145 109.772 122.395 109.772V109.981H120.355V109.772Z" fill="#C8B7A1"/>
<path d="M137.25 110.191C136.668 110.191 136.116 110.05 135.606 109.773C135.091 109.496 134.633 109.114 134.233 108.623C133.843 108.121 133.536 107.567 133.317 106.95C133.094 106.323 132.984 105.67 132.984 104.985C132.984 104.29 133.094 103.626 133.317 102.999C133.536 102.372 133.843 101.823 134.233 101.347C134.633 100.861 135.091 100.48 135.606 100.197C136.116 99.9204 136.668 99.7793 137.25 99.7793H137.375C137.968 99.7793 138.525 99.9204 139.04 100.197C139.55 100.48 140.002 100.866 140.392 101.368C140.777 101.859 141.084 102.414 141.308 103.041C141.526 103.657 141.641 104.306 141.641 104.985C141.641 105.67 141.526 106.323 141.308 106.95C141.084 107.577 140.777 108.137 140.392 108.623C140.018 109.114 139.57 109.496 139.061 109.773C138.546 110.05 137.984 110.191 137.375 110.191H137.25ZM136.043 109.689C136.902 110.05 137.755 110.05 138.603 109.689C139.087 109.454 139.518 109.098 139.893 108.623C140.278 108.137 140.58 107.577 140.788 106.95C141.006 106.323 141.121 105.67 141.121 104.985C141.121 104.232 140.985 103.516 140.725 102.832C140.46 102.152 140.106 101.567 139.664 101.076C139.217 100.589 138.712 100.26 138.145 100.093C138.005 100.067 137.864 100.046 137.729 100.03C137.588 100.004 137.448 99.9884 137.313 99.9884C137.172 99.9884 137.032 99.9988 136.896 100.009C136.756 100.025 136.616 100.051 136.48 100.093C135.908 100.276 135.403 100.61 134.961 101.096C134.514 101.588 134.16 102.173 133.9 102.853C133.635 103.522 133.505 104.232 133.505 104.985C133.505 105.67 133.614 106.323 133.838 106.95C134.056 107.577 134.358 108.137 134.732 108.623C135.117 109.098 135.554 109.454 136.043 109.689Z" fill="#C8B7A1"/>
<path d="M143.859 109.772C144.109 109.772 144.322 109.751 144.504 109.709C144.681 109.657 144.775 109.563 144.775 109.437V100.364C144.775 100.238 144.681 100.155 144.504 100.113C144.322 100.061 144.109 100.029 143.859 100.029V99.8203H145.274L151.08 108.956V100.364C151.08 100.238 150.981 100.155 150.789 100.113C150.607 100.061 150.399 100.029 150.164 100.029V99.8203H152.183V100.029C151.933 100.029 151.715 100.061 151.538 100.113C151.356 100.155 151.267 100.238 151.267 100.364V109.981H151.08L144.983 100.301V109.437C144.983 109.563 145.071 109.657 145.254 109.709C145.43 109.751 145.649 109.772 145.899 109.772V109.981H143.859V109.772Z" fill="#C8B7A1"/>
<path d="M154.543 109.772H154.73C154.855 109.772 155.006 109.751 155.188 109.71C155.365 109.657 155.459 109.563 155.459 109.438V100.385C155.459 100.26 155.365 100.176 155.188 100.134C155.006 100.082 154.855 100.051 154.73 100.051H154.543V99.8418H156.894V100.051H156.707C156.582 100.051 156.426 100.082 156.249 100.134C156.067 100.176 155.979 100.26 155.979 100.385V109.438C155.979 109.563 156.067 109.657 156.249 109.71C156.426 109.751 156.582 109.772 156.707 109.772H156.894V109.981H154.543V109.772Z" fill="#C8B7A1"/>
<path d="M158.402 109.772C158.61 109.772 158.819 109.761 159.027 109.73C159.245 109.704 159.391 109.615 159.464 109.458L163.168 99.8203H163.376V99.8412L167.1 109.479C167.184 109.605 167.309 109.688 167.475 109.73C167.641 109.761 167.829 109.772 168.037 109.772V109.981H165.706V109.772C165.925 109.772 166.133 109.751 166.331 109.709C166.523 109.667 166.591 109.578 166.539 109.437L165.061 105.591H161.17L159.672 109.437H159.692C159.651 109.537 159.682 109.615 159.797 109.667C159.921 109.709 160.072 109.74 160.254 109.751C160.431 109.767 160.598 109.772 160.754 109.772V109.981H158.402V109.772ZM164.978 105.381L163.105 100.552L161.253 105.381H164.978Z" fill="#C8B7A1"/>
<path d="M97 128.913C97 128.652 97.0312 128.37 97.104 128.077C97.1873 127.784 97.2809 127.492 97.3954 127.199C97.5202 126.906 97.6451 126.65 97.7699 126.425C97.9624 126.08 98.2485 125.756 98.6231 125.464C98.9977 125.171 99.3982 124.878 99.83 124.586C100.272 124.293 100.688 123.99 101.079 123.666C101.479 123.347 101.807 122.997 102.057 122.62C102.306 122.244 102.431 121.821 102.431 121.345C102.431 120.969 102.317 120.613 102.098 120.279C101.874 119.944 101.578 119.673 101.203 119.463C100.839 119.254 100.433 119.15 99.9757 119.15C99.5855 119.15 99.2265 119.234 98.8936 119.401C98.5711 119.568 98.2797 119.793 98.0196 120.07C97.7699 120.336 97.567 120.634 97.4162 120.969L97.2289 120.885C97.2289 120.875 97.2341 120.864 97.2497 120.864H97.2289L97.4578 119.923C97.926 119.62 98.363 119.375 98.7688 119.192C99.1693 119.014 99.5699 118.92 99.9757 118.92C100.517 118.92 101.006 119.024 101.453 119.234C101.911 119.443 102.27 119.73 102.535 120.091C102.811 120.457 102.951 120.875 102.951 121.345C102.951 121.889 102.852 122.364 102.66 122.767C102.478 123.159 102.228 123.498 101.911 123.791C101.588 124.073 101.235 124.335 100.85 124.586C100.459 124.826 100.069 125.066 99.6843 125.317C99.2942 125.558 98.9248 125.83 98.5815 126.133C98.2329 126.425 97.9416 126.776 97.7075 127.178C97.4838 127.57 97.3433 128.046 97.2913 128.6H102.119C102.27 128.6 102.421 128.532 102.577 128.391C102.728 128.255 102.868 128.077 102.993 127.868H103.222L102.473 129.122H97V128.913Z" fill="#C8B7A1"/>
<path d="M106.046 124.273C105.906 124.273 105.786 124.226 105.693 124.127C105.594 124.033 105.547 123.912 105.547 123.771C105.547 123.635 105.594 123.515 105.693 123.416C105.786 123.322 105.906 123.27 106.046 123.27C106.197 123.27 106.317 123.322 106.4 123.416C106.494 123.515 106.546 123.635 106.546 123.771C106.546 123.912 106.494 124.033 106.4 124.127C106.317 124.226 106.197 124.273 106.046 124.273ZM106.046 129.207C105.906 129.207 105.786 129.155 105.693 129.061C105.594 128.967 105.547 128.846 105.547 128.705C105.547 128.569 105.594 128.449 105.693 128.35C105.786 128.24 105.906 128.183 106.046 128.183C106.197 128.183 106.317 128.24 106.4 128.35C106.494 128.449 106.546 128.569 106.546 128.705C106.546 128.846 106.494 128.967 106.4 129.061C106.317 129.155 106.197 129.207 106.046 129.207Z" fill="#C8B7A1"/>
<path d="M112.517 129.311C111.851 129.311 111.237 129.176 110.685 128.914C110.144 128.653 109.583 128.266 109 127.764L108.875 126.803L109.083 126.719C109.218 127.169 109.478 127.571 109.853 127.932C110.228 128.298 110.649 128.58 111.122 128.789C111.606 128.998 112.069 129.102 112.517 129.102C113.084 129.102 113.599 128.977 114.056 128.726C114.525 128.465 114.899 128.12 115.18 127.702C115.456 127.284 115.596 126.845 115.596 126.385C115.596 125.898 115.456 125.454 115.18 125.047C114.899 124.628 114.525 124.294 114.056 124.043C113.599 123.782 113.084 123.646 112.517 123.646H112.142V123.437H112.35C112.808 123.437 113.224 123.332 113.599 123.123C113.973 122.914 114.27 122.642 114.493 122.308C114.712 121.973 114.826 121.613 114.826 121.221C114.826 120.844 114.712 120.489 114.493 120.154C114.27 119.82 113.973 119.548 113.599 119.339C113.224 119.12 112.808 119.005 112.35 119.005C111.976 119.005 111.622 119.099 111.289 119.276C110.956 119.444 110.665 119.668 110.415 119.945C110.165 120.228 109.962 120.531 109.811 120.865L109.645 120.74L109.874 119.799C110.259 119.548 110.649 119.329 111.039 119.13C111.424 118.921 111.861 118.816 112.35 118.816C112.902 118.816 113.401 118.921 113.848 119.13C114.306 119.329 114.665 119.606 114.93 119.966C115.206 120.332 115.347 120.75 115.347 121.221C115.347 121.78 115.159 122.261 114.785 122.663C114.41 123.071 113.921 123.353 113.328 123.52C113.854 123.604 114.327 123.787 114.743 124.064C115.17 124.331 115.503 124.665 115.742 125.067C115.992 125.459 116.116 125.898 116.116 126.385C116.116 126.944 115.95 127.446 115.617 127.89C115.295 128.339 114.868 128.684 114.327 128.935C113.786 129.186 113.182 129.311 112.517 129.311Z" fill="#C8B7A1"/>
<path d="M122.451 129.249C121.894 129.249 121.374 129.118 120.89 128.852C120.417 128.59 120.001 128.219 119.642 127.744C119.278 127.273 118.997 126.714 118.789 126.071C118.581 125.434 118.477 124.744 118.477 124.001C118.477 123.249 118.581 122.559 118.789 121.932C118.997 121.294 119.278 120.735 119.642 120.259C120.001 119.789 120.417 119.418 120.89 119.151C121.374 118.89 121.894 118.754 122.451 118.754C122.992 118.754 123.497 118.89 123.97 119.151C124.454 119.418 124.875 119.789 125.239 120.259C125.598 120.735 125.885 121.294 126.093 121.932C126.301 122.559 126.405 123.249 126.405 124.001C126.405 124.744 126.301 125.434 126.093 126.071C125.885 126.714 125.598 127.273 125.239 127.744C124.875 128.219 124.454 128.59 123.97 128.852C123.497 129.118 122.992 129.249 122.451 129.249ZM122.451 129.04C122.919 129.04 123.367 128.909 123.783 128.643C124.199 128.366 124.563 127.995 124.886 127.535C125.203 127.064 125.448 126.526 125.614 125.925C125.791 125.313 125.885 124.67 125.885 124.001C125.885 123.322 125.791 122.679 125.614 122.078C125.448 121.467 125.203 120.928 124.886 120.468C124.563 119.998 124.199 119.627 123.783 119.36C123.367 119.099 122.919 118.963 122.451 118.963C121.962 118.963 121.515 119.099 121.098 119.36C120.693 119.627 120.334 119.998 120.016 120.468C119.694 120.928 119.444 121.467 119.267 122.078C119.085 122.679 118.997 123.322 118.997 124.001C118.997 124.67 119.085 125.313 119.267 125.925C119.444 126.526 119.694 127.064 120.016 127.535C120.334 127.995 120.693 128.366 121.098 128.643C121.515 128.909 121.962 129.04 122.451 129.04Z" fill="#C8B7A1"/>
<path d="M135.426 128.913H135.613C135.748 128.903 135.904 128.871 136.071 128.829C136.248 128.788 136.341 128.704 136.341 128.579V119.526C136.341 119.39 136.248 119.296 136.071 119.254C135.904 119.212 135.748 119.191 135.613 119.191H135.426V118.982H138.797C139.379 118.982 139.9 119.108 140.357 119.359C140.826 119.61 141.2 119.96 141.481 120.404C141.757 120.854 141.897 121.361 141.897 121.93C141.897 122.489 141.757 122.996 141.481 123.456C141.2 123.906 140.826 124.251 140.357 124.502C139.9 124.753 139.379 124.878 138.797 124.878H136.862V128.579C136.862 128.704 136.95 128.788 137.132 128.829C137.309 128.871 137.465 128.903 137.59 128.913H137.777V129.122H135.426V128.913ZM138.797 124.669C139.281 124.669 139.712 124.544 140.087 124.293C140.472 124.031 140.784 123.686 141.023 123.268C141.257 122.84 141.377 122.39 141.377 121.93C141.377 121.444 141.257 121 141.023 120.592C140.784 120.174 140.472 119.84 140.087 119.589C139.712 119.327 139.281 119.191 138.797 119.191H137.59C137.465 119.191 137.309 119.212 137.132 119.254C136.95 119.296 136.862 119.39 136.862 119.526V124.669H138.797Z" fill="#C8B7A1"/>
<path d="M144.254 128.912C144.504 128.912 144.717 128.892 144.899 128.85C145.076 128.797 145.169 128.703 145.169 128.578V119.505C145.169 119.379 145.076 119.295 144.899 119.254C144.717 119.201 144.504 119.17 144.254 119.17V118.961H145.731L149.415 128.139L153.035 118.961H154.533V119.17C154.284 119.17 154.065 119.201 153.888 119.254C153.706 119.295 153.618 119.379 153.618 119.505V128.578C153.618 128.703 153.706 128.797 153.888 128.85C154.065 128.892 154.284 128.912 154.533 128.912V129.122H152.182V128.912C152.432 128.912 152.645 128.892 152.827 128.85C153.004 128.797 153.098 128.703 153.098 128.578V119.4L149.269 129.059H149.227L145.378 119.463V128.578C145.378 128.703 145.466 128.797 145.648 128.85C145.825 128.892 146.043 128.912 146.293 128.912V129.122H144.254V128.912Z" fill="#C8B7A1"/>
<path d="M86.0586 167.196C86.3083 167.196 86.5216 167.17 86.7037 167.112C86.8805 167.06 86.9742 166.966 86.9742 166.84V157.788C86.9742 157.662 86.8805 157.579 86.7037 157.537C86.5216 157.495 86.3083 157.474 86.0586 157.474V157.244H89.4296C90.0123 157.244 90.5325 157.359 90.9903 157.579C91.4585 157.803 91.8331 158.117 92.114 158.519C92.3897 158.927 92.5302 159.418 92.5302 160.004C92.5302 160.495 92.4157 160.939 92.1972 161.342C91.9735 161.734 91.677 162.053 91.3024 162.304C90.9279 162.554 90.5013 162.716 90.0331 162.784C90.392 162.983 90.7094 163.197 90.9903 163.432C91.2816 163.657 91.4897 164.034 91.6146 164.561C91.6666 164.786 91.7394 165.053 91.8226 165.356C91.9059 165.649 92.0151 165.936 92.1556 166.213C92.2908 166.495 92.4573 166.73 92.655 166.924C92.8631 167.107 93.0972 167.196 93.3625 167.196V167.405H92.551C92.1868 167.128 91.9163 166.84 91.7394 166.548C91.5573 166.244 91.4169 165.915 91.3232 165.565C91.24 165.22 91.1412 164.844 91.0319 164.436C90.9747 164.201 90.855 163.966 90.6782 163.725C90.4961 163.474 90.2932 163.265 90.0747 163.098C89.8666 162.931 89.6585 162.847 89.4504 162.847H87.4944V166.84C87.4944 166.966 87.5828 167.06 87.7649 167.112C87.9418 167.17 88.1603 167.196 88.41 167.196V167.405H86.0586V167.196ZM89.4296 162.638C89.9134 162.638 90.3452 162.523 90.7198 162.283C91.1047 162.047 91.4169 161.729 91.6562 161.321C91.8903 160.918 92.0099 160.479 92.0099 160.004C92.0099 159.518 91.8903 159.084 91.6562 158.708C91.4169 158.331 91.1047 158.033 90.7198 157.809C90.3452 157.589 89.9134 157.474 89.4296 157.474H88.2227C88.0979 157.474 87.9418 157.495 87.7649 157.537C87.5828 157.579 87.4944 157.673 87.4944 157.809V162.638H89.4296Z" fill="#C8B7A1"/>
<path d="M101.516 166.506H101.766L101.204 167.405H95.5859V167.196H95.7732C95.8981 167.196 96.0489 167.175 96.231 167.133C96.4079 167.081 96.5015 166.987 96.5015 166.861V157.809C96.5015 157.725 96.4495 157.662 96.3559 157.62C96.2726 157.568 96.1686 157.532 96.0437 157.516C95.9189 157.49 95.8044 157.474 95.7108 157.474C95.6276 157.474 95.5859 157.474 95.5859 157.474V157.244H101.121V158.122H101.017C101.001 158.112 100.96 158.049 100.892 157.934C100.819 157.824 100.736 157.72 100.642 157.62C100.559 157.526 100.46 157.474 100.351 157.474H97.0009V161.655H100.372C100.455 161.655 100.523 161.603 100.58 161.488C100.648 161.378 100.684 161.321 100.684 161.321H100.788V162.22H100.684C100.684 162.22 100.648 162.168 100.58 162.053C100.523 161.943 100.455 161.885 100.372 161.885H97.0009V167.196H100.663C100.814 167.196 100.944 167.149 101.059 167.049C101.184 166.94 101.288 166.83 101.371 166.715C101.464 166.605 101.516 166.537 101.516 166.506Z" fill="#C8B7A1"/>
<path d="M108.258 167.593C107.66 167.593 107.103 167.457 106.593 167.195C106.078 166.918 105.626 166.542 105.241 166.066C104.851 165.596 104.544 165.042 104.325 164.415C104.101 163.777 103.992 163.098 103.992 162.387C103.992 161.666 104.101 160.986 104.325 160.359C104.544 159.721 104.851 159.162 105.241 158.686C105.626 158.216 106.078 157.845 106.593 157.578C107.103 157.301 107.66 157.16 108.258 157.16C108.867 157.16 109.444 157.296 109.985 157.557L109.944 157.536C110.204 157.651 110.448 157.777 110.672 157.913C110.906 158.038 111.093 158.143 111.234 158.226C111.369 158.31 111.442 158.352 111.442 158.352L111.671 159.314L111.483 159.418C111.286 158.974 111.015 158.597 110.672 158.289C110.323 157.986 109.944 157.756 109.527 157.599C109.111 157.448 108.685 157.369 108.258 157.369C107.743 157.369 107.259 157.51 106.801 157.787C106.354 158.07 105.959 158.446 105.615 158.916C105.267 159.392 104.996 159.93 104.804 160.526C104.606 161.111 104.512 161.733 104.512 162.387C104.512 163.004 104.601 163.594 104.783 164.164C104.96 164.723 105.204 165.23 105.511 165.69C105.829 166.15 106.198 166.526 106.614 166.819C107.03 167.112 107.478 167.295 107.967 167.363C108.008 167.378 108.055 167.383 108.112 167.383C108.164 167.383 108.216 167.383 108.258 167.383C108.934 167.383 109.574 167.185 110.172 166.777C110.765 166.359 111.254 165.795 111.629 165.084L111.816 165.188L111.546 166.296C111.546 166.296 111.463 166.354 111.296 166.464C111.14 166.563 110.932 166.683 110.672 166.819C110.407 166.96 110.115 167.101 109.798 167.237H109.819C109.33 167.472 108.809 167.593 108.258 167.593Z" fill="#C8B7A1"/>
<path d="M120.11 166.506H120.36L119.798 167.405H114.18V167.196H114.367C114.492 167.196 114.643 167.175 114.825 167.133C115.002 167.081 115.095 166.987 115.095 166.861V157.809C115.095 157.725 115.043 157.662 114.95 157.62C114.866 157.568 114.762 157.532 114.637 157.516C114.513 157.49 114.398 157.474 114.305 157.474C114.221 157.474 114.18 157.474 114.18 157.474V157.244H119.715V158.122H119.611C119.595 158.112 119.554 158.049 119.486 157.934C119.413 157.824 119.33 157.72 119.236 157.62C119.153 157.526 119.054 157.474 118.945 157.474H115.595V161.655H118.966C119.049 161.655 119.117 161.603 119.174 161.488C119.241 161.378 119.278 161.321 119.278 161.321H119.382V162.22H119.278C119.278 162.22 119.241 162.168 119.174 162.053C119.117 161.943 119.049 161.885 118.966 161.885H115.595V167.196H119.257C119.408 167.196 119.538 167.149 119.652 167.049C119.777 166.94 119.881 166.83 119.965 166.715C120.058 166.605 120.11 166.537 120.11 166.506Z" fill="#C8B7A1"/>
<path d="M122.723 167.194H122.91C123.045 167.184 123.201 167.152 123.368 167.111C123.545 167.069 123.638 166.985 123.638 166.86V157.807C123.638 157.671 123.545 157.577 123.368 157.535C123.201 157.494 123.045 157.473 122.91 157.473H122.723V157.264H126.094C126.676 157.264 127.197 157.389 127.654 157.64C128.123 157.891 128.497 158.241 128.778 158.685C129.054 159.135 129.194 159.642 129.194 160.211C129.194 160.771 129.054 161.278 128.778 161.738C128.497 162.187 128.123 162.532 127.654 162.783C127.197 163.034 126.676 163.159 126.094 163.159H124.158V166.86C124.158 166.985 124.247 167.069 124.429 167.111C124.606 167.152 124.762 167.184 124.887 167.194H125.074V167.403H122.723V167.194ZM126.094 162.95C126.577 162.95 127.009 162.825 127.384 162.574C127.769 162.313 128.081 161.968 128.32 161.55C128.554 161.121 128.674 160.671 128.674 160.211C128.674 159.725 128.554 159.281 128.32 158.873C128.081 158.455 127.769 158.121 127.384 157.87C127.009 157.609 126.577 157.473 126.094 157.473H124.887C124.762 157.473 124.606 157.494 124.429 157.535C124.247 157.577 124.158 157.671 124.158 157.807V162.95H126.094Z" fill="#C8B7A1"/>
<path d="M135.672 167.593C135.074 167.593 134.517 167.457 134.007 167.195C133.492 166.918 133.04 166.542 132.655 166.066C132.265 165.596 131.958 165.042 131.739 164.415C131.515 163.777 131.406 163.098 131.406 162.387C131.406 161.666 131.515 160.986 131.739 160.359C131.958 159.721 132.265 159.162 132.655 158.686C133.04 158.216 133.492 157.845 134.007 157.578C134.517 157.301 135.074 157.16 135.672 157.16C136.281 157.16 136.858 157.296 137.399 157.557L137.358 157.536C137.618 157.651 137.862 157.777 138.086 157.913C138.32 158.038 138.507 158.143 138.648 158.226C138.783 158.31 138.856 158.352 138.856 158.352L139.085 159.314L138.897 159.418C138.7 158.974 138.429 158.597 138.086 158.289C137.737 157.986 137.358 157.756 136.941 157.599C136.525 157.448 136.099 157.369 135.672 157.369C135.157 157.369 134.673 157.51 134.215 157.787C133.768 158.07 133.373 158.446 133.029 158.916C132.681 159.392 132.41 159.93 132.218 160.526C132.02 161.111 131.926 161.733 131.926 162.387C131.926 163.004 132.015 163.594 132.197 164.164C132.374 164.723 132.618 165.23 132.925 165.69C133.243 166.15 133.612 166.526 134.028 166.819C134.444 167.112 134.892 167.295 135.381 167.363C135.422 167.378 135.469 167.383 135.526 167.383C135.578 167.383 135.63 167.383 135.672 167.383C136.348 167.383 136.988 167.185 137.586 166.777C138.18 166.359 138.669 165.795 139.043 165.084L139.23 165.188L138.96 166.296C138.96 166.296 138.877 166.354 138.71 166.464C138.554 166.563 138.346 166.683 138.086 166.819C137.821 166.96 137.529 167.101 137.212 167.237H137.233C136.744 167.472 136.224 167.593 135.672 167.593Z" fill="#C8B7A1"/>
<path d="M141.598 167.194H141.785C141.91 167.194 142.061 167.173 142.243 167.132C142.42 167.079 142.513 166.985 142.513 166.86V157.807C142.513 157.682 142.42 157.598 142.243 157.556C142.061 157.504 141.91 157.473 141.785 157.473H141.598V157.264H143.949V157.473H143.762C143.637 157.473 143.481 157.504 143.304 157.556C143.122 157.598 143.033 157.682 143.033 157.807V166.86C143.033 166.985 143.122 167.079 143.304 167.132C143.481 167.173 143.637 167.194 143.762 167.194H143.949V167.403H141.598V167.194Z" fill="#C8B7A1"/>
<path d="M149.85 156.304L151.078 154.861L151.431 155.238L150.016 156.471L149.85 156.304ZM150.578 167.614C149.996 167.614 149.444 167.473 148.934 167.196C148.419 166.919 147.962 166.538 147.561 166.046C147.171 165.545 146.864 164.991 146.645 164.374C146.422 163.747 146.312 163.093 146.312 162.409C146.312 161.713 146.422 161.05 146.645 160.422C146.864 159.795 147.171 159.246 147.561 158.771C147.962 158.285 148.419 157.903 148.934 157.621C149.444 157.344 149.996 157.203 150.578 157.203H150.703C151.296 157.203 151.853 157.344 152.368 157.621C152.878 157.903 153.33 158.29 153.72 158.792C154.105 159.283 154.412 159.837 154.636 160.464C154.855 161.081 154.969 161.729 154.969 162.409C154.969 163.093 154.855 163.747 154.636 164.374C154.412 165.001 154.105 165.56 153.72 166.046C153.346 166.538 152.899 166.919 152.389 167.196C151.874 167.473 151.312 167.614 150.703 167.614H150.578ZM149.371 167.113C150.23 167.473 151.083 167.473 151.931 167.113C152.415 166.877 152.846 166.522 153.221 166.046C153.606 165.56 153.908 165.001 154.116 164.374C154.334 163.747 154.449 163.093 154.449 162.409C154.449 161.656 154.314 160.94 154.053 160.255C153.788 159.576 153.434 158.99 152.992 158.499C152.545 158.013 152.04 157.684 151.473 157.516C151.333 157.49 151.192 157.469 151.057 157.454C150.916 157.428 150.776 157.412 150.641 157.412C150.5 157.412 150.36 157.422 150.225 157.433C150.084 157.449 149.944 157.475 149.808 157.516C149.236 157.699 148.732 158.034 148.289 158.52C147.842 159.011 147.488 159.597 147.228 160.276C146.963 160.945 146.833 161.656 146.833 162.409C146.833 163.093 146.942 163.747 147.166 164.374C147.384 165.001 147.686 165.56 148.06 166.046C148.445 166.522 148.882 166.877 149.371 167.113Z" fill="#C8B7A1"/>
<path d="M157.188 167.196C157.437 167.196 157.65 167.175 157.833 167.133C158.009 167.081 158.103 166.987 158.103 166.861V157.788C158.103 157.662 158.009 157.579 157.833 157.537C157.65 157.485 157.437 157.453 157.188 157.453V157.244H158.603L164.408 166.38V157.788C164.408 157.662 164.309 157.579 164.117 157.537C163.935 157.485 163.727 157.453 163.493 157.453V157.244H165.511V157.453C165.261 157.453 165.043 157.485 164.866 157.537C164.684 157.579 164.595 157.662 164.595 157.788V167.405H164.408L158.311 157.725V166.861C158.311 166.987 158.4 167.081 158.582 167.133C158.759 167.175 158.977 167.196 159.227 167.196V167.405H157.188V167.196Z" fill="#C8B7A1"/>
<path d="M101.015 186.334H101.202C101.327 186.324 101.478 186.293 101.66 186.251C101.837 186.198 101.931 186.104 101.931 185.979V184.327H96L101.931 176.383H102.451V184.139H103.013C103.148 184.139 103.283 184.087 103.408 183.972C103.533 183.862 103.637 183.752 103.72 183.637C103.814 183.528 103.866 183.46 103.866 183.428H104.115L103.554 184.327H102.451V185.979C102.451 186.104 102.539 186.198 102.721 186.251C102.898 186.293 103.054 186.324 103.179 186.334H103.366V186.543H101.015V186.334ZM101.931 184.139V176.738L96.4162 184.139H101.931Z" fill="#C8B7A1"/>
<path d="M106.933 186.629C106.793 186.629 106.673 186.576 106.579 186.482C106.48 186.388 106.434 186.268 106.434 186.127C106.434 185.991 106.48 185.871 106.579 185.771C106.673 185.677 106.793 185.625 106.933 185.625C107.084 185.625 107.204 185.677 107.287 185.771C107.38 185.871 107.432 185.991 107.432 186.127C107.432 186.268 107.38 186.388 107.287 186.482C107.204 186.576 107.084 186.629 106.933 186.629Z" fill="#C8B7A1"/>
<path d="M113.736 186.671C113.18 186.671 112.659 186.54 112.176 186.274C111.702 186.012 111.286 185.641 110.927 185.166C110.563 184.695 110.282 184.136 110.074 183.493C109.866 182.855 109.762 182.166 109.762 181.423C109.762 180.671 109.866 179.981 110.074 179.354C110.282 178.716 110.563 178.157 110.927 177.681C111.286 177.211 111.702 176.84 112.176 176.573C112.659 176.312 113.18 176.176 113.736 176.176C114.277 176.176 114.782 176.312 115.255 176.573C115.739 176.84 116.16 177.211 116.525 177.681C116.884 178.157 117.17 178.716 117.378 179.354C117.586 179.981 117.69 180.671 117.69 181.423C117.69 182.166 117.586 182.855 117.378 183.493C117.17 184.136 116.884 184.695 116.525 185.166C116.16 185.641 115.739 186.012 115.255 186.274C114.782 186.54 114.277 186.671 113.736 186.671ZM113.736 186.462C114.204 186.462 114.652 186.331 115.068 186.065C115.484 185.788 115.848 185.416 116.171 184.957C116.488 184.486 116.733 183.948 116.899 183.347C117.076 182.735 117.17 182.092 117.17 181.423C117.17 180.744 117.076 180.101 116.899 179.5C116.733 178.888 116.488 178.35 116.171 177.89C115.848 177.42 115.484 177.049 115.068 176.782C114.652 176.521 114.204 176.385 113.736 176.385C113.247 176.385 112.8 176.521 112.384 176.782C111.978 177.049 111.619 177.42 111.302 177.89C110.979 178.35 110.729 178.888 110.552 179.5C110.37 180.101 110.282 180.744 110.282 181.423C110.282 182.092 110.37 182.735 110.552 183.347C110.729 183.948 110.979 184.486 111.302 184.957C111.619 185.416 111.978 185.788 112.384 186.065C112.8 186.331 113.247 186.462 113.736 186.462Z" fill="#C8B7A1"/>
<path d="M124.021 186.671C123.465 186.671 122.945 186.54 122.461 186.274C121.987 186.012 121.571 185.641 121.212 185.166C120.848 184.695 120.567 184.136 120.359 183.493C120.151 182.855 120.047 182.166 120.047 181.423C120.047 180.671 120.151 179.981 120.359 179.354C120.567 178.716 120.848 178.157 121.212 177.681C121.571 177.211 121.987 176.84 122.461 176.573C122.945 176.312 123.465 176.176 124.021 176.176C124.562 176.176 125.067 176.312 125.54 176.573C126.024 176.84 126.446 177.211 126.81 177.681C127.169 178.157 127.455 178.716 127.663 179.354C127.871 179.981 127.975 180.671 127.975 181.423C127.975 182.166 127.871 182.855 127.663 183.493C127.455 184.136 127.169 184.695 126.81 185.166C126.446 185.641 126.024 186.012 125.54 186.274C125.067 186.54 124.562 186.671 124.021 186.671ZM124.021 186.462C124.49 186.462 124.937 186.331 125.353 186.065C125.769 185.788 126.133 185.416 126.456 184.957C126.773 184.486 127.018 183.948 127.184 183.347C127.361 182.735 127.455 182.092 127.455 181.423C127.455 180.744 127.361 180.101 127.184 179.5C127.018 178.888 126.773 178.35 126.456 177.89C126.133 177.42 125.769 177.049 125.353 176.782C124.937 176.521 124.49 176.385 124.021 176.385C123.532 176.385 123.085 176.521 122.669 176.782C122.263 177.049 121.904 177.42 121.587 177.89C121.264 178.35 121.014 178.888 120.838 179.5C120.656 180.101 120.567 180.744 120.567 181.423C120.567 182.092 120.656 182.735 120.838 183.347C121.014 183.948 121.264 184.486 121.587 184.957C121.904 185.416 122.263 185.788 122.669 186.065C123.085 186.331 123.532 186.462 124.021 186.462Z" fill="#C8B7A1"/>
<path d="M136.996 186.335H137.183C137.319 186.324 137.475 186.293 137.641 186.251C137.818 186.209 137.912 186.126 137.912 186V176.948C137.912 176.812 137.818 176.718 137.641 176.676C137.475 176.634 137.319 176.613 137.183 176.613H136.996V176.404H140.367C140.95 176.404 141.47 176.53 141.928 176.781C142.396 177.031 142.771 177.382 143.051 177.826C143.327 178.275 143.468 178.782 143.468 179.352C143.468 179.911 143.327 180.418 143.051 180.878C142.771 181.328 142.396 181.673 141.928 181.924C141.47 182.175 140.95 182.3 140.367 182.3H138.432V186C138.432 186.126 138.52 186.209 138.702 186.251C138.879 186.293 139.035 186.324 139.16 186.335H139.347V186.544H136.996V186.335ZM140.367 182.091C140.851 182.091 141.283 181.965 141.657 181.715C142.042 181.453 142.354 181.108 142.594 180.69C142.828 180.262 142.947 179.812 142.947 179.352C142.947 178.866 142.828 178.422 142.594 178.014C142.354 177.596 142.042 177.261 141.657 177.011C141.283 176.749 140.851 176.613 140.367 176.613H139.16C139.035 176.613 138.879 176.634 138.702 176.676C138.52 176.718 138.432 176.812 138.432 176.948V182.091H140.367Z" fill="#C8B7A1"/>
<path d="M145.824 186.334C146.074 186.334 146.287 186.313 146.469 186.272C146.646 186.219 146.74 186.125 146.74 186V176.926C146.74 176.801 146.646 176.717 146.469 176.676C146.287 176.623 146.074 176.592 145.824 176.592V176.383H147.302L150.985 185.561L154.606 176.383H156.104V176.592C155.854 176.592 155.636 176.623 155.459 176.676C155.277 176.717 155.188 176.801 155.188 176.926V186C155.188 186.125 155.277 186.219 155.459 186.272C155.636 186.313 155.854 186.334 156.104 186.334V186.543H153.752V186.334C154.002 186.334 154.215 186.313 154.397 186.272C154.574 186.219 154.668 186.125 154.668 186V176.822L150.839 186.481H150.798L146.948 176.885V186C146.948 186.125 147.036 186.219 147.218 186.272C147.395 186.313 147.614 186.334 147.863 186.334V186.543H145.824V186.334Z" fill="#C8B7A1"/>
</g>
</svg>
