<svg width="146" height="44" viewBox="0 0 146 44" fill="none" xmlns="http://www.w3.org/2000/svg">
<mask id="mask0_2315_4983" style="mask-type:luminance" maskUnits="userSpaceOnUse" x="0" y="0" width="146" height="44">
<path d="M0 0H145.589V43.6406H0V0Z" fill="white"/>
</mask>
<g mask="url(#mask0_2315_4983)">
<mask id="mask1_2315_4983" style="mask-type:luminance" maskUnits="userSpaceOnUse" x="0" y="0" width="146" height="44">
<path d="M13.9896 0H131.521C139.25 0 145.51 6.26562 145.51 13.9896V29.651C145.51 37.375 139.25 43.6406 131.521 43.6406H13.9896C6.26042 43.6406 0 37.375 0 29.651V13.9896C0 6.26562 6.26042 0 13.9896 0Z" fill="white"/>
</mask>
<g mask="url(#mask1_2315_4983)">
<mask id="mask2_2315_4983" style="mask-type:luminance" maskUnits="userSpaceOnUse" x="-1" y="-1" width="148" height="46">
<path d="M146.171 -0.494141H-0.496094V44.8392H146.171V-0.494141Z" fill="white"/>
</mask>
<g mask="url(#mask2_2315_4983)">
<mask id="mask3_2315_4983" style="mask-type:luminance" maskUnits="userSpaceOnUse" x="0" y="0" width="146" height="44">
<path d="M0 0H145.563V43.6406H0V0Z" fill="white"/>
</mask>
<g mask="url(#mask3_2315_4983)">
<mask id="mask4_2315_4983" style="mask-type:luminance" maskUnits="userSpaceOnUse" x="0" y="0" width="146" height="44">
<path d="M13.9896 0H131.521C139.25 0 145.51 6.26562 145.51 13.9896V29.651C145.51 37.375 139.25 43.6406 131.521 43.6406H13.9896C6.26042 43.6406 0 37.375 0 29.651V13.9896C0 6.26562 6.26042 0 13.9896 0Z" fill="white"/>
</mask>
<g mask="url(#mask4_2315_4983)">
<path d="M0 0H145.589V43.6406H0V0Z" fill="#C8B7A1"/>
</g>
</g>
</g>
</g>
</g>
<mask id="mask5_2315_4983" style="mask-type:luminance" maskUnits="userSpaceOnUse" x="0" y="0" width="146" height="44">
<path d="M0.0078125 0H145.711V43.9792H0.0078125V0Z" fill="white"/>
</mask>
<g mask="url(#mask5_2315_4983)">
<mask id="mask6_2315_4983" style="mask-type:luminance" maskUnits="userSpaceOnUse" x="0" y="0" width="146" height="44">
<path d="M14.0026 0H131.508C139.232 0 145.497 6.26042 145.497 13.9896V29.6406C145.497 37.3698 139.232 43.6354 131.508 43.6354H14.0026C6.27344 43.6354 0.0078125 37.3698 0.0078125 29.6406V13.9896C0.0078125 6.26042 6.27344 0 14.0026 0Z" fill="white"/>
</mask>
<g mask="url(#mask6_2315_4983)">
<path d="M14.0026 0H131.508C139.232 0 145.497 6.26042 145.497 13.9896V29.6406C145.497 37.3698 139.232 43.6354 131.508 43.6354H14.0026C6.27344 43.6354 0.0078125 37.3698 0.0078125 29.6406V13.9896C0.0078125 6.26042 6.27344 0 14.0026 0Z" stroke="#C8B7A1" stroke-width="3.99805"/>
</g>
</g>
<path d="M48.7357 6.1862C48.3867 6.1862 48.2148 6.39453 48.2148 6.8112L48.4857 15.6445C48.5117 16.1185 48.7044 16.3529 49.069 16.3529V16.6445H46.5273V16.3529C46.8867 16.3529 47.0586 16.1185 47.0482 15.6445C47.0065 14.2174 46.9648 12.7852 46.9232 11.3529C46.8919 9.91016 46.8607 8.47266 46.819 7.04036L42.7773 16.6445H42.4232C41.6732 15.0924 40.9232 13.5352 40.1732 11.9779C39.4232 10.4102 38.6732 8.84766 37.9232 7.29036L37.7773 15.7487C37.8034 16.1549 37.9909 16.3529 38.3398 16.3529V16.6445H36.7148V16.3529C37.0742 16.3529 37.2669 16.1185 37.2982 15.6445C37.3398 14.1341 37.3815 12.6237 37.4232 11.1237C37.4753 9.61328 37.5273 8.10286 37.569 6.60286C37.3607 6.32682 37.1159 6.1862 36.8398 6.1862V5.89453H38.9857L43.1107 14.8945L46.7982 5.89453H48.7148L48.7357 6.1862Z" fill="#1F3D58"/>
<path d="M55.9453 15.332V12.8737C54.9141 13.056 54.1172 13.2383 53.5495 13.4154C52.9766 13.5977 52.5755 13.8268 52.3411 14.1029C52.1172 14.3685 52.0078 14.7435 52.0078 15.2279C52.0078 15.4779 52.1432 15.6862 52.4245 15.8529C52.7005 16.0195 53.0547 16.1029 53.487 16.1029C53.9036 16.1029 54.3255 16.0404 54.7578 15.9154C55.1849 15.7904 55.5807 15.5977 55.9453 15.332ZM58.8203 15.1029L58.9245 15.1445H58.9036C58.8203 15.5924 58.638 15.957 58.362 16.2487C58.0807 16.5404 57.7682 16.6862 57.4245 16.6862C57.0495 16.6862 56.7214 16.5716 56.4453 16.332C56.1641 16.082 56.0078 15.7695 55.9661 15.3945C55.3672 15.8685 54.8047 16.2174 54.2786 16.4362C53.7474 16.6445 53.2839 16.7487 52.8828 16.7487C52.2839 16.7487 51.7891 16.6185 51.4036 16.3529C51.013 16.0924 50.8203 15.7591 50.8203 15.3529C50.8203 14.9935 50.8932 14.6966 51.0495 14.457C51.2161 14.207 51.4922 13.9987 51.8828 13.832C52.2682 13.6549 52.7995 13.4883 53.4661 13.332C54.1328 13.1654 54.9661 12.9935 55.9661 12.8112V11.1029C55.9661 10.5352 55.8255 10.1185 55.5495 9.85286C55.2839 9.57682 54.9453 9.4362 54.5286 9.4362C54.0703 9.4362 53.6589 9.51953 53.2995 9.6862C52.9349 9.85286 52.6536 10.0508 52.4453 10.2695C52.2474 10.4935 52.1536 10.6862 52.1536 10.8529C52.1536 10.9779 52.2005 11.1237 52.2995 11.2904C52.3932 11.457 52.4453 11.6029 52.4453 11.7279C52.4453 11.8424 52.3828 11.9727 52.2578 12.1237C52.1432 12.2643 51.9922 12.332 51.7995 12.332C51.6016 12.332 51.4349 12.2591 51.2995 12.1029C51.1745 11.9362 51.112 11.7279 51.112 11.4779C51.112 11.2852 51.1953 11.0716 51.362 10.832C51.5391 10.582 51.7839 10.3477 52.0911 10.1237C52.4089 9.88932 52.7839 9.70182 53.2161 9.5612C53.6432 9.41016 54.1172 9.33203 54.6328 9.33203C55.3672 9.33203 55.9714 9.51953 56.4453 9.89453C56.9297 10.2591 57.1745 10.806 57.1745 11.5404V15.1654C57.1745 15.3633 57.2474 15.5195 57.4036 15.6445C57.5547 15.7695 57.737 15.832 57.9453 15.832C58.1641 15.832 58.3516 15.7643 58.5078 15.6237C58.6745 15.4883 58.7786 15.3112 58.8203 15.1029Z" fill="#1F3D58"/>
<path d="M60.0456 9.89323L60.0039 9.7474C60.056 9.72135 60.1081 9.70052 60.1497 9.6849C60.2018 9.67448 60.2539 9.66406 60.2956 9.66406V9.64323H60.3372C60.5456 9.59115 60.7383 9.53385 60.9206 9.47656H61.5247V11.1224C61.7591 10.763 62.0456 10.4557 62.3789 10.2057C62.7122 9.94531 63.0664 9.73698 63.4414 9.58073C63.8268 9.42969 64.1914 9.35156 64.5247 9.35156C65.0924 9.35156 65.5664 9.45052 65.9414 9.64323C66.3164 9.84115 66.5039 10.0964 66.5039 10.4141C66.5039 10.6224 66.431 10.7995 66.2956 10.9349C66.1706 11.0599 66.0039 11.1224 65.7956 11.1224C65.5872 11.1224 65.4102 11.0599 65.2747 10.9349C65.1341 10.7995 65.0664 10.6224 65.0664 10.4141C65.0664 10.2786 64.9622 10.1589 64.7539 10.0599C64.5456 9.96615 64.2799 9.91406 63.9622 9.91406C63.5299 9.91406 63.0872 10.0495 62.6289 10.3099C62.181 10.5599 61.8164 10.888 61.5247 11.2891V16.1224C61.5247 16.263 61.6133 16.3307 61.7956 16.3307V16.6224H60.0456V16.3307C60.2227 16.3307 60.3164 16.263 60.3164 16.1224V10.7474C60.3164 10.5391 60.2852 10.362 60.2331 10.2057C60.1914 10.0547 60.1289 9.95052 60.0456 9.89323Z" fill="#1F3D58"/>
<path d="M72.7031 9.39453C72.0885 9.39453 71.5417 9.54036 71.0573 9.83203C70.5833 10.1133 70.2083 10.4987 69.9323 10.9987C69.651 11.4987 69.5156 12.0768 69.5156 12.7279C69.5156 13.4518 69.6458 14.0977 69.9115 14.6654C70.1719 15.2227 70.5365 15.6602 70.9948 15.9779C71.4635 16.3008 71.9948 16.457 72.5781 16.457C73.0885 16.457 73.5781 16.3893 74.0365 16.2487C74.4948 16.0977 74.8906 15.8945 75.224 15.6445C75.5573 15.3945 75.7969 15.1029 75.9531 14.7695L75.9948 14.7904C75.8125 15.181 75.5365 15.5195 75.1615 15.8112C74.7969 16.1029 74.3802 16.3424 73.9115 16.5195C73.4375 16.6862 72.9375 16.7695 72.4115 16.7695C71.6042 16.7695 70.8906 16.6237 70.2656 16.332C69.6406 16.0299 69.1458 15.6133 68.7865 15.082C68.4375 14.5404 68.2656 13.931 68.2656 13.2487C68.2656 12.4883 68.4583 11.8112 68.849 11.2279C69.2344 10.6445 69.7656 10.1862 70.4323 9.85286C71.099 9.50911 71.8698 9.33203 72.7448 9.33203C73.2708 9.33203 73.7552 9.39453 74.2031 9.51953C74.6615 9.64453 75.0417 9.82682 75.349 10.0612C75.6667 10.2852 75.8802 10.5404 75.9948 10.832C76.0469 10.9987 76.0208 11.1445 75.9115 11.2695C75.7969 11.3841 75.625 11.4362 75.3906 11.4362C75.276 11.4362 75.1615 11.3841 75.0365 11.2695C74.9219 11.1445 74.8333 10.9987 74.7656 10.832C74.6094 10.4154 74.3385 10.0768 73.9531 9.8112C73.5781 9.53516 73.1615 9.39453 72.7031 9.39453Z" fill="#1F3D58"/>
<path d="M83.1563 15.332V12.8737C82.125 13.056 81.3281 13.2383 80.7604 13.4154C80.1875 13.5977 79.7865 13.8268 79.5521 14.1029C79.3281 14.3685 79.2188 14.7435 79.2188 15.2279C79.2188 15.4779 79.3542 15.6862 79.6354 15.8529C79.9115 16.0195 80.2656 16.1029 80.6979 16.1029C81.1146 16.1029 81.5365 16.0404 81.9688 15.9154C82.3958 15.7904 82.7917 15.5977 83.1563 15.332ZM86.0313 15.1029L86.1354 15.1445H86.1146C86.0313 15.5924 85.849 15.957 85.5729 16.2487C85.2917 16.5404 84.9792 16.6862 84.6354 16.6862C84.2604 16.6862 83.9323 16.5716 83.6563 16.332C83.375 16.082 83.2188 15.7695 83.1771 15.3945C82.5781 15.8685 82.0156 16.2174 81.4896 16.4362C80.9583 16.6445 80.4948 16.7487 80.0938 16.7487C79.4948 16.7487 79 16.6185 78.6146 16.3529C78.224 16.0924 78.0312 15.7591 78.0312 15.3529C78.0312 14.9935 78.1042 14.6966 78.2604 14.457C78.4271 14.207 78.7031 13.9987 79.0938 13.832C79.4792 13.6549 80.0104 13.4883 80.6771 13.332C81.3438 13.1654 82.1771 12.9935 83.1771 12.8112V11.1029C83.1771 10.5352 83.0365 10.1185 82.7604 9.85286C82.4948 9.57682 82.1563 9.4362 81.7396 9.4362C81.2813 9.4362 80.8698 9.51953 80.5104 9.6862C80.1458 9.85286 79.8646 10.0508 79.6563 10.2695C79.4583 10.4935 79.3646 10.6862 79.3646 10.8529C79.3646 10.9779 79.4115 11.1237 79.5104 11.2904C79.6042 11.457 79.6563 11.6029 79.6563 11.7279C79.6563 11.8424 79.5938 11.9727 79.4688 12.1237C79.3542 12.2643 79.2031 12.332 79.0104 12.332C78.8125 12.332 78.6458 12.2591 78.5104 12.1029C78.3854 11.9362 78.3229 11.7279 78.3229 11.4779C78.3229 11.2852 78.4063 11.0716 78.5729 10.832C78.75 10.582 78.9948 10.3477 79.3021 10.1237C79.6198 9.88932 79.9948 9.70182 80.4271 9.5612C80.8542 9.41016 81.3281 9.33203 81.8438 9.33203C82.5781 9.33203 83.1823 9.51953 83.6563 9.89453C84.1406 10.2591 84.3854 10.806 84.3854 11.5404V15.1654C84.3854 15.3633 84.4583 15.5195 84.6146 15.6445C84.7656 15.7695 84.9479 15.832 85.1563 15.832C85.375 15.832 85.5625 15.7643 85.7188 15.6237C85.8854 15.4883 85.9896 15.3112 86.0313 15.1029Z" fill="#1F3D58"/>
<path d="M94.6289 14.3314V10.1022H93.6914V9.95638L95.7539 7.74805H95.8372V9.47721H98.6706V10.123H95.8372L95.8164 14.6022C95.8164 15.1595 95.9518 15.5605 96.2331 15.8105C96.5091 16.0605 96.8581 16.1855 97.2747 16.1855C97.6758 16.1855 98.0456 16.097 98.3789 15.9147C98.7122 15.7376 98.9258 15.4928 99.0247 15.1855L99.1706 15.248C99.0143 15.696 98.7227 16.0605 98.2956 16.3522C97.8633 16.6283 97.3997 16.7689 96.8997 16.7689C96.2435 16.7689 95.7018 16.5762 95.2747 16.1855C94.8424 15.8001 94.6289 15.1803 94.6289 14.3314Z" fill="#1F3D58"/>
<path d="M108.557 15.457C108.557 15.8633 108.667 16.0612 108.891 16.0612C108.932 16.0612 108.958 16.0612 108.974 16.0612V16.332C108.917 16.3477 108.854 16.3685 108.786 16.3945C108.714 16.4102 108.641 16.431 108.557 16.457H108.516V16.4779C108.417 16.5091 108.313 16.5352 108.203 16.5612C108.104 16.5768 108.021 16.6029 107.953 16.6445H107.328V14.8737C107.161 15.2383 106.896 15.5612 106.536 15.8529C106.172 16.1445 105.75 16.3737 105.266 16.5404C104.792 16.6914 104.297 16.7695 103.786 16.7695C103.255 16.7695 102.786 16.6549 102.37 16.4362C101.953 16.2174 101.625 15.9102 101.391 15.5195C101.151 15.1185 101.036 14.6602 101.036 14.1445V9.97786C101.036 9.82682 100.943 9.7487 100.766 9.7487V9.47786H102.245V14.1445C102.245 14.6602 102.437 15.082 102.828 15.4154C103.229 15.7487 103.734 15.9154 104.349 15.9154C105.042 15.9154 105.667 15.8112 106.224 15.6029C106.776 15.3841 107.151 15.0924 107.349 14.7279V9.95703C107.349 9.82162 107.255 9.7487 107.078 9.7487V9.45703H107.974V9.47786H108.557V15.457Z" fill="#1F3D58"/>
<path d="M35.9922 27.3848C35.3776 27.3848 34.8307 27.5306 34.3464 27.8223C33.8724 28.1035 33.4974 28.4889 33.2214 28.9889C32.9401 29.4889 32.8047 30.0671 32.8047 30.7181C32.8047 31.4421 32.9349 32.0879 33.2005 32.6556C33.4609 33.2129 33.8255 33.6504 34.2839 33.9681C34.7526 34.291 35.2839 34.4473 35.8672 34.4473C36.3776 34.4473 36.8672 34.3796 37.3255 34.2389C37.7839 34.0879 38.1797 33.8848 38.513 33.6348C38.8464 33.3848 39.0859 33.0931 39.2422 32.7598L39.2839 32.7806C39.1016 33.1712 38.8255 33.5098 38.4505 33.8014C38.0859 34.0931 37.6693 34.3327 37.2005 34.5098C36.7266 34.6764 36.2266 34.7598 35.7005 34.7598C34.8932 34.7598 34.1797 34.6139 33.5547 34.3223C32.9297 34.0202 32.4349 33.6035 32.0755 33.0723C31.7266 32.5306 31.5547 31.9212 31.5547 31.2389C31.5547 30.4785 31.7474 29.8014 32.138 29.2181C32.5234 28.6348 33.0547 28.1764 33.7214 27.8431C34.388 27.4993 35.1589 27.3223 36.0339 27.3223C36.5599 27.3223 37.0443 27.3848 37.4922 27.5098C37.9505 27.6348 38.3307 27.8171 38.638 28.0514C38.9557 28.2754 39.1693 28.5306 39.2839 28.8223C39.3359 28.9889 39.3099 29.1348 39.2005 29.2598C39.0859 29.3743 38.9141 29.4264 38.6797 29.4264C38.5651 29.4264 38.4505 29.3743 38.3255 29.2598C38.2109 29.1348 38.1224 28.9889 38.0547 28.8223C37.8984 28.4056 37.6276 28.0671 37.2422 27.8014C36.8672 27.5254 36.4505 27.3848 35.9922 27.3848Z" fill="#1F3D58"/>
<path d="M46.4453 33.3223V30.8639C45.4141 31.0462 44.6172 31.2285 44.0495 31.4056C43.4766 31.5879 43.0755 31.8171 42.8411 32.0931C42.6172 32.3587 42.5078 32.7337 42.5078 33.2181C42.5078 33.4681 42.6432 33.6764 42.9245 33.8431C43.2005 34.0098 43.5547 34.0931 43.987 34.0931C44.4036 34.0931 44.8255 34.0306 45.2578 33.9056C45.6849 33.7806 46.0807 33.5879 46.4453 33.3223ZM49.3203 33.0931L49.4245 33.1348H49.4036C49.3203 33.5827 49.138 33.9473 48.862 34.2389C48.5807 34.5306 48.2682 34.6764 47.9245 34.6764C47.5495 34.6764 47.2214 34.5618 46.9453 34.3223C46.6641 34.0723 46.5078 33.7598 46.4661 33.3848C45.8672 33.8587 45.3047 34.2077 44.7786 34.4264C44.2474 34.6348 43.7839 34.7389 43.3828 34.7389C42.7839 34.7389 42.2891 34.6087 41.9036 34.3431C41.513 34.0827 41.3203 33.7493 41.3203 33.3431C41.3203 32.9837 41.3932 32.6868 41.5495 32.4473C41.7161 32.1973 41.9922 31.9889 42.3828 31.8223C42.7682 31.6452 43.2995 31.4785 43.9661 31.3223C44.6328 31.1556 45.4661 30.9837 46.4661 30.8014V29.0931C46.4661 28.5254 46.3255 28.1087 46.0495 27.8431C45.7839 27.5671 45.4453 27.4264 45.0286 27.4264C44.5703 27.4264 44.1589 27.5098 43.7995 27.6764C43.4349 27.8431 43.1536 28.041 42.9453 28.2598C42.7474 28.4837 42.6536 28.6764 42.6536 28.8431C42.6536 28.9681 42.7005 29.1139 42.7995 29.2806C42.8932 29.4473 42.9453 29.5931 42.9453 29.7181C42.9453 29.8327 42.8828 29.9629 42.7578 30.1139C42.6432 30.2546 42.4922 30.3223 42.2995 30.3223C42.1016 30.3223 41.9349 30.2493 41.7995 30.0931C41.6745 29.9264 41.612 29.7181 41.612 29.4681C41.612 29.2754 41.6953 29.0618 41.862 28.8223C42.0391 28.5723 42.2839 28.3379 42.5911 28.1139C42.9089 27.8796 43.2839 27.6921 43.7161 27.5514C44.1432 27.4004 44.6172 27.3223 45.1328 27.3223C45.8672 27.3223 46.4714 27.5098 46.9453 27.8848C47.4297 28.2493 47.6745 28.7962 47.6745 29.5306V33.1556C47.6745 33.3535 47.7474 33.5098 47.9036 33.6348C48.0547 33.7598 48.237 33.8223 48.4453 33.8223C48.6641 33.8223 48.8516 33.7546 49.0078 33.6139C49.1745 33.4785 49.2786 33.3014 49.3203 33.0931Z" fill="#1F3D58"/>
<path d="M50.5247 34.3223C50.7018 34.3223 50.7956 34.2546 50.7956 34.1139V25.1556C50.7956 24.9629 50.7643 24.791 50.7122 24.6348C50.6706 24.4681 50.6081 24.3587 50.5247 24.3014L50.5039 24.1348C50.5456 24.1243 50.5872 24.1087 50.6289 24.0931C50.681 24.0827 50.7331 24.0671 50.7747 24.0514H50.8164C51.0247 23.9993 51.2227 23.9421 51.4206 23.8848H52.0039V34.1139C52.0039 34.2546 52.0924 34.3223 52.2747 34.3223V34.6139H50.5247V34.3223Z" fill="#1F3D58"/>
<path d="M55.724 29.7598C55.651 30.0931 55.6198 30.4421 55.6198 30.8014C55.6198 31.5098 55.7448 32.1348 55.9948 32.6764C56.2552 33.2181 56.6198 33.6504 57.0781 33.9681C57.5365 34.2754 58.0573 34.4264 58.6406 34.4264C59.25 34.4264 59.8177 34.3587 60.349 34.2181C60.875 34.0671 61.3177 33.8587 61.6823 33.5931C62.0573 33.3171 62.2969 33.0098 62.4115 32.6764L62.474 32.6973C62.3177 33.1035 62.0469 33.4577 61.6615 33.7598C61.2865 34.0671 60.8177 34.3118 60.2656 34.4889C59.724 34.666 59.1458 34.7598 58.5365 34.7598C57.7135 34.7598 56.9844 34.6139 56.349 34.3223C55.724 34.0202 55.2292 33.6087 54.8698 33.0931C54.5052 32.5671 54.3281 31.9681 54.3281 31.3014C54.3281 30.3848 54.526 29.6348 54.9323 29.0514C55.3333 28.4577 55.8802 28.0202 56.5781 27.7389C57.2708 27.4629 58.0625 27.3223 58.9531 27.3223C59.5885 27.3223 60.1719 27.416 60.7031 27.5931C61.2448 27.7598 61.6875 28.0254 62.0365 28.3848C62.3958 28.7337 62.625 29.1921 62.724 29.7598H55.724ZM58.9323 27.3848C58.1406 27.3848 57.4583 27.5723 56.8906 27.9473C56.3177 28.3118 55.9375 28.8848 55.7448 29.6764L61.3698 29.6556C61.2135 28.8639 60.9167 28.291 60.474 27.9264C60.026 27.5671 59.5156 27.3848 58.9323 27.3848Z" fill="#1F3D58"/>
<path d="M70.1628 34.3223C70.3398 34.3223 70.4336 34.2546 70.4336 34.1139V30.1556C70.4336 29.5202 70.2773 28.9889 69.9753 28.5723C69.668 28.1452 69.2305 27.9264 68.6628 27.9264C68.3555 27.9264 68.0273 27.9993 67.6836 28.1348C67.3346 28.2598 67.0013 28.4368 66.6836 28.6556C66.3763 28.8796 66.1055 29.1348 65.8711 29.4264V34.1139C65.8711 34.2546 65.9596 34.3223 66.1419 34.3223V34.6139H64.3919V34.3223C64.569 34.3223 64.6628 34.2546 64.6628 34.1139V28.7389C64.6628 28.5306 64.6315 28.3535 64.5794 28.1973C64.5378 28.0462 64.4753 27.9421 64.3919 27.8848L64.3711 27.7181C64.4128 27.7077 64.4544 27.6921 64.4961 27.6764C64.5482 27.666 64.6003 27.6504 64.6419 27.6348V27.6139H64.6836C64.8919 27.5618 65.0898 27.5098 65.2878 27.4681H65.8711V29.2389C66.1628 28.8639 66.4857 28.5306 66.8503 28.2389C67.2096 27.9473 67.5846 27.7285 67.9753 27.5723C68.3607 27.4056 68.7253 27.3223 69.0586 27.3223C69.6107 27.3223 70.0794 27.4473 70.4544 27.6973C70.8398 27.9473 71.1419 28.291 71.3503 28.7181C71.5586 29.1348 71.6628 29.6139 71.6628 30.1556V34.1139C71.6628 34.2546 71.7513 34.3223 71.9336 34.3223V34.6139H70.1628V34.3223Z" fill="#1F3D58"/>
<path d="M81.7656 33.4486C81.7656 33.8392 81.8906 34.0319 82.1406 34.0319C82.1667 34.0319 82.1927 34.0319 82.224 34.0319C82.25 34.0215 82.2865 34.0059 82.3281 33.9902V34.2819C82.2448 34.3132 82.151 34.3392 82.0573 34.3652C81.974 34.3965 81.875 34.4225 81.7656 34.4486H81.7031C81.6042 34.4798 81.5052 34.5059 81.4115 34.5319C81.3125 34.5475 81.2292 34.5684 81.1615 34.5944H80.5365V33.5944C80.2708 33.9173 79.875 34.1777 79.349 34.3861C78.8177 34.584 78.276 34.6777 77.724 34.6777C77 34.6777 76.3542 34.5267 75.7865 34.2194C75.2135 33.9017 74.7656 33.4642 74.4323 32.9069C74.1094 32.3548 73.9531 31.7298 73.9531 31.0319C73.9531 30.3132 74.1198 29.6725 74.4531 29.1152C74.7865 28.5632 75.2656 28.1257 75.8906 27.8027C76.5156 27.485 77.2708 27.3236 78.1615 27.3236C78.6458 27.3236 79.1042 27.4486 79.5365 27.6986C79.9635 27.9382 80.2969 28.235 80.5365 28.5944V25.1569C80.5365 24.9642 80.5052 24.7923 80.4531 24.6361C80.4115 24.4694 80.349 24.36 80.2656 24.3027V24.1361C80.3073 24.11 80.349 24.0892 80.3906 24.0736C80.4427 24.0632 80.5 24.0527 80.5573 24.0527V24.0319L81.1615 23.8652H81.7656V33.4486ZM78.3073 27.6777C77.651 27.6777 77.0885 27.8132 76.6198 28.0736C76.1615 28.3392 75.8073 28.6986 75.5573 29.1569C75.3177 29.6048 75.2031 30.1152 75.2031 30.6986C75.2031 31.3809 75.3333 31.985 75.599 32.5111C75.8594 33.0267 76.2135 33.4382 76.6615 33.7402C77.1198 34.0319 77.6406 34.1777 78.224 34.1777C78.7083 34.1777 79.1667 34.1152 79.599 33.9902C80.026 33.8548 80.3385 33.6777 80.5365 33.4694V29.2611C80.4531 28.985 80.2969 28.7298 80.0781 28.4902C79.8542 28.2402 79.5885 28.0475 79.2865 27.9069C78.9792 27.7559 78.651 27.6777 78.3073 27.6777Z" fill="#1F3D58"/>
<path d="M89.2773 33.3223V30.8639C88.2461 31.0462 87.4492 31.2285 86.8815 31.4056C86.3086 31.5879 85.9076 31.8171 85.6732 32.0931C85.4492 32.3587 85.3398 32.7337 85.3398 33.2181C85.3398 33.4681 85.4753 33.6764 85.7565 33.8431C86.0326 34.0098 86.3867 34.0931 86.819 34.0931C87.2357 34.0931 87.6576 34.0306 88.0898 33.9056C88.5169 33.7806 88.9128 33.5879 89.2773 33.3223ZM92.1523 33.0931L92.2565 33.1348H92.2357C92.1523 33.5827 91.9701 33.9473 91.694 34.2389C91.4128 34.5306 91.1003 34.6764 90.7565 34.6764C90.3815 34.6764 90.0534 34.5618 89.7773 34.3223C89.4961 34.0723 89.3398 33.7598 89.2982 33.3848C88.6992 33.8587 88.1367 34.2077 87.6107 34.4264C87.0794 34.6348 86.6159 34.7389 86.2148 34.7389C85.6159 34.7389 85.1211 34.6087 84.7357 34.3431C84.3451 34.0827 84.1523 33.7493 84.1523 33.3431C84.1523 32.9837 84.2253 32.6868 84.3815 32.4473C84.5482 32.1973 84.8242 31.9889 85.2148 31.8223C85.6003 31.6452 86.1315 31.4785 86.7982 31.3223C87.4648 31.1556 88.2982 30.9837 89.2982 30.8014V29.0931C89.2982 28.5254 89.1576 28.1087 88.8815 27.8431C88.6159 27.5671 88.2773 27.4264 87.8607 27.4264C87.4023 27.4264 86.9909 27.5098 86.6315 27.6764C86.2669 27.8431 85.9857 28.041 85.7773 28.2598C85.5794 28.4837 85.4857 28.6764 85.4857 28.8431C85.4857 28.9681 85.5326 29.1139 85.6315 29.2806C85.7253 29.4473 85.7773 29.5931 85.7773 29.7181C85.7773 29.8327 85.7148 29.9629 85.5898 30.1139C85.4753 30.2546 85.3242 30.3223 85.1315 30.3223C84.9336 30.3223 84.7669 30.2493 84.6315 30.0931C84.5065 29.9264 84.444 29.7181 84.444 29.4681C84.444 29.2754 84.5273 29.0618 84.694 28.8223C84.8711 28.5723 85.1159 28.3379 85.4232 28.1139C85.7409 27.8796 86.1159 27.6921 86.5482 27.5514C86.9753 27.4004 87.4492 27.3223 87.9648 27.3223C88.6992 27.3223 89.3034 27.5098 89.7773 27.8848C90.2617 28.2493 90.5065 28.7962 90.5065 29.5306V33.1556C90.5065 33.3535 90.5794 33.5098 90.7357 33.6348C90.8867 33.7598 91.069 33.8223 91.2773 33.8223C91.4961 33.8223 91.6836 33.7546 91.8398 33.6139C92.0065 33.4785 92.1107 33.3014 92.1523 33.0931Z" fill="#1F3D58"/>
<path d="M93.3776 27.8854L93.3359 27.7396C93.388 27.7135 93.4401 27.6927 93.4818 27.6771C93.5339 27.6667 93.5859 27.6563 93.6276 27.6563V27.6354H93.6693C93.8776 27.5833 94.0703 27.526 94.2526 27.4688H94.8568V29.1146C95.0911 28.7552 95.3776 28.4479 95.7109 28.1979C96.0443 27.9375 96.3984 27.7292 96.7734 27.5729C97.1589 27.4219 97.5234 27.3438 97.8568 27.3438C98.4245 27.3438 98.8984 27.4427 99.2734 27.6354C99.6484 27.8333 99.8359 28.0885 99.8359 28.4063C99.8359 28.6146 99.763 28.7917 99.6276 28.9271C99.5026 29.0521 99.3359 29.1146 99.1276 29.1146C98.9193 29.1146 98.7422 29.0521 98.6068 28.9271C98.4661 28.7917 98.3984 28.6146 98.3984 28.4063C98.3984 28.2708 98.2943 28.151 98.0859 28.0521C97.8776 27.9583 97.612 27.9063 97.2943 27.9063C96.862 27.9063 96.4193 28.0417 95.9609 28.3021C95.513 28.5521 95.1484 28.8802 94.8568 29.2813V34.1146C94.8568 34.2552 94.9453 34.3229 95.1276 34.3229V34.6146H93.3776V34.3229C93.5547 34.3229 93.6484 34.2552 93.6484 34.1146V28.7396C93.6484 28.5313 93.6172 28.3542 93.5651 28.1979C93.5234 28.0469 93.4609 27.9427 93.3776 27.8854Z" fill="#1F3D58"/>
<path d="M101.348 27.7194C101.389 27.709 101.431 27.6934 101.473 27.6777C101.525 27.6673 101.577 27.6517 101.618 27.6361V27.6152H101.66C101.868 27.5632 102.061 27.5111 102.243 27.4694H102.848V34.1152C102.848 34.2559 102.936 34.3236 103.118 34.3236V34.6152H101.368V34.3236C101.546 34.3236 101.639 34.2559 101.639 34.1152V28.7402C101.639 28.5319 101.608 28.3548 101.556 28.1986C101.514 28.0475 101.452 27.9434 101.368 27.8861L101.348 27.7194ZM101.473 25.0319C101.473 24.8132 101.54 24.6257 101.681 24.4694C101.832 24.3184 102.02 24.2402 102.243 24.2402C102.478 24.2402 102.665 24.3184 102.806 24.4694C102.957 24.6257 103.035 24.8132 103.035 25.0319C103.035 25.2715 102.957 25.4642 102.806 25.6152C102.665 25.7559 102.478 25.8236 102.243 25.8236C102.02 25.8236 101.832 25.7559 101.681 25.6152C101.54 25.4642 101.473 25.2715 101.473 25.0319Z" fill="#1F3D58"/>
<path d="M109.564 27.3223C110.408 27.3223 111.158 27.4837 111.814 27.8014C112.465 28.1243 112.98 28.5618 113.355 29.1139C113.741 29.6712 113.939 30.3118 113.939 31.0306C113.939 31.7546 113.741 32.4004 113.355 32.9681C112.98 33.5254 112.465 33.9629 111.814 34.2806C111.158 34.6035 110.408 34.7598 109.564 34.7598C108.715 34.7598 107.96 34.6035 107.293 34.2806C106.626 33.9629 106.105 33.5254 105.73 32.9681C105.355 32.4004 105.168 31.7546 105.168 31.0306C105.168 30.3118 105.355 29.6712 105.73 29.1139C106.105 28.5618 106.626 28.1243 107.293 27.8014C107.96 27.4837 108.715 27.3223 109.564 27.3223ZM109.564 27.4264C108.965 27.4264 108.439 27.5827 107.98 27.8848C107.522 28.1921 107.158 28.6243 106.897 29.1764C106.632 29.7181 106.501 30.3379 106.501 31.0306C106.501 31.7285 106.632 32.3535 106.897 32.9056C107.158 33.4473 107.522 33.8796 107.98 34.1973C108.439 34.5046 108.965 34.6556 109.564 34.6556C110.147 34.6556 110.658 34.5046 111.105 34.1973C111.564 33.8796 111.923 33.4473 112.189 32.9056C112.449 32.3535 112.585 31.7285 112.585 31.0306C112.585 30.3379 112.449 29.7181 112.189 29.1764C111.923 28.6243 111.564 28.1921 111.105 27.8848C110.658 27.5827 110.147 27.4264 109.564 27.4264Z" fill="#1F3D58"/>
</svg>
