<svg width="253" height="292" viewBox="0 0 253 292" fill="none" xmlns="http://www.w3.org/2000/svg">
<mask id="mask0_2310_3034" style="mask-type:luminance" maskUnits="userSpaceOnUse" x="0" y="0" width="253" height="292">
<path d="M0.726562 0.306641H252.336V291.999H0.726562V0.306641Z" fill="white"/>
</mask>
<g mask="url(#mask0_2310_3034)">
<mask id="mask1_2310_3034" style="mask-type:luminance" maskUnits="userSpaceOnUse" x="0" y="0" width="253" height="292">
<path d="M252.336 23.2493V268.734C252.336 274.817 249.914 280.65 245.612 284.952C241.31 289.255 235.477 291.676 229.393 291.676H23.6693C17.5859 291.676 11.7474 289.255 7.44531 284.952C3.14323 280.65 0.726562 274.817 0.726562 268.734V23.2493C0.726562 17.1608 3.14323 11.3275 7.44531 7.02539C11.7474 2.72331 17.5859 0.306641 23.6693 0.306641H229.393C235.477 0.306641 241.31 2.72331 245.612 7.02539C249.914 11.3275 252.336 17.1608 252.336 23.2493Z" fill="white"/>
</mask>
<g mask="url(#mask1_2310_3034)">
<mask id="mask2_2310_3034" style="mask-type:luminance" maskUnits="userSpaceOnUse" x="0" y="-1" width="254" height="294">
<path d="M253.415 -0.667969H0.0820312V292.665H253.415V-0.667969Z" fill="white"/>
</mask>
<g mask="url(#mask2_2310_3034)">
<mask id="mask3_2310_3034" style="mask-type:luminance" maskUnits="userSpaceOnUse" x="0" y="0" width="253" height="292">
<path d="M0.726562 0.306641H252.336V291.333H0.726562V0.306641Z" fill="white"/>
</mask>
<g mask="url(#mask3_2310_3034)">
<mask id="mask4_2310_3034" style="mask-type:luminance" maskUnits="userSpaceOnUse" x="0" y="0" width="253" height="292">
<path d="M252.336 23.2493V268.734C252.336 274.817 249.914 280.65 245.612 284.952C241.31 289.255 235.477 291.676 229.393 291.676H23.6693C17.5859 291.676 11.7474 289.255 7.44531 284.952C3.14323 280.65 0.726562 274.817 0.726562 268.734V23.2493C0.726562 17.1608 3.14323 11.3275 7.44531 7.02539C11.7474 2.72331 17.5859 0.306641 23.6693 0.306641H229.393C235.477 0.306641 241.31 2.72331 245.612 7.02539C249.914 11.3275 252.336 17.1608 252.336 23.2493Z" fill="white"/>
</mask>
<g mask="url(#mask4_2310_3034)">
<path d="M0.726562 0.306641H252.336V291.223H0.726562V0.306641Z" fill="#1F3D58"/>
</g>
</g>
</g>
</g>
</g>
<mask id="mask5_2310_3034" style="mask-type:luminance" maskUnits="userSpaceOnUse" x="64" y="56" width="127" height="58">
<path d="M190.745 56.666H64.0781V113.999H190.745V56.666Z" fill="white"/>
</mask>
<g mask="url(#mask5_2310_3034)">
<path d="M80.0938 70.3066H80.2813C80.4063 70.2962 80.5573 70.265 80.7396 70.2233C80.9167 70.1816 81.0104 70.0983 81.0104 69.9733V60.7233L80.4271 61.3691L80.2813 61.2233L81.0104 60.4316H81.5313V69.9733C81.5313 70.0983 81.6146 70.1816 81.7813 70.2233C81.9583 70.265 82.1198 70.2962 82.2604 70.3066H82.4271V70.515H80.0938V70.3066Z" fill="#C8B7A1"/>
<path d="M88.2969 70.5781C87.6562 70.5781 87.0729 70.4635 86.5469 70.224C86.0156 69.974 85.5937 69.6354 85.276 69.2031C84.9531 68.776 84.7969 68.2813 84.7969 67.724C84.7969 67.2656 84.9062 66.849 85.1302 66.474C85.3646 66.0885 85.6771 65.7656 86.0677 65.5156C86.4531 65.2552 86.8906 65.0677 87.3802 64.9531C86.8073 64.8177 86.3385 64.5521 85.9635 64.1615C85.5885 63.776 85.401 63.3021 85.401 62.7448C85.401 62.2865 85.5312 61.8854 85.7969 61.5365C86.0573 61.1771 86.4062 60.901 86.8385 60.7031C87.2812 60.4948 87.7656 60.3906 88.2969 60.3906C88.8385 60.3906 89.3229 60.4948 89.7552 60.7031C90.1979 60.901 90.5521 61.1771 90.8177 61.5365C91.0781 61.8854 91.2135 62.2865 91.2135 62.7448C91.2135 63.3021 91.026 63.776 90.651 64.1615C90.276 64.5521 89.7969 64.8177 89.2135 64.9531C89.7135 65.0677 90.1562 65.2552 90.5469 65.5156C90.9323 65.7656 91.2396 66.0885 91.4635 66.474C91.6823 66.849 91.7969 67.2656 91.7969 67.724C91.7969 68.2813 91.6354 68.776 91.3177 69.2031C91.0104 69.6354 90.5937 69.974 90.0677 70.224C89.5365 70.4635 88.9479 70.5781 88.2969 70.5781ZM88.2969 64.8698C88.7396 64.8698 89.1406 64.776 89.5052 64.5781C89.8646 64.3698 90.151 64.1094 90.3594 63.7865C90.5781 63.4531 90.6927 63.1094 90.6927 62.7448C90.6927 62.3698 90.5781 62.026 90.3594 61.7031C90.151 61.3698 89.8646 61.1094 89.5052 60.9115C89.1406 60.7188 88.7396 60.6198 88.2969 60.6198C87.8646 60.6198 87.4687 60.7188 87.1094 60.9115C86.7448 61.1094 86.4531 61.3698 86.2344 61.7031C86.026 62.026 85.9219 62.3698 85.9219 62.7448C85.9219 63.1094 86.026 63.4531 86.2344 63.7865C86.4531 64.1094 86.7448 64.3698 87.1094 64.5781C87.4687 64.776 87.8646 64.8698 88.2969 64.8698ZM88.2969 70.3698C88.849 70.3698 89.349 70.2448 89.7969 69.9948C90.2552 69.7448 90.6146 69.4219 90.8802 69.0156C91.1562 68.6146 91.2969 68.1823 91.2969 67.724C91.2969 67.1979 91.1146 66.7135 90.7552 66.2656C90.3906 65.8073 89.9271 65.474 89.3594 65.2656C89.0104 65.1563 88.6562 65.099 88.2969 65.099C87.9479 65.099 87.5937 65.1563 87.2344 65.2656C86.6771 65.474 86.2187 65.8073 85.8594 66.2656C85.4948 66.7135 85.3177 67.1979 85.3177 67.724C85.3177 68.1823 85.4479 68.6146 85.7135 69.0156C85.9896 69.4219 86.349 69.7448 86.7969 69.9948C87.2552 70.2448 87.7552 70.3698 88.2969 70.3698Z" fill="#C8B7A1"/>
<path d="M94.6289 65.7025C94.4883 65.7025 94.3685 65.6556 94.2747 65.5566C94.1758 65.4473 94.1289 65.3223 94.1289 65.1816C94.1289 65.0566 94.1758 64.9473 94.2747 64.8483C94.3685 64.7389 94.4883 64.6816 94.6289 64.6816C94.7799 64.6816 94.8997 64.7389 94.9831 64.8483C95.0768 64.9473 95.1289 65.0566 95.1289 65.1816C95.1289 65.3223 95.0768 65.4473 94.9831 65.5566C94.8997 65.6556 94.7799 65.7025 94.6289 65.7025ZM94.6289 70.5983C94.4883 70.5983 94.3685 70.5462 94.2747 70.4525C94.1758 70.3587 94.1289 70.2389 94.1289 70.0983C94.1289 69.9629 94.1758 69.8431 94.2747 69.7441C94.3685 69.6348 94.4883 69.5775 94.6289 69.5775C94.7799 69.5775 94.8997 69.6348 94.9831 69.7441C95.0768 69.8431 95.1289 69.9629 95.1289 70.0983C95.1289 70.2389 95.0768 70.3587 94.9831 70.4525C94.8997 70.5462 94.7799 70.5983 94.6289 70.5983Z" fill="#C8B7A1"/>
<path d="M101.415 70.6406C100.874 70.6406 100.358 70.5104 99.8737 70.2448C99.3997 69.9844 98.9831 69.6146 98.6237 69.1406C98.2591 68.6719 97.9779 68.1198 97.7695 67.4948C97.5612 66.8594 97.457 66.1615 97.457 65.4115C97.457 64.6771 97.5612 63.9896 97.7695 63.349C97.9779 62.7135 98.2591 62.1563 98.6237 61.6823C98.9831 61.2135 99.3997 60.849 99.8737 60.599C100.358 60.3385 100.874 60.2031 101.415 60.2031C101.957 60.2031 102.462 60.3385 102.936 60.599C103.421 60.849 103.842 61.2135 104.207 61.6823C104.582 62.1563 104.863 62.7135 105.061 63.349C105.27 63.9896 105.374 64.6771 105.374 65.4115C105.374 66.1615 105.27 66.8594 105.061 67.4948C104.863 68.1198 104.582 68.6719 104.207 69.1406C103.842 69.6146 103.421 69.9844 102.936 70.2448C102.462 70.5104 101.957 70.6406 101.415 70.6406ZM101.415 70.4323C101.9 70.4323 102.342 70.3021 102.749 70.0365C103.165 69.7604 103.53 69.3906 103.853 68.9323C104.171 68.4635 104.421 67.9271 104.603 67.3281C104.78 66.7188 104.874 66.0781 104.874 65.4115C104.874 64.7344 104.78 64.0938 104.603 63.4948C104.421 62.901 104.171 62.3698 103.853 61.9115C103.53 61.4427 103.165 61.0729 102.749 60.8073C102.342 60.5313 101.9 60.3906 101.415 60.3906C100.941 60.3906 100.499 60.5313 100.082 60.8073C99.6654 61.0729 99.2956 61.4427 98.9779 61.9115C98.6549 62.3698 98.4049 62.901 98.2279 63.4948C98.0612 64.0938 97.9779 64.7344 97.9779 65.4115C97.9779 66.0781 98.0612 66.7188 98.2279 67.3281C98.4049 67.9271 98.6549 68.4635 98.9779 68.9323C99.2956 69.3906 99.6654 69.7604 100.082 70.0365C100.499 70.3021 100.941 70.4323 101.415 70.4323Z" fill="#C8B7A1"/>
<path d="M111.701 70.6406C111.159 70.6406 110.643 70.5104 110.159 70.2448C109.685 69.9844 109.268 69.6146 108.909 69.1406C108.544 68.6719 108.263 68.1198 108.055 67.4948C107.846 66.8594 107.742 66.1615 107.742 65.4115C107.742 64.6771 107.846 63.9896 108.055 63.349C108.263 62.7135 108.544 62.1563 108.909 61.6823C109.268 61.2135 109.685 60.849 110.159 60.599C110.643 60.3385 111.159 60.2031 111.701 60.2031C112.242 60.2031 112.747 60.3385 113.221 60.599C113.706 60.849 114.128 61.2135 114.492 61.6823C114.867 62.1563 115.148 62.7135 115.346 63.349C115.555 63.9896 115.659 64.6771 115.659 65.4115C115.659 66.1615 115.555 66.8594 115.346 67.4948C115.148 68.1198 114.867 68.6719 114.492 69.1406C114.128 69.6146 113.706 69.9844 113.221 70.2448C112.747 70.5104 112.242 70.6406 111.701 70.6406ZM111.701 70.4323C112.185 70.4323 112.628 70.3021 113.034 70.0365C113.451 69.7604 113.815 69.3906 114.138 68.9323C114.456 68.4635 114.706 67.9271 114.888 67.3281C115.065 66.7188 115.159 66.0781 115.159 65.4115C115.159 64.7344 115.065 64.0938 114.888 63.4948C114.706 62.901 114.456 62.3698 114.138 61.9115C113.815 61.4427 113.451 61.0729 113.034 60.8073C112.628 60.5313 112.185 60.3906 111.701 60.3906C111.227 60.3906 110.784 60.5313 110.367 60.8073C109.951 61.0729 109.581 61.4427 109.263 61.9115C108.94 62.3698 108.69 62.901 108.513 63.4948C108.346 64.0938 108.263 64.7344 108.263 65.4115C108.263 66.0781 108.346 66.7188 108.513 67.3281C108.69 67.9271 108.94 68.4635 109.263 68.9323C109.581 69.3906 109.951 69.7604 110.367 70.0365C110.784 70.3021 111.227 70.4323 111.701 70.4323Z" fill="#C8B7A1"/>
<path d="M124.691 70.515V70.3066H124.879C125.004 70.3066 125.155 70.2858 125.337 70.2441C125.514 70.1921 125.608 70.0983 125.608 69.9733V60.9733C125.608 60.8483 125.514 60.765 125.337 60.7233C125.155 60.6712 125.004 60.6348 124.879 60.6191H124.691V60.4316H127.046V60.6191H126.858C126.733 60.6348 126.577 60.6712 126.4 60.7233C126.217 60.765 126.129 60.8483 126.129 60.9733V64.8066H131.191V60.9733C131.191 60.8483 131.098 60.765 130.921 60.7233C130.738 60.6712 130.587 60.6348 130.462 60.6191H130.275V60.4316H132.608V60.6191H132.441C132.316 60.6348 132.155 60.6712 131.962 60.7233C131.78 60.765 131.691 60.8483 131.691 60.9733V69.9733C131.691 70.0983 131.78 70.1921 131.962 70.2441C132.155 70.2858 132.316 70.3066 132.441 70.3066H132.608V70.515H130.275V70.3066H130.462C130.587 70.3066 130.738 70.2858 130.921 70.2441C131.098 70.1921 131.191 70.0983 131.191 69.9733V65.015H126.129V69.9733C126.129 70.0983 126.217 70.1921 126.4 70.2441C126.577 70.2858 126.733 70.3066 126.858 70.3066H127.046V70.515H124.691Z" fill="#C8B7A1"/>
<path d="M139.247 70.7246C138.664 70.7246 138.112 70.584 137.602 70.3079C137.086 70.0319 136.628 69.6517 136.227 69.1621C135.836 68.6621 135.529 68.11 135.31 67.4954C135.086 66.8704 134.977 66.2194 134.977 65.5371C134.977 64.86 135.086 64.2038 135.31 63.5788C135.529 62.9538 135.836 62.4069 136.227 61.9329C136.628 61.4486 137.086 61.0684 137.602 60.7871C138.112 60.4954 138.664 60.3496 139.247 60.3496H139.372C139.956 60.3496 140.503 60.4954 141.018 60.7871C141.544 61.0684 142.003 61.4486 142.393 61.9329C142.779 62.4225 143.081 62.9746 143.289 63.5996C143.508 64.2246 143.622 64.8704 143.622 65.5371C143.622 66.2194 143.508 66.8704 143.289 67.4954C143.081 68.1204 142.779 68.6777 142.393 69.1621C142.003 69.6517 141.549 70.0319 141.039 70.3079C140.523 70.584 139.966 70.7246 139.372 70.7246H139.247ZM138.018 70.2246C138.878 70.584 139.732 70.584 140.581 70.2246C141.081 69.9902 141.518 69.6361 141.893 69.1621C142.268 68.6934 142.56 68.1413 142.768 67.5163C142.987 66.8809 143.102 66.2194 143.102 65.5371C143.102 64.7871 142.966 64.0788 142.706 63.4121C142.456 62.735 142.102 62.1517 141.643 61.6621C141.195 61.1777 140.695 60.8496 140.143 60.6829C140.003 60.6413 139.862 60.6152 139.727 60.5996C139.586 60.5892 139.44 60.5788 139.289 60.5788C139.164 60.5788 139.023 60.5892 138.872 60.5996C138.732 60.6152 138.602 60.6413 138.477 60.6829C137.904 60.8496 137.398 61.1777 136.956 61.6621C136.508 62.1517 136.154 62.735 135.893 63.4121C135.628 64.0788 135.497 64.7871 135.497 65.5371C135.497 66.2194 135.607 66.8809 135.831 67.5163C136.049 68.1413 136.352 68.6934 136.727 69.1621C137.102 69.6361 137.529 69.9902 138.018 70.2246Z" fill="#C8B7A1"/>
<path d="M145.477 70.3079C145.727 70.3079 145.94 70.2819 146.122 70.2246C146.299 70.1725 146.393 70.0788 146.393 69.9538V60.9538C146.393 60.8288 146.299 60.7454 146.122 60.7038C145.94 60.6517 145.727 60.6204 145.477 60.6204V60.4121H148.852C149.435 60.4121 149.956 60.5267 150.414 60.7454C150.883 60.9694 151.258 61.2819 151.539 61.6829C151.815 62.0892 151.956 62.5736 151.956 63.1413C151.956 63.6413 151.841 64.0944 151.622 64.4954C151.398 64.8861 151.102 65.2038 150.727 65.4538C150.352 65.6934 149.919 65.8496 149.435 65.9329C149.81 66.1152 150.133 66.3236 150.414 66.5579C150.706 66.7819 150.914 67.1569 151.039 67.6829C151.091 67.9225 151.164 68.1829 151.247 68.4746C151.331 68.7663 151.44 69.0527 151.581 69.3288C151.716 69.61 151.883 69.8444 152.081 70.0371C152.289 70.2194 152.523 70.3079 152.789 70.3079V70.5163H151.956C151.607 70.2402 151.341 69.9538 151.164 69.6621C150.982 69.36 150.841 69.0319 150.747 68.6829C150.664 68.3392 150.565 67.9642 150.456 67.5579C150.383 67.3236 150.258 67.0892 150.081 66.8496C149.914 66.5996 149.716 66.3913 149.497 66.2246C149.273 66.0579 149.065 65.9746 148.872 65.9746H146.914V69.9538C146.914 70.0788 147.003 70.1725 147.185 70.2246C147.362 70.2819 147.581 70.3079 147.831 70.3079V70.5163H145.477V70.3079ZM148.852 65.7663C149.336 65.7663 149.768 65.6517 150.143 65.4121C150.529 65.1777 150.841 64.86 151.081 64.4538C151.315 64.0527 151.435 63.6152 151.435 63.1413C151.435 62.6725 151.315 62.2454 151.081 61.8704C150.841 61.4954 150.529 61.1986 150.143 60.9746C149.768 60.7402 149.336 60.6204 148.852 60.6204H147.643C147.518 60.6361 147.362 60.6621 147.185 60.7038C147.003 60.7454 146.914 60.8392 146.914 60.9746V65.7663H148.852Z" fill="#C8B7A1"/>
<path d="M155.082 70.3079C155.29 70.3079 155.499 70.2975 155.707 70.2663C155.926 70.2402 156.066 70.1517 156.124 69.9954L159.853 60.4121H160.061V60.4329L163.77 70.0163C163.853 70.1413 163.978 70.2246 164.145 70.2663C164.322 70.2975 164.52 70.3079 164.728 70.3079V70.5163H162.374V70.3079C162.608 70.3079 162.816 70.2871 162.999 70.2454C163.191 70.2038 163.259 70.1152 163.207 69.9746L161.728 66.1413H157.853L156.353 69.9746H156.374C156.332 70.0736 156.363 70.1517 156.478 70.2038C156.603 70.2454 156.754 70.2767 156.936 70.2871C157.113 70.3027 157.28 70.3079 157.436 70.3079V70.5163H155.082V70.3079ZM161.645 65.9329L159.79 61.1413L157.936 65.9329H161.645Z" fill="#C8B7A1"/>
<path d="M169.031 70.5781C168.781 70.5104 168.536 70.4115 168.302 70.2865C168.26 70.276 168.219 70.2604 168.177 70.2448C168.146 70.2188 168.115 70.1979 168.073 70.1823C167.75 70.0052 167.479 69.849 167.26 69.724C167.036 69.5885 166.927 69.5104 166.927 69.4948L166.656 68.4115V68.3906L166.844 68.3073C167.036 68.6719 167.26 69.0052 167.51 69.3073C167.771 69.599 168.057 69.8438 168.365 70.0365C168.766 70.2865 169.208 70.4323 169.698 70.474C170.182 70.5156 170.646 70.4479 171.094 70.2656C171.536 70.0729 171.891 69.7552 172.156 69.3073C172.266 69.1302 172.354 68.9427 172.427 68.7448C172.495 68.5365 172.531 68.3281 172.531 68.1198C172.531 67.901 172.474 67.6823 172.365 67.474C172.25 67.2552 172.104 67.0521 171.927 66.8698C171.813 66.7344 171.682 66.6198 171.531 66.5365C171.375 66.4427 171.224 66.349 171.073 66.2656L168.615 65.1406C168.182 64.9219 167.844 64.6146 167.594 64.224C167.344 63.8229 167.219 63.3854 167.219 62.9115V62.7656C167.229 62.3385 167.349 61.9479 167.573 61.599C167.792 61.2552 168.083 60.974 168.448 60.7656C168.823 60.5469 169.224 60.4271 169.656 60.4115C169.708 60.401 169.76 60.3906 169.802 60.3906C169.854 60.3906 169.911 60.3906 169.969 60.3906C170.203 60.3906 170.432 60.4323 170.656 60.5156C170.875 60.5885 171.094 60.6823 171.302 60.8073C171.344 60.8229 171.375 60.8438 171.406 60.8698C171.448 60.8854 171.49 60.901 171.531 60.9115C171.792 61.0365 172.021 61.1615 172.219 61.2865C172.427 61.4115 172.536 61.474 172.552 61.474L172.719 62.2031L172.552 62.3073C172.245 61.8073 171.865 61.4115 171.406 61.1198C170.958 60.8177 170.479 60.6563 169.969 60.6406C169.885 60.6302 169.792 60.6302 169.698 60.6406C169.349 60.6563 169.016 60.776 168.698 60.9948C168.375 61.2031 168.115 61.4688 167.906 61.7865C167.708 62.1094 167.599 62.4479 167.573 62.8073V62.8906C167.573 63.2656 167.698 63.6146 167.948 63.9323C168.208 64.2552 168.516 64.5052 168.865 64.6823L171.344 65.8281C171.844 66.0677 172.229 66.3906 172.51 66.8073C172.786 67.2135 172.927 67.651 172.927 68.1198C172.927 68.6094 172.786 69.0521 172.51 69.4531C172.229 69.8438 171.87 70.151 171.427 70.3698C170.661 70.7552 169.865 70.8281 169.031 70.5781Z" fill="#C8B7A1"/>
<path d="M70.7279 89.7539C70.1289 89.7539 69.5716 89.6185 69.0612 89.3581C68.5456 89.082 68.0924 88.707 67.707 88.2331C67.3164 87.7643 67.0091 87.2122 66.7904 86.5872C66.5664 85.9518 66.457 85.2747 66.457 84.5664C66.457 83.8477 66.5664 83.1706 66.7904 82.5456C67.0091 81.9206 67.3164 81.3737 67.707 80.8997C68.0924 80.431 68.5456 80.0612 69.0612 79.7956C69.5716 79.5195 70.1289 79.3789 70.7279 79.3789C71.3372 79.3789 71.9049 79.5143 72.4362 79.7747L72.4154 79.7539C72.6758 79.8685 72.9206 79.9831 73.1445 80.1081C73.3789 80.2331 73.5664 80.3477 73.707 80.4414C73.8424 80.5247 73.9154 80.5664 73.9154 80.5664L74.1237 81.5039H74.1445L73.957 81.6289C73.7487 81.1706 73.4674 80.7956 73.1237 80.5039C72.7904 80.2018 72.4154 79.9727 71.9987 79.8164C71.582 79.6654 71.1549 79.5872 70.7279 79.5872C70.2122 79.5872 69.7279 79.7279 69.2695 80.0039C68.8216 80.2695 68.4258 80.6393 68.082 81.1081C67.7331 81.582 67.4622 82.1185 67.2695 82.7122C67.0716 83.2956 66.9779 83.9154 66.9779 84.5664C66.9779 85.181 67.0612 85.7695 67.2279 86.3372C67.4049 86.8945 67.6549 87.3997 67.9779 87.8581C68.2956 88.3164 68.6654 88.6914 69.082 88.9831C69.4987 89.2747 69.9414 89.457 70.4154 89.5247C70.4674 89.5404 70.5195 89.5456 70.5612 89.5456C70.6133 89.5456 70.6706 89.5456 70.7279 89.5456C71.3945 89.5456 72.0247 89.3477 72.6237 88.9414C73.2331 88.5247 73.7279 87.9727 74.1029 87.2747L74.2904 87.3581L74.0195 88.4622C74.0195 88.4622 73.9362 88.5195 73.7695 88.6289C73.6029 88.7279 73.3841 88.8477 73.1237 88.9831C72.8581 89.1237 72.5716 89.2643 72.2695 89.3997H72.2904C71.8008 89.6341 71.2799 89.7539 70.7279 89.7539Z" fill="#C8B7A1"/>
<path d="M75.7891 89.3587C75.9974 89.3587 76.2057 89.3483 76.4141 89.3171C76.6328 89.291 76.7734 89.2025 76.8307 89.0462L80.5599 79.4629H80.7682V79.4837L84.4766 89.0671C84.5599 89.1921 84.6849 89.2754 84.8516 89.3171C85.0286 89.3483 85.2266 89.3587 85.4349 89.3587V89.5671H83.0807V89.3587C83.3151 89.3587 83.5234 89.3379 83.7057 89.2962C83.8984 89.2546 83.9661 89.166 83.9141 89.0254L82.4349 85.1921H78.5599L77.0599 89.0254H77.0807C77.0391 89.1243 77.0703 89.2025 77.1849 89.2546C77.3099 89.2962 77.4609 89.3275 77.6432 89.3379C77.8203 89.3535 77.987 89.3587 78.1432 89.3587V89.5671H75.7891V89.3587ZM82.3516 84.9837L80.4974 80.1921L78.6432 84.9837H82.3516Z" fill="#C8B7A1"/>
<path d="M89.7383 89.6289C89.4883 89.5612 89.2435 89.4622 89.0091 89.3372C88.9674 89.3268 88.9258 89.3112 88.8841 89.2956C88.8529 89.2695 88.8216 89.2487 88.7799 89.2331C88.457 89.056 88.1862 88.8997 87.9674 88.7747C87.7435 88.6393 87.6341 88.5612 87.6341 88.5456L87.3633 87.4622V87.4414L87.5508 87.3581C87.7435 87.7227 87.9674 88.056 88.2174 88.3581C88.4779 88.6497 88.7643 88.8945 89.0716 89.0872C89.4727 89.3372 89.9154 89.4831 90.4049 89.5247C90.8893 89.5664 91.3529 89.4987 91.8008 89.3164C92.2435 89.1237 92.5977 88.806 92.8633 88.3581C92.9727 88.181 93.0612 87.9935 93.1341 87.7956C93.2018 87.5872 93.2383 87.3789 93.2383 87.1706C93.2383 86.9518 93.181 86.7331 93.0716 86.5247C92.957 86.306 92.8112 86.1029 92.6341 85.9206C92.5195 85.7852 92.3893 85.6706 92.2383 85.5872C92.082 85.4935 91.931 85.3997 91.7799 85.3164L89.3216 84.1914C88.8893 83.9727 88.5508 83.6654 88.3008 83.2747C88.0508 82.8737 87.9258 82.4362 87.9258 81.9622V81.8164C87.9362 81.3893 88.056 80.9987 88.2799 80.6497C88.4987 80.306 88.7904 80.0247 89.1549 79.8164C89.5299 79.5977 89.931 79.4779 90.3633 79.4622C90.4154 79.4518 90.4674 79.4414 90.5091 79.4414C90.5612 79.4414 90.6185 79.4414 90.6758 79.4414C90.9102 79.4414 91.1393 79.4831 91.3633 79.5664C91.582 79.6393 91.8008 79.7331 92.0091 79.8581C92.0508 79.8737 92.082 79.8945 92.1133 79.9206C92.1549 79.9362 92.1966 79.9518 92.2383 79.9622C92.4987 80.0872 92.7279 80.2122 92.9258 80.3372C93.1341 80.4622 93.2435 80.5247 93.2591 80.5247L93.4258 81.2539L93.2591 81.3581C92.9518 80.8581 92.5716 80.4622 92.1133 80.1706C91.6654 79.8685 91.1862 79.707 90.6758 79.6914C90.5924 79.681 90.4987 79.681 90.4049 79.6914C90.056 79.707 89.7227 79.8268 89.4049 80.0456C89.082 80.2539 88.8216 80.5195 88.6133 80.8372C88.4154 81.1602 88.306 81.4987 88.2799 81.8581V81.9414C88.2799 82.3164 88.4049 82.6654 88.6549 82.9831C88.9154 83.306 89.2227 83.556 89.5716 83.7331L92.0508 84.8789C92.5508 85.1185 92.9362 85.4414 93.2174 85.8581C93.4935 86.2643 93.6341 86.7018 93.6341 87.1706C93.6341 87.6602 93.4935 88.1029 93.2174 88.5039C92.9362 88.8945 92.5768 89.2018 92.1341 89.4206C91.3685 89.806 90.5716 89.8789 89.7383 89.6289Z" fill="#C8B7A1"/>
<path d="M94.9922 89.3587C95.2005 89.3587 95.4089 89.3483 95.6172 89.3171C95.8359 89.291 95.9766 89.2025 96.0339 89.0462L99.763 79.4629H99.9714V79.4837L103.68 89.0671C103.763 89.1921 103.888 89.2754 104.055 89.3171C104.232 89.3483 104.43 89.3587 104.638 89.3587V89.5671H102.284V89.3587C102.518 89.3587 102.727 89.3379 102.909 89.2962C103.102 89.2546 103.169 89.166 103.117 89.0254L101.638 85.1921H97.763L96.263 89.0254H96.2839C96.2422 89.1243 96.2734 89.2025 96.388 89.2546C96.513 89.2962 96.6641 89.3275 96.8464 89.3379C97.0234 89.3535 97.1901 89.3587 97.3464 89.3587V89.5671H94.9922V89.3587ZM101.555 84.9837L99.7005 80.1921L97.8464 84.9837H101.555Z" fill="#C8B7A1"/>
<path d="M115.84 89.5677H113.652V89.3594H113.84C113.975 89.3594 114.132 89.3385 114.298 89.2969C114.475 89.2448 114.569 89.151 114.569 89.026V80.026C114.569 79.901 114.475 79.8177 114.298 79.776C114.132 79.724 113.975 79.6875 113.84 79.6719H113.652V79.4844H117.069C117.637 79.4844 118.163 79.6198 118.652 79.8802C119.152 80.1302 119.59 80.4948 119.965 80.9635C120.34 81.4219 120.632 81.9583 120.84 82.5677C121.059 83.1823 121.173 83.8333 121.173 84.526C121.173 85.224 121.059 85.875 120.84 86.4844C120.632 87.099 120.34 87.6406 119.965 88.1094C119.59 88.5677 119.152 88.9323 118.652 89.1927C118.163 89.4583 117.637 89.5885 117.069 89.5885H115.84V89.5677ZM117.069 89.3594C117.111 89.3594 117.152 89.3594 117.194 89.3594C117.236 89.3594 117.277 89.3594 117.319 89.3594C117.788 89.3073 118.225 89.1406 118.632 88.8594C119.033 88.5677 119.387 88.2031 119.694 87.7552C119.996 87.3125 120.236 86.8125 120.402 86.2552C120.579 85.7031 120.673 85.125 120.673 84.526C120.673 83.901 120.574 83.3073 120.382 82.7344C120.199 82.151 119.944 81.6302 119.611 81.1719C119.277 80.7135 118.892 80.3542 118.465 80.0885C118.033 79.8281 117.569 79.6875 117.069 79.6719V79.6927H115.84V79.6719H115.819C115.694 79.6875 115.538 79.724 115.361 79.776C115.178 79.8177 115.09 79.901 115.09 80.026V89.026C115.09 89.151 115.178 89.2448 115.361 89.2969C115.538 89.3385 115.694 89.3594 115.819 89.3594H117.069Z" fill="#C8B7A1"/>
<path d="M123.398 89.3587H123.586C123.711 89.3587 123.862 89.3379 124.044 89.2962C124.221 89.2441 124.315 89.1504 124.315 89.0254V80.0254C124.315 79.9421 124.263 79.8796 124.169 79.8379C124.07 79.7858 123.961 79.7493 123.836 79.7337C123.721 79.7077 123.617 79.6921 123.523 79.6921C123.44 79.6816 123.398 79.6712 123.398 79.6712V79.4629H128.919V80.3379H128.815C128.815 80.3118 128.779 80.2493 128.711 80.1504C128.638 80.041 128.555 79.9368 128.461 79.8379C128.362 79.7285 128.263 79.6712 128.169 79.6712H124.815V83.8587H128.19C128.273 83.8587 128.341 83.8066 128.398 83.6921C128.466 83.5671 128.503 83.5046 128.503 83.5046H128.586V84.4004H128.503C128.503 84.4004 128.466 84.3483 128.398 84.2337C128.341 84.1243 128.273 84.0671 128.19 84.0671H124.815V89.3587H128.482C128.617 89.3587 128.753 89.3118 128.878 89.2129C129.003 89.1035 129.107 88.9941 129.19 88.8796C129.273 88.7702 129.32 88.7025 129.336 88.6712H129.586L129.023 89.5671H123.398V89.3587Z" fill="#C8B7A1"/>
<path d="M131.941 89.3587H132.129C132.254 89.3483 132.405 89.3171 132.587 89.2754C132.764 89.2233 132.858 89.1296 132.858 89.0046V80.0254C132.858 79.9421 132.806 79.8743 132.712 79.8171C132.613 79.765 132.504 79.7285 132.379 79.7129C132.264 79.6868 132.16 79.6712 132.066 79.6712C131.983 79.6712 131.941 79.6712 131.941 79.6712V79.4629H134.275V79.6712C134.275 79.6712 134.223 79.6712 134.129 79.6712C134.046 79.6712 133.941 79.6868 133.816 79.7129C133.691 79.7285 133.577 79.765 133.483 79.8171C133.4 79.8743 133.358 79.9421 133.358 80.0254V89.3587H137.066C137.202 89.3587 137.337 89.3118 137.462 89.2129C137.587 89.1035 137.691 88.9941 137.775 88.8796C137.858 88.7546 137.905 88.6868 137.921 88.6712V88.6504H138.171L137.608 89.5671H131.941V89.3587Z" fill="#C8B7A1"/>
<path d="M147.188 89.3587H147.375C147.5 89.3483 147.651 89.3171 147.833 89.2754C148.01 89.2233 148.104 89.1296 148.104 89.0046V80.0254C148.104 79.9421 148.052 79.8743 147.958 79.8171C147.859 79.765 147.75 79.7285 147.625 79.7129C147.51 79.6868 147.406 79.6712 147.313 79.6712C147.229 79.6712 147.188 79.6712 147.188 79.6712V79.4629H149.521V79.6712C149.521 79.6712 149.469 79.6712 149.375 79.6712C149.292 79.6712 149.188 79.6868 149.063 79.7129C148.938 79.7285 148.823 79.765 148.729 79.8171C148.646 79.8743 148.604 79.9421 148.604 80.0254V89.3587H152.313C152.448 89.3587 152.583 89.3118 152.708 89.2129C152.833 89.1035 152.938 88.9941 153.021 88.8796C153.104 88.7546 153.151 88.6868 153.167 88.6712V88.6504H153.417L152.854 89.5671H147.188V89.3587Z" fill="#C8B7A1"/>
<path d="M155.492 89.3587C155.701 89.3587 155.909 89.3483 156.117 89.3171C156.336 89.291 156.477 89.2025 156.534 89.0462L160.263 79.4629H160.471V79.4837L164.18 89.0671C164.263 89.1921 164.388 89.2754 164.555 89.3171C164.732 89.3483 164.93 89.3587 165.138 89.3587V89.5671H162.784V89.3587C163.018 89.3587 163.227 89.3379 163.409 89.2962C163.602 89.2546 163.669 89.166 163.617 89.0254L162.138 85.1921H158.263L156.763 89.0254H156.784C156.742 89.1243 156.773 89.2025 156.888 89.2546C157.013 89.2962 157.164 89.3275 157.346 89.3379C157.523 89.3535 157.69 89.3587 157.846 89.3587V89.5671H155.492V89.3587ZM162.055 84.9837L160.201 80.1921L158.346 84.9837H162.055Z" fill="#C8B7A1"/>
<path d="M171.193 89.7344C170.609 89.7344 170.057 89.599 169.547 89.3385C169.031 89.0625 168.573 88.6875 168.172 88.2135C167.781 87.7448 167.474 87.1927 167.255 86.5677C167.031 85.9427 166.922 85.2708 166.922 84.5469C166.922 83.8385 167.031 83.1719 167.255 82.5469C167.474 81.9115 167.781 81.3542 168.172 80.8802C168.573 80.4115 169.031 80.0417 169.547 79.776C170.057 79.5 170.609 79.3594 171.193 79.3594C171.484 79.3594 171.776 79.3958 172.068 79.4635C172.37 79.5365 172.656 79.6302 172.922 79.7552L172.88 79.7344C173.141 79.849 173.385 79.974 173.609 80.1094C173.844 80.2344 174.031 80.3385 174.172 80.4219C174.307 80.5052 174.38 80.5469 174.38 80.5469L174.609 81.4844L174.422 81.6094C174.214 81.1667 173.932 80.7917 173.589 80.4844C173.255 80.1823 172.88 79.9531 172.464 79.7969C172.047 79.6458 171.62 79.5677 171.193 79.5677C170.677 79.5677 170.193 79.7083 169.734 79.9844C169.286 80.2656 168.891 80.6406 168.547 81.1094C168.198 81.5677 167.927 82.099 167.734 82.6927C167.536 83.2917 167.443 83.9115 167.443 84.5469C167.443 85.1615 167.526 85.75 167.693 86.3177C167.87 86.8906 168.12 87.401 168.443 87.8594C168.76 88.3073 169.13 88.6719 169.547 88.9635C169.964 89.2552 170.406 89.4375 170.88 89.5052C170.932 89.5208 170.984 89.526 171.026 89.526C171.078 89.526 171.135 89.526 171.193 89.526C171.578 89.526 171.948 89.4635 172.297 89.3385C172.656 89.2031 172.995 89.0156 173.318 88.776C173.859 88.349 174.13 87.7865 174.13 87.0885V86.0469C174.13 85.9219 174.036 85.8385 173.859 85.7969C173.677 85.7448 173.516 85.7135 173.38 85.7135H173.214V85.5052H175.547V85.7135H175.38C175.255 85.7135 175.099 85.7448 174.922 85.7969C174.74 85.8385 174.651 85.9219 174.651 86.0469V88.2344C174.651 88.2344 174.552 88.3073 174.359 88.4427C174.177 88.5677 173.943 88.724 173.651 88.901C173.359 89.0833 173.057 89.2448 172.755 89.3802C172.266 89.6146 171.745 89.7344 171.193 89.7344Z" fill="#C8B7A1"/>
<path d="M182.181 89.7754C181.598 89.7754 181.046 89.6348 180.535 89.3587C180.02 89.0827 179.561 88.7025 179.16 88.2129C178.77 87.7129 178.462 87.1608 178.243 86.5462C178.02 85.9212 177.91 85.2702 177.91 84.5879C177.91 83.9108 178.02 83.2546 178.243 82.6296C178.462 82.0046 178.77 81.4577 179.16 80.9837C179.561 80.4993 180.02 80.1191 180.535 79.8379C181.046 79.5462 181.598 79.4004 182.181 79.4004H182.306C182.889 79.4004 183.436 79.5462 183.952 79.8379C184.478 80.1191 184.936 80.4993 185.327 80.9837C185.712 81.4733 186.014 82.0254 186.223 82.6504C186.441 83.2754 186.556 83.9212 186.556 84.5879C186.556 85.2702 186.441 85.9212 186.223 86.5462C186.014 87.1712 185.712 87.7285 185.327 88.2129C184.936 88.7025 184.483 89.0827 183.973 89.3587C183.457 89.6348 182.9 89.7754 182.306 89.7754H182.181ZM180.952 89.2754C181.811 89.6348 182.665 89.6348 183.514 89.2754C184.014 89.041 184.452 88.6868 184.827 88.2129C185.202 87.7441 185.493 87.1921 185.702 86.5671C185.921 85.9316 186.035 85.2702 186.035 84.5879C186.035 83.8379 185.9 83.1296 185.639 82.4629C185.389 81.7858 185.035 81.2025 184.577 80.7129C184.129 80.2285 183.629 79.9004 183.077 79.7337C182.936 79.6921 182.796 79.666 182.66 79.6504C182.52 79.64 182.374 79.6296 182.223 79.6296C182.098 79.6296 181.957 79.64 181.806 79.6504C181.665 79.666 181.535 79.6921 181.41 79.7337C180.837 79.9004 180.332 80.2285 179.889 80.7129C179.441 81.2025 179.087 81.7858 178.827 82.4629C178.561 83.1296 178.431 83.8379 178.431 84.5879C178.431 85.2702 178.54 85.9316 178.764 86.5671C178.983 87.1921 179.285 87.7441 179.66 88.2129C180.035 88.6868 180.462 89.041 180.952 89.2754Z" fill="#C8B7A1"/>
<path d="M86.7826 108.807C86.1836 108.807 85.6263 108.671 85.1159 108.411C84.6003 108.135 84.1471 107.76 83.7617 107.286C83.3711 106.817 83.0638 106.265 82.8451 105.64C82.6211 105.005 82.5117 104.327 82.5117 103.619C82.5117 102.9 82.6211 102.223 82.8451 101.598C83.0638 100.973 83.3711 100.426 83.7617 99.9525C84.1471 99.4837 84.6003 99.1139 85.1159 98.8483C85.6263 98.5723 86.1836 98.4316 86.7826 98.4316C87.3919 98.4316 87.9596 98.5671 88.4909 98.8275L88.4701 98.8066C88.7305 98.9212 88.9753 99.0358 89.1992 99.1608C89.4336 99.2858 89.6211 99.4004 89.7617 99.4941C89.8971 99.5775 89.9701 99.6191 89.9701 99.6191L90.1784 100.557H90.1992L90.0117 100.682C89.8034 100.223 89.5221 99.8483 89.1784 99.5566C88.8451 99.2546 88.4701 99.0254 88.0534 98.8691C87.6367 98.7181 87.2096 98.64 86.7826 98.64C86.2669 98.64 85.7826 98.7806 85.3242 99.0566C84.8763 99.3223 84.4805 99.6921 84.1367 100.161C83.7878 100.635 83.5169 101.171 83.3242 101.765C83.1263 102.348 83.0326 102.968 83.0326 103.619C83.0326 104.234 83.1159 104.822 83.2826 105.39C83.4596 105.947 83.7096 106.452 84.0326 106.911C84.3503 107.369 84.7201 107.744 85.1367 108.036C85.5534 108.327 85.9961 108.51 86.4701 108.577C86.5221 108.593 86.5742 108.598 86.6159 108.598C86.668 108.598 86.7253 108.598 86.7826 108.598C87.4492 108.598 88.0794 108.4 88.6784 107.994C89.2878 107.577 89.7826 107.025 90.1576 106.327L90.3451 106.411L90.0742 107.515C90.0742 107.515 89.9909 107.572 89.8242 107.682C89.6576 107.781 89.4388 107.9 89.1784 108.036C88.9128 108.176 88.6263 108.317 88.3242 108.452H88.3451C87.8555 108.687 87.3346 108.807 86.7826 108.807Z" fill="#C8B7A1"/>
<path d="M92.6992 108.618V108.41H92.8867C93.0117 108.41 93.1628 108.389 93.3451 108.348C93.5221 108.296 93.6159 108.202 93.6159 108.077V99.0768C93.6159 98.9518 93.5221 98.8685 93.3451 98.8268C93.1628 98.7747 93.0117 98.7383 92.8867 98.7227H92.6992V98.5352H95.0534V98.7227H94.8659C94.7409 98.7383 94.5846 98.7747 94.4076 98.8268C94.2253 98.8685 94.1367 98.9518 94.1367 99.0768V102.91H99.1992V99.0768C99.1992 98.9518 99.1055 98.8685 98.9284 98.8268C98.7461 98.7747 98.5951 98.7383 98.4701 98.7227H98.2826V98.5352H100.616V98.7227H100.449C100.324 98.7383 100.163 98.7747 99.9701 98.8268C99.7878 98.8685 99.6992 98.9518 99.6992 99.0768V108.077C99.6992 108.202 99.7878 108.296 99.9701 108.348C100.163 108.389 100.324 108.41 100.449 108.41H100.616V108.618H98.2826V108.41H98.4701C98.5951 108.41 98.7461 108.389 98.9284 108.348C99.1055 108.296 99.1992 108.202 99.1992 108.077V103.118H94.1367V108.077C94.1367 108.202 94.2253 108.296 94.4076 108.348C94.5846 108.389 94.7409 108.41 94.8659 108.41H95.0534V108.618H92.6992Z" fill="#C8B7A1"/>
<path d="M107.259 108.826C106.676 108.826 106.124 108.686 105.613 108.41C105.098 108.133 104.639 107.753 104.238 107.264C103.848 106.764 103.54 106.212 103.322 105.597C103.098 104.972 102.988 104.321 102.988 103.639C102.988 102.962 103.098 102.305 103.322 101.68C103.54 101.055 103.848 100.508 104.238 100.035C104.639 99.5501 105.098 99.1699 105.613 98.8887C106.124 98.597 106.676 98.4512 107.259 98.4512H107.384C107.967 98.4512 108.514 98.597 109.03 98.8887C109.556 99.1699 110.014 99.5501 110.405 100.035C110.79 100.524 111.092 101.076 111.301 101.701C111.52 102.326 111.634 102.972 111.634 103.639C111.634 104.321 111.52 104.972 111.301 105.597C111.092 106.222 110.79 106.779 110.405 107.264C110.014 107.753 109.561 108.133 109.051 108.41C108.535 108.686 107.978 108.826 107.384 108.826H107.259ZM106.03 108.326C106.889 108.686 107.743 108.686 108.592 108.326C109.092 108.092 109.53 107.738 109.905 107.264C110.28 106.795 110.572 106.243 110.78 105.618C110.999 104.982 111.113 104.321 111.113 103.639C111.113 102.889 110.978 102.18 110.717 101.514C110.467 100.837 110.113 100.253 109.655 99.7637C109.207 99.2793 108.707 98.9512 108.155 98.7845C108.014 98.7428 107.874 98.7168 107.738 98.7012C107.598 98.6908 107.452 98.6803 107.301 98.6803C107.176 98.6803 107.035 98.6908 106.884 98.7012C106.743 98.7168 106.613 98.7428 106.488 98.7845C105.915 98.9512 105.41 99.2793 104.967 99.7637C104.52 100.253 104.165 100.837 103.905 101.514C103.639 102.18 103.509 102.889 103.509 103.639C103.509 104.321 103.618 104.982 103.842 105.618C104.061 106.243 104.363 106.795 104.738 107.264C105.113 107.738 105.54 108.092 106.03 108.326Z" fill="#C8B7A1"/>
<path d="M113.863 108.41C114.113 108.41 114.327 108.383 114.509 108.326C114.686 108.274 114.78 108.18 114.78 108.055V99.0553C114.78 98.9303 114.686 98.847 114.509 98.8053C114.327 98.7533 114.113 98.722 113.863 98.722V98.5137H117.238C117.806 98.5137 118.327 98.6283 118.801 98.847C119.27 99.071 119.639 99.3835 119.905 99.7845C120.181 100.191 120.322 100.675 120.322 101.243C120.322 101.743 120.207 102.196 119.988 102.597C119.78 102.988 119.488 103.305 119.113 103.555C118.738 103.795 118.306 103.951 117.822 104.035C118.181 104.217 118.509 104.425 118.801 104.66C119.092 104.883 119.29 105.258 119.405 105.785C119.473 106.024 119.551 106.285 119.634 106.576C119.717 106.868 119.827 107.154 119.967 107.43C120.103 107.712 120.27 107.946 120.467 108.139C120.676 108.321 120.91 108.41 121.176 108.41V108.618H120.342C119.993 108.342 119.728 108.055 119.551 107.764C119.368 107.462 119.228 107.133 119.134 106.785C119.051 106.441 118.947 106.066 118.822 105.66C118.764 105.425 118.645 105.191 118.467 104.951C118.301 104.701 118.103 104.493 117.884 104.326C117.66 104.16 117.452 104.076 117.259 104.076H115.301V108.055C115.301 108.18 115.389 108.274 115.572 108.326C115.749 108.383 115.967 108.41 116.217 108.41V108.618H113.863V108.41ZM117.238 103.868C117.707 103.868 118.139 103.753 118.53 103.514C118.915 103.279 119.228 102.962 119.467 102.555C119.702 102.154 119.822 101.717 119.822 101.243C119.822 100.774 119.702 100.347 119.467 99.972C119.228 99.597 118.915 99.3001 118.53 99.0762C118.139 98.8418 117.707 98.722 117.238 98.722H116.03C115.905 98.7376 115.749 98.7637 115.572 98.8053C115.389 98.847 115.301 98.9408 115.301 99.0762V103.868H117.238Z" fill="#C8B7A1"/>
<path d="M123.25 108.41C123.5 108.41 123.714 108.383 123.896 108.326C124.073 108.274 124.167 108.18 124.167 108.055V99.0553C124.167 98.9303 124.073 98.847 123.896 98.8053C123.714 98.7533 123.5 98.722 123.25 98.722V98.5137H126.625C127.193 98.5137 127.714 98.6283 128.188 98.847C128.656 99.071 129.026 99.3835 129.292 99.7845C129.568 100.191 129.708 100.675 129.708 101.243C129.708 101.743 129.594 102.196 129.375 102.597C129.167 102.988 128.875 103.305 128.5 103.555C128.125 103.795 127.693 103.951 127.208 104.035C127.568 104.217 127.896 104.425 128.188 104.66C128.479 104.883 128.677 105.258 128.792 105.785C128.859 106.024 128.938 106.285 129.021 106.576C129.104 106.868 129.214 107.154 129.354 107.43C129.49 107.712 129.656 107.946 129.854 108.139C130.063 108.321 130.297 108.41 130.563 108.41V108.618H129.729C129.38 108.342 129.115 108.055 128.938 107.764C128.755 107.462 128.615 107.133 128.521 106.785C128.438 106.441 128.333 106.066 128.208 105.66C128.151 105.425 128.031 105.191 127.854 104.951C127.688 104.701 127.49 104.493 127.271 104.326C127.047 104.16 126.839 104.076 126.646 104.076H124.688V108.055C124.688 108.18 124.776 108.274 124.958 108.326C125.135 108.383 125.354 108.41 125.604 108.41V108.618H123.25V108.41ZM126.625 103.868C127.094 103.868 127.526 103.753 127.917 103.514C128.302 103.279 128.615 102.962 128.854 102.555C129.089 102.154 129.208 101.717 129.208 101.243C129.208 100.774 129.089 100.347 128.854 99.972C128.615 99.597 128.302 99.3001 127.917 99.0762C127.526 98.8418 127.094 98.722 126.625 98.722H125.417C125.292 98.7376 125.135 98.7637 124.958 98.8053C124.776 98.847 124.688 98.9408 124.688 99.0762V103.868H126.625Z" fill="#C8B7A1"/>
<path d="M132.637 108.41H132.824C132.949 108.41 133.1 108.389 133.283 108.348C133.46 108.296 133.553 108.202 133.553 108.077V99.0768C133.553 98.9518 133.46 98.8685 133.283 98.8268C133.1 98.7747 132.949 98.7383 132.824 98.7227H132.637V98.5352H134.991V98.7227H134.803C134.678 98.7383 134.522 98.7747 134.345 98.8268C134.163 98.8685 134.074 98.9518 134.074 99.0768V108.077C134.074 108.202 134.163 108.296 134.345 108.348C134.522 108.389 134.678 108.41 134.803 108.41H134.991V108.618H132.637V108.41Z" fill="#C8B7A1"/>
<path d="M137.352 108.41H137.539C137.664 108.399 137.815 108.368 137.997 108.326C138.174 108.274 138.268 108.18 138.268 108.055V99.0762C138.268 98.9928 138.216 98.9251 138.122 98.8678C138.023 98.8158 137.914 98.7793 137.789 98.7637C137.674 98.7376 137.57 98.722 137.477 98.722C137.393 98.722 137.352 98.722 137.352 98.722V98.5137H139.685V98.722C139.685 98.722 139.633 98.722 139.539 98.722C139.456 98.722 139.352 98.7376 139.227 98.7637C139.102 98.7793 138.987 98.8158 138.893 98.8678C138.81 98.9251 138.768 98.9928 138.768 99.0762V108.41H142.477C142.612 108.41 142.747 108.363 142.872 108.264C142.997 108.154 143.102 108.045 143.185 107.93C143.268 107.805 143.315 107.738 143.331 107.722V107.701H143.581L143.018 108.618H137.352V108.41Z" fill="#C8B7A1"/>
<path d="M145.797 108.41H145.984C146.109 108.399 146.26 108.368 146.443 108.326C146.62 108.274 146.714 108.18 146.714 108.055V99.0762C146.714 98.9928 146.661 98.9251 146.568 98.8678C146.469 98.8158 146.359 98.7793 146.234 98.7637C146.12 98.7376 146.016 98.722 145.922 98.722C145.839 98.722 145.797 98.722 145.797 98.722V98.5137H148.13V98.722C148.13 98.722 148.078 98.722 147.984 98.722C147.901 98.722 147.797 98.7376 147.672 98.7637C147.547 98.7793 147.432 98.8158 147.339 98.8678C147.255 98.9251 147.214 98.9928 147.214 99.0762V108.41H150.922C151.057 108.41 151.193 108.363 151.318 108.264C151.443 108.154 151.547 108.045 151.63 107.93C151.714 107.805 151.76 107.738 151.776 107.722V107.701H152.026L151.464 108.618H145.797V108.41Z" fill="#C8B7A1"/>
<path d="M157.513 108.826C156.93 108.826 156.378 108.686 155.867 108.41C155.352 108.133 154.893 107.753 154.492 107.264C154.102 106.764 153.794 106.212 153.576 105.597C153.352 104.972 153.242 104.321 153.242 103.639C153.242 102.962 153.352 102.305 153.576 101.68C153.794 101.055 154.102 100.508 154.492 100.035C154.893 99.5501 155.352 99.1699 155.867 98.8887C156.378 98.597 156.93 98.4512 157.513 98.4512H157.638C158.221 98.4512 158.768 98.597 159.284 98.8887C159.81 99.1699 160.268 99.5501 160.659 100.035C161.044 100.524 161.346 101.076 161.555 101.701C161.773 102.326 161.888 102.972 161.888 103.639C161.888 104.321 161.773 104.972 161.555 105.597C161.346 106.222 161.044 106.779 160.659 107.264C160.268 107.753 159.815 108.133 159.305 108.41C158.789 108.686 158.232 108.826 157.638 108.826H157.513ZM156.284 108.326C157.143 108.686 157.997 108.686 158.846 108.326C159.346 108.092 159.784 107.738 160.159 107.264C160.534 106.795 160.826 106.243 161.034 105.618C161.253 104.982 161.367 104.321 161.367 103.639C161.367 102.889 161.232 102.18 160.971 101.514C160.721 100.837 160.367 100.253 159.909 99.7637C159.461 99.2793 158.961 98.9512 158.409 98.7845C158.268 98.7428 158.128 98.7168 157.992 98.7012C157.852 98.6908 157.706 98.6803 157.555 98.6803C157.43 98.6803 157.289 98.6908 157.138 98.7012C156.997 98.7168 156.867 98.7428 156.742 98.7845C156.169 98.9512 155.664 99.2793 155.221 99.7637C154.773 100.253 154.419 100.837 154.159 101.514C153.893 102.18 153.763 102.889 153.763 103.639C153.763 104.321 153.872 104.982 154.096 105.618C154.315 106.243 154.617 106.795 154.992 107.264C155.367 107.738 155.794 108.092 156.284 108.326Z" fill="#C8B7A1"/>
<path d="M165.674 108.286C165.352 108.109 165.081 107.952 164.862 107.827C164.638 107.692 164.529 107.614 164.529 107.598L164.258 106.515V106.494L164.445 106.411C164.638 106.775 164.862 107.109 165.112 107.411C165.372 107.702 165.659 107.947 165.966 108.14C166.383 108.39 166.831 108.536 167.32 108.577C167.82 108.619 168.279 108.551 168.695 108.369C169.122 108.161 169.471 107.859 169.737 107.452C169.997 107.051 170.133 106.64 170.133 106.223C170.133 105.838 169.987 105.484 169.695 105.161C169.414 104.827 169.076 104.567 168.674 104.369L166.216 103.244C165.784 103.025 165.445 102.718 165.195 102.327C164.945 101.926 164.82 101.489 164.82 101.015V100.869C164.831 100.4 164.966 99.9837 165.216 99.6191C165.466 99.2598 165.789 98.9837 166.195 98.7858C166.612 98.5931 167.07 98.4941 167.57 98.4941C167.805 98.4941 168.034 98.5358 168.258 98.6191C168.477 98.6921 168.695 98.7858 168.904 98.9108C168.945 98.9264 168.977 98.9473 169.008 98.9733C169.049 98.9889 169.091 99.0046 169.133 99.015C169.393 99.14 169.622 99.265 169.82 99.39C170.029 99.515 170.138 99.5775 170.154 99.5775L170.32 100.307L170.154 100.411C169.846 99.9108 169.466 99.515 169.008 99.2233C168.56 98.9212 168.081 98.7598 167.57 98.7441C167.221 98.7441 166.862 98.8431 166.487 99.0358C166.122 99.2337 165.82 99.4941 165.57 99.8275C165.331 100.15 165.201 100.51 165.174 100.911V100.994C165.174 101.369 165.299 101.718 165.549 102.036C165.81 102.359 166.117 102.609 166.466 102.786L168.945 103.932C169.445 104.171 169.831 104.494 170.112 104.911C170.388 105.317 170.529 105.755 170.529 106.223C170.529 106.713 170.388 107.156 170.112 107.557C169.831 107.947 169.471 108.255 169.029 108.473C168.471 108.734 167.904 108.838 167.32 108.786C166.737 108.744 166.185 108.577 165.674 108.286Z" fill="#C8B7A1"/>
</g>
<mask id="mask6_2310_3034" style="mask-type:luminance" maskUnits="userSpaceOnUse" x="30" y="182" width="193" height="52">
<path d="M222.746 182H30.7461V234H222.746V182Z" fill="white"/>
</mask>
<g mask="url(#mask6_2310_3034)">
<path d="M32.1562 193.968C32.5729 193.984 32.875 193.885 33.0729 193.676C33.2656 193.468 33.3646 193.208 33.3646 192.885V186.343C33.3646 186.01 33.25 185.755 33.0313 185.572C32.8229 185.395 32.5313 185.301 32.1562 185.301V185.197H37.4271C37.6875 185.197 37.9479 185.234 38.1979 185.301C38.4583 185.359 38.7083 185.458 38.9479 185.593C39.375 185.843 39.7604 186.176 40.0938 186.593C40.4115 187.01 40.6563 187.484 40.8229 188.01C40.9896 188.525 41.0729 189.067 41.0729 189.635C41.0729 190.817 40.7448 191.833 40.0938 192.676C39.9375 192.885 39.7656 193.083 39.5729 193.26C39.375 193.426 39.1667 193.567 38.9479 193.676C38.7083 193.817 38.4063 193.921 38.0313 193.989C37.6563 194.046 37.2813 194.072 36.9063 194.072H32.1562V193.968ZM36.9896 193.968C37.2813 193.968 37.5313 193.895 37.7396 193.739C37.9583 193.572 38.1406 193.364 38.2813 193.114C38.4323 192.854 38.5521 192.562 38.6354 192.239C38.7292 191.921 38.8021 191.604 38.8438 191.281C38.8958 190.947 38.9323 190.645 38.9479 190.364C38.9583 190.072 38.9688 189.833 38.9688 189.635C38.9688 189.442 38.9583 189.208 38.9479 188.926C38.9479 188.65 38.9271 188.354 38.8854 188.031C38.8542 187.697 38.8021 187.374 38.7188 187.051C38.6458 186.734 38.5521 186.442 38.4271 186.176C38.3021 185.916 38.1354 185.708 37.9271 185.551C37.7292 185.4 37.4896 185.322 37.1979 185.322H35.4896V192.906C35.5 193.255 35.5781 193.505 35.7188 193.656C35.8698 193.796 36.0573 193.885 36.2813 193.926C36.5156 193.958 36.75 193.968 36.9896 193.968Z" fill="#C8B7A1"/>
<path d="M42.7969 193.989C43.1719 193.989 43.4635 193.9 43.6719 193.718C43.8906 193.541 44.0052 193.26 44.0052 192.885V186.385C44.0052 186.15 43.9635 185.963 43.8802 185.822C43.7969 185.671 43.6927 185.562 43.5677 185.489C43.4531 185.421 43.3385 185.374 43.2135 185.343C43.0885 185.317 42.9896 185.301 42.9219 185.301H42.7969V185.197H47.2552C47.6719 185.197 48.0677 185.239 48.4427 185.322C48.8281 185.406 49.1771 185.541 49.4844 185.718C49.7865 185.9 50.0312 186.135 50.2135 186.426C50.3906 186.718 50.4844 187.072 50.4844 187.489C50.4844 187.937 50.3698 188.317 50.151 188.635C49.9271 188.942 49.6354 189.192 49.276 189.385C48.9115 189.567 48.526 189.692 48.1094 189.76C48.5937 189.775 48.9844 189.854 49.276 189.989C49.5781 190.13 49.8229 190.354 50.0052 190.656C50.1979 190.947 50.3802 191.359 50.5469 191.885C50.724 192.426 50.901 192.854 51.0677 193.156C51.2448 193.463 51.4427 193.676 51.651 193.801C51.8698 193.926 52.1354 193.989 52.4427 193.989V194.072H50.5885C50.1979 194.072 49.8229 193.916 49.4635 193.593C49.1146 193.275 48.776 192.708 48.4427 191.885C48.3021 191.484 48.1927 191.15 48.1094 190.885C48.0365 190.624 47.974 190.416 47.9219 190.26C47.8646 190.109 47.7969 189.999 47.7135 189.926C47.6302 189.859 47.4948 189.822 47.3177 189.822H46.1302V192.906C46.1302 193.27 46.2135 193.541 46.3802 193.718C46.5573 193.9 46.8437 193.989 47.2344 193.989V194.072H42.7969V193.989ZM47.2552 189.739C47.4896 189.739 47.6927 189.645 47.8594 189.447C48.0365 189.239 48.1719 188.968 48.2552 188.635C48.3385 188.291 48.3802 187.906 48.3802 187.489C48.3802 187.072 48.3385 186.697 48.2552 186.364C48.1719 186.031 48.0365 185.775 47.8594 185.593C47.6927 185.4 47.4896 185.301 47.2552 185.301H46.1302V189.739H47.2552Z" fill="#C8B7A1"/>
<path d="M54.1641 193.989C54.5391 193.989 54.8307 193.895 55.0391 193.697C55.2578 193.489 55.3724 193.218 55.3724 192.885V186.385C55.3724 186.041 55.2578 185.775 55.0391 185.593C54.8307 185.4 54.5391 185.301 54.1641 185.301V185.197H61.1432L61.4974 187.489L61.4141 187.531L61.3724 187.343C61.3568 187.249 61.3151 187.114 61.2474 186.947C61.1901 186.77 61.0911 186.588 60.9557 186.406C60.8151 186.213 60.6276 186.031 60.3932 185.864C60.1693 185.697 59.8776 185.567 59.5182 185.468C59.1693 185.359 58.7474 185.301 58.2474 185.301H57.5182L57.4974 189.364H59.0391C59.2891 189.364 59.4766 189.322 59.6016 189.239C59.737 189.145 59.8411 189.031 59.9141 188.906C59.9818 188.77 60.0234 188.645 60.0391 188.531C60.0651 188.406 60.0807 188.317 60.0807 188.26V188.197H60.1849V190.635H60.0807V190.593C60.0807 190.525 60.0651 190.437 60.0391 190.322C60.0234 190.197 59.9818 190.072 59.9141 189.947C59.8411 189.822 59.737 189.713 59.6016 189.614C59.4766 189.52 59.2891 189.468 59.0391 189.468H57.4974V192.885C57.4974 193.218 57.6016 193.489 57.8099 193.697C58.0286 193.895 58.3359 193.989 58.7266 193.989C59.6016 193.989 60.3359 193.801 60.9349 193.426C61.5286 193.051 61.9557 192.489 62.2057 191.739H62.2891L61.6016 194.072H54.1641V193.989Z" fill="#C8B7A1"/>
<path d="M64.0117 194.072V191.135H64.1159V191.364C64.1159 191.697 64.1888 192.025 64.3451 192.343C64.5117 192.666 64.7305 192.947 65.0117 193.197C65.3034 193.447 65.6211 193.65 65.9701 193.801C66.3294 193.958 66.6992 194.031 67.0742 194.031C67.5742 194.031 67.9701 193.968 68.2617 193.843C68.5638 193.708 68.7878 193.531 68.9284 193.322C69.0638 193.104 69.1419 192.859 69.1576 192.593C69.1576 192.374 69.0794 192.166 68.9284 191.968C68.7878 191.76 68.5951 191.572 68.3451 191.406C68.1055 191.229 67.8451 191.062 67.5534 190.906C67.2617 190.739 66.9701 190.583 66.6784 190.426C66.3971 190.26 66.1471 190.093 65.9284 189.926C65.4128 189.541 65.0169 189.192 64.7409 188.885C64.4596 188.567 64.293 188.249 64.2409 187.926C64.1836 187.609 64.2409 187.255 64.4076 186.864C64.5742 186.52 64.8034 186.213 65.0951 185.947C65.3971 185.687 65.7409 185.484 66.1159 185.343C66.5013 185.208 66.9076 185.135 67.3242 185.135C67.5013 185.135 67.6836 185.15 67.8659 185.176C68.043 185.208 68.2096 185.26 68.3659 185.343C68.4596 185.385 68.5742 185.437 68.6992 185.489C68.8242 185.531 68.9492 185.572 69.0742 185.614C69.2096 185.645 69.3242 185.65 69.4076 185.635C69.5013 185.609 69.5586 185.551 69.5742 185.468V185.426H69.6576V187.864H69.5742C69.5742 187.864 69.5638 187.801 69.5534 187.676C69.5378 187.551 69.5169 187.4 69.4909 187.218C69.4596 187.041 69.4128 186.843 69.3451 186.635C69.2721 186.416 69.1784 186.208 69.0534 186.01C68.9284 185.817 68.7721 185.666 68.5951 185.551C68.4128 185.458 68.2096 185.38 67.9909 185.322C67.7826 185.255 67.5586 185.218 67.3242 185.218C66.918 185.218 66.6003 185.281 66.3659 185.406C66.1419 185.52 65.9805 185.676 65.8867 185.885C65.7878 186.093 65.7409 186.333 65.7409 186.593C65.7409 186.942 65.8555 187.255 66.0951 187.531C66.3294 187.796 66.6992 188.083 67.1992 188.385C67.6159 188.65 68.0117 188.88 68.3867 189.072C68.7721 189.27 69.1055 189.479 69.3867 189.697C69.6784 189.906 69.9076 190.156 70.0742 190.447C70.2513 190.739 70.3451 191.114 70.3451 191.572C70.3451 191.864 70.2721 192.176 70.1367 192.51C69.9961 192.843 69.8242 193.114 69.6159 193.322C69.3919 193.546 69.1211 193.718 68.8034 193.843C68.4805 193.968 68.1367 194.046 67.7617 194.072C67.3867 194.114 67.0117 194.114 66.6367 194.072C66.2617 194.031 65.9076 193.947 65.5742 193.822C65.2253 193.687 64.9492 193.604 64.7409 193.572C64.543 193.531 64.3971 193.531 64.3034 193.572C64.2201 193.614 64.1628 193.676 64.1367 193.76C64.1211 193.843 64.1159 193.947 64.1159 194.072H64.0117Z" fill="#C8B7A1"/>
<path d="M71.8516 194.072V191.135H71.9557V191.364C71.9557 191.697 72.0286 192.025 72.1849 192.343C72.3516 192.666 72.5703 192.947 72.8516 193.197C73.1432 193.447 73.4609 193.65 73.8099 193.801C74.1693 193.958 74.5391 194.031 74.9141 194.031C75.4141 194.031 75.8099 193.968 76.1016 193.843C76.4036 193.708 76.6276 193.531 76.7682 193.322C76.9036 193.104 76.9818 192.859 76.9974 192.593C76.9974 192.374 76.9193 192.166 76.7682 191.968C76.6276 191.76 76.4349 191.572 76.1849 191.406C75.9453 191.229 75.6849 191.062 75.3932 190.906C75.1016 190.739 74.8099 190.583 74.5182 190.426C74.237 190.26 73.987 190.093 73.7682 189.926C73.2526 189.541 72.8568 189.192 72.5807 188.885C72.2995 188.567 72.1328 188.249 72.0807 187.926C72.0234 187.609 72.0807 187.255 72.2474 186.864C72.4141 186.52 72.6432 186.213 72.9349 185.947C73.237 185.687 73.5807 185.484 73.9557 185.343C74.3411 185.208 74.7474 185.135 75.1641 185.135C75.3411 185.135 75.5234 185.15 75.7057 185.176C75.8828 185.208 76.0495 185.26 76.2057 185.343C76.2995 185.385 76.4141 185.437 76.5391 185.489C76.6641 185.531 76.7891 185.572 76.9141 185.614C77.0495 185.645 77.1641 185.65 77.2474 185.635C77.3411 185.609 77.3984 185.551 77.4141 185.468V185.426H77.4974V187.864H77.4141C77.4141 187.864 77.4036 187.801 77.3932 187.676C77.3776 187.551 77.3568 187.4 77.3307 187.218C77.2995 187.041 77.2526 186.843 77.1849 186.635C77.112 186.416 77.0182 186.208 76.8932 186.01C76.7682 185.817 76.612 185.666 76.4349 185.551C76.2526 185.458 76.0495 185.38 75.8307 185.322C75.6224 185.255 75.3984 185.218 75.1641 185.218C74.7578 185.218 74.4401 185.281 74.2057 185.406C73.9818 185.52 73.8203 185.676 73.7266 185.885C73.6276 186.093 73.5807 186.333 73.5807 186.593C73.5807 186.942 73.6953 187.255 73.9349 187.531C74.1693 187.796 74.5391 188.083 75.0391 188.385C75.4557 188.65 75.8516 188.88 76.2266 189.072C76.612 189.27 76.9453 189.479 77.2266 189.697C77.5182 189.906 77.7474 190.156 77.9141 190.447C78.0911 190.739 78.1849 191.114 78.1849 191.572C78.1849 191.864 78.112 192.176 77.9766 192.51C77.8359 192.843 77.6641 193.114 77.4557 193.322C77.2318 193.546 76.9609 193.718 76.6432 193.843C76.3203 193.968 75.9766 194.046 75.6016 194.072C75.2266 194.114 74.8516 194.114 74.4766 194.072C74.1016 194.031 73.7474 193.947 73.4141 193.822C73.0651 193.687 72.7891 193.604 72.5807 193.572C72.3828 193.531 72.237 193.531 72.1432 193.572C72.0599 193.614 72.0026 193.676 71.9766 193.76C71.9609 193.843 71.9557 193.947 71.9557 194.072H71.8516Z" fill="#C8B7A1"/>
<path d="M91.0469 194.072C90.4479 194.072 89.8854 193.967 89.3594 193.759C88.8281 193.54 88.3594 193.233 87.9427 192.842C87.5365 192.457 87.2135 192.004 86.9635 191.488C86.7135 190.962 86.5729 190.4 86.5469 189.801V189.301C86.5729 188.733 86.6979 188.207 86.9219 187.717C87.1562 187.217 87.4635 186.78 87.8385 186.405L87.8594 186.363C88.2865 185.947 88.776 185.629 89.3177 185.405C89.8698 185.171 90.4479 185.051 91.0469 185.051C91.5729 185.051 92.0781 185.145 92.5677 185.322C93.0521 185.462 93.4062 185.52 93.6302 185.488C93.849 185.462 93.9687 185.353 93.9844 185.155H94.0885V187.572H93.9844C93.9687 187.197 93.8802 186.863 93.7135 186.572C93.5469 186.27 93.3229 186.009 93.0469 185.801C92.7656 185.592 92.4531 185.436 92.1094 185.322C91.776 185.212 91.4219 185.155 91.0469 185.155C90.9219 185.155 90.7552 185.186 90.5469 185.238C90.349 185.296 90.1406 185.405 89.9219 185.572C89.6979 185.728 89.4896 185.967 89.2969 186.301C89.099 186.624 88.9427 187.046 88.8177 187.572C88.6927 188.103 88.6302 188.77 88.6302 189.572C88.6302 190.353 88.6927 191.009 88.8177 191.551C88.9427 192.082 89.099 192.509 89.2969 192.842C89.4896 193.165 89.6979 193.405 89.9219 193.572C90.1406 193.738 90.349 193.853 90.5469 193.905C90.7552 193.962 90.9219 193.988 91.0469 193.988C91.6302 193.988 92.1354 193.874 92.5677 193.634C93.0104 193.384 93.3594 193.046 93.6094 192.613C93.8594 192.186 93.9844 191.671 93.9844 191.072V190.926H94.0885V193.988H93.9844C93.9687 193.78 93.8437 193.665 93.6094 193.634C93.3698 193.608 93.026 193.665 92.5677 193.801C92.0781 193.983 91.5729 194.072 91.0469 194.072Z" fill="#C8B7A1"/>
<path d="M100.305 194.176C99.6797 194.176 99.0964 194.061 98.5547 193.822C98.013 193.572 97.5339 193.238 97.1172 192.822C96.7005 192.395 96.3724 191.905 96.138 191.363C95.9141 190.811 95.8047 190.228 95.8047 189.613C95.8047 188.988 95.9141 188.4 96.138 187.842C96.3724 187.29 96.7005 186.801 97.1172 186.384C97.5339 185.967 98.013 185.645 98.5547 185.405C99.1068 185.171 99.6901 185.051 100.305 185.051C100.93 185.051 101.513 185.171 102.055 185.405C102.596 185.645 103.076 185.967 103.492 186.384C103.909 186.801 104.227 187.29 104.451 187.842C104.685 188.4 104.805 188.988 104.805 189.613C104.805 190.238 104.685 190.832 104.451 191.384C104.227 191.926 103.909 192.405 103.492 192.822C103.086 193.238 102.607 193.572 102.055 193.822C101.513 194.061 100.93 194.176 100.305 194.176ZM100.305 194.051C100.43 194.051 100.586 194.03 100.784 193.988C100.992 193.936 101.206 193.822 101.43 193.655C101.648 193.488 101.857 193.249 102.055 192.926C102.247 192.608 102.409 192.176 102.534 191.634C102.659 191.092 102.721 190.421 102.721 189.613C102.721 188.811 102.659 188.145 102.534 187.613C102.409 187.072 102.247 186.645 102.055 186.322C101.857 185.988 101.648 185.749 101.43 185.592C101.206 185.426 100.992 185.316 100.784 185.259C100.586 185.207 100.43 185.176 100.305 185.176C100.18 185.176 100.013 185.207 99.8047 185.259C99.6068 185.316 99.3984 185.426 99.1797 185.592C98.9557 185.749 98.7474 185.988 98.5547 186.322C98.3568 186.645 98.2005 187.072 98.0755 187.613C97.9505 188.145 97.888 188.811 97.888 189.613C97.888 190.421 97.9505 191.092 98.0755 191.634C98.2005 192.176 98.3568 192.608 98.5547 192.926C98.7474 193.249 98.9557 193.488 99.1797 193.655C99.3984 193.822 99.6068 193.936 99.8047 193.988C100.013 194.03 100.18 194.051 100.305 194.051Z" fill="#C8B7A1"/>
<path d="M106.539 193.968C106.956 193.984 107.258 193.885 107.456 193.676C107.648 193.468 107.747 193.208 107.747 192.885V186.343C107.747 186.01 107.633 185.755 107.414 185.572C107.206 185.395 106.914 185.301 106.539 185.301V185.197H111.81C112.07 185.197 112.331 185.234 112.581 185.301C112.841 185.359 113.091 185.458 113.331 185.593C113.758 185.843 114.143 186.176 114.477 186.593C114.794 187.01 115.039 187.484 115.206 188.01C115.372 188.525 115.456 189.067 115.456 189.635C115.456 190.817 115.128 191.833 114.477 192.676C114.32 192.885 114.148 193.083 113.956 193.26C113.758 193.426 113.549 193.567 113.331 193.676C113.091 193.817 112.789 193.921 112.414 193.989C112.039 194.046 111.664 194.072 111.289 194.072H106.539V193.968ZM111.372 193.968C111.664 193.968 111.914 193.895 112.122 193.739C112.341 193.572 112.523 193.364 112.664 193.114C112.815 192.854 112.935 192.562 113.018 192.239C113.112 191.921 113.185 191.604 113.227 191.281C113.279 190.947 113.315 190.645 113.331 190.364C113.341 190.072 113.352 189.833 113.352 189.635C113.352 189.442 113.341 189.208 113.331 188.926C113.331 188.65 113.31 188.354 113.268 188.031C113.237 187.697 113.185 187.374 113.102 187.051C113.029 186.734 112.935 186.442 112.81 186.176C112.685 185.916 112.518 185.708 112.31 185.551C112.112 185.4 111.872 185.322 111.581 185.322H109.872V192.906C109.883 193.255 109.961 193.505 110.102 193.656C110.253 193.796 110.44 193.885 110.664 193.926C110.898 193.958 111.133 193.968 111.372 193.968Z" fill="#C8B7A1"/>
<path d="M117.176 193.989C117.551 193.989 117.842 193.895 118.051 193.697C118.27 193.489 118.384 193.218 118.384 192.885V186.385C118.384 186.041 118.27 185.775 118.051 185.593C117.842 185.4 117.551 185.301 117.176 185.301V185.197H124.155L124.509 187.489L124.426 187.531L124.384 187.343C124.368 187.249 124.327 187.114 124.259 186.947C124.202 186.77 124.103 186.588 123.967 186.406C123.827 186.213 123.639 186.031 123.405 185.864C123.181 185.697 122.889 185.567 122.53 185.468C122.181 185.359 121.759 185.301 121.259 185.301H120.53L120.509 189.364H122.051C122.301 189.364 122.488 189.322 122.613 189.239C122.749 189.145 122.853 189.031 122.926 188.906C122.993 188.77 123.035 188.645 123.051 188.531C123.077 188.406 123.092 188.317 123.092 188.26V188.197H123.197V190.635H123.092V190.593C123.092 190.525 123.077 190.437 123.051 190.322C123.035 190.197 122.993 190.072 122.926 189.947C122.853 189.822 122.749 189.713 122.613 189.614C122.488 189.52 122.301 189.468 122.051 189.468H120.509V192.885C120.509 193.218 120.613 193.489 120.822 193.697C121.04 193.895 121.348 193.989 121.738 193.989C122.613 193.989 123.348 193.801 123.947 193.426C124.54 193.051 124.967 192.489 125.217 191.739H125.301L124.613 194.072H117.176V193.989Z" fill="#C8B7A1"/>
<path d="M127.732 191.239C127.534 191.239 127.367 191.171 127.232 191.031C127.091 190.895 127.023 190.729 127.023 190.531C127.023 190.338 127.091 190.171 127.232 190.031C127.367 189.895 127.534 189.822 127.732 189.822C127.924 189.822 128.091 189.895 128.232 190.031C128.367 190.171 128.44 190.338 128.44 190.531C128.44 190.729 128.367 190.895 128.232 191.031C128.091 191.171 127.924 191.239 127.732 191.239ZM127.732 194.176C127.534 194.176 127.367 194.104 127.232 193.968C127.091 193.833 127.023 193.666 127.023 193.468C127.023 193.275 127.091 193.109 127.232 192.968C127.367 192.833 127.534 192.76 127.732 192.76C127.924 192.76 128.091 192.833 128.232 192.968C128.367 193.109 128.44 193.275 128.44 193.468C128.44 193.666 128.367 193.833 128.232 193.968C128.091 194.104 127.924 194.176 127.732 194.176Z" fill="#C8B7A1"/>
<path d="M137.012 193.989H137.137C137.22 193.979 137.314 193.958 137.428 193.926C137.553 193.9 137.678 193.854 137.803 193.781C137.928 193.713 138.022 193.609 138.095 193.468C138.178 193.317 138.22 193.124 138.22 192.885V186.385C138.22 186.15 138.178 185.963 138.095 185.822C138.012 185.671 137.908 185.562 137.783 185.489C137.668 185.421 137.553 185.374 137.428 185.343C137.303 185.317 137.204 185.301 137.137 185.301H137.012V185.197H141.47C141.887 185.197 142.283 185.234 142.658 185.301C143.043 185.359 143.392 185.463 143.699 185.614C144.001 185.77 144.246 185.984 144.428 186.26C144.605 186.525 144.699 186.864 144.699 187.281C144.699 187.739 144.585 188.109 144.366 188.385C144.142 188.666 143.85 188.88 143.491 189.031C143.126 189.171 142.741 189.275 142.324 189.343C142.809 189.374 143.262 189.468 143.678 189.635C144.095 189.801 144.428 190.051 144.678 190.385C144.939 190.718 145.074 191.15 145.074 191.676C145.074 192.109 144.98 192.479 144.803 192.781C144.637 193.072 144.397 193.317 144.095 193.51C143.788 193.708 143.439 193.854 143.053 193.947C142.678 194.031 142.267 194.072 141.824 194.072H137.012V193.989ZM141.47 189.322C141.829 189.322 142.105 189.145 142.303 188.781C142.496 188.406 142.595 187.906 142.595 187.281C142.595 186.656 142.496 186.171 142.303 185.822C142.105 185.479 141.829 185.301 141.47 185.301H140.345V189.322H141.47ZM141.824 193.989C142.074 193.989 142.283 193.885 142.449 193.676C142.616 193.458 142.741 193.171 142.824 192.822C142.918 192.479 142.97 192.093 142.97 191.676C142.97 191.26 142.918 190.885 142.824 190.551C142.741 190.208 142.616 189.937 142.449 189.739C142.283 189.531 142.074 189.426 141.824 189.426H140.345V192.906C140.345 193.145 140.387 193.338 140.47 193.489C140.553 193.63 140.647 193.734 140.762 193.801C140.871 193.874 140.98 193.921 141.095 193.947C141.22 193.979 141.314 193.989 141.387 193.989H141.824Z" fill="#C8B7A1"/>
<path d="M146.797 193.989C147.172 193.989 147.464 193.895 147.672 193.697C147.891 193.489 148.005 193.218 148.005 192.885V186.385C148.005 186.041 147.891 185.775 147.672 185.593C147.464 185.4 147.172 185.301 146.797 185.301V185.197H151.359V185.301C150.969 185.301 150.661 185.4 150.443 185.593C150.234 185.775 150.13 186.041 150.13 186.385V192.885C150.13 193.218 150.234 193.489 150.443 193.697C150.661 193.895 150.969 193.989 151.359 193.989C152.234 193.989 152.969 193.801 153.568 193.426C154.161 193.051 154.589 192.489 154.839 191.739H154.922L154.234 194.072H146.797V193.989Z" fill="#C8B7A1"/>
<path d="M156.645 193.989H156.811C156.921 193.979 157.082 193.921 157.29 193.822C157.499 193.729 157.717 193.551 157.957 193.301C158.191 193.041 158.426 192.656 158.665 192.156L160.749 187.551L161.811 185.197L165.332 192.906C165.483 193.229 165.655 193.463 165.853 193.614C166.046 193.77 166.228 193.864 166.395 193.906C166.572 193.947 166.697 193.979 166.77 193.989H166.811V194.072H162.645V193.989H162.686C162.738 193.989 162.816 193.979 162.915 193.947C163.009 193.921 163.103 193.874 163.186 193.801C163.27 193.734 163.316 193.63 163.332 193.489C163.358 193.338 163.311 193.145 163.186 192.906L162.52 191.406H159.103L158.749 192.156C158.592 192.489 158.499 192.77 158.457 192.989C158.426 193.213 158.426 193.395 158.457 193.531C158.499 193.671 158.551 193.775 158.624 193.843C158.707 193.9 158.78 193.942 158.853 193.968C158.936 193.984 158.999 193.989 159.04 193.989H159.061V194.072H156.645V193.989ZM162.478 191.322L160.811 187.656L159.145 191.322H162.478Z" fill="#C8B7A1"/>
<path d="M173.039 194.072C172.44 194.072 171.878 193.967 171.352 193.759C170.82 193.54 170.352 193.233 169.935 192.842C169.529 192.457 169.206 192.004 168.956 191.488C168.706 190.962 168.565 190.4 168.539 189.801V189.301C168.565 188.733 168.69 188.207 168.914 187.717C169.148 187.217 169.456 186.78 169.831 186.405L169.852 186.363C170.279 185.947 170.768 185.629 171.31 185.405C171.862 185.171 172.44 185.051 173.039 185.051C173.565 185.051 174.07 185.145 174.56 185.322C175.044 185.462 175.398 185.52 175.622 185.488C175.841 185.462 175.961 185.353 175.977 185.155H176.081V187.572H175.977C175.961 187.197 175.872 186.863 175.706 186.572C175.539 186.27 175.315 186.009 175.039 185.801C174.758 185.592 174.445 185.436 174.102 185.322C173.768 185.212 173.414 185.155 173.039 185.155C172.914 185.155 172.747 185.186 172.539 185.238C172.341 185.296 172.133 185.405 171.914 185.572C171.69 185.728 171.482 185.967 171.289 186.301C171.091 186.624 170.935 187.046 170.81 187.572C170.685 188.103 170.622 188.77 170.622 189.572C170.622 190.353 170.685 191.009 170.81 191.551C170.935 192.082 171.091 192.509 171.289 192.842C171.482 193.165 171.69 193.405 171.914 193.572C172.133 193.738 172.341 193.853 172.539 193.905C172.747 193.962 172.914 193.988 173.039 193.988C173.622 193.988 174.128 193.874 174.56 193.634C175.003 193.384 175.352 193.046 175.602 192.613C175.852 192.186 175.977 191.671 175.977 191.072V190.926H176.081V193.988H175.977C175.961 193.78 175.836 193.665 175.602 193.634C175.362 193.608 175.018 193.665 174.56 193.801C174.07 193.983 173.565 194.072 173.039 194.072Z" fill="#C8B7A1"/>
<path d="M185.193 191.676C185.427 192.51 185.74 193.109 186.13 193.468C186.516 193.817 186.943 193.989 187.401 193.989V194.072H185.339C185.089 194.072 184.807 193.989 184.505 193.822C184.214 193.656 183.932 193.395 183.672 193.031C183.406 192.671 183.177 192.218 182.984 191.676C182.828 191.208 182.661 190.801 182.484 190.468C182.302 190.124 182.099 189.88 181.88 189.739C181.672 189.604 181.422 189.583 181.13 189.676V192.885C181.13 193.218 181.234 193.489 181.443 193.697C181.661 193.895 181.969 193.989 182.359 193.989V194.072H177.797V193.989C178.172 193.989 178.464 193.895 178.672 193.697C178.891 193.489 179.005 193.218 179.005 192.885V186.385C179.005 186.041 178.891 185.775 178.672 185.593C178.464 185.4 178.172 185.301 177.797 185.301V185.197H182.359V185.301C181.969 185.301 181.661 185.4 181.443 185.593C181.234 185.775 181.13 186.041 181.13 186.385V189.426L184.068 186.385C184.276 186.166 184.406 185.984 184.464 185.843C184.516 185.692 184.516 185.583 184.464 185.51C184.422 185.442 184.349 185.395 184.255 185.364C184.172 185.322 184.094 185.301 184.026 185.301H183.922V185.197H186.339V185.301H186.193C186.068 185.301 185.901 185.338 185.693 185.406C185.495 185.463 185.266 185.567 185.005 185.718C184.74 185.874 184.464 186.093 184.172 186.385L181.13 189.572C181.49 189.27 181.87 189.109 182.276 189.093C182.677 189.067 183.073 189.166 183.464 189.385C183.865 189.593 184.214 189.895 184.505 190.281C184.807 190.671 185.036 191.135 185.193 191.676Z" fill="#C8B7A1"/>
<path d="M198.102 193.989C198.477 193.989 198.768 193.895 198.977 193.697C199.195 193.489 199.31 193.218 199.31 192.885V185.301H199.206C198.706 185.301 198.279 185.359 197.935 185.468C197.586 185.567 197.294 185.697 197.06 185.864C196.836 186.031 196.654 186.213 196.518 186.406C196.378 186.588 196.273 186.77 196.206 186.947C196.148 187.114 196.107 187.249 196.081 187.343L196.06 187.531L195.977 187.489L196.31 185.197H204.435L204.789 187.489L204.706 187.531L204.664 187.343C204.648 187.249 204.607 187.114 204.539 186.947C204.466 186.77 204.362 186.588 204.227 186.406C204.102 186.213 203.919 186.031 203.685 185.864C203.445 185.697 203.154 185.567 202.81 185.468C202.461 185.359 202.039 185.301 201.539 185.301H201.456V192.885C201.456 193.218 201.56 193.489 201.768 193.697C201.987 193.895 202.289 193.989 202.664 193.989V194.072H198.102V193.989Z" fill="#C8B7A1"/>
<path d="M206.504 193.989C206.879 193.989 207.171 193.895 207.379 193.697C207.598 193.489 207.712 193.218 207.712 192.885V186.385C207.712 186.041 207.598 185.775 207.379 185.593C207.171 185.4 206.879 185.301 206.504 185.301V185.197H211.066V185.301C210.676 185.301 210.368 185.4 210.15 185.593C209.941 185.775 209.837 186.041 209.837 186.385V192.885C209.837 193.218 209.941 193.489 210.15 193.697C210.368 193.895 210.676 193.989 211.066 193.989V194.072H206.504V193.989Z" fill="#C8B7A1"/>
<path d="M212.773 193.989C213.148 193.989 213.44 193.895 213.648 193.697C213.867 193.489 213.982 193.218 213.982 192.885V186.385C213.982 186.041 213.867 185.775 213.648 185.593C213.44 185.4 213.148 185.301 212.773 185.301V185.197H219.753L220.107 187.489L220.023 187.531L219.982 187.343C219.966 187.249 219.924 187.114 219.857 186.947C219.799 186.77 219.701 186.588 219.565 186.406C219.424 186.213 219.237 186.031 219.003 185.864C218.779 185.697 218.487 185.567 218.128 185.468C217.779 185.359 217.357 185.301 216.857 185.301H216.128L216.107 189.364H217.648C217.898 189.364 218.086 189.322 218.211 189.239C218.346 189.145 218.451 189.031 218.523 188.906C218.591 188.77 218.633 188.645 218.648 188.531C218.674 188.406 218.69 188.317 218.69 188.26V188.197H218.794V190.635H218.69V190.593C218.69 190.525 218.674 190.437 218.648 190.322C218.633 190.197 218.591 190.072 218.523 189.947C218.451 189.822 218.346 189.713 218.211 189.614C218.086 189.52 217.898 189.468 217.648 189.468H216.107V192.885C216.107 193.218 216.211 193.489 216.419 193.697C216.638 193.895 216.945 193.989 217.336 193.989C218.211 193.989 218.945 193.801 219.544 193.426C220.138 193.051 220.565 192.489 220.815 191.739H220.898L220.211 194.072H212.773V193.989Z" fill="#C8B7A1"/>
<path d="M70.875 211.05H71.0417C71.151 211.05 71.2917 211.029 71.4583 210.988C71.625 210.936 71.7083 210.852 71.7083 210.738V202.592C71.6927 202.467 71.6042 202.383 71.4375 202.342C71.2812 202.3 71.151 202.279 71.0417 202.279H70.875V202.092H73V202.279H72.8333C72.7188 202.279 72.5833 202.3 72.4167 202.342C72.25 202.383 72.1667 202.467 72.1667 202.592V206.071H76.75V202.592C76.75 202.467 76.6667 202.383 76.5 202.342C76.3438 202.3 76.2135 202.279 76.1042 202.279H75.9375V202.092H78.0625V202.279H77.8958C77.7812 202.279 77.6458 202.3 77.4792 202.342C77.3125 202.383 77.2292 202.467 77.2292 202.592V210.738C77.2292 210.852 77.3125 210.936 77.4792 210.988C77.6458 211.029 77.7812 211.05 77.8958 211.05H78.0625V211.238H75.9375V211.05H76.1042C76.2135 211.05 76.3438 211.029 76.5 210.988C76.6667 210.936 76.75 210.852 76.75 210.738V206.258H72.1667V210.738C72.1667 210.852 72.25 210.936 72.4167 210.988C72.5833 211.029 72.7188 211.05 72.8333 211.05H73V211.238H70.875V211.05Z" fill="#C8B7A1"/>
<path d="M84.0495 211.425C83.5339 211.425 83.0391 211.3 82.5703 211.05C82.0964 210.8 81.6797 210.456 81.3203 210.008C80.9714 209.566 80.6953 209.066 80.487 208.508C80.2891 207.941 80.1953 207.352 80.1953 206.738C80.1953 206.113 80.2891 205.519 80.487 204.946C80.6953 204.378 80.9714 203.878 81.3203 203.446C81.6797 203.003 82.0964 202.654 82.5703 202.404C83.0391 202.154 83.5339 202.029 84.0495 202.029H84.1745C84.7161 202.029 85.2161 202.154 85.6745 202.404C86.1432 202.654 86.5547 203.008 86.9036 203.467C87.263 203.915 87.5391 204.415 87.737 204.967C87.9297 205.524 88.0286 206.113 88.0286 206.738C88.0286 207.352 87.9297 207.941 87.737 208.508C87.5391 209.066 87.263 209.566 86.9036 210.008C86.5547 210.456 86.1432 210.8 85.6745 211.05C85.2161 211.3 84.7161 211.425 84.1745 211.425H84.0495ZM82.9661 210.988C83.7422 211.305 84.513 211.305 85.2786 210.988C85.7214 210.769 86.112 210.441 86.4453 210.008C86.7891 209.581 87.0599 209.081 87.2578 208.508C87.4505 207.941 87.5495 207.352 87.5495 206.738C87.5495 206.045 87.4297 205.394 87.1953 204.779C86.9714 204.17 86.6536 203.649 86.237 203.217C85.8307 202.774 85.3828 202.477 84.8828 202.321C84.7422 202.295 84.612 202.274 84.487 202.258C84.362 202.232 84.237 202.217 84.112 202.217C83.987 202.217 83.862 202.227 83.737 202.238C83.612 202.253 83.487 202.279 83.362 202.321C82.8464 202.477 82.388 202.774 81.987 203.217C81.5807 203.665 81.2578 204.191 81.0078 204.8C80.7682 205.399 80.6536 206.045 80.6536 206.738C80.6536 207.352 80.7474 207.941 80.9453 208.508C81.1536 209.081 81.4297 209.581 81.7786 210.008C82.1224 210.441 82.5182 210.769 82.9661 210.988Z" fill="#C8B7A1"/>
<path d="M90.1758 211.049C90.3945 211.049 90.5924 211.029 90.7591 210.987C90.9258 210.935 91.0091 210.852 91.0091 210.737V202.57C90.9935 202.461 90.9049 202.383 90.7383 202.341C90.582 202.289 90.3945 202.258 90.1758 202.258V202.07H91.5091L94.8633 210.362L98.1341 202.07H99.4883V202.258C99.2643 202.258 99.0716 202.289 98.9049 202.341C98.7383 202.383 98.6549 202.461 98.6549 202.57V210.737C98.6549 210.852 98.7383 210.935 98.9049 210.987C99.0716 211.029 99.2643 211.049 99.4883 211.049V211.237H97.3633V211.049C97.582 211.049 97.7695 211.029 97.9258 210.987C98.0924 210.935 98.1758 210.852 98.1758 210.737V202.466L94.7174 211.174H94.6966L91.1966 202.529V210.737C91.1966 210.852 91.2695 210.935 91.4258 210.987C91.5924 211.029 91.7852 211.049 92.0091 211.049V211.237H90.1758V211.049Z" fill="#C8B7A1"/>
<path d="M101.613 211.049H101.78C101.889 211.039 102.03 211.008 102.197 210.966C102.363 210.924 102.447 210.852 102.447 210.737V202.591C102.447 202.466 102.363 202.383 102.197 202.341C102.04 202.299 101.905 202.279 101.78 202.279H101.613V202.07H104.447C105.113 202.07 105.676 202.289 106.134 202.716C106.353 202.924 106.52 203.174 106.634 203.466C106.759 203.747 106.822 204.039 106.822 204.341C106.822 204.648 106.759 204.945 106.634 205.237C106.52 205.529 106.353 205.773 106.134 205.966C105.868 206.206 105.592 206.362 105.301 206.445C105.785 206.544 106.207 206.758 106.572 207.091C107.072 207.565 107.322 208.143 107.322 208.82C107.322 209.169 107.249 209.487 107.113 209.779C106.988 210.07 106.806 210.331 106.572 210.549C106.082 211.008 105.488 211.237 104.78 211.237H101.613V211.049ZM104.551 206.424C104.884 206.398 105.186 206.289 105.467 206.091C105.743 205.898 105.967 205.648 106.134 205.341C106.311 205.039 106.405 204.706 106.405 204.341C106.405 203.966 106.306 203.628 106.113 203.32C105.931 203.018 105.697 202.768 105.405 202.57C105.113 202.378 104.79 202.279 104.447 202.279H103.572C103.457 202.279 103.322 202.299 103.155 202.341C102.988 202.383 102.905 202.466 102.905 202.591V206.424H104.551ZM104.78 211.049C105.363 211.049 105.853 210.82 106.259 210.362C106.452 210.154 106.603 209.919 106.717 209.654C106.827 209.378 106.884 209.102 106.884 208.82C106.884 208.544 106.827 208.273 106.717 208.008C106.603 207.732 106.452 207.487 106.259 207.279C105.853 206.836 105.363 206.612 104.78 206.612H104.759V206.591H104.551C104.535 206.591 104.514 206.602 104.488 206.612C104.473 206.612 104.457 206.612 104.447 206.612H104.426V206.591H102.905V210.737C102.905 210.852 102.988 210.924 103.155 210.966C103.322 211.008 103.457 211.039 103.572 211.049H104.78Z" fill="#C8B7A1"/>
<path d="M109.457 211.049C109.676 211.049 109.874 211.029 110.04 210.987C110.207 210.935 110.29 210.852 110.29 210.737V202.57C110.29 202.461 110.207 202.383 110.04 202.341C109.874 202.299 109.676 202.279 109.457 202.279V202.07H112.52C113.03 202.07 113.499 202.174 113.915 202.383C114.342 202.581 114.686 202.862 114.936 203.237C115.186 203.602 115.311 204.039 115.311 204.549C115.311 204.997 115.212 205.398 115.02 205.758C114.822 206.122 114.551 206.414 114.207 206.633C113.858 206.857 113.467 207.003 113.04 207.07C113.374 207.237 113.665 207.424 113.915 207.633C114.176 207.841 114.363 208.19 114.478 208.674C114.53 208.883 114.592 209.122 114.665 209.383C114.749 209.648 114.853 209.904 114.978 210.154C115.103 210.404 115.254 210.622 115.436 210.799C115.629 210.966 115.842 211.049 116.082 211.049V211.237H115.332C115.009 210.987 114.77 210.732 114.603 210.466C114.436 210.19 114.311 209.898 114.228 209.591C114.145 209.273 114.051 208.924 113.957 208.549C113.9 208.341 113.79 208.128 113.624 207.904C113.467 207.685 113.296 207.497 113.103 207.341C112.905 207.19 112.717 207.112 112.54 207.112H110.749V210.737C110.749 210.852 110.832 210.935 110.999 210.987C111.165 211.029 111.358 211.049 111.582 211.049V211.237H109.457V211.049ZM112.52 206.924C112.947 206.924 113.337 206.82 113.686 206.612C114.03 206.393 114.311 206.102 114.52 205.737C114.738 205.378 114.853 204.982 114.853 204.549C114.853 204.122 114.738 203.737 114.52 203.404C114.311 203.06 114.03 202.789 113.686 202.591C113.337 202.383 112.947 202.279 112.52 202.279H111.415C111.301 202.279 111.165 202.299 110.999 202.341C110.832 202.383 110.749 202.466 110.749 202.591V206.924H112.52Z" fill="#C8B7A1"/>
<path d="M123.598 210.424H123.827L123.327 211.237H118.223V211.049H118.389C118.499 211.049 118.629 211.029 118.785 210.987C118.952 210.935 119.035 210.852 119.035 210.737V202.591C119.035 202.508 118.993 202.445 118.91 202.404C118.827 202.362 118.728 202.336 118.618 202.32C118.52 202.294 118.431 202.279 118.348 202.279C118.264 202.279 118.223 202.279 118.223 202.279V202.07H123.223V202.862H123.139C123.124 202.852 123.087 202.794 123.035 202.695C122.978 202.602 122.9 202.508 122.806 202.424C122.723 202.331 122.629 202.279 122.535 202.279H119.514V206.049H122.556C122.624 206.049 122.686 206.003 122.743 205.904C122.811 205.794 122.848 205.737 122.848 205.737H122.931V206.549H122.848C122.848 206.549 122.811 206.503 122.743 206.404C122.686 206.31 122.624 206.258 122.556 206.258H119.514V211.049H122.827C122.952 211.049 123.066 211.008 123.181 210.924C123.29 210.831 123.389 210.732 123.473 210.633C123.556 210.523 123.598 210.456 123.598 210.424Z" fill="#C8B7A1"/>
<path d="M127.253 210.924C126.961 210.773 126.711 210.633 126.503 210.508C126.305 210.383 126.201 210.32 126.19 210.32L125.961 209.341V209.32L126.128 209.237C126.305 209.57 126.508 209.872 126.732 210.133C126.966 210.398 127.221 210.622 127.503 210.799C127.878 211.039 128.284 211.174 128.732 211.216C129.19 211.242 129.607 211.174 129.982 211.008C130.367 210.815 130.68 210.539 130.919 210.174C131.154 209.815 131.273 209.445 131.273 209.07C131.273 208.727 131.138 208.404 130.878 208.112C130.628 207.81 130.32 207.565 129.961 207.383L127.732 206.362C127.341 206.169 127.029 205.893 126.794 205.529C126.57 205.169 126.461 204.773 126.461 204.341V204.216C126.487 203.789 126.612 203.414 126.836 203.091C127.055 202.758 127.346 202.508 127.711 202.341C128.086 202.164 128.503 202.07 128.961 202.07C129.169 202.07 129.378 202.107 129.586 202.174C129.794 202.247 129.987 202.331 130.169 202.424C130.211 202.44 130.242 202.461 130.273 202.487C130.299 202.503 130.336 202.518 130.378 202.529C130.628 202.643 130.841 202.753 131.023 202.862C131.201 202.977 131.294 203.039 131.294 203.049L131.461 203.716L131.294 203.799C131.013 203.341 130.669 202.982 130.253 202.716C129.846 202.44 129.419 202.294 128.961 202.279C128.638 202.279 128.315 202.372 127.982 202.549C127.648 202.732 127.367 202.977 127.148 203.279C126.924 203.57 126.805 203.893 126.794 204.237V204.32C126.794 204.669 126.904 204.987 127.128 205.279C127.362 205.56 127.638 205.779 127.961 205.945L130.19 206.987C130.648 207.211 131.003 207.508 131.253 207.883C131.513 208.247 131.648 208.643 131.648 209.07C131.648 209.503 131.513 209.898 131.253 210.258C131.003 210.622 130.674 210.904 130.273 211.112C129.773 211.346 129.258 211.435 128.732 211.383C128.201 211.341 127.711 211.19 127.253 210.924Z" fill="#C8B7A1"/>
<path d="M134.197 206.862C134.072 206.862 133.957 206.82 133.863 206.737C133.78 206.643 133.738 206.529 133.738 206.404C133.738 206.279 133.78 206.174 133.863 206.091C133.957 205.997 134.072 205.945 134.197 205.945C134.322 205.945 134.426 205.997 134.509 206.091C134.603 206.174 134.655 206.279 134.655 206.404C134.655 206.529 134.603 206.643 134.509 206.737C134.426 206.82 134.322 206.862 134.197 206.862ZM134.197 211.32C134.072 211.32 133.957 211.279 133.863 211.195C133.78 211.102 133.738 210.987 133.738 210.862C133.738 210.737 133.78 210.633 133.863 210.549C133.957 210.456 134.072 210.404 134.197 210.404C134.322 210.404 134.426 210.456 134.509 210.549C134.603 210.633 134.655 210.737 134.655 210.862C134.655 210.987 134.603 211.102 134.509 211.195C134.426 211.279 134.322 211.32 134.197 211.32Z" fill="#C8B7A1"/>
<path d="M145.477 211.049C145.711 211.049 145.904 211.029 146.06 210.987C146.227 210.935 146.31 210.852 146.31 210.737V202.279H143.497C143.398 202.279 143.299 202.331 143.206 202.424C143.122 202.508 143.049 202.602 142.997 202.695C142.94 202.794 142.904 202.852 142.893 202.862H142.789V202.07H150.289V202.862H150.185C150.185 202.852 150.148 202.794 150.081 202.695C150.023 202.602 149.945 202.508 149.852 202.424C149.768 202.331 149.685 202.279 149.602 202.279H146.768V210.737C146.768 210.852 146.852 210.935 147.018 210.987C147.185 211.029 147.378 211.049 147.602 211.049V211.237H145.477V211.049Z" fill="#C8B7A1"/>
<path d="M152.43 211.049C152.648 211.049 152.846 211.029 153.013 210.987C153.18 210.935 153.263 210.852 153.263 210.737V202.57C153.263 202.461 153.18 202.383 153.013 202.341C152.846 202.299 152.648 202.279 152.43 202.279V202.07H155.492C156.003 202.07 156.471 202.174 156.888 202.383C157.315 202.581 157.659 202.862 157.909 203.237C158.159 203.602 158.284 204.039 158.284 204.549C158.284 204.997 158.185 205.398 157.992 205.758C157.794 206.122 157.523 206.414 157.18 206.633C156.831 206.857 156.44 207.003 156.013 207.07C156.346 207.237 156.638 207.424 156.888 207.633C157.148 207.841 157.336 208.19 157.451 208.674C157.503 208.883 157.565 209.122 157.638 209.383C157.721 209.648 157.826 209.904 157.951 210.154C158.076 210.404 158.227 210.622 158.409 210.799C158.602 210.966 158.815 211.049 159.055 211.049V211.237H158.305C157.982 210.987 157.742 210.732 157.576 210.466C157.409 210.19 157.284 209.898 157.201 209.591C157.117 209.273 157.023 208.924 156.93 208.549C156.872 208.341 156.763 208.128 156.596 207.904C156.44 207.685 156.268 207.497 156.076 207.341C155.878 207.19 155.69 207.112 155.513 207.112H153.721V210.737C153.721 210.852 153.805 210.935 153.971 210.987C154.138 211.029 154.331 211.049 154.555 211.049V211.237H152.43V211.049ZM155.492 206.924C155.919 206.924 156.31 206.82 156.659 206.612C157.003 206.393 157.284 206.102 157.492 205.737C157.711 205.378 157.826 204.982 157.826 204.549C157.826 204.122 157.711 203.737 157.492 203.404C157.284 203.06 157.003 202.789 156.659 202.591C156.31 202.383 155.919 202.279 155.492 202.279H154.388C154.273 202.279 154.138 202.299 153.971 202.341C153.805 202.383 153.721 202.466 153.721 202.591V206.924H155.492Z" fill="#C8B7A1"/>
<path d="M161.191 211.049C161.368 211.049 161.556 211.039 161.754 211.008C161.947 210.982 162.077 210.898 162.15 210.758L165.504 202.07H165.712V202.091L169.066 210.779C169.134 210.893 169.243 210.966 169.4 211.008C169.566 211.039 169.738 211.049 169.921 211.049V211.237H167.796V211.049C168.004 211.049 168.191 211.039 168.358 211.008C168.535 210.966 168.598 210.878 168.546 210.737L167.212 207.279H163.691L162.337 210.737H162.358C162.327 210.836 162.363 210.904 162.462 210.945C162.572 210.987 162.702 211.018 162.858 211.029C163.025 211.044 163.176 211.049 163.316 211.049V211.237H161.191V211.049ZM167.15 207.091L165.462 202.737L163.775 207.091H167.15Z" fill="#C8B7A1"/>
<path d="M171.293 212.945C171.595 212.945 171.876 212.841 172.126 212.633C172.376 212.435 172.574 212.174 172.73 211.841C172.882 211.518 172.96 211.185 172.96 210.82V202.591C172.96 202.466 172.876 202.383 172.71 202.341C172.543 202.299 172.402 202.279 172.293 202.279H172.126V202.07H174.251V202.279H174.085C173.97 202.279 173.835 202.299 173.668 202.341C173.501 202.383 173.418 202.466 173.418 202.591V210.82C173.418 211.263 173.319 211.659 173.126 212.008C172.928 212.367 172.673 212.643 172.355 212.841C172.033 213.034 171.678 213.133 171.293 213.133V212.945Z" fill="#C8B7A1"/>
<path d="M181.777 210.424H182.007L181.507 211.237H176.402V211.049H176.569C176.678 211.049 176.809 211.029 176.965 210.987C177.132 210.935 177.215 210.852 177.215 210.737V202.591C177.215 202.508 177.173 202.445 177.09 202.404C177.007 202.362 176.908 202.336 176.798 202.32C176.699 202.294 176.611 202.279 176.527 202.279C176.444 202.279 176.402 202.279 176.402 202.279V202.07H181.402V202.862H181.319C181.303 202.852 181.267 202.794 181.215 202.695C181.158 202.602 181.079 202.508 180.986 202.424C180.902 202.331 180.809 202.279 180.715 202.279H177.694V206.049H180.736C180.803 206.049 180.866 206.003 180.923 205.904C180.991 205.794 181.027 205.737 181.027 205.737H181.111V206.549H181.027C181.027 206.549 180.991 206.503 180.923 206.404C180.866 206.31 180.803 206.258 180.736 206.258H177.694V211.049H181.007C181.132 211.049 181.246 211.008 181.361 210.924C181.47 210.831 181.569 210.732 181.652 210.633C181.736 210.523 181.777 210.456 181.777 210.424Z" fill="#C8B7A1"/>
<path d="M64.3984 229.073C64.6172 229.073 64.8151 229.052 64.9818 229.01C65.1484 228.958 65.2318 228.875 65.2318 228.76V220.594C65.2161 220.484 65.1276 220.406 64.9609 220.365C64.8047 220.312 64.6172 220.281 64.3984 220.281V220.094H65.7318L69.0859 228.385L72.3568 220.094H73.7109V220.281C73.487 220.281 73.2943 220.312 73.1276 220.365C72.9609 220.406 72.8776 220.484 72.8776 220.594V228.76C72.8776 228.875 72.9609 228.958 73.1276 229.01C73.2943 229.052 73.487 229.073 73.7109 229.073V229.26H71.5859V229.073C71.8047 229.073 71.9922 229.052 72.1484 229.01C72.3151 228.958 72.3984 228.875 72.3984 228.76V220.49L68.9401 229.198H68.9193L65.4193 220.552V228.76C65.4193 228.875 65.4922 228.958 65.6484 229.01C65.8151 229.052 66.0078 229.073 66.2318 229.073V229.26H64.3984V229.073Z" fill="#C8B7A1"/>
<path d="M79.694 229.385C79.1107 229.385 78.5898 229.25 78.1315 228.969C77.6732 228.693 77.3086 228.312 77.0482 227.823C76.7982 227.339 76.6732 226.771 76.6732 226.115V220.573C76.6576 220.464 76.5742 220.396 76.4232 220.365C76.2669 220.323 76.1315 220.297 76.0065 220.281H75.8398V220.094H77.9648V220.281H77.7982C77.6836 220.297 77.5482 220.323 77.3815 220.365C77.2253 220.396 77.1419 220.464 77.1315 220.573V226.115C77.1315 226.589 77.2044 227.031 77.3607 227.448C77.5273 227.854 77.7461 228.198 78.0273 228.49C78.2878 228.74 78.5534 228.922 78.819 229.031C79.0794 229.146 79.3711 229.198 79.694 229.198C80.2201 229.198 80.6836 229.068 81.0898 228.802C81.5065 228.526 81.8242 228.156 82.0482 227.698C82.2826 227.229 82.4023 226.698 82.4023 226.115V220.594C82.4023 220.469 82.319 220.396 82.1523 220.365C81.9961 220.323 81.8659 220.297 81.7565 220.281H81.5898V220.094H83.4232V220.281H83.2773C83.1523 220.297 83.0065 220.323 82.8398 220.365C82.6836 220.396 82.6107 220.469 82.6107 220.594V226.115C82.6107 226.74 82.4857 227.302 82.2357 227.802C81.9857 228.292 81.6367 228.677 81.194 228.969C80.7617 229.25 80.2617 229.385 79.694 229.385Z" fill="#C8B7A1"/>
<path d="M84.7891 230.969C85.0911 230.969 85.3724 230.865 85.6224 230.656C85.8724 230.458 86.0703 230.198 86.2266 229.865C86.3776 229.542 86.4557 229.208 86.4557 228.844V220.615C86.4557 220.49 86.3724 220.406 86.2057 220.365C86.0391 220.323 85.8984 220.302 85.7891 220.302H85.6224V220.094H87.7474V220.302H87.5807C87.4661 220.302 87.3307 220.323 87.1641 220.365C86.9974 220.406 86.9141 220.49 86.9141 220.615V228.844C86.9141 229.286 86.8151 229.682 86.6224 230.031C86.4245 230.391 86.1693 230.667 85.8516 230.865C85.5286 231.057 85.1745 231.156 84.7891 231.156V230.969Z" fill="#C8B7A1"/>
<path d="M95.2734 228.448H95.5026L95.0026 229.26H89.8984V229.073H90.0651C90.1745 229.073 90.3047 229.052 90.4609 229.01C90.6276 228.958 90.7109 228.875 90.7109 228.76V220.615C90.7109 220.531 90.6693 220.469 90.5859 220.427C90.5026 220.385 90.4036 220.359 90.2943 220.344C90.1953 220.318 90.1068 220.302 90.0234 220.302C89.9401 220.302 89.8984 220.302 89.8984 220.302V220.094H94.8984V220.885H94.8151C94.7995 220.875 94.763 220.818 94.7109 220.719C94.6536 220.625 94.5755 220.531 94.4818 220.448C94.3984 220.354 94.3047 220.302 94.2109 220.302H91.1901V224.073H94.2318C94.2995 224.073 94.362 224.026 94.4193 223.927C94.487 223.818 94.5234 223.76 94.5234 223.76H94.6068V224.573H94.5234C94.5234 224.573 94.487 224.526 94.4193 224.427C94.362 224.333 94.2995 224.281 94.2318 224.281H91.1901V229.073H94.5026C94.6276 229.073 94.7422 229.031 94.8568 228.948C94.9661 228.854 95.0651 228.755 95.1484 228.656C95.2318 228.547 95.2734 228.479 95.2734 228.448Z" fill="#C8B7A1"/>
<path d="M97.6367 229.073C97.8555 229.073 98.0534 229.052 98.2201 229.01C98.3867 228.958 98.4701 228.875 98.4701 228.76V220.594C98.4701 220.484 98.3867 220.406 98.2201 220.365C98.0534 220.323 97.8555 220.302 97.6367 220.302V220.094H100.699C101.21 220.094 101.678 220.198 102.095 220.406C102.522 220.604 102.866 220.885 103.116 221.26C103.366 221.625 103.491 222.062 103.491 222.573C103.491 223.021 103.392 223.422 103.199 223.781C103.001 224.146 102.73 224.437 102.387 224.656C102.038 224.88 101.647 225.026 101.22 225.094C101.553 225.26 101.845 225.448 102.095 225.656C102.355 225.865 102.543 226.214 102.658 226.698C102.71 226.906 102.772 227.146 102.845 227.406C102.928 227.672 103.033 227.927 103.158 228.177C103.283 228.427 103.434 228.646 103.616 228.823C103.809 228.99 104.022 229.073 104.262 229.073V229.26H103.512C103.189 229.01 102.949 228.755 102.783 228.49C102.616 228.214 102.491 227.922 102.408 227.615C102.324 227.297 102.23 226.948 102.137 226.573C102.079 226.365 101.97 226.151 101.803 225.927C101.647 225.708 101.475 225.521 101.283 225.365C101.085 225.214 100.897 225.135 100.72 225.135H98.9284V228.76C98.9284 228.875 99.0117 228.958 99.1784 229.01C99.3451 229.052 99.5378 229.073 99.7617 229.073V229.26H97.6367V229.073ZM100.699 224.948C101.126 224.948 101.517 224.844 101.866 224.635C102.21 224.417 102.491 224.125 102.699 223.76C102.918 223.401 103.033 223.005 103.033 222.573C103.033 222.146 102.918 221.76 102.699 221.427C102.491 221.083 102.21 220.812 101.866 220.615C101.517 220.406 101.126 220.302 100.699 220.302H99.5951C99.4805 220.302 99.3451 220.323 99.1784 220.365C99.0117 220.406 98.9284 220.49 98.9284 220.615V224.948H100.699Z" fill="#C8B7A1"/>
<path d="M111.773 228.448H112.003L111.503 229.26H106.398V229.073H106.565C106.674 229.073 106.805 229.052 106.961 229.01C107.128 228.958 107.211 228.875 107.211 228.76V220.615C107.211 220.531 107.169 220.469 107.086 220.427C107.003 220.385 106.904 220.359 106.794 220.344C106.695 220.318 106.607 220.302 106.523 220.302C106.44 220.302 106.398 220.302 106.398 220.302V220.094H111.398V220.885H111.315C111.299 220.875 111.263 220.818 111.211 220.719C111.154 220.625 111.076 220.531 110.982 220.448C110.898 220.354 110.805 220.302 110.711 220.302H107.69V224.073H110.732C110.799 224.073 110.862 224.026 110.919 223.927C110.987 223.818 111.023 223.76 111.023 223.76H111.107V224.573H111.023C111.023 224.573 110.987 224.526 110.919 224.427C110.862 224.333 110.799 224.281 110.732 224.281H107.69V229.073H111.003C111.128 229.073 111.242 229.031 111.357 228.948C111.466 228.854 111.565 228.755 111.648 228.656C111.732 228.547 111.773 228.479 111.773 228.448Z" fill="#C8B7A1"/>
<path d="M115.432 228.948C115.141 228.797 114.891 228.656 114.682 228.531C114.484 228.406 114.38 228.344 114.37 228.344L114.141 227.365V227.344L114.307 227.26C114.484 227.594 114.687 227.896 114.911 228.156C115.146 228.422 115.401 228.646 115.682 228.823C116.057 229.062 116.464 229.198 116.911 229.24C117.37 229.266 117.786 229.198 118.161 229.031C118.547 228.839 118.859 228.562 119.099 228.198C119.333 227.839 119.453 227.469 119.453 227.094C119.453 226.75 119.318 226.427 119.057 226.135C118.807 225.833 118.5 225.589 118.141 225.406L115.911 224.385C115.521 224.193 115.208 223.917 114.974 223.552C114.75 223.193 114.641 222.797 114.641 222.365V222.24C114.667 221.812 114.792 221.437 115.016 221.115C115.234 220.781 115.526 220.531 115.891 220.365C116.266 220.187 116.682 220.094 117.141 220.094C117.349 220.094 117.557 220.13 117.766 220.198C117.974 220.271 118.167 220.354 118.349 220.448C118.391 220.464 118.422 220.484 118.453 220.51C118.479 220.526 118.516 220.542 118.557 220.552C118.807 220.667 119.021 220.776 119.203 220.885C119.38 221 119.474 221.062 119.474 221.073L119.641 221.74L119.474 221.823C119.193 221.365 118.849 221.005 118.432 220.74C118.026 220.464 117.599 220.318 117.141 220.302C116.818 220.302 116.495 220.396 116.161 220.573C115.828 220.755 115.547 221 115.328 221.302C115.104 221.594 114.984 221.917 114.974 222.26V222.344C114.974 222.693 115.083 223.01 115.307 223.302C115.542 223.583 115.818 223.802 116.141 223.969L118.37 225.01C118.828 225.234 119.182 225.531 119.432 225.906C119.693 226.271 119.828 226.667 119.828 227.094C119.828 227.526 119.693 227.922 119.432 228.281C119.182 228.646 118.854 228.927 118.453 229.135C117.953 229.37 117.437 229.458 116.911 229.406C116.38 229.365 115.891 229.214 115.432 228.948Z" fill="#C8B7A1"/>
<path d="M122.372 224.885C122.247 224.885 122.133 224.844 122.039 224.76C121.956 224.667 121.914 224.552 121.914 224.427C121.914 224.302 121.956 224.198 122.039 224.115C122.133 224.021 122.247 223.969 122.372 223.969C122.497 223.969 122.602 224.021 122.685 224.115C122.779 224.198 122.831 224.302 122.831 224.427C122.831 224.552 122.779 224.667 122.685 224.76C122.602 224.844 122.497 224.885 122.372 224.885ZM122.372 229.344C122.247 229.344 122.133 229.302 122.039 229.219C121.956 229.125 121.914 229.01 121.914 228.885C121.914 228.76 121.956 228.656 122.039 228.573C122.133 228.479 122.247 228.427 122.372 228.427C122.497 228.427 122.602 228.479 122.685 228.573C122.779 228.656 122.831 228.76 122.831 228.885C122.831 229.01 122.779 229.125 122.685 229.219C122.602 229.302 122.497 229.344 122.372 229.344Z" fill="#C8B7A1"/>
<path d="M135.361 229.135L131.819 220.573C131.762 220.448 131.642 220.375 131.465 220.344C131.283 220.302 131.142 220.281 131.048 220.281H130.965V220.094H133.069V220.281H132.986C132.913 220.281 132.819 220.292 132.694 220.302C132.579 220.318 132.486 220.344 132.402 220.385C132.329 220.427 132.303 220.49 132.319 220.573L135.611 228.531L138.902 220.573C138.928 220.49 138.892 220.427 138.798 220.385C138.699 220.344 138.574 220.318 138.423 220.302C138.283 220.292 138.173 220.281 138.09 220.281H137.944V220.094H140.069V220.281H140.027C139.97 220.281 139.871 220.292 139.736 220.302C139.611 220.318 139.486 220.344 139.361 220.385C139.236 220.417 139.152 220.479 139.111 220.573L135.715 228.76L135.507 229.26H135.402L135.361 229.135Z" fill="#C8B7A1"/>
<path d="M147.574 228.448H147.803L147.303 229.26H142.199V229.073H142.366C142.475 229.073 142.605 229.052 142.762 229.01C142.928 228.958 143.012 228.875 143.012 228.76V220.615C143.012 220.531 142.97 220.469 142.887 220.427C142.803 220.385 142.704 220.359 142.595 220.344C142.496 220.318 142.408 220.302 142.324 220.302C142.241 220.302 142.199 220.302 142.199 220.302V220.094H147.199V220.885H147.116C147.1 220.875 147.064 220.818 147.012 220.719C146.954 220.625 146.876 220.531 146.783 220.448C146.699 220.354 146.605 220.302 146.512 220.302H143.491V224.073H146.533C146.6 224.073 146.663 224.026 146.72 223.927C146.788 223.818 146.824 223.76 146.824 223.76H146.908V224.573H146.824C146.824 224.573 146.788 224.526 146.72 224.427C146.663 224.333 146.6 224.281 146.533 224.281H143.491V229.073H146.803C146.928 229.073 147.043 229.031 147.158 228.948C147.267 228.854 147.366 228.755 147.449 228.656C147.533 228.547 147.574 228.479 147.574 228.448Z" fill="#C8B7A1"/>
<path d="M151.233 228.948C150.941 228.797 150.691 228.656 150.483 228.531C150.285 228.406 150.181 228.344 150.171 228.344L149.941 227.365V227.344L150.108 227.26C150.285 227.594 150.488 227.896 150.712 228.156C150.947 228.422 151.202 228.646 151.483 228.823C151.858 229.062 152.264 229.198 152.712 229.24C153.171 229.266 153.587 229.198 153.962 229.031C154.348 228.839 154.66 228.562 154.9 228.198C155.134 227.839 155.254 227.469 155.254 227.094C155.254 226.75 155.118 226.427 154.858 226.135C154.608 225.833 154.301 225.589 153.941 225.406L151.712 224.385C151.322 224.193 151.009 223.917 150.775 223.552C150.551 223.193 150.441 222.797 150.441 222.365V222.24C150.467 221.812 150.592 221.437 150.816 221.115C151.035 220.781 151.327 220.531 151.691 220.365C152.066 220.187 152.483 220.094 152.941 220.094C153.15 220.094 153.358 220.13 153.566 220.198C153.775 220.271 153.967 220.354 154.15 220.448C154.191 220.464 154.223 220.484 154.254 220.51C154.28 220.526 154.316 220.542 154.358 220.552C154.608 220.667 154.822 220.776 155.004 220.885C155.181 221 155.275 221.062 155.275 221.073L155.441 221.74L155.275 221.823C154.993 221.365 154.65 221.005 154.233 220.74C153.827 220.464 153.4 220.318 152.941 220.302C152.618 220.302 152.296 220.396 151.962 220.573C151.629 220.755 151.348 221 151.129 221.302C150.905 221.594 150.785 221.917 150.775 222.26V222.344C150.775 222.693 150.884 223.01 151.108 223.302C151.342 223.583 151.618 223.802 151.941 223.969L154.171 225.01C154.629 225.234 154.983 225.531 155.233 225.906C155.493 226.271 155.629 226.667 155.629 227.094C155.629 227.526 155.493 227.922 155.233 228.281C154.983 228.646 154.655 228.927 154.254 229.135C153.754 229.37 153.238 229.458 152.712 229.406C152.181 229.365 151.691 229.214 151.233 228.948Z" fill="#C8B7A1"/>
<path d="M160.445 229.073C160.68 229.073 160.872 229.052 161.029 229.01C161.195 228.958 161.279 228.875 161.279 228.76V220.302H158.466C158.367 220.302 158.268 220.354 158.174 220.448C158.091 220.531 158.018 220.625 157.966 220.719C157.909 220.818 157.872 220.875 157.862 220.885H157.758V220.094H165.258V220.885H165.154C165.154 220.875 165.117 220.818 165.049 220.719C164.992 220.625 164.914 220.531 164.82 220.448C164.737 220.354 164.654 220.302 164.57 220.302H161.737V228.76C161.737 228.875 161.82 228.958 161.987 229.01C162.154 229.052 162.346 229.073 162.57 229.073V229.26H160.445V229.073Z" fill="#C8B7A1"/>
<path d="M167.398 229.074H167.565C167.674 229.074 167.815 229.053 167.982 229.011C168.148 228.959 168.232 228.876 168.232 228.761V220.615C168.216 220.49 168.128 220.407 167.961 220.365C167.805 220.324 167.674 220.303 167.565 220.303H167.398V220.115H169.523V220.303H169.357C169.242 220.303 169.107 220.324 168.94 220.365C168.773 220.407 168.69 220.49 168.69 220.615V228.761C168.69 228.876 168.773 228.959 168.94 229.011C169.107 229.053 169.242 229.074 169.357 229.074H169.523V229.261H167.398V229.074Z" fill="#C8B7A1"/>
<path d="M173.651 229.261H171.672V229.074H171.839C171.964 229.074 172.099 229.053 172.255 229.011C172.422 228.959 172.505 228.876 172.505 228.761V220.615C172.505 220.49 172.422 220.407 172.255 220.365C172.099 220.324 171.964 220.303 171.839 220.303H171.672V220.115H174.776C175.276 220.115 175.745 220.235 176.193 220.469C176.651 220.709 177.047 221.032 177.38 221.449C177.724 221.865 177.995 222.355 178.193 222.907C178.385 223.464 178.484 224.053 178.484 224.678C178.484 225.318 178.385 225.917 178.193 226.469C177.995 227.011 177.724 227.501 177.38 227.928C177.047 228.344 176.651 228.678 176.193 228.928C175.745 229.167 175.276 229.282 174.776 229.282H173.651V229.261ZM174.776 229.074C174.802 229.074 174.839 229.074 174.88 229.074C174.922 229.074 174.953 229.074 174.984 229.074C175.411 229.021 175.807 228.865 176.172 228.615C176.547 228.355 176.87 228.021 177.151 227.615C177.427 227.214 177.641 226.761 177.797 226.261C177.948 225.761 178.026 225.235 178.026 224.678C178.026 224.126 177.943 223.589 177.776 223.074C177.609 222.548 177.37 222.074 177.068 221.657C176.776 221.24 176.427 220.917 176.026 220.678C175.635 220.428 175.219 220.303 174.776 220.303H173.63C173.516 220.303 173.38 220.324 173.214 220.365C173.047 220.407 172.964 220.49 172.964 220.615V228.761C172.964 228.876 173.047 228.959 173.214 229.011C173.38 229.053 173.516 229.074 173.63 229.074H174.776Z" fill="#C8B7A1"/>
<path d="M184.483 229.449C183.967 229.449 183.473 229.324 183.004 229.074C182.53 228.824 182.113 228.48 181.754 228.032C181.405 227.589 181.129 227.089 180.921 226.532C180.723 225.964 180.629 225.376 180.629 224.761C180.629 224.136 180.723 223.542 180.921 222.969C181.129 222.402 181.405 221.902 181.754 221.469C182.113 221.027 182.53 220.678 183.004 220.428C183.473 220.178 183.967 220.053 184.483 220.053H184.608C185.15 220.053 185.65 220.178 186.108 220.428C186.577 220.678 186.988 221.032 187.337 221.49C187.697 221.938 187.973 222.438 188.171 222.99C188.363 223.548 188.462 224.136 188.462 224.761C188.462 225.376 188.363 225.964 188.171 226.532C187.973 227.089 187.697 227.589 187.337 228.032C186.988 228.48 186.577 228.824 186.108 229.074C185.65 229.324 185.15 229.449 184.608 229.449H184.483ZM183.4 229.011C184.176 229.329 184.947 229.329 185.712 229.011C186.155 228.792 186.546 228.464 186.879 228.032C187.223 227.605 187.493 227.105 187.691 226.532C187.884 225.964 187.983 225.376 187.983 224.761C187.983 224.068 187.863 223.417 187.629 222.803C187.405 222.193 187.087 221.673 186.671 221.24C186.264 220.798 185.816 220.501 185.316 220.344C185.176 220.318 185.046 220.298 184.921 220.282C184.796 220.256 184.671 220.24 184.546 220.24C184.421 220.24 184.296 220.251 184.171 220.261C184.046 220.277 183.921 220.303 183.796 220.344C183.28 220.501 182.822 220.798 182.421 221.24C182.014 221.688 181.691 222.214 181.441 222.824C181.202 223.423 181.087 224.068 181.087 224.761C181.087 225.376 181.181 225.964 181.379 226.532C181.587 227.105 181.863 227.605 182.212 228.032C182.556 228.464 182.952 228.792 183.4 229.011Z" fill="#C8B7A1"/>
</g>
</svg>
