<svg width="146" height="37" viewBox="0 0 146 37" fill="none" xmlns="http://www.w3.org/2000/svg">
<mask id="mask0_2381_1558" style="mask-type:luminance" maskUnits="userSpaceOnUse" x="0" y="0" width="146" height="37">
<path d="M0 0H145.245V36.8125H0V0Z" fill="white"/>
</mask>
<g mask="url(#mask0_2381_1558)">
<mask id="mask1_2381_1558" style="mask-type:luminance" maskUnits="userSpaceOnUse" x="0" y="0" width="146" height="37">
<path d="M13.9531 0H131.177C138.885 0 145.13 6.24479 145.13 13.9531V22.8594C145.13 30.5677 138.885 36.8125 131.177 36.8125H13.9531C6.24479 36.8125 0 30.5677 0 22.8594V13.9531C0 6.24479 6.24479 0 13.9531 0Z" fill="white"/>
</mask>
<g mask="url(#mask1_2381_1558)">
<mask id="mask2_2381_1558" style="mask-type:luminance" maskUnits="userSpaceOnUse" x="-1" y="-1" width="148" height="39">
<path d="M146.167 -0.146484H-0.5V37.1869H146.167V-0.146484Z" fill="white"/>
</mask>
<g mask="url(#mask2_2381_1558)">
<mask id="mask3_2381_1558" style="mask-type:luminance" maskUnits="userSpaceOnUse" x="0" y="0" width="146" height="37">
<path d="M0 0H145.245V36.8125H0V0Z" fill="white"/>
</mask>
<g mask="url(#mask3_2381_1558)">
<mask id="mask4_2381_1558" style="mask-type:luminance" maskUnits="userSpaceOnUse" x="0" y="0" width="146" height="37">
<path d="M13.9531 0H131.177C138.885 0 145.13 6.24479 145.13 13.9531V22.8594C145.13 30.5677 138.885 36.8125 131.177 36.8125H13.9531C6.24479 36.8125 0 30.5677 0 22.8594V13.9531C0 6.24479 6.24479 0 13.9531 0Z" fill="white"/>
</mask>
<g mask="url(#mask4_2381_1558)">
<path d="M0 0H145.104V36.8125H0V0Z" fill="#1F3D58"/>
</g>
</g>
</g>
</g>
</g>
<mask id="mask5_2381_1558" style="mask-type:luminance" maskUnits="userSpaceOnUse" x="0" y="0" width="146" height="37">
<path d="M0.0117188 0H145.324V36.8854H0.0117188V0Z" fill="white"/>
</mask>
<g mask="url(#mask5_2381_1558)">
<mask id="mask6_2381_1558" style="mask-type:luminance" maskUnits="userSpaceOnUse" x="0" y="0" width="146" height="37">
<path d="M13.9648 0H131.158C138.866 0 145.111 6.24479 145.111 13.9531V22.8542C145.111 30.5573 138.866 36.8073 131.158 36.8073H13.9648C6.25651 36.8073 0.0117188 30.5573 0.0117188 22.8542V13.9531C0.0117188 6.24479 6.25651 0 13.9648 0Z" fill="white"/>
</mask>
<g mask="url(#mask6_2381_1558)">
<path d="M13.9648 0H131.158C138.866 0 145.111 6.24479 145.111 13.9531V22.8542C145.111 30.5573 138.866 36.8073 131.158 36.8073H13.9648C6.25651 36.8073 0.0117188 30.5573 0.0117188 22.8542V13.9531C0.0117188 6.24479 6.25651 0 13.9648 0Z" stroke="#C8B7A1" stroke-width="3.98758"/>
</g>
</g>
<path d="M23.1445 23.776L19.5195 14.9844C19.4622 14.8594 19.3372 14.7865 19.1445 14.7552C18.9622 14.7135 18.8216 14.6927 18.7279 14.6927H18.6445V14.4844H20.8112V14.6927H20.707C20.6341 14.6927 20.5404 14.7031 20.4154 14.7135C20.2904 14.7292 20.1862 14.7552 20.1029 14.7969C20.0299 14.8385 20.0091 14.9115 20.0404 15.0052L23.4154 23.151L26.7695 15.0052C26.8112 14.9115 26.7747 14.8385 26.6654 14.7969C26.5664 14.7552 26.4414 14.7292 26.2904 14.7135C26.1497 14.7031 26.0299 14.6927 25.9362 14.6927H25.7904V14.4844H27.9779V14.6927H27.9362C27.8789 14.6927 27.7799 14.7031 27.6445 14.7135C27.5039 14.7292 27.3737 14.7552 27.2487 14.7969C27.1237 14.8385 27.0404 14.9115 26.9987 15.0052L23.5195 23.401L23.3112 23.901H23.207L23.1445 23.776Z" fill="#C8B7A1"/>
<path d="M35.5677 23.0684H35.7969L35.276 23.9017H30.0469V23.7142H30.2135C30.3229 23.7038 30.4635 23.6725 30.6302 23.6309C30.7969 23.5892 30.8802 23.5163 30.8802 23.4017V15.0267C30.8802 14.9434 30.8385 14.8809 30.7552 14.8392C30.6719 14.7975 30.5729 14.7715 30.4635 14.7559C30.349 14.7298 30.2552 14.7142 30.1719 14.7142C30.0885 14.7142 30.0469 14.7142 30.0469 14.7142V14.5059H35.1719V15.3184H35.0885C35.0729 15.3079 35.0312 15.2507 34.9635 15.1517C34.9062 15.0423 34.8281 14.9434 34.7344 14.86C34.651 14.7663 34.5573 14.7142 34.4635 14.7142H31.3594V18.5892H34.5052C34.5729 18.5892 34.6354 18.5371 34.6927 18.4225C34.7448 18.3132 34.776 18.2559 34.776 18.2559H34.8594V19.11H34.776C34.776 19.11 34.7448 19.0579 34.6927 18.9434C34.6354 18.834 34.5729 18.7767 34.5052 18.7767H31.3594V23.7142H34.7552C34.8906 23.7142 35.0156 23.6673 35.1302 23.5684C35.2552 23.4746 35.349 23.3757 35.4219 23.2767C35.5052 23.1673 35.5521 23.0996 35.5677 23.0684Z" fill="#C8B7A1"/>
<path d="M37.9922 23.6934C38.2109 23.6934 38.4089 23.6725 38.5755 23.6309C38.7526 23.5788 38.8464 23.4954 38.8464 23.3809V15.0059C38.8464 14.8965 38.7526 14.8184 38.5755 14.7767C38.4089 14.735 38.2109 14.7142 37.9922 14.7142V14.5059H41.1172C41.6589 14.5059 42.1432 14.61 42.5755 14.8184C43.0026 15.0163 43.3464 15.3079 43.5964 15.6934C43.8568 16.0684 43.9922 16.5215 43.9922 17.0475C43.9922 17.5059 43.888 17.9225 43.6797 18.2975C43.4818 18.6621 43.2109 18.959 42.8672 19.1934C42.5182 19.4173 42.1224 19.5632 41.6797 19.6309C42.013 19.7975 42.3099 19.9954 42.5755 20.2142C42.8359 20.4225 43.0234 20.7767 43.138 21.2767C43.1901 21.485 43.263 21.7298 43.3464 22.0059C43.4297 22.2871 43.5339 22.5579 43.6589 22.8184C43.7839 23.0684 43.9349 23.2767 44.1172 23.4434C44.3099 23.61 44.5339 23.6934 44.7839 23.6934V23.9017H44.013C43.6797 23.6413 43.4297 23.3704 43.263 23.0892C43.0964 22.8132 42.9714 22.5163 42.888 22.1934C42.8047 21.8757 42.7057 21.5267 42.5964 21.1517C42.5391 20.9329 42.4297 20.709 42.263 20.485C42.1068 20.2507 41.9297 20.0579 41.7214 19.9017C41.5234 19.7507 41.3307 19.6725 41.138 19.6725H39.3255V23.3809C39.3255 23.4954 39.4089 23.5788 39.5755 23.6309C39.7422 23.6725 39.9401 23.6934 40.1797 23.6934V23.9017H37.9922V23.6934ZM41.1172 19.485C41.5599 19.485 41.9609 19.3757 42.3255 19.1517C42.6849 18.9329 42.9714 18.6413 43.1797 18.2767C43.3984 17.9017 43.513 17.4954 43.513 17.0475C43.513 16.6048 43.3984 16.209 43.1797 15.86C42.9714 15.5007 42.6849 15.2246 42.3255 15.0267C41.9609 14.8184 41.5599 14.7142 41.1172 14.7142H39.9922C39.8776 14.7142 39.7422 14.735 39.5755 14.7767C39.4089 14.8184 39.3255 14.9017 39.3255 15.0267V19.485H41.1172Z" fill="#C8B7A1"/>
<path d="M57.138 24.026C56.5391 24.026 56.0026 23.8906 55.5339 23.6094C55.0599 23.3333 54.6901 22.9427 54.4297 22.4427C54.1641 21.9323 54.0339 21.3385 54.0339 20.6719V14.9844C54.0182 14.875 53.9297 14.8073 53.763 14.776C53.6068 14.7344 53.4714 14.7083 53.3464 14.6927H53.1797V14.4844H55.3672V14.6927H55.1797C55.0651 14.7083 54.9297 14.7344 54.763 14.776C54.5964 14.8073 54.513 14.8802 54.513 15.0052V20.6719C54.513 21.1615 54.5859 21.6198 54.7422 22.0469C54.9089 22.4635 55.138 22.8177 55.4297 23.1094C55.7057 23.3594 55.9766 23.5469 56.2422 23.6719C56.5026 23.7865 56.8047 23.8385 57.138 23.8385C57.6797 23.8385 58.1589 23.7031 58.5755 23.4219C58.9922 23.1458 59.3151 22.7708 59.5547 22.2969C59.7891 21.8125 59.9089 21.2708 59.9089 20.6719V15.0052C59.9089 14.8802 59.8255 14.8073 59.6589 14.776C59.5026 14.7344 59.3672 14.7083 59.2422 14.6927H59.0755V14.4844H60.9505V14.6927H60.7839C60.6693 14.7083 60.5339 14.7344 60.3672 14.776C60.2005 14.8073 60.1172 14.8802 60.1172 15.0052V20.6719C60.1172 21.3281 59.9818 21.901 59.7214 22.401C59.4714 22.901 59.1172 23.2969 58.6589 23.5885C58.2109 23.8802 57.7057 24.026 57.138 24.026Z" fill="#C8B7A1"/>
<path d="M63.1562 23.6934H63.3229C63.4323 23.6934 63.5729 23.6725 63.7396 23.6309C63.9167 23.5788 64.0104 23.4954 64.0104 23.3809V15.0267C64.0104 14.9017 63.9271 14.8184 63.7604 14.7767C63.5938 14.735 63.4479 14.7142 63.3229 14.7142H63.1562V14.5059H66.0521C66.7292 14.5059 67.3073 14.7298 67.7813 15.1725C68.0156 15.3809 68.1875 15.6309 68.3021 15.9225C68.4271 16.2142 68.4896 16.5215 68.4896 16.8392C68.4896 17.1621 68.4271 17.4642 68.3021 17.7559C68.1875 18.0475 68.0156 18.2923 67.7813 18.485C67.5156 18.735 67.2292 18.9121 66.9271 19.0059C67.4271 19.1048 67.8646 19.3184 68.2396 19.6517C68.75 20.1413 69.0104 20.7298 69.0104 21.4225C69.0104 21.7715 68.9375 22.0996 68.8021 22.4017C68.6615 22.709 68.474 22.9746 68.2396 23.1934C67.7396 23.6673 67.125 23.9017 66.4063 23.9017H63.1562V23.6934ZM66.1563 18.9642C66.5 18.9382 66.8125 18.8288 67.0938 18.6309C67.3854 18.4225 67.6146 18.1673 67.7813 17.86C67.9583 17.5423 68.0521 17.2038 68.0521 16.8392C68.0521 16.4538 67.9583 16.0996 67.7813 15.7767C67.599 15.459 67.3542 15.2038 67.0521 15.0059C66.7448 14.8132 66.4115 14.7142 66.0521 14.7142H65.1563C65.0417 14.7142 64.9063 14.735 64.7396 14.7767C64.5729 14.8184 64.4896 14.9017 64.4896 15.0267V18.9642H66.1563ZM66.4063 23.6934C66.9896 23.6934 67.4896 23.4642 67.9063 23.0059C68.1146 22.7871 68.2708 22.5423 68.3854 22.2767C68.4948 22.0007 68.5521 21.7142 68.5521 21.4225C68.5521 21.1465 68.4948 20.8704 68.3854 20.5892C68.2708 20.3132 68.1146 20.0632 67.9063 19.8392C67.4896 19.3809 66.9896 19.1517 66.4063 19.1517H66.1563C66.1406 19.1517 66.1198 19.1517 66.0938 19.1517C66.0781 19.1517 66.0625 19.1517 66.0521 19.1517H64.4896V23.3809C64.4896 23.4954 64.5729 23.5788 64.7396 23.6309C64.9063 23.6725 65.0417 23.6934 65.1563 23.6934H66.4063Z" fill="#C8B7A1"/>
<path d="M71.2109 23.7129H71.3776C71.487 23.7025 71.6276 23.6712 71.7943 23.6296C71.9714 23.5879 72.0651 23.515 72.0651 23.4004V15.0254C72.0495 14.916 71.9609 14.8379 71.7943 14.7962C71.6276 14.7441 71.487 14.7129 71.3776 14.7129H71.2109V14.5254H73.3984V14.7129H73.2109C73.0964 14.7129 72.9609 14.7441 72.7943 14.7962C72.6276 14.8379 72.5443 14.916 72.5443 15.0254V23.4004C72.5443 23.515 72.6276 23.5879 72.7943 23.6296C72.9609 23.6712 73.0964 23.7025 73.2109 23.7129H73.3984V23.9004H71.2109V23.7129Z" fill="#C8B7A1"/>
<path d="M79.5521 24.0677C78.9948 24.0677 78.4792 23.9427 78.0104 23.6927C77.5365 23.4427 77.1146 23.1042 76.7396 22.6719C76.375 22.2292 76.0938 21.7135 75.8854 21.1302C75.6875 20.5469 75.5938 19.9219 75.5938 19.2552C75.5938 18.5885 75.6875 17.9635 75.8854 17.3802C76.0938 16.7969 76.375 16.2865 76.7396 15.8385C77.1146 15.3958 77.5365 15.0469 78.0104 14.7969C78.4792 14.5469 78.9948 14.4219 79.5521 14.4219C80.1198 14.4219 80.6563 14.5469 81.1563 14.7969L81.1146 14.776C81.3646 14.875 81.5938 14.9844 81.8021 15.1094C82.0208 15.2344 82.1979 15.3385 82.3229 15.4219C82.4479 15.4948 82.5104 15.526 82.5104 15.526L82.7188 16.401H82.7396L82.5521 16.5052C82.3698 16.0885 82.1198 15.7448 81.8021 15.4635C81.4792 15.1875 81.125 14.9792 80.7396 14.8385C80.349 14.7031 79.9531 14.6302 79.5521 14.6302C79.0781 14.6302 78.625 14.7552 78.1979 15.0052C77.7813 15.2552 77.4115 15.6042 77.0938 16.0469C76.7708 16.4792 76.5208 16.974 76.3438 17.526C76.1615 18.0677 76.0729 18.6458 76.0729 19.2552C76.0729 19.8281 76.1458 20.375 76.3021 20.901C76.4688 21.4167 76.6979 21.8906 76.9896 22.3177C77.2917 22.7344 77.6406 23.0833 78.0313 23.3594C78.4167 23.6406 78.8333 23.8073 79.2813 23.8594C79.3229 23.875 79.3646 23.8802 79.4063 23.8802C79.4583 23.8802 79.5104 23.8802 79.5521 23.8802C80.1771 23.8802 80.7656 23.6927 81.3229 23.3177C81.8906 22.9323 82.349 22.4115 82.6979 21.7552L82.8646 21.8385L82.6146 22.8802C82.6146 22.8802 82.5365 22.9323 82.3854 23.026C82.2292 23.1094 82.0313 23.224 81.7813 23.3594C81.5417 23.4844 81.2813 23.6094 80.9896 23.7344H81.0104C80.5521 23.9531 80.0625 24.0677 79.5521 24.0677Z" fill="#C8B7A1"/>
<path d="M84.2695 23.7142C84.4466 23.7142 84.6341 23.7038 84.832 23.6725C85.0404 23.6465 85.1706 23.5579 85.2279 23.4017L88.6862 14.5059H88.8945V14.5267L92.3529 23.4434C92.4206 23.5579 92.5299 23.6309 92.6862 23.6725C92.8529 23.7038 93.0299 23.7142 93.2279 23.7142V23.9017H91.0404V23.7142C91.2591 23.7142 91.457 23.6934 91.6237 23.6517C91.8008 23.61 91.8633 23.5267 91.8112 23.4017L90.457 19.8392H86.832L85.457 23.4017C85.4258 23.485 85.4622 23.5579 85.5612 23.61C85.6706 23.6517 85.8112 23.6829 85.9779 23.6934C86.1445 23.709 86.3008 23.7142 86.457 23.7142V23.9017H84.2695V23.7142ZM90.3737 19.6517L88.6445 15.1725L86.9154 19.6517H90.3737Z" fill="#C8B7A1"/>
<path d="M98.7279 24.0677C98.1706 24.0677 97.6549 23.9427 97.1862 23.6927C96.7122 23.4427 96.2904 23.1042 95.9154 22.6719C95.5508 22.2292 95.2695 21.7135 95.0612 21.1302C94.8633 20.5469 94.7695 19.9219 94.7695 19.2552C94.7695 18.5885 94.8633 17.9635 95.0612 17.3802C95.2695 16.7969 95.5508 16.2865 95.9154 15.8385C96.2904 15.3958 96.7122 15.0469 97.1862 14.7969C97.6549 14.5469 98.1706 14.4219 98.7279 14.4219C99.2956 14.4219 99.832 14.5469 100.332 14.7969L100.29 14.776C100.54 14.875 100.77 14.9844 100.978 15.1094C101.197 15.2344 101.374 15.3385 101.499 15.4219C101.624 15.4948 101.686 15.526 101.686 15.526L101.895 16.401H101.915L101.728 16.5052C101.546 16.0885 101.296 15.7448 100.978 15.4635C100.655 15.1875 100.301 14.9792 99.9154 14.8385C99.5247 14.7031 99.1289 14.6302 98.7279 14.6302C98.2539 14.6302 97.8008 14.7552 97.3737 15.0052C96.957 15.2552 96.5872 15.6042 96.2695 16.0469C95.9466 16.4792 95.6966 16.974 95.5195 17.526C95.3372 18.0677 95.2487 18.6458 95.2487 19.2552C95.2487 19.8281 95.3216 20.375 95.4779 20.901C95.6445 21.4167 95.8737 21.8906 96.1654 22.3177C96.4674 22.7344 96.8164 23.0833 97.207 23.3594C97.5924 23.6406 98.0091 23.8073 98.457 23.8594C98.4987 23.875 98.5404 23.8802 98.582 23.8802C98.6341 23.8802 98.6862 23.8802 98.7279 23.8802C99.3529 23.8802 99.9414 23.6927 100.499 23.3177C101.066 22.9323 101.525 22.4115 101.874 21.7552L102.04 21.8385L101.79 22.8802C101.79 22.8802 101.712 22.9323 101.561 23.026C101.405 23.1094 101.207 23.224 100.957 23.3594C100.717 23.4844 100.457 23.6094 100.165 23.7344H100.186C99.7279 23.9531 99.2383 24.0677 98.7279 24.0677Z" fill="#C8B7A1"/>
<path d="M104.242 23.7129H104.409C104.518 23.7025 104.659 23.6712 104.826 23.6296C105.003 23.5879 105.096 23.515 105.096 23.4004V15.0254C105.081 14.916 104.992 14.8379 104.826 14.7962C104.659 14.7441 104.518 14.7129 104.409 14.7129H104.242V14.5254H106.43V14.7129H106.242C106.128 14.7129 105.992 14.7441 105.826 14.7962C105.659 14.8379 105.576 14.916 105.576 15.0254V23.4004C105.576 23.515 105.659 23.5879 105.826 23.6296C105.992 23.6712 106.128 23.7025 106.242 23.7129H106.43V23.9004H104.242V23.7129Z" fill="#C8B7A1"/>
<path d="M111.896 13.6302L113.042 12.2969L113.375 12.651L112.063 13.776L111.896 13.6302ZM112.583 24.1094C112.042 24.1094 111.526 23.974 111.042 23.7135C110.568 23.4531 110.146 23.0885 109.771 22.6302C109.406 22.1719 109.125 21.6615 108.917 21.0885C108.719 20.5052 108.625 19.901 108.625 19.276C108.625 18.6406 108.719 18.026 108.917 17.4427C109.125 16.8594 109.406 16.349 109.771 15.901C110.146 15.4583 110.568 15.1042 111.042 14.8385C111.526 14.5781 112.042 14.4427 112.583 14.4427H112.708C113.25 14.4427 113.755 14.5781 114.229 14.8385C114.714 15.1042 115.135 15.4635 115.5 15.9219C115.875 16.3802 116.156 16.901 116.354 17.4844C116.563 18.0573 116.667 18.651 116.667 19.276C116.667 19.901 116.563 20.5052 116.354 21.0885C116.156 21.6719 115.88 22.1927 115.521 22.651C115.156 23.099 114.734 23.4531 114.25 23.7135C113.776 23.974 113.26 24.1094 112.708 24.1094H112.583ZM111.458 23.6302C112.25 23.9635 113.042 23.9635 113.833 23.6302C114.292 23.4115 114.693 23.0781 115.042 22.6302C115.401 22.1875 115.677 21.6719 115.875 21.0885C116.068 20.5052 116.167 19.901 116.167 19.276C116.167 18.5833 116.047 17.9219 115.813 17.2969C115.573 16.6615 115.25 16.1198 114.833 15.6719C114.417 15.2135 113.943 14.9115 113.417 14.7552C113.292 14.7292 113.156 14.7083 113.021 14.6927C112.896 14.6667 112.771 14.651 112.646 14.651C112.521 14.651 112.385 14.6615 112.25 14.6719C112.125 14.6875 112 14.7135 111.875 14.7552C111.344 14.9219 110.875 15.2344 110.458 15.6927C110.042 16.1406 109.708 16.6719 109.458 17.2969C109.219 17.9219 109.104 18.5833 109.104 19.276C109.104 19.901 109.198 20.5052 109.396 21.0885C109.604 21.6719 109.88 22.1875 110.229 22.6302C110.589 23.0781 111 23.4115 111.458 23.6302Z" fill="#C8B7A1"/>
<path d="M118.738 23.7142C118.957 23.7142 119.155 23.6934 119.322 23.6517C119.488 23.5996 119.572 23.5163 119.572 23.4017V15.0059C119.572 14.8965 119.488 14.8184 119.322 14.7767C119.155 14.7246 118.957 14.6934 118.738 14.6934V14.5059H120.051L125.426 22.9642V15.0059C125.426 14.8965 125.342 14.8184 125.176 14.7767C125.009 14.7246 124.811 14.6934 124.592 14.6934V14.5059H126.467V14.6934C126.243 14.6934 126.04 14.7246 125.863 14.7767C125.697 14.8184 125.613 14.8965 125.613 15.0059V23.9017H125.447L119.78 14.9434V23.4017C119.78 23.5163 119.863 23.5996 120.03 23.6517C120.197 23.6934 120.389 23.7142 120.613 23.7142V23.9017H118.738V23.7142Z" fill="#C8B7A1"/>
</svg>
