<svg width="252" height="293" viewBox="0 0 252 293" fill="none" xmlns="http://www.w3.org/2000/svg">
<mask id="mask0_2417_329" style="mask-type:luminance" maskUnits="userSpaceOnUse" x="0" y="0" width="252" height="293">
<path d="M0 0H251.6V293H0V0Z" fill="white"/>
</mask>
<g mask="url(#mask0_2417_329)">
<mask id="mask1_2417_329" style="mask-type:luminance" maskUnits="userSpaceOnUse" x="0" y="0" width="252" height="293">
<path d="M251.6 23.0495V269.684C251.6 275.794 249.186 281.658 244.884 285.981C240.582 290.303 234.745 292.733 228.658 292.733H22.9418C16.8552 292.733 11.0235 290.303 6.72126 285.981C2.41903 281.658 0 275.794 0 269.684V23.0495C0 16.9343 2.41903 11.0752 6.72126 6.75281C11.0235 2.43039 16.8552 0 22.9418 0H228.658C234.745 0 240.582 2.43039 244.884 6.75281C249.186 11.0752 251.6 16.9343 251.6 23.0495Z" fill="white"/>
</mask>
<g mask="url(#mask1_2417_329)">
<mask id="mask2_2417_329" style="mask-type:luminance" maskUnits="userSpaceOnUse" x="0" y="-1" width="252" height="294">
<path d="M251.704 -0.0253906H0V293.001H251.704V-0.0253906Z" fill="white"/>
</mask>
<g mask="url(#mask2_2417_329)">
<mask id="mask3_2417_329" style="mask-type:luminance" maskUnits="userSpaceOnUse" x="0" y="0" width="252" height="293">
<path d="M0 0H251.6V292.801H0V0Z" fill="white"/>
</mask>
<g mask="url(#mask3_2417_329)">
<mask id="mask4_2417_329" style="mask-type:luminance" maskUnits="userSpaceOnUse" x="0" y="0" width="252" height="293">
<path d="M251.6 23.0495V269.684C251.6 275.794 249.186 281.658 244.884 285.981C240.582 290.303 234.745 292.733 228.658 292.733H22.9418C16.8552 292.733 11.0235 290.303 6.72126 285.981C2.41903 281.658 0 275.794 0 269.684V23.0495C0 16.9343 2.41903 11.0752 6.72126 6.75281C11.0235 2.43039 16.8552 0 22.9418 0H228.658C234.745 0 240.582 2.43039 244.884 6.75281C249.186 11.0752 251.6 16.9343 251.6 23.0495Z" fill="white"/>
</mask>
<g mask="url(#mask4_2417_329)">
<path d="M0 0H251.6V292.279H0V0Z" fill="#1F3D58"/>
</g>
</g>
</g>
</g>
</g>
<path d="M15.625 52.321C15.8333 52.321 16.0417 52.3105 16.25 52.2793C16.4687 52.2533 16.6146 52.1647 16.6875 52.0085L20.3958 42.4043H20.6042V42.4251L24.3333 52.0293C24.4167 52.1543 24.5417 52.2376 24.7083 52.2793C24.875 52.3105 25.0625 52.321 25.2708 52.321V52.5293H22.9375V52.321C23.1563 52.321 23.3646 52.3001 23.5625 52.2585C23.7552 52.2168 23.8229 52.1283 23.7708 51.9876L22.2917 48.1543H18.3958L16.8958 51.9876H16.9167C16.875 52.0866 16.9063 52.1647 17.0208 52.2168C17.1458 52.2585 17.2969 52.2897 17.4792 52.3001C17.6563 52.3158 17.8229 52.321 17.9792 52.321V52.5293H15.625V52.321ZM22.2083 47.946L20.3333 43.1335L18.4792 47.946H22.2083Z" fill="#C8B7A1"/>
<path d="M27.5 52.321H27.6875C27.8125 52.3105 27.9635 52.2793 28.1458 52.2376C28.3229 52.1855 28.4167 52.0918 28.4167 51.9668V42.9668C28.4167 42.8835 28.3646 42.8158 28.2708 42.7585C28.1875 42.7064 28.0833 42.6699 27.9583 42.6543C27.8333 42.6439 27.7187 42.6335 27.625 42.6335C27.5417 42.623 27.5 42.6126 27.5 42.6126V42.4043H29.8333V42.6126C29.8333 42.6126 29.7813 42.623 29.6875 42.6335C29.6042 42.6335 29.5 42.6439 29.375 42.6543C29.25 42.6699 29.1354 42.7064 29.0417 42.7585C28.9583 42.8158 28.9167 42.8835 28.9167 42.9668V52.321H32.625C32.776 52.321 32.9063 52.2741 33.0208 52.1751C33.1458 52.0658 33.25 51.9564 33.3333 51.8418C33.4271 51.7168 33.4844 51.6491 33.5 51.6335V51.6126H33.7292L33.1667 52.5293H27.5V52.321Z" fill="#C8B7A1"/>
<path d="M35.8086 52.321C36.0169 52.321 36.2253 52.3105 36.4336 52.2793C36.6523 52.2533 36.7982 52.1647 36.8711 52.0085L40.5794 42.4043H40.7878V42.4251L44.5169 52.0293C44.6003 52.1543 44.7253 52.2376 44.8919 52.2793C45.0586 52.3105 45.2461 52.321 45.4544 52.321V52.5293H43.1211V52.321C43.3398 52.321 43.5482 52.3001 43.7461 52.2585C43.9388 52.2168 44.0065 52.1283 43.9544 51.9876L42.4753 48.1543H38.5794L37.0794 51.9876H37.1003C37.0586 52.0866 37.0898 52.1647 37.2044 52.2168C37.3294 52.2585 37.4805 52.2897 37.6628 52.3001C37.8398 52.3158 38.0065 52.321 38.1628 52.321V52.5293H35.8086V52.321ZM42.3919 47.946L40.5169 43.1335L38.6628 47.946H42.3919Z" fill="#C8B7A1"/>
<path d="M47.5391 52.321C47.7891 52.321 48.0026 52.3001 48.1849 52.2585C48.362 52.2064 48.4557 52.1126 48.4557 51.9876V42.946C48.4557 42.821 48.362 42.7376 48.1849 42.696C48.0026 42.6439 47.7891 42.6126 47.5391 42.6126V42.4043H49.0182L52.7057 51.5501L56.3307 42.4043H57.8307V42.6126C57.5807 42.6126 57.362 42.6439 57.1849 42.696C57.0026 42.7376 56.9141 42.821 56.9141 42.946V51.9876C56.9141 52.1126 57.0026 52.2064 57.1849 52.2585C57.362 52.3001 57.5807 52.321 57.8307 52.321V52.5293H55.4766V52.321C55.7266 52.321 55.9401 52.3001 56.1224 52.2585C56.2995 52.2064 56.3932 52.1126 56.3932 51.9876V42.8418L52.5599 52.4668H52.5182L48.6641 42.9043V51.9876C48.6641 52.1126 48.7526 52.2064 48.9349 52.2585C49.112 52.3001 49.3307 52.321 49.5807 52.321V52.5293H47.5391V52.321Z" fill="#C8B7A1"/>
<path d="M60.1875 52.321H60.375C60.5 52.321 60.651 52.3001 60.8333 52.2585C61.0104 52.2064 61.1042 52.1126 61.1042 51.9876V42.9668C61.1042 42.8835 61.0521 42.821 60.9583 42.7793C60.875 42.7272 60.7708 42.6908 60.6458 42.6751C60.5208 42.6491 60.4062 42.6335 60.3125 42.6335C60.2292 42.6335 60.1875 42.6335 60.1875 42.6335V42.4043H65.7292V43.2793H65.625C65.6094 43.2689 65.5677 43.2064 65.5 43.0918C65.4271 42.9824 65.3438 42.8783 65.25 42.7793C65.1667 42.6855 65.0677 42.6335 64.9583 42.6335H61.6042V46.8001H64.9792C65.0625 46.8001 65.1302 46.748 65.1875 46.6335C65.2552 46.5241 65.2917 46.4668 65.2917 46.4668H65.3958V47.3626H65.2917C65.2917 47.3626 65.2552 47.3105 65.1875 47.196C65.1302 47.0866 65.0625 47.0293 64.9792 47.0293H61.6042V52.321H65.2708C65.4219 52.321 65.5521 52.2741 65.6667 52.1751C65.7917 52.0658 65.8958 51.9564 65.9792 51.8418C66.0729 51.7324 66.125 51.6647 66.125 51.6335H66.375L65.8125 52.5293H60.1875V52.321Z" fill="#C8B7A1"/>
<path d="M70.9297 52.5299H68.7422V52.3216H68.9297C69.0651 52.3216 69.2214 52.3008 69.388 52.2591C69.5651 52.207 69.6589 52.1133 69.6589 51.9883V42.9674C69.6589 42.8424 69.5651 42.7591 69.388 42.7174C69.2214 42.6654 69.0651 42.6341 68.9297 42.6341H68.7422V42.4258H72.1797C72.7318 42.4258 73.263 42.5612 73.763 42.8216C74.263 43.0872 74.7005 43.4466 75.0755 43.9049C75.4505 44.3633 75.7422 44.8997 75.9505 45.5091C76.1693 46.1237 76.2839 46.7747 76.2839 47.4674C76.2839 48.1758 76.1693 48.8372 75.9505 49.4466C75.7422 50.0612 75.4505 50.6029 75.0755 51.0716C74.7005 51.5299 74.263 51.8945 73.763 52.1549C73.263 52.4206 72.7318 52.5508 72.1797 52.5508H70.9297V52.5299ZM72.1797 52.3216C72.2057 52.3216 72.2422 52.3216 72.2839 52.3216C72.3255 52.3216 72.3672 52.3216 72.4089 52.3216C72.8776 52.2695 73.3151 52.1029 73.7214 51.8216C74.1224 51.5299 74.4766 51.1654 74.7839 50.7174C75.1016 50.2591 75.3464 49.7591 75.513 49.2174C75.6901 48.6654 75.7839 48.082 75.7839 47.4674C75.7839 46.8581 75.6849 46.2695 75.4922 45.6966C75.3099 45.1133 75.0547 44.5924 74.7214 44.1341C74.388 43.6758 73.9974 43.3164 73.5547 43.0508C73.1224 42.7747 72.6641 42.6341 72.1797 42.6341H70.9089C70.7839 42.6341 70.6276 42.6654 70.4505 42.7174C70.2682 42.7591 70.1797 42.8424 70.1797 42.9674V51.9883C70.1797 52.1133 70.2682 52.207 70.4505 52.2591C70.6276 52.3008 70.7839 52.3216 70.9089 52.3216H72.1797Z" fill="#C8B7A1"/>
<path d="M77.0664 52.321C77.2747 52.321 77.4831 52.3105 77.6914 52.2793C77.9102 52.2533 78.056 52.1647 78.1289 52.0085L81.8372 42.4043H82.0456V42.4251L85.7747 52.0293C85.8581 52.1543 85.9831 52.2376 86.1497 52.2793C86.3164 52.3105 86.5039 52.321 86.7122 52.321V52.5293H84.3789V52.321C84.5977 52.321 84.806 52.3001 85.0039 52.2585C85.1966 52.2168 85.2643 52.1283 85.2122 51.9876L83.7331 48.1543H79.8372L78.3372 51.9876H78.3581C78.3164 52.0866 78.3477 52.1647 78.4622 52.2168C78.5872 52.2585 78.7383 52.2897 78.9206 52.3001C79.0977 52.3158 79.2643 52.321 79.4206 52.321V52.5293H77.0664V52.321ZM83.6497 47.946L81.7747 43.1335L79.9206 47.946H83.6497Z" fill="#C8B7A1"/>
<path d="M97.9375 52.5299H95.75V52.3216H95.9375C96.0729 52.3216 96.2292 52.3008 96.3958 52.2591C96.5729 52.207 96.6667 52.1133 96.6667 51.9883V42.9674C96.6667 42.8424 96.5729 42.7591 96.3958 42.7174C96.2292 42.6654 96.0729 42.6341 95.9375 42.6341H95.75V42.4258H99.1875C99.7396 42.4258 100.271 42.5612 100.771 42.8216C101.271 43.0872 101.708 43.4466 102.083 43.9049C102.458 44.3633 102.75 44.8997 102.958 45.5091C103.177 46.1237 103.292 46.7747 103.292 47.4674C103.292 48.1758 103.177 48.8372 102.958 49.4466C102.75 50.0612 102.458 50.6029 102.083 51.0716C101.708 51.5299 101.271 51.8945 100.771 52.1549C100.271 52.4206 99.7396 52.5508 99.1875 52.5508H97.9375V52.5299ZM99.1875 52.3216C99.2135 52.3216 99.25 52.3216 99.2917 52.3216C99.3333 52.3216 99.375 52.3216 99.4167 52.3216C99.8854 52.2695 100.323 52.1029 100.729 51.8216C101.13 51.5299 101.484 51.1654 101.792 50.7174C102.109 50.2591 102.354 49.7591 102.521 49.2174C102.698 48.6654 102.792 48.082 102.792 47.4674C102.792 46.8581 102.693 46.2695 102.5 45.6966C102.318 45.1133 102.063 44.5924 101.729 44.1341C101.396 43.6758 101.005 43.3164 100.563 43.0508C100.13 42.7747 99.6719 42.6341 99.1875 42.6341H97.9167C97.7917 42.6341 97.6354 42.6654 97.4583 42.7174C97.276 42.7591 97.1875 42.8424 97.1875 42.9674V51.9883C97.1875 52.1133 97.276 52.207 97.4583 52.2591C97.6354 52.3008 97.7917 52.3216 97.9167 52.3216H99.1875Z" fill="#C8B7A1"/>
<path d="M109.919 52.7383C109.336 52.7383 108.784 52.5977 108.273 52.3216C107.758 52.0456 107.299 51.6654 106.898 51.1758C106.508 50.6758 106.201 50.1237 105.982 49.5091C105.758 48.8841 105.648 48.2331 105.648 47.5508C105.648 46.8581 105.758 46.1966 105.982 45.5716C106.201 44.9466 106.508 44.3997 106.898 43.9258C107.299 43.4414 107.758 43.0612 108.273 42.7799C108.784 42.5039 109.336 42.3633 109.919 42.3633H110.044C110.638 42.3633 111.195 42.5039 111.711 42.7799C112.221 43.0612 112.674 43.4466 113.065 43.9466C113.451 44.4362 113.758 44.9883 113.982 45.6133C114.201 46.2279 114.315 46.8737 114.315 47.5508C114.315 48.2331 114.201 48.8841 113.982 49.5091C113.758 50.1341 113.451 50.6914 113.065 51.1758C112.69 51.6654 112.242 52.0456 111.732 52.3216C111.216 52.5977 110.654 52.7383 110.044 52.7383H109.919ZM108.711 52.2383C109.57 52.5977 110.424 52.5977 111.273 52.2383C111.758 52.0039 112.19 51.6497 112.565 51.1758C112.951 50.6914 113.253 50.1341 113.461 49.5091C113.68 48.8841 113.794 48.2331 113.794 47.5508C113.794 46.8008 113.659 46.0872 113.398 45.4049C113.133 44.7279 112.779 44.1445 112.336 43.6549C111.888 43.1706 111.383 42.8424 110.815 42.6758C110.674 42.6497 110.534 42.6289 110.398 42.6133C110.258 42.5872 110.117 42.5716 109.982 42.5716C109.841 42.5716 109.701 42.582 109.565 42.5924C109.424 42.6081 109.284 42.6341 109.148 42.6758C108.576 42.8581 108.07 43.1914 107.628 43.6758C107.18 44.1654 106.826 44.7487 106.565 45.4258C106.299 46.0924 106.169 46.8008 106.169 47.5508C106.169 48.2331 106.279 48.8841 106.503 49.5091C106.721 50.1341 107.023 50.6914 107.398 51.1758C107.784 51.6497 108.221 52.0039 108.711 52.2383Z" fill="#C8B7A1"/>
<path d="M116.535 52.321C116.785 52.321 116.999 52.3001 117.181 52.2585C117.358 52.2064 117.452 52.1126 117.452 51.9876V42.946C117.452 42.821 117.358 42.7376 117.181 42.696C116.999 42.6439 116.785 42.6126 116.535 42.6126V42.4043H117.952L123.764 51.5085V42.946C123.764 42.821 123.665 42.7376 123.473 42.696C123.29 42.6439 123.082 42.6126 122.848 42.6126V42.4043H124.868V42.6126C124.618 42.6126 124.4 42.6439 124.223 42.696C124.04 42.7376 123.952 42.821 123.952 42.946V52.5293H123.764L117.66 42.8835V51.9876C117.66 52.1126 117.749 52.2064 117.931 52.2585C118.108 52.3001 118.327 52.321 118.577 52.321V52.5293H116.535V52.321Z" fill="#C8B7A1"/>
<path d="M135.319 52.196C134.996 52.0189 134.725 51.8626 134.507 51.7376C134.283 51.6022 134.173 51.5241 134.173 51.5085L133.902 50.4251V50.4043L134.09 50.321C134.283 50.6855 134.507 51.0189 134.757 51.321C135.017 51.6126 135.303 51.8574 135.611 52.0501C136.027 52.3001 136.475 52.446 136.965 52.4876C137.465 52.5293 137.923 52.4616 138.34 52.2793C138.767 52.071 139.116 51.7689 139.382 51.3626C139.642 50.9616 139.777 50.5501 139.777 50.1335C139.777 49.748 139.632 49.3939 139.34 49.071C139.059 48.7376 138.72 48.4772 138.319 48.2793L135.861 47.1543C135.444 46.9355 135.1 46.623 134.84 46.2168C134.59 45.8158 134.465 45.3835 134.465 44.9251V44.7793C134.491 44.2949 134.621 43.8783 134.861 43.5293C135.111 43.1699 135.434 42.8939 135.84 42.696C136.257 42.5033 136.72 42.4043 137.236 42.4043C137.454 42.4043 137.678 42.446 137.902 42.5293C138.137 42.6022 138.361 42.6908 138.569 42.8001C138.595 42.8158 138.621 42.8366 138.652 42.8626C138.694 42.8783 138.736 42.8939 138.777 42.9043C139.053 43.0293 139.288 43.1543 139.486 43.2793C139.694 43.4043 139.798 43.4772 139.798 43.4876L139.986 44.2168L139.798 44.321C139.491 43.8105 139.111 43.4043 138.652 43.1126C138.204 42.821 137.736 42.6647 137.236 42.6335C136.871 42.6335 136.507 42.7324 136.132 42.9251C135.767 43.123 135.465 43.3835 135.215 43.7168C134.975 44.0501 134.845 44.4147 134.819 44.8001V44.9043C134.819 45.2793 134.944 45.6283 135.194 45.946C135.454 46.2689 135.762 46.5189 136.111 46.696L138.59 47.8418C139.09 48.0814 139.475 48.4043 139.757 48.821C140.033 49.2272 140.173 49.6647 140.173 50.1335C140.173 50.623 140.033 51.0658 139.757 51.4668C139.475 51.8574 139.116 52.1647 138.673 52.3835C138.116 52.6439 137.548 52.748 136.965 52.696C136.382 52.6543 135.829 52.4876 135.319 52.196Z" fill="#C8B7A1"/>
<path d="M141.539 52.321C141.747 52.321 141.956 52.3105 142.164 52.2793C142.383 52.2533 142.529 52.1647 142.602 52.0085L146.31 42.4043H146.518V42.4251L150.247 52.0293C150.331 52.1543 150.456 52.2376 150.622 52.2793C150.789 52.3105 150.977 52.321 151.185 52.321V52.5293H148.852V52.321C149.07 52.321 149.279 52.3001 149.477 52.2585C149.669 52.2168 149.737 52.1283 149.685 51.9876L148.206 48.1543H144.31L142.81 51.9876H142.831C142.789 52.0866 142.82 52.1647 142.935 52.2168C143.06 52.2585 143.211 52.2897 143.393 52.3001C143.57 52.3158 143.737 52.321 143.893 52.321V52.5293H141.539V52.321ZM148.122 47.946L146.247 43.1335L144.393 47.946H148.122Z" fill="#C8B7A1"/>
<path d="M153.414 52.321C153.664 52.321 153.878 52.3001 154.06 52.2585C154.237 52.2064 154.331 52.1126 154.331 51.9876V42.946C154.331 42.821 154.237 42.7376 154.06 42.696C153.878 42.6439 153.664 42.6126 153.414 42.6126V42.4043H154.831L160.643 51.5085V42.946C160.643 42.821 160.544 42.7376 160.352 42.696C160.169 42.6439 159.961 42.6126 159.727 42.6126V42.4043H161.747V42.6126C161.497 42.6126 161.279 42.6439 161.102 42.696C160.919 42.7376 160.831 42.821 160.831 42.946V52.5293H160.643L154.539 42.8835V51.9876C154.539 52.1126 154.628 52.2064 154.81 52.2585C154.987 52.3001 155.206 52.321 155.456 52.321V52.5293H153.414V52.321Z" fill="#C8B7A1"/>
<path d="M167.092 52.321C167.342 52.321 167.556 52.2949 167.738 52.2376C167.915 52.1855 168.009 52.0918 168.009 51.9668V42.6335H164.884C164.785 42.6335 164.686 42.6855 164.592 42.7793C164.493 42.8783 164.41 42.9824 164.342 43.0918C164.285 43.2064 164.249 43.2689 164.238 43.2793H164.113V42.4043H172.405V43.2793H172.301C172.285 43.2689 172.243 43.2064 172.176 43.0918C172.103 42.9824 172.02 42.8783 171.926 42.7793C171.842 42.6855 171.743 42.6335 171.634 42.6335H168.509V51.9668C168.509 52.0918 168.598 52.1855 168.78 52.2376C168.973 52.2949 169.197 52.321 169.447 52.321V52.5293H167.092V52.321Z" fill="#C8B7A1"/>
<path d="M174.773 52.3216H174.961C175.086 52.3216 175.237 52.3008 175.419 52.2591C175.596 52.207 175.69 52.1133 175.69 51.9883V42.9674C175.69 42.8424 175.596 42.7591 175.419 42.7174C175.237 42.6654 175.086 42.6341 174.961 42.6341H174.773V42.4258H177.128V42.6341H176.94C176.815 42.6341 176.659 42.6654 176.482 42.7174C176.299 42.7591 176.211 42.8424 176.211 42.9674V51.9883C176.211 52.1133 176.299 52.207 176.482 52.2591C176.659 52.3008 176.815 52.3216 176.94 52.3216H177.128V52.5299H174.773V52.3216Z" fill="#C8B7A1"/>
<path d="M178.637 52.321C178.845 52.321 179.053 52.3105 179.262 52.2793C179.48 52.2533 179.626 52.1647 179.699 52.0085L183.408 42.4043H183.616V42.4251L187.345 52.0293C187.428 52.1543 187.553 52.2376 187.72 52.2793C187.887 52.3105 188.074 52.321 188.283 52.321V52.5293H185.949V52.321C186.168 52.321 186.376 52.3001 186.574 52.2585C186.767 52.2168 186.835 52.1283 186.783 51.9876L185.303 48.1543H181.408L179.908 51.9876H179.928C179.887 52.0866 179.918 52.1647 180.033 52.2168C180.158 52.2585 180.309 52.2897 180.491 52.3001C180.668 52.3158 180.835 52.321 180.991 52.321V52.5293H178.637V52.321ZM185.22 47.946L183.345 43.1335L181.491 47.946H185.22Z" fill="#C8B7A1"/>
<path d="M194.349 52.6966C193.766 52.6966 193.214 52.5612 192.703 52.3008C192.187 52.0247 191.729 51.6497 191.328 51.1758C190.937 50.707 190.63 50.1549 190.411 49.5299C190.187 48.8945 190.078 48.2174 190.078 47.5091C190.078 46.7904 190.187 46.1133 190.411 45.4883C190.63 44.8633 190.937 44.3164 191.328 43.8424C191.729 43.3737 192.187 42.9987 192.703 42.7174C193.214 42.4414 193.766 42.3008 194.349 42.3008C194.641 42.3008 194.932 42.3372 195.224 42.4049C195.526 42.4779 195.812 42.582 196.078 42.7174L196.036 42.6758C196.297 42.8008 196.542 42.9258 196.766 43.0508C197 43.1758 197.187 43.2904 197.328 43.3841C197.464 43.4674 197.536 43.5091 197.536 43.5091L197.766 44.4466L197.578 44.5508C197.38 44.1081 197.109 43.7383 196.766 43.4466C196.417 43.1445 196.036 42.9154 195.62 42.7591C195.203 42.6081 194.776 42.5299 194.349 42.5299C193.833 42.5299 193.349 42.6706 192.891 42.9466C192.443 43.2122 192.047 43.582 191.703 44.0508C191.354 44.5247 191.083 45.0612 190.891 45.6549C190.693 46.2383 190.599 46.8581 190.599 47.5091C190.599 48.1237 190.687 48.7122 190.87 49.2799C191.047 49.8529 191.297 50.3633 191.62 50.8216C191.937 51.2695 192.297 51.6341 192.703 51.9258C193.12 52.2174 193.568 52.3997 194.057 52.4674C194.099 52.4831 194.146 52.4883 194.203 52.4883C194.255 52.4883 194.307 52.4883 194.349 52.4883C194.734 52.4883 195.109 52.4258 195.474 52.3008C195.833 52.1654 196.167 51.9779 196.474 51.7383C197.026 51.3112 197.307 50.7487 197.307 50.0508V49.0091C197.307 48.8737 197.208 48.7799 197.016 48.7383C196.833 48.6966 196.682 48.6758 196.557 48.6758H196.391V48.4674H198.724V48.6758H198.536C198.411 48.6758 198.255 48.6966 198.078 48.7383C197.896 48.7799 197.807 48.8737 197.807 49.0091V51.1966C197.807 51.1966 197.714 51.2695 197.536 51.4049C197.354 51.5299 197.12 51.6862 196.828 51.8633C196.536 52.0456 196.229 52.207 195.911 52.3424C195.422 52.5768 194.901 52.6966 194.349 52.6966Z" fill="#C8B7A1"/>
<path d="M205.349 52.7383C204.766 52.7383 204.214 52.5977 203.703 52.3216C203.187 52.0456 202.729 51.6654 202.328 51.1758C201.937 50.6758 201.63 50.1237 201.411 49.5091C201.187 48.8841 201.078 48.2331 201.078 47.5508C201.078 46.8581 201.187 46.1966 201.411 45.5716C201.63 44.9466 201.937 44.3997 202.328 43.9258C202.729 43.4414 203.187 43.0612 203.703 42.7799C204.214 42.5039 204.766 42.3633 205.349 42.3633H205.474C206.068 42.3633 206.625 42.5039 207.141 42.7799C207.651 43.0612 208.104 43.4466 208.495 43.9466C208.88 44.4362 209.187 44.9883 209.411 45.6133C209.63 46.2279 209.745 46.8737 209.745 47.5508C209.745 48.2331 209.63 48.8841 209.411 49.5091C209.187 50.1341 208.88 50.6914 208.495 51.1758C208.12 51.6654 207.672 52.0456 207.161 52.3216C206.646 52.5977 206.083 52.7383 205.474 52.7383H205.349ZM204.141 52.2383C205 52.5977 205.854 52.5977 206.703 52.2383C207.187 52.0039 207.62 51.6497 207.995 51.1758C208.38 50.6914 208.682 50.1341 208.891 49.5091C209.109 48.8841 209.224 48.2331 209.224 47.5508C209.224 46.8008 209.089 46.0872 208.828 45.4049C208.562 44.7279 208.208 44.1445 207.766 43.6549C207.318 43.1706 206.812 42.8424 206.245 42.6758C206.104 42.6497 205.964 42.6289 205.828 42.6133C205.687 42.5872 205.547 42.5716 205.411 42.5716C205.271 42.5716 205.13 42.582 204.995 42.5924C204.854 42.6081 204.714 42.6341 204.578 42.6758C204.005 42.8581 203.5 43.1914 203.057 43.6758C202.609 44.1654 202.255 44.7487 201.995 45.4258C201.729 46.0924 201.599 46.8008 201.599 47.5508C201.599 48.2331 201.708 48.8841 201.932 49.5091C202.151 50.1341 202.453 50.6914 202.828 51.1758C203.214 51.6497 203.651 52.0039 204.141 52.2383Z" fill="#C8B7A1"/>
<path d="M218.625 52.4271H218.813C218.938 52.4167 219.089 52.3854 219.271 52.3438C219.448 52.3021 219.542 52.2188 219.542 52.0938V42.8229L218.958 43.4688L218.813 43.3229L219.542 42.5312H220.063V52.0938C220.063 52.2188 220.146 52.3021 220.313 52.3438C220.49 52.3854 220.651 52.4167 220.792 52.4271H220.958V52.6354H218.625V52.4271Z" fill="#C8B7A1"/>
<path d="M227.311 52.7591C226.754 52.7591 226.233 52.6289 225.749 52.3633C225.275 52.1029 224.858 51.7331 224.499 51.2591C224.134 50.7904 223.853 50.2331 223.645 49.5924C223.436 48.957 223.332 48.2695 223.332 47.5299C223.332 46.7799 223.436 46.0924 223.645 45.4674C223.853 44.832 224.134 44.2747 224.499 43.8008C224.858 43.332 225.275 42.9622 225.749 42.6966C226.233 42.4362 226.754 42.3008 227.311 42.3008C227.853 42.3008 228.358 42.4362 228.832 42.6966C229.316 42.9622 229.738 43.332 230.103 43.8008C230.462 44.2747 230.749 44.832 230.957 45.4674C231.165 46.0924 231.27 46.7799 231.27 47.5299C231.27 48.2695 231.165 48.957 230.957 49.5924C230.749 50.2331 230.462 50.7904 230.103 51.2591C229.738 51.7331 229.316 52.1029 228.832 52.3633C228.358 52.6289 227.853 52.7591 227.311 52.7591ZM227.311 52.5508C227.78 52.5508 228.228 52.4206 228.645 52.1549C229.061 51.8789 229.426 51.5091 229.749 51.0508C230.066 50.582 230.311 50.0456 230.478 49.4466C230.655 48.8372 230.749 48.1966 230.749 47.5299C230.749 46.8529 230.655 46.2122 230.478 45.6133C230.311 45.0039 230.066 44.4674 229.749 44.0091C229.426 43.5404 229.061 43.1706 228.645 42.9049C228.228 42.6445 227.78 42.5091 227.311 42.5091C226.822 42.5091 226.374 42.6445 225.957 42.9049C225.551 43.1706 225.191 43.5404 224.874 44.0091C224.551 44.4674 224.301 45.0039 224.124 45.6133C223.941 46.2122 223.853 46.8529 223.853 47.5299C223.853 48.1966 223.941 48.8372 224.124 49.4466C224.301 50.0456 224.551 50.582 224.874 51.0508C225.191 51.5091 225.551 51.8789 225.957 52.1549C226.374 52.4206 226.822 52.5508 227.311 52.5508Z" fill="#C8B7A1"/>
<path d="M233.633 52.4271H233.82C233.945 52.4167 234.096 52.3854 234.279 52.3438C234.456 52.3021 234.549 52.2188 234.549 52.0938V42.8229L233.966 43.4688L233.82 43.3229L234.549 42.5312H235.07V52.0938C235.07 52.2188 235.154 52.3021 235.32 52.3438C235.497 52.3854 235.659 52.4167 235.799 52.4271H235.966V52.6354H233.633V52.4271Z" fill="#C8B7A1"/>
<path d="M86.0432 71.8855C85.4449 71.8855 84.8883 71.7496 84.3785 71.4883C83.8634 71.2113 83.4108 70.8349 83.0259 70.3593C82.6357 69.8889 82.3288 69.3349 82.1103 68.7077C81.8866 68.07 81.7773 67.3906 81.7773 66.6798C81.7773 65.9585 81.8866 65.279 82.1103 64.6518C82.3288 64.0142 82.6357 63.4549 83.0259 62.9793C83.4108 62.5089 83.8634 62.1378 84.3785 61.8713C84.8883 61.5942 85.4449 61.4531 86.0432 61.4531C86.6518 61.4531 87.2293 61.589 87.7703 61.8503L87.7287 61.8294C87.9888 61.9444 88.2333 62.0699 88.457 62.2058C88.6911 62.3312 88.8784 62.4357 89.0188 62.5194C89.1541 62.603 89.2269 62.6448 89.2269 62.6448L89.4558 63.6065L89.2685 63.711C89.0709 63.2668 88.8003 62.8905 88.457 62.5821C88.1084 62.2789 87.7287 62.049 87.3125 61.8922C86.8963 61.7406 86.4697 61.6622 86.0432 61.6622C85.5281 61.6622 85.0443 61.8033 84.5865 62.0803C84.1392 62.3626 83.7438 62.7389 83.4004 63.2093C83.0519 63.6849 82.7814 64.2232 82.5889 64.8191C82.3912 65.4045 82.2976 66.0264 82.2976 66.6798C82.2976 67.2965 82.386 67.8871 82.5681 68.4568C82.745 69.0161 82.9895 69.5231 83.2964 69.983C83.6137 70.4429 83.9831 70.8193 84.3993 71.1119C84.8154 71.4046 85.2628 71.5876 85.7518 71.6555C85.7935 71.6712 85.8403 71.6764 85.8975 71.6764C85.9495 71.6764 86.0015 71.6764 86.0432 71.6764C86.7194 71.6764 87.3593 71.4778 87.9576 71.0701C88.5506 70.652 89.0396 70.0875 89.4142 69.3767L89.6015 69.4812L89.331 70.5893C89.331 70.5893 89.2477 70.6468 89.0813 70.7565C88.9252 70.8558 88.7171 70.9761 88.457 71.1119C88.1917 71.2531 87.9004 71.3942 87.583 71.5301H87.6038C87.1148 71.7653 86.5946 71.8855 86.0432 71.8855Z" fill="#C8B7A1"/>
<path d="M91.9648 71.6983V71.4892H92.1521C92.277 71.4892 92.4278 71.4683 92.6099 71.4265C92.7868 71.3742 92.8804 71.2801 92.8804 71.1547V62.1022C92.8804 61.9767 92.7868 61.8931 92.6099 61.8513C92.4278 61.799 92.277 61.7677 92.1521 61.7677H91.9648V61.5586H94.3162V61.7677H94.129C94.0041 61.7677 93.848 61.799 93.6712 61.8513C93.4891 61.8931 93.4007 61.9767 93.4007 62.1022V65.9699H98.4572V62.1022C98.4572 61.9767 98.3636 61.8931 98.1867 61.8513C98.0202 61.799 97.8642 61.7677 97.7289 61.7677H97.5416V61.5586H99.893V61.7677H99.7266C99.5861 61.7677 99.4248 61.799 99.2479 61.8513C99.0659 61.8931 98.9774 61.9767 98.9774 62.1022V71.1547C98.9774 71.2801 99.0659 71.3742 99.2479 71.4265C99.4248 71.4683 99.5861 71.4892 99.7266 71.4892H99.893V71.6983H97.5416V71.4892H97.7289C97.8642 71.4892 98.0202 71.4683 98.1867 71.4265C98.3636 71.3742 98.4572 71.2801 98.4572 71.1547V66.1789H93.4007V71.1547C93.4007 71.2801 93.4891 71.3742 93.6712 71.4265C93.848 71.4683 94.0041 71.4892 94.129 71.4892H94.3162V71.6983H91.9648Z" fill="#C8B7A1"/>
<path d="M106.52 71.9076C105.937 71.9076 105.386 71.7664 104.876 71.4894C104.361 71.2124 103.903 70.8309 103.502 70.3396C103.112 69.8378 102.805 69.2838 102.587 68.667C102.363 68.0398 102.254 67.3865 102.254 66.7018C102.254 66.0067 102.363 65.3429 102.587 64.7157C102.805 64.0885 103.112 63.5397 103.502 63.0641C103.903 62.578 104.361 62.1965 104.876 61.9142C105.386 61.6372 105.937 61.4961 106.52 61.4961H106.645C107.238 61.4961 107.794 61.6372 108.309 61.9142C108.819 62.1965 109.272 62.5832 109.662 63.085C110.047 63.5763 110.354 64.1303 110.577 64.7575C110.796 65.3743 110.91 66.0224 110.91 66.7018C110.91 67.3865 110.796 68.0398 110.577 68.667C110.354 69.2942 110.047 69.8535 109.662 70.3396C109.287 70.8309 108.84 71.2124 108.33 71.4894C107.815 71.7664 107.253 71.9076 106.645 71.9076H106.52ZM105.313 71.4058C106.171 71.7664 107.024 71.7664 107.872 71.4058C108.356 71.1706 108.788 70.8152 109.162 70.3396C109.547 69.8535 109.849 69.2942 110.057 68.667C110.276 68.0398 110.39 67.3865 110.39 66.7018C110.39 65.9492 110.255 65.2331 109.995 64.5484C109.729 63.869 109.376 63.2836 108.934 62.7923C108.486 62.3062 107.982 61.9769 107.415 61.8097C107.274 61.7836 107.134 61.7627 106.998 61.747C106.858 61.7208 106.717 61.7052 106.582 61.7052C106.442 61.7052 106.301 61.7156 106.166 61.7261C106.026 61.7417 105.885 61.7679 105.75 61.8097C105.178 61.9926 104.673 62.3271 104.231 62.8132C103.783 63.3045 103.43 63.8899 103.169 64.5694C102.904 65.2384 102.774 65.9492 102.774 66.7018C102.774 67.3865 102.883 68.0398 103.107 68.667C103.326 69.2942 103.627 69.8535 104.002 70.3396C104.387 70.8152 104.824 71.1706 105.313 71.4058Z" fill="#C8B7A1"/>
<path d="M113.129 71.4886C113.379 71.4886 113.592 71.4625 113.774 71.405C113.951 71.3527 114.044 71.2587 114.044 71.1332V62.0807C114.044 61.9552 113.951 61.8716 113.774 61.8298C113.592 61.788 113.379 61.7671 113.129 61.7671V61.5371H116.5C117.083 61.5371 117.603 61.6521 118.061 61.8716C118.529 62.0964 118.903 62.41 119.184 62.8124C119.46 63.2201 119.6 63.7114 119.6 64.2968C119.6 64.7881 119.486 65.2323 119.268 65.6348C119.044 66.0268 118.747 66.3456 118.373 66.5965C117.998 66.8474 117.572 67.0094 117.103 67.0773C117.462 67.276 117.78 67.4902 118.061 67.7254C118.352 67.9502 118.56 68.3265 118.685 68.8544C118.737 69.0791 118.81 69.3457 118.893 69.6488C118.976 69.9415 119.085 70.229 119.226 70.506C119.361 70.7883 119.528 71.0235 119.725 71.2168C119.933 71.3998 120.168 71.4886 120.433 71.4886V71.6977H119.621C119.257 71.4207 118.987 71.1332 118.81 70.8405C118.628 70.5374 118.487 70.2081 118.394 69.8579C118.31 69.513 118.211 69.1366 118.102 68.729C118.045 68.4938 117.925 68.2586 117.748 68.0181C117.566 67.7673 117.364 67.5582 117.145 67.3909C116.937 67.2237 116.729 67.1401 116.521 67.1401H114.565V71.1332C114.565 71.2587 114.653 71.3527 114.835 71.405C115.012 71.4625 115.231 71.4886 115.48 71.4886V71.6977H113.129V71.4886ZM116.5 66.931C116.984 66.931 117.416 66.816 117.79 66.5756C118.175 66.3404 118.487 66.0216 118.726 65.6139C118.961 65.2114 119.08 64.7724 119.08 64.2968C119.08 63.8107 118.961 63.3769 118.726 63.0006C118.487 62.6242 118.175 62.3263 117.79 62.1016C117.416 61.8821 116.984 61.7671 116.5 61.7671H115.293C115.168 61.7671 115.012 61.788 114.835 61.8298C114.653 61.8716 114.565 61.9657 114.565 62.1016V66.931H116.5Z" fill="#C8B7A1"/>
<path d="M122.516 71.4886C122.765 71.4886 122.979 71.4625 123.161 71.405C123.338 71.3527 123.431 71.2587 123.431 71.1332V62.0807C123.431 61.9552 123.338 61.8716 123.161 61.8298C122.979 61.788 122.765 61.7671 122.516 61.7671V61.5371H125.887C126.469 61.5371 126.99 61.6521 127.447 61.8716C127.916 62.0964 128.29 62.41 128.571 62.8124C128.847 63.2201 128.987 63.7114 128.987 64.2968C128.987 64.7881 128.873 65.2323 128.654 65.6348C128.431 66.0268 128.134 66.3456 127.759 66.5965C127.385 66.8474 126.958 67.0094 126.49 67.0773C126.849 67.276 127.166 67.4902 127.447 67.7254C127.739 67.9502 127.947 68.3265 128.072 68.8544C128.124 69.0791 128.196 69.3457 128.28 69.6488C128.363 69.9415 128.472 70.229 128.613 70.506C128.748 70.7883 128.914 71.0235 129.112 71.2168C129.32 71.3998 129.554 71.4886 129.82 71.4886V71.6977H129.008C128.644 71.4207 128.373 71.1332 128.196 70.8405C128.014 70.5374 127.874 70.2081 127.78 69.8579C127.697 69.513 127.598 69.1366 127.489 68.729C127.432 68.4938 127.312 68.2586 127.135 68.0181C126.953 67.7673 126.75 67.5582 126.532 67.3909C126.324 67.2237 126.116 67.1401 125.907 67.1401H123.951V71.1332C123.951 71.2587 124.04 71.3527 124.222 71.405C124.399 71.4625 124.617 71.4886 124.867 71.4886V71.6977H122.516V71.4886ZM125.887 66.931C126.37 66.931 126.802 66.816 127.177 66.5756C127.562 66.3404 127.874 66.0216 128.113 65.6139C128.347 65.2114 128.467 64.7724 128.467 64.2968C128.467 63.8107 128.347 63.3769 128.113 63.0006C127.874 62.6242 127.562 62.3263 127.177 62.1016C126.802 61.8821 126.37 61.7671 125.887 61.7671H124.68C124.555 61.7671 124.399 61.788 124.222 61.8298C124.04 61.8716 123.951 61.9657 123.951 62.1016V66.931H125.887Z" fill="#C8B7A1"/>
<path d="M131.902 71.4892H132.09C132.214 71.4892 132.365 71.4683 132.547 71.4265C132.724 71.3742 132.818 71.2801 132.818 71.1547V62.1022C132.818 61.9767 132.724 61.8931 132.547 61.8513C132.365 61.799 132.214 61.7677 132.09 61.7677H131.902V61.5586H134.254V61.7677H134.066C133.942 61.7677 133.786 61.799 133.609 61.8513C133.427 61.8931 133.338 61.9767 133.338 62.1022V71.1547C133.338 71.2801 133.427 71.3742 133.609 71.4265C133.786 71.4683 133.942 71.4892 134.066 71.4892H134.254V71.6983H131.902V71.4892Z" fill="#C8B7A1"/>
<path d="M136.617 71.4886H136.804C136.929 71.4782 137.08 71.4468 137.262 71.405C137.439 71.3527 137.533 71.2587 137.533 71.1332V62.1016C137.533 62.018 137.481 61.95 137.387 61.8925C137.304 61.8403 137.2 61.8037 137.075 61.788C136.95 61.7775 136.836 61.7671 136.742 61.7671C136.659 61.7566 136.617 61.7462 136.617 61.7462V61.5371H138.948V61.7462C138.948 61.7462 138.896 61.7566 138.802 61.7671C138.719 61.7671 138.615 61.7775 138.49 61.788C138.365 61.8037 138.251 61.8403 138.157 61.8925C138.074 61.95 138.032 62.018 138.032 62.1016V71.4886H141.736C141.887 71.4886 142.017 71.4416 142.132 71.3423C142.256 71.2325 142.36 71.1228 142.444 71.0078C142.537 70.8823 142.595 70.8144 142.61 70.7987V70.7778H142.839L142.277 71.6977H136.617V71.4886Z" fill="#C8B7A1"/>
<path d="M145.062 71.4886H145.25C145.375 71.4782 145.525 71.4468 145.708 71.405C145.884 71.3527 145.978 71.2587 145.978 71.1332V62.1016C145.978 62.018 145.926 61.95 145.832 61.8925C145.749 61.8403 145.645 61.8037 145.52 61.788C145.395 61.7775 145.281 61.7671 145.187 61.7671C145.104 61.7566 145.062 61.7462 145.062 61.7462V61.5371H147.393V61.7462C147.393 61.7462 147.341 61.7566 147.247 61.7671C147.164 61.7671 147.06 61.7775 146.935 61.788C146.81 61.8037 146.696 61.8403 146.602 61.8925C146.519 61.95 146.478 62.018 146.478 62.1016V71.4886H150.181C150.332 71.4886 150.462 71.4416 150.577 71.3423C150.702 71.2325 150.806 71.1228 150.889 71.0078C150.983 70.8823 151.04 70.8144 151.055 70.7987V70.7778H151.284L150.723 71.6977H145.062V71.4886Z" fill="#C8B7A1"/>
<path d="M156.774 71.9076C156.191 71.9076 155.64 71.7664 155.13 71.4894C154.615 71.2124 154.157 70.8309 153.756 70.3396C153.366 69.8378 153.059 69.2838 152.841 68.667C152.617 68.0398 152.508 67.3865 152.508 66.7018C152.508 66.0067 152.617 65.3429 152.841 64.7157C153.059 64.0885 153.366 63.5397 153.756 63.0641C154.157 62.578 154.615 62.1965 155.13 61.9142C155.64 61.6372 156.191 61.4961 156.774 61.4961H156.898C157.492 61.4961 158.048 61.6372 158.563 61.9142C159.073 62.1965 159.526 62.5832 159.916 63.085C160.301 63.5763 160.608 64.1303 160.831 64.7575C161.05 65.3743 161.164 66.0224 161.164 66.7018C161.164 67.3865 161.05 68.0398 160.831 68.667C160.608 69.2942 160.301 69.8535 159.916 70.3396C159.541 70.8309 159.094 71.2124 158.584 71.4894C158.069 71.7664 157.507 71.9076 156.898 71.9076H156.774ZM155.567 71.4058C156.425 71.7664 157.278 71.7664 158.126 71.4058C158.61 71.1706 159.042 70.8152 159.416 70.3396C159.801 69.8535 160.103 69.2942 160.311 68.667C160.53 68.0398 160.644 67.3865 160.644 66.7018C160.644 65.9492 160.509 65.2331 160.249 64.5484C159.983 63.869 159.63 63.2836 159.187 62.7923C158.74 62.3062 158.235 61.9769 157.668 61.8097C157.528 61.7836 157.387 61.7627 157.252 61.747C157.112 61.7208 156.971 61.7052 156.836 61.7052C156.696 61.7052 156.555 61.7156 156.42 61.7261C156.279 61.7417 156.139 61.7679 156.004 61.8097C155.431 61.9926 154.927 62.3271 154.485 62.8132C154.037 63.3045 153.684 63.8899 153.423 64.5694C153.158 65.2384 153.028 65.9492 153.028 66.7018C153.028 67.3865 153.137 68.0398 153.361 68.667C153.579 69.2942 153.881 69.8535 154.256 70.3396C154.641 70.8152 155.078 71.1706 155.567 71.4058Z" fill="#C8B7A1"/>
<path d="M164.938 71.3632C164.616 71.1855 164.345 71.0287 164.127 70.9032C163.903 70.7673 163.794 70.6889 163.794 70.6733L163.523 69.5861V69.5652L163.711 69.4816C163.903 69.8475 164.127 70.182 164.377 70.4851C164.637 70.7778 164.923 71.0235 165.23 71.2168C165.646 71.4677 166.093 71.6141 166.582 71.6559C167.082 71.6977 167.54 71.6297 167.956 71.4468C168.382 71.2377 168.731 70.9346 168.996 70.5269C169.256 70.1245 169.392 69.7116 169.392 69.2934C169.392 68.9067 169.246 68.5513 168.955 68.2272C168.674 67.8927 168.335 67.6314 167.935 67.4328L165.479 66.3038C165.063 66.0843 164.72 65.7707 164.46 65.363C164.21 64.9606 164.085 64.5267 164.085 64.0668V63.9205C164.111 63.4344 164.241 63.0162 164.481 62.6661C164.73 62.3054 165.053 62.0284 165.459 61.8298C165.875 61.6364 166.338 61.5371 166.853 61.5371C167.071 61.5371 167.295 61.5789 167.519 61.6625C167.753 61.7357 167.977 61.8246 168.185 61.9343C168.211 61.95 168.237 61.9709 168.268 61.9971C168.309 62.0127 168.351 62.0284 168.393 62.0389C168.668 62.1643 168.903 62.2897 169.1 62.4152C169.308 62.5406 169.412 62.6138 169.412 62.6242L169.6 63.356L169.412 63.4605C169.105 62.9483 168.726 62.5406 168.268 62.2479C167.82 61.9552 167.352 61.7984 166.853 61.7671C166.489 61.7671 166.125 61.8664 165.75 62.0598C165.386 62.2584 165.084 62.5197 164.834 62.8542C164.595 63.1887 164.465 63.5546 164.439 63.9414V64.0459C164.439 64.4222 164.564 64.7724 164.814 65.0912C165.074 65.4153 165.381 65.6662 165.729 65.8439L168.205 66.9937C168.705 67.2341 169.09 67.5582 169.371 67.9763C169.646 68.384 169.787 68.823 169.787 69.2934C169.787 69.7847 169.646 70.229 169.371 70.6315C169.09 71.0235 168.731 71.3318 168.289 71.5513C167.732 71.8127 167.165 71.9172 166.582 71.8649C166 71.8231 165.448 71.6559 164.938 71.3632Z" fill="#C8B7A1"/>
<path d="M87.8127 110.169C87.2144 110.169 86.6578 110.033 86.148 109.771C85.633 109.494 85.1804 109.118 84.7954 108.643C84.4052 108.172 84.0983 107.618 83.8798 106.991C83.6561 106.353 83.5469 105.674 83.5469 104.963C83.5469 104.242 83.6561 103.562 83.8798 102.935C84.0983 102.297 84.4052 101.738 84.7954 101.263C85.1804 100.792 85.633 100.421 86.148 100.154C86.6578 99.8774 87.2144 99.7363 87.8127 99.7363C88.4214 99.7363 88.9988 99.8722 89.5398 100.134L89.4982 100.113C89.7583 100.228 90.0028 100.353 90.2265 100.489C90.4606 100.614 90.6479 100.719 90.7884 100.803C90.9236 100.886 90.9964 100.928 90.9964 100.928L91.2253 101.89L91.0381 101.994C90.8404 101.55 90.5699 101.174 90.2265 100.865C89.878 100.562 89.4982 100.332 89.082 100.175C88.6659 100.024 88.2393 99.9454 87.8127 99.9454C87.2977 99.9454 86.8139 100.087 86.3561 100.364C85.9087 100.646 85.5133 101.022 85.17 101.492C84.8214 101.968 84.5509 102.506 84.3584 103.102C84.1607 103.688 84.0671 104.31 84.0671 104.963C84.0671 105.58 84.1555 106.17 84.3376 106.74C84.5145 107.299 84.759 107.806 85.0659 108.266C85.3833 108.726 85.7526 109.102 86.1688 109.395C86.585 109.688 87.0324 109.871 87.5214 109.939C87.563 109.954 87.6098 109.96 87.667 109.96C87.7191 109.96 87.7711 109.96 87.8127 109.96C88.489 109.96 89.1289 109.761 89.7271 109.353C90.3202 108.935 90.8092 108.371 91.1837 107.66L91.371 107.764L91.1005 108.872C91.1005 108.872 91.0173 108.93 90.8508 109.04C90.6947 109.139 90.4866 109.259 90.2265 109.395C89.9612 109.536 89.6699 109.677 89.3525 109.813H89.3734C88.8843 110.048 88.3641 110.169 87.8127 110.169Z" fill="#C8B7A1"/>
<path d="M99.6649 109.08H99.9146L99.3528 109.979H93.7344V109.77H93.9217C94.0465 109.77 94.1974 109.749 94.3794 109.707C94.5563 109.655 94.65 109.561 94.65 109.435V100.383C94.65 100.299 94.5979 100.236 94.5043 100.195C94.4211 100.142 94.317 100.106 94.1922 100.09C94.0673 100.064 93.9529 100.048 93.8592 100.048C93.776 100.048 93.7344 100.048 93.7344 100.048V99.8184H99.2695V100.696H99.1655C99.1499 100.686 99.1083 100.623 99.0406 100.508C98.9678 100.399 98.8846 100.294 98.7909 100.195C98.7077 100.101 98.6089 100.048 98.4996 100.048H95.1494V104.23H98.5204C98.6036 104.23 98.6713 104.177 98.7285 104.062C98.7961 103.953 98.8325 103.895 98.8325 103.895H98.9366V104.794H98.8325C98.8325 104.794 98.7961 104.742 98.7285 104.627C98.6713 104.517 98.6036 104.46 98.5204 104.46H95.1494V109.77H98.8117C98.9626 109.77 99.0927 109.723 99.2071 109.624C99.332 109.514 99.436 109.404 99.5192 109.289C99.6129 109.179 99.6649 109.111 99.6649 109.08Z" fill="#C8B7A1"/>
<path d="M102.277 109.77C102.527 109.77 102.74 109.744 102.922 109.686C103.099 109.634 103.193 109.54 103.193 109.414V100.362C103.193 100.236 103.099 100.153 102.922 100.111C102.74 100.069 102.527 100.048 102.277 100.048V99.8184H105.648C106.231 99.8184 106.751 99.9333 107.209 100.153C107.677 100.378 108.052 100.691 108.333 101.094C108.608 101.501 108.749 101.993 108.749 102.578C108.749 103.069 108.634 103.514 108.416 103.916C108.192 104.308 107.896 104.627 107.521 104.878C107.147 105.129 106.72 105.291 106.252 105.359C106.611 105.557 106.928 105.771 107.209 106.007C107.5 106.231 107.708 106.608 107.833 107.136C107.885 107.36 107.958 107.627 108.041 107.93C108.125 108.223 108.234 108.51 108.374 108.787C108.51 109.07 108.676 109.305 108.874 109.498C109.082 109.681 109.316 109.77 109.581 109.77V109.979H108.77C108.406 109.702 108.135 109.414 107.958 109.122C107.776 108.819 107.636 108.489 107.542 108.139C107.459 107.794 107.36 107.418 107.251 107.01C107.193 106.775 107.074 106.54 106.897 106.299C106.715 106.049 106.512 105.839 106.293 105.672C106.085 105.505 105.877 105.421 105.669 105.421H103.713V109.414C103.713 109.54 103.802 109.634 103.984 109.686C104.161 109.744 104.379 109.77 104.629 109.77V109.979H102.277V109.77ZM105.648 105.212C106.132 105.212 106.564 105.097 106.939 104.857C107.323 104.622 107.636 104.303 107.875 103.895C108.109 103.493 108.229 103.054 108.229 102.578C108.229 102.092 108.109 101.658 107.875 101.282C107.636 100.905 107.323 100.608 106.939 100.383C106.564 100.163 106.132 100.048 105.648 100.048H104.441C104.317 100.048 104.161 100.069 103.984 100.111C103.802 100.153 103.713 100.247 103.713 100.383V105.212H105.648Z" fill="#C8B7A1"/>
<path d="M117.739 109.08H117.989L117.427 109.979H111.809V109.77H111.996C112.121 109.77 112.272 109.749 112.454 109.707C112.631 109.655 112.724 109.561 112.724 109.435V100.383C112.724 100.299 112.672 100.236 112.579 100.195C112.495 100.142 112.391 100.106 112.266 100.09C112.142 100.064 112.027 100.048 111.933 100.048C111.85 100.048 111.809 100.048 111.809 100.048V99.8184H117.344V100.696H117.24C117.224 100.686 117.182 100.623 117.115 100.508C117.042 100.399 116.959 100.294 116.865 100.195C116.782 100.101 116.683 100.048 116.574 100.048H113.224V104.23H116.595C116.678 104.23 116.745 104.177 116.803 104.062C116.87 103.953 116.907 103.895 116.907 103.895H117.011V104.794H116.907C116.907 104.794 116.87 104.742 116.803 104.627C116.745 104.517 116.678 104.46 116.595 104.46H113.224V109.77H116.886C117.037 109.77 117.167 109.723 117.281 109.624C117.406 109.514 117.51 109.404 117.593 109.289C117.687 109.179 117.739 109.111 117.739 109.08Z" fill="#C8B7A1"/>
<path d="M120.355 109.77C120.605 109.77 120.818 109.749 121.001 109.707C121.177 109.655 121.271 109.561 121.271 109.435V100.362C121.271 100.236 121.177 100.153 121.001 100.111C120.818 100.059 120.605 100.027 120.355 100.027V99.8184H121.833L125.516 108.996L129.137 99.8184H130.635V100.027C130.385 100.027 130.167 100.059 129.99 100.111C129.808 100.153 129.719 100.236 129.719 100.362V109.435C129.719 109.561 129.808 109.655 129.99 109.707C130.167 109.749 130.385 109.77 130.635 109.77V109.979H128.284V109.77C128.533 109.77 128.747 109.749 128.929 109.707C129.106 109.655 129.199 109.561 129.199 109.435V100.257L125.37 109.916H125.329L121.479 100.32V109.435C121.479 109.561 121.568 109.655 121.75 109.707C121.927 109.749 122.145 109.77 122.395 109.77V109.979H120.355V109.77Z" fill="#C8B7A1"/>
<path d="M137.25 110.189C136.668 110.189 136.116 110.048 135.606 109.771C135.091 109.494 134.633 109.112 134.233 108.621C133.843 108.119 133.536 107.565 133.317 106.948C133.094 106.321 132.984 105.668 132.984 104.983C132.984 104.288 133.094 103.624 133.317 102.997C133.536 102.37 133.843 101.821 134.233 101.345C134.633 100.859 135.091 100.478 135.606 100.195C136.116 99.9185 136.668 99.7773 137.25 99.7773H137.375C137.968 99.7773 138.525 99.9185 139.04 100.195C139.55 100.478 140.002 100.864 140.392 101.366C140.777 101.858 141.084 102.412 141.308 103.039C141.526 103.656 141.641 104.304 141.641 104.983C141.641 105.668 141.526 106.321 141.308 106.948C141.084 107.575 140.777 108.135 140.392 108.621C140.018 109.112 139.57 109.494 139.061 109.771C138.546 110.048 137.984 110.189 137.375 110.189H137.25ZM136.043 109.687C136.902 110.048 137.755 110.048 138.603 109.687C139.087 109.452 139.518 109.096 139.893 108.621C140.278 108.135 140.58 107.575 140.788 106.948C141.006 106.321 141.121 105.668 141.121 104.983C141.121 104.23 140.985 103.514 140.725 102.83C140.46 102.15 140.106 101.565 139.664 101.074C139.217 100.587 138.712 100.258 138.145 100.091C138.005 100.065 137.864 100.044 137.729 100.028C137.588 100.002 137.448 99.9864 137.313 99.9864C137.172 99.9864 137.032 99.9969 136.896 100.007C136.756 100.023 136.616 100.049 136.48 100.091C135.908 100.274 135.403 100.608 134.961 101.094C134.514 101.586 134.16 102.171 133.9 102.851C133.635 103.52 133.505 104.23 133.505 104.983C133.505 105.668 133.614 106.321 133.838 106.948C134.056 107.575 134.358 108.135 134.732 108.621C135.117 109.096 135.554 109.452 136.043 109.687Z" fill="#C8B7A1"/>
<path d="M143.859 109.77C144.109 109.77 144.322 109.749 144.504 109.707C144.681 109.655 144.775 109.561 144.775 109.435V100.362C144.775 100.236 144.681 100.153 144.504 100.111C144.322 100.059 144.109 100.027 143.859 100.027V99.8184H145.274L151.08 108.955V100.362C151.08 100.236 150.981 100.153 150.789 100.111C150.607 100.059 150.399 100.027 150.164 100.027V99.8184H152.183V100.027C151.933 100.027 151.715 100.059 151.538 100.111C151.356 100.153 151.267 100.236 151.267 100.362V109.979H151.08L144.983 100.299V109.435C144.983 109.561 145.071 109.655 145.254 109.707C145.43 109.749 145.649 109.77 145.899 109.77V109.979H143.859V109.77Z" fill="#C8B7A1"/>
<path d="M154.543 109.77H154.73C154.855 109.77 155.006 109.75 155.188 109.708C155.365 109.655 155.459 109.561 155.459 109.436V100.383C155.459 100.258 155.365 100.174 155.188 100.133C155.006 100.08 154.855 100.049 154.73 100.049H154.543V99.8398H156.894V100.049H156.707C156.582 100.049 156.426 100.08 156.249 100.133C156.067 100.174 155.979 100.258 155.979 100.383V109.436C155.979 109.561 156.067 109.655 156.249 109.708C156.426 109.75 156.582 109.77 156.707 109.77H156.894V109.98H154.543V109.77Z" fill="#C8B7A1"/>
<path d="M158.402 109.77C158.61 109.77 158.819 109.759 159.027 109.728C159.245 109.702 159.391 109.613 159.464 109.456L163.168 99.8184H163.376V99.8393L167.1 109.477C167.184 109.603 167.309 109.686 167.475 109.728C167.641 109.759 167.829 109.77 168.037 109.77V109.979H165.706V109.77C165.925 109.77 166.133 109.749 166.331 109.707C166.523 109.665 166.591 109.576 166.539 109.435L165.061 105.589H161.17L159.672 109.435H159.692C159.651 109.535 159.682 109.613 159.797 109.665C159.921 109.707 160.072 109.739 160.254 109.749C160.431 109.765 160.598 109.77 160.754 109.77V109.979H158.402V109.77ZM164.978 105.38L163.105 100.55L161.253 105.38H164.978Z" fill="#C8B7A1"/>
<path d="M97 128.911C97 128.65 97.0312 128.368 97.104 128.075C97.1873 127.782 97.2809 127.49 97.3954 127.197C97.5202 126.904 97.6451 126.648 97.7699 126.423C97.9624 126.078 98.2485 125.754 98.6231 125.462C98.9977 125.169 99.3982 124.876 99.83 124.584C100.272 124.291 100.688 123.988 101.079 123.664C101.479 123.345 101.807 122.995 102.057 122.618C102.306 122.242 102.431 121.819 102.431 121.343C102.431 120.967 102.317 120.611 102.098 120.277C101.874 119.942 101.578 119.671 101.203 119.462C100.839 119.252 100.433 119.148 99.9757 119.148C99.5855 119.148 99.2265 119.232 98.8936 119.399C98.5711 119.566 98.2797 119.791 98.0196 120.068C97.7699 120.334 97.567 120.632 97.4162 120.967L97.2289 120.883C97.2289 120.873 97.2341 120.862 97.2497 120.862H97.2289L97.4578 119.921C97.926 119.618 98.363 119.373 98.7688 119.19C99.1693 119.012 99.5699 118.918 99.9757 118.918C100.517 118.918 101.006 119.023 101.453 119.232C101.911 119.441 102.27 119.728 102.535 120.089C102.811 120.455 102.951 120.873 102.951 121.343C102.951 121.887 102.852 122.362 102.66 122.765C102.478 123.157 102.228 123.497 101.911 123.789C101.588 124.071 101.235 124.333 100.85 124.584C100.459 124.824 100.069 125.064 99.6843 125.315C99.2942 125.556 98.9248 125.828 98.5815 126.131C98.2329 126.423 97.9416 126.774 97.7075 127.176C97.4838 127.568 97.3433 128.044 97.2913 128.598H102.119C102.27 128.598 102.421 128.53 102.577 128.389C102.728 128.253 102.868 128.075 102.993 127.866H103.222L102.473 129.12H97V128.911Z" fill="#C8B7A1"/>
<path d="M106.046 124.271C105.906 124.271 105.786 124.224 105.693 124.125C105.594 124.031 105.547 123.91 105.547 123.769C105.547 123.633 105.594 123.513 105.693 123.414C105.786 123.32 105.906 123.268 106.046 123.268C106.197 123.268 106.317 123.32 106.4 123.414C106.494 123.513 106.546 123.633 106.546 123.769C106.546 123.91 106.494 124.031 106.4 124.125C106.317 124.224 106.197 124.271 106.046 124.271ZM106.046 129.205C105.906 129.205 105.786 129.153 105.693 129.059C105.594 128.965 105.547 128.844 105.547 128.703C105.547 128.567 105.594 128.447 105.693 128.348C105.786 128.238 105.906 128.181 106.046 128.181C106.197 128.181 106.317 128.238 106.4 128.348C106.494 128.447 106.546 128.567 106.546 128.703C106.546 128.844 106.494 128.965 106.4 129.059C106.317 129.153 106.197 129.205 106.046 129.205Z" fill="#C8B7A1"/>
<path d="M112.517 129.31C111.851 129.31 111.237 129.174 110.685 128.912C110.144 128.651 109.583 128.264 109 127.762L108.875 126.801L109.083 126.717C109.218 127.167 109.478 127.569 109.853 127.93C110.228 128.296 110.649 128.578 111.122 128.787C111.606 128.996 112.069 129.1 112.517 129.1C113.084 129.1 113.599 128.975 114.056 128.724C114.525 128.463 114.899 128.118 115.18 127.7C115.456 127.282 115.596 126.843 115.596 126.383C115.596 125.897 115.456 125.452 115.18 125.045C114.899 124.626 114.525 124.292 114.056 124.041C113.599 123.78 113.084 123.644 112.517 123.644H112.142V123.435H112.35C112.808 123.435 113.224 123.33 113.599 123.121C113.973 122.912 114.27 122.64 114.493 122.306C114.712 121.971 114.826 121.611 114.826 121.219C114.826 120.842 114.712 120.487 114.493 120.152C114.27 119.818 113.973 119.546 113.599 119.337C113.224 119.118 112.808 119.003 112.35 119.003C111.976 119.003 111.622 119.097 111.289 119.274C110.956 119.442 110.665 119.666 110.415 119.943C110.165 120.226 109.962 120.529 109.811 120.863L109.645 120.738L109.874 119.797C110.259 119.546 110.649 119.327 111.039 119.128C111.424 118.919 111.861 118.814 112.35 118.814C112.902 118.814 113.401 118.919 113.848 119.128C114.306 119.327 114.665 119.604 114.93 119.964C115.206 120.33 115.347 120.748 115.347 121.219C115.347 121.778 115.159 122.259 114.785 122.661C114.41 123.069 113.921 123.351 113.328 123.518C113.854 123.602 114.327 123.785 114.743 124.062C115.17 124.329 115.503 124.663 115.742 125.066C115.992 125.458 116.116 125.897 116.116 126.383C116.116 126.942 115.95 127.444 115.617 127.888C115.295 128.337 114.868 128.682 114.327 128.933C113.786 129.184 113.182 129.31 112.517 129.31Z" fill="#C8B7A1"/>
<path d="M122.451 129.247C121.894 129.247 121.374 129.116 120.89 128.85C120.417 128.588 120.001 128.217 119.642 127.742C119.278 127.271 118.997 126.712 118.789 126.069C118.581 125.432 118.477 124.742 118.477 123.999C118.477 123.247 118.581 122.557 118.789 121.93C118.997 121.292 119.278 120.733 119.642 120.257C120.001 119.787 120.417 119.416 120.89 119.149C121.374 118.888 121.894 118.752 122.451 118.752C122.992 118.752 123.497 118.888 123.97 119.149C124.454 119.416 124.875 119.787 125.239 120.257C125.598 120.733 125.885 121.292 126.093 121.93C126.301 122.557 126.405 123.247 126.405 123.999C126.405 124.742 126.301 125.432 126.093 126.069C125.885 126.712 125.598 127.271 125.239 127.742C124.875 128.217 124.454 128.588 123.97 128.85C123.497 129.116 122.992 129.247 122.451 129.247ZM122.451 129.038C122.919 129.038 123.367 128.907 123.783 128.641C124.199 128.364 124.563 127.993 124.886 127.533C125.203 127.062 125.448 126.524 125.614 125.923C125.791 125.311 125.885 124.669 125.885 123.999C125.885 123.32 125.791 122.677 125.614 122.076C125.448 121.465 125.203 120.926 124.886 120.466C124.563 119.996 124.199 119.625 123.783 119.358C123.367 119.097 122.919 118.961 122.451 118.961C121.962 118.961 121.515 119.097 121.098 119.358C120.693 119.625 120.334 119.996 120.016 120.466C119.694 120.926 119.444 121.465 119.267 122.076C119.085 122.677 118.997 123.32 118.997 123.999C118.997 124.669 119.085 125.311 119.267 125.923C119.444 126.524 119.694 127.062 120.016 127.533C120.334 127.993 120.693 128.364 121.098 128.641C121.515 128.907 121.962 129.038 122.451 129.038Z" fill="#C8B7A1"/>
<path d="M135.426 128.911H135.613C135.748 128.901 135.904 128.869 136.071 128.827C136.248 128.786 136.341 128.702 136.341 128.577V119.524C136.341 119.388 136.248 119.294 136.071 119.252C135.904 119.21 135.748 119.19 135.613 119.19H135.426V118.98H138.797C139.379 118.98 139.9 119.106 140.357 119.357C140.826 119.608 141.2 119.958 141.481 120.402C141.757 120.852 141.897 121.359 141.897 121.928C141.897 122.488 141.757 122.995 141.481 123.454C141.2 123.904 140.826 124.249 140.357 124.5C139.9 124.751 139.379 124.876 138.797 124.876H136.862V128.577C136.862 128.702 136.95 128.786 137.132 128.827C137.309 128.869 137.465 128.901 137.59 128.911H137.777V129.12H135.426V128.911ZM138.797 124.667C139.281 124.667 139.712 124.542 140.087 124.291C140.472 124.029 140.784 123.684 141.023 123.266C141.257 122.838 141.377 122.388 141.377 121.928C141.377 121.442 141.257 120.998 141.023 120.59C140.784 120.172 140.472 119.838 140.087 119.587C139.712 119.325 139.281 119.19 138.797 119.19H137.59C137.465 119.19 137.309 119.21 137.132 119.252C136.95 119.294 136.862 119.388 136.862 119.524V124.667H138.797Z" fill="#C8B7A1"/>
<path d="M144.254 128.91C144.504 128.91 144.717 128.89 144.899 128.848C145.076 128.796 145.169 128.701 145.169 128.576V119.503C145.169 119.377 145.076 119.293 144.899 119.252C144.717 119.199 144.504 119.168 144.254 119.168V118.959H145.731L149.415 128.137L153.035 118.959H154.533V119.168C154.284 119.168 154.065 119.199 153.888 119.252C153.706 119.293 153.618 119.377 153.618 119.503V128.576C153.618 128.701 153.706 128.796 153.888 128.848C154.065 128.89 154.284 128.91 154.533 128.91V129.12H152.182V128.91C152.432 128.91 152.645 128.89 152.827 128.848C153.004 128.796 153.098 128.701 153.098 128.576V119.398L149.269 129.057H149.227L145.378 119.461V128.576C145.378 128.701 145.466 128.796 145.648 128.848C145.825 128.89 146.043 128.91 146.293 128.91V129.12H144.254V128.91Z" fill="#C8B7A1"/>
<path d="M86.0586 167.194C86.3083 167.194 86.5216 167.168 86.7037 167.11C86.8805 167.058 86.9742 166.964 86.9742 166.838V157.786C86.9742 157.66 86.8805 157.577 86.7037 157.535C86.5216 157.493 86.3083 157.472 86.0586 157.472V157.242H89.4296C90.0123 157.242 90.5325 157.357 90.9903 157.577C91.4585 157.801 91.8331 158.115 92.114 158.517C92.3897 158.925 92.5302 159.416 92.5302 160.002C92.5302 160.493 92.4157 160.937 92.1972 161.34C91.9735 161.732 91.677 162.051 91.3024 162.302C90.9279 162.552 90.5013 162.714 90.0331 162.782C90.392 162.981 90.7094 163.195 90.9903 163.431C91.2816 163.655 91.4897 164.032 91.6146 164.559C91.6666 164.784 91.7394 165.051 91.8226 165.354C91.9059 165.647 92.0151 165.934 92.1556 166.211C92.2908 166.493 92.4573 166.729 92.655 166.922C92.8631 167.105 93.0972 167.194 93.3625 167.194V167.403H92.551C92.1868 167.126 91.9163 166.838 91.7394 166.546C91.5573 166.242 91.4169 165.913 91.3232 165.563C91.24 165.218 91.1412 164.842 91.0319 164.434C90.9747 164.199 90.855 163.964 90.6782 163.723C90.4961 163.472 90.2932 163.263 90.0747 163.096C89.8666 162.929 89.6585 162.845 89.4504 162.845H87.4944V166.838C87.4944 166.964 87.5828 167.058 87.7649 167.11C87.9418 167.168 88.1603 167.194 88.41 167.194V167.403H86.0586V167.194ZM89.4296 162.636C89.9134 162.636 90.3452 162.521 90.7198 162.281C91.1047 162.045 91.4169 161.727 91.6562 161.319C91.8903 160.917 92.0099 160.477 92.0099 160.002C92.0099 159.516 91.8903 159.082 91.6562 158.706C91.4169 158.329 91.1047 158.031 90.7198 157.807C90.3452 157.587 89.9134 157.472 89.4296 157.472H88.2227C88.0979 157.472 87.9418 157.493 87.7649 157.535C87.5828 157.577 87.4944 157.671 87.4944 157.807V162.636H89.4296Z" fill="#C8B7A1"/>
<path d="M101.516 166.504H101.766L101.204 167.403H95.5859V167.194H95.7732C95.8981 167.194 96.0489 167.173 96.231 167.131C96.4079 167.079 96.5015 166.985 96.5015 166.859V157.807C96.5015 157.723 96.4495 157.66 96.3559 157.619C96.2726 157.566 96.1686 157.53 96.0437 157.514C95.9189 157.488 95.8044 157.472 95.7108 157.472C95.6276 157.472 95.5859 157.472 95.5859 157.472V157.242H101.121V158.12H101.017C101.001 158.11 100.96 158.047 100.892 157.932C100.819 157.822 100.736 157.718 100.642 157.619C100.559 157.524 100.46 157.472 100.351 157.472H97.0009V161.653H100.372C100.455 161.653 100.523 161.601 100.58 161.486C100.648 161.376 100.684 161.319 100.684 161.319H100.788V162.218H100.684C100.684 162.218 100.648 162.166 100.58 162.051C100.523 161.941 100.455 161.883 100.372 161.883H97.0009V167.194H100.663C100.814 167.194 100.944 167.147 101.059 167.047C101.184 166.938 101.288 166.828 101.371 166.713C101.464 166.603 101.516 166.535 101.516 166.504Z" fill="#C8B7A1"/>
<path d="M108.258 167.591C107.66 167.591 107.103 167.455 106.593 167.193C106.078 166.916 105.626 166.54 105.241 166.064C104.851 165.594 104.544 165.04 104.325 164.413C104.101 163.775 103.992 163.096 103.992 162.385C103.992 161.664 104.101 160.984 104.325 160.357C104.544 159.719 104.851 159.16 105.241 158.684C105.626 158.214 106.078 157.843 106.593 157.576C107.103 157.299 107.66 157.158 108.258 157.158C108.867 157.158 109.444 157.294 109.985 157.555L109.944 157.535C110.204 157.65 110.448 157.775 110.672 157.911C110.906 158.036 111.093 158.141 111.234 158.224C111.369 158.308 111.442 158.35 111.442 158.35L111.671 159.312L111.483 159.416C111.286 158.972 111.015 158.596 110.672 158.287C110.323 157.984 109.944 157.754 109.527 157.597C109.111 157.446 108.685 157.367 108.258 157.367C107.743 157.367 107.259 157.508 106.801 157.785C106.354 158.068 105.959 158.444 105.615 158.914C105.267 159.39 104.996 159.928 104.804 160.524C104.606 161.11 104.512 161.732 104.512 162.385C104.512 163.002 104.601 163.592 104.783 164.162C104.96 164.721 105.204 165.228 105.511 165.688C105.829 166.148 106.198 166.524 106.614 166.817C107.03 167.11 107.478 167.293 107.967 167.361C108.008 167.376 108.055 167.382 108.112 167.382C108.164 167.382 108.216 167.382 108.258 167.382C108.934 167.382 109.574 167.183 110.172 166.775C110.765 166.357 111.254 165.793 111.629 165.082L111.816 165.186L111.546 166.294C111.546 166.294 111.463 166.352 111.296 166.462C111.14 166.561 110.932 166.681 110.672 166.817C110.407 166.958 110.115 167.099 109.798 167.235H109.819C109.33 167.47 108.809 167.591 108.258 167.591Z" fill="#C8B7A1"/>
<path d="M120.11 166.504H120.36L119.798 167.403H114.18V167.194H114.367C114.492 167.194 114.643 167.173 114.825 167.131C115.002 167.079 115.095 166.985 115.095 166.859V157.807C115.095 157.723 115.043 157.66 114.95 157.619C114.866 157.566 114.762 157.53 114.637 157.514C114.513 157.488 114.398 157.472 114.305 157.472C114.221 157.472 114.18 157.472 114.18 157.472V157.242H119.715V158.12H119.611C119.595 158.11 119.554 158.047 119.486 157.932C119.413 157.822 119.33 157.718 119.236 157.619C119.153 157.524 119.054 157.472 118.945 157.472H115.595V161.653H118.966C119.049 161.653 119.117 161.601 119.174 161.486C119.241 161.376 119.278 161.319 119.278 161.319H119.382V162.218H119.278C119.278 162.218 119.241 162.166 119.174 162.051C119.117 161.941 119.049 161.883 118.966 161.883H115.595V167.194H119.257C119.408 167.194 119.538 167.147 119.652 167.047C119.777 166.938 119.881 166.828 119.965 166.713C120.058 166.603 120.11 166.535 120.11 166.504Z" fill="#C8B7A1"/>
<path d="M122.723 167.192H122.91C123.045 167.182 123.201 167.151 123.368 167.109C123.545 167.067 123.638 166.983 123.638 166.858V157.805C123.638 157.669 123.545 157.575 123.368 157.534C123.201 157.492 123.045 157.471 122.91 157.471H122.723V157.262H126.094C126.676 157.262 127.197 157.387 127.654 157.638C128.123 157.889 128.497 158.239 128.778 158.683C129.054 159.133 129.194 159.64 129.194 160.21C129.194 160.769 129.054 161.276 128.778 161.736C128.497 162.185 128.123 162.53 127.654 162.781C127.197 163.032 126.676 163.157 126.094 163.157H124.158V166.858C124.158 166.983 124.247 167.067 124.429 167.109C124.606 167.151 124.762 167.182 124.887 167.192H125.074V167.401H122.723V167.192ZM126.094 162.948C126.577 162.948 127.009 162.823 127.384 162.572C127.769 162.311 128.081 161.966 128.32 161.548C128.554 161.119 128.674 160.669 128.674 160.21C128.674 159.723 128.554 159.279 128.32 158.872C128.081 158.453 127.769 158.119 127.384 157.868C127.009 157.607 126.577 157.471 126.094 157.471H124.887C124.762 157.471 124.606 157.492 124.429 157.534C124.247 157.575 124.158 157.669 124.158 157.805V162.948H126.094Z" fill="#C8B7A1"/>
<path d="M135.672 167.591C135.074 167.591 134.517 167.455 134.007 167.193C133.492 166.916 133.04 166.54 132.655 166.064C132.265 165.594 131.958 165.04 131.739 164.413C131.515 163.775 131.406 163.096 131.406 162.385C131.406 161.664 131.515 160.984 131.739 160.357C131.958 159.719 132.265 159.16 132.655 158.684C133.04 158.214 133.492 157.843 134.007 157.576C134.517 157.299 135.074 157.158 135.672 157.158C136.281 157.158 136.858 157.294 137.399 157.555L137.358 157.535C137.618 157.65 137.862 157.775 138.086 157.911C138.32 158.036 138.507 158.141 138.648 158.224C138.783 158.308 138.856 158.35 138.856 158.35L139.085 159.312L138.897 159.416C138.7 158.972 138.429 158.596 138.086 158.287C137.737 157.984 137.358 157.754 136.941 157.597C136.525 157.446 136.099 157.367 135.672 157.367C135.157 157.367 134.673 157.508 134.215 157.785C133.768 158.068 133.373 158.444 133.029 158.914C132.681 159.39 132.41 159.928 132.218 160.524C132.02 161.11 131.926 161.732 131.926 162.385C131.926 163.002 132.015 163.592 132.197 164.162C132.374 164.721 132.618 165.228 132.925 165.688C133.243 166.148 133.612 166.524 134.028 166.817C134.444 167.11 134.892 167.293 135.381 167.361C135.422 167.376 135.469 167.382 135.526 167.382C135.578 167.382 135.63 167.382 135.672 167.382C136.348 167.382 136.988 167.183 137.586 166.775C138.18 166.357 138.669 165.793 139.043 165.082L139.23 165.186L138.96 166.294C138.96 166.294 138.877 166.352 138.71 166.462C138.554 166.561 138.346 166.681 138.086 166.817C137.821 166.958 137.529 167.099 137.212 167.235H137.233C136.744 167.47 136.224 167.591 135.672 167.591Z" fill="#C8B7A1"/>
<path d="M141.598 167.192H141.785C141.91 167.192 142.061 167.171 142.243 167.13C142.42 167.077 142.513 166.983 142.513 166.858V157.805C142.513 157.68 142.42 157.596 142.243 157.554C142.061 157.502 141.91 157.471 141.785 157.471H141.598V157.262H143.949V157.471H143.762C143.637 157.471 143.481 157.502 143.304 157.554C143.122 157.596 143.033 157.68 143.033 157.805V166.858C143.033 166.983 143.122 167.077 143.304 167.13C143.481 167.171 143.637 167.192 143.762 167.192H143.949V167.401H141.598V167.192Z" fill="#C8B7A1"/>
<path d="M149.85 156.302L151.078 154.859L151.431 155.236L150.016 156.469L149.85 156.302ZM150.578 167.612C149.996 167.612 149.444 167.471 148.934 167.194C148.419 166.917 147.962 166.536 147.561 166.044C147.171 165.543 146.864 164.989 146.645 164.372C146.422 163.745 146.312 163.091 146.312 162.407C146.312 161.711 146.422 161.048 146.645 160.421C146.864 159.793 147.171 159.245 147.561 158.769C147.962 158.283 148.419 157.901 148.934 157.619C149.444 157.342 149.996 157.201 150.578 157.201H150.703C151.296 157.201 151.853 157.342 152.368 157.619C152.878 157.901 153.33 158.288 153.72 158.79C154.105 159.281 154.412 159.835 154.636 160.462C154.855 161.079 154.969 161.727 154.969 162.407C154.969 163.091 154.855 163.745 154.636 164.372C154.412 164.999 154.105 165.558 153.72 166.044C153.346 166.536 152.899 166.917 152.389 167.194C151.874 167.471 151.312 167.612 150.703 167.612H150.578ZM149.371 167.111C150.23 167.471 151.083 167.471 151.931 167.111C152.415 166.875 152.846 166.52 153.221 166.044C153.606 165.558 153.908 164.999 154.116 164.372C154.334 163.745 154.449 163.091 154.449 162.407C154.449 161.654 154.314 160.938 154.053 160.253C153.788 159.574 153.434 158.988 152.992 158.497C152.545 158.011 152.04 157.682 151.473 157.515C151.333 157.488 151.192 157.467 151.057 157.452C150.916 157.426 150.776 157.41 150.641 157.41C150.5 157.41 150.36 157.42 150.225 157.431C150.084 157.447 149.944 157.473 149.808 157.515C149.236 157.697 148.732 158.032 148.289 158.518C147.842 159.009 147.488 159.595 147.228 160.274C146.963 160.943 146.833 161.654 146.833 162.407C146.833 163.091 146.942 163.745 147.166 164.372C147.384 164.999 147.686 165.558 148.06 166.044C148.445 166.52 148.882 166.875 149.371 167.111Z" fill="#C8B7A1"/>
<path d="M157.188 167.194C157.437 167.194 157.65 167.173 157.833 167.131C158.009 167.079 158.103 166.985 158.103 166.859V157.786C158.103 157.66 158.009 157.577 157.833 157.535C157.65 157.483 157.437 157.451 157.188 157.451V157.242H158.603L164.408 166.378V157.786C164.408 157.66 164.309 157.577 164.117 157.535C163.935 157.483 163.727 157.451 163.493 157.451V157.242H165.511V157.451C165.261 157.451 165.043 157.483 164.866 157.535C164.684 157.577 164.595 157.66 164.595 157.786V167.403H164.408L158.311 157.723V166.859C158.311 166.985 158.4 167.079 158.582 167.131C158.759 167.173 158.977 167.194 159.227 167.194V167.403H157.188V167.194Z" fill="#C8B7A1"/>
<path d="M101.015 186.332H101.202C101.327 186.322 101.478 186.291 101.66 186.249C101.837 186.196 101.931 186.102 101.931 185.977V184.325H96L101.931 176.381H102.451V184.137H103.013C103.148 184.137 103.283 184.085 103.408 183.97C103.533 183.86 103.637 183.75 103.72 183.635C103.814 183.526 103.866 183.458 103.866 183.426H104.115L103.554 184.325H102.451V185.977C102.451 186.102 102.539 186.196 102.721 186.249C102.898 186.291 103.054 186.322 103.179 186.332H103.366V186.541H101.015V186.332ZM101.931 184.137V176.736L96.4162 184.137H101.931Z" fill="#C8B7A1"/>
<path d="M106.933 186.627C106.793 186.627 106.673 186.574 106.579 186.48C106.48 186.386 106.434 186.266 106.434 186.125C106.434 185.989 106.48 185.869 106.579 185.769C106.673 185.675 106.793 185.623 106.933 185.623C107.084 185.623 107.204 185.675 107.287 185.769C107.38 185.869 107.432 185.989 107.432 186.125C107.432 186.266 107.38 186.386 107.287 186.48C107.204 186.574 107.084 186.627 106.933 186.627Z" fill="#C8B7A1"/>
<path d="M113.736 186.669C113.18 186.669 112.659 186.538 112.176 186.272C111.702 186.01 111.286 185.639 110.927 185.164C110.563 184.693 110.282 184.134 110.074 183.491C109.866 182.853 109.762 182.164 109.762 181.421C109.762 180.669 109.866 179.979 110.074 179.352C110.282 178.714 110.563 178.155 110.927 177.679C111.286 177.209 111.702 176.838 112.176 176.571C112.659 176.31 113.18 176.174 113.736 176.174C114.277 176.174 114.782 176.31 115.255 176.571C115.739 176.838 116.16 177.209 116.525 177.679C116.884 178.155 117.17 178.714 117.378 179.352C117.586 179.979 117.69 180.669 117.69 181.421C117.69 182.164 117.586 182.853 117.378 183.491C117.17 184.134 116.884 184.693 116.525 185.164C116.16 185.639 115.739 186.01 115.255 186.272C114.782 186.538 114.277 186.669 113.736 186.669ZM113.736 186.46C114.204 186.46 114.652 186.329 115.068 186.063C115.484 185.786 115.848 185.415 116.171 184.955C116.488 184.484 116.733 183.946 116.899 183.345C117.076 182.733 117.17 182.09 117.17 181.421C117.17 180.742 117.076 180.099 116.899 179.498C116.733 178.886 116.488 178.348 116.171 177.888C115.848 177.418 115.484 177.047 115.068 176.78C114.652 176.519 114.204 176.383 113.736 176.383C113.247 176.383 112.8 176.519 112.384 176.78C111.978 177.047 111.619 177.418 111.302 177.888C110.979 178.348 110.729 178.886 110.552 179.498C110.37 180.099 110.282 180.742 110.282 181.421C110.282 182.09 110.37 182.733 110.552 183.345C110.729 183.946 110.979 184.484 111.302 184.955C111.619 185.415 111.978 185.786 112.384 186.063C112.8 186.329 113.247 186.46 113.736 186.46Z" fill="#C8B7A1"/>
<path d="M124.021 186.669C123.465 186.669 122.945 186.538 122.461 186.272C121.987 186.01 121.571 185.639 121.212 185.164C120.848 184.693 120.567 184.134 120.359 183.491C120.151 182.853 120.047 182.164 120.047 181.421C120.047 180.669 120.151 179.979 120.359 179.352C120.567 178.714 120.848 178.155 121.212 177.679C121.571 177.209 121.987 176.838 122.461 176.571C122.945 176.31 123.465 176.174 124.021 176.174C124.562 176.174 125.067 176.31 125.54 176.571C126.024 176.838 126.446 177.209 126.81 177.679C127.169 178.155 127.455 178.714 127.663 179.352C127.871 179.979 127.975 180.669 127.975 181.421C127.975 182.164 127.871 182.853 127.663 183.491C127.455 184.134 127.169 184.693 126.81 185.164C126.446 185.639 126.024 186.01 125.54 186.272C125.067 186.538 124.562 186.669 124.021 186.669ZM124.021 186.46C124.49 186.46 124.937 186.329 125.353 186.063C125.769 185.786 126.133 185.415 126.456 184.955C126.773 184.484 127.018 183.946 127.184 183.345C127.361 182.733 127.455 182.09 127.455 181.421C127.455 180.742 127.361 180.099 127.184 179.498C127.018 178.886 126.773 178.348 126.456 177.888C126.133 177.418 125.769 177.047 125.353 176.78C124.937 176.519 124.49 176.383 124.021 176.383C123.532 176.383 123.085 176.519 122.669 176.78C122.263 177.047 121.904 177.418 121.587 177.888C121.264 178.348 121.014 178.886 120.838 179.498C120.656 180.099 120.567 180.742 120.567 181.421C120.567 182.09 120.656 182.733 120.838 183.345C121.014 183.946 121.264 184.484 121.587 184.955C121.904 185.415 122.263 185.786 122.669 186.063C123.085 186.329 123.532 186.46 124.021 186.46Z" fill="#C8B7A1"/>
<path d="M136.996 186.333H137.183C137.319 186.323 137.475 186.291 137.641 186.249C137.818 186.208 137.912 186.124 137.912 185.998V176.946C137.912 176.81 137.818 176.716 137.641 176.674C137.475 176.632 137.319 176.611 137.183 176.611H136.996V176.402H140.367C140.95 176.402 141.47 176.528 141.928 176.779C142.396 177.03 142.771 177.38 143.051 177.824C143.327 178.273 143.468 178.78 143.468 179.35C143.468 179.909 143.327 180.416 143.051 180.876C142.771 181.326 142.396 181.671 141.928 181.922C141.47 182.173 140.95 182.298 140.367 182.298H138.432V185.998C138.432 186.124 138.52 186.208 138.702 186.249C138.879 186.291 139.035 186.323 139.16 186.333H139.347V186.542H136.996V186.333ZM140.367 182.089C140.851 182.089 141.283 181.963 141.657 181.713C142.042 181.451 142.354 181.106 142.594 180.688C142.828 180.26 142.947 179.81 142.947 179.35C142.947 178.864 142.828 178.42 142.594 178.012C142.354 177.594 142.042 177.26 141.657 177.009C141.283 176.747 140.851 176.611 140.367 176.611H139.16C139.035 176.611 138.879 176.632 138.702 176.674C138.52 176.716 138.432 176.81 138.432 176.946V182.089H140.367Z" fill="#C8B7A1"/>
<path d="M145.824 186.332C146.074 186.332 146.287 186.311 146.469 186.27C146.646 186.217 146.74 186.123 146.74 185.998V176.924C146.74 176.799 146.646 176.715 146.469 176.674C146.287 176.621 146.074 176.59 145.824 176.59V176.381H147.302L150.985 185.559L154.606 176.381H156.104V176.59C155.854 176.59 155.636 176.621 155.459 176.674C155.277 176.715 155.188 176.799 155.188 176.924V185.998C155.188 186.123 155.277 186.217 155.459 186.27C155.636 186.311 155.854 186.332 156.104 186.332V186.541H153.752V186.332C154.002 186.332 154.215 186.311 154.397 186.27C154.574 186.217 154.668 186.123 154.668 185.998V176.82L150.839 186.479H150.798L146.948 176.883V185.998C146.948 186.123 147.036 186.217 147.218 186.27C147.395 186.311 147.614 186.332 147.863 186.332V186.541H145.824V186.332Z" fill="#C8B7A1"/>
</svg>
