<svg width="269" height="66" viewBox="0 0 269 66" fill="none" xmlns="http://www.w3.org/2000/svg">
<mask id="mask0_2313_4424" style="mask-type:luminance" maskUnits="userSpaceOnUse" x="0" y="0" width="269" height="66">
<path d="M0.0898438 0.494141H268.725V65.4369H0.0898438V0.494141Z" fill="white"/>
</mask>
<g mask="url(#mask0_2313_4424)">
<mask id="mask1_2313_4424" style="mask-type:luminance" maskUnits="userSpaceOnUse" x="0" y="0" width="269" height="66">
<path d="M268.626 16.4889V49.4421C268.626 53.6816 266.939 57.7494 263.939 60.7494C260.939 63.7494 256.871 65.4369 252.632 65.4369H16.0846C11.8398 65.4369 7.77214 63.7494 4.77214 60.7494C1.77214 57.7494 0.0898438 53.6816 0.0898438 49.4421V16.4889C0.0898438 12.2493 1.77214 8.18164 4.77214 5.18164C7.77214 2.18164 11.8398 0.494141 16.0846 0.494141H252.632C256.871 0.494141 260.939 2.18164 263.939 5.18164C266.939 8.18164 268.626 12.2493 268.626 16.4889Z" fill="white"/>
</mask>
<g mask="url(#mask1_2313_4424)">
<mask id="mask2_2313_4424" style="mask-type:luminance" maskUnits="userSpaceOnUse" x="-1" y="-1" width="270" height="67">
<path d="M269.001 -0.667969H-0.332031V65.9987H269.001V-0.667969Z" fill="white"/>
</mask>
<g mask="url(#mask2_2313_4424)">
<mask id="mask3_2313_4424" style="mask-type:luminance" maskUnits="userSpaceOnUse" x="0" y="0" width="269" height="66">
<path d="M0.0898438 0.494141H268.725V65.4369H0.0898438V0.494141Z" fill="white"/>
</mask>
<g mask="url(#mask3_2313_4424)">
<mask id="mask4_2313_4424" style="mask-type:luminance" maskUnits="userSpaceOnUse" x="0" y="0" width="269" height="66">
<path d="M268.626 16.4889V49.4421C268.626 53.6816 266.939 57.7494 263.939 60.7494C260.939 63.7494 256.871 65.4369 252.632 65.4369H16.0846C11.8398 65.4369 7.77214 63.7494 4.77214 60.7494C1.77214 57.7494 0.0898438 53.6816 0.0898438 49.4421V16.4889C0.0898438 12.2493 1.77214 8.18164 4.77214 5.18164C7.77214 2.18164 11.8398 0.494141 16.0846 0.494141H252.632C256.871 0.494141 260.939 2.18164 263.939 5.18164C266.939 8.18164 268.626 12.2493 268.626 16.4889Z" fill="white"/>
</mask>
<g mask="url(#mask4_2313_4424)">
<path d="M0.0898438 0.494141H268.725V65.4369H0.0898438V0.494141Z" fill="#1F3D58"/>
</g>
</g>
</g>
</g>
</g>
<path d="M82.8021 13.7188C81.9688 13.7188 81.1979 13.8958 80.4896 14.2396C79.7917 14.5729 79.1823 15.0521 78.6563 15.6771C78.1406 16.3021 77.7396 17.0417 77.4479 17.8854C77.1667 18.7344 77.0313 19.6563 77.0313 20.6563C77.0313 21.9896 77.2656 23.1875 77.7396 24.2396C78.224 25.2969 78.8854 26.125 79.7188 26.7188C80.5521 27.3021 81.5 27.5938 82.5729 27.5938C83.3073 27.5938 84.0417 27.5104 84.7813 27.3438C85.5156 27.1771 86.1875 26.8958 86.8021 26.4896C87.4115 26.0729 87.8906 25.5104 88.2396 24.8021L88.4271 24.4271H88.8229V26.5938H88.4688L88.3854 26.4271C88.3438 26.3438 88.25 26.3021 88.1146 26.3021C87.8906 26.3021 87.6042 26.3958 87.2604 26.5729C86.6875 26.9219 86.0156 27.1927 85.2396 27.3854C84.474 27.5781 83.5781 27.6771 82.5521 27.6771C81.5781 27.6771 80.6823 27.5 79.8646 27.1563C79.0573 26.8125 78.3542 26.3229 77.7604 25.6979C77.1615 25.0625 76.6875 24.3177 76.3438 23.4688C76.0104 22.625 75.8438 21.6875 75.8438 20.6563C75.8438 19.6458 76.0104 18.7135 76.3438 17.8646C76.6875 17.0052 77.1771 16.2604 77.8021 15.6354C78.4271 15.0104 79.1615 14.526 80.0104 14.1771C80.8542 13.8333 81.7813 13.6562 82.7813 13.6562C83.8073 13.6562 84.6667 13.7396 85.3646 13.9063C86.0729 14.0729 86.6771 14.3125 87.1771 14.6146C87.6198 14.8646 87.974 14.9896 88.2396 14.9896C88.349 14.9896 88.4115 14.9688 88.4271 14.9271L88.5104 14.7813H88.8229V16.8854H88.4271L88.2396 16.5313C88.0417 16.0729 87.7448 15.6458 87.3438 15.2396C86.9375 14.8385 86.5417 14.5469 86.1563 14.3646C85.724 14.1563 85.2292 14 84.6771 13.8854C84.1354 13.776 83.5104 13.7188 82.8021 13.7188Z" fill="white"/>
<path d="M97.2031 18.1973C98.2708 18.1973 99.2135 18.4056 100.036 18.8223C100.87 19.2285 101.521 19.7806 101.995 20.4889C102.464 21.1973 102.703 22.0098 102.703 22.9264C102.703 23.8431 102.464 24.666 101.995 25.3848C101.521 26.0931 100.87 26.6556 100.036 27.0723C99.2135 27.4785 98.2708 27.6764 97.2031 27.6764C96.1458 27.6764 95.2031 27.4785 94.3698 27.0723C93.5469 26.6556 92.8958 26.0931 92.4115 25.3848C91.9375 24.666 91.7031 23.8431 91.7031 22.9264C91.7031 22.0098 91.9375 21.1973 92.4115 20.4889C92.8958 19.7806 93.5469 19.2285 94.3698 18.8223C95.2031 18.4056 96.1458 18.1973 97.2031 18.1973ZM97.2031 18.2806C96.3385 18.2806 95.5677 18.4837 94.8906 18.8848C94.2083 19.2754 93.6719 19.8223 93.2865 20.5306C92.8958 21.2389 92.7031 22.041 92.7031 22.9264C92.7031 23.8327 92.8958 24.6348 93.2865 25.3431C93.6719 26.0514 94.2083 26.6087 94.8906 27.0098C95.5677 27.4004 96.3385 27.5931 97.2031 27.5931C98.0781 27.5931 98.849 27.4004 99.5156 27.0098C100.193 26.6087 100.724 26.0514 101.099 25.3431C101.484 24.6348 101.682 23.8327 101.682 22.9264C101.682 22.041 101.484 21.2389 101.099 20.5306C100.724 19.8223 100.193 19.2754 99.5156 18.8848C98.849 18.4837 98.0781 18.2806 97.2031 18.2806Z" fill="white"/>
<path d="M112.807 26.8431V21.8223C112.807 20.9056 112.578 20.1504 112.12 19.5514C111.672 18.9577 111.026 18.6556 110.182 18.6556C109.818 18.6556 109.417 18.7598 108.974 18.9681C108.526 19.166 108.089 19.4368 107.661 19.7806C107.245 20.1139 106.87 20.5046 106.536 20.9473V26.8431C106.536 27.041 106.646 27.1348 106.87 27.1348V27.4889H105.266V27.1348C105.5 27.1348 105.62 27.041 105.62 26.8431V19.9056C105.62 19.6556 105.583 19.4368 105.516 19.2389C105.458 19.0306 105.375 18.8952 105.266 18.8223L105.286 18.5931C105.297 18.5931 105.359 18.5879 105.474 18.5723C105.583 18.5462 105.641 18.5254 105.641 18.5098C105.708 18.5098 105.786 18.4993 105.87 18.4681C105.953 18.4264 106.021 18.4004 106.078 18.3848H106.536V20.8014C106.922 20.3014 107.349 19.8587 107.807 19.4681C108.276 19.0827 108.745 18.7754 109.203 18.5514C109.672 18.3171 110.099 18.1973 110.474 18.1973C111.167 18.1973 111.755 18.3587 112.245 18.6764C112.729 18.9993 113.099 19.4264 113.349 19.9681C113.599 20.4993 113.724 21.1139 113.724 21.8223V26.8431C113.724 27.041 113.839 27.1348 114.078 27.1348V27.4889H112.474V27.1348C112.693 27.1348 112.807 27.041 112.807 26.8431Z" fill="white"/>
<path d="M117.371 26.8424V18.8633H115.496V18.7383L117.371 18.3841C117.371 17.4831 117.543 16.6862 117.892 15.9883C118.236 15.2956 118.746 14.7487 119.413 14.3424C120.079 13.9414 120.892 13.7383 121.85 13.7383C122.892 13.7383 123.746 13.8737 124.413 14.1341C125.079 14.3841 125.413 14.7122 125.413 15.1133C125.413 15.3372 125.335 15.5299 125.184 15.6966C125.027 15.8529 124.835 15.9258 124.6 15.9258C124.376 15.9258 124.142 15.832 123.892 15.6341C123.642 15.4414 123.382 15.2174 123.121 14.9674C122.855 14.7174 122.585 14.4987 122.309 14.3008C122.043 14.1081 121.777 14.0091 121.517 14.0091C120.819 14.0091 120.23 14.1966 119.746 14.5716C119.257 14.9466 118.892 15.4674 118.642 16.1341C118.392 16.7904 118.267 17.5404 118.267 18.3841H122.392V18.8633H118.267V26.8424C118.267 27.0404 118.382 27.1341 118.621 27.1341V27.4883H117.017V27.1341C117.251 27.1341 117.371 27.0404 117.371 26.8424Z" fill="white"/>
<path d="M124.842 19.9056C124.842 19.6556 124.806 19.4368 124.738 19.2389C124.681 19.0306 124.598 18.8952 124.488 18.8223L124.509 18.5931C124.52 18.5931 124.582 18.5879 124.697 18.5723C124.806 18.5462 124.863 18.5254 124.863 18.5098C124.931 18.5098 125.009 18.4993 125.092 18.4681C125.176 18.4264 125.243 18.4004 125.301 18.3848H125.759V26.8431C125.759 27.041 125.868 27.1348 126.092 27.1348V27.4889H124.488V27.1348C124.723 27.1348 124.842 27.041 124.842 26.8431V19.9056ZM124.717 15.7181C124.717 15.5098 124.77 15.3639 124.884 15.2806C125.009 15.1868 125.145 15.1348 125.301 15.1348C125.436 15.1348 125.572 15.1868 125.697 15.2806C125.822 15.3639 125.884 15.5098 125.884 15.7181C125.884 15.9004 125.822 16.041 125.697 16.1348C125.572 16.2337 125.436 16.2806 125.301 16.2806C125.145 16.2806 125.009 16.2337 124.884 16.1348C124.77 16.041 124.717 15.9004 124.717 15.7181Z" fill="white"/>
<path d="M128.77 18.5091C128.837 18.5091 128.915 18.4987 128.999 18.4674C129.082 18.4258 129.15 18.3997 129.207 18.3841H129.665V20.5299C129.967 20.0716 130.337 19.6706 130.77 19.3216C131.197 18.9622 131.65 18.6862 132.124 18.4883C132.608 18.2799 133.066 18.1758 133.499 18.1758C134.066 18.1758 134.53 18.2747 134.895 18.4674C135.27 18.6654 135.457 18.9206 135.457 19.2383C135.457 19.4049 135.4 19.5404 135.29 19.6341C135.176 19.7174 135.051 19.7591 134.915 19.7591C134.79 19.7591 134.665 19.7174 134.54 19.6341C134.426 19.5404 134.374 19.4049 134.374 19.2383C134.374 19.0612 134.249 18.9049 133.999 18.7799C133.759 18.6549 133.457 18.5924 133.082 18.5924C132.483 18.5924 131.863 18.7904 131.228 19.1758C130.587 19.5664 130.066 20.0612 129.665 20.6549V26.8424C129.665 27.0404 129.775 27.1341 129.999 27.1341V27.4883H128.395V27.1341C128.629 27.1341 128.749 27.0404 128.749 26.8424V19.9049C128.749 19.6549 128.712 19.4362 128.645 19.2383C128.587 19.0299 128.504 18.8945 128.395 18.8216L128.415 18.5924C128.426 18.5924 128.488 18.5872 128.603 18.5716C128.712 18.5456 128.77 18.5247 128.77 18.5091Z" fill="white"/>
<path d="M144.889 26.8424V20.8424C144.889 20.2747 144.671 19.8112 144.243 19.4466C143.811 19.0716 143.129 18.8841 142.202 18.8841C141.77 18.8841 141.327 18.9622 140.868 19.1133C140.421 19.2539 139.999 19.4622 139.598 19.7383C139.207 20.0039 138.879 20.3008 138.618 20.6341V26.8424C138.618 27.0404 138.728 27.1341 138.952 27.1341V27.4883H137.348V27.1341C137.582 27.1341 137.702 27.0404 137.702 26.8424V19.9049C137.702 19.6549 137.665 19.4362 137.598 19.2383C137.54 19.0299 137.457 18.8945 137.348 18.8216L137.368 18.6549C137.379 18.6549 137.441 18.6497 137.556 18.6341C137.665 18.6081 137.723 18.5872 137.723 18.5716C137.79 18.5716 137.868 18.5508 137.952 18.5091C138.035 18.4674 138.103 18.4466 138.16 18.4466H138.618V20.6133C138.962 20.1445 139.368 19.7331 139.827 19.3841C140.285 19.0404 140.749 18.7695 141.223 18.5716C141.707 18.3633 142.15 18.2591 142.556 18.2591C143.608 18.2591 144.395 18.4779 144.91 18.9049C145.436 19.3216 145.733 19.8737 145.806 20.5508C146.15 20.1081 146.556 19.7122 147.014 19.3633C147.473 19.0195 147.936 18.7487 148.41 18.5508C148.895 18.3424 149.353 18.2383 149.785 18.2383C150.91 18.2383 151.728 18.4883 152.243 18.9883C152.754 19.4883 153.014 20.1237 153.014 20.8841V26.8841C153.014 27.0664 153.129 27.1549 153.368 27.1549V27.5299H151.764V27.1549C151.983 27.1549 152.098 27.0664 152.098 26.8841V20.8841C152.098 20.3164 151.879 19.8424 151.452 19.4674C151.02 19.0924 150.337 18.9049 149.41 18.9049C148.754 18.9049 148.087 19.0716 147.41 19.4049C146.743 19.7279 146.207 20.1289 145.806 20.6133V26.8424C145.806 27.0404 145.921 27.1341 146.16 27.1341V27.4883H144.556V27.1341C144.775 27.1341 144.889 27.0404 144.889 26.8424Z" fill="white"/>
<path d="M156.461 20.9264C156.461 20.6921 156.565 20.4212 156.773 20.1139C156.992 19.7962 157.299 19.4889 157.69 19.1973C158.076 18.9056 158.544 18.6712 159.086 18.4889C159.628 18.2962 160.211 18.1973 160.836 18.1973C161.779 18.1973 162.544 18.4368 163.128 18.9056C163.721 19.3639 164.023 20.0514 164.023 20.9681V26.0098C164.023 26.2754 164.117 26.4993 164.315 26.6764C164.508 26.8431 164.758 26.9264 165.065 26.9264C165.326 26.9264 165.555 26.8431 165.753 26.6764C165.945 26.4993 166.07 26.2754 166.128 26.0098L166.253 26.0723V26.0514C166.18 26.4837 165.992 26.8431 165.69 27.1348C165.398 27.416 165.065 27.5514 164.69 27.5514C164.19 27.5514 163.799 27.3952 163.523 27.0723C163.258 26.7546 163.128 26.3431 163.128 25.8431C162.294 26.4837 161.503 26.9473 160.753 27.2389C160.003 27.515 159.336 27.6556 158.753 27.6556C157.971 27.6556 157.336 27.4993 156.836 27.1973C156.336 26.8796 156.086 26.4837 156.086 26.0098C156.086 25.5514 156.195 25.166 156.419 24.8431C156.638 24.5254 157.013 24.2493 157.544 24.0098C158.07 23.7598 158.784 23.5306 159.69 23.3223C160.607 23.1139 161.753 22.8952 163.128 22.6556V20.6139C163.128 19.8379 162.904 19.2546 162.461 18.8639C162.013 18.4785 161.451 18.2806 160.773 18.2806C160.076 18.2806 159.451 18.4056 158.898 18.6556C158.357 18.8952 157.924 19.1764 157.607 19.5098C157.299 19.8327 157.148 20.1087 157.148 20.3431C157.148 20.4421 157.201 20.5671 157.315 20.7181C157.44 20.8743 157.503 21.0046 157.503 21.1139C157.503 21.1973 157.445 21.2962 157.336 21.4056C157.221 21.5202 157.086 21.5723 156.919 21.5723C156.794 21.5723 156.68 21.5098 156.586 21.3848C156.503 21.2598 156.461 21.1087 156.461 20.9264ZM163.128 22.6973C161.93 22.9056 160.94 23.1087 160.148 23.3014C159.357 23.4837 158.732 23.6921 158.273 23.9264C157.826 24.1504 157.508 24.4212 157.315 24.7389C157.117 25.0618 157.023 25.4473 157.023 25.9056C157.023 26.2702 157.232 26.5671 157.648 26.8014C158.065 27.041 158.596 27.1556 159.253 27.1556C159.846 27.1556 160.482 27.0514 161.148 26.8431C161.826 26.6348 162.487 26.2962 163.128 25.8223V22.6973Z" fill="white"/>
<path d="M177.07 25.1348V18.5723H175.883V18.3848L177.924 16.1973H177.966V18.3848H181.591V18.8639H177.966L177.945 25.3431C177.945 25.9993 178.122 26.4785 178.487 26.7806C178.862 27.0879 179.326 27.2389 179.883 27.2389C180.326 27.2389 180.747 27.1452 181.154 26.9473C181.555 26.7546 181.852 26.5046 182.049 26.1973L182.133 26.2598C181.867 26.666 181.497 27.0046 181.029 27.2806C180.555 27.541 180.081 27.6764 179.612 27.6764C178.872 27.6764 178.263 27.4785 177.779 27.0723C177.305 26.6712 177.07 26.0254 177.07 25.1348Z" fill="white"/>
<path d="M183.996 18.7389V18.3848H185.246V24.3431C185.246 24.8587 185.371 25.3223 185.621 25.7389C185.871 26.1452 186.204 26.4629 186.621 26.6973C187.048 26.9212 187.543 27.0306 188.1 27.0306C188.725 27.0306 189.314 26.9577 189.871 26.8014C190.423 26.6348 190.902 26.4056 191.309 26.1139C191.725 25.8223 192.027 25.4889 192.225 25.1139V19.0306C192.225 18.8535 192.105 18.7598 191.871 18.7598V18.4056H192.204V18.3848H193.121V26.1139C193.121 26.6296 193.251 26.8848 193.517 26.8848C193.569 26.8848 193.611 26.8796 193.642 26.8639V27.2389C193.501 27.2702 193.34 27.3118 193.163 27.3639C192.98 27.4056 192.814 27.4473 192.663 27.4889H192.204V25.2181C191.98 25.6921 191.642 26.1139 191.184 26.4889C190.725 26.8535 190.189 27.1452 189.579 27.3639C188.98 27.5723 188.35 27.6764 187.684 27.6764C187.027 27.6764 186.454 27.5358 185.954 27.2598C185.454 26.9681 185.059 26.5723 184.767 26.0723C184.486 25.5618 184.35 24.9837 184.35 24.3431V19.0306C184.35 18.8379 184.23 18.7389 183.996 18.7389Z" fill="white"/>
<path d="M62.957 41.9206C62.957 41.6862 63.0612 41.4154 63.2695 41.1081C63.4883 40.7904 63.7956 40.4831 64.1862 40.1914C64.5716 39.8997 65.0404 39.6654 65.582 39.4831C66.1237 39.2904 66.707 39.1914 67.332 39.1914C68.2747 39.1914 69.0404 39.431 69.6237 39.8997C70.2174 40.3581 70.5195 41.0456 70.5195 41.9622V47.0039C70.5195 47.2695 70.6133 47.4935 70.8112 47.6706C71.0039 47.8372 71.2539 47.9206 71.5612 47.9206C71.8216 47.9206 72.0508 47.8372 72.2487 47.6706C72.4414 47.4935 72.5664 47.2695 72.6237 47.0039L72.7487 47.0664V47.0456C72.6758 47.4779 72.4883 47.8372 72.1862 48.1289C71.8945 48.4102 71.5612 48.5456 71.1862 48.5456C70.6862 48.5456 70.2956 48.3893 70.0195 48.0664C69.7539 47.7487 69.6237 47.3372 69.6237 46.8372C68.7904 47.4779 67.9987 47.9414 67.2487 48.2331C66.4987 48.5091 65.832 48.6497 65.2487 48.6497C64.4674 48.6497 63.832 48.4935 63.332 48.1914C62.832 47.8737 62.582 47.4779 62.582 47.0039C62.582 46.5456 62.6914 46.1602 62.9154 45.8372C63.1341 45.5195 63.5091 45.2435 64.0404 45.0039C64.5664 44.7539 65.2799 44.5247 66.1862 44.3164C67.1029 44.1081 68.2487 43.8893 69.6237 43.6497V41.6081C69.6237 40.832 69.3997 40.2487 68.957 39.8581C68.5091 39.4727 67.9466 39.2747 67.2695 39.2747C66.5716 39.2747 65.9466 39.3997 65.3945 39.6497C64.8529 39.8893 64.4206 40.1706 64.1029 40.5039C63.7956 40.8268 63.6445 41.1029 63.6445 41.3372C63.6445 41.4362 63.6966 41.5612 63.8112 41.7122C63.9362 41.8685 63.9987 41.9987 63.9987 42.1081C63.9987 42.1914 63.9414 42.2904 63.832 42.3997C63.7174 42.5143 63.582 42.5664 63.4154 42.5664C63.2904 42.5664 63.1758 42.5039 63.082 42.3789C62.9987 42.2539 62.957 42.1029 62.957 41.9206ZM69.6237 43.6914C68.4258 43.8997 67.4362 44.1029 66.6445 44.2956C65.8529 44.4779 65.2279 44.6862 64.7695 44.9206C64.3216 45.1445 64.0039 45.4154 63.8112 45.7331C63.6133 46.056 63.5195 46.4414 63.5195 46.8997C63.5195 47.2643 63.7279 47.5612 64.1445 47.7956C64.5612 48.0352 65.0924 48.1497 65.7487 48.1497C66.3424 48.1497 66.9779 48.0456 67.6445 47.8372C68.3216 47.6289 68.9831 47.2904 69.6237 46.8164V43.6914Z" fill="white"/>
<path d="M79.5951 39.3171C79.6211 39.3171 79.6784 39.3379 79.7617 39.3796C79.8451 39.4212 79.9284 39.4577 80.0117 39.4837C80.0951 39.515 80.1367 39.5254 80.1367 39.5254C80.5378 39.666 80.8555 39.7858 81.0951 39.8796C81.3294 39.9785 81.4336 40.0358 81.4076 40.0462L81.4909 40.0254H81.7201V41.3379H81.4701L81.3867 41.1296C81.2617 40.6608 81.0013 40.2858 80.6159 40.0046C80.2409 39.7285 79.8086 39.5358 79.3242 39.4212C78.8503 39.3118 78.3919 39.2546 77.9492 39.2546C77.2669 39.2546 76.7044 39.4316 76.2617 39.7754C75.8138 40.1243 75.5951 40.5618 75.5951 41.0879C75.5951 41.4368 75.8919 41.8379 76.4909 42.2962C77.1003 42.7546 77.9596 43.1868 79.0742 43.5879C80.0742 43.9525 80.8451 44.3743 81.3867 44.8587C81.9284 45.3483 82.1992 45.8171 82.1992 46.2754C82.1992 46.7337 82.0534 47.1452 81.7617 47.5046C81.4805 47.8691 81.0846 48.1504 80.5742 48.3587C80.0742 48.5671 79.5013 48.6712 78.8659 48.6712C78.1836 48.6712 77.543 48.5671 76.9492 48.3587V48.3796C76.7826 48.3118 76.5586 48.2129 76.2826 48.0879C76.0013 47.9629 75.7513 47.8535 75.5326 47.7546C75.3086 47.6452 75.1992 47.5879 75.1992 47.5879L75.1576 47.6504H74.8867V46.1504L75.1784 46.1087L75.2617 46.3587C75.3971 46.8587 75.6628 47.2754 76.0534 47.6087C76.4388 47.9421 76.8919 48.1868 77.4076 48.3379C77.918 48.4889 78.4128 48.5671 78.8867 48.5671C79.6471 48.5671 80.2826 48.3743 80.7826 47.9837C81.2826 47.5983 81.5326 47.1035 81.5326 46.5046C81.5326 46.1452 81.2826 45.765 80.7826 45.3587C80.293 44.9421 79.5951 44.5671 78.6784 44.2337C77.4961 43.8066 76.5794 43.3327 75.9284 42.8171C75.2721 42.291 74.9492 41.8066 74.9492 41.3587C74.9492 40.9421 75.0794 40.5671 75.3451 40.2337C75.6055 39.9004 75.9596 39.64 76.4076 39.4421C76.8659 39.2493 77.3867 39.1504 77.9701 39.1504C78.5221 39.1504 79.0586 39.2233 79.5742 39.3587L79.5951 39.3171Z" fill="white"/>
<path d="M85.3815 40.8997C85.3815 40.6497 85.3451 40.431 85.2773 40.2331C85.2201 40.0247 85.1367 39.8893 85.0273 39.8164L85.0482 39.5872C85.0586 39.5872 85.1211 39.582 85.2357 39.5664C85.3451 39.5404 85.4023 39.5195 85.4023 39.5039C85.4701 39.5039 85.5482 39.4935 85.6315 39.4622C85.7148 39.4206 85.7826 39.3945 85.8398 39.3789H86.2982V47.8372C86.2982 48.0352 86.4076 48.1289 86.6315 48.1289V48.4831H85.0273V48.1289C85.2617 48.1289 85.3815 48.0352 85.3815 47.8372V40.8997ZM85.2565 36.7122C85.2565 36.5039 85.3086 36.3581 85.4232 36.2747C85.5482 36.181 85.6836 36.1289 85.8398 36.1289C85.9753 36.1289 86.1107 36.181 86.2357 36.2747C86.3607 36.3581 86.4232 36.5039 86.4232 36.7122C86.4232 36.8945 86.3607 37.0352 86.2357 37.1289C86.1107 37.2279 85.9753 37.2747 85.8398 37.2747C85.6836 37.2747 85.5482 37.2279 85.4232 37.1289C85.3086 37.0352 85.2565 36.8945 85.2565 36.7122Z" fill="white"/>
<path d="M94.2044 39.3171C94.2305 39.3171 94.2878 39.3379 94.3711 39.3796C94.4544 39.4212 94.5378 39.4577 94.6211 39.4837C94.7044 39.515 94.7461 39.5254 94.7461 39.5254C95.1471 39.666 95.4648 39.7858 95.7044 39.8796C95.9388 39.9785 96.043 40.0358 96.0169 40.0462L96.1003 40.0254H96.3294V41.3379H96.0794L95.9961 41.1296C95.8711 40.6608 95.6107 40.2858 95.2253 40.0046C94.8503 39.7285 94.418 39.5358 93.9336 39.4212C93.4596 39.3118 93.0013 39.2546 92.5586 39.2546C91.8763 39.2546 91.3138 39.4316 90.8711 39.7754C90.4232 40.1243 90.2044 40.5618 90.2044 41.0879C90.2044 41.4368 90.5013 41.8379 91.1003 42.2962C91.7096 42.7546 92.569 43.1868 93.6836 43.5879C94.6836 43.9525 95.4544 44.3743 95.9961 44.8587C96.5378 45.3483 96.8086 45.8171 96.8086 46.2754C96.8086 46.7337 96.6628 47.1452 96.3711 47.5046C96.0898 47.8691 95.694 48.1504 95.1836 48.3587C94.6836 48.5671 94.1107 48.6712 93.4753 48.6712C92.793 48.6712 92.1523 48.5671 91.5586 48.3587V48.3796C91.3919 48.3118 91.168 48.2129 90.8919 48.0879C90.6107 47.9629 90.3607 47.8535 90.1419 47.7546C89.918 47.6452 89.8086 47.5879 89.8086 47.5879L89.7669 47.6504H89.4961V46.1504L89.7878 46.1087L89.8711 46.3587C90.0065 46.8587 90.2721 47.2754 90.6628 47.6087C91.0482 47.9421 91.5013 48.1868 92.0169 48.3379C92.5273 48.4889 93.0221 48.5671 93.4961 48.5671C94.2565 48.5671 94.8919 48.3743 95.3919 47.9837C95.8919 47.5983 96.1419 47.1035 96.1419 46.5046C96.1419 46.1452 95.8919 45.765 95.3919 45.3587C94.9023 44.9421 94.2044 44.5671 93.2878 44.2337C92.1055 43.8066 91.1888 43.3327 90.5378 42.8171C89.8815 42.291 89.5586 41.8066 89.5586 41.3587C89.5586 40.9421 89.6888 40.5671 89.9544 40.2337C90.2148 39.9004 90.569 39.64 91.0169 39.4421C91.4753 39.2493 91.9961 39.1504 92.5794 39.1504C93.1315 39.1504 93.668 39.2233 94.1836 39.3587L94.2044 39.3171Z" fill="white"/>
<path d="M100.891 46.1289V39.5664H99.7031V39.3789L101.745 37.1914H101.786V39.3789H105.411V39.8581H101.786L101.766 46.3372C101.766 46.9935 101.943 47.4727 102.307 47.7747C102.682 48.082 103.146 48.2331 103.703 48.2331C104.146 48.2331 104.568 48.1393 104.974 47.9414C105.375 47.7487 105.672 47.4987 105.87 47.1914L105.953 47.2539C105.687 47.6602 105.318 47.9987 104.849 48.2747C104.375 48.5352 103.901 48.6706 103.432 48.6706C102.693 48.6706 102.083 48.4727 101.599 48.0664C101.125 47.6654 100.891 47.0195 100.891 46.1289Z" fill="white"/>
<path d="M109.358 42.3164C109.233 42.7904 109.171 43.2956 109.171 43.8372C109.171 44.7279 109.358 45.5195 109.733 46.2122C110.108 46.9102 110.618 47.4518 111.275 47.8372C111.941 48.2279 112.697 48.4206 113.546 48.4206C114.322 48.4206 115.051 48.3268 115.733 48.1289C116.41 47.9206 116.988 47.6393 117.462 47.2747C117.931 46.8997 118.259 46.4831 118.441 46.0247C118.259 46.5404 117.921 46.9987 117.421 47.3997C116.931 47.7904 116.342 48.1029 115.65 48.3372C114.967 48.556 114.238 48.6706 113.462 48.6706C112.447 48.6706 111.546 48.4831 110.754 48.1081C109.962 47.7227 109.337 47.1914 108.879 46.5247C108.421 45.8477 108.191 45.0768 108.191 44.2122C108.191 43.0456 108.441 42.0977 108.941 41.3581C109.441 40.6237 110.129 40.082 111.004 39.7331C111.879 39.3737 112.868 39.1914 113.983 39.1914C114.801 39.1914 115.546 39.306 116.212 39.5247C116.879 39.7487 117.431 40.0872 117.879 40.5456C118.322 40.9935 118.608 41.5768 118.733 42.2956H109.337L109.358 42.3164ZM113.983 39.2747C112.858 39.2747 111.879 39.5195 111.046 40.0039C110.223 40.4779 109.671 41.2279 109.379 42.2539L117.712 42.2331C117.514 41.207 117.077 40.457 116.4 39.9831C115.717 39.5143 114.91 39.2747 113.983 39.2747Z" fill="white"/>
<path d="M128.546 47.8372V42.8164C128.546 41.8997 128.316 41.1445 127.858 40.5456C127.41 39.9518 126.764 39.6497 125.921 39.6497C125.556 39.6497 125.155 39.7539 124.712 39.9622C124.264 40.1602 123.827 40.431 123.4 40.7747C122.983 41.1081 122.608 41.4987 122.275 41.9414V47.8372C122.275 48.0352 122.384 48.1289 122.608 48.1289V48.4831H121.004V48.1289C121.238 48.1289 121.358 48.0352 121.358 47.8372V40.8997C121.358 40.6497 121.322 40.431 121.254 40.2331C121.197 40.0247 121.113 39.8893 121.004 39.8164L121.025 39.5872C121.035 39.5872 121.098 39.582 121.212 39.5664C121.322 39.5404 121.379 39.5195 121.379 39.5039C121.447 39.5039 121.525 39.4935 121.608 39.4622C121.691 39.4206 121.759 39.3945 121.816 39.3789H122.275V41.7956C122.66 41.2956 123.087 40.8529 123.546 40.4622C124.014 40.0768 124.483 39.7695 124.941 39.5456C125.41 39.3112 125.837 39.1914 126.212 39.1914C126.905 39.1914 127.493 39.3529 127.983 39.6706C128.467 39.9935 128.837 40.4206 129.087 40.9622C129.337 41.4935 129.462 42.1081 129.462 42.8164V47.8372C129.462 48.0352 129.577 48.1289 129.816 48.1289V48.4831H128.212V48.1289C128.431 48.1289 128.546 48.0352 128.546 47.8372Z" fill="white"/>
<path d="M137.402 39.2539C136.611 39.2539 135.908 39.4518 135.298 39.8372C134.684 40.2122 134.199 40.7331 133.84 41.3997C133.491 42.056 133.319 42.8112 133.319 43.6706C133.319 44.6029 133.475 45.431 133.798 46.1497C134.132 46.8581 134.579 47.4206 135.152 47.8372C135.736 48.2435 136.402 48.4414 137.152 48.4414C137.788 48.4414 138.402 48.3477 138.986 48.1497C139.579 47.9414 140.1 47.6706 140.548 47.3372C140.991 46.9935 141.309 46.5872 141.507 46.1289L141.548 46.1497C141.324 46.6393 140.986 47.0664 140.527 47.4414C140.069 47.8164 139.533 48.1185 138.923 48.3372C138.324 48.556 137.684 48.6706 137.007 48.6706C136.132 48.6706 135.34 48.4779 134.632 48.0872C133.934 47.6862 133.387 47.1445 132.986 46.4622C132.595 45.7852 132.402 45.0039 132.402 44.1289C132.402 43.1706 132.616 42.3268 133.048 41.5872C133.475 40.8372 134.074 40.2539 134.84 39.8372C135.6 39.4102 136.465 39.1914 137.423 39.1914C138.09 39.1914 138.704 39.2747 139.277 39.4414C139.861 39.6081 140.345 39.8372 140.736 40.1289C141.137 40.4102 141.408 40.7331 141.548 41.1081C141.6 41.2331 141.579 41.3477 141.486 41.4414C141.402 41.5247 141.267 41.5664 141.09 41.5664C141.007 41.5664 140.923 41.5247 140.84 41.4414C140.757 41.3477 140.684 41.2331 140.632 41.1081C140.434 40.582 140.033 40.1445 139.423 39.7956C138.824 39.4362 138.152 39.2539 137.402 39.2539Z" fill="white"/>
<path d="M144.374 40.8997C144.374 40.6497 144.337 40.431 144.27 40.2331C144.212 40.0247 144.129 39.8893 144.02 39.8164L144.04 39.5872C144.051 39.5872 144.113 39.582 144.228 39.5664C144.337 39.5404 144.395 39.5195 144.395 39.5039C144.462 39.5039 144.54 39.4935 144.624 39.4622C144.707 39.4206 144.775 39.3945 144.832 39.3789H145.29V47.8372C145.29 48.0352 145.4 48.1289 145.624 48.1289V48.4831H144.02V48.1289C144.254 48.1289 144.374 48.0352 144.374 47.8372V40.8997ZM144.249 36.7122C144.249 36.5039 144.301 36.3581 144.415 36.2747C144.54 36.181 144.676 36.1289 144.832 36.1289C144.967 36.1289 145.103 36.181 145.228 36.2747C145.353 36.3581 145.415 36.5039 145.415 36.7122C145.415 36.8945 145.353 37.0352 145.228 37.1289C145.103 37.2279 144.967 37.2747 144.832 37.2747C144.676 37.2747 144.54 37.2279 144.415 37.1289C144.301 37.0352 144.249 36.8945 144.249 36.7122Z" fill="white"/>
<path d="M148.738 41.9206C148.738 41.6862 148.842 41.4154 149.051 41.1081C149.27 40.7904 149.577 40.4831 149.967 40.1914C150.353 39.8997 150.822 39.6654 151.363 39.4831C151.905 39.2904 152.488 39.1914 153.113 39.1914C154.056 39.1914 154.822 39.431 155.405 39.8997C155.999 40.3581 156.301 41.0456 156.301 41.9622V47.0039C156.301 47.2695 156.395 47.4935 156.592 47.6706C156.785 47.8372 157.035 47.9206 157.342 47.9206C157.603 47.9206 157.832 47.8372 158.03 47.6706C158.223 47.4935 158.348 47.2695 158.405 47.0039L158.53 47.0664V47.0456C158.457 47.4779 158.27 47.8372 157.967 48.1289C157.676 48.4102 157.342 48.5456 156.967 48.5456C156.467 48.5456 156.077 48.3893 155.801 48.0664C155.535 47.7487 155.405 47.3372 155.405 46.8372C154.572 47.4779 153.78 47.9414 153.03 48.2331C152.28 48.5091 151.613 48.6497 151.03 48.6497C150.249 48.6497 149.613 48.4935 149.113 48.1914C148.613 47.8737 148.363 47.4779 148.363 47.0039C148.363 46.5456 148.473 46.1602 148.697 45.8372C148.915 45.5195 149.29 45.2435 149.822 45.0039C150.348 44.7539 151.061 44.5247 151.967 44.3164C152.884 44.1081 154.03 43.8893 155.405 43.6497V41.6081C155.405 40.832 155.181 40.2487 154.738 39.8581C154.29 39.4727 153.728 39.2747 153.051 39.2747C152.353 39.2747 151.728 39.3997 151.176 39.6497C150.634 39.8893 150.202 40.1706 149.884 40.5039C149.577 40.8268 149.426 41.1029 149.426 41.3372C149.426 41.4362 149.478 41.5612 149.592 41.7122C149.717 41.8685 149.78 41.9987 149.78 42.1081C149.78 42.1914 149.723 42.2904 149.613 42.3997C149.499 42.5143 149.363 42.5664 149.197 42.5664C149.072 42.5664 148.957 42.5039 148.863 42.3789C148.78 42.2539 148.738 42.1029 148.738 41.9206ZM155.405 43.6914C154.207 43.8997 153.217 44.1029 152.426 44.2956C151.634 44.4779 151.009 44.6862 150.551 44.9206C150.103 45.1445 149.785 45.4154 149.592 45.7331C149.395 46.056 149.301 46.4414 149.301 46.8997C149.301 47.2643 149.509 47.5612 149.926 47.7956C150.342 48.0352 150.874 48.1497 151.53 48.1497C152.124 48.1497 152.759 48.0456 153.426 47.8372C154.103 47.6289 154.764 47.2904 155.405 46.8164V43.6914Z" fill="white"/>
<path d="M168.742 41.9206C168.742 41.6862 168.846 41.4154 169.055 41.1081C169.273 40.7904 169.581 40.4831 169.971 40.1914C170.357 39.8997 170.826 39.6654 171.367 39.4831C171.909 39.2904 172.492 39.1914 173.117 39.1914C174.06 39.1914 174.826 39.431 175.409 39.8997C176.003 40.3581 176.305 41.0456 176.305 41.9622V47.0039C176.305 47.2695 176.398 47.4935 176.596 47.6706C176.789 47.8372 177.039 47.9206 177.346 47.9206C177.607 47.9206 177.836 47.8372 178.034 47.6706C178.227 47.4935 178.352 47.2695 178.409 47.0039L178.534 47.0664V47.0456C178.461 47.4779 178.273 47.8372 177.971 48.1289C177.68 48.4102 177.346 48.5456 176.971 48.5456C176.471 48.5456 176.081 48.3893 175.805 48.0664C175.539 47.7487 175.409 47.3372 175.409 46.8372C174.576 47.4779 173.784 47.9414 173.034 48.2331C172.284 48.5091 171.617 48.6497 171.034 48.6497C170.253 48.6497 169.617 48.4935 169.117 48.1914C168.617 47.8737 168.367 47.4779 168.367 47.0039C168.367 46.5456 168.477 46.1602 168.701 45.8372C168.919 45.5195 169.294 45.2435 169.826 45.0039C170.352 44.7539 171.065 44.5247 171.971 44.3164C172.888 44.1081 174.034 43.8893 175.409 43.6497V41.6081C175.409 40.832 175.185 40.2487 174.742 39.8581C174.294 39.4727 173.732 39.2747 173.055 39.2747C172.357 39.2747 171.732 39.3997 171.18 39.6497C170.638 39.8893 170.206 40.1706 169.888 40.5039C169.581 40.8268 169.43 41.1029 169.43 41.3372C169.43 41.4362 169.482 41.5612 169.596 41.7122C169.721 41.8685 169.784 41.9987 169.784 42.1081C169.784 42.1914 169.727 42.2904 169.617 42.3997C169.503 42.5143 169.367 42.5664 169.201 42.5664C169.076 42.5664 168.961 42.5039 168.867 42.3789C168.784 42.2539 168.742 42.1029 168.742 41.9206ZM175.409 43.6914C174.211 43.8997 173.221 44.1029 172.43 44.2956C171.638 44.4779 171.013 44.6862 170.555 44.9206C170.107 45.1445 169.789 45.4154 169.596 45.7331C169.398 46.056 169.305 46.4414 169.305 46.8997C169.305 47.2643 169.513 47.5612 169.93 47.7956C170.346 48.0352 170.878 48.1497 171.534 48.1497C172.128 48.1497 172.763 48.0456 173.43 47.8372C174.107 47.6289 174.768 47.2904 175.409 46.8164V43.6914Z" fill="white"/>
<path d="M185.504 48.5664C184.488 48.5664 183.587 48.3685 182.796 47.9622C182.004 47.5612 181.379 47.0039 180.921 46.2956C180.473 45.5872 180.254 44.7747 180.254 43.8581C180.254 42.957 180.467 42.1602 180.9 41.4622C181.327 40.7539 181.947 40.2018 182.754 39.7956C183.556 39.3945 184.546 39.1914 185.712 39.1914C186.488 39.1914 187.217 39.332 187.9 39.6081C188.577 39.8737 189.118 40.2279 189.525 40.6706L189.754 40.4622L190.046 39.3789H190.087V51.8581C190.087 52.0352 190.202 52.1289 190.441 52.1289V52.5039H188.837V52.1497C189.072 52.1497 189.191 52.056 189.191 51.8789V47.2956C188.91 47.6706 188.431 47.9779 187.754 48.2122C187.072 48.4518 186.322 48.5664 185.504 48.5664ZM185.879 48.2122C186.587 48.2122 187.243 48.1029 187.858 47.8789C188.467 47.6445 188.91 47.3372 189.191 46.9622V41.4414C188.926 40.8477 188.467 40.3581 187.816 39.9831C187.16 39.6081 186.441 39.4206 185.65 39.4206C184.702 39.4206 183.9 39.6029 183.233 39.9622C182.577 40.3268 182.077 40.8268 181.733 41.4622C181.384 42.0872 181.212 42.8164 181.212 43.6497C181.212 44.5247 181.405 45.3112 181.796 46.0039C182.197 46.6862 182.754 47.2279 183.462 47.6289C184.171 48.0195 184.973 48.2122 185.879 48.2122Z" fill="white"/>
<path d="M192.203 39.7331V39.3789H193.453V45.3372C193.453 45.8529 193.578 46.3164 193.828 46.7331C194.078 47.1393 194.411 47.457 194.828 47.6914C195.255 47.9154 195.75 48.0247 196.307 48.0247C196.932 48.0247 197.521 47.9518 198.078 47.7956C198.63 47.6289 199.109 47.3997 199.516 47.1081C199.932 46.8164 200.234 46.4831 200.432 46.1081V40.0247C200.432 39.8477 200.312 39.7539 200.078 39.7539V39.3997H200.411V39.3789H201.328V47.1081C201.328 47.6237 201.458 47.8789 201.724 47.8789C201.776 47.8789 201.818 47.8737 201.849 47.8581V48.2331C201.708 48.2643 201.547 48.306 201.37 48.3581C201.187 48.3997 201.021 48.4414 200.87 48.4831H200.411V46.2122C200.187 46.6862 199.849 47.1081 199.391 47.4831C198.932 47.8477 198.396 48.1393 197.786 48.3581C197.187 48.5664 196.557 48.6706 195.891 48.6706C195.234 48.6706 194.661 48.5299 194.161 48.2539C193.661 47.9622 193.266 47.5664 192.974 47.0664C192.693 46.556 192.557 45.9779 192.557 45.3372V40.0247C192.557 39.832 192.437 39.7331 192.203 39.7331Z" fill="white"/>
<path d="M206.233 48.4629H204.629V48.1087C204.863 48.1087 204.983 48.0202 204.983 47.8379V40.1087C204.983 39.9837 204.926 39.9212 204.816 39.9212C204.785 39.9212 204.759 39.9316 204.733 39.9421C204.702 39.9421 204.671 39.9525 204.629 39.9629L204.65 39.5879C204.66 39.5879 204.723 39.5775 204.837 39.5462C204.947 39.5202 205.004 39.4993 205.004 39.4837C205.072 39.4837 205.15 39.4733 205.233 39.4421C205.316 39.4004 205.384 39.3743 205.441 39.3587H205.9V47.8379C205.9 48.0202 206.009 48.1087 206.233 48.1087V48.4629ZM201.691 34.7129C201.691 34.5879 201.733 34.4837 201.816 34.4004C201.9 34.3171 202.004 34.2754 202.129 34.2754C202.186 34.2754 202.332 34.3952 202.566 34.6296C202.79 34.8691 203.061 35.1712 203.379 35.5462L205.629 38.0879L205.483 38.2129L202.962 35.9837C202.587 35.666 202.285 35.39 202.046 35.1504C201.811 34.916 201.691 34.7702 201.691 34.7129Z" fill="white"/>
</svg>
