<svg width="141" height="12" viewBox="0 0 141 12" fill="none" xmlns="http://www.w3.org/2000/svg">
<path d="M2.29622 10.7591C1.96289 10.582 1.68164 10.4258 1.46289 10.3008C1.23893 10.1654 1.11914 10.0872 1.10872 10.0716L0.837891 8.96745V8.94661L1.02539 8.84245C1.02539 8.84245 1.02539 8.85287 1.02539 8.86328C1.2181 9.22787 1.44727 9.5612 1.71289 9.86328C1.97331 10.1706 2.26497 10.4206 2.58789 10.6133C3.01497 10.8789 3.48372 11.0299 3.98372 11.0716C4.48372 11.1133 4.94727 11.0404 5.37956 10.8424C5.82227 10.6341 6.17643 10.332 6.44206 9.92578C6.70247 9.50911 6.83789 9.09245 6.83789 8.67578C6.83789 8.27474 6.69206 7.90495 6.40039 7.57161C6.11914 7.22787 5.77539 6.95703 5.35872 6.75911L2.83789 5.61328C2.4056 5.39453 2.05664 5.07161 1.79622 4.65495C1.54622 4.23828 1.42122 3.79557 1.42122 3.32161V3.17578C1.43164 2.69141 1.56706 2.26953 1.81706 1.90495C2.07747 1.52995 2.42122 1.2487 2.83789 1.05078C3.25456 0.842448 3.7181 0.738281 4.23372 0.738281C4.4681 0.738281 4.69727 0.779948 4.92122 0.863281C5.1556 0.946615 5.38477 1.04557 5.60872 1.15495C5.63477 1.17057 5.66081 1.19141 5.69206 1.21745C5.73372 1.23307 5.77539 1.25391 5.81706 1.27995C6.10872 1.40495 6.34831 1.52995 6.54622 1.65495C6.75456 1.77995 6.86393 1.85287 6.87956 1.86328L7.04622 2.61328L6.87956 2.69661C6.55664 2.1862 6.17122 1.77995 5.71289 1.48828C5.25456 1.1862 4.75977 1.01953 4.23372 0.988281C3.86914 0.988281 3.50456 1.09245 3.12956 1.30078C2.75456 1.4987 2.44206 1.76953 2.19206 2.11328C1.94206 2.44661 1.80143 2.8112 1.77539 3.19661V3.30078C1.77539 3.69141 1.90039 4.05078 2.15039 4.38411C2.41081 4.70703 2.72331 4.95703 3.08789 5.13411L5.62956 6.30078C6.13997 6.55078 6.53581 6.88411 6.81706 7.30078C7.10872 7.71745 7.25456 8.17578 7.25456 8.67578C7.25456 9.16536 7.10872 9.60807 6.81706 10.0091C6.53581 10.4154 6.17122 10.7331 5.71289 10.9674C5.13997 11.2435 4.55664 11.3529 3.96289 11.3008C3.36393 11.2435 2.80664 11.0664 2.29622 10.7591Z" fill="#452B2B"/>
<path d="M9.94336 10.9046C10.1517 10.9046 10.3652 10.8942 10.5892 10.863C10.8079 10.8213 10.9486 10.7275 11.0059 10.5713L14.8184 0.758789H15.0475V0.779622L18.86 10.5921C18.9277 10.7327 19.0527 10.8213 19.235 10.863C19.4121 10.8942 19.61 10.9046 19.8184 10.9046V11.113H17.4225V10.9046C17.6569 10.9046 17.8704 10.8838 18.0684 10.8421C18.2611 10.8005 18.3236 10.7067 18.2559 10.5505L16.7559 6.63379H12.7767L11.2559 10.5505C11.2246 10.6494 11.2663 10.7275 11.3809 10.7796C11.4902 10.8369 11.6361 10.8734 11.8184 10.8838C12.0111 10.8994 12.1829 10.9046 12.3392 10.9046V11.113H9.94336V10.9046ZM16.6725 6.42546L14.7559 1.50879L12.86 6.42546H16.6725Z" fill="#452B2B"/>
<path d="M26.4349 10.9674L22.4557 1.27995C22.3828 1.14453 22.2474 1.0612 22.0391 1.02995C21.8307 0.988281 21.6693 0.967448 21.5599 0.967448H21.4766V0.738281H23.8724V0.967448H23.7682C23.6849 0.967448 23.5703 0.983073 23.4349 1.00911C23.3099 1.02474 23.1953 1.05078 23.1016 1.09245C23.0182 1.13411 22.987 1.20703 23.0182 1.30078L26.7474 10.2799L30.4349 1.30078C30.4766 1.20703 30.4401 1.13411 30.3307 1.09245C30.2161 1.04036 30.0807 1.00391 29.9141 0.988281C29.7578 0.977865 29.6276 0.967448 29.5182 0.967448H29.3516V0.738281H31.7682V0.967448H31.7266C31.6536 0.967448 31.5443 0.977865 31.3932 0.988281C31.2526 1.00391 31.1068 1.02995 30.9557 1.07161C30.8151 1.11328 30.7266 1.19141 30.6849 1.30078L26.8516 10.5508L26.6224 11.1133H26.4974L26.4349 10.9674Z" fill="#452B2B"/>
<path d="M34.8848 10.9046H35.0723C35.1973 10.8942 35.3483 10.863 35.5306 10.8213C35.7077 10.7692 35.8014 10.6755 35.8014 10.5505V1.32129C35.8014 1.23796 35.7493 1.17546 35.6556 1.13379C35.5723 1.08171 35.4681 1.04525 35.3431 1.02962C35.2285 1.00358 35.1243 0.987956 35.0306 0.987956C34.9316 0.987956 34.8848 0.987956 34.8848 0.987956V0.758789H40.5514V1.65462H40.4473C40.4316 1.62858 40.39 1.56087 40.3223 1.44629C40.2493 1.33691 40.166 1.23275 40.0723 1.13379C39.9733 1.04004 39.8691 0.987956 39.7598 0.987956H36.3431V5.25879H39.8014C39.8691 5.25879 39.9316 5.20671 39.9889 5.09212C40.0566 4.96712 40.0931 4.90462 40.0931 4.90462H40.1973V5.82129H40.0931C40.0931 5.82129 40.0566 5.76921 39.9889 5.65462C39.9316 5.52962 39.8691 5.46712 39.8014 5.46712H36.3431V10.9046H40.0931C40.2285 10.9046 40.3639 10.8577 40.4889 10.7588C40.6243 10.6494 40.7389 10.54 40.8223 10.4255C40.9056 10.3005 40.9525 10.2275 40.9681 10.1963H41.2181L40.6348 11.113H34.8848V10.9046Z" fill="#452B2B"/>
<path d="M56.0788 10.8838C56.3392 10.8838 56.5632 10.863 56.7454 10.8213C56.9225 10.7692 57.0163 10.6755 57.0163 10.5505V0.987956H53.8288C53.7142 0.987956 53.61 1.04004 53.5163 1.13379C53.4173 1.23275 53.334 1.33691 53.2663 1.44629C53.1934 1.56087 53.1621 1.62858 53.1621 1.65462H53.0371V0.758789H61.5163V1.65462H61.4121C61.3965 1.62858 61.3548 1.56087 61.2871 1.44629C61.2142 1.33691 61.1309 1.23275 61.0371 1.13379C60.9382 1.04004 60.834 0.987956 60.7246 0.987956H57.5371V10.5505C57.5371 10.6755 57.6257 10.7692 57.8079 10.8213C58.0007 10.863 58.2298 10.8838 58.4954 10.8838V11.113H56.0788V10.8838Z" fill="#452B2B"/>
<path d="M65.2305 10.9043H65.418C65.543 10.8939 65.694 10.8626 65.8763 10.821C66.069 10.7689 66.168 10.6751 66.168 10.5501V1.32096C66.1523 1.19596 66.0534 1.11263 65.8763 1.07096C65.694 1.01888 65.543 0.98763 65.418 0.98763H65.2305V0.779297H67.6263V0.98763H67.4388C67.3138 0.98763 67.1523 1.01888 66.9596 1.07096C66.7773 1.11263 66.6888 1.19596 66.6888 1.32096V5.2793H71.8763V1.32096C71.8763 1.19596 71.7826 1.11263 71.6055 1.07096C71.4232 1.01888 71.2617 0.98763 71.1263 0.98763H70.9388V0.779297H73.3555V0.98763H73.168C73.0273 0.98763 72.8659 1.01888 72.6888 1.07096C72.5065 1.11263 72.418 1.19596 72.418 1.32096V10.5501C72.418 10.6751 72.5065 10.7689 72.6888 10.821C72.8659 10.8626 73.0273 10.8939 73.168 10.9043H73.3555V11.1126H70.9388V10.9043H71.1263C71.2617 10.8939 71.4232 10.8626 71.6055 10.821C71.7826 10.7689 71.8763 10.6751 71.8763 10.5501V5.4668H66.6888V10.5501C66.6888 10.6751 66.7773 10.7689 66.9596 10.821C67.1523 10.8626 67.3138 10.8939 67.4388 10.9043H67.6263V11.1126H65.2305V10.9043Z" fill="#452B2B"/>
<path d="M77.0586 10.9046H77.2461C77.3711 10.8942 77.5221 10.863 77.7044 10.8213C77.8815 10.7692 77.9753 10.6755 77.9753 10.5505V1.32129C77.9753 1.23796 77.9232 1.17546 77.8294 1.13379C77.7461 1.08171 77.6419 1.04525 77.5169 1.02962C77.4023 1.00358 77.2982 0.987956 77.2044 0.987956C77.1055 0.987956 77.0586 0.987956 77.0586 0.987956V0.758789H82.7253V1.65462H82.6211C82.6055 1.62858 82.5638 1.56087 82.4961 1.44629C82.4232 1.33691 82.3398 1.23275 82.2461 1.13379C82.1471 1.04004 82.043 0.987956 81.9336 0.987956H78.5169V5.25879H81.9753C82.043 5.25879 82.1055 5.20671 82.1628 5.09212C82.2305 4.96712 82.2669 4.90462 82.2669 4.90462H82.3711V5.82129H82.2669C82.2669 5.82129 82.2305 5.76921 82.1628 5.65462C82.1055 5.52962 82.043 5.46712 81.9753 5.46712H78.5169V10.9046H82.2669C82.4023 10.9046 82.5378 10.8577 82.6628 10.7588C82.7982 10.6494 82.9128 10.54 82.9961 10.4255C83.0794 10.3005 83.1263 10.2275 83.1419 10.1963H83.3919L82.8086 11.113H77.0586V10.9046Z" fill="#452B2B"/>
<path d="M97.4609 11.1126H95.2109V10.9043H95.3984C95.5339 10.8939 95.6953 10.8626 95.8776 10.821C96.0547 10.7689 96.1484 10.6751 96.1484 10.5501V1.32096C96.1484 1.19596 96.0547 1.11263 95.8776 1.07096C95.6953 1.01888 95.5339 0.98763 95.3984 0.98763H95.2109V0.779297H98.7109C99.2943 0.779297 99.8359 0.914713 100.336 1.17513C100.846 1.44076 101.294 1.81576 101.669 2.30013C102.055 2.77409 102.362 3.32096 102.586 3.94596C102.805 4.57096 102.919 5.23763 102.919 5.94596C102.919 6.6543 102.805 7.32096 102.586 7.94596C102.362 8.57096 102.055 9.12826 101.669 9.61263C101.294 10.0866 100.846 10.4616 100.336 10.7376C99.8359 11.0033 99.2943 11.1335 98.7109 11.1335H97.4609V11.1126ZM98.7109 10.9043C98.7526 10.9043 98.7943 10.9043 98.8359 10.9043C98.8776 10.8939 98.9193 10.8835 98.9609 10.8835C99.4453 10.8314 99.888 10.6647 100.294 10.3835C100.711 10.0918 101.076 9.7168 101.398 9.25846C101.716 8.80013 101.961 8.28971 102.128 7.7168C102.305 7.14909 102.398 6.56055 102.398 5.94596C102.398 5.31055 102.299 4.69596 102.107 4.11263C101.924 3.51888 101.659 2.98763 101.315 2.5293C100.982 2.06055 100.591 1.68555 100.148 1.4043C99.7005 1.12826 99.2214 0.98763 98.7109 0.98763H97.4193C97.2943 0.98763 97.1328 1.01888 96.9401 1.07096C96.7578 1.11263 96.6693 1.19596 96.6693 1.32096V10.5501C96.6693 10.6751 96.7578 10.7689 96.9401 10.821C97.1328 10.8626 97.2943 10.8939 97.4193 10.9043H98.7109Z" fill="#452B2B"/>
<path d="M105.016 10.9046C105.224 10.9046 105.437 10.8942 105.661 10.863C105.88 10.8213 106.021 10.7275 106.078 10.5713L109.891 0.758789H110.12V0.779622L113.932 10.5921C114 10.7327 114.125 10.8213 114.307 10.863C114.484 10.8942 114.682 10.9046 114.891 10.9046V11.113H112.495V10.9046C112.729 10.9046 112.943 10.8838 113.141 10.8421C113.333 10.8005 113.396 10.7067 113.328 10.5505L111.828 6.63379H107.849L106.328 10.5505C106.297 10.6494 106.339 10.7275 106.453 10.7796C106.562 10.8369 106.708 10.8734 106.891 10.8838C107.083 10.8994 107.255 10.9046 107.411 10.9046V11.113H105.016V10.9046ZM111.745 6.42546L109.828 1.50879L107.932 6.42546H111.745Z" fill="#452B2B"/>
<path d="M120.034 10.8838C120.294 10.8838 120.518 10.863 120.701 10.8213C120.878 10.7692 120.971 10.6755 120.971 10.5505V0.987956H117.784C117.669 0.987956 117.565 1.04004 117.471 1.13379C117.372 1.23275 117.289 1.33691 117.221 1.44629C117.148 1.56087 117.117 1.62858 117.117 1.65462H116.992V0.758789H125.471V1.65462H125.367C125.352 1.62858 125.31 1.56087 125.242 1.44629C125.169 1.33691 125.086 1.23275 124.992 1.13379C124.893 1.04004 124.789 0.987956 124.68 0.987956H121.492V10.5505C121.492 10.6755 121.581 10.7692 121.763 10.8213C121.956 10.863 122.185 10.8838 122.451 10.8838V11.113H120.034V10.8838Z" fill="#452B2B"/>
<path d="M129.188 10.9046H129.375C129.5 10.8942 129.651 10.863 129.833 10.8213C130.01 10.7692 130.104 10.6755 130.104 10.5505V1.32129C130.104 1.23796 130.052 1.17546 129.958 1.13379C129.875 1.08171 129.771 1.04525 129.646 1.02962C129.531 1.00358 129.427 0.987956 129.333 0.987956C129.234 0.987956 129.188 0.987956 129.188 0.987956V0.758789H134.854V1.65462H134.75C134.734 1.62858 134.693 1.56087 134.625 1.44629C134.552 1.33691 134.469 1.23275 134.375 1.13379C134.276 1.04004 134.172 0.987956 134.063 0.987956H130.646V5.25879H134.104C134.172 5.25879 134.234 5.20671 134.292 5.09212C134.359 4.96712 134.396 4.90462 134.396 4.90462H134.5V5.82129H134.396C134.396 5.82129 134.359 5.76921 134.292 5.65462C134.234 5.52962 134.172 5.46712 134.104 5.46712H130.646V10.9046H134.396C134.531 10.9046 134.667 10.8577 134.792 10.7588C134.927 10.6494 135.042 10.54 135.125 10.4255C135.208 10.3005 135.255 10.2275 135.271 10.1963H135.521L134.938 11.113H129.188V10.9046Z" fill="#452B2B"/>
<path d="M139.747 9.23796C139.716 9.23796 139.69 9.09212 139.664 8.80046C139.633 8.50879 139.607 8.12337 139.581 7.63379C139.565 7.14941 139.544 6.62337 139.518 6.05046C139.503 5.46712 139.487 4.89421 139.477 4.32129C139.461 3.75358 139.445 3.22754 139.435 2.73796C139.419 2.25358 139.404 1.86296 139.393 1.57129C139.393 1.27962 139.393 1.13379 139.393 1.13379C139.393 1.04004 139.424 0.956705 139.497 0.883789C139.565 0.800456 139.648 0.758789 139.747 0.758789C139.857 0.758789 139.945 0.800456 140.018 0.883789C140.086 0.956705 140.122 1.04004 140.122 1.13379C140.122 1.13379 140.112 1.27962 140.102 1.57129C140.102 1.86296 140.091 2.25358 140.081 2.73796C140.065 3.22754 140.049 3.75879 140.039 4.34212C140.023 4.91504 140.003 5.48275 139.977 6.05046C139.961 6.62337 139.94 7.14941 139.914 7.63379C139.898 8.12337 139.878 8.50879 139.852 8.80046C139.82 9.09212 139.789 9.23796 139.747 9.23796ZM139.747 11.1963C139.607 11.1963 139.482 11.1442 139.372 11.0505C139.273 10.9411 139.227 10.8161 139.227 10.6755C139.227 10.5244 139.273 10.3994 139.372 10.3005C139.482 10.2067 139.607 10.1546 139.747 10.1546C139.898 10.1546 140.023 10.2067 140.122 10.3005C140.232 10.3994 140.289 10.5244 140.289 10.6755C140.289 10.8161 140.232 10.9411 140.122 11.0505C140.023 11.1442 139.898 11.1963 139.747 11.1963Z" fill="#452B2B"/>
</svg>
