<svg width="136" height="33" viewBox="0 0 136 33" fill="none" xmlns="http://www.w3.org/2000/svg">
<path d="M36.0469 11.2539C35.4896 11.2539 34.9635 11.1237 34.4635 10.8581C33.974 10.5977 33.5469 10.2227 33.1719 9.73307C32.7969 9.2487 32.5052 8.68099 32.2969 8.02474C32.0885 7.3737 31.9844 6.66537 31.9844 5.89974C31.9844 5.14974 32.0885 4.45182 32.2969 3.79557C32.5052 3.14453 32.7969 2.58203 33.1719 2.10807C33.5469 1.6237 33.974 1.2487 34.4635 0.983073C34.9635 0.707032 35.4896 0.566406 36.0469 0.566406C36.599 0.566406 37.1198 0.707032 37.6094 0.983073C38.0937 1.2487 38.526 1.6237 38.901 2.10807C39.276 2.58203 39.5677 3.14453 39.776 3.79557C39.9844 4.45182 40.0885 5.14974 40.0885 5.89974C40.0885 6.66537 39.9844 7.3737 39.776 8.02474C39.5677 8.68099 39.276 9.2487 38.901 9.73307C38.526 10.2227 38.0937 10.5977 37.6094 10.8581C37.1198 11.1237 36.599 11.2539 36.0469 11.2539ZM36.0469 11.0456C36.5312 11.0456 36.9844 10.9102 37.401 10.6289C37.8281 10.3529 38.2031 9.97787 38.526 9.50391C38.8594 9.03516 39.1146 8.49349 39.2969 7.87891C39.474 7.25391 39.5677 6.59766 39.5677 5.89974C39.5677 5.22266 39.474 4.57682 39.2969 3.96224C39.1146 3.33724 38.8594 2.79036 38.526 2.31641C38.2031 1.83203 37.8281 1.45703 37.401 1.19141C36.9844 0.915365 36.5312 0.77474 36.0469 0.77474C35.5469 0.77474 35.0781 0.915365 34.651 1.19141C34.2344 1.45703 33.8594 1.83203 33.526 2.31641C33.2031 2.79036 32.9531 3.33724 32.776 3.96224C32.5937 4.57682 32.5052 5.22266 32.5052 5.89974C32.5052 6.59766 32.5937 7.25391 32.776 7.87891C32.9531 8.49349 33.2031 9.03516 33.526 9.50391C33.8594 9.97787 34.2344 10.3529 34.651 10.6289C35.0781 10.9102 35.5469 11.0456 36.0469 11.0456Z" fill="#452B2B"/>
<path d="M49.8594 1.31771H44.9427C44.8021 1.31771 44.6615 1.375 44.526 1.48438C44.401 1.59896 44.2969 1.71354 44.2135 1.83854C44.1302 1.95313 44.0781 2.02083 44.0677 2.04688H43.7969L44.5677 0.796875H50.2969L46.5052 11.1302H45.9427L49.8594 1.31771Z" fill="#452B2B"/>
<path d="M54.4974 11.2122C54.3411 11.2122 54.2161 11.1602 54.1224 11.0664C54.0234 10.9727 53.9766 10.8529 53.9766 10.7122C53.9766 10.5612 54.0234 10.4362 54.1224 10.3372C54.2161 10.2435 54.3411 10.1914 54.4974 10.1914C54.6328 10.1914 54.7526 10.2435 54.8516 10.3372C54.9453 10.4362 54.9974 10.5612 54.9974 10.7122C54.9974 10.8529 54.9453 10.9727 54.8516 11.0664C54.7526 11.1602 54.6328 11.2122 54.4974 11.2122Z" fill="#452B2B"/>
<path d="M62.7344 11.2539C62.1771 11.2539 61.651 11.1237 61.151 10.8581C60.6615 10.5977 60.2344 10.2227 59.8594 9.73307C59.4844 9.2487 59.1927 8.68099 58.9844 8.02474C58.776 7.3737 58.6719 6.66537 58.6719 5.89974C58.6719 5.14974 58.776 4.45182 58.9844 3.79557C59.1927 3.14453 59.4844 2.58203 59.8594 2.10807C60.2344 1.6237 60.6615 1.2487 61.151 0.983073C61.651 0.707032 62.1771 0.566406 62.7344 0.566406C63.2865 0.566406 63.8073 0.707032 64.2969 0.983073C64.7812 1.2487 65.2135 1.6237 65.5885 2.10807C65.9635 2.58203 66.2552 3.14453 66.4635 3.79557C66.6719 4.45182 66.776 5.14974 66.776 5.89974C66.776 6.66537 66.6719 7.3737 66.4635 8.02474C66.2552 8.68099 65.9635 9.2487 65.5885 9.73307C65.2135 10.2227 64.7812 10.5977 64.2969 10.8581C63.8073 11.1237 63.2865 11.2539 62.7344 11.2539ZM62.7344 11.0456C63.2187 11.0456 63.6719 10.9102 64.0885 10.6289C64.5156 10.3529 64.8906 9.97787 65.2135 9.50391C65.5469 9.03516 65.8021 8.49349 65.9844 7.87891C66.1615 7.25391 66.2552 6.59766 66.2552 5.89974C66.2552 5.22266 66.1615 4.57682 65.9844 3.96224C65.8021 3.33724 65.5469 2.79036 65.2135 2.31641C64.8906 1.83203 64.5156 1.45703 64.0885 1.19141C63.6719 0.915365 63.2187 0.77474 62.7344 0.77474C62.2344 0.77474 61.7656 0.915365 61.3385 1.19141C60.9219 1.45703 60.5469 1.83203 60.2135 2.31641C59.8906 2.79036 59.6406 3.33724 59.4635 3.96224C59.2812 4.57682 59.1927 5.22266 59.1927 5.89974C59.1927 6.59766 59.2812 7.25391 59.4635 7.87891C59.6406 8.49349 59.8906 9.03516 60.2135 9.50391C60.5469 9.97787 60.9219 10.3529 61.3385 10.6289C61.7656 10.9102 62.2344 11.0456 62.7344 11.0456Z" fill="#452B2B"/>
<path d="M74.1927 11.3164C73.5104 11.3164 72.8906 11.181 72.3385 10.9206C71.7812 10.6602 71.2031 10.2695 70.6094 9.75391L70.4844 8.75391L70.6927 8.67057C70.8281 9.12891 71.0885 9.54557 71.4635 9.92057C71.849 10.2852 72.2865 10.5768 72.776 10.7956C73.2604 11.0039 73.7344 11.1081 74.1927 11.1081C74.7865 11.1081 75.3229 10.9779 75.7969 10.7122C76.2656 10.4518 76.6406 10.1081 76.9219 9.69141C77.2135 9.26432 77.3594 8.8112 77.3594 8.33724C77.3594 7.85287 77.2135 7.39974 76.9219 6.98307C76.6406 6.55599 76.2656 6.21224 75.7969 5.96224C75.3229 5.70182 74.7865 5.56641 74.1927 5.56641H73.8177V5.33724H74.0469C74.5052 5.33724 74.9219 5.23307 75.2969 5.02474C75.6823 4.80599 75.9896 4.52474 76.2135 4.19141C76.4479 3.84766 76.5677 3.47786 76.5677 3.08724C76.5677 2.70182 76.4479 2.33724 76.2135 2.00391C75.9896 1.66016 75.6823 1.37891 75.2969 1.17057C74.9219 0.951824 74.5052 0.83724 74.0469 0.83724C73.6562 0.83724 73.2865 0.930989 72.9427 1.10807C72.6094 1.27474 72.3073 1.50391 72.0469 1.79557C71.7969 2.07682 71.5937 2.37891 71.4427 2.71224L71.2552 2.60807L71.5052 1.62891C71.8906 1.36849 72.2865 1.13932 72.6927 0.941406C73.0937 0.733073 73.5469 0.628906 74.0469 0.628906C74.599 0.628906 75.1094 0.733073 75.5677 0.941406C76.026 1.14974 76.3906 1.44141 76.6719 1.81641C76.9479 2.18099 77.0885 2.60286 77.0885 3.08724C77.0885 3.66016 76.8906 4.14974 76.5052 4.56641C76.1302 4.97266 75.6354 5.25391 75.026 5.42057C75.5781 5.51953 76.0729 5.70703 76.5052 5.98307C76.9323 6.2487 77.2656 6.58203 77.5052 6.98307C77.7552 7.38932 77.8802 7.83724 77.8802 8.33724C77.8802 8.91016 77.7135 9.42057 77.3802 9.87891C77.0573 10.3372 76.6198 10.6914 76.0677 10.9414C75.5104 11.1914 74.8854 11.3164 74.1927 11.3164Z" fill="#452B2B"/>
<path d="M82.0794 11.2122C81.9232 11.2122 81.7982 11.1602 81.7044 11.0664C81.6055 10.9727 81.5586 10.8529 81.5586 10.7122C81.5586 10.5612 81.6055 10.4362 81.7044 10.3372C81.7982 10.2435 81.9232 10.1914 82.0794 10.1914C82.2148 10.1914 82.3346 10.2435 82.4336 10.3372C82.5273 10.4362 82.5794 10.5612 82.5794 10.7122C82.5794 10.8529 82.5273 10.9727 82.4336 11.0664C82.3346 11.1602 82.2148 11.2122 82.0794 11.2122Z" fill="#452B2B"/>
<path d="M86.25 10.8997C86.25 10.6497 86.2812 10.3737 86.3542 10.0664C86.4375 9.76432 86.5312 9.46224 86.6458 9.17057C86.7708 8.86849 86.8958 8.60287 87.0208 8.37891C87.2292 8.03516 87.526 7.70703 87.9167 7.39974C88.3021 7.09766 88.7135 6.79557 89.1458 6.50391C89.5885 6.20182 90.0104 5.88932 90.4167 5.56641C90.8333 5.2487 91.1667 4.89974 91.4167 4.52474C91.6771 4.13932 91.8125 3.70182 91.8125 3.21224C91.8125 2.82682 91.6927 2.46224 91.4583 2.12891C91.2344 1.78516 90.9271 1.50391 90.5417 1.29557C90.1667 1.07682 89.7396 0.96224 89.2708 0.96224C88.8802 0.96224 88.5208 1.05599 88.1875 1.23307C87.8542 1.39974 87.5521 1.6237 87.2917 1.89974C87.0417 2.18099 86.8333 2.49349 86.6667 2.83724L86.4792 2.73307C86.4792 2.72266 86.4844 2.71224 86.5 2.71224H86.4792L86.7292 1.75391C87.1979 1.45182 87.6458 1.20703 88.0625 1.02474C88.4792 0.847656 88.8802 0.753906 89.2708 0.753906C89.8385 0.753906 90.3542 0.858073 90.8125 1.06641C91.2708 1.27474 91.6354 1.56641 91.9167 1.94141C92.1927 2.30599 92.3333 2.72786 92.3333 3.21224C92.3333 3.76953 92.2344 4.2487 92.0417 4.64974C91.8438 5.05599 91.5833 5.39974 91.25 5.69141C90.9271 5.98307 90.5677 6.25391 90.1667 6.50391C89.776 6.75391 89.3802 7.00391 88.9792 7.25391C88.5885 7.50391 88.2135 7.78516 87.8542 8.08724C87.5052 8.37891 87.2135 8.72787 86.9792 9.12891C86.7396 9.53516 86.5938 10.0195 86.5417 10.5872H91.4792C91.6302 10.5872 91.7812 10.5195 91.9375 10.3789C92.0885 10.2435 92.2344 10.0664 92.375 9.85807H92.6042L91.8333 11.1289H86.25V10.8997Z" fill="#452B2B"/>
<path d="M100.678 11.3586C99.938 11.3586 99.3026 11.1972 98.7609 10.8794C98.2193 10.5461 97.7714 10.1086 97.4276 9.56694C97.0786 9.02528 96.8339 8.41069 96.6984 7.71278C96.5734 7.02007 96.5526 6.30653 96.6359 5.56694C96.7297 4.74923 96.9328 4.02528 97.2401 3.40028C97.5422 2.77528 97.9276 2.24923 98.3859 1.81694C98.8547 1.37423 99.3703 1.04611 99.9276 0.837776C100.329 0.686734 100.719 0.624234 101.094 0.650276C101.469 0.681525 101.834 0.770068 102.198 0.921109C102.558 1.07736 102.917 1.24923 103.282 1.44194L103.615 2.40028L103.428 2.52528C103.245 2.18152 102.995 1.87944 102.678 1.62944C102.355 1.36903 102.021 1.1659 101.678 1.02528C101.136 0.832568 100.605 0.837776 100.094 1.04611C99.5943 1.24403 99.1359 1.57736 98.7193 2.04611C98.313 2.50444 97.9745 3.05652 97.6984 3.69194C97.4172 4.31694 97.2401 4.95757 97.1568 5.60861C97.0839 6.19194 97.0995 6.78569 97.1984 7.37944C97.3234 6.89507 97.5422 6.47319 97.8651 6.10861C98.1984 5.74923 98.6047 5.46278 99.0943 5.25444C99.5786 5.03569 100.105 4.92111 100.678 4.92111C101.329 4.92111 101.928 5.06173 102.469 5.33778C103.011 5.61903 103.438 5.99923 103.761 6.48361C104.094 6.97319 104.261 7.52007 104.261 8.12944C104.261 8.74403 104.094 9.2909 103.761 9.77528C103.438 10.2649 103.011 10.6503 102.469 10.9419C101.928 11.218 101.329 11.3586 100.678 11.3586ZM100.678 11.1711C101.261 11.1711 101.787 11.0357 102.261 10.7544C102.73 10.4628 103.105 10.0878 103.386 9.62944C103.678 9.17111 103.823 8.67111 103.823 8.12944C103.823 7.58778 103.678 7.08778 103.386 6.62944C103.105 6.17111 102.73 5.80653 102.261 5.52528C101.787 5.24923 101.261 5.10861 100.678 5.10861C100.094 5.10861 99.5578 5.24923 99.0734 5.52528C98.5995 5.80653 98.2245 6.17111 97.9484 6.62944C97.6672 7.08778 97.5318 7.58778 97.5318 8.12944C97.5318 8.67111 97.6776 9.17111 97.9693 9.62944C98.2609 10.0878 98.6411 10.4628 99.1151 10.7544C99.5995 11.0357 100.12 11.1711 100.678 11.1711Z" fill="#452B2B"/>
<path d="M1.76693 31.7246C1.43359 31.5579 1.14714 31.4069 0.91276 31.2663C0.688802 31.1309 0.579427 31.0527 0.579427 31.0371L0.308594 29.9329V29.9121L0.496094 29.8079C0.496094 29.8079 0.496094 29.8184 0.496094 29.8288C0.688802 30.2038 0.917968 30.5475 1.18359 30.8496C1.44401 31.1413 1.73568 31.3861 2.05859 31.5788C2.48568 31.8444 2.95443 31.9954 3.45443 32.0371C3.95443 32.0788 4.41797 32.0059 4.85026 31.8079C5.27734 31.5996 5.6263 31.2975 5.89193 30.8913C6.16797 30.4746 6.30859 30.0579 6.30859 29.6413C6.30859 29.2402 6.16276 28.8704 5.87109 28.5371C5.58984 28.2038 5.23568 27.9434 4.80859 27.7454L2.30859 26.5788C1.8763 26.36 1.52734 26.0475 1.26693 25.6413C1.0013 25.2246 0.871094 24.7819 0.871094 24.3079V24.1621C0.897135 23.6621 1.03776 23.235 1.28776 22.8704C1.53776 22.5111 1.87109 22.235 2.28776 22.0371C2.71484 21.8288 3.1888 21.7246 3.70443 21.7246C3.9388 21.7246 4.16797 21.7663 4.39193 21.8496C4.6263 21.9225 4.85026 22.0163 5.05859 22.1413C5.10026 22.1569 5.13151 22.1777 5.16276 22.2038C5.20443 22.2194 5.24609 22.235 5.28776 22.2454C5.5638 22.3704 5.80859 22.5059 6.01693 22.6413C6.22526 22.7663 6.32943 22.8288 6.32943 22.8288L6.51693 23.5788L6.32943 23.6829C6.02214 23.1725 5.63151 22.7611 5.16276 22.4538C4.70443 22.1517 4.21484 21.9902 3.70443 21.9746C3.33984 21.9746 2.97526 22.0788 2.60026 22.2871C2.22526 22.485 1.90234 22.7454 1.64193 23.0788C1.39193 23.4121 1.25651 23.7819 1.24609 24.1829V24.2871C1.24609 24.6621 1.37109 25.0163 1.62109 25.3496C1.88151 25.6725 2.19401 25.9277 2.55859 26.1204L5.10026 27.2871C5.61068 27.5267 6.00651 27.86 6.28776 28.2871C6.57943 28.7038 6.72526 29.1569 6.72526 29.6413C6.72526 30.1309 6.57943 30.5736 6.28776 30.9746C6.00651 31.3809 5.64193 31.6986 5.18359 31.9329C4.61068 32.209 4.02734 32.3184 3.43359 32.2663C2.83464 32.209 2.27734 32.0319 1.76693 31.7246Z" fill="#452B2B"/>
<path d="M9.40625 31.8711C9.61458 31.8711 9.82292 31.8607 10.0313 31.8294C10.25 31.7878 10.3958 31.694 10.4688 31.5378L14.2813 21.7461H14.4896L18.3021 31.5586C18.3854 31.6992 18.5104 31.7878 18.6771 31.8294C18.8542 31.8607 19.0521 31.8711 19.2604 31.8711V32.0794H16.8646V31.8711C17.099 31.8711 17.3125 31.8503 17.5104 31.8086C17.7031 31.7669 17.7708 31.6732 17.7188 31.5169L16.2188 27.6003H12.2396L10.7188 31.5169C10.6771 31.6159 10.7083 31.694 10.8229 31.7461C10.9479 31.8034 11.099 31.8398 11.2813 31.8503C11.474 31.8659 11.6458 31.8711 11.8021 31.8711V32.0794H9.40625V31.8711ZM16.1146 27.3919L14.2188 22.4753L12.3229 27.3919H16.1146Z" fill="#452B2B"/>
<path d="M25.8841 31.9329L21.8841 22.2663C21.8268 22.1309 21.6966 22.0475 21.4883 22.0163C21.2799 21.9746 21.1185 21.9538 21.0091 21.9538H20.9258V21.7246H23.3216V21.9538H23.2174C23.1341 21.9538 23.0195 21.9642 22.8841 21.9746C22.7435 21.9902 22.6341 22.0267 22.5508 22.0788C22.4674 22.1204 22.4362 22.1934 22.4674 22.2871L26.1758 31.2454L29.8841 22.2871C29.9258 22.1934 29.8841 22.1204 29.7591 22.0788C29.6445 22.0267 29.5091 21.9902 29.3424 21.9746C29.1862 21.9642 29.056 21.9538 28.9466 21.9538H28.8008V21.7246H31.1966V21.9538H31.1549C31.0977 21.9538 30.9935 21.9642 30.8424 21.9746C30.6862 21.9902 30.5352 22.0163 30.3841 22.0579C30.2435 22.0996 30.1549 22.1777 30.1133 22.2871L26.3008 31.5163L26.0716 32.0788H25.9466L25.8841 31.9329Z" fill="#452B2B"/>
<path d="M40.8242 31.1628H41.0742L40.5117 32.0794H34.7617V31.8711H34.9492C35.0742 31.8607 35.2253 31.8294 35.4076 31.7878C35.5846 31.7357 35.6784 31.6419 35.6784 31.5169V22.3086C35.6784 22.2253 35.6263 22.1628 35.5326 22.1211C35.4492 22.069 35.3451 22.0326 35.2201 22.0169C35.0951 21.9909 34.9805 21.9753 34.8867 21.9753C34.8034 21.9648 34.7617 21.9544 34.7617 21.9544V21.7461H40.4076V22.6419H40.3034C40.2878 22.6159 40.2461 22.5482 40.1784 22.4336C40.1211 22.3242 40.043 22.2201 39.9492 22.1211C39.8503 22.0117 39.7461 21.9544 39.6367 21.9544H36.2201V26.2253H39.6576C39.7409 26.2253 39.8086 26.1732 39.8659 26.0586C39.9336 25.9336 39.9701 25.8711 39.9701 25.8711H40.0742V26.8086H39.9701C39.9701 26.8086 39.9336 26.7565 39.8659 26.6419C39.8086 26.5169 39.7409 26.4544 39.6576 26.4544H36.2201V31.8711H39.9492C40.1003 31.8711 40.2409 31.8242 40.3659 31.7253C40.4909 31.6159 40.5951 31.5065 40.6784 31.3919C40.7721 31.2669 40.8242 31.194 40.8242 31.1628Z" fill="#452B2B"/>
<path d="M55.9362 31.8503C56.1862 31.8503 56.3997 31.8294 56.582 31.7878C56.7747 31.7357 56.8737 31.6419 56.8737 31.5169V21.9544H53.6862C53.5716 21.9544 53.4674 22.0117 53.3737 22.1211C53.2747 22.2201 53.1914 22.3242 53.1237 22.4336C53.0508 22.5482 53.0195 22.6159 53.0195 22.6419H52.8945V21.7461H61.3737V22.6419H61.2487C61.2331 22.6159 61.1914 22.5482 61.1237 22.4336C61.0508 22.3242 60.9674 22.2201 60.8737 22.1211C60.7747 22.0117 60.6758 21.9544 60.582 21.9544H57.3945V31.5169C57.3945 31.6419 57.4831 31.7357 57.6654 31.7878C57.8581 31.8294 58.082 31.8503 58.332 31.8503V32.0794H55.9362V31.8503Z" fill="#452B2B"/>
<path d="M65.0742 32.0794V31.8711H65.2617C65.3867 31.8607 65.5378 31.8294 65.7201 31.7878C65.9128 31.7357 66.0117 31.6419 66.0117 31.5169V22.3086C65.9961 22.1836 65.8971 22.1003 65.7201 22.0586C65.5378 22.0065 65.3867 21.9701 65.2617 21.9544H65.0742V21.7461H67.4701V21.9544H67.2826C67.1576 21.9701 66.9961 22.0065 66.8034 22.0586C66.6211 22.1003 66.5326 22.1836 66.5326 22.3086V26.2461H71.7201V22.3086C71.7201 22.1836 71.6263 22.1003 71.4492 22.0586C71.2669 22.0065 71.1055 21.9701 70.9701 21.9544H70.7826V21.7461H73.1784V21.9544H73.0117C72.8711 21.9701 72.7044 22.0065 72.5117 22.0586C72.3294 22.1003 72.2409 22.1836 72.2409 22.3086V31.5169C72.2409 31.6419 72.3294 31.7357 72.5117 31.7878C72.7044 31.8294 72.8711 31.8607 73.0117 31.8711H73.1784V32.0794H70.7826V31.8711H70.9701C71.1055 31.8607 71.2669 31.8294 71.4492 31.7878C71.6263 31.7357 71.7201 31.6419 71.7201 31.5169V26.4544H66.5326V31.5169C66.5326 31.6419 66.6211 31.7357 66.8034 31.7878C66.9961 31.8294 67.1576 31.8607 67.2826 31.8711H67.4701V32.0794H65.0742Z" fill="#452B2B"/>
<path d="M82.9531 31.1628H83.2031L82.6406 32.0794H76.8906V31.8711H77.0781C77.2031 31.8607 77.3542 31.8294 77.5365 31.7878C77.7135 31.7357 77.8073 31.6419 77.8073 31.5169V22.3086C77.8073 22.2253 77.7552 22.1628 77.6615 22.1211C77.5781 22.069 77.474 22.0326 77.349 22.0169C77.224 21.9909 77.1094 21.9753 77.0156 21.9753C76.9323 21.9648 76.8906 21.9544 76.8906 21.9544V21.7461H82.5365V22.6419H82.4323C82.4167 22.6159 82.375 22.5482 82.3073 22.4336C82.25 22.3242 82.1719 22.2201 82.0781 22.1211C81.9792 22.0117 81.875 21.9544 81.7656 21.9544H78.349V26.2253H81.7865C81.8698 26.2253 81.9375 26.1732 81.9948 26.0586C82.0625 25.9336 82.099 25.8711 82.099 25.8711H82.2031V26.8086H82.099C82.099 26.8086 82.0625 26.7565 81.9948 26.6419C81.9375 26.5169 81.8698 26.4544 81.7865 26.4544H78.349V31.8711H82.0781C82.2292 31.8711 82.3698 31.8242 82.4948 31.7253C82.6198 31.6159 82.724 31.5065 82.8073 31.3919C82.901 31.2669 82.9531 31.194 82.9531 31.1628Z" fill="#452B2B"/>
<path d="M97.2734 32.0794H95.0234V31.8711H95.2109C95.3464 31.8607 95.5078 31.8294 95.6901 31.7878C95.8672 31.7357 95.9609 31.6419 95.9609 31.5169V22.3086C95.9609 22.1836 95.8672 22.1003 95.6901 22.0586C95.5078 22.0065 95.3464 21.9701 95.2109 21.9544H95.0234V21.7461H98.5234C99.0911 21.7461 99.6276 21.8867 100.128 22.1628C100.638 22.4284 101.091 22.7982 101.482 23.2669C101.867 23.7409 102.169 24.2878 102.378 24.9128C102.596 25.5378 102.711 26.2044 102.711 26.9128C102.711 27.6211 102.596 28.2878 102.378 28.9128C102.169 29.5378 101.867 30.0951 101.482 30.5794C101.091 31.0534 100.638 31.4284 100.128 31.7044C99.6276 31.9701 99.0911 32.1003 98.5234 32.1003H97.2734V32.0794ZM98.5234 31.8711C98.5651 31.8711 98.6068 31.8711 98.6484 31.8711C98.6901 31.8607 98.7318 31.8503 98.7734 31.8503C99.2422 31.7982 99.6901 31.6315 100.107 31.3503C100.523 31.0586 100.888 30.6836 101.211 30.2253C101.529 29.7669 101.773 29.2565 101.94 28.6836C102.117 28.1159 102.211 27.5273 102.211 26.9128C102.211 26.2878 102.112 25.6836 101.919 25.1003C101.721 24.5065 101.451 23.9701 101.107 23.4961C100.773 23.0273 100.383 22.6576 99.9401 22.3919C99.4922 22.1159 99.0234 21.9701 98.5234 21.9544V21.9753H97.2734V21.9544H97.2318C97.1068 21.9701 96.9453 22.0065 96.7526 22.0586C96.5703 22.1003 96.4818 22.1836 96.4818 22.3086V31.5169C96.4818 31.6419 96.5703 31.7357 96.7526 31.7878C96.9453 31.8294 97.1068 31.8607 97.2318 31.8711H98.5234Z" fill="#452B2B"/>
<path d="M105.402 31.8711C105.611 31.8711 105.819 31.8607 106.027 31.8294C106.246 31.7878 106.392 31.694 106.465 31.5378L110.277 21.7461H110.486L114.298 31.5586C114.382 31.6992 114.507 31.7878 114.673 31.8294C114.85 31.8607 115.048 31.8711 115.257 31.8711V32.0794H112.861V31.8711C113.095 31.8711 113.309 31.8503 113.507 31.8086C113.699 31.7669 113.767 31.6732 113.715 31.5169L112.215 27.6003H108.236L106.715 31.5169C106.673 31.6159 106.704 31.694 106.819 31.7461C106.944 31.8034 107.095 31.8398 107.277 31.8503C107.47 31.8659 107.642 31.8711 107.798 31.8711V32.0794H105.402V31.8711ZM112.111 27.3919L110.215 22.4753L108.319 27.3919H112.111Z" fill="#452B2B"/>
<path d="M120.405 31.8503C120.655 31.8503 120.868 31.8294 121.051 31.7878C121.243 31.7357 121.342 31.6419 121.342 31.5169V21.9544H118.155C118.04 21.9544 117.936 22.0117 117.842 22.1211C117.743 22.2201 117.66 22.3242 117.592 22.4336C117.52 22.5482 117.488 22.6159 117.488 22.6419H117.363V21.7461H125.842V22.6419H125.717C125.702 22.6159 125.66 22.5482 125.592 22.4336C125.52 22.3242 125.436 22.2201 125.342 22.1211C125.243 22.0117 125.145 21.9544 125.051 21.9544H121.863V31.5169C121.863 31.6419 121.952 31.7357 122.134 31.7878C122.327 31.8294 122.551 31.8503 122.801 31.8503V32.0794H120.405V31.8503Z" fill="#452B2B"/>
<path d="M135.609 31.1628H135.859L135.297 32.0794H129.547V31.8711H129.734C129.859 31.8607 130.01 31.8294 130.193 31.7878C130.37 31.7357 130.464 31.6419 130.464 31.5169V22.3086C130.464 22.2253 130.411 22.1628 130.318 22.1211C130.234 22.069 130.13 22.0326 130.005 22.0169C129.88 21.9909 129.766 21.9753 129.672 21.9753C129.589 21.9648 129.547 21.9544 129.547 21.9544V21.7461H135.193V22.6419H135.089C135.073 22.6159 135.031 22.5482 134.964 22.4336C134.906 22.3242 134.828 22.2201 134.734 22.1211C134.635 22.0117 134.531 21.9544 134.422 21.9544H131.005V26.2253H134.443C134.526 26.2253 134.594 26.1732 134.651 26.0586C134.719 25.9336 134.755 25.8711 134.755 25.8711H134.859V26.8086H134.755C134.755 26.8086 134.719 26.7565 134.651 26.6419C134.594 26.5169 134.526 26.4544 134.443 26.4544H131.005V31.8711H134.734C134.885 31.8711 135.026 31.8242 135.151 31.7253C135.276 31.6159 135.38 31.5065 135.464 31.3919C135.557 31.2669 135.609 31.194 135.609 31.1628Z" fill="#452B2B"/>
</svg>
