<svg width="171" height="33" viewBox="0 0 171 33" fill="none" xmlns="http://www.w3.org/2000/svg">
<path d="M53.1523 11.1348C52.5951 11.1348 52.069 11.0046 51.569 10.7389C51.0794 10.4785 50.6523 10.1035 50.2773 9.61393C49.9023 9.12956 49.6107 8.56185 49.4023 7.9056C49.194 7.25456 49.0898 6.54622 49.0898 5.7806C49.0898 5.0306 49.194 4.33268 49.4023 3.67643C49.6107 3.02539 49.9023 2.46289 50.2773 1.98893C50.6523 1.50456 51.0794 1.12956 51.569 0.863932C52.069 0.587891 52.5951 0.447266 53.1523 0.447266C53.7044 0.447266 54.2253 0.587891 54.7148 0.863932C55.1992 1.12956 55.6315 1.50456 56.0065 1.98893C56.3815 2.46289 56.6732 3.02539 56.8815 3.67643C57.0898 4.33268 57.194 5.0306 57.194 5.7806C57.194 6.54622 57.0898 7.25456 56.8815 7.9056C56.6732 8.56185 56.3815 9.12956 56.0065 9.61393C55.6315 10.1035 55.1992 10.4785 54.7148 10.7389C54.2253 11.0046 53.7044 11.1348 53.1523 11.1348ZM53.1523 10.9264C53.6367 10.9264 54.0898 10.791 54.5065 10.5098C54.9336 10.2337 55.3086 9.85872 55.6315 9.38477C55.9648 8.91602 56.2201 8.37435 56.4023 7.75977C56.5794 7.13477 56.6732 6.47852 56.6732 5.7806C56.6732 5.10352 56.5794 4.45768 56.4023 3.8431C56.2201 3.2181 55.9648 2.67122 55.6315 2.19727C55.3086 1.71289 54.9336 1.33789 54.5065 1.07227C54.0898 0.796224 53.6367 0.655599 53.1523 0.655599C52.6523 0.655599 52.1836 0.796224 51.7565 1.07227C51.3398 1.33789 50.9648 1.71289 50.6315 2.19727C50.3086 2.67122 50.0586 3.2181 49.8815 3.8431C49.6992 4.45768 49.6107 5.10352 49.6107 5.7806C49.6107 6.47852 49.6992 7.13477 49.8815 7.75977C50.0586 8.37435 50.3086 8.91602 50.6315 9.38477C50.9648 9.85872 51.3398 10.2337 51.7565 10.5098C52.1836 10.791 52.6523 10.9264 53.1523 10.9264Z" fill="#452B2B"/>
<path d="M66.9688 1.19857H62.0521C61.9115 1.19857 61.7708 1.25586 61.6354 1.36523C61.5104 1.47982 61.4063 1.5944 61.3229 1.7194C61.2396 1.83399 61.1875 1.90169 61.1771 1.92773H60.9062L61.6771 0.677734H67.4063L63.6146 11.0111H63.0521L66.9688 1.19857Z" fill="#452B2B"/>
<path d="M71.6068 11.0931C71.4505 11.0931 71.3255 11.041 71.2318 10.9473C71.1328 10.8535 71.0859 10.7337 71.0859 10.5931C71.0859 10.4421 71.1328 10.3171 71.2318 10.2181C71.3255 10.1243 71.4505 10.0723 71.6068 10.0723C71.7422 10.0723 71.862 10.1243 71.9609 10.2181C72.0547 10.3171 72.1068 10.4421 72.1068 10.5931C72.1068 10.7337 72.0547 10.8535 71.9609 10.9473C71.862 11.041 71.7422 11.0931 71.6068 11.0931Z" fill="#452B2B"/>
<path d="M79.8398 11.1348C79.2826 11.1348 78.7565 11.0046 78.2565 10.7389C77.7669 10.4785 77.3398 10.1035 76.9648 9.61393C76.5898 9.12956 76.2982 8.56185 76.0898 7.9056C75.8815 7.25456 75.7773 6.54622 75.7773 5.7806C75.7773 5.0306 75.8815 4.33268 76.0898 3.67643C76.2982 3.02539 76.5898 2.46289 76.9648 1.98893C77.3398 1.50456 77.7669 1.12956 78.2565 0.863932C78.7565 0.587891 79.2826 0.447266 79.8398 0.447266C80.3919 0.447266 80.9128 0.587891 81.4023 0.863932C81.8867 1.12956 82.319 1.50456 82.694 1.98893C83.069 2.46289 83.3607 3.02539 83.569 3.67643C83.7773 4.33268 83.8815 5.0306 83.8815 5.7806C83.8815 6.54622 83.7773 7.25456 83.569 7.9056C83.3607 8.56185 83.069 9.12956 82.694 9.61393C82.319 10.1035 81.8867 10.4785 81.4023 10.7389C80.9128 11.0046 80.3919 11.1348 79.8398 11.1348ZM79.8398 10.9264C80.3242 10.9264 80.7773 10.791 81.194 10.5098C81.6211 10.2337 81.9961 9.85872 82.319 9.38477C82.6523 8.91602 82.9076 8.37435 83.0898 7.75977C83.2669 7.13477 83.3607 6.47852 83.3607 5.7806C83.3607 5.10352 83.2669 4.45768 83.0898 3.8431C82.9076 3.2181 82.6523 2.67122 82.319 2.19727C81.9961 1.71289 81.6211 1.33789 81.194 1.07227C80.7773 0.796224 80.3242 0.655599 79.8398 0.655599C79.3398 0.655599 78.8711 0.796224 78.444 1.07227C78.0273 1.33789 77.6523 1.71289 77.319 2.19727C76.9961 2.67122 76.7461 3.2181 76.569 3.8431C76.3867 4.45768 76.2982 5.10352 76.2982 5.7806C76.2982 6.47852 76.3867 7.13477 76.569 7.75977C76.7461 8.37435 76.9961 8.91602 77.319 9.38477C77.6523 9.85872 78.0273 10.2337 78.444 10.5098C78.8711 10.791 79.3398 10.9264 79.8398 10.9264Z" fill="#452B2B"/>
<path d="M91.3021 11.1973C90.6198 11.1973 90 11.0618 89.4479 10.8014C88.8906 10.541 88.3125 10.1504 87.7188 9.63477L87.5938 8.63477L87.8021 8.55143C87.9375 9.00977 88.1979 9.42643 88.5729 9.80143C88.9583 10.166 89.3958 10.4577 89.8854 10.6764C90.3698 10.8848 90.8438 10.9889 91.3021 10.9889C91.8958 10.9889 92.4323 10.8587 92.9063 10.5931C93.375 10.3327 93.75 9.98893 94.0313 9.57227C94.3229 9.14518 94.4688 8.69206 94.4688 8.2181C94.4688 7.73372 94.3229 7.2806 94.0313 6.86393C93.75 6.43685 93.375 6.0931 92.9063 5.8431C92.4323 5.58268 91.8958 5.44727 91.3021 5.44727H90.9271V5.2181H91.1563C91.6146 5.2181 92.0313 5.11393 92.4063 4.9056C92.7917 4.68685 93.099 4.4056 93.3229 4.07227C93.5573 3.72852 93.6771 3.35872 93.6771 2.9681C93.6771 2.58268 93.5573 2.2181 93.3229 1.88477C93.099 1.54102 92.7917 1.25977 92.4063 1.05143C92.0313 0.832683 91.6146 0.718099 91.1563 0.718099C90.7656 0.718099 90.3958 0.811848 90.0521 0.988932C89.7188 1.1556 89.4167 1.38477 89.1563 1.67643C88.9063 1.95768 88.7031 2.25977 88.5521 2.5931L88.3646 2.48893L88.6146 1.50977C89 1.24935 89.3958 1.02018 89.8021 0.822266C90.2031 0.613932 90.6563 0.509766 91.1563 0.509766C91.7083 0.509766 92.2188 0.613932 92.6771 0.822266C93.1354 1.0306 93.5 1.32227 93.7813 1.69727C94.0573 2.06185 94.1979 2.48372 94.1979 2.9681C94.1979 3.54102 94 4.0306 93.6146 4.44727C93.2396 4.85352 92.7448 5.13477 92.1354 5.30143C92.6875 5.40039 93.1823 5.58789 93.6146 5.86393C94.0417 6.12956 94.375 6.46289 94.6146 6.86393C94.8646 7.27018 94.9896 7.7181 94.9896 8.2181C94.9896 8.79102 94.8229 9.30143 94.4896 9.75977C94.1667 10.2181 93.7292 10.5723 93.1771 10.8223C92.6198 11.0723 91.9948 11.1973 91.3021 11.1973Z" fill="#452B2B"/>
<path d="M99.1849 11.0931C99.0286 11.0931 98.9036 11.041 98.8099 10.9473C98.7109 10.8535 98.6641 10.7337 98.6641 10.5931C98.6641 10.4421 98.7109 10.3171 98.8099 10.2181C98.9036 10.1243 99.0286 10.0723 99.1849 10.0723C99.3203 10.0723 99.4401 10.1243 99.5391 10.2181C99.6328 10.3171 99.6849 10.4421 99.6849 10.5931C99.6849 10.7337 99.6328 10.8535 99.5391 10.9473C99.4401 11.041 99.3203 11.0931 99.1849 11.0931Z" fill="#452B2B"/>
<path d="M103.359 10.7806C103.359 10.5306 103.391 10.2546 103.464 9.94727C103.547 9.64518 103.641 9.3431 103.755 9.05143C103.88 8.74935 104.005 8.48372 104.13 8.25977C104.339 7.91602 104.635 7.58789 105.026 7.2806C105.411 6.97852 105.823 6.67643 106.255 6.38477C106.698 6.08268 107.12 5.77018 107.526 5.44727C107.943 5.12956 108.276 4.7806 108.526 4.4056C108.786 4.02018 108.922 3.58268 108.922 3.0931C108.922 2.70768 108.802 2.3431 108.568 2.00977C108.344 1.66602 108.036 1.38477 107.651 1.17643C107.276 0.957683 106.849 0.843099 106.38 0.843099C105.99 0.843099 105.63 0.936848 105.297 1.11393C104.964 1.2806 104.661 1.50456 104.401 1.7806C104.151 2.06185 103.943 2.37435 103.776 2.7181L103.589 2.61393C103.589 2.60352 103.594 2.5931 103.609 2.5931H103.589L103.839 1.63477C104.307 1.33268 104.755 1.08789 105.172 0.905599C105.589 0.728515 105.99 0.634766 106.38 0.634766C106.948 0.634766 107.464 0.738932 107.922 0.947266C108.38 1.1556 108.745 1.44727 109.026 1.82227C109.302 2.18685 109.443 2.60872 109.443 3.0931C109.443 3.65039 109.344 4.12956 109.151 4.5306C108.953 4.93685 108.693 5.2806 108.359 5.57227C108.036 5.86393 107.677 6.13477 107.276 6.38477C106.885 6.63477 106.49 6.88477 106.089 7.13477C105.698 7.38477 105.323 7.66602 104.964 7.9681C104.615 8.25977 104.323 8.60872 104.089 9.00977C103.849 9.41602 103.703 9.90039 103.651 10.4681H108.589C108.74 10.4681 108.891 10.4004 109.047 10.2598C109.198 10.1243 109.344 9.94727 109.484 9.73893H109.714L108.943 11.0098H103.359V10.7806Z" fill="#452B2B"/>
<path d="M117.787 11.2395C117.047 11.2395 116.412 11.078 115.87 10.7603C115.329 10.427 114.881 9.98947 114.537 9.4478C114.188 8.90614 113.943 8.29155 113.808 7.59364C113.683 6.90093 113.662 6.18738 113.745 5.4478C113.839 4.63009 114.042 3.90614 114.349 3.28114C114.652 2.65613 115.037 2.13009 115.495 1.6978C115.964 1.25509 116.48 0.926968 117.037 0.718635C117.438 0.567594 117.829 0.505094 118.204 0.531135C118.579 0.562384 118.943 0.650927 119.308 0.801968C119.667 0.958219 120.027 1.13009 120.391 1.3228L120.724 2.28113L120.537 2.40613C120.355 2.06238 120.105 1.7603 119.787 1.5103C119.464 1.24989 119.131 1.04676 118.787 0.906135C118.245 0.713427 117.714 0.718635 117.204 0.926968C116.704 1.12489 116.245 1.45822 115.829 1.92697C115.422 2.3853 115.084 2.93738 114.808 3.5728C114.527 4.1978 114.349 4.83843 114.266 5.48947C114.193 6.0728 114.209 6.66655 114.308 7.2603C114.433 6.77593 114.652 6.35405 114.974 5.98947C115.308 5.63009 115.714 5.34364 116.204 5.1353C116.688 4.91655 117.214 4.80197 117.787 4.80197C118.438 4.80197 119.037 4.94259 119.579 5.21864C120.12 5.49989 120.547 5.88009 120.87 6.36447C121.204 6.85405 121.37 7.40093 121.37 8.0103C121.37 8.62489 121.204 9.17176 120.87 9.65614C120.547 10.1457 120.12 10.5311 119.579 10.8228C119.037 11.0988 118.438 11.2395 117.787 11.2395ZM117.787 11.052C118.37 11.052 118.896 10.9166 119.37 10.6353C119.839 10.3436 120.214 9.96864 120.495 9.5103C120.787 9.05197 120.933 8.55197 120.933 8.0103C120.933 7.46864 120.787 6.96864 120.495 6.5103C120.214 6.05197 119.839 5.68738 119.37 5.40614C118.896 5.13009 118.37 4.98947 117.787 4.98947C117.204 4.98947 116.667 5.13009 116.183 5.40614C115.709 5.68738 115.334 6.05197 115.058 6.5103C114.777 6.96864 114.641 7.46864 114.641 8.0103C114.641 8.55197 114.787 9.05197 115.079 9.5103C115.37 9.96864 115.751 10.3436 116.224 10.6353C116.709 10.9166 117.23 11.052 117.787 11.052Z" fill="#452B2B"/>
<path d="M4.6276 32.1465C4.02865 32.1465 3.46615 32.0059 2.9401 31.7298C2.40885 31.4538 1.94531 31.0788 1.54427 30.6048C1.13802 30.1204 0.825522 29.5579 0.606771 28.9173C0.382812 28.2663 0.273438 27.5736 0.273438 26.834C0.273438 26.1152 0.382812 25.4329 0.606771 24.7923C0.825522 24.1413 1.13802 23.5736 1.54427 23.084C1.94531 22.5996 2.40885 22.2194 2.9401 21.9382C3.46615 21.6621 4.02865 21.5215 4.6276 21.5215C5.2526 21.5215 5.84115 21.6621 6.39844 21.9382L6.35677 21.9173C6.63281 22.0319 6.88281 22.1569 7.10677 22.2923C7.34115 22.4173 7.52865 22.5319 7.66927 22.6257C7.82031 22.709 7.89844 22.7507 7.89844 22.7507L8.10677 23.709H8.1276L7.9401 23.834C7.73177 23.3757 7.45052 22.9954 7.10677 22.6882C6.75781 22.3704 6.36719 22.1361 5.9401 21.9798C5.50781 21.8288 5.07031 21.7507 4.6276 21.7507C4.09635 21.7507 3.60677 21.8913 3.14844 22.1673C2.6901 22.4486 2.27865 22.8288 1.91927 23.3132C1.57031 23.8027 1.29427 24.3496 1.08594 24.959C0.88802 25.5579 0.794271 26.1829 0.794271 26.834C0.794271 27.459 0.882812 28.0632 1.0651 28.6465C1.24219 29.2298 1.49219 29.7507 1.8151 30.209C2.14844 30.6673 2.52344 31.0527 2.9401 31.3548C3.36719 31.6621 3.83594 31.8496 4.33594 31.9173C4.3776 31.9329 4.42448 31.9382 4.48177 31.9382C4.53385 31.9382 4.58594 31.9382 4.6276 31.9382C5.32031 31.9382 5.97135 31.7298 6.58594 31.3132C7.21094 30.8965 7.71094 30.3288 8.08594 29.6048L8.27344 29.6882L8.0026 30.834C8.0026 30.834 7.91927 30.8913 7.7526 31.0007C7.58594 31.0996 7.36198 31.2246 7.08594 31.3757C6.82031 31.5163 6.52865 31.6569 6.21094 31.7923H6.23177C5.73177 32.0267 5.19531 32.1465 4.6276 32.1465Z" fill="#452B2B"/>
<path d="M16.0456 32.0846C15.3893 32.0846 14.8008 31.9336 14.2747 31.6263C13.7591 31.3242 13.3581 30.8971 13.0664 30.3555C12.7747 29.8034 12.6289 29.1471 12.6289 28.3971V22.1471C12.6133 22.0378 12.5143 21.9596 12.3372 21.918C12.1706 21.8659 12.0143 21.8346 11.8789 21.8346H11.6914V21.6055H14.0872V21.8346H13.8997C13.7747 21.8346 13.6185 21.8659 13.4414 21.918C13.2591 21.9596 13.1602 22.043 13.1497 22.168V28.3971C13.1497 28.9388 13.2383 29.4492 13.4206 29.918C13.5977 30.3763 13.8477 30.7669 14.1706 31.0846C14.4622 31.3659 14.7539 31.5638 15.0456 31.6888C15.3477 31.8138 15.681 31.8763 16.0456 31.8763C16.6393 31.8763 17.1706 31.7305 17.6289 31.4388C18.0872 31.1367 18.4466 30.7201 18.7122 30.1888C18.9727 29.6628 19.1081 29.0638 19.1081 28.3971V22.168C19.1081 22.043 19.0143 21.9596 18.8372 21.918C18.6549 21.8659 18.4935 21.8346 18.3581 21.8346H18.1914V21.6055H20.2539V21.8346H20.0664C19.9414 21.8346 19.7852 21.8659 19.6081 21.918C19.4258 21.9596 19.3372 22.043 19.3372 22.168V28.3971C19.3372 29.1211 19.1914 29.7617 18.8997 30.3138C18.6185 30.8711 18.2331 31.3086 17.7331 31.6263C17.2435 31.9336 16.681 32.0846 16.0456 32.0846Z" fill="#452B2B"/>
<path d="M30.0234 31.0417H30.2734L29.7109 31.9583H23.9609V31.75H24.1484C24.2734 31.7396 24.4245 31.7083 24.6068 31.6667C24.7839 31.6146 24.8776 31.5208 24.8776 31.3958V22.1875C24.8776 22.1042 24.8255 22.0417 24.7318 22C24.6484 21.9479 24.5443 21.9115 24.4193 21.8958C24.2943 21.8698 24.1797 21.8542 24.0859 21.8542C24.0026 21.8437 23.9609 21.8333 23.9609 21.8333V21.625H29.6068V22.5208H29.5026C29.487 22.4948 29.4453 22.4271 29.3776 22.3125C29.3203 22.2031 29.2422 22.099 29.1484 22C29.0495 21.8906 28.9453 21.8333 28.8359 21.8333H25.4193V26.1042H28.8568C28.9401 26.1042 29.0078 26.0521 29.0651 25.9375C29.1328 25.8125 29.1693 25.75 29.1693 25.75H29.2734V26.6875H29.1693C29.1693 26.6875 29.1328 26.6354 29.0651 26.5208C29.0078 26.3958 28.9401 26.3333 28.8568 26.3333H25.4193V31.75H29.1484C29.2995 31.75 29.4401 31.7031 29.5651 31.6042C29.6901 31.4948 29.7943 31.3854 29.8776 31.2708C29.9714 31.1458 30.0234 31.0729 30.0234 31.0417Z" fill="#452B2B"/>
<path d="M33.9922 31.75C34.2422 31.75 34.4557 31.724 34.638 31.6667C34.8151 31.6146 34.9089 31.5208 34.9089 31.3958V22.1667C34.9089 22.0417 34.8151 21.9583 34.638 21.9167C34.4557 21.8646 34.2422 21.8333 33.9922 21.8333V21.625H35.4505L41.3672 30.9167V22.1667C41.3672 22.0417 41.2682 21.9583 41.0755 21.9167C40.8932 21.8646 40.6797 21.8333 40.4297 21.8333V21.625H42.513V21.8333C42.2474 21.8333 42.0234 21.8646 41.8464 21.9167C41.6641 21.9583 41.5755 22.0417 41.5755 22.1667V31.9583H41.388L35.138 22.1042V31.3958C35.138 31.5208 35.2266 31.6146 35.4089 31.6667C35.6016 31.724 35.8255 31.75 36.0755 31.75V31.9583H33.9922V31.75Z" fill="#452B2B"/>
<path d="M49.2604 31.7292C49.5104 31.7292 49.724 31.7083 49.9063 31.6667C50.099 31.6146 50.1979 31.5208 50.1979 31.3958V21.8333H47.0104C46.8958 21.8333 46.7917 21.8906 46.6979 22C46.599 22.099 46.5156 22.2031 46.4479 22.3125C46.375 22.4271 46.3438 22.4948 46.3438 22.5208H46.2188V21.625H54.6979V22.5208H54.5729C54.5573 22.4948 54.5156 22.4271 54.4479 22.3125C54.375 22.2031 54.2917 22.099 54.1979 22C54.099 21.8906 54 21.8333 53.9063 21.8333H50.7188V31.3958C50.7188 31.5208 50.8073 31.6146 50.9896 31.6667C51.1823 31.7083 51.4063 31.7292 51.6563 31.7292V31.9583H49.2604V31.7292Z" fill="#452B2B"/>
<path d="M56.7891 31.75C56.9974 31.75 57.2057 31.7396 57.4141 31.7083C57.6328 31.6667 57.7786 31.5729 57.8516 31.4167L61.6641 21.625H61.8724L65.6849 31.4375C65.7682 31.5781 65.8932 31.6667 66.0599 31.7083C66.237 31.7396 66.4349 31.75 66.6432 31.75V31.9583H64.2474V31.75C64.4818 31.75 64.6953 31.7292 64.8932 31.6875C65.0859 31.6458 65.1536 31.5521 65.1016 31.3958L63.6016 27.4792H59.6224L58.1016 31.3958C58.0599 31.4948 58.0911 31.5729 58.2057 31.625C58.3307 31.6823 58.4818 31.7187 58.6641 31.7292C58.8568 31.7448 59.0286 31.75 59.1849 31.75V31.9583H56.7891V31.75ZM63.4974 27.2708L61.6016 22.3542L59.7057 27.2708H63.4974Z" fill="#452B2B"/>
<path d="M78.4609 31.7292C78.7109 31.7292 78.9245 31.7083 79.1068 31.6667C79.2995 31.6146 79.3984 31.5208 79.3984 31.3958V22.1667C79.3984 22.0417 79.2995 21.9583 79.1068 21.9167C78.9245 21.8646 78.7109 21.8333 78.4609 21.8333V21.625H81.9193C82.5026 21.625 83.0286 21.7396 83.5026 21.9583C83.987 22.1823 84.3672 22.5 84.6484 22.9167C84.9245 23.3333 85.0651 23.8333 85.0651 24.4167C85.0651 24.9167 84.9505 25.375 84.7318 25.7917C84.5078 26.1979 84.2005 26.5208 83.8151 26.7708C83.4401 27.0208 83.0078 27.1875 82.5234 27.2708C82.8828 27.4531 83.2109 27.6615 83.5026 27.8958C83.7943 28.1354 84.0026 28.5208 84.1276 29.0625C84.1953 29.3021 84.2734 29.5729 84.3568 29.875C84.4401 30.1667 84.5495 30.4583 84.6901 30.75C84.8411 31.0313 85.013 31.2656 85.2109 31.4583C85.4193 31.6406 85.6589 31.7292 85.9401 31.7292V31.9583H85.0859C84.7214 31.6823 84.4453 31.3906 84.2526 31.0833C84.0703 30.7656 83.9297 30.4323 83.8359 30.0833C83.7526 29.7396 83.6536 29.3542 83.5443 28.9375C83.4714 28.6875 83.3464 28.4375 83.1693 28.1875C83.0026 27.9375 82.7995 27.7292 82.5651 27.5625C82.3411 27.3958 82.1276 27.3125 81.9193 27.3125H79.9193V31.3958C79.9193 31.5208 80.0078 31.6146 80.1901 31.6667C80.3828 31.7083 80.6068 31.7292 80.8568 31.7292V31.9583H78.4609V31.7292ZM81.9193 27.1042C82.4036 27.1042 82.8411 26.9896 83.2318 26.75C83.6328 26.5 83.9505 26.1771 84.1901 25.7708C84.4245 25.3542 84.5443 24.9063 84.5443 24.4167C84.5443 23.9323 84.4245 23.4948 84.1901 23.1042C83.9505 22.7187 83.6328 22.4115 83.2318 22.1875C82.8411 21.9531 82.4036 21.8333 81.9193 21.8333H80.6693C80.5443 21.849 80.3828 21.875 80.1901 21.9167C80.0078 21.9583 79.9193 22.0521 79.9193 22.1875V27.1042H81.9193Z" fill="#452B2B"/>
<path d="M95.5625 31.0417H95.8125L95.25 31.9583H89.5V31.75H89.6875C89.8125 31.7396 89.9635 31.7083 90.1458 31.6667C90.3229 31.6146 90.4167 31.5208 90.4167 31.3958V22.1875C90.4167 22.1042 90.3646 22.0417 90.2708 22C90.1875 21.9479 90.0833 21.9115 89.9583 21.8958C89.8333 21.8698 89.7188 21.8542 89.625 21.8542C89.5417 21.8437 89.5 21.8333 89.5 21.8333V21.625H95.1458V22.5208H95.0417C95.026 22.4948 94.9844 22.4271 94.9167 22.3125C94.8594 22.2031 94.7812 22.099 94.6875 22C94.5885 21.8906 94.4844 21.8333 94.375 21.8333H90.9583V26.1042H94.3958C94.4792 26.1042 94.5469 26.0521 94.6042 25.9375C94.6719 25.8125 94.7083 25.75 94.7083 25.75H94.8125V26.6875H94.7083C94.7083 26.6875 94.6719 26.6354 94.6042 26.5208C94.5469 26.3958 94.4792 26.3333 94.3958 26.3333H90.9583V31.75H94.6875C94.8385 31.75 94.9792 31.7031 95.1042 31.6042C95.2292 31.4948 95.3333 31.3854 95.4167 31.2708C95.5104 31.1458 95.5625 31.0729 95.5625 31.0417Z" fill="#452B2B"/>
<path d="M103.741 32.1257C103.142 32.1257 102.579 31.985 102.053 31.709C101.538 31.4329 101.074 31.0579 100.658 30.584C100.251 30.0996 99.9388 29.5371 99.7201 28.8965C99.4961 28.2454 99.3867 27.5579 99.3867 26.834C99.3867 26.0996 99.4961 25.4121 99.7201 24.7715C99.9388 24.1204 100.251 23.5579 100.658 23.084C101.074 22.5996 101.538 22.2194 102.053 21.9382C102.579 21.6621 103.142 21.5215 103.741 21.5215C104.043 21.5215 104.35 21.5579 104.658 21.6257C104.96 21.6986 105.246 21.7923 105.512 21.9173L105.47 21.8965C105.746 22.0111 105.996 22.1361 106.22 22.2715C106.454 22.3965 106.642 22.5111 106.783 22.6048C106.934 22.6882 107.012 22.7298 107.012 22.7298L107.241 23.6882L107.053 23.8132C106.845 23.3548 106.564 22.9746 106.22 22.6673C105.871 22.3652 105.48 22.1361 105.053 21.9798C104.621 21.8132 104.184 21.7298 103.741 21.7298C103.21 21.7298 102.72 21.8704 102.262 22.1465C101.803 22.4277 101.392 22.8079 101.033 23.2923C100.684 23.7819 100.408 24.3288 100.199 24.9382C100.001 25.5371 99.9076 26.1673 99.9076 26.834C99.9076 27.459 99.9961 28.0632 100.178 28.6465C100.355 29.2194 100.605 29.7402 100.928 30.209C101.262 30.6673 101.637 31.0527 102.053 31.3548C102.48 31.6465 102.949 31.8288 103.449 31.8965C103.491 31.9121 103.538 31.9173 103.595 31.9173C103.647 31.9173 103.699 31.9173 103.741 31.9173C104.142 31.9173 104.522 31.8496 104.887 31.709C105.262 31.5736 105.605 31.3861 105.928 31.1465C106.48 30.7194 106.762 30.1465 106.762 29.4382V28.3548C106.762 28.2194 106.663 28.1257 106.47 28.084C106.288 28.0423 106.126 28.0163 105.991 28.0007H105.824V27.8132H108.199V28.0007H108.033C107.908 28.0163 107.746 28.0423 107.553 28.084C107.371 28.1257 107.283 28.2194 107.283 28.3548V30.6048C107.283 30.6048 107.184 30.6777 106.991 30.8132C106.809 30.9382 106.564 31.0996 106.262 31.2923C105.97 31.4746 105.663 31.6361 105.345 31.7715C104.845 32.0059 104.309 32.1257 103.741 32.1257Z" fill="#452B2B"/>
<path d="M111.625 31.7292C111.875 31.7292 112.089 31.7083 112.271 31.6667C112.464 31.6146 112.563 31.5208 112.563 31.3958V22.1667C112.563 22.0417 112.464 21.9583 112.271 21.9167C112.089 21.8646 111.875 21.8333 111.625 21.8333V21.625H115.083C115.667 21.625 116.193 21.7396 116.667 21.9583C117.151 22.1823 117.531 22.5 117.813 22.9167C118.089 23.3333 118.229 23.8333 118.229 24.4167C118.229 24.9167 118.115 25.375 117.896 25.7917C117.672 26.1979 117.365 26.5208 116.979 26.7708C116.604 27.0208 116.172 27.1875 115.688 27.2708C116.047 27.4531 116.375 27.6615 116.667 27.8958C116.958 28.1354 117.167 28.5208 117.292 29.0625C117.359 29.3021 117.438 29.5729 117.521 29.875C117.604 30.1667 117.714 30.4583 117.854 30.75C118.005 31.0313 118.177 31.2656 118.375 31.4583C118.583 31.6406 118.823 31.7292 119.104 31.7292V31.9583H118.25C117.885 31.6823 117.609 31.3906 117.417 31.0833C117.234 30.7656 117.094 30.4323 117 30.0833C116.917 29.7396 116.818 29.3542 116.708 28.9375C116.635 28.6875 116.51 28.4375 116.333 28.1875C116.167 27.9375 115.964 27.7292 115.729 27.5625C115.505 27.3958 115.292 27.3125 115.083 27.3125H113.083V31.3958C113.083 31.5208 113.172 31.6146 113.354 31.6667C113.547 31.7083 113.771 31.7292 114.021 31.7292V31.9583H111.625V31.7292ZM115.083 27.1042C115.568 27.1042 116.005 26.9896 116.396 26.75C116.797 26.5 117.115 26.1771 117.354 25.7708C117.589 25.3542 117.708 24.9063 117.708 24.4167C117.708 23.9323 117.589 23.4948 117.354 23.1042C117.115 22.7187 116.797 22.4115 116.396 22.1875C116.005 21.9531 115.568 21.8333 115.083 21.8333H113.833C113.708 21.849 113.547 21.875 113.354 21.9167C113.172 21.9583 113.083 22.0521 113.083 22.1875V27.1042H115.083Z" fill="#452B2B"/>
<path d="M128.727 31.0417H128.977L128.414 31.9583H122.664V31.75H122.852C122.977 31.7396 123.128 31.7083 123.31 31.6667C123.487 31.6146 123.581 31.5208 123.581 31.3958V22.1875C123.581 22.1042 123.529 22.0417 123.435 22C123.352 21.9479 123.247 21.9115 123.122 21.8958C122.997 21.8698 122.883 21.8542 122.789 21.8542C122.706 21.8437 122.664 21.8333 122.664 21.8333V21.625H128.31V22.5208H128.206C128.19 22.4948 128.148 22.4271 128.081 22.3125C128.023 22.2031 127.945 22.099 127.852 22C127.753 21.8906 127.648 21.8333 127.539 21.8333H124.122V26.1042H127.56C127.643 26.1042 127.711 26.0521 127.768 25.9375C127.836 25.8125 127.872 25.75 127.872 25.75H127.977V26.6875H127.872C127.872 26.6875 127.836 26.6354 127.768 26.5208C127.711 26.3958 127.643 26.3333 127.56 26.3333H124.122V31.75H127.852C128.003 31.75 128.143 31.7031 128.268 31.6042C128.393 31.4948 128.497 31.3854 128.581 31.2708C128.674 31.1458 128.727 31.0729 128.727 31.0417Z" fill="#452B2B"/>
<path d="M133.861 31.6055C133.527 31.4388 133.241 31.2878 133.007 31.1471C132.783 31.0117 132.673 30.9336 132.673 30.918L132.402 29.8138V29.793L132.59 29.6888C132.59 29.6888 132.59 29.6992 132.59 29.7096C132.783 30.0846 133.012 30.4284 133.277 30.7305C133.538 31.0221 133.829 31.2669 134.152 31.4596C134.579 31.7253 135.048 31.8763 135.548 31.918C136.048 31.9596 136.512 31.8867 136.944 31.6888C137.371 31.4805 137.72 31.1784 137.986 30.7721C138.262 30.3555 138.402 29.9388 138.402 29.5221C138.402 29.1211 138.257 28.7513 137.965 28.418C137.684 28.0846 137.329 27.8242 136.902 27.6263L134.402 26.4596C133.97 26.2409 133.621 25.9284 133.361 25.5221C133.095 25.1055 132.965 24.6628 132.965 24.1888V24.043C132.991 23.543 133.132 23.1159 133.382 22.7513C133.632 22.3919 133.965 22.1159 134.382 21.918C134.809 21.7096 135.283 21.6055 135.798 21.6055C136.033 21.6055 136.262 21.6471 136.486 21.7305C136.72 21.8034 136.944 21.8971 137.152 22.0221C137.194 22.0378 137.225 22.0586 137.257 22.0846C137.298 22.1003 137.34 22.1159 137.382 22.1263C137.658 22.2513 137.902 22.3867 138.111 22.5221C138.319 22.6471 138.423 22.7096 138.423 22.7096L138.611 23.4596L138.423 23.5638C138.116 23.0534 137.725 22.6419 137.257 22.3346C136.798 22.0326 136.309 21.8711 135.798 21.8555C135.434 21.8555 135.069 21.9596 134.694 22.168C134.319 22.3659 133.996 22.6263 133.736 22.9596C133.486 23.293 133.35 23.6628 133.34 24.0638V24.168C133.34 24.543 133.465 24.8971 133.715 25.2305C133.975 25.5534 134.288 25.8086 134.652 26.0013L137.194 27.168C137.704 27.4076 138.1 27.7409 138.382 28.168C138.673 28.5846 138.819 29.0378 138.819 29.5221C138.819 30.0117 138.673 30.4544 138.382 30.8555C138.1 31.2617 137.736 31.5794 137.277 31.8138C136.704 32.0898 136.121 32.1992 135.527 32.1471C134.928 32.0898 134.371 31.9128 133.861 31.6055Z" fill="#452B2B"/>
<path d="M142.523 31.75H142.711C142.836 31.7396 142.987 31.7083 143.169 31.6667C143.362 31.6146 143.461 31.5208 143.461 31.3958V22.1875C143.445 22.0625 143.346 21.9792 143.169 21.9375C142.987 21.8854 142.836 21.849 142.711 21.8333H142.523V21.625H144.919V21.8333H144.732C144.607 21.849 144.445 21.8854 144.253 21.9375C144.07 21.9792 143.982 22.0625 143.982 22.1875V31.3958C143.982 31.5208 144.07 31.6146 144.253 31.6667C144.445 31.7083 144.607 31.7396 144.732 31.75H144.919V31.9583H142.523V31.75Z" fill="#452B2B"/>
<path d="M153.158 31.8138L149.158 22.1471C149.1 22.0117 148.97 21.9284 148.762 21.8971C148.553 21.8555 148.392 21.8346 148.283 21.8346H148.199V21.6055H150.595V21.8346H150.491C150.408 21.8346 150.293 21.8451 150.158 21.8555C150.017 21.8711 149.908 21.9076 149.824 21.9596C149.741 22.0013 149.71 22.0742 149.741 22.168L153.449 31.1263L157.158 22.168C157.199 22.0742 157.158 22.0013 157.033 21.9596C156.918 21.9076 156.783 21.8711 156.616 21.8555C156.46 21.8451 156.329 21.8346 156.22 21.8346H156.074V21.6055H158.47V21.8346H158.428C158.371 21.8346 158.267 21.8451 158.116 21.8555C157.96 21.8711 157.809 21.8971 157.658 21.9388C157.517 21.9805 157.428 22.0586 157.387 22.168L153.574 31.3971L153.345 31.9596H153.22L153.158 31.8138Z" fill="#452B2B"/>
<path d="M160.273 31.75C160.482 31.75 160.69 31.7396 160.898 31.7083C161.117 31.6667 161.263 31.5729 161.336 31.4167L165.148 21.625H165.357L169.169 31.4375C169.253 31.5781 169.378 31.6667 169.544 31.7083C169.721 31.7396 169.919 31.75 170.128 31.75V31.9583H167.732V31.75C167.966 31.75 168.18 31.7292 168.378 31.6875C168.57 31.6458 168.638 31.5521 168.586 31.3958L167.086 27.4792H163.107L161.586 31.3958C161.544 31.4948 161.576 31.5729 161.69 31.625C161.815 31.6823 161.966 31.7187 162.148 31.7292C162.341 31.7448 162.513 31.75 162.669 31.75V31.9583H160.273V31.75ZM166.982 27.2708L165.086 22.3542L163.19 27.2708H166.982Z" fill="#452B2B"/>
</svg>
