<svg width="146" height="262" viewBox="0 0 146 262" fill="none" xmlns="http://www.w3.org/2000/svg">
<mask id="mask0_2305_33" style="mask-type:luminance" maskUnits="userSpaceOnUse" x="0" y="0" width="146" height="262">
<path d="M146 0H0V262H146V0Z" fill="black" fill-opacity="0.81"/>
</mask>
<g mask="url(#mask0_2305_33)">
<mask id="mask1_2305_33" style="mask-type:luminance" maskUnits="userSpaceOnUse" x="-23" y="10" width="214" height="254">
<path d="M191.001 10.332H-22.332V263.665H191.001V10.332Z" fill="white"/>
</mask>
<g mask="url(#mask1_2305_33)">
<mask id="mask2_2305_33" style="mask-type:luminance" maskUnits="userSpaceOnUse" x="3" y="11" width="127" height="241">
<path d="M3 11.666H129.667V251.666H3V11.666Z" fill="white"/>
</mask>
<g mask="url(#mask2_2305_33)">
<mask id="mask3_2305_33" style="mask-type:luminance" maskUnits="userSpaceOnUse" x="-21" y="11" width="211" height="251">
<path d="M189.986 215.052L45.4701 261.979L-20.5977 58.5208L123.913 11.5938L189.986 215.052Z" fill="white"/>
</mask>
<g mask="url(#mask3_2305_33)">
<mask id="mask4_2305_33" style="mask-type:luminance" maskUnits="userSpaceOnUse" x="-21" y="11" width="211" height="251">
<path d="M189.986 215.052L45.4701 261.979L-20.5977 58.5208L123.913 11.5938L189.986 215.052Z" fill="white"/>
</mask>
<g mask="url(#mask4_2305_33)">
<mask id="mask5_2305_33" style="mask-type:luminance" maskUnits="userSpaceOnUse" x="-21" y="11" width="211" height="252">
<path d="M189.896 215.084L45.375 262.011L-20.5781 58.9225L123.943 11.9902L189.896 215.084Z" fill="white"/>
</mask>
<g mask="url(#mask5_2305_33)">
<path d="M19.1966 128.423C18.9779 128.314 18.7591 128.605 18.9466 128.772C19.7539 129.454 20.5143 130.282 21.0768 131.178C21.6497 132.116 21.8997 133.157 22.3477 134.131C22.4831 134.402 22.8737 134.366 22.8633 134.053L22.8477 134.017C22.931 133.986 23.0143 133.96 23.0404 133.907C25.4518 131.241 23.8008 124.637 19.7904 124.59C19.3841 124.59 19.207 125.142 19.5143 125.402C19.9674 125.835 20.3997 125.918 20.9935 126.22C22.0143 126.741 22.5247 127.611 22.8633 128.668C23.3789 130.251 23.4883 131.699 22.7487 133.147C22.3841 131.204 20.7279 129.407 19.1966 128.423ZM69.207 199.47C69.5299 199.496 69.7487 199.069 69.3841 198.918C68.8633 198.684 68.2799 198.559 67.7174 198.335C67.1914 198.1 66.6549 197.829 66.1549 197.543C65.8841 197.402 65.6914 197.782 65.9362 197.97C66.931 198.548 68.0716 199.298 69.207 199.47ZM62.0508 190.027C62.2695 190.272 62.5924 190.032 62.4622 189.762C61.7695 188.324 60.181 187.85 58.9049 187.1C56.7904 185.855 55.2904 184.142 53.9466 182.064C53.6654 181.616 53.0404 182.043 53.2799 182.506C54.1289 184.157 55.4154 185.626 56.8945 186.72C58.5456 187.934 60.7591 188.387 62.0508 190.027ZM79.2174 57.6106C79.3477 58.5533 79.4154 60.0116 80.0977 60.7356C80.2227 60.8293 80.4102 60.7252 80.4102 60.5898C80.3997 60.1418 80.1758 59.72 80.0299 59.2773C79.8477 58.7043 79.7122 58.1679 79.6654 57.6002C79.6133 57.3033 79.207 57.2981 79.2174 57.6106ZM92.1706 99.2929C92.4622 96.4595 92.28 93.6887 91.4779 90.9387C90.5352 87.746 87.9102 84.9179 88.1758 81.4595C88.2174 81.1783 87.7487 81.1054 87.6497 81.3606C86.5404 83.4752 87.9466 85.4439 88.957 87.3137C90.9674 91.0168 91.7852 95.0585 91.6185 99.246C91.5872 99.5689 92.155 99.6575 92.1706 99.2929ZM67.6862 96.0637C67.7799 96.2095 68.0352 96.1731 68.0664 95.9856C68.2174 94.9439 67.5299 93.6418 67.1289 92.6939C66.9987 92.4231 66.5924 92.5533 66.6862 92.8398C66.8685 93.4075 67.0508 93.9752 67.1966 94.5585C67.3529 95.0481 67.4049 95.6158 67.6862 96.0637ZM9.10807 129.59C9.91015 127.756 10.4414 126.777 12.3633 126.194C12.3737 126.777 12.9622 127.345 13.3112 127.73C13.8737 128.355 14.556 128.803 15.3529 129.178C15.556 129.246 15.7435 129.006 15.5716 128.881C14.9414 128.46 14.3633 127.928 13.8529 127.329C13.5612 126.975 13.3737 126.407 13.0404 126.064C13.2852 125.986 13.4883 125.923 13.7018 125.762C13.9466 125.548 14.1862 125.022 14.4414 124.845C14.5508 124.767 14.7539 124.699 14.9154 124.647C15.2227 125.043 15.5039 125.355 15.582 125.871C15.6445 126.21 16.1445 126.225 16.1081 125.835C16.056 125.402 15.9414 124.902 15.6706 124.491C16.8372 124.34 18.1445 124.225 17.6185 122.741C17.4987 122.371 16.9727 122.543 17.0508 122.923C17.1914 123.642 14.6549 123.298 14.2331 123.522C13.6914 123.788 13.8424 123.965 13.4154 124.324C12.6289 125.079 12.1966 124.991 11.2643 125.298C9.55599 125.85 7.95182 127.673 8.42057 129.543C8.47265 129.84 8.98828 129.897 9.10807 129.59ZM18.2279 122.137C18.6758 121.991 19.0716 121.684 19.5872 121.605C19.8424 121.569 20.1133 121.569 20.3424 121.585C20.7695 121.668 20.4987 121.939 20.2539 122.152C19.806 122.564 19.2383 123.022 19.582 123.673C19.7122 123.944 20.1602 123.798 20.1497 123.486C20.1029 122.918 20.8737 122.668 21.1706 122.21C21.4049 121.824 21.4518 121.267 21.0352 120.954C20.2018 120.329 18.2799 120.772 17.7591 121.657C17.6237 121.928 17.9466 122.23 18.2279 122.137ZM15.7279 136.418C15.7435 136.46 15.7122 136.512 15.7018 136.605C15.2331 137.793 14.181 139.256 12.931 140.111C15.7852 141.293 18.2227 142.027 21.3633 141.595C21.3997 141.579 21.4935 141.595 21.5352 141.579C24.1289 139.887 26.6133 138.001 29.0091 135.965C27.832 136.079 26.6185 136.069 25.4831 136.032C24.2695 136.022 23.0247 136.069 21.9362 135.48C20.181 136.991 17.8008 137.407 15.7279 136.418ZM59.6393 121.616C59.2956 122.361 59.7279 122.85 60.1289 123.392C60.4466 123.824 60.0247 124.46 59.5091 124.402C59.2643 124.751 58.9102 125.043 58.5195 125.35C58.3424 125.501 58.0404 125.684 57.9727 125.887C58.0143 125.871 58.0299 125.913 58.0664 125.902C58.1237 125.793 58.2435 125.756 58.3529 125.809C58.8893 125.949 59.3893 125.829 59.8789 125.673C60.2018 125.569 60.5143 125.423 60.8112 125.501C60.8372 125.449 60.8789 125.439 60.9049 125.381C61.7122 124.402 62.207 123.027 63.1706 122.267C63.3477 122.121 63.6341 122.163 63.8216 122.324C63.931 122.111 63.9987 121.907 64.1237 121.736C64.207 121.574 64.3529 121.48 64.4622 121.397C64.5612 120.741 65.5508 120.595 65.8529 121.262C66.6237 121.689 67.2799 122.324 67.9466 122.871C68.2591 123.131 68.5768 123.428 68.931 123.678C68.7695 123.46 68.7852 123.095 69.1393 122.934C69.6914 122.71 70.0924 121.861 70.3268 121.34C70.4206 121.079 70.6549 120.559 70.4831 120.298C70.306 120.043 70.0768 120.157 69.8477 120.147C69.6602 120.116 69.5091 120.074 69.3789 119.939C69.0664 119.949 68.7435 119.652 68.8008 119.272C68.8893 118.704 69.0247 118.168 68.8841 117.585C68.832 117.288 68.5404 116.527 68.0924 116.673C67.806 116.767 67.4935 117.454 67.1914 117.642C66.7852 117.907 66.4622 117.876 66.0039 117.71C66.0039 117.71 66.0039 117.71 65.9518 117.684C65.9102 117.699 65.8685 117.71 65.7904 117.736C65.2591 117.772 64.7487 117.715 64.1966 117.668C63.3164 117.595 62.9779 117.934 62.6237 118.631C62.3893 119.157 62.1393 119.642 61.7435 119.949C61.7852 120.204 61.6341 120.434 61.3477 120.527C60.7383 120.725 59.9831 120.876 59.6393 121.616ZM71.1029 135.902C71.1185 135.944 71.1185 135.944 71.1029 135.902ZM69.6862 135.689C69.3372 135.309 69.0299 134.913 68.7643 134.506C68.9779 135.157 69.2279 135.793 69.5612 136.402C69.4935 136.199 69.5352 135.918 69.6862 135.689ZM48.5872 75.5481C51.431 76.4231 54.2956 77.647 56.0352 80.0898C54.9414 76.4491 54.1185 72.4023 50.8997 70.0845C50.6706 69.9335 50.9414 69.5325 51.1706 69.6835C54.3008 71.5845 55.5404 75.2668 56.6237 78.7304C56.707 78.4335 56.7747 78.095 56.8477 77.7616C57.0768 76.2512 56.707 74.7095 56.8945 73.2095C56.8841 73.1679 56.832 73.1418 56.8164 73.1002C55.6497 69.9283 52.8164 68.3814 50.7539 65.9075C49.2695 64.1002 47.9466 62.1054 46.9935 59.9908C45.7122 63.1002 45.6602 66.2616 46.5091 69.5793C46.9987 71.3502 48.3581 73.6002 48.5872 75.5481ZM84.0612 81.0898C83.6185 80.8293 83.2695 80.4491 83.1497 79.9491C83.1237 79.7356 83.1445 79.5064 83.2799 79.371C83.1289 79.3293 83.0091 79.2304 83.0247 79.0012C83.0404 78.9075 83.0143 78.8293 83.0247 78.7356C82.8581 79.3241 82.5977 79.9075 82.3529 80.3866C82.0612 81.022 81.7747 81.6523 81.457 82.2043C82.2591 81.6314 83.181 81.1523 84.0612 81.0898ZM90.4466 74.345C90.405 74.3606 90.3633 74.371 90.3633 74.371C90.7852 74.4179 91.2018 74.4595 91.6081 74.6002C91.707 74.2095 91.9466 73.996 92.3164 73.8762C92.4779 73.6887 92.6445 73.5012 92.8164 73.3502C91.9935 73.7095 91.2487 74.0429 90.4466 74.345ZM92.4466 76.0793C92.2174 76.0637 91.9987 76.0898 91.8268 76.1002C92.9987 76.5273 94.0872 77.1158 94.9831 77.8137C94.1914 77.1731 93.332 76.6002 92.4466 76.0793ZM96.2852 78.9179C96.1654 78.8189 96.03 78.6835 95.9102 78.5898C95.9674 78.6158 95.9779 78.6575 96.0456 78.7252C96.1237 78.8345 96.1914 78.9023 96.1914 79.0377C96.2175 78.9804 96.2435 78.9283 96.2852 78.9179ZM6.44661 129.824C6.89453 129.407 7.38411 129.381 7.93619 129.564C8.44661 129.756 8.83723 130.126 9.44661 129.928C9.93099 129.767 10.2331 129.314 10.6914 129.074C10.9935 128.887 11.4622 129.225 11.2591 129.564C11.2279 129.616 11.1914 129.631 11.1602 129.684C11.6706 132.079 12.8997 133.522 14.8893 134.939C17.0924 136.47 19.0143 136.157 21.1133 135.027C19.6341 134.475 18.3008 133.694 17.1497 132.631C16.9466 132.428 17.207 132.121 17.4466 132.314C18.7122 133.293 20.1081 134.006 21.6185 134.506C21.7122 134.517 21.7799 134.585 21.7956 134.626C22.1029 134.48 22.4102 134.741 22.3685 135.022C24.8789 135.824 27.7174 135.038 30.2331 134.897C32.2852 133.064 34.2852 131.064 36.1497 128.934C34.8477 128.23 33.5977 127.293 32.4206 126.147C32.2331 125.986 32.5039 125.715 32.6914 125.881C33.9258 127.048 35.2018 127.939 36.5195 128.543C36.5195 128.543 36.5195 128.543 36.5612 128.532C36.957 128.085 37.5352 128.486 37.5039 128.944C38.7279 129.397 40.0091 129.611 41.2539 129.699C41.4727 129.272 42.2122 129.345 42.4258 129.725C47.0716 129.652 51.9362 127.756 56.4831 126.282C56.431 125.986 56.4518 125.621 56.5456 125.361C56.5716 125.309 56.6289 125.199 56.6549 125.147C55.0872 125.298 53.4935 124.96 52.082 124.345C51.8164 124.204 52.0039 123.829 52.3008 123.913C54.0247 124.522 55.6497 124.532 57.3633 124.288C57.431 124.225 57.5143 124.194 57.5404 124.142C57.7852 123.928 58.0977 123.782 58.3268 123.527C58.2591 123.46 58.2227 123.335 58.1966 123.256C54.2799 123.496 49.9466 121.085 47.3216 118.392C47.1341 118.225 47.3945 117.918 47.582 118.085C49.1497 119.46 50.9622 120.621 52.9154 121.376C54.6133 122.038 56.2747 122.173 57.9987 122.376C57.9779 122.027 58.0039 121.699 58.0872 121.402C55.9727 121.105 54.082 119.022 52.8112 117.595C52.6654 117.418 52.8841 117.121 53.0716 117.288C54.0091 118.241 54.9727 119.272 56.1289 119.934C56.8529 120.371 57.582 120.538 58.3789 120.637C58.5299 120.407 58.6914 120.22 58.9102 120.059C56.5977 118.881 54.8529 117.111 53.6862 114.751C51.8737 111.121 50.9414 105.767 45.9518 105.454C45.7227 105.439 45.6966 105.09 45.9258 105.105C48.4935 105.126 50.3164 106.73 51.6341 108.861C54.207 113.053 54.8945 117.371 59.6706 119.631C60.0195 119.475 60.3477 119.371 60.7383 119.335C60.8216 118.902 60.9883 118.444 61.207 118.012C56.6289 109.173 52.8789 96.647 40.4674 98.6575C40.1289 98.7252 39.8841 98.5325 39.7539 98.2616C39.7227 98.4491 39.6133 98.6679 39.3581 98.7043C39.2747 98.7304 39.2331 98.746 39.1549 98.772C39.207 98.7981 39.2747 98.8658 39.3424 98.9335C40.3841 100.48 39.9935 102.178 39.1029 103.725C38.4987 104.777 37.6445 105.73 37.1602 106.871C36.2383 109.147 37.1445 110.559 37.5612 112.668C37.9258 114.345 37.4987 115.517 36.4206 116.767C36.6081 116.928 36.7956 117.095 36.9883 117.256C37.3477 117.543 37.7539 117.819 38.181 118.032C38.4518 118.173 38.2331 118.605 37.9622 118.465C37.4883 118.262 37.0612 118.043 36.6549 117.767C36.431 117.616 36.2018 117.465 36.0404 117.251C35.9049 117.381 35.806 117.506 35.6706 117.637C36.4102 118.387 37.1341 119.095 38.0872 119.684C39.1914 120.314 40.332 120.793 41.5195 121.262C41.7747 121.361 41.6081 121.819 41.3529 121.72C39.2539 121.053 36.5195 120.105 35.1393 118.215C33.3945 120.173 32.2487 121.892 32.7227 125.017C32.7643 125.272 32.3685 125.309 32.306 125.105C31.832 123.376 31.8893 121.605 32.6549 119.965C33.1393 118.954 33.8997 118.126 34.6341 117.345C34.6237 117.168 34.7591 117.038 34.9362 117.027C35.7227 116.137 36.3529 115.173 36.3893 113.902C36.4622 111.501 35.1133 109.559 35.8477 107.121C36.6549 104.345 39.556 102.501 38.5716 99.3189C38.5299 99.1991 38.5299 99.0637 38.5872 98.9543C36.082 99.9491 34.431 102.059 32.8477 104.236C31.3841 106.236 29.7487 108.517 28.8945 110.861C27.9414 113.46 29.4779 115.022 29.8945 117.402C30.0091 118.173 29.9154 118.569 29.9206 119.282C29.6862 120.215 29.6081 121.225 29.7904 122.199C30.2799 123.163 30.9258 124.027 31.6602 124.777C31.931 125.048 31.5612 125.439 31.2643 125.22C29.2383 123.678 28.3685 122.387 28.6081 119.798C28.9831 116.397 26.3164 113.85 27.5872 110.434C28.6341 107.574 30.6654 104.85 32.4935 102.46C34.2799 100.085 36.1914 97.9387 39.2174 97.4491C39.4727 97.4075 39.6497 97.5325 39.7435 97.6835C39.7852 97.397 39.9258 97.1314 40.2591 97.0637C45.2383 95.8085 50.3997 97.5898 53.7591 101.439C53.7747 101.48 53.8268 101.506 53.8529 101.59C53.2904 99.4335 53.0091 97.0533 53.2018 94.746C40.332 93.4075 33.5716 80.1991 34.5716 68.3345C34.5977 68.147 34.681 67.9856 34.8268 67.8918C34.8164 67.8502 34.7643 67.8241 34.7487 67.7825C34.3477 67.1054 35.3789 66.4127 35.7799 67.0898C37.3268 69.6418 38.7956 71.8137 41.582 73.1991C43.5612 74.1731 45.7852 74.6627 47.9102 75.272C45.0195 70.2408 43.7852 64.0845 46.3789 58.6627C46.707 58.0168 47.6758 58.5116 47.4049 59.1835C48.9987 62.5741 51.0195 65.0585 53.9154 67.4856C55.3372 68.6835 56.7487 69.845 57.4102 71.47C57.7799 70.5429 58.3685 69.72 58.9154 68.9179C59.2852 68.3918 60.2122 69.0325 59.8424 69.5585C59.0195 70.9023 58.3216 72.0741 58.1497 73.6106C60.4622 73.397 62.7383 73.647 64.9883 74.3502C65.2852 74.4335 65.2174 74.9075 64.8789 74.8398C62.6289 74.4023 60.3737 74.2356 58.1133 74.4752C58.1237 75.3241 58.2122 76.1523 58.1237 76.9856C58.0195 77.9179 57.6758 78.6575 57.5195 79.5585C57.4414 79.8554 57.4362 80.1262 57.3945 80.4127C58.0143 80.3866 58.6602 80.4491 59.2852 80.4231C60.3112 80.4075 61.3112 80.3085 62.3112 80.2095C62.6237 80.1939 62.6862 80.6679 62.3997 80.7616C60.9258 81.1939 59.1133 81.5585 57.5195 81.3554C57.4935 81.4127 57.5091 81.4491 57.4779 81.5064C57.6341 82.6679 58.1497 83.7095 58.7227 84.9179C58.9622 85.3814 58.3372 85.8085 58.056 85.3606C57.4049 84.3137 56.7383 83.2304 56.4779 82.0116C56.4102 81.8085 56.3997 81.6314 56.3737 81.4179C53.0299 77.0689 47.6289 76.7564 42.8372 74.9908C39.6706 73.8189 37.4987 71.9648 35.7383 69.3033C35.2956 80.8085 41.7122 91.4335 53.3737 93.8866C53.7174 91.4856 54.6393 89.2095 56.2852 87.5064C54.5143 84.6679 52.1549 83.5064 48.8945 82.72C46.5091 82.1523 44.5456 81.0793 42.681 79.4856C42.4258 79.2564 42.7539 78.8814 43.0091 79.1106C44.5924 80.3918 46.4362 81.2304 48.4154 81.6679C49.6185 81.9023 50.806 81.9648 51.9362 82.4075C54.1289 83.22 55.931 84.7512 57.0768 86.7564C57.5091 86.4335 57.9414 86.1158 58.4466 85.8606C58.6758 85.7408 58.8633 86.0429 58.6862 86.1887C58.1966 86.6158 57.7487 87.0325 57.3529 87.4752C57.3216 87.6627 57.2018 87.8345 57.0508 87.9335C57.0664 87.97 57.0664 87.97 57.0768 88.0116C57.4883 91.0689 58.2227 94.0168 59.5247 96.7825C59.6445 97.0116 59.2487 97.1835 59.1289 96.9543C57.8112 94.2825 56.8477 91.5898 56.3841 88.6418C53.5039 93.0377 54.7695 98.3241 55.7799 103.657C55.832 103.819 55.7956 103.965 55.7383 104.074C58.3685 107.887 60.3997 112.616 61.8633 116.855C62.0039 116.72 62.0977 116.6 62.2331 116.465C62.8737 115.944 63.707 115.897 64.5456 115.986C67.8529 112.756 69.1758 105.501 68.2799 101.21C68.2539 100.996 68.5768 100.892 68.6029 101.105C69.3372 104.194 68.8164 107.147 68.1289 110.152C67.6393 112.376 66.9883 114.517 65.4466 116.142C65.4466 116.142 65.4466 116.142 65.4883 116.126C68.082 114.163 69.6862 111.486 71.2331 108.647C72.7539 105.866 75.4622 101.756 74.7279 98.5325C74.6654 98.3293 74.9883 98.2252 75.0508 98.4283C75.8685 101.621 73.6497 105.303 72.3164 108.116C71.2591 110.392 70.0143 112.907 68.3112 114.855C68.7695 114.881 69.2539 115.131 69.5872 115.47C69.6654 115.579 69.7487 115.689 69.8268 115.798C69.8685 115.647 69.9518 115.486 70.1133 115.434C74.3164 113.303 78.0352 111.199 81.8372 108.392C84.6654 106.309 87.4518 105.09 91.0143 105.413C92.6914 105.59 94.3893 105.98 95.9362 106.6C102.353 97.7356 93.8581 87.0689 88.8112 79.6835C88.7331 79.7095 88.7018 79.7616 88.6237 79.7877C88.306 80.746 87.3529 81.2773 86.3529 81.3814C86.0977 81.4179 85.7747 81.3866 85.4518 81.3554C85.3268 83.6002 86.3997 86.2148 86.9779 88.272C87.0716 88.5585 86.582 88.7148 86.4883 88.4283C85.9362 86.5898 85.181 84.8137 84.7227 82.9856C84.5664 82.3658 84.4466 81.7304 84.5768 81.147C84.4674 81.095 84.3737 81.0793 84.2643 81.0273C84.3581 81.1731 84.3685 81.3502 84.2747 81.47C83.5612 82.4648 82.1549 82.97 81.1654 83.647C79.9154 84.5012 79.0195 85.4648 78.1549 86.6887C78.9154 87.7877 79.5404 89.022 80.1289 90.4075C80.1654 90.5273 79.9779 90.6366 79.8945 90.5273C78.6185 88.3814 77.3477 86.5481 75.5872 85.2773C76.4674 86.6106 76.5352 88.8762 76.5247 90.2304C76.5299 90.5377 76.0872 90.5533 76.0768 90.2408C75.9362 88.7095 75.8789 85.9023 74.4414 84.9335C74.2799 84.8502 74.2695 84.6731 74.3529 84.5116C73.3841 84.022 72.2904 83.6991 70.9987 83.5793C66.9466 83.147 63.1289 84.1158 59.4987 85.7877C59.2695 85.9075 59.0977 85.5168 59.3268 85.397C63.1966 83.0637 67.9674 82.1418 72.4622 82.9752C74.7539 83.397 76.4049 84.4752 77.6602 85.996C77.9622 85.272 78.3893 84.6418 78.9206 84.0637C78.8789 83.9387 78.8789 83.8085 79.0143 83.6731C80.582 81.8606 81.4414 79.246 81.7018 76.871C81.2956 77.272 80.8841 77.6783 80.5299 78.2408C80.2279 78.6991 80.0091 79.1262 79.7122 79.5845C79.0404 80.5637 78.2227 81.2356 77.0247 81.4023C76.806 81.4283 76.7799 81.0741 76.9987 81.0481C79.2956 80.6627 79.457 77.8293 80.9206 76.5429C78.9883 76.6783 75.5195 80.0898 74.1393 80.6783C72.2539 81.5116 70.3477 81.8606 68.2956 81.9023C68.0664 81.8866 68.0404 81.5325 68.2695 81.5481C72.6602 81.246 75.2852 79.3606 78.5299 76.647C79.457 75.897 80.2591 75.4543 81.2539 75.7616C81.2383 75.72 81.1862 75.6939 81.1706 75.6523C81.0924 75.5429 81.0924 75.4075 81.0977 75.272C80.5143 75.0116 80.0612 74.5741 79.8633 73.9648C78.4883 73.3345 76.2331 74.9648 74.8164 75.022C73.5716 75.0689 72.3633 74.6523 71.3424 73.996C71.1133 73.845 71.306 73.47 71.5352 73.621C72.8112 74.371 74.2539 74.6679 75.7279 74.2356C76.7539 73.9439 77.6393 73.2095 78.6654 73.0533C79.0456 72.9752 79.4674 73.0168 79.8008 73.0898C79.8164 72.7252 79.931 72.3762 80.1185 72.1314C77.4102 71.397 75.1654 70.1523 72.7435 68.647C71.2279 67.6991 69.6549 66.7304 67.8893 66.4075C65.6341 65.97 64.1029 66.7825 62.2695 67.9179C61.8893 68.1314 61.5456 67.7512 61.6966 67.3866C62.8268 64.5064 66.8216 64.5064 69.3268 65.3085C72.1445 66.2356 74.5039 67.9856 77.0872 69.4387C72.2435 65.4387 66.0143 60.5012 68.7435 53.8241C68.9622 53.2616 69.2643 52.8033 69.5768 52.2512C70.6289 50.5168 70.931 50.1991 71.2852 47.97C71.5247 46.6366 71.7643 45.4387 72.4622 44.2668C72.6133 44.0377 72.7643 43.8085 72.9154 43.5793C72.8997 43.5429 72.8893 43.5012 72.8893 43.5012C72.8372 43.2043 73.0664 43.0845 73.2956 43.1002C74.7643 41.4075 76.8008 40.345 79.056 40.2408C79.4622 40.2408 79.457 40.7825 79.082 40.8606C76.8737 41.2616 75.0299 42.3554 73.7487 43.9387C74.1862 46.5377 74.9362 48.9856 76.2331 51.3033C76.3477 51.5377 76.0247 51.7773 75.8633 51.5585C74.5977 49.4543 73.6966 47.2356 73.1445 44.8554C72.6133 45.8345 72.2539 46.9387 72.1081 48.1523C71.8893 50.5168 70.9883 51.4804 69.957 53.5689C66.3268 60.7616 75.1966 66.2356 79.7852 70.2668C79.9727 70.4335 79.9987 70.647 79.9258 70.8502C80.181 70.9439 80.4779 71.0273 80.7747 71.1106C81.0768 70.7877 81.4674 70.6158 81.9154 70.4752C82.1185 70.4075 82.5091 70.371 82.6445 70.2356C82.8112 70.0481 82.6654 69.6002 82.7227 69.3554C82.7643 69.2095 82.806 69.0637 82.8477 68.9127C81.3737 67.147 80.5247 64.9543 79.9883 62.746C79.9102 62.5012 80.3164 62.371 80.3945 62.6158C80.9883 64.7148 82.0664 66.5168 83.2018 68.3502C83.5664 67.9595 84.0456 67.7616 84.556 67.6835C84.1081 66.0325 83.3112 64.5429 82.9883 62.8502C82.6081 60.8606 82.3945 58.8241 82.1029 56.8085C82.0768 56.5898 82.431 56.5637 82.4518 56.7825C82.8685 59.0273 83.1706 61.4856 83.806 63.7095C84.2122 65.1002 84.931 66.3502 85.2435 67.7304C85.3945 67.772 85.4883 67.7877 85.5977 67.8398C85.6914 67.5845 85.8424 67.3554 86.1133 67.2252C85.2487 65.3918 85.2695 63.2304 85.4883 61.1418C86.0247 56.0273 86.8372 50.7825 83.3997 46.4179C83.2487 46.2408 83.5508 46.0533 83.6549 46.246C85.957 49.0429 86.6758 52.496 86.6341 56.1002C86.5768 59.9335 85.4518 63.6679 87.0456 67.0533C87.3685 67.0845 87.681 67.2095 87.9518 67.345C88.9049 67.7981 89.905 69.3606 88.7227 70.147C88.3164 70.4127 87.8216 70.1262 87.7539 69.6523C87.7591 69.5168 87.7695 69.4231 87.7435 69.345C87.6914 69.3137 87.6914 69.3137 87.6393 69.2877C87.3164 68.9856 87.0456 68.7148 86.806 68.3918C86.6602 68.3502 86.5247 68.345 86.4987 68.4023C86.6966 68.6054 86.8737 68.8658 86.9622 69.147C87.1237 69.6366 86.5612 70.1314 86.1185 69.871C85.8945 69.72 85.5977 69.5012 85.3529 69.3085C85.2018 69.5377 84.8424 69.522 84.8164 69.1731C84.8008 69.1314 84.8008 69.1314 84.7904 69.0898C84.6133 69.1002 84.4935 69.1418 84.3268 69.3293C84.0039 69.7043 84.1862 70.272 83.9258 70.72C83.6914 71.1106 83.3268 71.3606 82.8789 71.5064C82.5143 71.6262 81.6237 71.647 81.5352 72.0741C81.4831 72.3189 81.332 72.4127 81.1862 72.5064C81.1133 72.7095 81.0039 72.9231 80.9622 73.2043C80.9154 73.7616 81.2122 74.246 81.7227 74.4439C81.7747 74.47 81.7904 74.5116 81.8424 74.5377C82.5977 74.6523 83.2695 75.4648 83.6029 76.0793C83.9987 76.8918 84.0195 77.7825 83.7174 78.6418L83.6862 78.6991C83.7279 78.6835 83.7852 78.7095 83.7852 78.7095C84.4674 78.8918 84.9258 79.4648 85.6654 79.6731C86.1081 79.7981 86.9049 79.897 87.4206 79.6835C87.2643 79.0637 87.9727 78.6106 88.5404 78.4231C88.9466 78.2929 89.2956 78.2668 89.3945 77.7408C89.4622 77.4075 89.3997 77.0689 89.431 76.7408C88.2018 76.6939 87.0091 76.9023 85.7539 76.9023C85.2174 76.9023 85.0143 76.4283 85.1133 76.0325C84.3268 76.1106 83.8893 75.1731 84.5716 74.6418C84.7487 74.4908 84.9779 74.371 85.1549 74.2252C85.7174 73.1887 86.9258 72.4804 87.7956 71.7095C88.707 70.9179 89.5872 70.0481 90.4883 69.2148C90.3685 69.121 90.2747 68.97 90.3529 68.8085C90.5091 68.4439 90.6445 68.0429 90.7852 67.6366C90.0352 62.9856 91.8216 59.22 94.1497 55.0533C94.3112 54.7252 94.8529 55.0012 94.6341 55.2981C93.5352 57.3137 92.4674 59.4127 91.8268 61.595C91.4414 63.022 91.3893 64.3866 91.4466 65.8085C92.3424 63.5845 93.5039 61.3658 95.3529 60.0012C97.0247 58.7877 99.2539 58.3293 101.217 57.7356C103.587 57.0168 105.941 56.2512 108.285 55.5793C108.608 55.4752 108.77 55.9595 108.441 56.0637C104.639 57.345 100.108 58.1887 96.6497 60.2564C93.9362 61.8554 93.155 64.5793 91.9362 67.1731C92.0143 67.147 92.1393 67.1054 92.2331 67.121C92.5716 67.1939 92.8529 67.2356 93.1758 67.2668C93.957 64.272 97.0872 62.4439 99.8633 61.5898C100.191 61.4856 100.348 61.97 100.025 62.0793C97.2747 63.0168 95.0456 64.7252 93.9727 67.3658C94.6341 67.4648 95.2383 67.5377 95.8737 67.5533C95.9831 67.4752 96.1081 67.4387 96.28 67.4231C101.863 66.9127 108.155 65.272 111.379 60.2773C112.514 58.5168 113.301 56.5064 114.368 54.6783C115.863 52.0845 117.702 49.6002 116.035 47.0898C115.993 47.2356 115.775 47.397 115.561 47.2877C113.217 46.4335 110.212 47.4075 107.91 47.9335C105.988 48.3762 104.04 48.8762 102.176 49.4804C101.931 49.5585 101.801 49.1523 102.04 49.0741C104.874 48.1106 107.676 47.1991 110.582 46.6158C112.275 46.2929 114.072 45.7512 115.634 46.5481C115.405 46.2616 115.15 46.0273 114.842 45.772C114.587 45.5377 114.889 45.0793 115.171 45.2616C117.176 46.4491 118.129 48.5637 117.478 50.845C117.087 52.272 116.082 53.4491 115.353 54.6731C114.426 56.2356 113.764 57.9283 112.941 59.5429C111.582 62.2773 109.624 64.2616 107.342 65.6731C108.249 65.5585 109.139 65.5377 110.139 65.7095C112.592 66.0793 115.249 66.7877 117.181 68.4491C118.733 69.7877 119.629 71.5637 120.368 73.4335C120.514 73.4752 120.608 73.4856 120.759 73.5273C121.207 73.6523 121.092 74.272 120.686 74.272C120.806 74.6366 120.952 74.9491 121.072 75.3137C121.202 75.72 120.618 75.8658 120.462 75.5116C120.259 75.0377 120.051 74.522 119.811 74.0637C117.52 73.5064 115.228 72.9439 112.879 72.7668C112.691 72.7356 112.717 72.4127 112.895 72.4023C115.092 72.5377 117.228 72.746 119.342 73.1783C117.879 70.47 115.936 68.3606 112.566 67.522C109.389 66.7148 106.816 67.1002 103.759 68.0481C100.561 68.996 96.3164 70.1523 93.03 68.7512C93.056 68.9648 92.9883 69.1679 92.8529 69.2981C92.4258 69.6627 91.8477 69.8085 91.3633 69.5585C90.5612 70.5377 89.7018 71.4908 88.8268 72.4023C90.6862 71.7564 92.6029 71.3137 94.2539 71.1366C94.4466 70.6262 95.056 70.2929 95.6081 70.6054C95.7852 70.7304 95.9154 70.8658 96.0091 71.0168C96.0768 71.0793 96.0924 71.121 96.1185 71.2043C96.2227 71.3918 96.207 71.6262 96.1393 71.8241C98.707 71.7095 101.712 72.2616 103.603 71.0168C103.858 70.845 104.124 71.2512 103.868 71.4283C100.707 73.4387 96.6497 71.8814 93.5456 73.522C94.0872 73.6575 94.556 73.8658 94.9362 74.0585C95.1497 74.1679 95.3633 74.2773 95.5768 74.3866C95.7956 74.0898 96.1081 73.9439 96.4883 74.0012C97.0664 74.1262 97.3997 74.7408 97.2591 75.2773C97.2331 75.3293 97.207 75.3866 97.1758 75.4387C99.5143 77.1054 101.754 79.0273 104.879 78.6835C105.134 78.647 105.171 79.0377 104.874 79.0898C102.822 79.4023 101.082 78.8866 99.306 77.845C98.8633 77.5845 97.7227 76.6991 96.4727 75.8918C96.431 75.9075 96.431 75.9075 96.3893 75.9179C96.1341 75.9595 95.8268 75.8345 95.6758 75.6575C95.6081 75.7252 95.4883 75.7616 95.3945 75.7512C95.03 75.7356 94.707 75.7043 94.3425 75.6887C95.832 76.8189 97.155 78.2773 98.4414 79.4752C102.775 83.5481 108.488 85.2356 114.316 83.9752C114.697 83.8918 114.868 84.4231 114.504 84.5429C110.254 85.5585 105.801 85.121 101.9 83.0689C100.275 82.2043 98.9154 81.0689 97.6029 79.9283C97.5872 80.022 97.5716 80.1158 97.5039 80.1835C97.4102 80.4387 97.181 80.5585 96.9102 80.5533C96.3529 80.9179 95.5872 80.6262 95.3997 79.9231C95.3112 79.6366 95.3789 79.3033 95.53 79.0741C95.3685 79.1262 95.2331 79.1262 95.056 79.0012C93.6341 77.9387 92.1029 77.0898 90.3477 76.8033C90.306 76.8189 90.2956 76.7773 90.2539 76.7877C90.2904 77.4543 90.0143 78.2616 89.6185 78.7043C89.5768 78.7148 89.5872 78.7564 89.5508 78.772C91.0508 80.0793 92.405 81.7512 93.5872 83.6106C96.306 85.1991 98.582 87.5116 101.379 89.0741C104.233 90.6575 107.436 91.6835 110.707 91.522C114.384 91.3606 116.379 89.496 119.285 87.6575C120.78 86.7252 122.822 86.1054 123.577 84.2877C124.405 82.2668 122.4 79.6887 121.478 78.1002C121.238 77.6366 121.837 77.2668 122.145 77.6575C124.004 79.9283 125.723 83.4127 123.889 86.2095C122.77 87.871 120.592 88.3554 119.04 89.5325C117.561 90.6418 116.228 91.6575 114.441 92.2408C108.118 94.3345 100.499 91.3345 95.3997 86.8398C96.6393 89.2668 97.6029 91.8241 98.3008 94.1106C99.556 98.2408 99.6914 103.496 96.4883 106.777C100.421 108.647 103.556 111.939 104.259 116.47C104.53 116.605 104.582 117.038 104.228 117.199L104.186 117.21C104.15 117.225 104.066 117.251 104.025 117.262C102.322 117.819 100.577 117.98 98.7695 117.668C98.4831 117.626 98.582 117.236 98.8685 117.277C100.483 117.428 102.082 117.22 103.613 116.678C101.79 109.684 94.0456 105.059 86.8997 106.975C83.556 107.881 80.9674 110.699 78.1602 112.553C75.7539 114.142 73.0977 115.631 70.3477 116.434C70.1445 116.501 69.9987 116.46 69.8372 116.376C70.0352 116.986 70.0716 117.647 69.957 118.267C70.2279 118.272 70.5091 118.314 70.7383 118.465C71.0768 118.668 71.3424 118.939 71.5039 119.293C73.3477 118.199 74.6706 116.47 76.6237 115.564C78.1029 114.861 79.6654 114.71 81.2747 114.954C81.556 114.996 81.5247 115.454 81.2539 115.454C78.2435 115.309 76.3581 116.413 74.1706 118.381C73.3685 119.09 72.6341 119.736 71.7122 120.079C71.7383 120.157 71.7122 120.215 71.7383 120.293C71.7227 120.387 71.707 120.486 71.6966 120.579C76.931 120.944 80.7747 117.991 85.6497 116.673C88.707 115.861 92.4414 115.189 95.3164 116.861C95.5872 116.996 95.3633 117.423 95.0977 117.288C90.6081 114.928 84.7122 117.387 80.4935 119.335C78.0039 120.506 75.3216 121.782 72.5664 121.465C74.8685 122.465 77.5872 123.918 79.7018 122.423C79.9206 122.262 80.1185 122.6 79.9049 122.762C77.4831 124.579 73.8112 122.809 71.3216 121.777C71.2383 121.939 71.1133 122.116 71.0352 122.277C71.3945 122.428 71.7591 122.715 72.0664 122.97C73.1549 123.829 74.2122 124.741 75.6862 124.715C75.9987 124.704 75.9935 125.111 75.6966 125.157C74.7643 125.329 73.8633 125.038 73.0716 124.532C72.2747 124.027 71.4206 123.048 70.4362 122.918C70.2591 123.064 70.0664 123.173 69.9206 123.267C75.7174 127.444 81.8268 132.017 88.9779 133.152C89.0612 133.126 89.155 133.137 89.2591 133.194C90.2487 133.324 91.2175 133.413 92.2175 133.444C94.2852 133.449 96.03 133.152 97.4518 132.418C94.7383 132.355 92.1081 131.866 89.5352 130.991C89.332 130.923 89.4154 130.626 89.6185 130.699C92.582 131.532 95.5925 131.814 98.6445 131.673C99.0664 131.309 99.4779 130.907 99.8164 130.439C98.7331 130.699 97.4518 130.486 96.4414 130.277C96.2018 130.22 96.28 129.923 96.5091 129.944C97.1758 130.043 97.8633 130.085 98.5247 130.053C99.0925 130.001 99.6602 129.819 100.228 129.767C100.717 128.934 101.066 127.923 101.264 126.736C101.686 124.444 101.775 121.949 103.15 119.97C103.332 119.689 103.665 120.027 103.572 120.282C102.285 123.668 102.556 127.532 101.004 130.772C99.4675 133.923 95.9622 134.746 92.7175 134.855C92.1914 134.892 91.655 134.887 91.0977 134.84C93.5247 137.199 95.1393 139.819 96.3268 143.199C97.9154 147.673 99.7695 152.142 101.072 156.704C101.243 156.96 101.431 157.256 101.618 157.559C101.832 157.939 101.29 158.34 101.02 157.934C100.957 157.861 100.874 157.756 100.848 157.673C100.796 157.647 100.728 157.579 100.66 157.512C100.645 157.47 100.634 157.428 100.618 157.387C97.4518 153.569 90.5768 153.423 87.8164 149.199C88.5768 152.095 88.9154 155.22 87.6654 158.001C85.8789 161.907 81.9362 161.928 79.2122 164.746C78.9831 165.001 78.5508 164.647 78.7852 164.392C80.9779 161.746 84.8424 161.616 86.4727 158.345C88.2956 154.699 87.1966 150.345 85.7956 146.71C83.0247 139.574 77.9414 135.251 71.8424 130.991C71.2539 130.553 71.9362 129.751 72.556 129.996C79.2695 132.845 84.5352 139.934 87.0091 146.72C87.1445 146.59 87.3893 146.506 87.5352 146.684C90.082 149.543 92.28 151.611 95.806 153.204C97.1758 153.835 98.5925 154.454 99.7331 155.34C98.4206 152.131 97.3633 148.746 96.1341 145.506C95.3164 143.262 94.5612 140.944 93.1602 138.975C92.0508 137.361 90.5508 136.053 89.1133 134.678C86.5768 134.335 84.1393 133.6 81.7852 132.569C86.707 136.944 91.155 141.918 94.6341 147.251C94.806 147.512 94.4414 147.767 94.2279 147.522C90.905 142.809 87.0039 138.684 82.7122 134.871C80.7018 133.1 78.5768 131.407 76.431 129.772C74.306 128.486 72.306 127.027 70.3477 125.548C70.2227 125.59 70.1029 125.631 69.9518 125.59C69.9154 125.6 69.8997 125.564 69.8477 125.532L69.806 125.548C69.6706 125.543 69.4831 125.517 69.3633 125.423C69.2695 125.407 69.1706 125.392 69.1029 125.324C68.3529 124.809 67.5612 124.303 66.8216 123.824C67.0456 124.241 67.2747 124.663 67.6341 125.085C68.4779 126.022 69.5247 126.762 70.5456 127.418C70.8737 127.173 71.3581 127.152 71.7487 127.387C72.3529 127.725 72.5352 128.564 72.0352 129.09C71.5039 129.663 70.5612 129.387 70.3372 128.699C70.3112 128.616 70.2956 128.574 70.3112 128.48C69.1914 127.944 67.7122 127.126 66.5716 126.1C66.6654 126.657 66.7956 127.199 66.9258 127.741C68.8633 132.048 74.1914 133.241 76.1393 137.59C76.2747 137.861 75.7747 138.111 75.6393 137.84C74.1393 134.736 70.2747 133.21 67.8789 130.663C68.4466 132.142 69.2018 133.512 70.0612 134.756C70.5612 134.642 71.1654 134.85 71.3112 135.434C71.5195 136.215 70.8893 137.048 70.0924 137.085C69.8268 137.079 69.6081 136.97 69.4206 136.809C69.4466 136.887 69.5039 136.918 69.5299 136.996C71.0352 139.293 73.8216 140.272 75.6341 142.241C78.6185 145.496 79.9206 149.788 80.6341 154.048C80.6966 154.387 80.1549 154.381 80.1029 154.085C79.5352 150.944 78.6966 147.803 76.9987 145.074C75.5456 142.678 73.6549 141.407 71.3945 139.845C68.7799 138.006 67.4362 135.116 66.8789 132.022C66.306 130.814 65.8581 129.569 65.4206 128.23C65.3841 128.105 65.3581 128.027 65.3164 127.902C65.1081 128.777 64.8581 129.668 64.5924 130.517C64.7591 130.465 64.931 130.585 64.9466 130.762C64.9466 132.423 64.8372 134.032 65.7695 135.522C66.3477 136.46 67.2435 137.157 67.9258 138.012C68.9987 139.371 69.5924 140.793 69.7018 142.506C69.7227 142.861 69.2279 142.845 69.1758 142.543C68.806 139.34 66.4414 138.137 64.9622 135.652C64.4935 134.907 64.2852 134.121 64.2383 133.282C64.1133 133.324 64.0352 133.35 63.8997 133.35C63.2643 133.329 62.8737 132.824 62.7852 132.272C62.7331 131.975 62.9622 131.72 63.1966 131.6C63.4414 129.454 63.806 127.407 63.9727 125.288C63.1602 127.21 62.056 129.053 60.6237 130.46C60.6914 130.527 60.7174 130.611 60.7174 130.741C59.9049 134.6 57.8164 137.569 55.5456 140.684C55.3841 140.871 55.0872 140.652 55.2018 140.439C56.1133 138.975 57.0716 137.496 57.9779 135.991C58.6445 134.871 59.0612 133.663 59.4362 132.46C59.3945 132.475 59.3112 132.501 59.2591 132.475C58.9102 132.501 58.582 132.335 58.3685 132.09C57.3477 133.23 56.2747 134.34 55.2227 135.538C52.8945 138.178 52.2904 142.819 48.5924 144.022C48.3893 144.085 48.2852 143.762 48.4883 143.694C51.2643 142.704 51.6237 140.074 52.8268 137.84C53.4987 136.59 54.3893 135.449 55.3424 134.376C56.2956 133.303 57.207 132.241 58.1081 131.142C58.1758 130.939 58.3008 130.767 58.4883 130.657L58.5299 130.647C59.8685 128.954 61.1081 127.251 62.2331 125.314C62.2591 125.256 62.2747 125.163 62.3008 125.111C62.0404 125.418 61.7435 125.741 61.5091 125.996C60.8424 126.704 60.1914 127.324 59.4154 127.845C59.5768 127.793 59.7956 127.767 59.957 127.71C60.3372 127.637 60.5612 128.189 60.1549 128.319C56.6341 129.376 54.8633 131.793 52.1966 133.96C51.0977 134.855 50.0404 135.199 48.6393 134.892C48.3945 134.835 48.5039 134.486 48.707 134.553C51.5299 135.074 53.2383 131.777 55.0768 130.241C55.6445 129.788 56.1758 129.345 56.7747 128.97C56.707 128.902 56.6393 128.835 56.6133 128.756C56.2018 128.032 56.8112 127.298 57.582 127.449C57.7695 127.48 57.9049 127.616 57.9987 127.762C58.4466 127.35 58.9258 126.881 59.3581 126.423C58.957 126.423 58.5352 126.376 58.1862 126.267C58.2122 126.48 58.1549 126.725 57.8841 126.861C53.0039 129.387 47.3477 131.043 42.0299 130.574C41.8008 132.22 41.0039 133.642 40.1445 135.137C38.3893 138.038 37.6341 139.991 38.9049 143.35C39.6185 145.272 40.1966 147.059 39.4518 149.053C39.056 150.173 38.332 151.126 37.7539 152.121C39.2747 151.402 40.6185 150.564 41.8424 149.355C42.0039 149.168 42.3164 149.428 42.1497 149.616C40.8268 151.074 39.1289 152.345 37.2747 152.996C36.8372 153.855 36.5456 154.756 36.6185 155.809C36.6289 156.256 36.0091 156.277 35.957 155.845C35.6237 153.845 36.6706 152.381 37.6445 150.673C38.4935 149.142 39.0872 147.782 38.6237 145.954C38.2591 144.413 37.2591 143.121 36.931 141.564C35.9779 137.251 39.9727 134.335 40.7591 130.402C40.707 130.371 40.6654 130.387 40.6237 130.397C40.582 130.548 40.4466 130.678 40.2852 130.73C35.3685 132.329 33.6862 136.965 32.7174 141.585C31.7227 146.402 32.1966 151.454 35.4362 155.345C35.6602 155.626 35.2383 155.991 34.9831 155.756C30.7747 151.647 30.3372 145.861 31.5924 140.335C32.5716 136.157 34.4154 131.47 38.6185 129.881C38.0247 129.715 37.457 129.496 36.8789 129.236C33.4831 133.168 29.6081 136.715 25.3841 139.746C24.6341 140.892 24.0039 141.991 23.8164 143.355C23.6341 144.72 23.931 146.059 23.4622 147.376C23.3529 147.725 22.8685 147.616 22.9362 147.277C23.1654 145.631 22.8164 143.996 23.1914 142.392C23.3008 141.907 23.457 141.407 23.6602 140.934C19.1966 143.913 14.3424 146.387 9.27474 148.21C8.99349 148.303 8.89974 147.887 9.14453 147.803C12.8164 146.251 16.2852 144.496 19.6133 142.428C17.056 142.449 14.2122 141.85 12.2695 140.277C12.2539 140.241 12.2122 140.251 12.2018 140.215C11.7799 140.439 11.3893 140.611 11.0091 140.689C9.18619 141.012 6.63932 139.819 5.47786 138.444C5.24869 138.157 5.65494 137.756 5.93619 137.934C7.13411 138.715 8.58724 139.725 10.0039 139.939C10.5299 140.038 11.0664 139.907 11.5299 139.668L11.4779 139.637C9.93099 138.751 9.10807 136.637 8.66536 134.986C8.57161 134.699 9.01953 134.559 9.10807 134.84C9.39974 135.736 9.80078 136.548 10.3477 137.267C10.8268 137.918 11.457 138.48 11.8997 139.142C11.9779 139.251 11.9674 139.345 11.9102 139.454C12.0195 139.376 12.1706 139.277 12.2799 139.199C12.0664 138.684 12.3008 138.027 12.2227 137.512C12.1341 136.819 11.8945 136.225 11.6029 135.6C11.4987 135.413 11.7956 135.225 11.9674 135.35C12.5456 135.881 12.8633 136.585 12.9779 137.355C13.0456 137.694 13.0924 138.126 13.0508 138.543C13.8424 137.793 14.4831 136.866 14.9206 136.142C14.9466 136.09 15.0299 136.064 15.056 136.006C15.0039 135.98 15.0039 135.98 14.9466 135.954C12.5039 134.501 10.8685 132.652 10.457 129.866C10.0768 130.215 9.55078 130.522 9.07682 130.585C8.73828 130.652 8.39974 130.579 8.09244 130.454C7.67578 130.277 7.08203 129.704 6.55599 130.012C6.5664 130.46 6.16536 130.048 6.44661 129.824ZM3.90494 133.881C4.34244 134.819 4.83724 135.777 5.35286 136.689C5.47265 136.918 5.90495 136.73 5.8164 136.449C5.36328 135.34 4.87369 134.241 4.42578 133.131C4.10286 132.423 3.92057 131.585 4.69661 131.064C4.91536 130.902 5.11849 130.84 5.29036 130.694C5.35286 131.434 5.67578 132.142 5.97786 132.803C6.26953 133.428 6.5664 134.048 7.04557 134.569C7.1914 134.746 7.43619 134.527 7.38411 134.366C7.24349 133.652 6.85286 133.012 6.61849 132.282C6.36328 131.647 6.24869 131.012 5.91536 130.402C5.82161 130.251 5.68619 130.251 5.55599 130.246C5.51432 130.126 5.44661 130.059 5.31119 130.059C4.31119 130.022 3.32161 130.975 3.28515 131.97C3.23828 132.663 3.62369 133.298 3.90494 133.881ZM86.4206 176.996C88.0977 176.767 89.4622 177.085 90.957 177.678C89.155 175.168 87.7852 172.335 85.3424 170.34C82.6445 168.121 79.431 167.637 76.0664 167.923C76.332 168.736 76.4622 169.543 76.4154 170.366C80.3164 170.626 83.9622 172.319 86.9935 174.746C87.306 175.001 86.9102 175.444 86.5977 175.189C83.4987 172.96 80.0456 171.881 76.3268 171.34C76.1966 172.053 75.9779 172.756 75.6862 173.387C75.7018 173.428 75.7122 173.47 75.7279 173.512C75.7904 173.85 75.8841 174.131 75.9466 174.47C76.1237 174.46 76.2852 174.538 76.4362 174.715C79.0924 178.345 82.6497 177.548 86.4206 176.996ZM75.4622 167.85C75.4049 167.819 75.4049 167.819 75.3529 167.793C73.5247 168.657 71.6029 168.829 69.2331 167.897C66.7591 166.902 64.431 165.413 62.8164 163.335C59.9727 164.392 59.3477 166.48 57.6133 168.616C56.6341 169.876 55.2591 170.772 53.7852 171.34C53.9987 171.72 54.1029 172.178 54.1133 172.491C55.6133 171.017 57.6862 169.939 59.556 169.199C59.8008 169.116 59.957 169.47 59.7279 169.59C58.6289 170.215 57.5456 170.881 56.5247 171.616C55.7227 172.194 55.056 172.902 54.306 173.506C54.3477 173.626 54.3893 173.746 54.4258 173.871C54.4258 173.871 54.4258 173.871 54.4414 173.913C54.4414 173.777 54.457 173.684 54.6185 173.631C56.3424 172.71 58.0404 172.694 59.9883 172.741C63.2799 172.793 65.931 172.246 68.6758 170.324C68.931 170.147 69.2018 170.553 68.9414 170.73C67.2852 171.986 65.5091 172.876 63.4258 173.241C60.5039 173.782 57.7018 173.168 54.8685 174.267C54.7487 174.303 54.5977 174.262 54.5299 174.194C54.5456 174.236 54.5456 174.236 54.556 174.277C54.8372 174.861 55.1185 175.444 55.2747 176.064C58.1602 174.725 61.9987 176.439 64.8945 177.069C71.556 178.501 76.3008 174.579 75.4622 167.85ZM55.7383 178.605C60.0456 179.142 64.2331 180.97 68.1602 182.97C67.1237 182.407 66.0768 181.809 65.0404 181.246C62.0508 179.657 59.0977 178.012 55.7383 178.605ZM65.8477 183.048C66.6445 183.282 67.4102 183.574 68.207 183.809C64.181 182.064 60.181 180.397 55.8164 179.392C58.4727 181.355 63.0352 182.121 65.8477 183.048ZM53.332 179.48C53.3008 179.397 53.2643 179.277 53.2383 179.194C53.1029 178.788 53.4049 178.47 53.7695 178.35C53.7747 178.215 53.8529 178.053 54.0195 178.001C54.1654 177.907 54.2904 177.866 54.4518 177.814C54.4362 177.772 54.4258 177.736 54.4362 177.642C54.6497 176.626 54.3841 175.949 53.957 175.189C53.7695 175.298 53.5664 175.361 53.3477 175.387C52.8737 175.454 52.4414 175.501 52.0508 175.538C52.4414 175.772 52.6914 176.142 52.8112 176.642C52.8893 177.022 52.832 177.397 52.7383 177.788C52.8424 177.975 52.7747 178.178 52.6393 178.314L52.6497 178.355C52.5091 179.163 52.7331 179.855 52.957 180.543C53.0143 180.439 53.056 180.288 53.1341 180.126C53.1237 179.949 53.2227 179.694 53.332 179.48ZM56.3216 203.069C56.5352 203.585 56.707 204.111 56.9154 204.626L56.9727 204.657C58.4779 205.559 59.5977 206.944 61.1445 207.835C62.9049 208.835 64.5404 209.022 66.5091 209.282C66.8893 209.335 66.7904 209.866 66.4362 209.887C64.5299 210.1 62.5924 209.657 60.9206 208.803C59.8477 208.256 58.6081 207.491 57.5924 206.564C57.8008 207.215 58.0508 207.85 58.2643 208.501C63.1497 210.684 67.5143 213.756 72.7852 211.329C69.0924 210.73 68.0247 205.376 63.8945 205.506C63.6758 205.532 63.5404 205.397 63.4466 205.246C61.5456 206.715 58.4935 204.923 56.3216 203.069ZM61.2018 216.032C61.1602 216.043 61.1602 216.043 61.1237 216.059C61.1758 216.085 61.2279 216.111 61.2852 216.142C62.4362 217.204 63.6081 217.496 65.0404 218.017C66.3581 218.491 67.582 219.079 68.806 219.803C69.1289 219.97 68.8945 220.496 68.556 220.288C66.9049 219.48 65.1654 218.829 63.3216 218.397C63.0768 218.345 62.832 218.288 62.5768 218.189C66.4883 220.824 71.7539 224.189 76.2487 223.09C74.2643 222.793 72.7904 221.157 71.3424 219.746C68.3529 216.762 65.5924 214.47 61.2018 216.032ZM66.8945 229.543C66.8529 229.553 66.8529 229.553 66.8945 229.543C67.9831 229.996 69.0299 230.6 70.1497 230.996C71.5612 231.48 73.0456 231.762 74.5195 232.001C74.9883 232.074 74.931 232.855 74.431 232.84C72.8216 232.736 71.2331 232.397 69.6706 231.871C68.8633 231.595 67.957 231.303 67.1654 230.934C67.181 230.975 67.1914 231.017 67.2487 231.043C70.8112 234.288 75.6393 235.189 80.2643 234.491C79.1445 234.09 78.2904 233.246 77.2018 232.256C74.3997 229.569 70.7174 227.085 66.8945 229.543ZM72.6393 238.944C72.6549 238.986 72.6549 238.986 72.6654 239.027C74.6654 240.35 76.3268 242.282 77.431 244.439C77.5924 244.788 77.1185 245.126 76.9154 244.782C75.8789 242.835 74.5664 241.282 72.8737 239.944C73.5456 242.423 74.9049 244.538 76.7279 246.418C77.6654 247.371 78.6602 248.215 79.556 249.184C79.0716 247.272 78.6289 245.35 77.8581 243.538C76.8112 241.001 74.832 240.027 72.6393 238.944ZM65.3789 231.512C65.2487 232.366 65.1341 233.256 64.9518 234.074C64.6602 235.387 64.082 236.788 64.3008 238.152C64.3529 238.449 63.8789 238.512 63.7852 238.225C63.5091 237.105 63.8424 236.053 64.0664 234.949C64.4049 233.355 64.6081 231.767 64.7122 230.157C64.7435 229.97 64.8372 229.85 64.9206 229.824C64.9206 229.824 64.9206 229.824 64.9049 229.782C64.8424 229.579 64.9206 229.418 65.0299 229.335C64.9518 229.23 64.9258 229.147 64.8424 229.038C63.1497 231.428 61.7435 233.73 61.3164 236.694C60.8424 239.949 61.7487 243.022 62.4414 246.116C63.6862 244.006 65.2383 242.288 65.8685 239.798C66.6029 236.954 66.0352 234.22 65.3789 231.512ZM59.6654 217.381C59.6133 217.22 59.5612 217.059 59.4674 216.907C59.2174 217.663 58.8372 218.418 58.5872 219.038C57.7591 221.059 56.681 222.845 55.4102 224.605C55.2591 224.835 54.9102 224.585 55.0612 224.361C55.9258 222.866 56.7174 221.303 57.4206 219.73C58.0924 218.21 58.4049 216.673 58.8477 215.137C58.7539 214.85 58.6602 214.569 58.5299 214.298C56.0091 217.314 53.8789 220.163 53.832 224.309C53.8008 226.564 54.3945 228.793 53.2852 230.637C55.6706 229.277 56.681 226.303 57.7643 223.84C58.6341 221.668 59.2591 219.585 59.6654 217.381ZM49.8112 183.991C49.306 186.579 48.1237 189.027 47.431 191.59C46.8008 193.949 46.1758 196.303 45.5091 198.678C47.7904 193.944 50.3789 189.329 49.8112 183.991ZM45.4622 192.855C45.0508 195.595 44.9049 198.335 44.3581 201.074C45.1133 197.866 45.9466 194.631 46.7956 191.434C47.5612 188.538 48.9466 185.616 49.3372 182.663C49.3633 182.475 49.4727 182.397 49.6081 182.397C49.6237 182.168 49.7435 181.991 49.9362 181.887C49.7591 181.897 49.5977 181.814 49.6133 181.585C49.4258 179.762 46.9987 179.335 46.9987 177.407C46.957 175.756 48.3737 174.444 48.4779 172.84C48.1706 172.85 47.8164 172.876 47.5352 172.965C46.8841 173.178 46.5247 173.741 45.931 173.98L45.8893 173.996C45.9049 174.032 45.9154 174.074 45.9727 174.105C46.0664 174.251 45.957 174.465 45.8581 174.59C45.9258 174.657 46.0352 174.71 46.1029 174.777C46.2904 174.944 46.0716 175.236 45.8529 175.126C42.681 173.241 39.7695 172.704 36.1237 172.538C33.8581 172.47 32.6185 171.569 30.8581 170.704C34.9466 174.72 39.9102 175.621 45.6758 175.548C46.1237 175.532 46.306 176.241 45.806 176.355C45.7643 176.371 45.7227 176.381 45.7227 176.381C45.7383 176.559 45.6654 176.762 45.4518 176.923C45.2747 177.069 45.1237 177.163 44.9362 177.267C45.0508 177.631 45.2279 177.892 45.4674 178.085C45.7227 178.043 45.9414 178.017 46.2122 178.022C46.4831 178.022 46.6133 178.428 46.2852 178.532C46.2487 178.548 46.207 178.559 46.1237 178.585C46.2331 178.642 46.3112 178.751 46.3789 178.819C46.681 178.767 46.9154 179.095 46.7799 179.361C47.1966 180.079 47.2799 180.907 48.0612 181.371C48.3581 181.319 48.6289 181.454 48.707 181.699C49.0456 181.767 49.3529 182.163 49.2018 182.527C47.4883 185.96 45.9883 189.095 45.4622 192.855ZM29.5716 169.506C29.6497 169.616 29.7852 169.751 29.9049 169.845C29.9049 169.845 29.9466 169.829 29.9622 169.871C30.1081 169.913 30.2174 169.97 30.3216 170.022C30.0404 169.845 29.8112 169.694 29.5716 169.506ZM35.7695 171.173C34.3372 171.053 32.5299 170.876 31.0508 170.324C31.9779 170.835 32.7852 171.517 33.8216 171.809C35.4935 172.251 37.3164 171.928 39.0456 172.131C41.1341 172.35 43.1445 173.001 44.8893 174.095C43.5404 172.559 42.5352 171.267 40.1081 171.111C38.6862 171.032 37.2435 171.277 35.7695 171.173ZM40.5247 166.173C42.2643 168.35 43.9987 170.522 45.6289 172.777C45.9831 172.345 46.556 172.027 47.0404 171.866C47.0404 171.866 47.0404 171.866 47.082 171.855C46.332 170.934 45.9779 169.699 45.6081 168.564C44.9102 166.407 44.2122 164.256 43.5664 162.131C43.4727 161.845 43.9206 161.704 44.0143 161.986C45.2174 165.277 46.0404 168.782 47.8529 171.741C48.3008 171.73 48.7591 171.762 49.2174 171.793C48.1914 170.017 47.7591 167.866 47.3841 165.876C47.3477 165.616 47.7122 165.501 47.7904 165.746C48.2487 167.84 49.1393 169.751 49.9049 171.704C50.2852 171.621 50.6654 171.413 50.9935 171.032L50.9779 170.996C50.9049 168.413 50.5872 165.506 51.2956 162.986C51.7852 161.303 52.7383 159.96 52.5924 158.121C52.4518 156.73 51.9362 155.418 51.3372 154.131C49.8164 155.387 48.0924 156.574 46.2747 157.345C46.5352 158.564 46.8685 159.715 47.207 160.902C47.2852 161.147 46.9362 161.309 46.8164 161.074C46.2435 160.006 45.8477 158.788 45.5977 157.611C42.957 158.6 40.2018 158.824 37.6029 157.6C36.2956 161.038 38.5404 163.673 40.5247 166.173ZM51.7383 177.35C51.7695 176.751 51.5977 176.225 50.8997 176.137L50.8424 176.111C49.9049 176.819 48.9727 177.126 47.9258 176.522C47.6185 177.652 48.1133 178.345 48.7435 179.038C48.8216 179.012 48.8633 179.001 48.957 179.012C49.7122 179.126 50.2539 178.861 50.6393 178.246C50.8268 178.001 50.9674 177.736 51.2122 177.517C51.3633 177.423 51.5664 177.361 51.7383 177.35ZM51.7747 181.6C51.8581 181.439 52.0352 181.293 52.2227 181.319C51.7695 180.751 51.5716 180.006 51.5091 179.262C51.4831 179.048 51.5404 178.803 51.556 178.574C51.1862 178.829 50.7122 179.298 50.4831 179.418C50.1029 179.631 49.707 179.668 49.306 179.663C49.7331 180.157 50.1341 180.699 50.2227 181.387C50.306 181.361 50.3997 181.376 50.4935 181.392C50.9779 181.637 51.3945 181.678 51.7747 181.6ZM52.306 168.991C52.3164 169.168 52.1654 169.262 52.0456 169.303C52.0143 169.897 51.9935 170.527 51.9258 171.137C51.8945 171.324 51.7591 171.46 51.582 171.47C51.306 172.277 50.5195 172.626 49.6706 172.767C49.6289 172.782 49.6289 172.782 49.5872 172.793C49.431 174.1 48.5977 174.866 48.1029 175.97C49.5977 176.694 49.9987 175.444 51.0039 174.803C51.7227 174.387 52.5977 174.6 53.3424 174.267C53.332 174.225 53.3164 174.189 53.306 174.147C53.181 174.048 53.1185 173.845 53.2122 173.725C53.1237 173.038 53.2956 172.173 52.8789 171.725C52.8372 171.741 52.7852 171.71 52.7852 171.71C52.7435 171.725 52.7174 171.777 52.6758 171.793C52.1445 172.1 51.6237 171.324 52.1393 170.975C52.4362 170.788 52.6966 170.616 52.957 170.444C54.6758 167.996 55.0091 164.746 55.7904 161.887C56.3737 159.678 56.9727 157.376 57.7591 155.236C57.7747 154.866 57.832 154.491 57.8997 154.152C55.2852 158.819 52.1862 163.236 52.306 168.991ZM57.5456 158.444C56.9206 160.397 56.2695 162.407 55.7435 164.371C55.2695 166.1 54.8685 167.756 54.1133 169.303C56.6445 166.595 57.3789 162.631 57.556 158.892C57.5039 158.73 57.5456 158.579 57.5456 158.444ZM75.1393 167.277L75.181 167.267C75.1654 167.225 75.207 167.21 75.1966 167.173C75.207 167.21 75.1654 167.225 75.1393 167.277ZM88.0508 188.501C89.7122 190.163 90.9362 192.413 91.8633 194.444C91.9987 194.715 91.5664 194.902 91.405 194.684C90.3529 192.96 89.1914 191.048 87.7852 189.621C86.2435 188.053 84.556 187.704 82.5872 187.309C83.7174 191.345 85.4466 194.736 89.3372 196.746C91.2331 197.751 93.2539 198.168 94.905 199.387C93.6341 196.569 92.4258 193.543 90.7591 191.032C89.9987 189.798 89.0716 189.022 88.0508 188.501ZM51.4674 207.204C51.5404 206.465 51.5872 205.637 51.6862 204.845C50.0612 207.439 48.9362 210.048 48.8268 213.178C48.8372 213.491 48.3529 213.517 48.3424 213.204C48.3268 210.246 49.0247 207.147 50.6914 204.673C48.8529 206.35 47.3268 208.282 46.306 210.678C45.2487 213.22 45.3372 216.111 44.1549 218.559C46.8581 217.907 48.4258 216.637 49.5091 213.902C50.4622 211.71 51.1914 209.538 51.4674 207.204ZM51.7643 204.1C51.7643 203.965 51.806 203.819 51.8164 203.725C51.707 203.803 51.6029 203.887 51.5352 203.949C51.5872 203.98 51.6966 204.032 51.7643 204.1ZM92.181 178.137C92.3841 178.47 91.9883 178.782 91.707 178.6C91.6654 178.616 91.582 178.642 91.53 178.616C88.03 177.506 85.0716 179.053 81.5872 178.835C79.8477 178.725 78.1758 178.147 76.931 177.069C78.1862 180.256 80.056 183.241 81.681 186.168C81.7643 186.006 81.9362 185.861 82.1549 185.835C90.7122 184.809 93.3425 193.876 95.8581 200.111C95.9779 200.204 96.0716 200.355 96.207 200.491C96.5039 200.84 95.931 201.298 95.6081 200.996C93.1602 198.293 88.7435 198.246 85.9518 195.736C83.6081 193.626 81.6862 190.475 81.5872 187.277C81.5924 187.142 81.6445 187.032 81.7018 186.923C81.6862 186.887 81.6758 186.845 81.6602 186.803C81.6497 186.762 81.6341 186.72 81.6185 186.684C81.5404 186.71 81.4883 186.684 81.4049 186.574C79.8008 184.262 78.4049 181.756 77.0612 179.272C76.2852 177.861 75.3008 176.34 74.9622 174.746C73.9779 176.142 72.6341 177.251 71.0456 177.902C68.7435 178.829 66.3164 178.543 63.957 178.048C62.6081 177.772 61.2747 177.392 59.9414 177.152C58.4154 176.887 56.9518 177.09 55.4831 176.986C55.4414 177.131 55.4414 177.267 55.3997 177.418C57.8737 176.746 60.3112 177.48 62.6393 178.699C66.9466 180.897 71.2904 183.345 75.332 185.986C75.6133 186.163 75.3945 186.595 75.1133 186.418L75.0612 186.387C74.9935 186.454 74.9102 186.48 74.7747 186.48C70.4466 185.595 66.207 184.147 62.0716 182.751C59.9414 182.001 57.3945 181.486 55.5247 180.157C59.0977 184.928 66.5508 186.324 70.2539 191.09C71.5664 192.777 72.3737 195.116 71.8164 197.272C71.0924 200.022 68.3737 200.637 66.5872 202.475C66.3581 202.73 65.9258 202.376 66.1602 202.121C66.3789 201.824 66.6237 201.611 66.8945 201.34C63.8424 199.684 61.431 197.1 59.8737 193.965C59.7174 193.616 60.2331 193.267 60.3893 193.621C61.8945 196.725 64.2279 199.064 67.2539 200.642C67.3581 200.699 67.4258 200.767 67.4518 200.845C67.8893 200.527 68.3737 200.23 68.8945 199.887C70.806 198.59 71.7695 196.574 71.1497 194.256C70.207 190.793 66.8581 189.053 64.0299 187.407C60.9935 185.657 56.0768 183.798 54.0352 180.553C54.0091 180.605 53.9831 180.663 53.957 180.715C53.707 181.199 53.4518 181.642 52.9987 181.923C52.9622 181.934 52.9206 181.949 52.8529 182.017C53.8216 184.032 54.7122 186.085 55.681 188.1C55.8112 188.371 55.3112 188.626 55.181 188.355C54.1706 186.345 53.1185 184.355 52.0924 182.309C51.8789 182.329 51.6602 182.355 51.4831 182.371C52.5352 186.428 51.8112 190.84 53.0195 194.98C53.931 198.053 60.2591 209.111 64.3008 203.309C64.4935 203.064 64.8008 203.324 64.7018 203.579C64.6081 203.835 64.4987 204.053 64.3477 204.282C68.6445 203.829 69.9883 210.173 74.0872 210.637C74.181 210.647 74.2383 210.678 74.2539 210.72C74.5456 210.803 74.6914 211.246 74.3945 211.434C69.0716 214.689 63.957 213.027 59.0768 210.303C59.6966 212.079 60.2643 213.824 60.8841 215.595C60.8997 215.501 60.9258 215.449 60.9518 215.392C62.5872 213.517 65.3841 213.824 67.4518 214.814C71.0716 216.553 73.3216 222.512 77.6445 222.413C77.957 222.402 78.0456 222.684 77.9362 222.902C77.9362 222.902 77.9518 222.944 77.9102 222.954C76.1081 225.288 72.1914 223.866 69.9154 223.079C67.1289 222.1 64.5143 220.704 62.0716 219.116C63.3164 222.532 64.707 225.85 66.3268 229.048C66.3581 228.996 66.3841 228.944 66.4102 228.887C68.1133 227.215 70.5456 226.965 72.7695 227.72C76.3633 228.98 78.6341 233.897 82.457 234.048L82.4935 234.038C83.1602 233.866 83.4883 234.881 82.8268 235.053C77.5352 236.324 72.1966 235.361 67.9674 232.022C69.2591 234.204 70.7591 236.324 72.4414 238.335C74.3008 238.944 76.2383 239.798 77.457 241.335C79.3268 243.642 79.7591 247.319 80.5768 250.105C80.6029 250.189 80.5872 250.282 80.5612 250.335C80.681 250.569 80.3841 250.751 80.2227 250.538C80.0872 250.538 79.9779 250.48 79.9258 250.319C79.9102 250.277 79.8841 250.199 79.8737 250.157C78.457 248.418 76.4362 247.184 74.9414 245.47C73.3477 243.611 72.3477 241.642 71.8841 239.236C71.8424 239.116 71.9102 239.048 71.9258 238.954C69.957 236.762 68.207 234.413 66.6862 231.944C67.2227 234.282 67.2539 236.741 66.806 239.09C66.2018 242.34 64.2539 244.225 62.6758 246.986C62.6393 247.267 62.1758 247.371 62.0299 247.059C59.431 240.855 58.9414 232.84 64.3008 227.913C62.8633 225.147 61.5716 222.288 60.3945 219.35C59.8112 221.559 58.8372 223.673 57.8477 225.741C56.681 228.1 55.3841 231.303 52.4674 231.574C52.4258 231.59 52.3997 231.642 52.3581 231.657C52.1549 231.855 51.832 231.694 51.7643 231.491C51.6706 231.34 51.6602 231.163 51.8633 231.1C51.9049 231.085 51.9049 231.085 51.9466 231.074C53.8216 228.98 52.6966 226.34 52.7018 223.866C52.6966 222.475 52.9258 221.1 53.3424 219.751C54.1549 217.288 55.7174 214.626 57.9727 213.267C58.0091 213.251 58.0508 213.241 58.0924 213.225C56.6237 209.121 55.2799 204.98 53.8268 200.918C51.3685 207.595 52.7331 218.288 43.6237 219.272C43.2695 219.298 43.181 218.741 43.5195 218.678C44.4102 216.861 44.2539 214.845 44.6966 212.907C45.0039 211.501 45.5143 210.173 46.1341 208.892C47.4622 206.215 49.457 203.772 51.9362 202.157C51.9779 202.142 52.0195 202.131 52.0612 202.116C52.2956 201.189 52.6966 200.34 53.3633 199.631C53.3372 199.548 53.3112 199.465 53.2852 199.387C52.056 197.272 51.2799 194.871 50.8112 192.465C50.6445 191.668 50.4883 190.777 50.3737 189.871C48.957 194.642 45.8164 199.074 43.9206 203.595C43.7956 203.902 43.3112 203.657 43.4362 203.345C43.4779 203.199 43.5299 203.09 43.6133 202.934C43.6029 202.892 43.5872 202.85 43.5612 202.767C44.5508 197.105 44.0039 190.861 46.2174 185.517C45.2747 187.032 44.332 188.553 43.1602 189.923C41.2122 192.215 38.1081 193.449 35.2435 194.157C30.0872 195.423 26.4206 190.777 26.7174 185.876C26.7174 185.611 27.1237 185.611 27.1185 185.881C27.056 189.137 29.3841 193.407 33.0456 193.34C35.2852 193.329 38.6237 191.845 40.3841 190.642C43.4674 188.517 44.2591 184.314 47.0872 182.09C46.5456 181.684 46.2122 181.074 45.8581 180.381C45.8424 180.34 45.8424 180.34 45.7904 180.314C44.1706 181.824 43.3424 183.98 41.7487 185.574C40.3633 186.97 38.7227 187.861 36.8372 188.428C36.5977 188.506 36.4883 188.184 36.7174 188.064C39.4414 187.043 41.5195 185.293 42.9987 182.788C43.7279 181.569 44.3008 180.574 45.2904 179.756C45.1029 179.59 44.8893 179.48 44.6602 179.335C41.9206 180.85 40.0091 183.939 36.6289 184.048C36.3581 184.048 36.3789 183.684 36.5924 183.657C39.8372 183.413 41.3581 179.954 43.9935 178.652C43.832 178.434 43.7383 178.152 43.6445 177.866C41.6029 178.486 39.3112 178.064 37.1706 178.397C33.3633 178.96 28.8372 180.788 27.4935 184.684C27.3841 185.032 26.8164 184.944 26.9154 184.559C27.6289 181.631 30.0977 179.84 32.6497 178.564C34.0456 177.887 35.4779 177.329 37.0091 177.059C38.7122 176.772 40.3841 176.949 42.0352 176.772C37.0768 176.449 32.1081 173.444 29.1237 169.788C28.9622 169.569 29.2643 169.381 29.4362 169.501C29.3424 169.355 29.5456 169.152 29.707 169.236C33.2852 171.262 37.1706 169.954 40.9622 170.434C41.707 170.501 42.3789 170.777 42.9831 171.121C41.0456 168.746 39.0768 166.282 37.6133 163.704C36.4779 161.741 35.957 159.574 37.1341 157.532C36.8633 157.392 36.582 157.215 36.3008 157.038C36.0716 156.887 36.3581 156.527 36.5716 156.631C43.1341 160.657 50.6341 154.178 54.2695 148.913C56.1289 146.199 57.3372 143.293 58.2122 140.178C58.8372 137.954 59.3841 135.621 60.6914 133.715C61.0612 133.189 62.0299 133.684 61.8216 134.288C59.5143 141.147 57.9206 147.996 52.5195 153.204C52.2747 153.423 52.0456 153.673 51.7591 153.902C52.8529 156.017 53.8581 158.163 53.3164 160.491C54.9466 157.09 56.8529 153.548 59.0508 150.501C59.1081 150.397 59.2435 150.397 59.306 150.465C59.5247 150.439 59.7279 150.642 59.6289 150.897C59.2331 151.746 58.9414 152.647 58.707 153.579C58.8112 153.631 58.8893 153.741 58.8477 153.892C58.6706 154.579 58.4727 155.225 58.2956 155.913C57.7018 160.595 58.0404 165.782 55.3112 169.407C55.8008 169.116 56.2383 168.793 56.6289 168.35C57.3008 167.642 57.7904 166.809 58.3529 166.043C59.431 164.522 60.6549 163.454 62.4154 162.928C62.0924 162.491 61.7956 162.001 61.5977 161.527C59.8164 157.84 59.5143 153.314 59.8737 149.293C60.2279 145.137 62.4362 141.006 61.8737 136.788C61.7956 136.142 62.8945 135.918 63.0195 136.595C63.5664 139.246 62.7695 141.616 62.0716 144.178C61.1549 147.574 60.7643 151.069 61.0612 154.611C61.457 159.017 62.6966 162.97 66.5768 165.522C67.9466 166.428 69.6185 167.413 71.181 167.803C72.5977 168.152 73.8372 167.97 74.9362 167.48C74.8581 167.506 74.7487 167.454 74.6654 167.345C72.9414 165.21 72.0977 162.611 71.306 160.038C71.2174 159.751 71.6237 159.621 71.7122 159.907C72.6237 162.439 73.5404 164.835 75.1445 167.006C75.2122 167.079 75.1966 167.173 75.207 167.21C75.2487 167.064 75.3581 166.986 75.5195 166.928C75.7227 166.866 75.8997 166.855 76.1029 166.788C76.2539 166.694 76.4414 166.585 76.582 166.454C75.9622 165.798 75.6602 164.73 75.4622 163.986C75.4258 163.73 75.7487 163.626 75.8268 163.866C76.0143 164.439 76.2799 164.98 76.6133 165.454C76.7747 165.673 76.9206 165.85 77.1237 166.053C77.3685 165.835 77.6654 165.652 77.9102 165.434C78.2383 165.199 78.5299 165.684 78.2591 165.954C78.0143 166.168 77.7122 166.355 77.4674 166.569L77.4831 166.605C84.4674 166.001 89.1185 172.439 92.181 178.137ZM88.7279 42.0845C90.2018 43.0429 91.3581 44.371 91.6914 46.2408C91.806 46.8762 91.8581 47.5793 91.8945 48.2408C93.0352 43.7408 94.082 39.22 93.1602 34.4491C93.1081 34.1523 93.5404 33.9648 93.6497 34.2877C94.7591 37.4335 94.4102 40.7773 93.7487 44.0012C93.2122 46.7773 92.6497 49.6106 91.957 52.4387C93.2591 49.6835 94.8581 47.0064 96.5143 44.6314C96.4466 44.5585 96.405 44.4387 96.4206 44.345C96.7904 42.1627 97.4883 40.3137 97.5091 38.022C97.5247 35.996 97.2591 33.9283 96.681 32.0012C95.8633 29.3502 94.1654 27.0273 94.1706 24.2877C91.0508 29.8814 87.2279 35.3866 88.7279 42.0845ZM108.03 31.147C108.988 29.397 109.54 27.5116 110.488 25.7252C111.733 23.3398 113.374 21.1939 115.025 19.0845C115.186 18.897 115.535 19.147 115.426 19.3606C113.676 21.996 111.941 24.6679 110.743 27.6158C110.15 29.1106 109.733 30.7252 108.884 32.1262C112.681 29.9908 115.098 26.9179 116.629 22.5168C117.848 19.0689 119.743 16.4752 122.249 13.9543C118.009 15.0168 114.363 17.1887 111.702 20.8814C109.296 24.1314 108.733 27.5064 108.03 31.147ZM109.884 38.9387C110.941 38.4595 112.092 38.1314 113.27 37.8866C116.775 37.1939 120.379 36.8345 123.936 36.3085C124.275 36.2408 124.379 36.8345 124.04 36.9023C118.915 37.9804 112.618 38.3658 108.311 41.5585C110.884 40.772 113.478 40.871 116.285 41.0845C121.452 41.5116 125.009 39.0585 127.879 35.1627C123.999 35.3866 120.629 32.7564 116.598 34.022C113.697 34.9179 111.66 36.7929 109.884 38.9387ZM107.624 41.7877C107.66 41.772 107.702 41.7564 107.743 41.746L107.691 41.7148C107.65 41.7304 107.624 41.7877 107.624 41.7877ZM82.0716 39.9804C83.7435 40.1523 85.7122 40.5481 87.4206 41.3866C85.8112 34.9023 91.0091 27.8241 94.2487 22.7356C94.457 22.397 94.9831 22.6314 94.8685 22.9804C94.9362 23.0481 95.0195 23.1575 94.9779 23.3085C94.4206 27.2564 97.7331 31.3918 98.4206 35.2981C98.7852 37.3814 98.8841 39.9075 98.3008 42.1158C100.686 38.9648 103.441 35.9595 106.473 33.5377C106.431 33.4179 106.473 33.2668 106.634 33.2148C106.66 33.1627 106.676 33.0637 106.743 33.0012C106.785 32.9856 106.77 32.9439 106.77 32.9439C105.441 23.4543 114.259 12.8658 123.796 12.647C124.421 12.621 124.441 13.5116 123.842 13.6158C123.806 13.6314 123.764 13.6418 123.681 13.6731C123.655 13.7252 123.639 13.8189 123.572 13.8866C121.65 15.8554 119.681 17.7981 118.374 20.2877C117.264 22.397 116.79 24.7981 115.53 26.871C113.764 29.7304 111.113 32.0741 108.009 33.3085C107.848 33.496 107.645 33.6939 107.426 33.8554C107.249 34.0012 107.061 33.9752 106.952 33.9179C103.389 37.4595 100.134 40.9856 97.3737 45.2043C98.8945 43.9439 100.603 42.9856 102.457 42.746C103.525 42.5793 104.629 42.5325 105.738 42.621C105.728 42.5793 105.764 42.5689 105.754 42.5273C108.077 38.7616 111.108 34.9491 115.342 33.3502C117.296 32.5793 119.322 32.4648 121.332 32.9804C123.728 33.5898 125.9 34.1887 128.368 34.6002C128.514 34.5064 128.759 34.6991 128.728 34.8866C128.191 38.2043 124.54 40.7825 121.639 41.9491C119.77 42.6887 117.931 42.7043 115.978 42.4856C113.197 42.22 110.884 42.2981 108.353 42.9387C110.363 43.3189 112.264 44.0481 113.863 45.1002C114.145 45.2773 113.926 45.7095 113.613 45.5845C110.254 44.0741 105.275 43.1314 101.66 44.3033C98.3685 45.371 94.8685 49.1106 94.0195 52.4439C93.4518 54.6939 93.2591 56.595 91.9206 58.5585C89.7904 61.8085 90.0091 64.4335 89.957 68.1314C89.9518 68.6679 89.155 68.8398 88.9831 68.3137C88.2331 65.595 88.2122 62.772 89.2747 60.2252C89.4466 57.0273 90.431 53.97 90.78 50.7564C91.0716 47.9231 90.8737 45.3814 88.6029 43.647C88.431 43.6627 88.1862 43.6054 88.1081 43.3606C88.0977 43.3241 88.082 43.2825 88.0664 43.2408C88.0143 43.2148 87.9466 43.147 87.8945 43.1158C86.0768 42.0898 83.8424 41.6939 81.7643 41.5168C80.8164 41.3762 81.0977 39.8918 82.0716 39.9804ZM70.6706 113.548C72.8893 111.256 75.681 109.767 77.6081 107.121C79.7904 104.168 81.1966 100.34 80.9414 96.6523C80.9154 96.5689 81.0508 96.5741 81.0352 96.6679C81.3893 100.371 80.832 103.647 78.8633 106.845C77.1393 109.694 74.2799 113.048 71.082 114.267C70.7279 114.423 70.3685 113.871 70.6706 113.548Z" fill="#FFF0DD"/>
</g>
</g>
</g>
</g>
</g>
</g>
</svg>
