<svg width="169" height="206" viewBox="0 0 169 206" fill="none" xmlns="http://www.w3.org/2000/svg">
<mask id="mask0_2305_697" style="mask-type:luminance" maskUnits="userSpaceOnUse" x="0" y="0" width="169" height="206">
<path d="M169 0H0V206H169V0Z" fill="black" fill-opacity="0.81"/>
</mask>
<g mask="url(#mask0_2305_697)">
<mask id="mask1_2305_697" style="mask-type:luminance" maskUnits="userSpaceOnUse" x="-22" y="-19" width="208" height="234">
<path d="M185.335 -19H-21.332V214.333H185.335V-19Z" fill="white"/>
</mask>
<g mask="url(#mask1_2305_697)">
<mask id="mask2_2305_697" style="mask-type:luminance" maskUnits="userSpaceOnUse" x="0" y="5" width="167" height="198">
<path d="M0 5H166.667V202.333H0V5Z" fill="white"/>
</mask>
<g mask="url(#mask2_2305_697)">
<mask id="mask3_2305_697" style="mask-type:luminance" maskUnits="userSpaceOnUse" x="-21" y="-19" width="207" height="233">
<path d="M-20.3398 158.412L53.5352 -18.7285L185.467 36.2975L111.592 213.433L-20.3398 158.412Z" fill="white"/>
</mask>
<g mask="url(#mask3_2305_697)">
<mask id="mask4_2305_697" style="mask-type:luminance" maskUnits="userSpaceOnUse" x="-21" y="-19" width="207" height="233">
<path d="M-20.3398 158.412L53.5352 -18.7285L185.467 36.2975L111.592 213.433L-20.3398 158.412Z" fill="white"/>
</mask>
<g mask="url(#mask4_2305_697)">
<mask id="mask5_2305_697" style="mask-type:luminance" maskUnits="userSpaceOnUse" x="-21" y="-19" width="207" height="233">
<path d="M-20.2656 158.245L53.5833 -18.8281L185.078 36.0104L111.229 213.083L-20.2656 158.245Z" fill="white"/>
</mask>
<g mask="url(#mask5_2305_697)">
<path d="M110.193 111.223C109.818 109.458 109.62 107.645 109.105 105.921C109.063 105.718 108.792 105.854 108.792 106.005C108.834 108.708 109.527 111.494 110.1 114.114C110.412 115.51 110.553 117.541 112.047 118.104C112.334 118.223 112.6 117.807 112.344 117.609C110.735 116.291 110.579 113.109 110.193 111.223ZM132.318 94.0619C132.146 94.1765 132.115 94.4734 132.24 94.6192C132.407 94.8119 132.501 94.8796 132.74 94.8275C133.042 94.7702 133.068 94.4109 132.813 94.2702C134.037 94.9682 136.943 93.6192 138.271 93.4005C140.615 92.9577 142.834 92.9577 145.11 93.7234C145.355 93.7963 145.49 93.4786 145.261 93.3536C143.157 92.2598 140.844 92.2546 138.547 92.588C136.74 92.8536 133.844 93.0671 132.318 94.0619ZM139.438 86.0827C137.245 84.3952 134.506 83.5619 131.73 83.4838C128.547 83.4213 125.49 85.2025 122.355 84.5098C122.042 84.4421 121.922 84.9473 122.225 85.0411C124.516 85.6921 126.454 84.9577 128.766 84.5932C132.532 84.0046 135.74 85.0359 139.006 86.8275C139.459 87.0775 139.808 86.39 139.438 86.0827ZM100.657 81.265C96.3912 80.6244 91.9954 81.4734 87.86 82.4369C87.2402 82.5775 87.3704 83.5307 87.9746 83.4109C93.2975 82.4213 98.7037 81.2182 103.98 83.14C107.459 84.4109 110.433 86.39 114.219 85.2234C114.506 85.1244 114.381 84.6088 114.068 84.6973C109.355 85.9369 105.251 81.9421 100.657 81.265ZM125.251 26.6609C120.725 28.4161 116.402 31.0879 113.193 34.7754C113.006 35.0046 113.324 35.3588 113.563 35.1504C117.256 31.9942 121.068 29.3588 125.636 27.5932C126.23 27.3484 125.86 26.4525 125.251 26.6609ZM76.9068 25.015C76.8704 24.8119 76.5683 24.7182 76.4641 24.89C75.8496 25.7754 75.8652 27.0775 75.8443 28.0879C75.8235 29.3119 75.9798 30.489 76.2454 31.7077C76.2818 31.9109 76.5735 31.8796 76.5735 31.6609C76.4277 30.4577 76.4277 29.1973 76.5631 27.9838C76.636 26.9994 77.0371 25.9629 76.9068 25.015ZM149.891 22.7754C149.667 22.864 149.433 22.9838 149.235 23.0879L149.225 23.114C147.818 25.3015 146.11 27.1817 144.922 29.4317C145.219 29.1557 145.521 28.8848 145.834 28.5775C146.49 27.9577 147.063 27.1817 147.824 26.6921C147.943 26.6244 148.12 26.7234 148.053 26.8848C147.699 27.6609 147.027 28.3067 146.433 28.9213C145.824 29.5619 145.209 30.2286 144.516 30.7754C144.433 30.8327 144.355 30.864 144.277 30.8327C144.235 30.9369 144.188 31.0411 144.146 31.1452C144.089 31.2807 144.063 31.4213 143.995 31.5775C144.032 31.7182 144.042 31.8432 144.047 31.9682C144.079 32.1973 143.907 32.3119 143.751 32.3119C143.459 33.39 143.225 34.4682 143.042 35.5619C143.62 34.9994 144.245 34.4577 144.844 33.9057C145.605 33.2025 146.886 32.4161 147.058 31.3432C147.105 30.9317 147.751 31.015 147.704 31.4265C147.584 32.364 146.964 32.9682 146.292 33.614C145.324 34.5359 144.365 35.4994 143.355 36.3692C143.209 36.4942 143.058 36.4942 142.938 36.4109C142.839 37.0202 142.751 37.5984 142.652 38.2077C142.688 38.3432 142.693 38.4734 142.704 38.5984C142.714 38.7286 142.631 38.8484 142.547 38.9057C142.297 40.4629 142.037 42.0515 141.641 43.5879C142.782 42.5515 143.938 41.5515 145.032 40.4942C145.964 39.5879 148.136 37.9317 148.37 36.5515C148.381 36.4629 148.438 36.3952 148.511 36.364C148.402 35.8848 148.292 35.4057 148.183 34.9317C147.292 30.6348 147.865 26.5879 149.891 22.7754ZM148.709 37.3692C148.334 38.4161 147.271 39.3327 146.547 40.1088C145.136 41.6504 143.6 43.1088 141.954 44.3952C141.735 44.5515 141.511 44.489 141.396 44.3171C141.011 45.6973 140.537 47.0463 139.86 48.3067C141.042 47.8432 142.48 47.64 143.537 47.1869C145.964 46.0984 148.053 44.5619 150.11 42.89C150.146 42.8744 150.157 42.8484 150.193 42.8327C149.777 41.0254 149.214 39.1869 148.709 37.3692ZM150.261 50.6661C150.063 50.9213 149.792 51.1192 149.485 51.2702C149.006 51.5307 148.511 51.7598 148.027 52.0202C147.87 52.1088 147.745 52.1817 147.626 52.2546C148.053 52.3379 148.454 52.4109 148.881 52.4994C149.047 52.5359 149.256 52.5619 149.422 52.6036C149.777 51.9786 150.047 51.3223 150.261 50.6661ZM154.787 54.3119C154.662 54.3223 154.532 54.3327 154.417 54.3119C154.407 54.3379 154.433 54.3536 154.422 54.3796C153.433 57.265 153.334 60.0932 152.818 63.0254C153.766 62.1609 154.678 61.3067 155.584 60.3848C155.579 58.1921 156.021 56.0932 156.891 54.0775C156.183 54.2182 155.475 54.2911 154.787 54.3119ZM157.391 53.9838C156.652 55.8327 156.287 57.7494 156.23 59.7286C156.652 59.3171 157.079 58.8796 157.511 58.4421C157.782 58.1557 158.183 58.3848 158.141 58.7025C158.178 58.6921 158.214 58.6765 158.251 58.6609C160.256 58.2911 162.271 57.9004 164.292 57.5671C164.49 56.7859 164.678 55.9734 164.829 55.1713C163.516 55.7338 162.011 56.3067 160.579 56.3275C160.183 56.6869 159.771 57.0098 159.344 57.2963C159.079 57.4942 158.672 57.1348 158.907 56.864C159.027 56.7286 159.183 56.5775 159.297 56.4421C159.308 56.4161 159.308 56.4161 159.292 56.3796C159.641 55.1036 160.308 53.8692 160.969 52.7286C159.824 53.3275 158.641 53.7286 157.391 53.9838ZM165.386 49.5411C164.292 50.7494 162.995 51.7234 161.558 52.5098C161.1 53.4577 160.73 54.4161 160.334 55.364C161.943 53.6557 163.563 51.989 165.094 50.1609C165.204 50.0515 165.443 50.1504 165.35 50.2963C164.37 52.0463 163.079 53.8848 161.579 55.4161C162.672 55.1661 163.792 54.9838 164.87 54.6296C164.907 54.614 164.933 54.6244 164.933 54.6244C165.225 52.9577 165.376 51.265 165.386 49.5411ZM164.094 58.2598C162.167 58.6609 160.245 59.0567 158.318 59.4577C158.079 59.515 157.938 59.3327 157.928 59.14C157.329 60.1244 156.615 61.0307 155.829 61.8744C156.922 61.6244 158.126 61.6921 159.225 61.6557C160.141 61.6036 161.907 61.8796 162.454 60.9369C162.589 60.6869 163.006 60.9473 162.881 61.1765C162.454 62.0463 161.594 62.1817 160.73 62.2546C159.131 62.39 157.292 62.7338 155.719 62.5098C155.537 62.4942 155.469 62.3744 155.459 62.2494C154.209 63.5463 152.792 64.7129 151.376 65.8223C151.402 65.8327 151.438 65.8171 151.464 65.8275C152.969 65.9942 154.485 66.4994 155.922 66.9786C156.797 67.2494 158.787 67.5827 159.266 68.4317C159.324 68.515 159.35 68.6817 159.251 68.765C159.24 68.7911 159.204 68.8067 159.183 68.8588C159.074 68.9682 158.949 68.9786 158.824 68.8952C158.797 68.8848 158.771 68.8744 158.756 68.8379C158.704 68.8171 158.688 68.7807 158.688 68.7129C156.329 67.7025 153.751 67.3067 151.318 66.4734C151.1 66.4161 151.068 66.1869 151.136 66.0254C150.495 66.5307 149.824 67.0254 149.193 67.5046C149.157 67.515 149.11 67.5567 149.1 67.5827C149.402 68.4838 153.271 69.265 154.058 69.5307C155.428 70.0098 156.782 70.5411 158.11 71.1296C159.261 69.3275 160.313 67.4786 161.266 65.5619C158.818 65.4369 156.36 65.1869 153.943 64.6973C153.422 64.6088 153.521 63.7859 154.037 63.8744C156.532 64.3327 159.037 64.6921 161.579 64.89C162.579 62.7807 163.449 60.5515 164.094 58.2598ZM157.219 72.4525C157.391 72.1869 157.579 71.89 157.751 71.6244C155.485 70.8379 153.225 70.0463 150.907 69.39C150.136 69.1609 148.594 69.0098 148.308 68.1504C147.152 68.9942 145.87 69.8484 144.605 70.739C148.334 72.0827 152.047 73.3848 155.865 74.5098C156.355 73.7911 156.792 73.1088 157.219 72.4525ZM146.657 85.0515C145.027 84.5254 143.475 83.8796 142.011 83.0202C141.521 82.7234 140.782 82.4161 140.23 81.9682C140.735 83.3536 140.886 84.8327 140.438 86.4994C140.329 86.9161 139.646 86.8484 139.766 86.4057C140.667 82.614 138.641 79.8588 136.021 77.5567C135.891 77.7234 135.667 77.8119 135.49 77.6452C135.006 77.2598 134.636 76.7338 134.292 76.1609C133.35 75.4577 132.422 74.7963 131.547 74.1504C129.381 72.5359 127.402 69.739 124.761 68.9734C122.574 68.3744 120.001 68.4734 117.771 68.3432C117.683 68.3379 117.605 68.3067 117.553 68.2807C116.917 68.5411 116.324 68.8536 115.756 69.2598C114.735 70.0098 113.975 71.0827 112.839 71.6557C110.402 72.9213 107.219 71.9682 104.547 72.6088C101.016 73.4525 98.4902 75.515 95.8287 77.8275C95.2141 78.3432 94.4641 77.4786 94.8652 76.8744C95.1725 76.4421 95.5162 76.0619 95.86 75.6817C94.8756 76.4161 93.8339 77.0619 92.7246 77.8015C91.4798 78.64 90.2975 79.6869 89.2141 80.8119C94.6048 79.2025 100.344 78.015 105.922 77.8119C106.23 77.8171 106.297 78.2494 105.98 78.2702C99.7871 78.7702 93.9485 80.9317 87.9173 82.1504C87.511 82.5984 87.0943 83.0098 86.6881 83.4577C86.7037 83.4994 86.7193 83.5359 86.761 83.5827C92.6621 83.5723 97.9068 86.7494 102.818 89.6921C103.074 89.8275 102.808 90.2442 102.584 90.1192C98.4121 87.7598 94.3287 85.7807 89.7454 84.7963C91.9798 85.3588 94.1048 86.2442 95.7871 87.8379C97.3964 89.3744 98.9798 91.5775 100.084 93.7338C100.282 93.4786 100.699 93.3744 101.001 93.6869C102.542 95.4682 104.136 97.338 106.292 98.39C108.719 99.588 110.589 98.8848 113.021 98.6713C114.725 98.515 116.162 99.2077 117.563 99.9161C117.751 99.838 117.995 99.8484 118.094 100.046C118.152 100.13 118.193 100.176 118.251 100.265C119.48 100.869 120.73 101.359 122.162 101.244C124.126 101.046 125.678 100.062 127.006 98.7286C126.98 98.5046 127.172 98.338 127.376 98.3588C128.922 96.7234 130.172 94.6817 131.485 93.0984C132.886 91.3692 134.589 89.9525 136.428 88.7129C134.542 88.3588 132.678 88.015 130.725 88.4057C130.422 88.4629 130.37 88.0046 130.667 87.9473C132.761 87.5254 134.928 87.2859 137.006 87.9994C137.11 88.0411 137.178 88.1036 137.225 88.2129C137.433 88.0827 137.641 87.9525 137.813 87.8432C137.855 87.364 138.193 86.9213 138.787 86.9838C138.928 87.0098 139.084 87.015 139.209 87.0046C139.443 86.8848 139.678 86.9213 139.839 87.0515C142.443 87.0254 144.688 86.2963 146.657 85.0515ZM140.506 89.1504C139.922 89.0619 139.339 88.9109 138.751 88.6973C137.641 89.4369 136.537 90.0879 135.438 90.864C137.813 90.0619 140.74 90.3588 143.146 90.8067C142.365 90.1713 141.485 89.6192 140.506 89.1504ZM153.084 107.817C152.485 106.89 151.969 105.9 151.469 104.89C151.428 104.906 151.428 104.906 151.391 104.921C150.454 105.025 149.469 105.166 148.511 105.171C149.329 105.942 150.188 106.703 151.105 107.39C151.751 107.541 152.412 107.661 153.084 107.817ZM148.969 107.025C148.24 106.416 147.584 105.77 146.912 105.088C146.886 105.078 146.818 105.083 146.792 105.072C146.589 105.046 146.485 104.848 146.501 104.671C146.417 104.572 146.324 104.505 146.24 104.406C146.256 104.812 146.105 105.244 146.084 105.666C146.068 105.999 146.079 106.343 146.152 106.687C147.063 106.786 148.006 106.9 148.969 107.025ZM130.251 106.192C129.282 105.697 128.365 105.161 127.454 104.536C127.094 104.51 126.73 104.416 126.36 104.416C125.594 104.406 124.876 104.51 124.12 104.687C125.667 105.421 127.318 106.051 128.855 106.723C128.907 106.744 128.964 106.765 128.975 106.801C129.292 106.567 129.626 106.364 129.995 106.213C130.084 106.218 130.188 106.197 130.251 106.192ZM128.12 107.374C128.162 107.359 128.209 107.317 128.245 107.301C126.433 106.546 124.381 105.843 122.49 104.9C122.714 105.546 122.938 106.197 123.271 106.801C123.579 107.39 124.047 107.895 124.365 108.463C124.631 108.416 124.86 108.39 125.1 108.333C124.933 108.14 124.797 107.869 124.699 107.671C124.49 107.281 124.324 106.869 124.23 106.426C124.141 106.114 124.646 106.015 124.745 106.301C124.886 106.703 125.074 107.062 125.303 107.4C125.475 107.656 125.745 107.895 125.87 108.192C126.657 107.999 127.433 107.765 128.12 107.374ZM122.152 108.369C122.568 108.484 122.969 108.557 123.376 108.541C123.058 108.13 122.792 107.65 122.6 107.229C122.23 106.489 121.959 105.729 121.813 104.895C121.803 104.77 121.85 104.666 121.933 104.609C121.047 104.145 120.245 103.624 119.485 102.999C119.969 104.807 120.495 106.505 121.459 108.114C121.667 108.197 121.907 108.296 122.152 108.369ZM120.037 107.301C119.282 105.786 118.761 104.145 118.735 102.505C118.735 102.437 118.756 102.385 118.777 102.333C118.339 101.906 117.959 101.406 117.605 100.859C117.167 100.645 116.704 100.421 116.261 100.234C117.964 101.994 118.62 104.489 119.318 106.88C119.568 107.015 119.787 107.166 120.037 107.301ZM118.23 107.567C118.23 107.567 118.204 107.557 118.193 107.583C115.808 107.083 113.584 106.494 111.162 106.317C112.068 107.468 112.969 108.489 113.907 109.499C115.678 109.619 117.516 109.801 119.266 110.192C118.985 109.609 118.766 109.025 118.558 108.411C118.396 108.13 118.329 107.854 118.23 107.567ZM119.855 111.364C119.771 111.203 119.699 111.078 119.61 110.921C119.574 110.937 119.511 110.937 119.454 110.916C117.792 110.687 116.162 110.374 114.511 110.119C115.402 111.015 116.287 111.848 117.24 112.676C118.459 112.416 119.725 112.416 120.938 112.77C120.532 112.26 120.131 111.817 119.855 111.364ZM121.157 113.046C121.162 113.265 121.011 113.479 120.777 113.442C119.792 113.218 118.839 113.13 117.876 113.223C118.824 113.984 119.782 114.723 120.839 115.442C121.277 115.348 121.725 115.317 122.183 115.328C122.204 114.531 121.73 113.749 121.157 113.046ZM119.834 115.703C118.751 114.973 117.678 114.218 116.652 113.421C116.48 113.468 116.381 113.338 116.344 113.197C115.157 112.27 114.042 111.249 113.006 110.109C112.896 112.656 113.37 115.078 114.678 117.348C114.777 117.546 114.74 117.713 114.641 117.796C114.818 117.744 114.995 117.697 115.141 117.635C115.506 117.505 115.876 117.354 116.251 117.203C115.699 115.859 115.292 114.458 114.782 113.104C114.714 112.89 115.011 112.765 115.115 112.963C115.678 114.281 116.329 115.598 116.855 116.932C117.808 116.494 118.782 116.005 119.834 115.703ZM114.292 117.895C114.204 117.89 114.11 117.822 114.037 117.697C112.652 115.239 112.053 112.395 112.563 109.614C112.329 109.364 112.12 109.124 111.896 108.843C110.063 106.505 108.209 104.437 106.115 102.578C106.495 107.734 106.584 113.296 108.672 118.051C110.631 118.317 112.61 118.307 114.292 117.895ZM100.271 117.635C98.5735 119.119 95.86 119.926 93.9485 120.213C90.5006 120.718 86.9537 120.567 83.5527 119.765C83.5371 119.88 83.4537 119.999 83.3183 120.036C81.9589 120.551 80.7246 120.775 79.5266 120.833C84.4068 122.156 89.2558 123.838 94.0214 125.145C94.2141 125.197 94.11 125.525 93.9381 125.484C87.9902 123.994 81.6933 122.968 75.7246 121.223C78.2871 122.63 80.8548 124.01 83.5423 125.192C86.0162 126.286 88.4641 127.369 90.6204 129.005C93.261 131.036 95.485 133.473 98.386 135.176C98.61 135.301 98.485 135.682 98.2298 135.541C95.4641 134.265 93.3548 132.213 90.9798 130.359C88.4433 128.38 85.6308 127.14 82.6985 125.885C79.1829 124.39 75.4016 122.812 71.8652 120.937C72.5371 121.468 73.1829 121.984 73.8496 122.536C77.6204 124.817 81.3235 127.26 84.9746 129.676C85.1725 129.791 84.9798 130.109 84.7766 129.994C82.2871 128.645 79.7402 127.275 77.2558 125.838C77.4225 126.031 77.6152 126.234 77.7818 126.426C78.2923 127.046 78.7558 127.64 79.235 128.27C79.36 128.26 79.5006 128.291 79.6152 128.395C83.1933 131.494 87.0058 135.458 89.1568 139.692C89.9068 141.145 90.2662 142.65 90.4798 144.223C92.1048 145.421 93.6829 146.666 95.0996 148.156C96.9433 150.098 98.4329 152.442 100.636 154.041C103.568 156.192 107.574 156.348 109.433 152.775C109.954 151.755 110.183 150.682 110.277 149.578C110.209 149.583 110.146 149.588 110.042 149.541C105.641 147.52 102.344 143.953 99.1152 140.447C98.9641 140.296 99.2454 140.072 99.3964 140.229C102.657 143.65 105.995 146.744 110.297 148.786C110.297 148.567 110.303 148.322 110.303 148.109C108.672 147.208 107.36 145.77 106.105 144.411C105.954 144.255 106.225 143.968 106.402 144.135C107.631 145.265 109.006 146.114 110.297 147.15C110.282 146.676 110.277 146.244 110.282 145.786C110.068 145.786 109.891 145.468 110.094 145.275C110.188 145.192 110.277 145.135 110.376 145.051C110.396 144.999 110.433 144.984 110.469 144.968C111.839 143.749 113.021 142.546 113.792 141.14C110.297 137.614 106.787 134.265 102.605 131.567C102.313 131.385 102.641 130.963 102.933 131.15C107.068 133.739 110.995 136.609 114.219 140.265C114.725 139.057 114.912 137.718 114.74 136.135C114.433 133.536 114.037 130.348 113.126 127.869C111.235 122.791 104.146 120.765 100.271 117.635ZM67.1464 119.369C66.7714 119.088 66.3964 118.812 66.0266 118.505C65.9485 118.468 65.9068 118.421 65.8391 118.364C65.6777 118.234 65.5162 118.104 65.3391 117.937C65.3964 118.088 65.4589 118.234 65.5318 118.359C65.7923 118.775 66.0475 119.192 66.3183 119.583C66.5371 119.426 66.86 119.312 67.1464 119.369ZM71.0423 125.499C73.6152 127.9 75.9954 130.775 77.4537 133.572C77.9537 134.525 78.2818 135.588 78.5631 136.692C78.9277 136.624 79.3183 136.572 79.6985 136.484C79.7454 136.442 79.8183 136.411 79.8912 136.38C79.261 131.088 75.0996 128.338 71.0423 125.499ZM72.9121 132.114C73.5162 134.432 73.9225 136.791 74.011 139.234C74.9225 140.755 75.7454 142.333 76.4954 143.942C76.4016 143.197 76.2714 142.4 76.1308 141.63C75.5058 138.317 74.9016 134.885 72.9121 132.114ZM72.4068 136.65C72.0475 134.036 71.3235 131.479 70.4121 129.005C68.3443 126.567 66.235 124.145 64.8912 121.301C65.3287 123.796 65.9068 126.26 67.0371 128.583C68.4902 131.468 70.5891 133.984 72.4068 136.65ZM61.36 125.104C61.3704 125.015 61.3756 124.926 61.3912 124.807C61.4121 124.541 61.4693 124.255 61.4902 123.984C61.0318 124.781 60.5371 125.531 59.9746 126.286C60.0266 126.307 60.0527 126.317 60.0787 126.328C60.5371 125.9 60.9537 125.489 61.36 125.104ZM73.636 119.421C72.0891 118.687 70.5735 117.744 69.0006 116.781C68.7558 116.926 68.511 117.067 68.261 117.213C69.5162 117.833 70.735 118.463 71.9798 119.104C72.511 119.234 73.0839 119.348 73.636 119.421ZM114.407 100.234C114.297 100.124 114.251 100.015 114.219 99.8744C113.844 99.8744 113.464 99.9057 113.1 99.9682C113.579 100.072 114.021 100.197 114.48 100.359C114.475 100.291 114.459 100.255 114.407 100.234ZM115.084 100.979C115.032 101.109 114.907 101.182 114.725 101.171C111.475 100.676 108.35 100.484 105.084 100.39C106.271 101.255 107.355 102.197 108.407 103.223C108.443 103.208 108.485 103.192 108.521 103.176C111.266 103.182 114.042 103.473 116.777 103.723C116.329 102.734 115.808 101.838 115.084 100.979ZM107.782 117.895C105.771 113.02 106.006 107.437 105.709 102.223C104.844 101.489 103.938 100.775 102.949 100.114C103.12 101.697 103.292 103.281 103.49 104.874C103.594 105.072 103.662 105.286 103.714 105.525C103.808 105.968 103.797 106.364 103.735 106.739C104.214 110.395 104.876 114.062 105.995 117.52C106.579 117.671 107.172 117.796 107.782 117.895ZM117.157 104.588C114.422 104.343 111.636 104.14 108.912 103.713C109.558 104.385 110.167 105.067 110.756 105.807C113.094 105.671 115.709 105.838 117.943 106.708C117.688 105.984 117.422 105.286 117.157 104.588ZM123.808 104.557C123.745 104.406 123.766 104.203 123.943 104.15C124.693 103.906 125.464 103.765 126.251 103.723C125.782 103.374 125.334 103.031 124.865 102.682C124.839 102.671 124.824 102.635 124.824 102.635C124.605 102.635 124.355 102.656 124.126 102.682C123.251 102.781 122.396 102.979 121.532 103.203C121.464 103.208 121.428 103.223 121.376 103.203C122.162 103.687 122.959 104.14 123.808 104.557ZM131.037 95.3536C130.98 95.4213 130.907 95.515 130.85 95.5827C131.1 95.4994 131.428 95.6713 131.36 95.9786C131.006 97.8692 132.027 100.083 132.683 101.838C133.214 103.234 133.865 104.557 134.688 105.76C135.402 105.968 136.115 106.109 136.865 106.239C136.282 104.76 135.73 103.265 135.23 101.729C134.745 100.229 133.985 98.4942 133.975 96.8848C133.954 96.5671 134.37 96.463 134.506 96.7338C135.308 98.213 135.547 100.072 136.042 101.697C136.506 103.249 137.011 104.786 137.511 106.322C138.126 106.395 138.756 106.442 139.396 106.458C138.282 103.588 137.506 100.489 137.396 97.4161C135.495 96.4994 133.449 95.864 131.251 95.5046C131.141 95.5515 131.084 95.463 131.037 95.3536ZM148.86 99.0827C148.48 98.213 148.063 97.364 147.626 96.5619C143.969 96.088 140.48 96.39 136.865 96.3952C137.079 96.4838 137.261 96.5619 137.469 96.6452C137.579 96.3223 138.152 96.3432 138.204 96.739C138.199 96.8275 138.23 96.9005 138.225 96.989C138.896 97.3015 139.574 97.6765 140.214 98.0671C140.282 97.9734 140.402 97.9005 140.584 97.9161C143.303 98.2755 146.131 98.5307 148.86 99.0827ZM150.235 102.218C149.886 101.426 149.527 100.593 149.178 99.8015C146.844 99.6921 144.469 99.3171 142.141 98.9942C142.152 99.0307 142.141 99.0567 142.131 99.0827C142.126 99.1765 142.11 99.2911 142.1 99.3796C142.167 99.4369 142.219 99.463 142.292 99.5202C142.735 99.8588 143.141 100.213 143.574 100.583C143.6 100.593 143.641 100.578 143.667 100.588C145.865 101.166 148.042 101.703 150.235 102.218ZM142.146 106.525C141.511 104.348 141.204 102.124 141.37 99.8796C140.386 99.1296 139.36 98.4838 138.297 97.9161C138.667 100.88 139.183 103.718 140.167 106.536C140.412 106.541 140.626 106.541 140.881 106.525C141.313 106.52 141.714 106.531 142.146 106.525ZM145.98 104.145C145.235 103.406 144.532 102.645 143.782 101.932C143.209 101.385 142.652 100.874 142.042 100.406C141.954 102.468 142.12 104.51 142.667 106.531C143.615 106.551 144.563 106.578 145.485 106.656C145.35 105.796 145.324 104.828 145.792 104.218C145.839 104.176 145.912 104.15 145.98 104.145ZM150.553 102.937C148.672 102.645 146.792 102.26 144.949 101.801C145.86 102.645 146.761 103.515 147.641 104.374C148.813 104.369 149.995 104.432 151.172 104.338C150.975 103.854 150.766 103.395 150.553 102.937ZM135.126 91.1036C134.761 91.3796 134.37 91.6505 134.021 91.9682C133.037 92.8536 132.178 93.8848 131.365 94.9317C133.11 95.1973 134.782 95.6192 136.381 96.2234C136.334 96.0463 136.443 95.7859 136.646 95.7442C140.032 94.8744 143.907 95.3484 147.35 96.0463C146.329 94.2025 145.141 92.5307 143.579 91.1713C143.553 91.3171 143.469 91.4369 143.266 91.4109C141.964 91.2077 140.652 91.0932 139.35 91.1036C138.047 91.1192 136.74 91.3744 135.428 91.4109C135.235 91.4265 135.12 91.2546 135.126 91.1036ZM127.896 99.0411C128.547 100.734 129.204 102.333 130.079 103.869C131.256 104.515 132.459 105.046 133.699 105.473C132.87 104.203 132.24 102.828 131.704 101.369C131.11 99.765 130.011 97.6713 130.579 95.9317C130.032 96.6609 129.464 97.3484 128.87 98.0307C128.568 98.3952 128.245 98.7234 127.896 99.0411ZM119.672 101.812C120.178 102.301 120.719 102.713 121.292 103.104C121.167 102.963 121.172 102.656 121.396 102.562C122.23 102.197 123.131 101.958 124.027 101.807C124.188 101.786 124.391 101.744 124.594 101.703C124.777 101.197 125.417 100.843 125.99 101.239C126.891 101.89 127.787 102.484 128.641 103.02C128.016 101.932 127.506 100.791 127.219 99.6244C125.542 101.051 123.537 102.161 121.303 102.124C120.714 102.124 120.183 101.994 119.672 101.812ZM64.2506 115.817C64.4693 115.661 64.7714 115.604 65.0423 115.838C65.1621 115.921 65.2975 116.041 65.4173 116.119C66.5943 114.697 67.8704 113.348 69.0891 111.973C71.511 109.281 72.9381 107.406 72.5058 103.557C72.4902 103.301 72.8548 103.239 72.9016 103.505C73.4589 106.234 73.4016 108.218 71.6568 110.484C70.0891 112.546 68.3496 114.567 66.5371 116.463C66.7506 116.551 66.9485 116.666 67.1568 116.755C67.4016 116.546 67.6673 116.348 67.9329 116.15C67.5214 115.885 67.9798 115.307 68.4016 115.546C68.4798 115.578 68.5527 115.635 68.6308 115.671C70.7089 114.38 73.1308 113.598 75.511 113.078C77.9537 112.551 80.485 112.249 82.7714 111.14C84.3964 110.338 85.61 109.208 87.4381 108.89C87.7037 108.843 87.7558 109.239 87.4798 109.307C85.4381 109.692 83.9693 111.296 82.1204 112.104C80.7923 112.692 79.3496 113.046 77.9433 113.385C74.7662 114.124 72.2454 114.989 69.6985 116.364C71.6881 117.656 73.8027 119.093 75.9381 119.676C78.0735 120.255 80.0631 119.848 82.11 119.38C80.1308 118.801 78.2246 118.036 76.4485 117.046C76.1152 116.88 76.3079 116.343 76.6777 116.494C80.7766 118.208 85.1048 119.301 89.5735 119.161C93.8912 119.015 99.9641 118.369 100.167 112.994C100.199 112.328 101.141 112.291 101.381 112.822C101.87 113.953 101.86 114.932 101.532 115.786C101.865 115.953 102.225 116.135 102.579 116.312C101.928 114.098 101.771 111.812 101.959 109.515C101.99 109.218 102.428 109.275 102.396 109.572C102.355 111.9 102.693 114.109 103.297 116.364C103.318 116.468 103.308 116.557 103.277 116.635C103.881 116.89 104.511 117.088 105.162 117.296C104.214 114.312 103.589 111.15 103.193 107.963C102.735 108.76 101.98 109.463 101.219 110.036C100.975 110.244 100.631 109.885 100.818 109.656C101.954 108.275 103.037 106.63 102.094 104.817C101.699 104.067 101.105 103.421 100.709 102.666C100.001 101.26 99.36 99.39 100.167 97.9057C100.428 97.4265 101.12 97.4682 101.225 98.0359C101.542 99.713 101.136 101.057 102.063 102.676C102.256 103.036 102.521 103.359 102.745 103.703C102.636 102.421 102.574 101.161 102.501 99.9265C102.485 99.89 102.495 99.864 102.506 99.838C102.266 99.6765 102.027 99.515 101.787 99.3536C101.344 99.0775 101.803 98.2807 102.24 98.5515C102.959 98.9786 103.641 99.4161 104.308 99.8796C104.844 99.8588 105.391 99.8067 105.928 99.7807C103.855 98.8275 102.188 97.0515 100.751 95.2494C100.782 95.3223 100.813 95.3952 100.87 95.4838C101.068 95.9682 100.422 96.2546 100.105 95.9057C98.3808 94.0463 97.3756 91.6504 95.8339 89.6504C93.5787 86.7025 90.2714 85.8171 86.8704 84.9525C89.1673 86.8379 91.5058 88.864 93.0527 91.1452C95.0683 94.1452 94.1777 98.0619 96.0735 101.135C96.2037 101.343 95.9121 101.593 95.7558 101.374C93.9954 98.7859 94.2923 95.8588 93.136 93.088C91.8027 89.9109 88.2298 87.3119 85.2558 84.9004C85.0058 85.1348 84.7298 85.2025 84.4693 85.1557C84.4277 85.8484 84.3235 86.5463 84.3912 87.1921C84.5371 88.5463 84.9693 89.8067 85.61 90.9994C85.761 91.3119 85.2714 91.5984 85.0839 91.3067C84.3339 90.0671 83.8079 88.739 83.5475 87.3015C83.5318 87.265 83.5423 87.239 83.5266 87.2025C81.0006 88.3692 78.0266 88.5463 75.261 88.4473C75.5162 88.7963 75.761 89.1765 76.0006 89.5567C76.2037 89.8848 75.7818 90.2338 75.5058 89.9369C75.0996 89.4265 74.6673 88.9057 74.2246 88.4109C73.9798 88.3432 73.8131 88.1504 73.7818 87.9213C73.0527 87.0879 72.2298 86.3171 71.3808 85.6192C71.3027 85.8067 71.1621 85.9942 71.0839 86.1765C70.8391 86.6921 70.6568 87.2025 70.5683 87.7859C70.5266 88.1036 70.0371 88.0254 70.0683 87.7286C70.1308 87.1348 70.1829 86.5723 70.386 86.0098C70.4693 85.7338 70.5475 85.4004 70.7193 85.1296C70.1412 84.7338 69.5579 84.3692 68.9277 84.1036C68.2558 87.5567 67.5787 91.1036 66.6881 94.4942C66.61 94.8327 66.11 94.7807 66.1621 94.4317C66.3964 92.2442 66.735 90.1036 67.11 87.9421C67.3548 86.5359 67.4589 85.0359 68.1621 83.7859C66.8964 83.3484 65.5214 83.239 64.0423 83.6088C62.5996 83.9629 61.6048 84.7234 60.1777 85.1765C57.9329 85.9057 56.1152 86.4161 54.5943 88.2807C56.6464 89.6609 59.1048 90.3432 60.8964 92.1088C62.2506 93.4473 63.1777 95.2234 63.5735 97.0827C64.1464 99.7911 62.7662 102.208 63.0475 104.859C63.3235 107.223 64.8391 108.999 64.5579 111.442C64.5579 111.442 64.5579 111.442 64.5475 111.468C64.7766 111.072 65.0162 110.645 65.2975 110.27C65.0839 109.963 65.0527 109.52 65.4329 109.275C65.6412 109.145 65.8391 109.046 66.1048 108.999C66.8079 108.864 67.2246 109.869 66.6256 110.265C66.4068 110.421 66.2193 110.499 65.9537 110.541C65.9173 110.557 65.8652 110.536 65.8287 110.551C64.8131 112.166 64.3443 113.885 64.2506 115.817ZM78.5683 87.3223C80.235 87.4004 81.8548 87.2129 83.5006 86.4473C83.4173 85.8275 83.386 85.1661 83.4589 84.5515C82.7975 84.8015 82.1412 85.0515 81.5579 85.3327C80.4798 85.9265 79.4902 86.5984 78.5683 87.3223ZM80.4433 83.0463C80.4798 83.0307 80.5214 83.015 80.5839 83.0098C80.3443 82.9109 80.11 82.8119 79.9121 82.7025C80.0735 82.8275 80.2454 82.9317 80.4433 83.0463ZM137.922 78.3223C138.6 79.0671 139.219 79.8796 139.672 80.7182C139.683 80.6921 139.719 80.6765 139.73 80.6504C139.777 80.6088 139.818 80.5932 139.865 80.5515C140.058 80.3848 140.438 80.5723 140.386 80.8588C140.256 81.39 143.693 83.1348 143.954 83.2442C145.027 83.7859 146.157 84.2546 147.282 84.6609C149.245 83.2911 150.943 81.4369 152.49 79.4265C150.683 78.9525 148.933 78.4109 147.167 77.765C145.344 77.0984 142.751 76.5098 141.297 75.1921C141.12 75.0254 141.068 74.8536 141.157 74.64C141.199 74.5359 141.219 74.4213 141.261 74.3171C141.417 73.7911 142.126 74.0879 142.094 74.5359C142.058 75.2963 147.219 77.0463 147.886 77.2963C149.511 77.9109 151.152 78.4994 152.808 79.0359C153.787 77.7182 154.714 76.3119 155.615 74.9629C151.61 74.0619 147.652 72.9057 143.865 71.3275C141.824 72.8223 139.912 74.5202 138.735 76.5307C138.86 76.5202 138.975 76.5411 139.084 76.6452C141.657 79.2911 144.964 81.3484 148.584 82.2129C148.865 82.2702 148.797 82.7338 148.521 82.6504C144.553 81.7338 141.308 80.0411 138.475 77.0723C138.449 77.0619 138.459 77.0359 138.438 77.0254C138.209 77.4213 138.047 77.8796 137.922 78.3223ZM139.277 74.5671C139.771 73.9682 140.334 73.4317 140.922 72.9057C140.829 72.8379 140.745 72.739 140.751 72.5879C140.808 68.9734 140.23 65.4004 140.646 61.8067C141.016 58.6296 141.646 55.3432 142.881 52.3744C141.396 52.3119 139.943 52.4734 138.506 53.1088C138.61 53.1504 138.719 53.2598 138.662 53.39C135.62 60.1713 137.74 67.6609 139.277 74.5671ZM148.62 66.739C148.225 62.4994 148.344 57.7077 149.803 53.6869C147.662 53.1921 145.49 52.5619 143.37 52.39C142.204 55.7025 141.537 59.5254 141.318 63.015C141.12 66.14 142.016 69.3223 141.501 72.4109C142.105 71.9213 142.735 71.4421 143.37 70.9629C143.235 70.6921 143.475 70.2702 143.881 70.4057C143.933 70.4265 143.985 70.4525 144.037 70.4734C144.209 70.3588 144.391 70.2182 144.532 70.0932C144.49 70.0463 144.433 69.9577 144.443 69.8692C143.865 64.2286 144.183 58.4369 146.032 53.0359C146.11 52.8536 146.407 52.9473 146.37 53.1192C145.24 58.6348 144.646 63.9057 145.235 69.5202C146.386 68.614 147.511 67.6921 148.62 66.739ZM152.24 63.3744C151.876 60.4109 152.922 57.0827 153.985 54.3171C152.73 54.2911 151.464 54.0671 150.219 53.7963C148.86 57.7963 149.355 62.015 149.292 66.1557C150.303 65.2807 151.292 64.3952 152.287 63.4838C152.271 63.4473 152.256 63.4109 152.24 63.3744ZM137.688 52.7702C140.553 51.1557 143.652 51.489 146.824 52.1036C147.245 51.7546 147.844 51.5723 148.35 51.3223C149.016 50.9838 150.079 50.6557 150.251 49.8015C150.282 49.6557 150.454 49.6088 150.547 49.6765C150.73 48.7963 150.813 47.9369 150.803 47.0671C147.053 50.2234 142.422 50.6661 137.855 52.0046C137.782 52.2494 137.735 52.5098 137.688 52.7702ZM138.912 49.9161C138.678 50.2494 138.417 50.5723 138.162 50.8952C138.152 50.9265 138.115 50.9421 138.074 50.9525C139.641 50.3119 141.438 50.2911 143.084 49.8952C145.907 49.1921 148.282 47.8692 150.761 46.4317C150.704 45.39 150.542 44.3692 150.329 43.3223C149.001 44.8067 147.402 46.0515 145.683 47.0619C144.631 47.6713 143.542 48.2025 142.37 48.64C141.313 49.0359 140.037 49.2129 139.068 49.8275C139.021 49.8692 138.949 49.9004 138.912 49.9161ZM138.089 48.9265C138.084 49.015 138.074 49.1036 138.068 49.1921C139.006 47.765 139.667 46.2494 140.162 44.6973C138.928 41.8067 138.464 38.4057 138.23 35.3432C138.146 34.3536 137.376 30.7286 138.756 30.3796C138.995 30.3275 139.12 30.6869 138.943 30.8275C138.016 31.489 139.245 37.1244 139.422 38.1869C139.704 39.8796 140.199 41.5046 140.626 43.1348C141.047 41.4577 141.376 39.7129 141.667 37.9786C141.12 36.7025 140.912 35.1973 140.735 33.9213C140.485 32.0879 140.324 30.1088 140.657 28.2702C140.699 28.015 141.12 27.9734 141.152 28.265C141.245 30.0307 141.23 31.7807 141.485 33.5254C141.61 34.3484 141.855 35.1609 142.074 35.9629C142.141 35.5879 142.23 35.2234 142.329 34.8327C142.594 33.6765 142.886 32.5359 143.287 31.4369C142.938 29.7494 142.537 27.7598 143.245 26.2025C140.355 27.9629 137.787 30.0411 136.178 33.0098C136.308 32.9994 136.402 33.0723 136.402 33.2234C136.568 37.9213 138.141 42.2182 139.344 46.7338C139.449 47.1452 138.771 47.2963 138.641 46.9317C138.438 46.3848 138.245 45.8119 138.068 45.2754C138.115 46.4942 138.11 47.7598 138.089 48.9265ZM134.797 36.6921C135.443 37.515 136.021 38.3432 136.501 39.1921C136.141 37.3119 135.922 35.4004 135.881 33.4994C135.412 34.4786 135.037 35.5254 134.797 36.6921ZM144.214 29.14C145.303 26.9682 147.037 25.2546 148.579 23.4004C146.922 24.1921 145.256 25.0046 143.672 25.9213C143.037 27.0723 143.381 28.7598 143.714 30.2598C143.839 29.8796 144.032 29.4942 144.214 29.14ZM87.1985 179.911C88.0527 179.708 88.9121 179.64 89.6777 179.65C89.7454 179.645 89.7714 179.656 89.8235 179.676C90.1464 178.979 90.4277 178.296 90.7246 177.588C90.8443 177.296 91.0839 177.244 91.3339 177.317C91.4173 176.885 91.5318 176.473 91.7193 176.088C90.7298 176.911 89.6308 177.624 88.6985 178.531C88.1829 179.025 87.7298 179.515 87.1985 179.911ZM92.9433 174.932C92.9329 174.958 92.8964 174.973 92.886 174.999L92.9121 175.01C92.9798 174.916 93.0527 174.822 93.1204 174.729C93.0266 174.812 92.9902 174.89 92.9433 174.932ZM93.6464 173.989C93.9381 173.65 94.2662 173.385 94.6881 173.192C94.6568 172.9 94.5839 172.624 94.5266 172.322C94.2766 172.926 93.9798 173.484 93.6464 173.989ZM96.86 160.734C96.3443 161.229 95.8548 161.739 95.4068 162.291C95.6464 162.39 95.8964 162.525 96.1308 162.624C97.1568 161.203 98.86 158.671 100.787 159.229C101.037 159.301 101.027 159.697 100.803 159.791C99.8652 160.109 99.1673 160.307 98.4068 161.01C97.7975 161.588 97.2298 162.218 96.6568 162.843C96.7871 162.9 96.9225 162.953 97.0527 163.01C96.8912 162.88 96.86 162.65 97.0527 162.484C97.8704 161.932 98.7141 161.385 99.5891 160.921C100.428 160.463 101.329 159.854 102.277 159.661C102.313 159.645 102.339 159.656 102.339 159.656C102.047 159.536 101.719 159.432 101.396 159.328C100.563 159.104 99.7662 159.015 98.9589 158.958C98.9485 158.984 98.9485 158.984 98.9329 159.01C98.3027 159.64 97.5162 160.114 96.86 160.734ZM102.511 159.76C102.646 159.88 102.688 160.145 102.516 160.26C101.813 160.765 100.928 161.046 100.162 161.468C99.2506 161.947 98.3443 162.499 97.4902 163.067C97.4068 163.124 97.3391 163.13 97.2766 163.135C97.9589 163.416 98.6568 163.676 99.3443 163.869C99.3704 163.885 99.3964 163.895 99.3964 163.895C99.3808 163.791 99.3964 163.676 99.4902 163.593C100.402 162.89 101.396 162.291 102.49 161.88C103.188 161.614 104.204 161.176 105.037 161.249C104.282 160.624 103.443 160.119 102.511 159.76ZM107.766 163.958C107.324 164.051 106.896 164.119 106.459 164.275C106.35 164.322 106.235 164.369 106.126 164.416C107.214 164.687 108.256 165.15 109.24 165.744C108.725 165.13 108.266 164.536 107.766 163.958ZM108.568 166.39C107.407 165.781 106.287 165.499 105.162 165.312C105.771 165.781 106.422 166.208 107.053 166.624C107.558 166.525 108.063 166.426 108.568 166.39ZM105.938 166.932C106.011 166.9 106.115 166.88 106.178 166.874C105.506 166.411 104.917 165.828 104.355 165.249L104.339 165.213C103.542 165.13 102.699 165.083 101.797 165.02C102.714 165.926 103.761 166.609 104.85 167.244C105.209 167.119 105.563 167.02 105.938 166.932ZM103.922 167.479C102.891 166.77 101.943 165.848 101.131 164.921C100.975 164.921 100.834 164.895 100.678 164.89C99.9329 164.828 99.2454 164.63 98.5475 164.374C99.1256 164.921 99.7193 165.416 100.355 165.895C101.199 166.525 102.188 166.968 103.047 167.572C103.1 167.598 103.115 167.635 103.131 167.671C103.396 167.63 103.646 167.546 103.922 167.479ZM106.521 162.578C106.193 162.255 105.865 161.932 105.527 161.635C105.511 161.661 105.501 161.687 105.464 161.703C105.074 161.973 104.704 161.973 104.266 162.067C103.761 162.166 103.235 162.317 102.751 162.515C101.766 162.874 100.829 163.348 99.9381 163.932C100.725 164.046 101.49 164.057 102.266 164.041C103.422 163.348 105.1 162.505 106.521 162.578ZM107.058 163.14C106.381 163.348 105.641 163.348 104.964 163.499C104.422 163.614 103.912 163.801 103.417 164.025C103.506 164.031 103.594 164.041 103.699 164.02C104.245 164.031 104.751 164.088 105.266 164.182C105.907 163.828 106.62 163.51 107.344 163.411C107.225 163.333 107.141 163.234 107.058 163.14ZM96.3235 166.744C97.3027 167.432 98.235 167.791 99.1777 167.968C97.7975 166.775 96.6412 165.244 95.6048 163.822C95.4225 163.593 95.7714 163.338 95.9537 163.567C97.2871 165.328 98.9485 166.604 100.49 168.083C101.053 168.067 101.636 168.005 102.23 167.911C100.428 167.192 98.8391 165.604 97.6152 164.171C97.5735 164.119 97.5735 164.057 97.5683 163.994C97.1048 163.77 96.6673 163.557 96.2193 163.307C96.0579 163.395 95.86 163.281 95.8704 163.104C95.6204 162.968 95.3808 162.801 95.1256 162.666L95.1152 162.692C95.3287 163.739 95.4641 164.817 95.5423 165.895C95.6464 165.937 95.7402 166.01 95.8235 166.104C95.9902 166.296 96.1725 166.525 96.3235 166.744ZM95.11 170.775C95.5423 170.551 96.1673 170.385 96.7766 170.328C96.386 169.64 95.9277 168.958 95.4902 168.312C95.4068 169.171 95.261 170.036 95.0527 170.843C95.0631 170.817 95.0735 170.791 95.11 170.775ZM97.1568 171.041C97.0162 171.015 96.8704 170.984 96.7193 170.984C96.2037 170.953 95.7506 171.01 95.2766 171.187C95.2037 171.213 95.1516 171.192 95.0996 171.171C95.1777 171.421 95.235 171.661 95.3027 171.937C95.3391 171.921 95.4016 171.916 95.4589 171.937C96.3548 172.223 97.3287 172.63 98.1464 173.182C97.8652 172.447 97.5475 171.729 97.1568 171.041ZM99.0683 179.708C99.0943 179.567 99.0839 179.437 99.1152 179.296C98.6048 178.895 98.1516 178.432 97.6621 178.041C97.1516 177.645 96.6256 177.27 96.0683 176.911C96.0787 177.104 96.0943 177.296 96.1048 177.484C96.1152 177.765 96.1204 178.046 96.11 178.291C96.1568 178.249 96.2454 178.255 96.3287 178.286C97.2766 178.744 98.2506 179.369 99.0058 180.145C99.0266 180.031 99.0527 179.885 99.0683 179.708ZM98.3548 187.187C98.2662 187.244 98.1412 187.249 98.0475 187.182C97.7246 186.921 97.4954 186.583 97.2193 186.281C97.0943 186.135 96.9433 185.979 96.8079 185.864C97.1777 186.755 97.7454 187.609 98.5631 188.385C98.6308 188.442 98.6256 188.531 98.5943 188.614C98.8183 188.739 99.0683 188.874 99.3235 189.01C98.8235 188.432 98.5266 187.812 98.3548 187.187ZM95.0423 175.963C94.0527 176.999 93.3964 178.208 92.5839 179.411C92.485 179.583 92.3131 179.546 92.2037 179.437C92.3235 180.041 92.4954 180.671 92.6777 181.27C92.9277 180.447 93.2402 179.624 93.6204 178.854C93.9798 178.14 94.3496 177.338 95.1048 177.005C95.0943 176.661 95.0527 176.307 95.0423 175.963ZM95.1568 177.395C94.4381 177.932 94.1516 179.14 93.86 179.911C93.5579 180.713 93.3339 181.541 93.11 182.374C93.3808 182.984 93.6464 183.525 93.8964 183.968C93.9277 184.041 93.9954 184.104 94.0266 184.176C94.0735 183.984 94.1152 183.812 94.2037 183.604C93.9798 183.697 93.6881 183.572 93.7298 183.255C93.9173 181.848 94.5162 180.557 95.2506 179.38C95.2089 178.749 95.1881 178.057 95.1568 177.395ZM98.1985 184.374C98.2402 184.051 98.2818 183.734 98.3496 183.421C98.0787 183.182 97.7923 182.911 97.5214 182.671C97.0631 182.296 96.5735 181.906 96.0683 181.572C96.0735 182.072 96.0839 182.567 96.1308 183.051C96.7871 183.322 97.6464 183.775 98.1985 184.374ZM96.5371 185.104C97.1152 185.494 97.7871 185.963 98.1933 186.531C98.1464 186.203 98.11 185.848 98.1256 185.515C97.8756 185.229 97.6725 184.895 97.4225 184.609C97.0631 184.213 96.6464 183.88 96.2089 183.604C96.3079 184.109 96.4016 184.614 96.5371 185.104ZM97.6464 187.999C96.886 187.161 96.36 186.197 96.0214 185.161C96.0214 185.229 96.011 185.255 96.0162 185.317C96.0318 185.723 96.3131 186.307 96.0996 186.676C96.0891 186.703 96.0631 186.692 96.0527 186.718C96.5423 187.171 97.0683 187.609 97.6464 187.999ZM95.3183 180.551C95.011 181.286 94.7714 182.02 94.5683 182.801C94.7246 182.494 94.8964 182.166 95.0423 181.885C95.11 181.729 95.2454 181.541 95.3912 181.416C95.3496 181.15 95.3443 180.869 95.3183 180.551ZM95.4433 186.098C95.3756 185.822 95.3808 185.515 95.3756 185.296C95.3652 184.734 95.4537 184.156 95.61 183.635C95.5475 183.27 95.511 182.911 95.4693 182.557C95.1673 183.359 94.636 184.557 94.5214 184.692C94.4693 184.734 94.4329 184.749 94.3964 184.765C94.7246 185.239 95.0735 185.661 95.4433 186.098ZM98.8183 181.114C98.0162 180.229 97.2089 179.426 96.0943 178.838C96.0943 178.838 96.0943 178.838 96.0683 178.828C96.0579 179.593 96.0475 180.359 96.0475 181.104C96.1204 181.072 96.2089 181.078 96.2923 181.109C96.8808 181.479 97.4641 181.848 97.9902 182.286C98.1568 182.411 98.3183 182.541 98.4798 182.671C98.61 182.14 98.7246 181.635 98.8183 181.114ZM99.1308 177.484C98.0735 176.546 97.0371 175.619 95.8704 174.796C95.9277 175.249 95.985 175.708 96.0318 176.187C97.0266 176.76 98.261 177.426 99.1621 178.296C99.1568 178.015 99.1464 177.734 99.1308 177.484ZM98.5943 174.479C97.5735 173.744 96.6412 173.02 95.4589 172.525C95.5839 173.041 95.6829 173.546 95.7818 174.046C96.9485 174.656 98.0839 175.411 99.0266 176.328C98.9173 175.697 98.7766 175.083 98.5943 174.479ZM92.1256 179.036C92.5891 177.562 93.7818 176.328 94.9954 175.416C94.9277 174.833 94.8496 174.275 94.7871 173.697C93.6881 174.473 93.5475 176.078 92.4433 176.791C92.3964 176.833 92.3339 176.838 92.2454 176.833C92.0475 177.52 92.0371 178.286 92.1256 179.036ZM93.4068 184.999C93.0318 184.411 92.7141 183.843 92.4277 183.203C91.9121 182.062 91.386 180.515 91.2714 179.015C91.0839 179.463 90.886 179.937 90.6985 180.385C90.7246 180.395 90.7558 180.406 90.7402 180.432C91.9433 181.765 92.5527 183.781 92.86 185.635C92.9329 185.541 92.985 185.411 93.0579 185.317C93.1464 185.166 93.2558 185.057 93.4068 184.999ZM85.7402 195.01C85.6725 194.578 85.6048 194.15 85.5371 193.718C85.4902 193.39 85.3912 193.041 85.3548 192.687C84.9329 194.364 84.7298 196.036 84.5058 197.828C84.5058 197.828 84.5058 197.828 84.4954 197.854C84.7714 196.828 85.1881 195.89 85.7402 195.01ZM84.1621 199.317C84.1673 199.229 84.1777 199.14 84.2089 199.057C84.1881 199.114 84.136 199.15 84.1152 199.208C84.1308 199.244 84.1464 199.281 84.1621 199.317ZM81.5371 185.635C81.3079 186.4 81.1881 187.213 81.136 187.999C82.0891 187.343 83.0527 186.729 84.0787 186.203C85.0266 185.703 86.2714 185.015 87.3704 184.89C87.6412 184.322 87.8964 183.781 88.1621 183.213C87.2141 183.494 86.2298 183.703 85.2714 184.078C84.0683 184.525 82.9016 185.031 81.7558 185.63C81.6777 185.661 81.6152 185.666 81.5371 185.635ZM81.3235 190.88C82.7558 189.661 84.2141 188.385 85.7662 187.333C85.9485 187.197 86.1412 187.244 86.2506 187.354C86.4173 186.958 86.5891 186.536 86.7818 186.156C86.11 186.432 85.386 186.619 84.7402 186.906C83.4902 187.468 82.2975 188.109 81.1725 188.874C81.136 188.89 81.136 188.89 81.0996 188.906C81.1673 189.551 81.2246 190.223 81.3235 190.88ZM81.7558 192.885C82.485 192.171 83.36 191.395 84.3131 191.109C84.5266 191.046 84.7246 191.161 84.8131 191.317C85.0475 190.463 85.3339 189.624 85.6829 188.781C85.7506 188.624 85.8183 188.468 85.8704 188.338C84.485 189.515 82.9641 190.578 81.4902 191.661C81.5683 192.067 81.6516 192.468 81.7558 192.885ZM84.3912 192.994C84.4641 192.593 84.5787 192.176 84.6777 191.791C84.2298 192.124 83.6829 192.328 83.1933 192.619C82.7402 192.89 82.3391 193.187 81.9381 193.546C82.2037 194.395 82.4902 195.26 82.8183 196.104C83.1881 195.515 83.6048 194.953 84.1777 194.541C84.1881 194.515 84.2141 194.525 84.2141 194.525C84.2975 193.88 84.3391 193.343 84.3912 192.994ZM83.7662 198.411C84.0006 197.708 84.1048 196.64 84.1621 195.614C83.7923 195.984 83.4381 196.39 83.0839 196.801C83.3235 197.333 83.5371 197.854 83.7662 198.411ZM87.1464 192.973C87.4693 191.687 86.7506 190.369 86.5943 189.041C86.3652 189.593 86.1464 190.119 85.9433 190.682C85.8027 191.088 85.6673 191.489 85.5266 191.895C85.5943 191.89 85.6568 191.89 85.7141 191.973C86.0006 192.463 85.9954 193.078 86.0683 193.635C86.0996 193.859 86.1152 194.114 86.1412 194.343C86.4693 193.859 86.8079 193.416 87.1464 192.973ZM88.9485 190.791C88.8964 190.182 88.8131 189.562 88.6881 188.984C88.485 188.067 88.0943 187.223 87.8391 186.348C87.6308 186.786 87.4173 187.223 87.2298 187.666C87.3339 187.713 87.4068 187.838 87.3964 188.015C87.2193 189.39 87.86 190.739 87.8912 192.078C88.2298 191.635 88.5839 191.229 88.9485 190.791ZM92.3443 186.499C92.2193 185.551 92.0266 184.609 91.6933 183.697C91.3496 182.749 90.8443 181.895 90.4121 181.005C89.6568 182.666 88.8339 184.265 88.0266 185.9C88.0787 185.926 88.136 185.947 88.1725 185.994C88.9329 187.208 89.2714 188.765 89.4121 190.275C89.9068 189.682 90.4277 189.098 90.9016 188.489C91.0214 186.718 89.4641 185.27 89.2871 183.557C89.2558 183.328 89.5423 183.234 89.6568 183.406C90.3131 184.203 90.5996 185.432 90.985 186.364C91.1829 186.848 91.3287 187.312 91.4016 187.801C91.7662 187.369 92.0683 186.942 92.3443 186.499ZM81.8027 184.848C83.8235 183.624 86.2818 182.395 88.6516 182.182C88.9225 181.614 89.1777 181.078 89.4433 180.51C88.4485 180.676 87.4329 180.749 86.4173 181.036C85.4381 181.307 84.485 181.744 83.5266 182.051C83.4902 182.067 83.4641 182.057 83.4225 182.072C82.7089 182.973 82.1725 183.89 81.8027 184.848ZM84.1308 181.041C84.2193 180.984 84.3287 180.937 84.4433 180.89C84.2871 180.89 84.1256 180.911 83.9693 180.911C84.0214 180.932 84.0996 180.963 84.1308 181.041ZM40.9068 85.8119C39.9641 83.9994 38.7818 82.765 37.4693 81.8484C36.7662 83.4682 36.0735 85.1244 35.3131 86.7182C37.1412 86.1869 39.0631 86.3067 40.9068 85.8119ZM30.735 78.9161C29.9485 78.6504 29.1464 78.3432 28.3339 78.0046C28.2298 77.9629 28.1516 77.9317 28.0423 77.8848C27.0214 80.4838 26.2141 83.015 25.6777 85.7859C25.6568 85.9004 25.5996 85.9682 25.5371 86.0359C25.6464 86.6661 25.7193 87.3119 25.86 87.9265C26.0214 88.5827 26.2037 89.1817 26.4485 89.7754C27.3131 86.0046 28.9329 82.265 30.735 78.9161ZM28.3131 92.9317C28.4121 93.0619 28.485 93.1869 28.5943 93.2963C28.6725 93.1713 28.7923 93.0411 28.9121 92.9005C28.9225 92.8744 28.9693 92.8327 29.0058 92.8223C28.9902 92.7807 29.0006 92.7546 28.985 92.7182C28.8131 92.9838 28.5214 93.0202 28.3131 92.9317ZM27.9277 96.8119C27.8391 96.8692 27.7037 96.9057 27.5996 96.8588C23.6568 95.4317 19.985 93.963 15.7871 93.4473C15.86 94.1557 15.9329 94.864 16.0475 95.5619C16.1621 96.3171 16.2871 97.2025 16.4537 98.1348C19.8391 98.5932 23.1308 99.2859 26.3964 100.338C26.4433 100.296 26.5162 100.265 26.6204 100.249C27.1985 99.2234 27.7923 98.1765 27.9277 96.8119ZM26.011 101.26C22.9068 100.27 19.761 99.4525 16.5527 98.8588C16.7871 100.067 17.1308 101.317 17.6048 102.473C17.6308 102.484 17.6673 102.468 17.6933 102.479C18.8652 102.786 19.9589 103.27 21.1412 103.609C22.4068 103.984 23.6985 104.213 24.985 104.536C25.0371 104.031 25.11 103.567 25.2298 103.124C25.4277 102.437 25.7037 101.843 26.011 101.26ZM24.985 106.604C24.1621 107.093 23.4381 107.718 22.7714 108.364C23.8339 109.145 24.8808 109.89 25.9381 110.609C25.4225 109.406 25.0943 107.973 24.985 106.604ZM26.9589 112.453C25.2402 111.463 23.5787 110.27 22.2558 108.859C21.5058 109.624 20.7766 110.4 19.9433 111.072C18.3964 112.338 16.6725 113.286 14.8704 114.14C14.485 114.317 14.0631 114.515 13.6464 114.708C16.7923 115.588 19.9798 116.458 23.0787 117.531C23.1621 117.567 23.2298 117.624 23.2714 117.671C24.9277 117.624 26.5787 117.51 28.2298 117.395C28.2871 117.328 28.3756 117.27 28.4433 117.176C25.0058 116.02 21.4746 114.578 18.636 112.499C18.4225 112.348 18.6204 112.031 18.8652 112.104C22.4121 113.364 25.8027 114.994 29.3183 116.338C29.3287 116.312 29.3652 116.296 29.3756 116.27C29.6777 115.994 30.0527 116.275 30.0891 116.63C30.6256 116.822 31.1933 117.025 31.7402 117.192C31.9537 117.192 32.2089 117.171 32.4277 117.171C32.5475 117.098 32.7037 117.104 32.8079 117.145C33.0631 117.13 33.3287 117.15 33.5839 117.13C32.3443 116.333 31.0891 115.567 29.8027 114.812C28.7089 114.171 27.6985 113.411 26.9589 112.453ZM35.36 118.27C35.1881 118.171 35.0527 118.051 34.8808 117.947C34.8287 117.989 34.7558 118.02 34.6568 118.041C33.9433 118.114 33.2454 118.161 32.5475 118.213C30.1256 120.843 27.3964 123.312 24.8808 125.874C24.5943 126.187 24.0943 125.822 24.3652 125.473C26.2298 123.01 28.4589 120.39 30.8964 118.322C30.1985 118.369 29.4746 118.411 28.7818 118.432C26.6308 121.083 24.1673 123.723 21.6725 126.015C22.4329 126.489 23.1933 126.958 24.011 127.364C24.3443 126.791 24.7141 126.265 25.2402 125.744C26.485 124.536 28.1412 124.27 29.4693 123.223C31.6048 121.583 32.1673 117.864 35.36 118.27ZM21.0318 125.624C22.8183 123.192 24.9121 120.765 27.0787 118.52C20.4537 118.723 13.9068 118.364 7.3183 117.223C7.28184 117.239 7.21934 117.244 7.18288 117.26C11.2193 118.234 14.4433 120.781 17.8079 123.296C19.4225 121.713 21.261 120.197 23.1256 118.906C23.5996 118.583 24.0683 119.239 23.6568 119.624C22.0318 121.078 20.1516 122.484 18.3079 123.656C19.1933 124.333 20.0943 124.989 21.0318 125.624ZM8.67768 116.77C12.1829 117.244 15.6933 117.63 19.2246 117.682C19.6829 117.687 20.1412 117.697 20.6152 117.676C18.0423 116.885 15.5058 115.947 12.9433 115.062C12.9121 115.051 12.8912 115.041 12.86 115.031C11.5787 115.666 10.1516 116.275 8.67768 116.77ZM22.1568 107.088C22.9016 106.348 23.6621 105.708 24.6152 105.275C22.4121 105.005 19.9121 104.27 17.9485 103.203C18.7871 104.973 20.0423 106.39 21.9173 106.864C22.0475 106.916 22.1048 107.005 22.1568 107.088ZM15.7141 92.9525C19.8756 93.1765 24.386 93.9786 27.9381 96.2598C27.9641 95.4682 27.9693 94.7911 28.1673 94.1661C27.6412 93.5775 27.1881 92.9577 26.8287 92.3432C23.1933 90.5515 19.4693 89.4265 15.5943 88.2754C15.5631 89.8379 15.5943 91.39 15.7141 92.9525ZM15.8131 85.0984C15.7089 86.0098 15.6412 86.9057 15.6308 87.8275C15.6568 87.8379 15.6673 87.8119 15.6933 87.8223C19.3183 88.2234 22.8496 89.4525 26.1621 90.9838C25.7558 90.1088 25.4537 89.2077 25.2089 88.2442C23.5683 87.5879 22.0787 86.5671 20.4798 85.8067C19.0943 85.14 17.6256 84.5879 16.2975 83.7859C16.1777 83.7025 16.2766 83.5307 16.3964 83.5515C19.1464 84.0515 22.636 85.5984 25.0006 87.3223C24.8912 86.8484 24.8235 86.3536 24.735 85.8223C24.7246 85.6973 24.6777 85.5827 24.6725 85.4577C24.61 85.5254 24.511 85.5463 24.4225 85.5359C24.3704 85.515 24.3027 85.5202 24.2766 85.5098C24.136 85.4838 23.985 85.3275 24.011 85.1817C23.8443 85.1452 23.6933 84.989 23.5579 84.7182C23.2193 84.4213 22.8652 84.0879 22.5371 83.765C22.0214 83.3015 21.4641 82.8536 20.9277 82.4473C19.6464 81.4473 18.235 80.614 16.7818 79.8848C16.3391 81.614 15.9954 83.3223 15.8131 85.0984ZM17.6464 76.3275C17.5787 76.64 17.485 76.9369 17.4173 77.2494L17.4433 77.2598C19.11 78.14 20.9381 78.8692 22.4746 79.9161C22.4641 79.8796 22.4485 79.8379 22.4329 79.8015C22.3548 79.7702 22.2714 79.6713 22.2506 79.5723C22.261 79.5463 22.2454 79.5098 22.2454 79.5098C21.0423 77.4317 19.5631 75.4265 18.261 73.5254C18.1204 74.4577 17.8808 75.4057 17.6464 76.3275ZM18.2975 71.0723C18.386 71.6661 18.3912 72.2546 18.3287 72.8484C19.5996 74.6088 21.011 76.4004 22.3027 78.265C22.4954 77.2077 23.0475 76.1088 23.6204 75.3275C21.7402 74.0567 19.9954 72.5515 18.2975 71.0723ZM25.1673 83.9682C25.6308 81.7546 26.36 79.5567 27.3964 77.5879C26.2089 77.0254 25.0943 76.3796 24.0371 75.6557C23.7975 76.239 23.5266 76.8067 23.3548 77.4421C23.1673 78.0411 23.136 78.7077 22.9746 79.3171C23.735 80.5307 24.4173 81.7702 24.9016 83.0567C25.0266 83.3536 25.11 83.6661 25.1673 83.9682ZM22.2402 80.5567C20.5162 79.8067 18.8912 78.6661 17.2818 77.7182C17.1204 78.3275 16.9589 78.9421 16.8235 79.5619C18.6673 80.3952 20.4746 81.3952 22.1204 82.5411C22.6204 82.9057 23.7298 83.4942 24.3652 84.1921C23.985 82.89 23.4225 81.5723 22.7089 80.3223C22.6725 80.489 22.4537 80.6452 22.2402 80.5567ZM12.4746 137.114C12.5214 136.859 12.5839 136.635 12.6568 136.39C12.7193 136.166 12.8912 136.114 13.0735 136.13C13.2454 135.864 13.4173 135.593 13.6048 135.301C10.0214 137.234 6.24018 137.937 2.31309 138.77C2.26101 140.078 2.31309 141.364 2.35997 142.65C2.39643 143.525 2.46934 144.39 2.54226 145.255C4.46413 143.895 6.95372 143.546 8.72455 141.817C9.15684 141.38 9.89122 141.9 9.52143 142.426C7.88601 144.645 4.72976 144.593 2.60997 146.051C2.7558 147.843 2.93288 149.64 3.01622 151.437C4.44851 150.15 5.92768 148.822 7.5683 147.994C7.68809 147.926 7.80788 147.942 7.92768 148.025C9.22455 144.244 10.5891 140.463 12.4746 137.114ZM7.52143 149.15C6.22455 150.4 4.58393 151.38 3.05788 152.38C3.09434 153.906 3.08393 155.416 2.92247 156.921C3.11518 156.755 3.30788 156.588 3.48497 156.385C4.07872 155.77 4.62559 155.13 5.21934 154.515C5.32872 154.406 5.42768 154.385 5.55268 154.38C6.26622 152.671 6.87559 150.916 7.52143 149.15ZM2.20893 160.848C3.14122 159.421 3.95893 157.906 4.70372 156.338C4.10997 156.953 3.47455 157.52 2.82351 157.963C2.66205 158.942 2.47455 159.911 2.20893 160.848ZM2.30788 138.119C3.7558 137.307 5.65163 137.203 7.21934 136.775C9.42247 136.15 11.4693 135.244 13.4589 134.161C13.7818 133.989 14.0631 134.197 14.1308 134.473C14.9277 133.385 15.7871 132.354 16.7975 131.416C13.0058 133.635 7.66726 132.15 3.56309 131.703C2.79747 133.76 2.44851 135.926 2.30788 138.119ZM150.407 21.9057C150.516 21.864 150.688 21.9629 150.626 22.1244C147.646 28.3796 148.693 33.9369 150.615 40.265C151.886 44.4004 152.725 48.8275 150.751 52.8171C156.402 53.4734 160.99 51.8692 165.204 47.614C165.787 47.0202 166.766 47.7077 166.245 48.4473C166.172 48.5411 166.115 48.6088 166.042 48.7025C166.891 58.2807 162.662 66.9473 157.652 74.8223C154.506 79.7754 149.115 88.6973 142.287 89.2442C148.761 93.1765 151.537 101.989 154.688 108.484C154.938 108.994 154.141 109.432 153.839 108.963C153.797 108.916 153.766 108.843 153.699 108.786C153.672 108.77 153.636 108.791 153.61 108.775C153.324 108.718 153.016 108.65 152.719 108.619C153.042 108.88 152.688 109.442 152.292 109.275C151.725 109.01 151.204 108.703 150.672 108.354C146.428 107.942 142.245 108.359 137.954 108.296C135.381 108.239 132.933 107.531 130.672 106.432C130.824 106.588 130.881 106.828 130.782 107.062C130.021 109.031 127.219 109.312 125.402 109.541C123.959 109.739 122.766 109.708 121.662 109.4C121.49 109.515 121.271 109.515 121.12 109.296C121.105 109.26 121.079 109.249 121.063 109.213C120.615 109.025 120.178 108.812 119.74 108.536C119.771 108.609 119.771 108.676 119.803 108.749C120.495 110.796 122.021 112.02 122.912 113.874C123.344 114.76 123.303 115.453 122.818 116.176C122.782 116.255 122.735 116.296 122.678 116.364C122.667 116.39 122.652 116.416 122.615 116.432C122.485 116.593 122.297 116.609 122.152 116.515C118.652 116.843 115.792 119.26 112.209 119.187C110.074 119.13 107.829 118.749 105.672 118.067C105.574 118.088 105.459 118.067 105.402 117.984C103.99 117.52 102.636 116.921 101.386 116.218C101.251 116.468 101.079 116.734 100.886 116.963C104.105 118.494 107.334 120.671 110.193 122.76C112.376 124.348 113.839 126.161 114.438 128.791C115.152 131.895 116.35 135.973 115.725 139.171C115.219 141.859 113.12 143.635 111.058 145.182C111.1 145.229 111.115 145.27 111.12 145.333C112.261 149.848 111.094 156.859 105.235 157.072C102.6 157.176 100.167 155.76 98.3964 153.942C95.5943 151.109 93.2871 147.921 90.4589 145.078C90.735 147.749 90.6673 150.499 91.2923 153.078C91.386 153.515 90.6673 153.682 90.5266 153.281C89.2714 149.333 89.9798 144.968 88.386 141.098C86.9641 137.63 84.0996 134.588 81.3131 131.791C82.5996 134.176 83.5683 136.739 84.1516 139.484C84.2298 139.89 83.61 139.968 83.5318 139.567C82.2402 134.458 79.4589 129.874 75.7923 126.093C73.3027 123.546 70.3235 121.744 67.5266 119.713L67.5423 119.755C68.11 120.76 68.6568 121.822 69.2089 122.854C69.4433 123.046 69.6464 123.223 69.8756 123.411C71.9381 125.041 74.1933 126.447 76.1464 128.275C78.5214 130.499 80.1777 133.109 80.3756 136.338C80.4641 136.343 80.5527 136.348 80.6464 136.354C81.485 136.551 81.6256 137.781 80.7141 137.958C80.6152 138.13 80.4225 138.296 80.1568 138.343C80.1568 138.343 80.1308 138.333 80.1204 138.359C79.735 138.536 79.2923 138.63 78.8704 138.609C79.1048 139.755 79.2975 140.916 79.5996 141.968C80.4016 144.926 81.3808 147.833 82.4433 150.682C82.5527 150.942 82.1516 151.088 82.0371 150.854C80.2246 146.765 78.9537 142.624 77.8339 138.359C77.7818 138.338 77.7037 138.307 77.6464 138.286C77.1308 137.973 77.0475 137.291 77.4693 136.942C77.4121 136.708 77.3339 136.453 77.2766 136.218C76.4433 132.968 73.8496 129.786 71.0943 127.067C71.3287 127.624 71.5318 128.171 71.735 128.718C73.3912 130.583 75.011 132.4 75.7975 134.89C77.011 138.697 77.9225 143.025 77.7506 147.213C78.235 148.494 78.6568 149.781 79.0371 151.083C81.6933 160.182 81.8131 170.104 78.9068 179.135C80.2298 179.442 81.6464 179.755 82.9641 179.843C82.8079 179.775 82.6829 179.63 82.7246 179.463C83.3287 176.755 84.1412 174.067 84.7714 171.369C84.8183 171.114 85.2402 171.135 85.1829 171.416C84.7089 174.182 84.261 176.958 83.4485 179.645C83.4068 179.749 83.3443 179.817 83.2714 179.848C83.9746 179.864 84.6725 179.817 85.3027 179.645C85.1933 179.536 85.1568 179.4 85.2506 179.249C88.8496 172.546 89.1516 165.979 88.2454 158.531C88.2298 158.343 88.5214 158.307 88.5371 158.499C89.5527 165.312 90.3912 173.437 86.0996 179.359C86.2558 179.27 86.4068 179.213 86.5787 179.098C87.5423 178.484 88.1881 177.453 89.0058 176.682C89.9068 175.854 91.1152 175.249 91.9173 174.286C95.6621 169.739 94.2818 161.885 91.7402 157.244C91.3756 156.567 92.485 156.135 92.8235 156.801C93.6152 158.301 94.3131 160.109 94.7506 162.015C95.5006 160.88 96.4902 159.687 97.6308 158.958C96.1933 158.854 94.7871 158.671 93.5058 157.671C93.1829 157.411 93.5735 156.926 93.9068 157.161C96.0891 158.656 99.0318 157.598 101.454 158.15C102.532 158.38 103.568 158.843 104.542 159.406C107.183 160.906 109.537 163.4 110.865 166.145C111.042 166.531 110.792 166.828 110.454 166.9C110.553 166.968 110.672 167.051 110.792 167.135C111.089 167.38 110.792 167.937 110.438 167.76C109.126 167.057 107.464 167.411 105.704 168.005C105.761 168.244 105.589 168.51 105.271 168.38C105.167 168.338 105.089 168.301 104.985 168.26C103.303 168.885 101.626 169.572 100.24 169.645C99.5162 169.682 98.7454 169.604 98.0318 169.463C99.11 171.239 99.9173 173.15 100.365 175.187C100.725 176.911 100.787 178.697 100.433 180.432C99.8756 183.317 98.0631 185.953 99.8912 188.906C100.047 189.187 99.8496 189.447 99.6048 189.437C99.7871 189.822 99.4381 190.354 98.9381 190.145C97.0527 189.265 95.4068 187.963 94.11 186.343C93.5475 188.421 91.7818 189.781 90.2506 191.301C87.1516 194.301 84.5579 196.89 84.4537 201.505C84.4381 201.838 83.8756 201.854 83.8652 201.51C83.8496 201.317 83.8496 201.098 83.8652 200.921C83.5371 201.031 83.11 200.947 82.9068 200.551C79.9277 194.744 76.9016 185.583 83.5162 180.968L83.5527 180.953C81.9173 180.947 80.1152 180.536 78.5006 180.109C78.2246 180.921 77.9225 181.718 77.5839 182.536C77.7923 182.926 77.9225 183.354 78.0006 183.76C78.0683 184.187 77.7298 184.63 77.2975 184.697C76.0683 184.833 74.9798 184.197 74.4589 183.083C74.1829 182.473 74.6829 181.942 75.2558 181.906C75.2193 181.395 75.7558 180.848 76.2871 181.13C76.6204 181.301 76.8912 181.536 77.1152 181.812C77.3131 181.187 77.485 180.551 77.6568 179.911C77.1256 179.781 76.6308 179.64 76.1881 179.515C75.7089 179.411 75.7714 178.666 76.3027 178.729C76.8027 178.786 77.3496 178.885 77.9173 178.999C80.3652 169.499 80.3912 159.822 77.3443 150.406C77.1308 151.52 76.8235 152.624 76.3808 153.676C76.3391 153.781 76.2923 153.822 76.2037 153.88C76.4173 154.338 76.6621 154.781 76.5943 155.312C76.5266 155.775 76.0683 155.984 75.6829 155.791C75.6933 156.442 74.761 156.609 74.6204 155.906C74.4016 154.796 74.2871 153.666 74.0318 152.578C73.8339 151.723 75.1204 151.453 75.4537 152.208C75.5423 152.432 75.6464 152.63 75.7402 152.854C76.2402 151.275 76.4798 149.676 76.5214 148.088C76.5058 148.051 76.4902 148.015 76.4746 147.979C75.7141 145.963 74.7923 144.098 73.7871 142.291C73.3912 148.203 71.0162 155.083 65.1412 157.322C65.0318 157.369 64.9433 157.359 64.8652 157.328C64.8704 157.453 64.8808 157.583 64.9016 157.682C64.9693 158.114 65.1568 158.468 65.011 158.9C64.9485 159.124 64.6412 159.27 64.4433 159.218C63.9121 159.088 63.6881 158.661 63.5787 158.182C62.7141 157.447 62.3079 156.203 62.3964 155.098C62.4329 154.645 62.9277 154.421 63.3339 154.562C64.1568 154.874 64.5527 155.624 64.7402 156.442C64.7402 156.505 64.7454 156.572 64.761 156.609C64.7975 156.593 64.8131 156.567 64.8496 156.551C70.6985 153.468 72.6516 146.354 72.511 140.031C71.0683 137.64 69.4693 135.333 67.8652 132.968C65.4173 129.359 64.2089 125.676 63.4433 121.593C63.4016 121.76 63.3652 121.926 63.3235 122.098C63.9068 125.52 63.9589 129.088 63.7975 132.505C63.9589 132.484 64.1048 132.51 64.261 132.578C64.7714 132.76 65.0214 133.421 64.8131 133.921C64.5943 134.442 64.011 134.666 63.4746 134.468C62.9641 134.286 62.7141 133.63 62.9225 133.13C62.9641 133.025 63.0371 132.932 63.1048 132.838C63.1048 130.4 62.8912 128.025 62.5996 125.682C62.0683 128.515 61.4693 131.291 60.0423 133.812C60.2871 134.343 59.886 135.01 59.2298 134.953C58.985 134.942 58.8027 134.869 58.6256 134.703C58.011 134.171 58.4068 133.223 59.2298 133.255C59.3183 133.26 59.4068 133.27 59.511 133.312C60.3183 131.301 60.6829 129.328 60.9433 127.213C58.9693 129.505 57.1256 131.854 55.2662 134.317C52.4329 138.072 49.2245 141.703 47.0735 145.895C46.9277 146.176 46.5318 146.01 46.6256 145.713C48.261 141.426 51.4329 137.812 54.1308 134.156C55.4173 132.406 56.7089 130.416 58.136 128.541C58.0423 128.624 57.9589 128.682 57.86 128.765C57.3183 129.406 56.7662 129.979 56.1829 130.567C53.6933 133.14 51.2871 135.869 47.6464 136.604C47.6621 136.64 47.6412 136.692 47.6308 136.718C48.0683 137.15 47.636 138.046 46.9485 137.76C46.7141 137.661 46.4485 137.551 46.2141 137.453C45.9485 137.343 45.7662 137.051 45.8235 136.765C45.8808 136.484 45.9485 136.234 46.1568 136.041C46.3704 135.822 46.6308 135.713 46.9485 135.848C47.1048 135.911 47.261 135.979 47.3704 136.088C47.4173 136.046 47.4693 136.005 47.5423 135.973C50.5423 135.218 52.9433 133.01 55.0423 130.708C52.5943 132.218 49.9641 133.494 47.3391 134.531C42.6048 136.411 37.6985 137.453 33.2714 140.078C33.0266 140.223 32.7871 139.911 33.0162 139.729C36.5162 136.958 40.86 135.869 44.9798 134.348C49.5735 132.656 53.61 130.234 57.6777 127.578C58.8079 126.046 59.7037 124.416 60.5475 122.76C58.5787 125.27 56.3027 127.468 53.2141 128.588C53.2766 128.734 53.287 128.926 53.1985 129.135C53.1881 129.161 53.1777 129.192 53.1673 129.218C52.7662 130.098 51.4277 129.541 51.7766 128.635C51.7871 128.609 51.7975 128.583 51.8079 128.557C51.8183 128.531 51.8287 128.505 51.8287 128.505C51.8183 128.374 51.9016 128.255 52.0527 128.197C52.1152 128.192 52.162 128.15 52.1985 128.135C54.1568 127.437 55.7506 126.281 57.1464 124.859C56.5735 125.114 56.0162 125.343 55.5214 125.572C52.6048 126.791 49.7193 127.932 46.5214 127.989C46.485 128.005 46.4589 127.989 46.4068 127.968C46.412 128.031 46.3964 128.062 46.3756 128.114C46.2506 128.708 45.6412 129.135 45.037 128.88C44.4329 128.63 44.2975 127.921 44.6412 127.39C44.662 127.338 44.7141 127.296 44.7245 127.27C45.1725 126.775 45.8443 126.869 46.1568 127.312C46.2037 127.27 46.2766 127.239 46.3443 127.234C50.9277 127.109 55.8027 125.041 59.4068 122.098C59.4277 122.046 59.4746 122.005 59.485 121.979C56.2975 123.333 52.8704 123.937 49.36 123.77C49.3548 123.859 49.3443 123.953 49.3131 124.031C49.0058 124.765 47.8495 124.281 48.1568 123.546C48.1673 123.52 48.1777 123.494 48.2141 123.479C48.1516 123.265 48.2923 122.926 48.6256 122.942C51.9381 122.994 55.1256 122.38 58.0943 121.182C57.8496 121.171 57.6308 121.171 57.4173 121.176C53.7089 121.109 50.1673 120.499 46.8756 118.848C46.6464 119.182 46.2506 119.39 45.8027 119.203C45.3548 119.015 45.1933 118.515 45.3443 118.083C45.3548 118.057 45.3652 118.031 45.3756 118.005C45.511 117.536 46.11 117.354 46.5318 117.531C46.7662 117.63 46.9746 117.869 47.0475 118.145C50.4121 119.765 55.2506 120.89 59.5162 120.572C59.6412 120.499 59.7558 120.453 59.8756 120.38C57.2662 119.911 54.6568 118.39 52.5266 117.067L52.5162 117.093C52.1516 117.963 50.8131 117.406 51.1725 116.536C51.2714 116.301 51.4433 116.187 51.6464 116.145C51.7141 116.051 51.8287 116.005 51.9485 116.088C53.3391 116.822 55.0475 117.749 56.8027 118.421C53.9954 117.093 51.2766 115.406 48.7193 113.843C44.985 111.546 41.636 108.916 38.5735 105.76C38.4225 105.604 38.6881 105.343 38.8391 105.499C42.0787 108.609 45.787 111.176 49.6568 113.437C53.2089 115.505 57.2298 116.963 60.5787 119.286C60.761 119.301 60.9746 119.296 61.1673 119.286C59.61 118.572 58.0631 117.406 56.9641 116.854C53.9225 115.275 50.7975 113.817 48.4277 111.286C48.2089 111.072 48.5787 110.703 48.8079 110.89C50.9902 112.911 53.7193 113.989 56.3704 115.249C57.4277 115.749 59.6204 117.218 61.5006 118.036C61.5371 117.958 61.5943 117.89 61.6516 117.822C59.2558 116.02 57.4693 113.578 56.1048 110.848C55.9902 110.614 56.36 110.463 56.4798 110.697C57.5787 112.729 59.0162 114.374 60.7298 115.739C58.2141 112.005 55.3756 108.385 52.7766 104.77C52.6516 104.562 52.9277 104.338 53.0943 104.531C55.0214 107.093 56.9902 109.614 58.9173 112.176C59.6308 113.119 60.4641 114.083 61.261 115.067C60.7298 113.671 60.485 112.119 60.3235 110.572L60.2975 110.562C59.636 110.223 59.7506 109.437 60.2402 109.15C60.3183 108.963 60.6204 108.906 60.735 109.078C60.7975 109.072 60.8496 109.093 60.9121 109.088C60.9381 109.098 60.9641 109.109 60.9902 109.119C61.7245 109.364 61.537 110.338 60.9902 110.604C61.3027 112.676 61.8131 114.77 63.0371 116.426C63.0162 116.322 63.0266 116.234 63.0475 116.182C63.0527 114.609 63.485 113.062 64.1829 111.687C63.9746 111.88 63.5787 111.807 63.5266 111.473C63.2766 109.489 62.3287 107.765 61.9016 105.828C61.485 104.02 62.0787 102.598 62.3756 100.843C62.7766 98.4786 62.3183 96.0359 60.9537 94.0463C59.3964 91.7911 57.0579 91.0359 54.787 89.7494C52.886 88.6765 51.5318 86.5984 49.5058 85.7546C47.1412 84.7702 44.7714 85.5723 42.5318 86.4265C45.7141 89.4525 48.9485 92.4994 51.6152 96.015C51.7975 96.2494 51.4225 96.5515 51.2506 96.2963C48.4485 92.8119 44.9173 89.9525 41.7037 86.8536C41.6829 86.8432 41.6673 86.8067 41.6516 86.7702C40.1308 87.3067 38.8287 87.3171 37.1777 87.4317C35.6516 87.5359 34.2298 88.0567 33.0371 88.8536C38.4954 92.489 43.4068 97.2807 47.1777 102.588C47.2766 102.723 47.0579 102.88 46.9589 102.744C42.8235 97.3484 37.3079 93.7807 32.2923 89.3744C31.5891 89.9473 30.985 90.588 30.4746 91.364C30.2662 91.6505 29.735 91.364 29.9277 91.0463C30.9225 89.3275 32.1204 88.0098 33.9173 87.1869C34.7714 85.2859 35.7558 83.4473 36.6985 81.5567C35.0266 80.5202 33.11 79.8744 31.0943 79.1557C29.3548 83.0307 28.1204 86.9577 26.761 90.9577C26.8756 91.1921 27.0058 91.4005 27.1256 91.6348C27.2714 91.7286 27.3443 91.8484 27.3652 92.0098C27.4798 92.1817 27.61 92.39 27.7506 92.5723C27.7454 92.5098 27.7506 92.4213 27.8131 92.3536C29.8652 88.4577 31.8287 84.4942 33.7923 80.5307C33.9485 80.2234 34.4225 80.4213 34.2923 80.739C32.7402 84.7494 30.9381 88.6296 28.9277 92.4161C29.1152 92.338 29.3339 92.4005 29.4381 92.5984C30.0475 93.6557 31.5683 94.4421 32.5266 95.1817C33.5787 95.989 34.6412 96.838 35.7454 97.6036C35.8652 97.6869 35.7402 97.9109 35.6048 97.8536C34.2662 97.0775 32.9121 96.3275 31.6204 95.4213C30.9016 94.9369 29.8912 94.39 29.2402 93.6609C28.8131 95.7963 29.3912 98.0411 28.261 100.01C27.3496 101.604 26.0162 102.864 25.7402 104.786C25.7298 104.817 25.7298 104.817 25.7193 104.838C25.9746 104.671 26.4329 104.765 26.4329 105.135C26.4329 106.312 30.9693 109.13 31.8391 109.77C33.9381 111.322 36.11 112.781 38.4798 113.895C38.6673 113.973 38.5475 114.26 38.36 114.187C35.1777 112.796 32.3287 111.114 29.5579 109.031C28.6152 108.333 26.4381 107.27 25.7454 105.963C25.7246 106.015 25.6881 106.031 25.6412 106.072C25.6516 107.156 25.8027 108.27 25.9746 109.265C26.1152 110.036 26.3548 110.718 26.6725 111.286C27.5266 111.828 28.3808 112.369 29.2975 112.843C29.7714 113.104 29.4641 113.838 28.9641 113.63C28.7818 113.557 28.61 113.453 28.4225 113.374C29.9537 114.598 31.9433 115.364 33.761 116.557C37.0058 118.619 40.3287 121.453 44.3912 119.786C44.7714 119.604 45.0162 120.203 44.6308 120.38C41.7089 121.843 38.7714 120.744 36.2193 119.031C36.0266 118.89 35.8287 118.775 35.6412 118.635C35.6152 118.781 35.5318 118.9 35.3235 118.874C32.4329 118.411 30.9173 123.083 28.8704 124.515C27.5318 125.437 26.1568 125.697 25.0787 127.098C24.1256 128.275 23.8808 129.593 23.4016 130.963C22.5318 133.499 20.9173 135.666 20.7766 138.447C20.7454 138.958 20.7818 139.468 20.8287 139.953C22.2246 138.312 24.4068 137.432 26.2558 136.411C29.011 134.906 31.8183 133.426 34.5891 131.958C34.7506 131.874 34.8808 132.145 34.735 132.203C32.4693 133.572 30.1881 134.968 27.9225 136.338C25.7871 137.604 22.9121 138.723 21.3652 140.729C21.2506 140.864 21.0996 140.926 20.9589 140.9C21.3287 142.812 22.2506 144.525 23.4016 146.208C23.6725 146.598 23.1516 147.182 22.7714 146.838C20.7714 144.895 19.7506 142.093 19.6881 139.354C19.6204 137.223 20.3131 135.416 21.11 133.65C21.0683 133.604 21.0527 133.567 21.011 133.515C20.4016 132.244 20.1621 130.817 20.2558 129.406C16.9381 131.604 14.6985 134.525 12.9954 137.796C12.4381 143.796 15.4746 150.275 17.1829 155.864C17.2818 156.15 16.8235 156.359 16.735 156.046C15.4173 152.104 13.9381 148.187 12.7871 144.218C12.3808 142.817 12.0527 141.38 11.9589 139.984C9.19851 146.301 7.83393 153.572 4.28705 159.494C5.84434 158.416 7.65163 157.63 9.40684 157.281C9.77142 157.218 10.136 157.15 10.4902 157.114C9.74018 153.067 9.6933 148.083 10.6777 144.234C10.7558 143.895 11.2662 143.864 11.3027 144.218C11.8391 148.484 10.7089 152.671 11.5162 156.958C13.2037 156.828 14.9068 156.89 16.5996 156.671C19.2818 156.307 21.2193 155.14 23.0735 153.505C21.0683 149.583 19.1256 145.442 17.6048 141.322C16.5839 138.583 15.6985 135.312 16.9589 132.505C17.0996 132.161 17.5996 132.307 17.5735 132.666C16.8704 140.119 20.9381 146.354 23.5475 153.119C23.761 152.895 24.0006 152.687 24.2141 152.468C24.2454 151.281 24.4068 150.083 24.6464 148.916C24.7402 148.557 25.2662 148.619 25.2037 148.994C25.0527 149.953 24.9537 150.989 24.9641 152.01C26.985 150.265 29.2766 148.843 31.7402 147.744C34.7193 146.453 38.5214 146.124 40.6621 143.442C40.7923 143.275 41.0475 143.479 40.9173 143.64C39.3287 145.755 37.0631 146.38 34.6725 147.296C31.1152 148.65 28.0683 150.624 25.1568 153.02C25.0996 153.088 25.0787 153.14 25.0214 153.208C25.2298 155.364 25.9746 157.432 27.61 158.76C28.886 156.145 31.2193 154.838 33.0891 152.718C33.2818 152.489 33.6308 152.755 33.4693 152.999C32.7246 154.046 31.7506 154.749 30.8964 155.687C29.886 156.781 29.1412 158.041 28.4016 159.307C28.8235 159.546 29.2975 159.744 29.8443 159.911C31.3652 160.328 32.8027 159.848 34.3131 159.921C35.5839 159.989 36.735 160.406 37.9121 160.838C39.5475 161.426 41.136 161.843 42.7246 161.947C42.735 161.921 42.735 161.921 42.7454 161.895C45.1568 159.817 47.5423 157.723 49.6777 155.343C51.2298 153.619 52.5527 151.703 54.3131 150.15C54.5006 149.984 54.7818 150.286 54.6152 150.463C50.9485 154.213 48.3027 158.567 44.2714 161.947C46.0475 161.822 47.8027 161.322 49.5162 160.244C52.5266 158.354 53.9225 155.447 55.8443 152.609C55.9277 152.489 56.037 152.442 56.1829 152.473C56.5787 150.635 57.1412 148.833 57.8287 147.114C59.6256 142.583 61.9225 136.416 65.9798 133.416C66.2923 133.176 66.6568 133.64 66.36 133.916C62.7454 137.249 60.8079 142.494 59.0996 147.025C57.5371 151.218 56.4537 155.671 57.1048 160.171C57.7402 164.567 59.7714 167.76 63.1985 170.489C63.2662 170.546 63.3079 170.598 63.36 170.619C63.9589 168.89 64.9746 167.494 66.0683 165.979C67.7246 163.708 68.5839 161.286 69.5266 158.656C69.5787 158.525 69.7714 158.572 69.7454 158.718C69.2766 160.65 68.8912 162.619 67.9641 164.39C66.7246 166.775 64.8496 168.676 64.1516 171.317C64.3443 171.52 64.5475 171.697 64.7298 171.926C65.011 171.182 65.6881 170.661 66.235 170.025C67.1985 168.885 68.0318 167.63 68.6568 166.286C68.7662 166.02 69.1881 166.197 69.0787 166.458C68.0891 168.76 66.6464 170.505 65.261 172.583C65.6308 173.015 65.9589 173.489 66.3704 174.062C68.0787 176.473 70.0735 177.614 73.0318 177.921C73.6464 177.994 73.6621 178.989 73.0423 179.005C71.0527 179.041 69.2454 178.562 67.5787 177.374C65.4173 175.828 64.4121 173.275 62.2975 171.624C58.9746 169.005 56.7975 165.937 55.9329 161.718C55.5318 159.729 55.4798 157.703 55.636 155.703C52.7975 161.921 44.636 164.843 38.3443 162.312C36.6256 161.63 35.3183 160.989 33.3131 160.984C32.3548 160.989 31.4173 161.244 30.4381 161.145C28.8183 160.963 27.36 160.171 26.2558 158.968C24.985 157.578 24.3756 155.932 24.1777 154.182C22.136 156.416 19.1152 157.593 16.11 157.854C14.61 157.968 13.1048 157.958 11.6152 158.046C11.5943 158.317 11.1152 158.426 11.0318 158.114C11.0318 158.114 11.0423 158.083 11.0162 158.072C10.4433 158.114 9.88601 158.192 9.33913 158.333C6.29226 158.973 4.29747 160.578 2.1308 162.729C1.81309 163.062 1.26101 162.676 1.55268 162.275C1.53705 162.234 1.52143 162.197 1.52143 162.197C1.0058 162.479 0.16205 161.911 0.406842 161.176C1.22976 158.531 1.47976 155.859 1.50059 153.15C1.39122 153.041 1.34955 152.838 1.49538 152.713C1.48497 147.187 0.516217 141.598 1.36518 136.088C1.62038 134.437 2.02663 132.942 2.58913 131.604C2.43809 131.447 2.51622 131.109 2.79747 131.104C4.82872 126.676 8.5683 123.916 13.7506 122.005C14.11 121.874 14.3496 122.406 13.9798 122.562C9.79226 124.395 5.94851 126.275 3.93809 130.656C3.87559 130.812 3.80788 130.968 3.74018 131.13C6.08913 131.27 8.37038 131.791 10.7506 131.708C13.1673 131.604 15.2923 130.515 17.6464 130.265C17.7766 130.255 17.8964 130.333 17.9016 130.463C18.7506 129.765 19.6881 129.14 20.6881 128.598C20.9329 128.453 21.1881 128.807 21.0371 129.02C21.2298 129.072 21.3808 129.229 21.3756 129.468C21.3443 130.572 21.4954 131.619 21.7714 132.661C22.1464 131.833 22.5006 130.989 22.7975 130.124C23.0162 129.447 23.2558 128.807 23.5423 128.187C22.886 128.067 22.2558 127.864 21.6516 127.614C21.6516 127.765 21.5579 127.916 21.386 128.025C16.8027 130.218 11.7871 128.932 7.16726 127.432C6.86518 127.338 7.02143 126.817 7.29226 126.9C11.8443 128.057 16.3235 129.218 20.7975 127.223C18.9016 126.218 17.2402 124.661 15.6516 123.291C12.4589 120.51 9.31309 118.364 5.22455 117.739C4.45372 117.88 3.71934 117.942 3.0058 117.953C2.5683 117.958 2.5683 117.218 3.01622 117.187C3.01622 117.187 3.04226 117.197 3.05268 117.171C3.07872 117.031 3.16205 116.911 3.31309 116.911C3.81309 116.9 4.27143 116.911 4.74538 116.953C4.84955 116.932 4.98497 116.9 5.08913 116.88C5.03705 116.859 4.99538 116.869 4.9433 116.848C4.60997 116.77 4.66205 116.27 5.01101 116.322C5.50059 116.4 6.03184 116.468 6.52143 116.551C9.99018 115.619 13.5891 113.88 16.3391 112.161C18.261 110.958 19.8339 109.484 21.3704 107.869C21.3808 107.843 21.4277 107.801 21.4693 107.786C21.4798 107.76 21.5162 107.744 21.5266 107.718C21.5371 107.692 21.5735 107.676 21.5735 107.676C17.9068 106.703 16.1777 102.713 15.261 98.6244C15.2037 98.5411 15.1725 98.4682 15.2141 98.364C14.6933 95.9838 14.4954 93.588 14.3548 91.7702C14.0943 88.1765 14.3183 84.5359 15.0058 80.9629C15.7818 77.0307 16.9121 73.5827 16.7871 69.5202C16.7766 69.0202 17.3756 68.8379 17.6256 69.2807C17.7975 69.6036 17.9121 69.9265 18.011 70.2754C22.8443 74.0827 27.2766 76.765 33.2506 78.4213C37.235 79.5254 40.1881 81.8379 42.0683 85.4629C44.0839 84.6973 45.9902 83.9786 48.2089 84.2911C50.6829 84.64 51.9902 86.239 53.8079 87.7338C53.8287 87.7442 53.8496 87.7807 53.8756 87.7911C55.0735 86.3171 56.5006 85.3379 58.3548 84.8171C58.3548 84.8171 58.3912 84.8015 58.4173 84.8119C55.1881 83.7442 51.9537 82.489 49.5214 80.0254C48.8756 79.3536 48.2923 78.6765 47.9068 77.8379C47.0579 76.0932 46.3652 74.7286 44.9537 73.3067C41.6048 69.9317 40.7714 64.6817 43.0631 60.515C43.4745 59.7598 44.735 60.2859 44.2975 61.0307C44.1881 61.2286 44.0996 61.4369 43.985 61.64C46.6621 62.5411 49.412 63.7182 51.9329 64.9213C52.2089 65.0671 52.0475 65.4629 51.7454 65.3692C49.0735 64.5307 46.2454 63.5411 43.6412 62.39C43.5214 62.6765 43.4016 62.9682 43.3027 63.2702C46.2193 65.0098 48.9537 66.3015 52.2818 67.1973C55.0787 67.9629 57.8443 68.6557 60.5162 69.7963C60.8548 69.9421 60.636 70.4682 60.2975 70.3223C55.0162 68.1817 47.4433 68.14 43.0631 64.0619C42.6725 65.7494 42.7141 67.4942 43.3548 69.2129C44.2141 71.515 46.0266 72.5775 47.4433 74.4369C49.0162 76.5098 49.0839 78.6348 51.2975 80.4265C53.5579 82.2598 56.386 83.3171 59.0162 84.4161C59.1464 84.4682 59.1777 84.5463 59.1881 84.6713C59.7141 84.5827 60.2714 84.5098 60.7558 84.3067C61.5996 83.9161 61.86 83.2859 62.5631 82.9317C63.3079 82.5619 63.8443 82.3848 64.6673 82.3275C68.4121 82.0098 71.7193 84.2807 74.11 87.0671C74.2193 87.0202 74.36 86.989 74.5006 87.015C75.5318 87.1348 76.5214 87.2754 77.511 87.3432C78.5631 86.3015 79.6725 85.3484 80.9173 84.5723C80.9589 84.5567 80.9693 84.5307 81.0058 84.515C80.8183 84.4369 80.61 84.3484 80.4277 84.2754C78.9537 84.5515 77.5006 84.9317 76.0475 85.2234C75.9485 85.2442 75.8704 85.2129 75.7923 85.1765C75.5683 85.2702 75.3027 85.3119 75.0683 85.2129C74.6204 85.0307 74.3912 84.4682 74.5787 84.0254C74.761 83.5775 75.3235 83.3484 75.7662 83.5359C76.0839 83.6661 76.2871 83.9942 76.3339 84.3223C77.1725 84.0879 78.0579 83.8119 78.9485 83.5307C77.4329 82.7182 76.0058 81.7807 74.5735 80.8432C72.1881 80.1296 69.7454 79.6973 67.1777 80.0098C67.1829 80.0775 67.1464 80.1557 67.1256 80.2077C66.7089 81.2077 65.1568 80.5567 65.5735 79.5619C65.7506 79.14 66.1152 79.015 66.4589 79.0671C68.2558 78.765 70.0162 78.7598 71.7558 79.0202C70.9693 78.5411 70.1621 78.1088 69.3183 77.6973C66.4902 76.3327 63.9121 75.9317 60.8443 75.89C59.4016 75.8744 58.1412 75.7807 56.8027 75.2234C56.5943 75.1348 56.6673 74.7338 56.9121 74.8067C59.2506 75.4109 61.5683 74.8952 63.9433 75.114C65.7558 75.2859 67.5162 75.864 69.1777 76.6192C71.1308 77.4942 73.0006 78.5515 74.8391 79.6921C76.3548 80.1973 78.0162 80.9525 79.6829 81.6192C76.2818 78.5307 72.5475 75.864 68.7558 73.265C68.735 73.3171 68.7506 73.3536 68.7298 73.4057C68.3652 74.2754 67.0266 73.7182 67.386 72.8484C67.5943 72.3484 68.1308 72.3275 68.4537 72.5827C68.5266 72.5515 68.6204 72.5619 68.6881 72.6192C73.4381 75.6504 78.2037 78.6557 82.3443 82.4838C82.3964 82.5046 82.4641 82.4994 82.5162 82.5202C79.5891 79.6973 76.6881 77.0359 73.4381 74.5411C72.9798 75.1192 71.8756 74.5984 72.2037 73.8067C72.4537 73.2025 73.1881 73.2963 73.4746 73.7234C76.8079 76.0046 80.1308 78.6869 83.0006 81.5827C83.0162 81.4629 83.0475 81.3223 83.0631 81.2077C83.0006 81.0567 82.9381 80.9109 82.8704 80.7859C79.1256 77.7754 75.6256 74.4057 71.9902 71.2807C71.7871 71.1036 71.5735 70.9525 71.3704 70.7754C70.3548 70.1661 69.3235 69.614 68.2246 69.0619C68.2037 69.114 68.1933 69.1452 68.1725 69.1973C67.985 69.64 67.4537 69.8848 66.9798 69.6869C66.5318 69.4994 66.3027 68.9421 66.4902 68.4942C66.6725 68.0463 67.2089 67.8067 67.6829 68.0046C67.8652 68.0827 68.0162 68.2338 68.1308 68.4057C68.3131 68.4838 68.4954 68.5619 68.6829 68.6348C65.3391 66.2234 61.8235 64.2963 57.9589 62.5307C57.6725 62.4109 57.8704 61.9369 58.1568 62.0567C63.0995 64.1192 67.61 66.4004 71.735 69.8171C72.1308 70.1348 72.5371 70.4942 72.9277 70.8119C75.761 72.4525 78.5006 74.3952 80.9121 76.6713C80.6985 76.3015 80.4798 75.9317 80.2506 75.5932C78.6777 73.3015 75.7923 69.9369 73.1152 68.6661C73.0371 68.6973 72.9537 68.7494 72.8912 68.7546C72.8496 68.7702 72.8287 68.7598 72.8131 68.7859C72.1985 68.9317 71.7766 67.9525 72.3235 67.5932C72.36 67.5775 72.3704 67.5515 72.4016 67.5671C72.7662 67.3484 73.2558 67.4265 73.4277 67.8379C73.4589 67.9109 73.4746 68.015 73.4693 68.1036C76.0266 69.2286 78.3027 71.9057 80.11 73.864C81.4485 75.3171 82.5839 77.1817 83.5058 79.1088C83.5475 78.9421 83.5839 78.7702 83.6152 78.6296C83.2766 77.6557 82.9329 76.7077 82.485 75.7807C81.5214 73.8067 80.2714 71.989 78.8912 70.2702C78.3183 70.6817 77.3235 70.1088 77.6516 69.3223C77.9381 68.64 78.7766 68.7754 79.0839 69.2129C79.2037 69.2286 79.3079 69.2754 79.4173 69.3796C80.9329 71.1557 82.5318 73.3015 83.735 75.5932C83.6412 75.1557 83.5527 74.7129 83.3912 74.2754C82.485 71.6452 80.5787 69.1869 79.0527 66.8536C78.5058 67.4265 77.3027 66.8327 77.6725 65.9369C78.0475 65.0463 79.2923 65.4682 79.3027 66.2494C79.36 66.2702 79.4121 66.2911 79.4537 66.3379C81.1516 68.7754 83.2818 71.2077 84.3704 74.0046C84.386 73.6713 84.4277 73.3536 84.4433 73.0202C84.5475 69.8848 83.3131 66.9942 82.1985 64.1192C80.2923 59.2859 78.8339 54.2025 79.2662 48.9525C79.2714 48.864 79.2975 48.8119 79.3443 48.7702C78.6881 47.8171 77.9537 46.9213 77.36 45.9057C77.2298 45.6973 77.2662 45.4629 77.4225 45.3119C77.5423 44.6557 78.3912 44.239 78.886 44.9057C79.2402 45.3952 79.4902 45.9004 79.9121 46.2911C80.2662 46.6244 80.6933 46.864 81.011 47.2129C81.6048 47.8588 81.8027 48.8692 81.1725 49.5619C80.8391 49.9161 80.1725 50.0411 79.8548 49.5411C79.8391 49.4994 79.8131 49.489 79.7975 49.4525C79.5214 56.0359 82.6204 61.1817 84.8548 67.1452C86.261 70.8796 86.0683 74.7442 85.3964 78.5723C85.4121 78.8223 85.4329 79.0775 85.4485 79.3327C86.0735 78.2025 86.7246 77.0879 87.3756 75.9682C87.7975 74.0775 87.9537 72.14 87.8183 70.1036C87.5631 66.7911 86.2506 63.6504 86.2871 60.3067C85.9381 59.8848 85.7402 59.4004 85.7402 58.8119C85.485 58.3067 85.0214 57.4942 85.6725 57.1192C86.36 56.7234 86.8079 57.6504 87.0423 58.1192C87.4225 58.7702 87.761 59.4369 88.0631 60.1192C88.3391 60.7911 87.5266 61.4057 86.9433 60.9473C86.8496 60.8796 86.7818 60.8223 86.6881 60.7494C86.8131 63.2702 87.636 65.6504 88.2766 68.1088C88.6048 64.5098 88.8912 60.8692 88.5996 57.3484C88.1256 51.3848 85.5943 45.39 83.7558 39.7494C83.6725 39.4994 84.0579 39.3171 84.1256 39.5932C86.1256 45.3015 88.9381 51.1348 89.5214 57.2129C89.9746 61.9057 89.4589 66.8379 88.9173 71.614C88.9589 72.0984 88.9693 72.5932 88.9798 73.0932C90.1308 71.0723 91.1881 68.9838 92.0058 66.7911C93.9589 61.5932 94.261 56.1296 93.0996 50.7754C92.8704 51.1088 92.5371 51.3119 92.1204 51.1348C91.7506 50.9786 91.5006 50.4734 91.6881 50.0932C91.8756 49.489 92.0996 48.8119 92.4068 48.2963C92.5214 48.0932 92.6777 47.9421 92.8912 47.8796C93.2975 47.4942 93.9433 47.7911 93.8808 48.3848C93.9016 48.4838 93.9225 48.5827 93.9016 48.7025C93.8391 49.0775 93.7037 49.4786 93.5475 49.8484C96.2298 58.9577 93.7037 67.9004 89.3756 76.0619C90.1777 75.1036 90.9641 74.1036 91.6464 73.0619C94.2402 69.0515 96.4016 64.2442 97.1985 59.5202C98.8912 49.6088 92.1621 42.8848 86.36 35.864C86.36 35.864 86.36 35.864 86.3496 35.8952C86.5318 36.3379 86.61 36.8952 86.0475 37.1244C84.8964 37.6036 84.4173 35.4265 84.386 34.6765C84.3964 34.4317 84.4485 34.2338 84.5787 34.0723C84.5891 34.0463 84.5735 34.0098 84.5839 33.9838C84.5683 33.2077 85.5214 32.9265 85.8756 33.6296C86.1204 34.0723 86.2923 34.5411 86.5058 34.9994C86.5579 35.0202 86.61 35.0463 86.6777 35.1036C92.4798 41.9057 99.1621 48.4577 98.4693 57.9473C102.386 50.6348 110.001 45.3223 117.907 43.3796C118.11 43.3379 118.209 43.6869 118.011 43.7286C108.386 46.3796 101.933 53.1296 97.86 61.9213C96.9381 65.765 95.1881 69.4473 93.2766 72.8484C92.2975 74.5984 91.0683 76.2129 89.7975 77.7807C91.3912 76.4109 93.1829 75.739 94.8704 74.4994C95.1881 74.2598 95.511 73.9942 95.8391 73.7286C95.6829 73.5098 95.6881 73.2025 95.9954 73.0567C96.36 72.9265 96.6777 72.7546 97.011 72.614C100.225 69.3588 102.074 64.8536 101.761 60.2754C101.256 60.5932 100.37 60.3484 100.459 59.5515C100.532 58.9942 100.813 58.4004 101.152 57.9577C101.219 57.8015 101.292 57.614 101.36 57.4577C101.631 56.89 102.626 57.0879 102.469 57.765L102.454 57.7911C102.704 58.015 102.839 58.3536 102.657 58.7077C102.574 58.9213 102.459 59.1192 102.318 59.3067C102.308 59.3327 102.271 59.3484 102.23 59.364C102.219 59.39 102.199 59.4421 102.188 59.4682C102.954 63.7702 101.891 67.5827 99.6412 71.0567C103.667 68.2025 105.641 64.0567 107.568 58.9994C109.396 54.239 112.001 50.5098 116.37 47.7338C116.615 47.5879 116.881 47.9161 116.626 48.0879C113.594 50.0932 111.282 52.6765 109.667 55.9577C108.245 58.8484 107.563 62.0463 106.162 64.9525C104.459 68.5307 101.678 71.4161 98.1464 73.0879C98.1308 73.114 98.1204 73.14 98.0839 73.1557C97.886 73.4109 97.6621 73.6557 97.4329 73.9004C100.402 71.7442 104.303 70.5984 107.818 70.6088C110.1 70.6088 111.938 70.4161 113.751 68.89C114.693 68.1088 115.589 67.4317 116.735 66.9838C119.928 65.7546 123.964 66.2963 126.126 63.1869C126.297 62.9213 126.688 63.239 126.516 63.5046C125.204 65.614 123.271 66.4734 120.943 67.1036C122.761 67.1869 124.615 67.4004 126.115 68.0879C127.053 68.5098 127.662 69.1973 128.386 69.9004C128.511 70.0463 128.646 70.1661 128.782 70.2807C128.386 67.0932 128.678 62.989 130.912 60.8015C131.126 60.5827 131.495 60.9525 131.282 61.1765C129.172 63.5671 129.297 68.5254 130.047 71.4577C130.037 71.4838 130.037 71.4838 130.053 71.5202C131.063 72.4994 132.074 73.4161 133.219 74.2911C133.261 74.3379 133.339 74.3744 133.381 74.4213C132.896 72.989 132.662 71.4057 132.36 70.14C131.683 67.39 130.62 64.3848 131.605 61.5879C131.709 61.2598 132.209 61.4682 132.105 61.7963C131.297 64.3275 132.355 67.114 132.995 69.5723C133.495 71.4786 133.917 73.7234 134.85 75.5567C135.678 76.2442 136.516 76.9629 137.271 77.7442C137.511 76.7911 137.902 75.9369 138.438 75.1713C138.438 75.1713 138.412 75.1609 138.422 75.1348C135.896 69.0515 134.344 58.9317 138.037 53.0359C137.766 53.1713 137.495 53.3067 137.24 53.4734C136.35 56.8692 134.422 60.015 130.844 60.7442C130.167 60.8952 130.037 59.9421 130.553 59.6661C135.917 56.7182 136.86 51.8692 136.605 46.114C136.6 45.989 136.6 45.8327 136.594 45.7077C136.016 46.2702 135.271 46.7286 134.693 47.0775C133.652 47.7234 132.547 48.1557 131.37 48.4682C131.131 48.5202 131.042 48.1452 131.261 48.0515C132.459 47.6244 133.584 47.0775 134.589 46.2911C135.271 45.7754 135.829 45.0202 136.511 44.4994C136.381 43.0307 136.146 41.6661 135.6 40.3275C134.73 42.1869 133.037 43.4265 131.339 44.5359C128.771 46.1817 126.089 47.6557 123.464 49.2129C123.146 49.39 122.797 48.9629 123.105 48.7546C127.334 46.0098 132.183 43.6244 135.209 39.4838C135.016 39.1244 134.803 38.7598 134.574 38.4161C133.126 36.2702 131.636 34.1348 130.146 32.0046C129.98 31.7494 130.344 31.4682 130.553 31.7077C131.584 33.0046 132.824 34.3223 133.949 35.6869C135.032 27.9942 142.704 23.8796 149.297 21.2286C149.975 21.239 150.318 21.5307 150.407 21.9057ZM61.4537 46.8327C63.3131 47.5463 65.0266 48.8484 66.8339 49.7546C66.5683 48.9942 65.9902 48.2286 65.3131 47.4838C64.0527 47.3275 62.7714 46.9213 61.5735 46.39C61.5995 46.4004 61.5996 46.4004 61.6308 46.4109C61.8808 46.5463 61.7246 46.9161 61.4537 46.8327ZM56.1777 42.3171C57.1881 43.6661 58.5006 44.5827 59.9225 45.39C59.9225 45.1765 60.11 44.9473 60.3704 45.0567C61.5162 45.4994 62.6933 45.7129 63.8704 45.989C63.5162 45.6557 63.1777 45.3588 62.9173 45.0984C62.7662 44.9421 62.6048 44.8119 62.4537 44.6557C60.0943 44.3223 57.9381 43.2702 55.9745 41.9838C56.0475 42.1088 56.0943 42.2182 56.1777 42.3171ZM55.735 41.6713C55.7871 41.4734 56.0058 41.3171 56.235 41.4473C57.761 42.3588 59.36 42.9682 61.0423 43.4525C60.5006 42.9786 59.9433 42.5307 59.3756 42.0463C59.1881 41.9057 59.0371 41.7494 58.8496 41.6088C58.4121 41.3952 58.0266 41.1452 57.5996 40.9057C56.9225 40.5307 56.136 40.2025 55.5579 39.6557C55.3808 39.4838 55.4902 39.2234 55.735 39.2338C55.9173 39.2442 56.0579 39.2754 56.1881 39.3275C55.5371 38.7494 54.912 38.1765 54.2818 37.5463C54.6256 39.015 55.0006 40.4057 55.735 41.6713ZM60.11 41.0254C60.2089 41.1609 60.1881 41.2754 60.1464 41.3796C60.1777 41.4525 60.2089 41.5307 60.2141 41.5932C61.1829 42.3692 62.1464 43.1713 63.0839 44.0254C61.8964 42.14 60.7818 40.2234 59.6568 38.3379C59.4954 38.0567 59.86 37.7754 60.0579 38.0411C61.3027 40.0098 62.5839 41.9682 63.7871 43.9786C63.9121 44.1869 63.7506 44.4265 63.5787 44.4786C64.2037 45.0463 64.9485 45.6973 65.6621 46.4265C65.8079 46.4577 65.9641 46.5202 66.1308 46.5619C64.86 43.9942 63.4381 41.5515 61.735 39.2025C61.5214 38.9004 61.9589 38.5879 62.1829 38.864C63.3756 40.2911 64.4798 41.7963 65.4329 43.4317C65.1881 42.6817 65.0475 41.9109 65.0318 41.1348C65.0318 40.9838 65.0371 40.8275 65.0371 40.6765C64.985 40.6504 64.8964 40.6452 64.8548 40.5984C62.7089 38.8692 60.8964 37.9577 58.1829 37.2911C57.6777 37.1713 57.2298 37.0463 56.7766 36.89C57.8391 38.2598 59.0527 39.5671 60.11 41.0254ZM67.0423 48.0827C67.0006 47.8796 66.9225 47.6921 66.86 47.4786C66.7714 47.4734 66.7037 47.4786 66.5996 47.4369C66.5891 47.4629 66.5631 47.4525 66.5631 47.4525C66.7454 47.6817 66.9121 47.8744 67.0423 48.0827ZM68.2454 32.3223C68.3183 32.14 68.3704 31.9421 68.4225 31.7494C68.4068 31.7129 68.4173 31.6869 68.4016 31.6504C68.4485 31.0202 68.3964 30.4109 68.2662 29.8327C67.1568 29.3067 66.0996 28.4369 65.1933 27.5046C65.985 29.3744 67.0371 31.0775 68.2454 32.3223ZM64.7141 26.0671L64.7402 26.0775C65.4589 26.7182 66.1516 27.3484 66.9068 27.9057C67.2298 28.1661 67.6048 28.3848 67.9381 28.614C67.3964 27.0307 66.4641 25.5619 65.8964 23.9682C65.61 23.6973 65.36 23.4057 65.11 23.1192C64.7246 22.7077 64.3652 22.3119 64.0162 21.89C64.0735 23.3015 64.2871 24.7182 64.7141 26.0671ZM64.0423 21.3119C64.1048 21.3067 64.1673 21.3067 64.235 21.364C64.6725 21.7286 65.0943 22.1192 65.4798 22.5307C65.0527 20.8119 65.0006 19.0879 65.2454 17.3119C65.261 17.1296 65.4381 17.0827 65.5527 17.0984C65.4589 16.8744 65.3964 16.6609 65.3548 16.4629C65.36 16.5254 65.3652 16.5879 65.3027 16.6557C64.4485 17.9682 64.0787 19.5984 64.0423 21.3119ZM65.7454 17.5202C65.6308 19.7234 65.9537 21.6817 66.6621 23.6088C66.5996 22.1348 66.7506 20.5932 66.7141 19.1244C66.7089 19.0619 66.7193 19.0359 66.7662 18.9942C66.3391 18.5411 66.0006 18.0254 65.7454 17.5202ZM68.9381 19.5619C69.4068 19.9109 69.9068 20.2702 70.3183 20.6921C70.36 20.739 70.4016 20.7859 70.4537 20.8067C69.9902 19.6296 69.5839 18.3796 69.1568 17.1817C69.0475 17.9682 69.0006 18.7494 68.9381 19.5619ZM69.2193 16.7442C69.3496 16.6452 69.5683 16.6452 69.6621 16.8692C70.1985 18.1713 70.7193 19.4994 71.2818 20.8171C71.7089 21.7963 72.3131 22.5723 72.8912 23.4004C72.86 22.739 72.8131 21.8848 72.761 21.1244C71.2662 18.864 70.6204 15.9734 70.36 13.3327C70.3235 12.9786 70.8808 12.9057 70.9173 13.2598C71.1568 15.2077 71.7454 16.9057 72.485 18.6036C72.3652 17.7807 72.2818 16.9421 72.3131 16.0619C72.3183 15.8171 72.3548 15.5827 72.3912 15.3536C72.2037 15.2129 72.1204 14.9629 72.3652 14.8171C72.4016 14.8015 72.4433 14.7859 72.4902 14.7442C72.5058 14.6296 72.5214 14.515 72.5683 14.4109C72.1048 13.2286 71.9798 11.9734 72.11 10.6973C71.886 10.9473 71.6568 11.1921 71.4589 11.4473C70.1516 13.0932 69.5475 14.8484 69.2193 16.7442ZM76.2662 6.94211C76.0631 7.13482 75.86 7.32753 75.6673 7.4942C75.7818 7.50982 75.8652 7.60878 75.7871 7.72857C74.7558 9.82753 73.8131 11.9369 73.4068 14.1713C73.7506 13.9421 74.0996 13.6921 74.4121 13.39C75.0371 12.7859 75.5631 12.1088 76.1568 11.4942C76.1568 11.4942 76.1725 11.4682 76.1985 11.4786C75.8652 9.98378 75.7871 8.46815 76.2662 6.94211ZM72.5475 10.2338C72.4277 11.265 72.5266 12.2911 72.8235 13.2807C73.4068 11.364 74.3704 9.57232 75.3183 7.81191C74.3756 8.59315 73.4068 9.35878 72.5475 10.2338ZM77.1881 14.9473C76.8704 14.0098 76.5475 13.0775 76.2923 12.1348C75.5996 13.2077 74.6204 14.3692 73.4798 15.0359C73.4746 15.1921 73.3443 15.2859 73.2037 15.3223C73.1152 16.2077 73.11 17.1036 73.2141 18.0411C73.2506 18.3952 73.3235 18.7338 73.36 19.0879C73.9485 18.4994 74.6256 17.9838 75.1933 17.3588C75.9485 16.5879 76.5943 15.7807 77.1881 14.9473ZM71.6829 24.9629C71.2141 24.0879 70.8704 23.14 70.2506 22.3275C70.011 22.015 69.735 21.7129 69.4746 21.4525C69.9537 23.3484 70.0006 26.114 68.9173 27.8223C68.7766 28.0098 68.5006 27.864 68.4954 27.6452C68.5683 26.6557 68.9641 25.7129 69.0735 24.7077C69.1933 23.614 69.1412 22.4838 69.0371 21.39C69.0318 21.265 69.0787 21.2234 69.1516 21.1921C68.6777 20.7754 68.1777 20.3536 67.6881 19.9629C67.4433 19.739 67.2246 19.5254 66.9798 19.2963C67.0371 21.0827 67.3548 22.9109 67.1985 24.6973C67.1933 24.7859 67.1412 24.8275 67.0943 24.8692C67.2766 25.3171 67.5006 25.7494 67.735 26.2182C68.2818 27.2754 68.7714 28.3171 69.0266 29.4109C69.0787 29.4317 69.0943 29.4682 69.1464 29.489C69.7818 27.7494 70.485 26.1296 71.6829 24.9629ZM44.2923 57.9421C44.8912 55.1036 42.6673 51.7702 45.6464 49.739C46.9381 48.864 48.5214 48.8432 50.0214 48.7911C52.4641 48.6973 53.7193 48.14 55.8704 47.1244C56.2506 46.9473 56.6204 46.7286 57.0475 46.5984C58.61 46.1088 60.0371 46.3015 61.4016 46.8067C56.5162 44.989 53.7454 41.2702 52.9589 36.1921C52.9173 36.1452 52.8756 36.0984 52.8339 36.0463C52.5891 35.7598 52.9589 35.4525 53.2506 35.5723C53.5006 35.489 53.8652 35.5827 53.9537 35.9577C53.9902 36.0984 54.011 36.1973 54.0423 36.3327C55.5058 37.7807 57.1204 39.0984 58.7141 40.3796C57.761 39.1817 56.9173 37.8744 56.0266 36.6088C56.0006 36.5984 56.011 36.5723 56.011 36.5723C55.0527 36.2025 54.1204 35.7807 53.1985 35.1817C52.9068 34.9994 53.1933 34.5307 53.5058 34.6609C56.8027 36.2234 62.9798 35.7754 65.1985 39.2598C65.6152 37.5202 66.6152 36.0879 67.4173 34.3848C67.5631 34.1036 67.6829 33.8171 67.8027 33.5254C65.5423 31.2546 64.235 27.6557 63.5006 24.6036C62.7871 21.6557 62.9693 18.7077 64.8912 16.239C65.0475 16.0254 65.2975 16.1609 65.3756 16.3432C65.3391 16.2077 65.3027 16.0671 65.2923 15.9421C65.2298 15.5775 65.735 15.4786 65.886 15.7859C66.4954 17.0619 67.0683 17.9786 68.1673 18.9004C68.2089 18.9473 68.2871 18.9786 68.3287 19.0254C68.6048 13.4057 71.1256 8.6244 76.1568 5.72336C76.3287 5.60878 76.5631 5.64524 76.7246 5.77545C76.9121 5.39003 77.4954 5.63482 77.3548 6.03586C75.2454 11.9161 80.4902 16.9421 80.0891 22.7911C81.5371 21.7598 82.8808 19.9421 84.0891 19.1817C85.3131 18.3952 86.761 17.89 88.2141 18.0984C92.1985 18.614 93.9902 23.5619 96.3183 26.1973C98.4589 28.6036 100.938 30.8067 102.85 33.3952C103.193 30.9473 105.068 29.6296 107.146 28.489C110.063 26.9004 111.672 23.9317 114.86 22.7286C120.068 20.7338 126.36 23.4838 128.636 28.5359C128.813 28.9161 128.282 29.1609 128.032 28.8692C125.855 26.39 123.834 24.0671 120.428 23.3536C117.699 22.8015 114.86 23.5307 112.719 25.2598C111.417 26.3223 110.553 27.8744 109.094 28.7807C108.386 29.2234 107.553 29.3692 106.797 29.765C104.891 30.7911 104.193 32.1661 103.214 33.8536C103.949 34.9004 104.563 36.0202 105.016 37.2286C106.589 41.3692 105.438 45.614 102.87 49.1088C102.636 49.4421 102.126 49.1088 102.245 48.7546C103.11 46.4629 104.49 44.2598 104.662 41.7702C104.855 39.1661 103.803 36.6609 102.365 34.5515C100.584 31.864 98.1673 29.7442 95.9746 27.3796C96.0058 27.6088 96.0475 27.8744 96.0787 28.1036C96.1673 28.8484 96.2037 29.5723 96.1777 30.3015C96.1621 30.6348 95.5996 30.6504 95.5891 30.3067C95.5527 29.5775 95.4798 28.8692 95.3964 28.1869C95.3027 27.5932 95.0683 26.9734 95.1048 26.3692C94.9798 26.2234 94.8704 26.1192 94.7454 25.9734C93.4902 24.4629 92.5631 22.6869 91.3131 21.1765C91.1048 20.9369 90.886 20.7234 90.6673 20.5098C92.0058 24.9213 92.0318 29.5932 91.7193 34.1817C91.7141 34.4265 91.3391 34.364 91.3443 34.1192C91.4746 29.515 90.6516 25.1296 89.8704 20.64C89.8287 20.3744 90.0579 20.1921 90.2766 20.1921C88.235 18.5671 85.8339 18.9265 83.5371 20.5879C82.2193 21.5202 81.2141 23.1973 79.8131 23.9734C79.6985 24.1713 79.4485 24.2494 79.2402 24.2286C78.7662 24.4004 78.261 24.4369 77.6777 24.3484C77.1621 24.2546 77.2662 23.4942 77.7766 23.5254C78.136 23.5515 78.4641 23.5046 78.7871 23.39C79.0527 21.864 78.8496 20.3588 78.4798 18.8796C77.5058 20.5411 76.1881 22.1504 74.4537 23.0619C74.0943 23.2546 73.8027 22.6973 74.1152 22.4577C75.6412 21.2442 77.0579 20.14 78.1725 18.5046C78.2298 18.4369 78.2923 18.4317 78.36 18.4265C78.0631 17.4421 77.7246 16.4682 77.3652 15.4838C76.4016 17.0567 75.0943 18.8588 73.4746 19.7859C73.6881 21.0463 73.9121 22.2807 73.8443 23.5515C74.136 23.4525 74.4746 23.3796 74.8131 23.3067C75.5839 23.1661 75.7141 24.3275 74.985 24.5202C74.9225 24.5254 74.8496 24.5567 74.8079 24.5671C74.9693 24.6348 75.0683 24.7702 75.0162 24.9629C73.7454 30.0827 72.8964 34.6348 73.5787 39.9473C73.6308 40.3379 73.0475 40.4057 72.985 40.0411C72.0839 35.0984 72.1568 29.4525 74.2246 24.7859C74.0371 24.864 73.8496 24.9421 73.6933 25.0307C73.6725 25.0827 73.6777 25.1452 73.6516 25.1973C73.5735 25.5359 73.1881 25.7129 72.9329 25.515C71.1048 26.9421 70.4589 29.4525 69.735 31.7077C69.1464 33.5619 68.3443 35.114 67.4016 36.7859C65.6152 39.9577 65.7714 42.8327 67.0996 46.1609C67.6881 47.64 68.3235 48.7077 68.11 50.2546C70.1256 50.9734 72.0475 50.9421 73.7818 52.3432C75.1621 53.4734 76.0891 55.0932 76.8079 56.6921C77.0787 57.2338 76.2298 57.7129 75.886 57.2025C74.6673 55.3952 73.6152 53.2598 71.485 52.3744C69.8548 51.6921 68.1933 51.6765 66.5683 50.9109C62.7558 49.1036 60.1568 46.3848 55.7923 48.5723C53.2193 49.8484 51.4902 49.7129 48.6881 49.9942C49.7402 50.2754 50.7246 50.8744 51.7506 51.4525C54.261 52.9057 56.7141 54.4213 59.1985 55.8588C59.4016 55.9734 59.2662 56.2859 59.0683 56.1713C56.985 55.0254 54.8704 53.9577 52.8027 52.8484C50.8391 51.7859 49.0423 50.6973 46.7766 50.5827C44.5214 51.989 45.636 55.6036 44.912 58.0775C44.8391 58.4786 44.2298 58.3171 44.2923 57.9421ZM82.235 140.229C81.8704 141.187 81.7037 142.322 82.1308 143.301C82.4485 144.02 83.3652 143.661 83.3443 142.973C83.3391 142.911 83.3548 142.885 83.3496 142.822L83.386 142.807C83.8235 142.494 84.0735 142.041 84.1152 141.567C84.3287 141.135 84.4537 140.692 84.2558 140.27C84.1516 140.01 83.8235 139.749 83.511 139.833C83.4746 139.848 83.4381 139.864 83.4016 139.88C83.0371 139.572 82.4329 139.755 82.235 140.229ZM99.7975 111.145C98.9277 107.385 95.9225 105.791 92.4068 104.973C92.0162 104.874 92.0631 104.307 92.4902 104.333C92.6412 104.333 92.7871 104.359 92.9277 104.39C93.9121 98.6921 91.5058 93.89 85.485 92.7077C84.3287 95.1869 82.6829 97.4317 81.0318 99.614C80.8443 99.8432 80.5579 99.5723 80.6829 99.3432C82.0266 97.1609 83.1829 94.8327 84.485 92.5984C82.3496 92.6036 78.6725 93.5098 77.8131 91.3588C77.6881 91.0619 78.0735 90.7286 78.3183 90.9525C79.4537 92.0098 81.4902 91.4109 82.8443 91.4213C84.1985 91.4317 85.5266 91.5827 86.8235 91.9421C88.7246 92.4838 90.4537 93.4525 91.8183 94.9161C94.2871 97.5827 94.7454 101.135 93.4381 104.416C96.9016 104.999 100.141 107.369 100.756 110.989C100.855 111.645 99.9277 111.723 99.7975 111.145Z" fill="#FFF0DD"/>
</g>
</g>
</g>
</g>
</g>
</g>
</svg>
