<svg xmlns="http://www.w3.org/2000/svg" xmlns:xlink="http://www.w3.org/1999/xlink" width="1366" zoomAndPan="magnify" viewBox="0 0 1024.5 576" height="768" preserveAspectRatio="xMidYMid meet" version="1.0"><defs><g/><clipPath id="fc926e71d6"><path d="M 10 1 L 113 1 L 113 106 L 10 106 Z M 10 1 " clip-rule="nonzero"/></clipPath><clipPath id="1969e25ab1"><path d="M 49.363281 1.4375 L 112.699219 37.691406 L 73.851562 105.550781 L 10.515625 69.296875 Z M 49.363281 1.4375 " clip-rule="nonzero"/></clipPath><clipPath id="bf2187fb9a"><path d="M 28 14 L 84 14 L 84 103 L 28 103 Z M 28 14 " clip-rule="nonzero"/></clipPath><clipPath id="98762482e4"><path d="M 39.363281 0.4375 L 102.699219 36.691406 L 63.851562 104.550781 L 0.515625 68.296875 Z M 39.363281 0.4375 " clip-rule="nonzero"/></clipPath><clipPath id="92b65d8a09"><path d="M 104.394531 37.664062 L 41.058594 1.40625 L 2.210938 69.265625 L 65.546875 105.523438 Z M 104.394531 37.664062 " clip-rule="nonzero"/></clipPath><clipPath id="658412a2cc"><rect x="0" width="103" y="0" height="105"/></clipPath><clipPath id="981242e826"><rect x="0" width="172" y="0" height="228"/></clipPath></defs><g transform="matrix(1, 0, 0, 1, 422, 168)"><g clip-path="url(#981242e826)"><g clip-path="url(#fc926e71d6)"><g clip-path="url(#1969e25ab1)"><g transform="matrix(1, 0, 0, 1, 10, 1)"><g clip-path="url(#658412a2cc)"><g clip-path="url(#bf2187fb9a)"><g clip-path="url(#98762482e4)"><g clip-path="url(#92b65d8a09)"><path fill="#ffffff" d="M 65.101562 15.296875 C 65.113281 15.339844 65.304688 15.515625 65.53125 15.675781 C 65.960938 15.996094 66.894531 16.851562 67.101562 17.128906 C 67.171875 17.222656 67.207031 17.472656 67.1875 17.703125 C 67.105469 18.421875 66.671875 18.871094 65.132812 19.816406 C 64.109375 20.445312 63.765625 20.585938 63.148438 20.628906 C 62.898438 20.65625 62.484375 20.703125 62.222656 20.75 C 61.710938 20.835938 60.285156 20.894531 57.363281 20.925781 C 52.570312 20.988281 47.339844 21.160156 47.371094 21.242188 C 47.378906 21.273438 47.980469 21.488281 48.71875 21.730469 C 51.167969 22.539062 52.894531 23.207031 55.53125 24.378906 C 57.171875 25.113281 61.632812 27.636719 62.929688 28.566406 C 64.140625 29.441406 66.789062 31.511719 67.988281 32.527344 C 70.820312 34.921875 75.210938 39.289062 77.066406 41.546875 C 80.738281 46.023438 82.558594 50.757812 83.214844 57.578125 C 83.628906 61.855469 83.167969 65.96875 81.714844 71.023438 C 80.070312 76.726562 78.476562 80.925781 75.863281 86.429688 C 73.820312 90.722656 72.347656 93.289062 70.695312 95.453125 C 69.613281 96.867188 68.972656 97.609375 67.417969 99.207031 C 66.671875 99.96875 65.824219 100.867188 65.53125 101.199219 C 64.925781 101.898438 64.367188 102.292969 63.894531 102.363281 C 63.601562 102.402344 63.550781 102.390625 63.472656 102.234375 C 63.351562 101.996094 63.367188 101.578125 63.53125 100.882812 C 63.652344 100.339844 63.730469 100.1875 64.441406 99.023438 C 64.867188 98.332031 65.570312 97.300781 65.992188 96.742188 C 68.453125 93.5 69.894531 90.800781 71.589844 86.242188 C 73.125 82.113281 73.964844 79.277344 75.320312 73.636719 C 76.722656 67.800781 76.953125 66.585938 77.019531 64.75 C 77.101562 62.382812 76.742188 59.210938 76.015625 55.921875 C 75.210938 52.289062 73.617188 48.957031 71.261719 45.996094 C 69.738281 44.078125 66.058594 40.34375 63.464844 38.078125 C 60.644531 35.613281 58.808594 34.296875 55.789062 32.5625 C 51.566406 30.132812 47.300781 28.257812 41.808594 26.382812 C 40.222656 25.84375 37.761719 25.105469 37.648438 25.125 C 37.605469 25.136719 38.417969 26.054688 39.453125 27.15625 C 44.144531 32.121094 45.523438 33.796875 46.394531 35.546875 C 47.59375 37.945312 48.433594 41.378906 48.339844 43.453125 C 48.289062 44.628906 48.214844 44.972656 47.960938 45.167969 C 47.640625 45.414062 47.277344 45.292969 45.792969 44.433594 C 44.398438 43.625 43.429688 42.910156 41.941406 41.617188 C 40.171875 40.085938 39.46875 39.304688 38.152344 37.488281 C 37.835938 37.042969 36.460938 35.210938 35.109375 33.429688 C 32.46875 29.929688 30.535156 27.117188 29.699219 25.566406 C 29.066406 24.382812 28.542969 23.132812 28.492188 22.691406 C 28.4375 22.242188 28.539062 20.683594 28.632812 20.519531 C 28.675781 20.449219 28.710938 20.289062 28.699219 20.171875 C 28.675781 19.675781 29.191406 18.324219 29.566406 17.886719 C 29.890625 17.519531 30.238281 17.433594 31.707031 17.371094 C 34.269531 17.273438 36.316406 17.070312 37.753906 16.765625 C 40.195312 16.25 40.898438 16.125 43.941406 15.644531 C 47.988281 15.011719 56.261719 14.492188 60.175781 14.632812 C 62.917969 14.734375 64.476562 14.871094 64.78125 15.046875 C 64.945312 15.140625 65.089844 15.25 65.101562 15.296875 Z M 65.101562 15.296875 " fill-opacity="1" fill-rule="nonzero"/></g></g></g></g></g></g></g><g fill="#ffffff" fill-opacity="1"><g transform="translate(34.624433, 183.243658)"><g><path d="M -4.8125 0.46875 C -6.59375 -0.625 -7.65625 -2.195312 -8 -4.25 C -8.34375 -6.3125 -8.175781 -8.640625 -7.5 -11.234375 C -6.832031 -13.828125 -5.921875 -16.519531 -4.765625 -19.3125 C -3.609375 -22.113281 -2.375 -24.832031 -1.0625 -27.46875 C 0.238281 -30.113281 1.378906 -32.429688 2.359375 -34.421875 C 1.441406 -34.046875 0.546875 -33.632812 -0.328125 -33.1875 C -1.210938 -32.75 -2.15625 -32.410156 -3.15625 -32.171875 C -3.664062 -32.046875 -4.140625 -32.097656 -4.578125 -32.328125 C -5.015625 -32.566406 -5.296875 -32.941406 -5.421875 -33.453125 C -5.554688 -34.023438 -5.488281 -34.535156 -5.21875 -34.984375 C -4.945312 -35.429688 -4.554688 -35.71875 -4.046875 -35.84375 C -2.816406 -36.132812 -1.566406 -36.335938 -0.296875 -36.453125 C 0.960938 -36.578125 2.179688 -36.707031 3.359375 -36.84375 C 4.410156 -39.144531 5.457031 -41.617188 6.5 -44.265625 C 7.539062 -46.921875 8.546875 -49.472656 9.515625 -51.921875 C 10.492188 -54.367188 11.390625 -56.453125 12.203125 -58.171875 C 12.984375 -59.953125 13.988281 -61.125 15.21875 -61.6875 C 16.457031 -62.257812 17.585938 -62.328125 18.609375 -61.890625 C 19.628906 -61.453125 20.28125 -60.632812 20.5625 -59.4375 C 20.851562 -58.25 20.445312 -56.800781 19.34375 -55.09375 C 18.226562 -53.375 16.539062 -51.113281 14.28125 -48.3125 C 12.019531 -45.519531 9.71875 -42.019531 7.375 -37.8125 C 8.488281 -38.226562 9.5625 -38.648438 10.59375 -39.078125 C 11.632812 -39.515625 12.734375 -39.875 13.890625 -40.15625 C 14.398438 -40.28125 14.878906 -40.203125 15.328125 -39.921875 C 15.773438 -39.648438 16.066406 -39.226562 16.203125 -38.65625 C 16.328125 -38.144531 16.25 -37.6875 15.96875 -37.28125 C 15.6875 -36.875 15.289062 -36.609375 14.78125 -36.484375 C 13.414062 -36.148438 11.988281 -35.972656 10.5 -35.953125 C 9.019531 -35.941406 7.578125 -35.851562 6.171875 -35.6875 L 5 -33.34375 C 1.894531 -26.945312 -0.285156 -21.460938 -1.546875 -16.890625 C -2.804688 -12.316406 -2.410156 -9.253906 -0.359375 -7.703125 C 1.390625 -6.429688 3.882812 -7.0625 7.125 -9.59375 C 10.363281 -12.132812 13.960938 -16.894531 17.921875 -23.875 L 18.765625 -23.71875 C 17.128906 -20.039062 15.28125 -16.546875 13.21875 -13.234375 C 11.15625 -9.921875 9.0625 -7.054688 6.9375 -4.640625 C 4.8125 -2.222656 2.722656 -0.519531 0.671875 0.46875 C -1.367188 1.457031 -3.195312 1.457031 -4.8125 0.46875 Z M -4.8125 0.46875 "/></g></g></g><g fill="#ffffff" fill-opacity="1"><g transform="translate(60.351747, 177.051218)"><g><path d="M 0 -1.375 C -2.40625 -2.539062 -3.71875 -4.453125 -3.9375 -7.109375 C -4.15625 -9.765625 -3.550781 -12.804688 -2.125 -16.234375 C -0.707031 -19.671875 1.140625 -23.144531 3.421875 -26.65625 C 5.710938 -30.125 8.140625 -33.019531 10.703125 -35.34375 C 13.265625 -37.675781 15.6875 -39.328125 17.96875 -40.296875 C 20.257812 -41.265625 22.09375 -41.421875 23.46875 -40.765625 C 24.582031 -40.253906 25.289062 -39.351562 25.59375 -38.0625 C 25.726562 -38.476562 25.859375 -38.890625 25.984375 -39.296875 C 26.109375 -39.710938 26.285156 -40.101562 26.515625 -40.46875 C 26.941406 -41.5625 27.640625 -42.300781 28.609375 -42.6875 C 29.578125 -43.070312 30.53125 -43.128906 31.46875 -42.859375 C 32.414062 -42.585938 33.113281 -41.992188 33.5625 -41.078125 C 34.007812 -40.160156 33.890625 -38.929688 33.203125 -37.390625 C 32.765625 -36.367188 32 -35.035156 30.90625 -33.390625 C 29.8125 -31.753906 28.632812 -29.984375 27.375 -28.078125 C 26.113281 -26.179688 24.984375 -24.304688 23.984375 -22.453125 C 22.984375 -20.609375 22.335938 -18.929688 22.046875 -17.421875 C 21.765625 -15.910156 22.109375 -14.738281 23.078125 -13.90625 C 25.015625 -12.15625 27.613281 -12.585938 30.875 -15.203125 C 34.132812 -17.828125 37.71875 -22.578125 41.625 -29.453125 L 42.484375 -29.203125 C 40.816406 -25.367188 38.953125 -21.796875 36.890625 -18.484375 C 34.835938 -15.171875 32.710938 -12.351562 30.515625 -10.03125 C 28.328125 -7.71875 26.234375 -6.128906 24.234375 -5.265625 C 22.242188 -4.398438 20.46875 -4.503906 18.90625 -5.578125 C 17.707031 -6.429688 17.066406 -7.648438 16.984375 -9.234375 C 16.910156 -10.816406 17.128906 -12.582031 17.640625 -14.53125 C 15.898438 -11.363281 14.03125 -8.628906 12.03125 -6.328125 C 10.03125 -4.023438 7.992188 -2.410156 5.921875 -1.484375 C 3.859375 -0.566406 1.882812 -0.53125 0 -1.375 Z M 6.234375 -9.28125 C 7.429688 -8.425781 8.6875 -8.363281 10 -9.09375 C 11.3125 -9.820312 12.597656 -11.023438 13.859375 -12.703125 C 15.128906 -14.390625 16.390625 -16.28125 17.640625 -18.375 C 18.890625 -20.46875 20.019531 -22.429688 21.03125 -24.265625 C 21.625 -25.941406 22.148438 -27.554688 22.609375 -29.109375 C 23.078125 -30.671875 23.578125 -32.242188 24.109375 -33.828125 C 24.359375 -35.335938 24.328125 -36.488281 24.015625 -37.28125 C 23.703125 -38.082031 23.195312 -38.671875 22.5 -39.046875 C 21.207031 -39.722656 19.570312 -39.40625 17.59375 -38.09375 C 15.625 -36.78125 13.648438 -34.910156 11.671875 -32.484375 C 9.703125 -30.066406 8.050781 -27.519531 6.71875 -24.84375 C 5.101562 -21.695312 4.132812 -18.65625 3.8125 -15.71875 C 3.5 -12.789062 4.304688 -10.644531 6.234375 -9.28125 Z M 6.234375 -9.28125 "/></g></g></g><g fill="#ffffff" fill-opacity="1"><g transform="translate(109.103068, 165.31701)"><g><path d="M -15.90625 36.078125 C -16.414062 37.421875 -17.164062 38.34375 -18.15625 38.84375 C -19.144531 39.351562 -20.109375 39.472656 -21.046875 39.203125 C -21.984375 38.929688 -22.675781 38.335938 -23.125 37.421875 C -23.582031 36.503906 -23.515625 35.363281 -22.921875 34 C -22.265625 32.320312 -21.304688 30.125 -20.046875 27.40625 C -18.796875 24.695312 -17.171875 21.15625 -15.171875 16.78125 C -13.179688 12.414062 -10.796875 6.96875 -8.015625 0.4375 C -7.378906 -1 -6.617188 -2.988281 -5.734375 -5.53125 C -4.859375 -8.070312 -3.914062 -10.816406 -2.90625 -13.765625 C -1.90625 -16.710938 -0.894531 -19.625 0.125 -22.5 C 1.144531 -25.375 2.101562 -27.96875 3 -30.28125 C 3.894531 -32.59375 4.660156 -34.320312 5.296875 -35.46875 C 6.367188 -37.332031 7.566406 -38.285156 8.890625 -38.328125 C 10.210938 -38.378906 11.25 -37.804688 12 -36.609375 C 12.75 -35.421875 12.65625 -33.914062 11.71875 -32.09375 L 8.875 -26.828125 C 11.144531 -30.046875 13.4375 -32.925781 15.75 -35.46875 C 18.070312 -38.007812 20.3125 -39.882812 22.46875 -41.09375 C 24.632812 -42.300781 26.566406 -42.535156 28.265625 -41.796875 C 30.304688 -40.910156 31.632812 -39.398438 32.25 -37.265625 C 32.875 -35.128906 32.957031 -32.632812 32.5 -29.78125 C 32.050781 -26.925781 31.195312 -24.007812 29.9375 -21.03125 C 28.8125 -18.394531 27.453125 -15.859375 25.859375 -13.421875 C 24.273438 -10.984375 22.585938 -8.898438 20.796875 -7.171875 C 21.554688 -7.210938 22.375 -7.375 23.25 -7.65625 C 24.132812 -7.9375 25.050781 -8.347656 26 -8.890625 C 28.789062 -10.546875 31.785156 -13.132812 34.984375 -16.65625 C 38.179688 -20.175781 41.082031 -24.269531 43.6875 -28.9375 L 44.671875 -28.703125 C 42.515625 -23.992188 39.640625 -19.679688 36.046875 -15.765625 C 32.460938 -11.859375 28.816406 -8.726562 25.109375 -6.375 C 21.597656 -4.164062 18.257812 -2.816406 15.09375 -2.328125 C 11.9375 -1.835938 9.484375 -2.554688 7.734375 -4.484375 C 4.921875 -7.015625 4.914062 -10.484375 7.71875 -14.890625 C 8.5 -16.148438 9.429688 -16.660156 10.515625 -16.421875 C 11.597656 -16.179688 12.367188 -15.582031 12.828125 -14.625 C 13.285156 -13.675781 12.9375 -12.609375 11.78125 -11.421875 C 10.851562 -10.515625 9.941406 -9.550781 9.046875 -8.53125 C 8.148438 -7.507812 8.066406 -6.554688 8.796875 -5.671875 C 9.554688 -4.785156 10.535156 -4.691406 11.734375 -5.390625 C 12.929688 -6.097656 14.226562 -7.347656 15.625 -9.140625 C 17.03125 -10.929688 18.429688 -13.039062 19.828125 -15.46875 C 21.234375 -17.894531 22.460938 -20.382812 23.515625 -22.9375 C 24.535156 -25.382812 25.363281 -27.734375 26 -29.984375 C 26.644531 -32.234375 26.898438 -34.179688 26.765625 -35.828125 C 26.628906 -37.472656 25.941406 -38.53125 24.703125 -39 C 23.585938 -39.5 22.046875 -38.914062 20.078125 -37.25 C 18.117188 -35.59375 16 -33.304688 13.71875 -30.390625 C 11.445312 -27.484375 9.171875 -24.34375 6.890625 -20.96875 C 4.609375 -17.601562 2.59375 -14.378906 0.84375 -11.296875 C -0.0820312 -9.398438 -1.0625 -7.425781 -2.09375 -5.375 C -3.132812 -3.332031 -4.15625 -1.238281 -5.15625 0.90625 C -5.757812 2.1875 -6.488281 4.128906 -7.34375 6.734375 C -8.207031 9.347656 -9.09375 12.25 -10 15.4375 C -10.90625 18.632812 -11.78125 21.722656 -12.625 24.703125 C -13.476562 27.691406 -14.207031 30.226562 -14.8125 32.3125 C -15.414062 34.40625 -15.78125 35.660156 -15.90625 36.078125 Z M -15.90625 36.078125 "/></g></g></g></g></g></svg>