<svg width="253" height="293" viewBox="0 0 253 293" fill="none" xmlns="http://www.w3.org/2000/svg">
<mask id="mask0_2315_4982" style="mask-type:luminance" maskUnits="userSpaceOnUse" x="0" y="0" width="253" height="293">
<path d="M0.609375 0.146484H252.714V292.631H0.609375V0.146484Z" fill="white"/>
</mask>
<g mask="url(#mask0_2315_4982)">
<mask id="mask1_2315_4982" style="mask-type:luminance" maskUnits="userSpaceOnUse" x="0" y="0" width="253" height="293">
<path d="M252.714 23.1361V269.11C252.714 275.204 250.292 281.053 245.984 285.365C241.672 289.673 235.823 292.094 229.729 292.094H23.5938C17.5 292.094 11.651 289.673 7.34375 285.365C3.03125 281.053 0.609375 275.204 0.609375 269.11V23.1361C0.609375 17.0371 3.03125 11.1934 7.34375 6.88086C11.651 2.56836 17.5 0.146484 23.5938 0.146484H229.729C235.823 0.146484 241.672 2.56836 245.984 6.88086C250.292 11.1934 252.714 17.0371 252.714 23.1361Z" fill="white"/>
</mask>
<g mask="url(#mask1_2315_4982)">
<mask id="mask2_2315_4982" style="mask-type:luminance" maskUnits="userSpaceOnUse" x="0" y="-1" width="254" height="294">
<path d="M253.333 -0.666016H0V292.667H253.333V-0.666016Z" fill="white"/>
</mask>
<g mask="url(#mask2_2315_4982)">
<mask id="mask3_2315_4982" style="mask-type:luminance" maskUnits="userSpaceOnUse" x="0" y="0" width="253" height="293">
<path d="M0.609375 0.146484H252.714V292.219H0.609375V0.146484Z" fill="white"/>
</mask>
<g mask="url(#mask3_2315_4982)">
<mask id="mask4_2315_4982" style="mask-type:luminance" maskUnits="userSpaceOnUse" x="0" y="0" width="253" height="293">
<path d="M252.714 23.1361V269.11C252.714 275.204 250.292 281.053 245.984 285.365C241.672 289.673 235.823 292.094 229.729 292.094H23.5938C17.5 292.094 11.651 289.673 7.34375 285.365C3.03125 281.053 0.609375 275.204 0.609375 269.11V23.1361C0.609375 17.0371 3.03125 11.1934 7.34375 6.88086C11.651 2.56836 17.5 0.146484 23.5938 0.146484H229.729C235.823 0.146484 241.672 2.56836 245.984 6.88086C250.292 11.1934 252.714 17.0371 252.714 23.1361Z" fill="white"/>
</mask>
<g mask="url(#mask4_2315_4982)">
<path d="M0.609375 0.146484H252.714V291.646H0.609375V0.146484Z" fill="#1F3D58"/>
</g>
</g>
</g>
</g>
</g>
<mask id="mask5_2315_4982" style="mask-type:luminance" maskUnits="userSpaceOnUse" x="71" y="45" width="112" height="112">
<path d="M71.4023 45.9121H182.345V156.667H71.4023V45.9121Z" fill="white"/>
</mask>
<g mask="url(#mask5_2315_4982)">
<path d="M174.559 55.1204H161.663V52.36C161.663 48.8027 158.772 45.9121 155.215 45.9121C151.658 45.9121 148.767 48.8027 148.767 52.36V55.1204H104.559V52.36C104.559 48.8027 101.668 45.9121 98.1107 45.9121C94.5534 45.9121 91.6628 48.8027 91.6628 52.36V55.1204H78.7669C74.7044 55.1204 71.4023 58.4277 71.4023 62.4902V149.068C71.4023 153.131 74.7044 156.438 78.7669 156.438H174.559C178.621 156.438 181.923 153.131 181.923 149.068V62.4902C181.923 58.4277 178.621 55.1204 174.559 55.1204ZM152.454 52.36C152.454 50.834 153.694 49.5944 155.215 49.5944C156.741 49.5944 157.98 50.834 157.98 52.36V61.5684C157.98 63.0944 156.741 64.334 155.215 64.334C153.694 64.334 152.454 63.0944 152.454 61.5684V52.36ZM95.3503 52.36C95.3503 50.834 96.5898 49.5944 98.1107 49.5944C99.6367 49.5944 100.876 50.834 100.876 52.36V61.5684C100.876 63.0944 99.6367 64.334 98.1107 64.334C96.5898 64.334 95.3503 63.0944 95.3503 61.5684V52.36ZM78.7669 58.8079H91.6628V61.5684C91.6628 65.1257 94.5534 68.0163 98.1107 68.0163C101.668 68.0163 104.559 65.1257 104.559 61.5684V58.8079H148.767V61.5684C148.767 65.1257 151.658 68.0163 155.215 68.0163C158.772 68.0163 161.663 65.1257 161.663 61.5684V58.8079H174.559C176.59 58.8079 178.241 60.459 178.241 62.4902V71.6986H75.0846V62.4902C75.0846 60.459 76.7357 58.8079 78.7669 58.8079ZM174.559 152.751H78.7669C76.7357 152.751 75.0846 151.1 75.0846 149.068V75.3861H178.241V149.068C178.241 151.1 176.59 152.751 174.559 152.751Z" fill="#C8B7A1"/>
</g>
<path d="M143.429 86.4904C137.83 86.0529 131.986 88.4591 128.168 92.7924C127.621 93.4227 127.121 94.0893 126.663 94.7872C126.205 94.0893 125.699 93.4279 125.142 92.7872C121.356 88.4591 115.522 86.0529 109.913 86.4904C104.106 86.9539 98.7671 90.3706 95.991 95.4122C93.2723 100.308 92.7462 106.345 94.5744 111.548C100.517 128.501 118.637 140.532 125.996 143.412C126.21 143.501 126.439 143.542 126.668 143.542C126.897 143.542 127.126 143.501 127.345 143.412C134.705 140.522 152.83 128.48 158.762 111.548C158.762 111.548 158.762 111.548 158.762 111.542C160.574 106.313 160.048 100.287 157.345 95.4174C154.564 90.3706 149.231 86.9539 143.423 86.4904H143.429ZM155.283 110.329C149.861 125.803 133.111 136.871 126.668 139.704C120.231 136.876 103.481 125.829 98.0535 110.324C96.59 106.157 97.0327 101.131 99.2202 97.1935C101.371 93.282 105.684 90.5216 110.205 90.1622C110.554 90.131 110.908 90.1206 111.257 90.1206C115.397 90.1206 119.574 92.0164 122.366 95.2091C123.475 96.4799 124.345 97.8966 124.965 99.4279C125.241 100.126 125.923 100.579 126.673 100.579C127.418 100.579 128.1 100.121 128.382 99.4279C129.007 97.8706 129.871 96.4539 130.944 95.2195C134.001 91.7456 138.673 89.7924 143.137 90.1622C147.658 90.5216 151.97 93.282 154.126 97.1987C156.298 101.11 156.741 106.141 155.288 110.334L155.283 110.329Z" fill="#C8B7A1"/>
<path d="M55.1785 210.302C52.8868 210.854 50.8555 210.938 49.0951 210.552C47.3295 210.177 45.9076 209.469 44.8243 208.427C43.741 207.375 43.0951 206.167 42.8868 204.802C42.7097 203.542 42.9076 202.24 43.491 200.907C44.0847 199.563 45.1472 198.276 46.6785 197.052C48.2201 195.818 50.2826 194.792 52.866 193.969C52.3503 193.459 51.9545 192.854 51.6785 192.157C51.4128 191.464 51.3451 190.688 51.4701 189.823C51.6472 188.672 52.1368 187.63 52.9285 186.698C53.7305 185.771 54.7253 184.964 55.9076 184.282C57.1003 183.604 58.3764 183.047 59.741 182.615C61.116 182.188 62.4545 181.907 63.7618 181.782C65.0795 181.657 66.3087 181.677 67.4493 181.844C68.5847 182.011 69.517 182.344 70.241 182.844C70.9597 183.344 71.3556 184.026 71.4285 184.886C71.5118 185.61 71.3451 186.282 70.9285 186.907C70.5118 187.521 69.9493 188.063 69.241 188.532C68.5326 188.99 67.7618 189.375 66.9285 189.677C66.1056 189.985 65.3347 190.214 64.616 190.365C64.0743 190.479 63.6472 190.407 63.3451 190.157C63.0378 189.907 62.8555 189.604 62.8035 189.24C62.7462 188.88 62.8503 188.573 63.116 188.323C63.392 188.063 63.8451 187.969 64.4701 188.052C65.6785 188.209 66.7462 188.24 67.6785 188.157C68.6056 188.063 69.2931 187.761 69.741 187.261C70.1993 186.761 70.3087 185.99 70.0743 184.948C69.8347 183.823 69.1368 183.073 67.9701 182.698C66.8139 182.323 65.5014 182.24 64.0326 182.448C62.6681 182.646 61.2931 183.089 59.9076 183.782C58.5326 184.464 57.3555 185.344 56.3868 186.427C55.4285 187.511 54.8712 188.761 54.7201 190.177C54.6368 190.818 54.6368 191.401 54.7201 191.927C54.8139 192.443 54.9545 192.901 55.1368 193.302C56.5378 192.969 57.8295 192.782 59.0118 192.74C60.2045 192.688 61.1576 192.782 61.866 193.032C62.5847 193.271 62.9493 193.688 62.9493 194.282C62.9493 194.74 62.741 195.136 62.3243 195.469C61.9181 195.802 61.4076 196.063 60.7826 196.24C60.1681 196.407 59.5535 196.49 58.9285 196.49C58.1368 196.464 57.2201 196.282 56.1785 195.948C55.1472 195.604 54.2253 195.11 53.4076 194.469C51.491 195.167 49.991 196.052 48.9076 197.136C47.8243 198.219 47.1003 199.38 46.741 200.615C46.3764 201.839 46.3139 203.011 46.5535 204.136C46.8139 205.334 47.3347 206.401 48.116 207.344C48.9076 208.276 49.8972 208.948 51.0951 209.365C52.3035 209.782 53.6264 209.813 55.0743 209.448C56.5587 209.089 57.9389 208.344 59.2201 207.219C60.4962 206.094 61.5378 204.448 62.3451 202.282C62.5535 201.771 62.8347 201.443 63.1993 201.302C63.5587 201.167 63.9076 201.157 64.241 201.282C64.5743 201.407 64.8139 201.636 64.9701 201.969C65.1212 202.302 65.0795 202.709 64.8451 203.177C63.9389 204.985 62.6003 206.5 60.8243 207.719C59.043 208.943 57.1628 209.802 55.1785 210.302ZM55.4493 193.844C55.866 194.469 56.366 194.943 56.9493 195.261C57.543 195.584 58.1368 195.771 58.7201 195.823C59.3035 195.88 59.7931 195.818 60.1993 195.636C60.6003 195.459 60.8035 195.188 60.8035 194.823C60.8035 194.146 60.267 193.719 59.1993 193.552C58.142 193.386 56.892 193.485 55.4493 193.844Z" fill="#C8B7A1"/>
<path d="M66.816 210.219C66.3056 209.709 66.1181 209.042 66.2535 208.219C66.3785 207.386 66.7067 206.5 67.2327 205.552C67.7639 204.61 68.3785 203.672 69.0869 202.74C69.7952 201.797 70.4723 200.938 71.1285 200.156C71.7952 199.38 72.2952 198.776 72.6285 198.344C72.9619 197.927 73.3994 197.36 73.941 196.636C74.4827 195.917 75.0712 195.125 75.7119 194.261C76.3629 193.401 76.9931 192.547 77.6077 191.698C78.2327 190.839 78.8004 190.068 79.316 189.386C79.8264 188.709 80.2171 188.198 80.4827 187.865C80.8994 187.323 81.316 187.026 81.7327 186.969C82.1598 186.917 82.5244 187.011 82.816 187.261C83.1181 187.5 83.2796 187.823 83.2952 188.24C83.3056 188.656 83.0921 189.073 82.6494 189.49C82.2327 189.865 81.5139 190.526 80.5035 191.469C79.4879 192.417 78.3421 193.542 77.066 194.844C75.7848 196.136 74.5504 197.521 73.3577 198.99C72.3264 200.281 71.4046 201.521 70.5869 202.698C69.7796 203.865 69.2171 204.896 68.8994 205.781C68.5764 206.672 68.6077 207.354 68.9827 207.823C69.4827 208.396 70.3785 208.38 71.6702 207.781C72.9723 207.188 74.5869 205.865 76.5035 203.823L76.7744 203.948C75.9098 205.063 74.9931 206.094 74.0244 207.052C73.066 208 72.1285 208.797 71.2119 209.448C70.2952 210.089 69.4462 210.49 68.6702 210.656C67.9098 210.823 67.29 210.677 66.816 210.219Z" fill="#C8B7A1"/>
<path d="M84.0017 222.823C83.4601 222.307 83.2465 221.687 83.3559 220.969C83.4548 220.245 83.7934 219.469 84.3767 218.635C84.9601 217.812 85.7048 217.01 86.6059 216.219C87.3715 215.521 88.2726 214.87 89.3142 214.26C90.3455 213.646 91.4028 213.114 92.5017 212.656C93.5955 212.208 94.6163 211.885 95.5642 211.677C96.0903 210.885 96.6059 210.073 97.1059 209.239C97.6059 208.396 98.1111 207.562 98.6267 206.739C97.7517 207.739 96.8403 208.583 95.8976 209.26C94.9496 209.927 94.0642 210.359 93.2309 210.552C92.3976 210.745 91.6788 210.604 91.0851 210.135C90.3663 209.542 90.0746 208.792 90.2101 207.885C90.3507 206.969 90.8038 205.989 91.5642 204.948C92.3246 203.896 93.2361 202.864 94.2934 201.864C95.3455 200.88 96.4028 200.104 97.4601 199.531C98.5278 198.948 99.4861 198.588 100.335 198.448C101.179 198.297 101.814 198.385 102.231 198.719C102.564 198.984 102.731 199.333 102.731 199.76C102.814 199.635 102.887 199.521 102.96 199.406C103.043 199.281 103.132 199.172 103.231 199.073C103.648 198.531 104.095 198.281 104.585 198.323C105.069 198.364 105.424 198.594 105.648 199.01C105.866 199.417 105.752 199.937 105.293 200.573C105.002 200.989 104.543 201.5 103.918 202.094C103.304 202.693 102.658 203.354 101.981 204.073C101.299 204.797 100.71 205.552 100.21 206.344C99.6371 207.276 99.0851 208.156 98.5434 208.989C98.0017 209.812 97.4861 210.594 97.0017 211.344C98.6788 210.844 100.054 210.234 101.127 209.51C102.194 208.792 103.148 207.969 103.981 207.052C104.825 206.125 105.736 205.104 106.71 203.989L107.023 204.177C106.116 205.208 105.148 206.318 104.106 207.51C103.064 208.693 101.877 209.781 100.543 210.781C99.2101 211.792 97.6528 212.536 95.8767 213.01C94.0017 215.729 92.3871 217.844 91.0434 219.344C89.684 220.844 88.5434 221.885 87.6267 222.469C86.7101 223.062 85.9705 223.349 85.3976 223.323C84.8298 223.307 84.3663 223.141 84.0017 222.823ZM86.0642 220.698C86.8038 221.239 87.8923 220.875 89.3351 219.614C90.7673 218.349 92.4184 216.349 94.2934 213.614L94.4809 213.302C92.908 213.719 91.5226 214.219 90.3142 214.802C89.1059 215.385 88.1423 215.979 87.4184 216.594C86.9757 216.979 86.559 217.432 86.1684 217.948C85.783 218.458 85.5538 218.958 85.4809 219.448C85.3976 219.948 85.5955 220.364 86.0642 220.698ZM93.8351 207.969C94.1684 208.359 94.5955 208.5 95.1267 208.385C95.6528 208.26 96.2205 207.979 96.8351 207.531C97.4601 207.073 98.0746 206.531 98.6892 205.906C99.2986 205.271 99.8611 204.63 100.377 203.989C100.653 203.505 100.908 203.026 101.148 202.552C101.398 202.068 101.653 201.583 101.918 201.094C102.002 200.776 102.033 200.489 102.023 200.239C102.007 199.979 101.924 199.797 101.773 199.698C101.356 199.364 100.814 199.26 100.148 199.385C99.4913 199.51 98.7934 199.818 98.0434 200.302C97.2934 200.776 96.5851 201.344 95.9184 202.01C95.2517 202.677 94.6788 203.385 94.2101 204.135C93.7517 204.885 93.4653 205.604 93.3559 206.281C93.2569 206.948 93.4184 207.51 93.8351 207.969Z" fill="#C8B7A1"/>
<path d="M110.152 209.866C109.538 209.257 109.345 208.543 109.569 207.72C109.803 206.887 110.553 205.918 111.819 204.803C112.621 204.111 113.408 203.418 114.173 202.72C114.949 202.012 115.548 201.298 115.965 200.574C116.215 200.147 116.204 199.762 115.944 199.428C115.694 199.095 115.366 198.866 114.965 198.741C114.574 198.605 114.262 198.652 114.027 198.887C113.663 199.22 113.158 199.72 112.507 200.387C111.866 201.043 111.173 201.762 110.423 202.553C109.673 203.335 108.949 204.111 108.257 204.887L108.027 204.616L113.132 198.762C113.366 198.486 113.449 198.168 113.382 197.803C113.324 197.444 113.225 197.048 113.09 196.616C112.965 196.173 112.902 195.699 112.902 195.199C112.902 194.798 113.027 194.47 113.277 194.22C113.538 193.97 113.85 193.835 114.215 193.803C114.574 193.762 114.902 193.845 115.194 194.053C115.496 194.251 115.684 194.585 115.757 195.053C115.809 195.444 115.746 195.777 115.569 196.053C115.387 196.319 115.267 196.736 115.215 197.303C115.215 197.527 115.329 197.741 115.569 197.949C115.803 198.158 116.074 198.382 116.382 198.616C116.684 198.84 116.954 199.09 117.194 199.366C117.428 199.632 117.533 199.96 117.507 200.345C117.475 201.001 117.257 201.637 116.84 202.262C116.434 202.876 115.954 203.46 115.402 204.012C114.845 204.569 114.309 205.085 113.798 205.553C113.298 206.012 112.928 206.439 112.694 206.824C112.47 207.199 112.475 207.533 112.715 207.824C113.257 208.439 114.173 208.402 115.465 207.72C116.767 207.043 118.486 205.564 120.611 203.283L120.882 203.408C119.559 205.158 118.199 206.652 116.798 207.887C115.408 209.111 114.121 209.923 112.944 210.324C111.777 210.71 110.845 210.559 110.152 209.866Z" fill="#C8B7A1"/>
<path d="M120.454 209.991C119.735 209.397 119.444 208.637 119.579 207.72C119.72 206.803 120.173 205.824 120.933 204.782C121.694 203.741 122.605 202.715 123.662 201.699C124.714 200.73 125.772 199.949 126.829 199.366C127.881 198.782 128.834 198.423 129.683 198.282C130.543 198.147 131.173 198.241 131.579 198.574C131.923 198.824 132.1 199.189 132.1 199.657C132.168 199.532 132.235 199.407 132.308 199.282C132.392 199.147 132.485 199.027 132.6 198.928C132.819 198.584 133.11 198.387 133.475 198.345C133.834 198.293 134.162 198.345 134.454 198.512C134.756 198.678 134.944 198.939 135.017 199.282C135.1 199.631 134.959 200.043 134.6 200.512C134.376 200.819 134.006 201.209 133.496 201.678C132.996 202.137 132.454 202.637 131.871 203.178C131.298 203.72 130.767 204.262 130.267 204.803C129.777 205.345 129.423 205.861 129.204 206.345C128.98 206.834 129.001 207.256 129.267 207.616C129.777 208.366 130.694 208.439 132.017 207.824C133.334 207.199 134.933 205.881 136.808 203.866L137.079 204.032C136.204 205.189 135.277 206.241 134.308 207.199C133.35 208.157 132.402 208.944 131.475 209.553C130.543 210.152 129.704 210.512 128.954 210.637C128.204 210.772 127.61 210.595 127.183 210.095C126.85 209.709 126.73 209.241 126.829 208.699C126.923 208.157 127.147 207.584 127.496 206.97C126.631 207.902 125.772 208.678 124.912 209.303C124.048 209.918 123.23 210.293 122.454 210.428C121.673 210.564 121.006 210.423 120.454 209.991ZM123.183 207.824C123.527 208.215 123.954 208.34 124.454 208.199C124.954 208.048 125.485 207.741 126.058 207.282C126.626 206.814 127.204 206.277 127.787 205.678C128.381 205.069 128.923 204.491 129.412 203.949C129.756 203.439 130.069 202.939 130.35 202.449C130.626 201.949 130.923 201.459 131.246 200.97C131.454 200.486 131.537 200.095 131.496 199.803C131.454 199.501 131.329 199.256 131.121 199.074C130.73 198.741 130.147 198.72 129.371 199.012C128.605 199.293 127.787 199.756 126.912 200.407C126.048 201.064 125.287 201.793 124.621 202.595C123.829 203.527 123.251 204.48 122.892 205.449C122.543 206.407 122.642 207.199 123.183 207.824Z" fill="#C8B7A1"/>
<path d="M143.419 210.054C142.96 209.543 142.783 208.981 142.898 208.366C143.023 207.741 143.314 207.095 143.773 206.429C144.231 205.762 144.762 205.111 145.377 204.47C145.986 203.819 146.564 203.21 147.106 202.637C147.648 202.069 148.054 201.585 148.335 201.179C148.627 200.762 148.653 200.449 148.419 200.241C148.111 199.923 147.637 199.944 147.002 200.304C146.377 200.653 145.674 201.199 144.898 201.949C144.117 202.689 143.32 203.522 142.502 204.449C141.596 205.465 140.736 206.47 139.919 207.47C139.111 208.47 138.45 209.272 137.939 209.866C137.554 210.34 137.137 210.543 136.689 210.491C136.231 210.439 135.908 210.215 135.71 209.824C135.518 209.423 135.601 208.96 135.96 208.429C136.2 208.126 136.538 207.689 136.981 207.116C137.413 206.548 137.867 205.944 138.335 205.304C138.804 204.668 139.215 204.095 139.564 203.595C140.075 202.835 140.471 202.231 140.752 201.783C141.044 201.324 141.294 200.908 141.502 200.533C141.721 200.158 141.986 199.72 142.294 199.22C142.585 198.762 142.924 198.481 143.314 198.366C143.7 198.241 144.044 198.262 144.335 198.429C144.627 198.585 144.799 198.84 144.856 199.199C144.908 199.564 144.757 199.97 144.398 200.429C143.898 201.069 143.231 201.757 142.398 202.491C141.564 203.231 140.799 204.033 140.106 204.908C139.575 205.564 139.137 206.132 138.794 206.616C138.445 207.106 138.361 207.418 138.544 207.554C138.695 207.653 138.986 207.486 139.419 207.054C139.846 206.611 140.367 206.022 140.981 205.283C141.606 204.548 142.236 203.819 142.877 203.095C143.554 202.345 144.242 201.616 144.939 200.908C145.632 200.199 146.304 199.595 146.96 199.095C147.627 198.595 148.252 198.278 148.835 198.137C149.429 197.986 149.95 198.116 150.398 198.533C150.799 198.923 150.945 199.403 150.835 199.97C150.736 200.543 150.471 201.147 150.044 201.783C149.627 202.423 149.148 203.085 148.606 203.762C148.064 204.429 147.549 205.064 147.064 205.658C146.59 206.241 146.242 206.772 146.023 207.241C145.814 207.699 145.825 208.048 146.064 208.283C146.398 208.59 146.96 208.632 147.752 208.408C148.554 208.173 149.486 207.673 150.544 206.908C151.596 206.147 152.679 205.173 153.794 203.991L154.023 204.22C153.09 205.278 152.111 206.272 151.085 207.199C150.054 208.132 149.044 208.908 148.044 209.533C147.054 210.147 146.153 210.512 145.335 210.637C144.528 210.772 143.887 210.58 143.419 210.054Z" fill="#C8B7A1"/>
<path d="M174.257 210.219C173.841 209.776 173.643 209.235 173.674 208.594C173.7 207.943 173.882 207.255 174.216 206.531C173.367 207.547 172.476 208.401 171.549 209.094C170.617 209.792 169.742 210.235 168.924 210.427C168.117 210.62 167.424 210.49 166.841 210.031C166.122 209.438 165.83 208.677 165.966 207.761C166.106 206.844 166.56 205.865 167.32 204.823C168.08 203.781 168.992 202.755 170.049 201.74C171.101 200.771 172.159 199.99 173.216 199.406C174.268 198.823 175.221 198.464 176.07 198.323C176.929 198.188 177.56 198.281 177.966 198.615C178.257 198.823 178.414 199.089 178.445 199.406C178.487 199.729 178.445 200.068 178.32 200.427C178.679 199.985 179.013 199.589 179.32 199.24C179.638 198.896 179.888 198.594 180.07 198.344C180.403 197.927 180.841 197.36 181.382 196.636C181.924 195.917 182.513 195.125 183.153 194.261C183.804 193.401 184.435 192.547 185.049 191.698C185.674 190.839 186.242 190.068 186.757 189.386C187.268 188.709 187.659 188.198 187.924 187.865C188.325 187.323 188.742 187.026 189.174 186.969C189.601 186.917 189.966 187.011 190.257 187.261C190.549 187.5 190.7 187.823 190.716 188.24C190.726 188.656 190.518 189.073 190.091 189.49C189.674 189.865 188.95 190.526 187.924 191.469C186.909 192.417 185.763 193.542 184.487 194.844C183.205 196.136 181.976 197.521 180.799 198.99C179.768 200.281 178.846 201.521 178.028 202.698C177.221 203.865 176.653 204.896 176.32 205.781C175.997 206.672 176.034 207.354 176.424 207.823C176.909 208.396 177.804 208.38 179.112 207.781C180.414 207.188 182.018 205.865 183.924 203.823L184.195 203.948C183.346 205.063 182.435 206.094 181.466 207.052C180.507 208 179.57 208.797 178.653 209.448C177.737 210.089 176.888 210.49 176.112 210.656C175.346 210.823 174.726 210.677 174.257 210.219ZM169.57 207.865C169.987 208.323 170.518 208.422 171.174 208.156C171.841 207.88 172.539 207.396 173.278 206.698C174.013 206.005 174.7 205.255 175.341 204.448C175.632 204.021 175.929 203.584 176.237 203.136C176.539 202.677 176.862 202.24 177.195 201.823C177.487 201.38 177.674 200.943 177.757 200.511C177.851 200.068 177.768 199.755 177.507 199.573C177.091 199.24 176.554 199.146 175.903 199.281C175.247 199.406 174.549 199.709 173.799 200.177C173.049 200.651 172.33 201.229 171.653 201.906C170.987 202.573 170.424 203.281 169.966 204.031C169.507 204.781 169.221 205.49 169.112 206.156C169.013 206.823 169.164 207.396 169.57 207.865Z" fill="#C8B7A1"/>
<path d="M184.431 210.135C184.046 209.677 183.942 209.125 184.119 208.469C184.301 207.802 184.64 207.089 185.14 206.323C185.624 205.563 186.108 204.813 186.598 204.073C187.14 203.214 187.666 202.359 188.181 201.51C188.692 200.667 189.265 199.813 189.89 198.948C190.124 198.646 190.416 198.464 190.765 198.406C191.108 198.339 191.431 198.38 191.723 198.531C192.015 198.688 192.202 198.927 192.285 199.26C192.369 199.594 192.233 200 191.89 200.469C191.666 200.776 191.291 201.177 190.765 201.677C190.249 202.167 189.686 202.693 189.077 203.26C188.478 203.818 187.936 204.38 187.452 204.948C186.963 205.521 186.629 206.063 186.452 206.573C186.27 207.073 186.358 207.505 186.723 207.865C187.306 208.422 188.207 208.396 189.431 207.781C190.666 207.156 192.207 205.865 194.056 203.906L194.327 204.031C193.452 205.156 192.52 206.198 191.535 207.156C190.561 208.115 189.608 208.901 188.681 209.51C187.749 210.109 186.91 210.474 186.16 210.615C185.426 210.766 184.848 210.604 184.431 210.135ZM190.035 196.406C190.91 195.938 191.52 195.552 191.869 195.26C192.228 194.969 192.499 194.714 192.681 194.49C192.874 194.271 193.145 194.052 193.494 193.844C193.895 193.635 194.233 193.635 194.515 193.844C194.806 194.052 194.957 194.323 194.973 194.656C194.983 194.979 194.785 195.234 194.369 195.427C193.978 195.635 193.645 195.76 193.369 195.802C193.088 195.844 192.728 195.927 192.285 196.052C191.838 196.177 191.192 196.464 190.348 196.906C190.108 197.005 189.942 196.969 189.848 196.802C189.749 196.635 189.811 196.505 190.035 196.406Z" fill="#C8B7A1"/>
<path d="M195.431 209.991C194.712 209.397 194.42 208.637 194.556 207.72C194.696 206.803 195.149 205.824 195.91 204.782C196.67 203.741 197.582 202.715 198.639 201.699C199.691 200.73 200.748 199.949 201.806 199.366C202.858 198.782 203.811 198.423 204.66 198.282C205.519 198.147 206.149 198.241 206.556 198.574C206.899 198.824 207.076 199.189 207.076 199.657C207.144 199.532 207.212 199.407 207.285 199.282C207.368 199.147 207.462 199.027 207.576 198.928C207.795 198.584 208.087 198.387 208.451 198.345C208.811 198.293 209.139 198.345 209.431 198.512C209.733 198.678 209.92 198.939 209.993 199.282C210.076 199.631 209.936 200.043 209.576 200.512C209.353 200.819 208.983 201.209 208.472 201.678C207.972 202.137 207.431 202.637 206.847 203.178C206.274 203.72 205.743 204.262 205.243 204.803C204.754 205.345 204.399 205.861 204.181 206.345C203.957 206.834 203.978 207.256 204.243 207.616C204.754 208.366 205.67 208.439 206.993 207.824C208.311 207.199 209.91 205.881 211.785 203.866L212.056 204.032C211.181 205.189 210.254 206.241 209.285 207.199C208.326 208.157 207.379 208.944 206.451 209.553C205.519 210.152 204.681 210.512 203.931 210.637C203.181 210.772 202.587 210.595 202.16 210.095C201.826 209.709 201.707 209.241 201.806 208.699C201.899 208.157 202.123 207.584 202.472 206.97C201.608 207.902 200.748 208.678 199.889 209.303C199.024 209.918 198.207 210.293 197.431 210.428C196.649 210.564 195.983 210.423 195.431 209.991ZM198.16 207.824C198.504 208.215 198.931 208.34 199.431 208.199C199.931 208.048 200.462 207.741 201.035 207.282C201.603 206.814 202.181 206.277 202.764 205.678C203.358 205.069 203.899 204.491 204.389 203.949C204.733 203.439 205.045 202.939 205.326 202.449C205.603 201.949 205.899 201.459 206.222 200.97C206.431 200.486 206.514 200.095 206.472 199.803C206.431 199.501 206.306 199.256 206.097 199.074C205.707 198.741 205.123 198.72 204.347 199.012C203.582 199.293 202.764 199.756 201.889 200.407C201.024 201.064 200.264 201.793 199.597 202.595C198.806 203.527 198.228 204.48 197.868 205.449C197.519 206.407 197.618 207.199 198.16 207.824Z" fill="#C8B7A1"/>
<mask id="mask6_2315_4982" style="mask-type:luminance" maskUnits="userSpaceOnUse" x="56" y="227" width="143" height="21">
<path d="M198.667 227.334H56V247.334H198.667V227.334Z" fill="white"/>
</mask>
<g mask="url(#mask6_2315_4982)">
<path d="M62.526 241.643L58.6302 232.185C58.5729 232.049 58.4427 231.966 58.2344 231.935C58.026 231.893 57.8646 231.872 57.7552 231.872H57.6719V231.664H60.0052V231.872H59.9219C59.8385 231.872 59.724 231.888 59.5885 231.914C59.4635 231.93 59.349 231.956 59.2552 231.997C59.1719 232.039 59.1406 232.112 59.1719 232.206L62.8177 240.977L66.4427 232.206C66.4844 232.112 66.4479 232.039 66.3385 231.997C66.224 231.945 66.0885 231.909 65.9219 231.893C65.7656 231.883 65.6406 231.872 65.5469 231.872H65.3802V231.664H67.7344V231.872H67.6927C67.6198 231.872 67.5104 231.883 67.3594 231.893C67.2187 231.909 67.0781 231.935 66.9427 231.977C66.8021 232.018 66.7135 232.096 66.6719 232.206L62.9219 241.247L62.6927 241.789H62.5885L62.526 241.643Z" fill="#C8B7A1"/>
<path d="M69.5273 241.581H69.7148C69.8398 241.581 69.9909 241.56 70.1732 241.518C70.3503 241.466 70.444 241.372 70.444 241.247V232.227C70.444 232.143 70.3919 232.081 70.2982 232.039C70.2148 231.987 70.1107 231.951 69.9857 231.935C69.8607 231.909 69.7461 231.893 69.6523 231.893C69.569 231.893 69.5273 231.893 69.5273 231.893V231.664H75.069V232.539H74.9648C74.9492 232.529 74.9076 232.466 74.8398 232.352C74.7669 232.242 74.6836 232.138 74.5898 232.039C74.5065 231.945 74.4076 231.893 74.2982 231.893H70.944V236.06H74.319C74.4023 236.06 74.4701 236.008 74.5273 235.893C74.5951 235.784 74.6315 235.727 74.6315 235.727H74.7357V236.622H74.6315C74.6315 236.622 74.5951 236.57 74.5273 236.456C74.4701 236.346 74.4023 236.289 74.319 236.289H70.944V241.581H74.6107C74.7617 241.581 74.8919 241.534 75.0065 241.435C75.1315 241.326 75.2357 241.216 75.319 241.102C75.4128 240.992 75.4648 240.924 75.4648 240.893H75.7148L75.1523 241.789H69.5273V241.581Z" fill="#C8B7A1"/>
<path d="M77.7148 241.581C77.9648 241.581 78.1784 241.555 78.3607 241.497C78.5378 241.445 78.6315 241.352 78.6315 241.227V232.206C78.6315 232.081 78.5378 231.997 78.3607 231.956C78.1784 231.914 77.9648 231.893 77.7148 231.893V231.664H81.1107C81.6784 231.664 82.194 231.779 82.6523 231.997C83.1211 232.221 83.4961 232.534 83.7773 232.935C84.0534 233.341 84.194 233.831 84.194 234.414C84.194 234.904 84.0794 235.346 83.8607 235.747C83.6367 236.138 83.3398 236.456 82.9648 236.706C82.5898 236.956 82.1628 237.117 81.694 237.185C82.0534 237.383 82.3711 237.596 82.6523 237.831C82.944 238.055 83.1523 238.43 83.2773 238.956C83.3294 239.18 83.4023 239.445 83.4857 239.747C83.5794 240.039 83.694 240.326 83.819 240.602C83.9544 240.883 84.1211 241.117 84.319 241.31C84.5273 241.492 84.7669 241.581 85.0482 241.581V241.789H84.2148C83.8503 241.513 83.5794 241.227 83.4023 240.935C83.2201 240.633 83.0794 240.305 82.9857 239.956C82.9023 239.612 82.8034 239.237 82.694 238.831C82.6367 238.596 82.5169 238.362 82.3398 238.122C82.1576 237.872 81.9544 237.664 81.7357 237.497C81.5273 237.331 81.319 237.247 81.1107 237.247H79.1523V241.227C79.1523 241.352 79.2409 241.445 79.4232 241.497C79.6003 241.555 79.819 241.581 80.069 241.581V241.789H77.7148V241.581ZM81.1107 237.039C81.5794 237.039 82.0117 236.924 82.4023 236.685C82.7878 236.451 83.0951 236.133 83.319 235.727C83.5534 235.326 83.6732 234.888 83.6732 234.414C83.6732 233.93 83.5534 233.497 83.319 233.122C83.0951 232.747 82.7878 232.451 82.4023 232.227C82.0117 232.008 81.5794 231.893 81.1107 231.893H79.8815C79.7565 231.893 79.6003 231.914 79.4232 231.956C79.2409 231.997 79.1523 232.091 79.1523 232.227V237.039H81.1107Z" fill="#C8B7A1"/>
<path d="M94.2969 241.581H94.4844C94.6094 241.581 94.7604 241.561 94.9427 241.519C95.1198 241.467 95.2135 241.373 95.2135 241.248V232.227C95.2135 232.102 95.1198 232.019 94.9427 231.977C94.7604 231.925 94.6094 231.894 94.4844 231.894H94.2969V231.686H96.651V231.894H96.4635C96.3385 231.894 96.1823 231.925 96.0052 231.977C95.8229 232.019 95.7344 232.102 95.7344 232.227V241.248C95.7344 241.373 95.8229 241.467 96.0052 241.519C96.1823 241.561 96.3385 241.581 96.4635 241.581H96.651V241.79H94.2969V241.581Z" fill="#C8B7A1"/>
<path d="M99.0195 241.581C99.2695 241.581 99.4831 241.56 99.6654 241.518C99.8424 241.466 99.9362 241.372 99.9362 241.247V232.206C99.9362 232.081 99.8424 231.997 99.6654 231.956C99.4831 231.904 99.2695 231.872 99.0195 231.872V231.664H100.436L106.249 240.768V232.206C106.249 232.081 106.15 231.997 105.957 231.956C105.775 231.904 105.566 231.872 105.332 231.872V231.664H107.353V231.872C107.103 231.872 106.884 231.904 106.707 231.956C106.525 231.997 106.436 232.081 106.436 232.206V241.789H106.249L100.145 232.143V241.247C100.145 241.372 100.233 241.466 100.415 241.518C100.592 241.56 100.811 241.581 101.061 241.581V241.789H99.0195V241.581Z" fill="#C8B7A1"/>
<path d="M109.73 241.581H109.918C110.043 241.581 110.194 241.561 110.376 241.519C110.553 241.467 110.647 241.373 110.647 241.248V232.248C110.647 232.165 110.595 232.102 110.501 232.061C110.418 232.008 110.314 231.972 110.189 231.956C110.064 231.93 109.949 231.915 109.855 231.915C109.772 231.904 109.73 231.894 109.73 231.894V231.686H115.272V232.561H115.168C115.152 232.55 115.111 232.488 115.043 232.373C114.97 232.264 114.887 232.16 114.793 232.061C114.71 231.951 114.611 231.894 114.501 231.894H111.168V236.081H114.543C114.626 236.081 114.694 236.029 114.751 235.915C114.819 235.79 114.855 235.727 114.855 235.727H114.939V236.644H114.855C114.855 236.644 114.819 236.592 114.751 236.477C114.694 236.352 114.626 236.29 114.543 236.29H111.168V241.248C111.168 241.373 111.257 241.467 111.439 241.519C111.616 241.561 111.772 241.581 111.897 241.581H112.085V241.79H109.73V241.581Z" fill="#C8B7A1"/>
<path d="M121.775 241.998C121.191 241.998 120.639 241.857 120.129 241.581C119.613 241.305 119.155 240.925 118.754 240.436C118.363 239.936 118.056 239.383 117.837 238.769C117.613 238.144 117.504 237.493 117.504 236.811C117.504 236.118 117.613 235.456 117.837 234.831C118.056 234.206 118.363 233.66 118.754 233.186C119.155 232.701 119.613 232.321 120.129 232.04C120.639 231.764 121.191 231.623 121.775 231.623H121.9C122.493 231.623 123.051 231.764 123.566 232.04C124.077 232.321 124.53 232.706 124.921 233.206C125.306 233.696 125.613 234.248 125.837 234.873C126.056 235.488 126.171 236.133 126.171 236.811C126.171 237.493 126.056 238.144 125.837 238.769C125.613 239.394 125.306 239.951 124.921 240.436C124.546 240.925 124.098 241.305 123.587 241.581C123.072 241.857 122.509 241.998 121.9 241.998H121.775ZM120.566 241.498C121.426 241.857 122.28 241.857 123.129 241.498C123.613 241.264 124.046 240.91 124.421 240.436C124.806 239.951 125.108 239.394 125.316 238.769C125.535 238.144 125.65 237.493 125.65 236.811C125.65 236.061 125.514 235.347 125.254 234.665C124.988 233.988 124.634 233.404 124.191 232.915C123.743 232.43 123.238 232.102 122.671 231.936C122.53 231.91 122.389 231.889 122.254 231.873C122.113 231.847 121.973 231.831 121.837 231.831C121.697 231.831 121.556 231.842 121.421 231.852C121.28 231.868 121.139 231.894 121.004 231.936C120.431 232.118 119.926 232.451 119.483 232.936C119.035 233.425 118.681 234.008 118.421 234.686C118.155 235.352 118.025 236.061 118.025 236.811C118.025 237.493 118.134 238.144 118.358 238.769C118.577 239.394 118.879 239.951 119.254 240.436C119.639 240.91 120.077 241.264 120.566 241.498Z" fill="#C8B7A1"/>
<path d="M128.023 241.581C128.273 241.581 128.487 241.555 128.669 241.497C128.846 241.445 128.94 241.352 128.94 241.227V232.206C128.94 232.081 128.846 231.997 128.669 231.956C128.487 231.914 128.273 231.893 128.023 231.893V231.664H131.419C131.987 231.664 132.503 231.779 132.961 231.997C133.43 232.221 133.805 232.534 134.086 232.935C134.362 233.341 134.503 233.831 134.503 234.414C134.503 234.904 134.388 235.346 134.169 235.747C133.945 236.138 133.648 236.456 133.273 236.706C132.898 236.956 132.471 237.117 132.003 237.185C132.362 237.383 132.68 237.596 132.961 237.831C133.253 238.055 133.461 238.43 133.586 238.956C133.638 239.18 133.711 239.445 133.794 239.747C133.888 240.039 134.003 240.326 134.128 240.602C134.263 240.883 134.43 241.117 134.628 241.31C134.836 241.492 135.076 241.581 135.357 241.581V241.789H134.523C134.159 241.513 133.888 241.227 133.711 240.935C133.529 240.633 133.388 240.305 133.294 239.956C133.211 239.612 133.112 239.237 133.003 238.831C132.945 238.596 132.826 238.362 132.648 238.122C132.466 237.872 132.263 237.664 132.044 237.497C131.836 237.331 131.628 237.247 131.419 237.247H129.461V241.227C129.461 241.352 129.549 241.445 129.732 241.497C129.909 241.555 130.128 241.581 130.378 241.581V241.789H128.023V241.581ZM131.419 237.039C131.888 237.039 132.32 236.924 132.711 236.685C133.096 236.451 133.404 236.133 133.628 235.727C133.862 235.326 133.982 234.888 133.982 234.414C133.982 233.93 133.862 233.497 133.628 233.122C133.404 232.747 133.096 232.451 132.711 232.227C132.32 232.008 131.888 231.893 131.419 231.893H130.19C130.065 231.893 129.909 231.914 129.732 231.956C129.549 231.997 129.461 232.091 129.461 232.227V237.039H131.419Z" fill="#C8B7A1"/>
<path d="M137.934 241.581C138.184 241.581 138.397 241.56 138.579 241.518C138.757 241.466 138.85 241.372 138.85 241.247V232.206C138.85 232.081 138.757 231.997 138.579 231.956C138.397 231.904 138.184 231.872 137.934 231.872V231.664H139.413L143.1 240.81L146.725 231.664H148.225V231.872C147.975 231.872 147.757 231.904 147.579 231.956C147.397 231.997 147.309 232.081 147.309 232.206V241.247C147.309 241.372 147.397 241.466 147.579 241.518C147.757 241.56 147.975 241.581 148.225 241.581V241.789H145.871V241.581C146.121 241.581 146.335 241.56 146.517 241.518C146.694 241.466 146.788 241.372 146.788 241.247V232.102L142.954 241.727H142.913L139.059 232.164V241.247C139.059 241.372 139.147 241.466 139.329 241.518C139.507 241.56 139.725 241.581 139.975 241.581V241.789H137.934V241.581Z" fill="#C8B7A1"/>
<path d="M150.02 241.581C150.228 241.581 150.436 241.57 150.645 241.539C150.863 241.513 151.009 241.424 151.082 241.268L154.79 231.664H154.999V231.685L158.728 241.289C158.811 241.414 158.936 241.497 159.103 241.539C159.27 241.57 159.457 241.581 159.665 241.581V241.789H157.332V241.581C157.551 241.581 157.759 241.56 157.957 241.518C158.15 241.477 158.217 241.388 158.165 241.247L156.686 237.414H152.79L151.29 241.247H151.311C151.27 241.346 151.301 241.424 151.415 241.477C151.54 241.518 151.691 241.549 151.874 241.56C152.051 241.576 152.217 241.581 152.374 241.581V241.789H150.02V241.581ZM156.603 237.206L154.728 232.393L152.874 237.206H156.603Z" fill="#C8B7A1"/>
<path d="M165.743 241.976C165.145 241.976 164.587 241.84 164.077 241.58C163.561 241.304 163.108 240.929 162.723 240.455C162.332 239.986 162.025 239.434 161.806 238.809C161.582 238.174 161.473 237.497 161.473 236.788C161.473 236.07 161.582 235.393 161.806 234.768C162.025 234.132 162.332 233.575 162.723 233.101C163.108 232.632 163.561 232.262 164.077 231.997C164.587 231.721 165.145 231.58 165.743 231.58C166.353 231.58 166.931 231.715 167.473 231.976L167.431 231.955C167.691 232.07 167.936 232.195 168.16 232.33C168.395 232.455 168.582 232.559 168.723 232.643C168.858 232.726 168.931 232.768 168.931 232.768L169.16 233.726L168.973 233.83C168.775 233.387 168.504 233.012 168.16 232.705C167.811 232.403 167.431 232.174 167.014 232.018C166.598 231.867 166.171 231.788 165.743 231.788C165.228 231.788 164.743 231.929 164.285 232.205C163.837 232.486 163.441 232.861 163.098 233.33C162.749 233.804 162.478 234.34 162.285 234.934C162.087 235.518 161.993 236.137 161.993 236.788C161.993 237.403 162.082 237.992 162.264 238.559C162.441 239.117 162.686 239.622 162.993 240.08C163.311 240.538 163.681 240.913 164.098 241.205C164.514 241.497 164.962 241.679 165.452 241.747C165.493 241.762 165.54 241.768 165.598 241.768C165.65 241.768 165.702 241.768 165.743 241.768C166.421 241.768 167.061 241.57 167.66 241.163C168.254 240.747 168.743 240.184 169.118 239.476L169.306 239.58L169.035 240.684C169.035 240.684 168.952 240.742 168.785 240.851C168.629 240.95 168.421 241.07 168.16 241.205C167.895 241.346 167.603 241.486 167.285 241.622H167.306C166.816 241.856 166.296 241.976 165.743 241.976Z" fill="#C8B7A1"/>
<path d="M171.68 241.581H171.867C171.992 241.581 172.143 241.561 172.326 241.519C172.503 241.467 172.596 241.373 172.596 241.248V232.227C172.596 232.102 172.503 232.019 172.326 231.977C172.143 231.925 171.992 231.894 171.867 231.894H171.68V231.686H174.034V231.894H173.846C173.721 231.894 173.565 231.925 173.388 231.977C173.206 232.019 173.117 232.102 173.117 232.227V241.248C173.117 241.373 173.206 241.467 173.388 241.519C173.565 241.561 173.721 241.581 173.846 241.581H174.034V241.79H171.68V241.581Z" fill="#C8B7A1"/>
<path d="M179.948 230.727L181.177 229.289L181.531 229.664L180.115 230.893L179.948 230.727ZM180.677 241.997C180.094 241.997 179.542 241.857 179.031 241.581C178.516 241.305 178.057 240.924 177.656 240.435C177.266 239.935 176.958 239.383 176.74 238.768C176.516 238.143 176.406 237.492 176.406 236.81C176.406 236.117 176.516 235.456 176.74 234.831C176.958 234.206 177.266 233.659 177.656 233.185C178.057 232.701 178.516 232.32 179.031 232.039C179.542 231.763 180.094 231.622 180.677 231.622H180.802C181.396 231.622 181.953 231.763 182.469 232.039C182.979 232.32 183.432 232.706 183.823 233.206C184.208 233.695 184.516 234.247 184.74 234.872C184.958 235.487 185.073 236.133 185.073 236.81C185.073 237.492 184.958 238.143 184.74 238.768C184.516 239.393 184.208 239.951 183.823 240.435C183.448 240.924 183 241.305 182.49 241.581C181.974 241.857 181.411 241.997 180.802 241.997H180.677ZM179.469 241.497C180.328 241.857 181.182 241.857 182.031 241.497C182.516 241.263 182.948 240.909 183.323 240.435C183.708 239.951 184.01 239.393 184.219 238.768C184.438 238.143 184.552 237.492 184.552 236.81C184.552 236.06 184.417 235.346 184.156 234.664C183.891 233.987 183.536 233.404 183.094 232.914C182.646 232.43 182.141 232.102 181.573 231.935C181.432 231.909 181.292 231.888 181.156 231.872C181.016 231.846 180.875 231.831 180.74 231.831C180.599 231.831 180.458 231.841 180.323 231.852C180.182 231.867 180.042 231.893 179.906 231.935C179.333 232.117 178.828 232.451 178.385 232.935C177.938 233.424 177.583 234.008 177.323 234.685C177.057 235.352 176.927 236.06 176.927 236.81C176.927 237.492 177.036 238.143 177.26 238.768C177.479 239.393 177.781 239.951 178.156 240.435C178.542 240.909 178.979 241.263 179.469 241.497Z" fill="#C8B7A1"/>
<path d="M187.301 241.581C187.551 241.581 187.764 241.56 187.947 241.518C188.124 241.466 188.217 241.372 188.217 241.247V232.206C188.217 232.081 188.124 231.997 187.947 231.956C187.764 231.904 187.551 231.872 187.301 231.872V231.664H188.717L194.53 240.768V232.206C194.53 232.081 194.431 231.997 194.238 231.956C194.056 231.904 193.848 231.872 193.613 231.872V231.664H195.634V231.872C195.384 231.872 195.165 231.904 194.988 231.956C194.806 231.997 194.717 232.081 194.717 232.206V241.789H194.53L188.426 232.143V241.247C188.426 241.372 188.514 241.466 188.697 241.518C188.874 241.56 189.092 241.581 189.342 241.581V241.789H187.301V241.581Z" fill="#C8B7A1"/>
</g>
</svg>
