<svg width="252" height="292" viewBox="0 0 252 292" fill="none" xmlns="http://www.w3.org/2000/svg">
<mask id="mask0_2310_2951" style="mask-type:luminance" maskUnits="userSpaceOnUse" x="0" y="0" width="252" height="292">
<path d="M0.382812 0.306641H251.987V291.999H0.382812V0.306641Z" fill="white"/>
</mask>
<g mask="url(#mask0_2310_2951)">
<mask id="mask1_2310_2951" style="mask-type:luminance" maskUnits="userSpaceOnUse" x="0" y="0" width="252" height="292">
<path d="M251.987 23.2493V268.734C251.987 274.817 249.57 280.65 245.268 284.952C240.966 289.255 235.133 291.676 229.044 291.676H23.3255C17.2422 291.676 11.4036 289.255 7.10156 284.952C2.79948 280.65 0.382812 274.817 0.382812 268.734V23.2493C0.382812 17.1608 2.79948 11.3275 7.10156 7.02539C11.4036 2.72331 17.2422 0.306641 23.3255 0.306641H229.044C235.133 0.306641 240.966 2.72331 245.268 7.02539C249.57 11.3275 251.987 17.1608 251.987 23.2493Z" fill="white"/>
</mask>
<g mask="url(#mask1_2310_2951)">
<mask id="mask2_2310_2951" style="mask-type:luminance" maskUnits="userSpaceOnUse" x="-1" y="-1" width="254" height="294">
<path d="M252.415 -0.667969H-0.917969V292.665H252.415V-0.667969Z" fill="white"/>
</mask>
<g mask="url(#mask2_2310_2951)">
<mask id="mask3_2310_2951" style="mask-type:luminance" maskUnits="userSpaceOnUse" x="0" y="0" width="252" height="292">
<path d="M0.382812 0.306641H251.987V291.333H0.382812V0.306641Z" fill="white"/>
</mask>
<g mask="url(#mask3_2310_2951)">
<mask id="mask4_2310_2951" style="mask-type:luminance" maskUnits="userSpaceOnUse" x="0" y="0" width="252" height="292">
<path d="M251.987 23.2493V268.734C251.987 274.817 249.57 280.65 245.268 284.952C240.966 289.255 235.133 291.676 229.044 291.676H23.3255C17.2422 291.676 11.4036 289.255 7.10156 284.952C2.79948 280.65 0.382812 274.817 0.382812 268.734V23.2493C0.382812 17.1608 2.79948 11.3275 7.10156 7.02539C11.4036 2.72331 17.2422 0.306641 23.3255 0.306641H229.044C235.133 0.306641 240.966 2.72331 245.268 7.02539C249.57 11.3275 251.987 17.1608 251.987 23.2493Z" fill="white"/>
</mask>
<g mask="url(#mask4_2310_2951)">
<path d="M0.382812 0.306641H251.987V291.223H0.382812V0.306641Z" fill="#1F3D58"/>
</g>
</g>
</g>
</g>
</g>
<path d="M156.055 122.776C155.971 123.312 156.351 124.354 156.789 124.666C157.351 125.083 158.289 125.093 158.127 124.208C158.07 123.88 156.278 122.531 156.055 122.776Z" fill="#C8B7A1"/>
<path d="M94.4039 125.001C95.2789 125.198 96.4924 123.761 96.3049 123.027C96.1643 122.469 94.8258 123.386 94.5966 123.615C94.5706 123.641 94.2372 124.178 94.232 124.209C94.1956 124.448 94.3518 124.761 94.3987 125.001H94.4039Z" fill="#C8B7A1"/>
<mask id="mask5_2310_2951" style="mask-type:luminance" maskUnits="userSpaceOnUse" x="50" y="32" width="152" height="130">
<path d="M50.9023 32.666H201.527V161.713H50.9023V32.666Z" fill="white"/>
</mask>
<g mask="url(#mask5_2310_2951)">
<path d="M201.412 159.353C200.376 159.312 199.329 159.4 198.287 159.353C195.881 159.26 192.293 159.301 190.027 158.833C189.714 158.765 189.433 158.458 189.162 158.421C188.589 158.338 187.277 158.619 186.47 158.551C185.36 158.463 184.084 158.114 183.683 156.952C185.938 157.14 189.063 155.848 189.115 153.275L184.964 154.39C185.277 153.879 185.647 153.353 185.839 152.786C185.907 152.598 186.23 151.666 185.839 151.682C185.704 151.682 184.261 153.161 183.761 153.432C183.136 153.786 182.329 154.046 181.6 154.067C182.183 153.468 182.334 150.567 181.683 150.239L180.485 151.598C180.214 151.833 179.428 152.379 179.121 152.473C178.819 152.562 178.907 152.426 178.886 152.239C178.803 151.598 179.084 150.843 178.574 150.307C177.162 150.603 175.907 151.546 174.99 152.645L173.621 155.187C173.615 154.286 173.834 153.301 174.183 152.473C174.423 151.911 175.48 150.676 175.501 150.452C175.511 150.364 175.126 149.265 175.069 149.182C174.73 148.754 173.615 149.041 173.142 149.197C172.36 149.452 171.798 150.098 171.063 150.39C170.892 150.223 171.871 149.317 172.017 149.192C172.313 148.942 173.813 148.202 173.459 147.838C172.131 147.89 171.194 147.463 169.912 148.036C169.501 148.218 169.225 148.603 168.829 148.708C169.319 146.869 171.11 147.223 172.475 146.77C173.938 146.275 174.912 144.744 175.855 143.603C173.615 142.077 171.105 143.624 169.47 145.28C169.808 144.359 170.61 143.583 171.131 142.713C172.152 140.989 172.334 139.64 173.022 137.885C173.24 137.327 173.6 136.879 173.782 136.333C171.251 136.187 169.829 137.754 168.548 139.635C168.449 139.775 168.574 139.926 168.194 139.843C168.147 134.223 168.256 128.603 168.194 122.989C168.063 108.848 167.756 94.645 167.543 80.5096C167.412 71.9732 168.589 65.9888 164.6 58.0513C156.063 41.1138 137.522 29.3586 118.157 33.5252C104.631 36.4315 91.6051 48.0669 86.5269 60.843C84.9332 64.8586 85.0999 66.9107 84.9644 71.1034C84.3863 89.7961 84.3811 108.624 84.1519 127.317C84.0999 131.499 84.2978 135.692 84.0009 139.864L82.6624 137.999C81.4905 137.051 80.1624 136.176 78.5686 136.343C78.7457 136.89 79.1051 137.338 79.329 137.9C79.8551 139.254 80.0842 140.744 80.7769 142.046L83.0374 145.447C81.3082 143.692 78.9696 142.218 76.4853 143.452C77.1207 144.692 78.4332 146.249 79.7665 146.713C81.204 147.213 83.0113 146.801 83.5113 148.796C82.0634 147.463 80.6832 147.754 78.8811 147.838C78.4957 148.223 80.1936 149.103 80.4801 149.348C80.7561 149.593 81.2249 150.004 81.1936 150.39C80.5894 149.833 77.9644 148.541 77.3082 148.968C77.2405 149.01 76.8238 150.364 76.8394 150.437C76.8707 150.619 77.7821 151.754 77.9853 152.166C78.3863 152.973 78.678 153.775 78.5686 154.702L77.2144 152.468C76.928 151.864 74.0113 149.973 73.6207 150.239L73.2144 152.312L72.0999 151.833L70.6676 150.239C69.9592 150.557 70.079 153.473 70.7457 154.067C70.553 154.208 68.7561 153.567 68.4592 153.405C67.9592 153.135 66.6415 151.687 66.5165 151.682C65.9957 151.65 66.6415 153.208 66.7301 153.379C66.9019 153.749 67.2144 154.036 67.3967 154.39C67.2353 154.515 63.9957 153.307 63.4488 153.301C62.7978 153.301 63.428 154.515 63.6519 154.853C64.6207 156.296 66.9853 157.103 68.6728 156.942C68.2561 158.083 67.1519 158.437 66.0374 158.541C62.1936 158.874 58.2769 159.208 54.3863 159.348C53.8655 159.364 51.0634 159.213 50.9436 159.348C50.9019 159.385 50.9696 159.827 50.9436 159.989H68.1103C68.3655 160.14 67.9853 160.202 67.8759 160.228C67.2717 160.385 66.3603 160.405 65.9644 160.947C66.9696 161.228 68.0374 160.853 69.0582 160.807C69.6311 160.78 70.5738 160.89 71.0894 160.874C71.5999 160.869 72.2405 160.567 72.7509 160.468L72.5061 161.109C73.6311 160.9 74.7978 161.046 75.9228 160.926C77.3811 160.775 78.8186 160.093 80.4071 159.978C88.5738 159.421 97.678 160.14 105.98 159.994C106.647 159.978 109.845 159.614 110.178 159.874C110.24 159.926 110.261 160.155 110.36 160.218C110.589 160.369 113.506 160.374 113.725 160.218C113.855 160.135 113.839 159.827 113.954 159.827C114.105 159.827 114.881 160.218 115.256 160.286C116.694 160.536 118.886 160.562 120.313 160.265C121.339 160.051 121.574 159.515 122.912 159.655C123.506 159.713 123.73 160.004 124.22 160.098C132.183 161.609 140.871 160.947 148.933 160.937C155.069 160.921 161.36 161.135 167.475 160.947C169.615 160.879 172.293 160.4 174.334 160.447C174.98 160.463 175.615 160.843 176.272 160.921C177.371 161.062 178.72 160.999 179.845 161.093L179.454 160.452C180.808 160.89 181.959 160.734 183.282 160.807C184.319 160.859 185.386 161.192 186.397 160.937L186.24 160.692L184.485 160.135L201.017 159.973C201.412 159.9 201.464 159.718 201.418 159.333L201.412 159.353ZM131.47 120.155C130.912 124.65 130.949 129.197 130.308 133.692C129.386 140.135 127.714 147.624 125.652 153.796C125.214 155.098 124.464 157.572 123.813 158.666C123.527 159.15 122.267 159.166 121.808 159.004C121.574 158.926 121.532 158.603 121.371 158.484C120.558 157.89 120.1 158.192 119.272 158.03C117.522 157.692 117.142 157.093 115.855 156.176C115.699 156.072 115.339 156.01 115.319 155.989C115.225 155.869 116.053 154.119 114.839 154.244C114.772 154.155 115.376 153.807 115.334 153.369C115.293 152.968 114.876 153.114 114.829 152.734C114.6 150.817 114.928 147.223 115.162 145.218C115.407 143.098 115.923 140.754 116.6 138.833C116.99 137.754 116.803 137.124 116.918 136.114C117.256 133.182 117.704 130.254 118.032 127.322C118.105 126.655 118.261 122.853 118.501 122.687C119.162 122.234 119.636 123.145 119.782 121.411C119.918 119.812 119.673 118.202 119.615 116.629C119.563 114.838 119.569 113.051 119.464 111.27C121.345 111.244 122.954 111.744 122.178 109.192C123.647 108.931 125.204 109.119 126.418 108.077C128.214 110.28 130.115 112.499 132.537 114.01C132.308 116.083 131.72 118.083 131.47 120.15V120.155ZM165.798 139.452C165.798 140.124 165.464 141.025 165.631 141.775C165.131 141.504 164.74 140.708 164.345 141.53C163.886 142.499 163.751 143.937 164.032 144.973L162.355 143.057L162.11 143.603L161.803 145.775L161.324 141.942C162.803 142.051 163.85 140.598 164.178 139.286C164.293 138.827 164.761 136.098 164.256 136.02C163.449 135.89 160.563 137.78 160.683 138.9C160.522 138.947 160.36 138.218 160.36 138.182V135.223C160.647 135.202 160.475 135.572 160.673 135.786C160.782 135.905 161.089 136.004 161.256 136.02C163.209 136.197 164.6 132.083 163.782 130.577C162.589 130.786 161.563 131.312 160.97 132.39L160.204 134.577L159.574 129.15C160.136 128.926 161.027 128.145 161.235 127.89C161.668 127.343 161.897 126.697 162.001 126.01C162.022 125.885 162.048 125.15 162.022 125.114C161.824 124.874 160.876 125.588 160.668 125.754C160.173 126.15 159.668 126.671 159.36 127.249L158.933 123.562C160.048 123.978 161.855 121.739 161.803 120.926C161.782 120.624 161.501 120.775 161.371 120.807C160.73 120.916 160.063 121.312 159.569 121.723C159.225 122.01 159.079 122.359 158.772 122.603C158.631 121.833 158.313 121.124 158.449 120.301C158.464 120.166 158.605 120.218 158.615 120.213C158.584 119.603 158.798 119.036 158.532 118.458C158.329 118.249 157.699 116.734 157.418 116.853C157.1 116.994 156.704 118.463 156.709 118.838C156.74 119.999 157.845 120.546 157.813 121.645L156.626 120.676L156.058 120.53C156.089 121.333 156.225 121.999 156.865 122.515C157.944 123.379 157.839 122.551 158.131 124.202C158.131 124.213 158.267 124.208 158.298 124.437C158.433 125.348 158.334 126.447 158.615 127.39L156.865 125.869C156.136 125.53 155.272 125.317 154.464 125.395C155.001 126.359 155.397 127.129 156.506 127.51C156.918 127.65 157.464 127.635 157.813 127.807C157.99 127.89 158.798 128.65 158.537 128.833C158.24 128.223 155.522 127.749 155.423 128.275C155.949 129.853 157.204 130.895 158.923 130.765C159.579 135.687 159.626 140.754 158.454 145.609L157.688 143.583C157.251 142.702 156.543 141.786 155.876 140.843C156.225 140.874 156.621 140.65 157.011 139.989C157.657 138.905 157.86 137.291 156.897 136.359C156.418 136.859 155.98 137.312 155.793 138.004C155.636 137.952 155.657 137.307 155.376 137.504C154.892 137.853 154.73 138.494 154.777 139.129C154.511 138.629 154.303 138.119 154.209 137.619C154.136 137.254 154.918 136.067 154.772 134.999C154.73 134.692 153.881 132.4 153.501 132.666C153.194 132.879 152.548 134.817 152.563 135.286C152.579 136.374 153.267 137.02 153.662 137.932C152.793 137.187 151.428 135.713 150.194 135.723C149.303 135.734 150.464 137.708 151.027 138.093C152.022 138.775 152.782 138.327 153.183 138.489C153.454 138.598 154.402 139.921 154.303 140.01C153.433 139.796 152.709 139.083 151.746 139.213C151.678 140.077 152.079 140.947 152.782 141.452C153.735 142.129 154.772 141.536 154.454 143.202L153.397 142.109C152.194 141.478 150.912 140.874 149.506 140.963C149.319 142.853 150.918 144.708 152.668 145.234C153.168 145.385 154.397 145.374 154.454 145.442C154.511 145.494 154.548 146.64 154.615 146.874C153.569 146.499 152.517 146.239 151.418 146.557L152.22 148.15C151.949 148.124 151.553 148.437 151.339 148.416C150.881 148.369 148.579 144.218 147.11 144.64C147.037 144.713 147.444 146.442 147.636 146.666C148.058 147.176 149.089 147.155 149.589 147.51C149.886 147.718 150.631 148.801 150.548 149.109C149.418 148.051 147.839 147.624 146.313 147.515C147.022 149.124 147.819 150.76 149.194 151.905C149.032 152.166 148.839 151.853 148.709 151.744C148.371 151.468 147.996 151.166 147.668 150.874C142.912 146.603 136.027 135.833 138.053 129.27C138.657 127.338 140.496 125.723 140.725 123.635C141.105 120.197 138.688 118.708 138.376 115.76C138.157 113.697 139.267 111.9 139.772 109.973C140.058 110.129 139.897 110.666 140.048 111.051C140.485 112.114 142.407 112.181 142.319 111.171C142.298 110.911 141.959 110.681 142.006 110.614C142.168 110.411 143.428 110.374 143.595 109.239C143.761 108.124 142.985 107.833 142.636 106.937C143.865 107.046 145.017 105.952 145.183 104.77C145.595 101.801 143.334 101.374 142.714 99.119C142.287 97.5721 142.725 96.395 142.636 94.8794C142.407 90.9367 140.048 87.2127 135.574 88.4471C135.084 88.5825 134.058 88.9419 133.537 89.1294C132.178 89.6138 131.194 90.77 131.496 92.2857C131.683 93.2284 132.261 93.0669 132.397 93.2127C132.871 93.7284 131.355 94.7023 131.47 95.1607C131.553 95.6659 132.334 95.5305 132.407 95.593C132.428 95.6086 132.272 95.8898 132.282 96.1034C132.319 96.5565 132.631 97.8898 133.043 98.0617C132.204 99.343 131.767 100.791 132.881 102.062C133.063 102.265 133.657 102.614 133.683 102.708C133.735 102.926 132.022 104.458 133.996 105.254C131.704 106.614 130.98 108.348 132.725 110.609C131.522 110.228 128.511 108.478 128.397 107.176C128.334 106.379 128.881 105.562 128.084 104.942C127.912 104.801 127.485 104.718 127.464 104.692C127.438 104.65 127.798 104.103 127.178 103.921C126.746 103.796 126.61 104.135 126.392 104.176C125.876 104.265 125.589 103.728 125.136 104.702L124.902 104.135C123.98 103.822 122.095 106.885 121.704 106.619C121.673 106.598 121.673 106.296 121.548 106.213C121.313 106.051 119.49 106.478 119.058 106.583C118.772 106.53 118.532 104.484 118.428 104.062C117.803 101.458 117.037 98.8794 115.834 96.4732C116.334 96.0096 116.923 94.9627 116.761 94.2648C116.683 93.9263 115.834 94.2127 115.793 94.1659C115.668 94.0252 115.699 92.3794 116.188 92.5721C116.642 92.7544 117.089 93.8325 118.095 93.6919C118.652 93.619 118.537 93.1659 118.756 92.9055C118.923 92.7127 119.199 92.6502 119.313 92.4992C119.47 92.2909 119.438 91.9523 119.464 91.9315C119.589 91.8117 120.392 92.4627 120.725 92.2388C121.079 91.8117 120.767 90.0565 120.928 89.8742C120.975 89.8221 121.334 89.8638 121.621 89.5305C122.053 89.0305 122.048 87.7127 122.334 87.5252C122.902 87.1659 123.839 87.9055 124.188 86.3482C124.563 84.645 123.402 84.8169 122.438 84.2388C121.381 83.593 120.839 82.5357 119.392 82.0148C116.834 81.1034 114.381 82.5877 113.761 85.1867C113.35 86.895 113.407 89.6971 111.319 90.2492C112.017 90.619 112.699 91.1086 113.313 91.6086C113.61 91.8534 115.334 93.3586 115.407 93.5252C115.475 93.6815 114.782 94.4002 114.996 94.8065C114.168 93.9315 113.563 92.8325 112.704 91.9836C112.178 91.4732 111.418 91.0721 110.923 90.4992C109.449 92.4575 107.574 94.1346 106.688 96.4836C105.407 99.8794 106.381 102.806 106.537 106.223C106.772 111.301 105.746 116.426 104.985 121.416C105.074 121.905 108.058 122.135 108.454 122.364C108.589 122.447 109.678 124.999 109.72 125.254C110.277 128.405 109.902 132.119 110.517 135.317C109.782 136.192 110.303 136.379 110.324 137.03C110.355 137.911 109.756 139.629 109.615 140.629C109.235 143.359 109.204 145.661 109.407 148.411C109.584 150.676 110.381 153.827 110.36 155.916C110.355 156.801 109.631 157.932 110.043 158.874H105.011C104.569 158.874 103.532 158.593 103.069 158.421C102.194 158.103 101.194 157.369 100.459 156.796C102.313 157.666 104.256 157.333 106.053 156.478C106.147 156.109 105.98 156.218 105.85 156.119C104.793 155.28 103.699 154.869 102.47 154.395C102.303 154.327 102.084 154.333 102.063 154.088C104.777 153.489 107.813 152.874 109.089 150.093C108.053 150.036 107.006 150.145 106.017 150.458C105.006 150.78 104.277 151.437 103.334 151.848C104.584 150.687 105.136 149.166 106.048 147.775C106.048 147.291 104.204 147.775 103.902 147.864C103.152 148.098 102.334 148.53 101.813 149.129C101.73 148.822 102.475 147.744 102.772 147.53C103.178 147.244 103.678 147.291 104.084 147.088C104.938 146.682 105.11 145.504 105.246 144.661C103.798 144.182 101.433 148.463 101.147 148.504C100.829 148.551 100.47 148.171 100.131 148.171C100.339 147.593 101.006 147.249 100.933 146.572C99.829 146.327 98.7769 146.421 97.7405 146.895C97.803 146.661 97.8446 145.515 97.8967 145.458C97.9436 145.405 98.9801 145.458 99.3446 145.385C101.183 145.004 103.011 142.885 102.85 140.984C101.527 140.864 100.256 141.343 99.1207 141.968L97.8967 143.218V141.942C99.5374 142.182 100.256 140.754 100.767 139.468C100.121 138.807 99.0946 139.676 98.454 139.869C97.7509 140.077 98.8603 138.635 99.178 138.51C99.4071 138.416 99.9019 138.629 100.334 138.562C101.636 138.359 102.36 136.89 102.527 135.718C100.902 135.744 99.9488 136.765 98.8603 137.791C98.9592 137.182 99.5009 136.687 99.6207 136.077C99.829 134.978 99.553 133.093 98.3759 132.682C97.9957 134.025 97.3499 134.713 97.6155 136.239C97.7092 136.77 98.1103 137.135 98.1936 137.442C98.2874 137.812 97.3394 139.468 97.0686 139.921C96.4488 140.978 95.6311 141.911 94.9957 142.958L93.9071 145.619C93.7613 144.572 93.4228 143.53 93.2874 142.484C93.1624 141.489 93.0738 140.348 93.0269 139.15C93.4853 139.275 94.1624 139.083 95.0269 138.4C95.5582 137.989 96.303 136.192 95.6363 136.166L95.1155 136.504C95.3134 136.223 95.6051 134.27 95.5113 134.124C95.1884 133.614 93.5217 134.989 93.0009 135.593C93.0321 134.062 93.1311 132.588 93.2874 131.333C93.4019 130.426 93.8186 130.885 94.5634 130.692C95.3446 130.494 97.0894 129.057 96.9436 128.291C96.8655 127.869 95.1571 128.129 94.803 128.218C94.2144 128.364 94.079 128.796 93.5894 128.765C94.2822 127.551 94.7769 127.869 95.8551 127.525C96.9592 127.166 97.3655 126.348 97.8967 125.411C96.1051 125.208 94.8499 126.135 93.7457 127.405C94.0009 126.421 93.9071 125.275 94.0634 124.307C94.079 124.161 94.2196 124.223 94.2301 124.213C94.2821 123.921 94.1415 123.588 94.3082 123.254C94.5999 122.65 96.7613 122.135 96.1415 120.536L94.5478 121.338C94.4957 120.51 95.3603 120.025 95.4957 119.171C95.5842 118.624 95.2978 116.296 94.6363 117.025C94.1259 117.588 93.4592 118.947 93.5894 119.739L92.6311 118.697L92.1519 118.458C91.8655 119.437 91.9071 120.911 92.8915 121.473C93.9592 122.072 93.6832 120.369 93.829 120.369L93.9124 121.098L93.428 122.603C93.6207 121.754 90.6988 120.53 90.553 120.692C90.8186 122.312 91.6311 123.333 93.2717 123.661L92.7665 128.484C92.3446 127.083 91.2926 125.77 90.1519 125.015C89.5946 125.135 89.7301 127.963 89.8551 128.499C90.0165 129.161 91.2301 130.968 91.7457 131.4C91.9384 131.567 92.204 131.661 92.4332 131.536C92.4332 131.536 92.4332 131.536 92.4384 131.525L92.1311 134.432L91.4644 132.624C90.7926 131.421 89.8394 130.76 88.4644 130.593C88.0738 132.15 88.4176 134.01 89.4957 135.228C89.9644 135.749 90.9124 136.452 91.5946 135.885C91.8551 135.666 91.678 135.239 91.9749 135.228L91.8134 138.9L90.6988 137.379C90.3707 137.077 88.2144 135.78 87.9801 136.025C87.6207 138.166 88.1103 141.791 90.8499 141.942C91.0269 143.296 90.4696 144.572 90.5374 145.926L90.0582 143.051L88.303 145.124C88.6103 144.426 88.2769 141.817 87.9019 141.296C87.5165 140.765 87.053 141.619 86.7092 141.775C86.7405 137.655 86.6519 133.515 86.6988 129.39C86.8551 114.937 87.1624 100.421 87.3551 85.9575C87.4332 79.8325 87.0946 73.3273 87.5009 67.2544C88.0165 59.6294 96.1676 49.0461 101.97 44.343C121.985 28.1086 147.022 34.6867 160.188 55.5982C163.131 60.27 164.517 63.2805 164.813 68.8638C165.287 77.9471 165.022 87.218 165.131 96.3377C165.308 110.676 165.845 125.114 165.787 139.447L165.798 139.452Z" fill="#C8B7A1"/>
</g>
<path d="M159.357 121.541C160.503 121.005 160.305 119.489 160.195 118.463C159.456 118.682 158.883 119.541 158.602 120.218C158.622 120.739 158.555 121.911 159.357 121.541Z" fill="#C8B7A1"/>
<path d="M57.5527 198.929C59.5788 198.335 61.3704 197.402 62.9277 196.137C64.4798 194.861 65.8444 193.189 67.0111 191.116C67.2871 190.606 67.6256 190.304 68.0319 190.22C68.4329 190.126 68.7923 190.179 69.1152 190.387C69.4329 190.595 69.6152 190.918 69.6569 191.345C69.709 191.762 69.5215 192.257 69.0944 192.824C68.0371 194.189 66.7246 195.402 65.1569 196.47C63.584 197.543 61.8913 198.408 60.0736 199.074C58.2663 199.741 56.4381 200.184 54.5944 200.408C52.7611 200.626 51.0319 200.58 49.4069 200.262C47.7819 199.955 46.3913 199.366 45.2402 198.491C44.1048 197.616 43.3184 196.408 42.8861 194.866C42.4434 193.272 42.4017 191.652 42.7611 190.012C43.1256 188.361 43.7923 186.731 44.7611 185.116C45.7454 183.507 46.9694 181.986 48.4277 180.554C49.8965 179.111 51.5319 177.798 53.3236 176.616C55.1152 175.423 56.9902 174.418 58.9486 173.595C61.4329 172.543 63.6621 171.908 65.6361 171.699C67.6048 171.491 69.2611 171.637 70.5944 172.137C71.9381 172.626 72.8756 173.382 73.4069 174.408C74.0319 175.548 74.1569 176.652 73.7819 177.72C73.4069 178.777 72.7402 179.762 71.7819 180.679C70.834 181.595 69.7715 182.402 68.5944 183.095C67.5371 183.71 66.334 184.272 64.9902 184.783C63.6569 185.283 62.2298 185.533 60.7194 185.533C60.0631 185.533 59.5944 185.361 59.3027 185.012C59.0111 184.668 58.8756 184.277 58.9069 183.845C58.9486 183.402 59.1569 183.043 59.5319 182.762C59.9069 182.47 60.4381 182.402 61.1361 182.554C62.5788 182.835 63.8913 183.033 65.0736 183.158C66.2506 183.272 67.3236 183.027 68.2819 182.429C69.3652 181.736 70.1048 181.012 70.5111 180.262C70.9277 179.501 71.1152 178.757 71.0736 178.033C71.0423 177.314 70.8861 176.673 70.5944 176.116C69.9277 174.798 68.9746 173.918 67.7402 173.47C66.5006 173.012 65.1048 172.902 63.5527 173.137C61.9954 173.376 60.3913 173.887 58.7402 174.679C56.5319 175.736 54.6361 176.991 53.0527 178.449C51.4694 179.897 50.1881 181.429 49.2194 183.054C48.2611 184.679 47.584 186.314 47.1986 187.949C46.8079 189.574 46.6986 191.111 46.8652 192.554C47.0579 194.21 47.5944 195.616 48.4694 196.783C49.3444 197.949 50.5423 198.757 52.0736 199.199C53.6152 199.632 55.4381 199.543 57.5527 198.929Z" fill="#C8B7A1"/>
<path d="M73.9541 199.616C73.0791 199.022 72.5843 198.272 72.475 197.366C72.3812 196.449 72.5427 195.48 72.975 194.449C73.4177 193.423 74.0427 192.444 74.85 191.511C75.6677 190.527 76.5843 189.699 77.6 189.032C78.626 188.366 79.6104 187.949 80.5583 187.782C81.5166 187.616 82.2718 187.777 82.8291 188.261C83.2145 188.595 83.376 189.09 83.3083 189.741C83.251 190.381 82.9958 191.069 82.5375 191.803C82.0895 192.543 81.4802 193.235 80.7041 193.886C79.9385 194.543 79.0166 195.032 77.9333 195.366C77.4437 195.522 77.0479 195.506 76.7458 195.324C76.4541 195.131 76.2718 194.866 76.2041 194.532C76.1468 194.189 76.2093 193.881 76.3916 193.616C76.5687 193.34 76.8916 193.199 77.35 193.199C78.5843 193.199 79.5843 193.022 80.35 192.657C81.1104 192.282 81.6729 191.819 82.0375 191.261C82.4125 190.709 82.6 190.173 82.6 189.657C82.6 189.147 82.4593 188.756 82.1833 188.491C81.85 188.157 81.4125 188.084 80.8708 188.261C80.3291 188.444 79.7458 188.782 79.1208 189.282C78.5062 189.782 77.9177 190.376 77.35 191.053C76.8083 191.668 76.35 192.34 75.975 193.074C75.6104 193.814 75.402 194.527 75.35 195.22C75.2927 195.918 75.4593 196.548 75.85 197.116C76.3916 197.824 77.1208 198.147 78.0375 198.074C78.9541 197.991 79.9854 197.584 81.1416 196.845C82.2927 196.095 83.501 195.09 84.7666 193.824L84.9958 194.053C84.3552 194.902 83.5687 195.761 82.6416 196.636C81.7093 197.511 80.725 198.272 79.6833 198.907C78.6416 199.532 77.6208 199.933 76.6208 200.116C75.6208 200.293 74.7302 200.126 73.9541 199.616Z" fill="#C8B7A1"/>
<path d="M89.2109 199.303C88.5859 198.693 88.388 197.98 88.6276 197.157C88.862 196.324 89.612 195.355 90.8776 194.24C91.6693 193.548 92.4453 192.855 93.2109 192.157C93.987 191.464 94.5859 190.756 95.0026 190.032C95.2526 189.605 95.2422 189.219 94.9818 188.886C94.7318 188.553 94.4036 188.324 94.0026 188.199C93.612 188.063 93.2995 188.11 93.0651 188.344C92.7005 188.678 92.2005 189.178 91.5651 189.844C90.9245 190.501 90.2318 191.219 89.4818 192.011C88.7318 192.792 88.0078 193.563 87.3151 194.324L87.0859 194.053L92.1901 188.219C92.4089 187.943 92.487 187.626 92.4193 187.261C92.362 186.902 92.263 186.506 92.1276 186.074C92.0026 185.631 91.9401 185.167 91.9401 184.678C91.9401 184.261 92.0703 183.938 92.3359 183.699C92.5964 183.449 92.9036 183.313 93.2526 183.282C93.612 183.24 93.9401 183.324 94.2318 183.532C94.5339 183.73 94.7318 184.063 94.8151 184.532C94.8568 184.907 94.7839 185.235 94.6068 185.511C94.4245 185.777 94.3151 186.193 94.2734 186.761C94.2734 187.001 94.3828 187.219 94.6068 187.428C94.8411 187.626 95.112 187.839 95.4193 188.074C95.7214 188.313 95.9922 188.568 96.2318 188.844C96.4661 189.11 96.5703 189.428 96.5443 189.803C96.513 190.459 96.2943 191.094 95.8776 191.719C95.4714 192.334 94.9922 192.917 94.4401 193.469C93.8828 194.011 93.3568 194.521 92.8568 194.99C92.3568 195.449 91.987 195.876 91.7526 196.261C91.5286 196.652 91.5286 196.985 91.7526 197.261C92.2943 197.876 93.2109 197.839 94.5026 197.157C95.8047 196.48 97.513 195.006 99.6276 192.74L99.8984 192.865C98.5911 194.615 97.2422 196.105 95.8568 197.324C94.4661 198.548 93.1797 199.36 92.0026 199.761C90.8359 200.146 89.9036 199.995 89.2109 199.303Z" fill="#C8B7A1"/>
<path d="M102.177 199.616C101.302 199.022 100.807 198.272 100.698 197.366C100.604 196.449 100.765 195.48 101.198 194.449C101.64 193.423 102.265 192.444 103.073 191.511C103.89 190.527 104.807 189.699 105.823 189.032C106.849 188.366 107.833 187.949 108.781 187.782C109.739 187.616 110.494 187.777 111.052 188.261C111.437 188.595 111.599 189.09 111.531 189.741C111.474 190.381 111.218 191.069 110.76 191.803C110.312 192.543 109.703 193.235 108.927 193.886C108.161 194.543 107.239 195.032 106.156 195.366C105.666 195.522 105.271 195.506 104.968 195.324C104.677 195.131 104.494 194.866 104.427 194.532C104.369 194.189 104.432 193.881 104.614 193.616C104.791 193.34 105.114 193.199 105.573 193.199C106.807 193.199 107.807 193.022 108.573 192.657C109.333 192.282 109.896 191.819 110.26 191.261C110.635 190.709 110.823 190.173 110.823 189.657C110.823 189.147 110.682 188.756 110.406 188.491C110.073 188.157 109.635 188.084 109.093 188.261C108.552 188.444 107.968 188.782 107.343 189.282C106.729 189.782 106.14 190.376 105.573 191.053C105.031 191.668 104.573 192.34 104.198 193.074C103.833 193.814 103.625 194.527 103.573 195.22C103.515 195.918 103.682 196.548 104.073 197.116C104.614 197.824 105.343 198.147 106.26 198.074C107.177 197.991 108.208 197.584 109.364 196.845C110.515 196.095 111.724 195.09 112.989 193.824L113.218 194.053C112.578 194.902 111.791 195.761 110.864 196.636C109.932 197.511 108.948 198.272 107.906 198.907C106.864 199.532 105.843 199.933 104.843 200.116C103.843 200.293 102.953 200.126 102.177 199.616Z" fill="#C8B7A1"/>
<path d="M119.292 199.845C118.876 199.569 118.74 199.152 118.896 198.595C119.048 198.043 119.376 197.418 119.876 196.72C120.376 196.027 120.938 195.314 121.563 194.574C122.199 193.84 122.798 193.137 123.355 192.47C123.907 191.803 124.334 191.23 124.626 190.741C124.928 190.256 124.964 189.907 124.73 189.699C124.423 189.397 123.949 189.418 123.313 189.762C122.688 190.11 121.985 190.657 121.209 191.407C120.443 192.147 119.646 192.98 118.813 193.907C117.923 194.907 117.068 195.918 116.251 196.928C115.443 197.928 114.782 198.72 114.271 199.303C113.886 199.777 113.469 199.98 113.021 199.928C112.563 199.876 112.24 199.652 112.042 199.262C111.85 198.86 111.933 198.402 112.292 197.887C112.532 197.569 112.87 197.131 113.313 196.574C113.745 196.006 114.199 195.402 114.667 194.762C115.136 194.11 115.548 193.543 115.896 193.053C116.407 192.277 116.803 191.668 117.084 191.22C117.36 190.777 117.61 190.366 117.834 189.991C118.053 189.616 118.318 189.189 118.626 188.699C118.917 188.23 119.251 187.939 119.626 187.824C120.011 187.715 120.355 187.735 120.646 187.887C120.949 188.043 121.126 188.298 121.167 188.657C121.219 189.022 121.068 189.428 120.709 189.887C120.219 190.527 119.563 191.215 118.73 191.949C117.896 192.689 117.131 193.491 116.438 194.366C115.907 195.006 115.469 195.574 115.126 196.074C114.777 196.564 114.693 196.866 114.876 196.991C115.042 197.09 115.334 196.923 115.751 196.491C116.178 196.048 116.699 195.465 117.313 194.741C117.938 194.006 118.568 193.277 119.209 192.553C119.876 191.803 120.553 191.074 121.251 190.366C121.943 189.657 122.615 189.053 123.271 188.553C123.938 188.053 124.563 187.735 125.146 187.595C125.74 187.459 126.256 187.59 126.688 187.991C127.105 188.381 127.251 188.86 127.126 189.428C127.011 190.001 126.73 190.605 126.271 191.241C125.813 191.881 125.292 192.532 124.709 193.199C124.126 193.855 123.574 194.465 123.063 195.032C122.548 195.59 122.157 196.074 121.896 196.491C121.646 196.907 121.636 197.209 121.876 197.387C122.094 197.543 122.339 197.532 122.605 197.366C122.865 197.199 123.277 196.798 123.834 196.157C124.402 195.506 125.23 194.548 126.313 193.282C126.949 192.532 127.626 191.762 128.334 190.97C129.042 190.178 129.74 189.48 130.438 188.866C131.131 188.256 131.798 187.845 132.438 187.637C133.089 187.418 133.657 187.522 134.146 187.949C134.589 188.314 134.756 188.772 134.646 189.324C134.548 189.881 134.292 190.491 133.876 191.157C133.459 191.814 132.969 192.47 132.417 193.137C131.876 193.803 131.355 194.444 130.855 195.053C130.365 195.652 130.011 196.189 129.792 196.657C129.584 197.116 129.589 197.459 129.813 197.678C130.157 198.001 130.719 198.053 131.501 197.845C132.292 197.637 133.214 197.157 134.271 196.407C135.324 195.657 136.402 194.657 137.501 193.407L137.771 193.637C136.855 194.694 135.876 195.689 134.834 196.616C133.803 197.532 132.798 198.314 131.813 198.949C130.824 199.574 129.923 199.959 129.105 200.116C128.298 200.267 127.657 200.1 127.188 199.616C126.73 199.105 126.548 198.543 126.646 197.928C126.756 197.303 127.042 196.652 127.501 195.97C127.969 195.293 128.511 194.616 129.126 193.949C129.751 193.272 130.334 192.647 130.876 192.074C131.428 191.491 131.839 190.991 132.105 190.574C132.381 190.147 132.407 189.84 132.188 189.657C131.798 189.324 131.282 189.36 130.646 189.762C130.021 190.152 129.324 190.762 128.563 191.595C127.813 192.418 127.048 193.293 126.271 194.22C125.157 195.553 124.188 196.72 123.355 197.72C122.521 198.72 121.777 199.428 121.126 199.845C120.485 200.262 119.876 200.262 119.292 199.845Z" fill="#C8B7A1"/>
<path d="M139.124 199.741C138.374 199.147 138.014 198.397 138.04 197.491C138.072 196.59 138.374 195.611 138.957 194.554C139.551 193.501 140.332 192.444 141.29 191.387C142.249 190.335 143.228 189.486 144.228 188.845C145.228 188.21 146.165 187.814 147.04 187.658C147.915 187.491 148.624 187.632 149.165 188.074C149.941 188.673 150.197 189.632 149.936 190.949C149.686 192.272 149.03 193.653 147.978 195.095C148.155 195.387 148.509 195.548 149.04 195.574C149.582 195.59 150.238 195.387 151.02 194.97C151.811 194.543 152.634 193.84 153.499 192.866L153.728 193.095C152.77 194.335 151.879 195.236 151.061 195.804C150.238 196.361 149.478 196.673 148.77 196.741C148.072 196.814 147.447 196.715 146.895 196.449C145.988 197.481 145.03 198.319 144.02 198.97C143.02 199.611 142.087 199.996 141.228 200.137C140.363 200.272 139.665 200.142 139.124 199.741ZM141.29 197.137C141.884 197.637 142.624 197.772 143.499 197.533C144.384 197.298 145.296 196.783 146.228 195.991C146.103 195.84 145.967 195.632 145.832 195.366C145.691 195.09 145.645 194.736 145.686 194.304C145.738 193.861 145.962 193.356 146.353 192.783C146.754 192.189 147.129 191.824 147.478 191.699C147.822 191.574 148.129 191.574 148.395 191.699C148.671 191.814 148.879 191.944 149.02 192.095C149.27 191.403 149.363 190.783 149.311 190.241C149.27 189.699 149.103 189.298 148.811 189.033C148.405 188.673 147.879 188.512 147.228 188.554C146.587 188.595 145.921 188.819 145.228 189.22C144.53 189.611 143.884 190.153 143.29 190.845C142.624 191.653 142.061 192.47 141.603 193.304C141.155 194.137 140.895 194.897 140.811 195.574C140.738 196.257 140.9 196.778 141.29 197.137Z" fill="#C8B7A1"/>
<path d="M159.755 199.49C159.281 198.98 159.098 198.418 159.213 197.803C159.338 197.178 159.63 196.532 160.088 195.865C160.557 195.199 161.093 194.548 161.692 193.907C162.301 193.256 162.88 192.652 163.421 192.095C163.963 191.527 164.369 191.043 164.65 190.636C164.926 190.22 164.952 189.907 164.734 189.699C164.426 189.397 163.952 189.418 163.317 189.761C162.692 190.11 161.989 190.657 161.213 191.407C160.447 192.147 159.65 192.98 158.817 193.907C157.911 194.907 157.057 195.918 156.255 196.928C155.447 197.928 154.786 198.72 154.275 199.303C153.89 199.777 153.473 199.98 153.025 199.928C152.567 199.876 152.244 199.652 152.046 199.261C151.854 198.86 151.937 198.402 152.296 197.886C152.536 197.569 152.874 197.131 153.317 196.574C153.749 196.006 154.202 195.402 154.671 194.761C155.14 194.11 155.546 193.543 155.88 193.053C156.39 192.277 156.786 191.668 157.067 191.22C157.359 190.777 157.614 190.365 157.838 189.99C158.057 189.615 158.322 189.188 158.63 188.699C158.906 188.23 159.239 187.938 159.63 187.824C160.015 187.714 160.359 187.735 160.65 187.886C160.952 188.043 161.13 188.298 161.171 188.657C161.223 189.022 161.072 189.428 160.713 189.886C160.223 190.527 159.557 191.214 158.713 191.949C157.88 192.688 157.114 193.49 156.421 194.365C155.906 195.006 155.473 195.574 155.13 196.074C154.781 196.563 154.697 196.865 154.88 196.99C155.031 197.089 155.322 196.923 155.755 196.49C156.182 196.048 156.702 195.464 157.317 194.74C157.926 194.006 158.557 193.277 159.213 192.553C159.88 191.803 160.557 191.074 161.255 190.365C161.947 189.657 162.619 189.053 163.275 188.553C163.942 188.053 164.567 187.735 165.15 187.595C165.744 187.459 166.26 187.589 166.692 187.99C167.109 188.381 167.26 188.86 167.15 189.428C167.051 190.001 166.786 190.605 166.359 191.24C165.942 191.881 165.463 192.543 164.921 193.22C164.38 193.886 163.869 194.522 163.4 195.115C162.926 195.699 162.577 196.23 162.359 196.699C162.135 197.157 162.14 197.501 162.38 197.72C162.713 198.027 163.275 198.069 164.067 197.845C164.869 197.61 165.801 197.115 166.859 196.365C167.911 195.605 168.989 194.631 170.088 193.449L170.317 193.678C169.4 194.735 168.421 195.73 167.38 196.657C166.348 197.574 165.343 198.345 164.359 198.97C163.369 199.584 162.468 199.949 161.65 200.074C160.843 200.209 160.213 200.017 159.755 199.49Z" fill="#C8B7A1"/>
<path d="M170.4 199.573C170.015 199.115 169.91 198.563 170.088 197.906C170.27 197.24 170.608 196.531 171.108 195.781C171.593 195.021 172.077 194.261 172.567 193.511C173.108 192.667 173.634 191.818 174.15 190.969C174.66 190.125 175.223 189.276 175.838 188.427C176.072 188.11 176.364 187.922 176.713 187.865C177.056 187.797 177.379 187.839 177.671 187.99C177.973 188.146 178.16 188.396 178.233 188.74C178.317 189.073 178.192 189.469 177.858 189.927C177.619 190.235 177.244 190.636 176.733 191.136C176.218 191.625 175.655 192.151 175.046 192.719C174.447 193.276 173.9 193.839 173.4 194.406C172.91 194.979 172.577 195.511 172.4 196.011C172.233 196.511 172.322 196.943 172.671 197.302C173.265 197.875 174.176 197.854 175.4 197.24C176.619 196.615 178.16 195.323 180.025 193.365L180.275 193.469C179.4 194.61 178.473 195.656 177.504 196.615C176.53 197.563 175.577 198.339 174.65 198.948C173.718 199.547 172.879 199.912 172.129 200.052C171.395 200.203 170.817 200.042 170.4 199.573ZM178.275 183.948C178.692 183.354 179.171 182.969 179.713 182.802C180.265 182.636 180.754 182.693 181.171 182.969C181.556 183.235 181.759 183.667 181.775 184.261C181.785 184.844 181.598 185.406 181.213 185.948C180.822 186.521 180.348 186.886 179.796 187.052C179.239 187.219 178.744 187.172 178.317 186.906C177.926 186.656 177.733 186.235 177.733 185.636C177.733 185.026 177.91 184.464 178.275 183.948Z" fill="#C8B7A1"/>
<path d="M181.38 199.429C180.661 198.835 180.369 198.085 180.505 197.179C180.645 196.262 181.088 195.283 181.838 194.241C182.599 193.189 183.51 192.158 184.567 191.158C185.619 190.189 186.677 189.408 187.734 188.825C188.786 188.241 189.739 187.882 190.588 187.741C191.448 187.606 192.078 187.7 192.484 188.033C192.817 188.299 192.984 188.658 192.984 189.116C193.067 188.991 193.14 188.866 193.213 188.741C193.297 188.606 193.385 188.486 193.484 188.387C193.718 188.054 194.015 187.861 194.38 187.804C194.739 187.752 195.067 187.804 195.359 187.971C195.661 188.137 195.849 188.398 195.922 188.741C196.005 189.09 195.864 189.502 195.505 189.971C195.265 190.278 194.901 190.668 194.401 191.137C193.901 191.596 193.359 192.096 192.776 192.637C192.192 193.179 191.656 193.721 191.172 194.262C190.682 194.793 190.328 195.304 190.109 195.804C189.901 196.293 189.922 196.715 190.172 197.075C190.682 197.814 191.593 197.877 192.901 197.262C194.218 196.653 195.817 195.34 197.692 193.325L197.963 193.471C197.088 194.637 196.161 195.7 195.192 196.658C194.234 197.606 193.286 198.382 192.359 198.991C191.442 199.59 190.609 199.95 189.859 200.075C189.109 200.21 188.515 200.033 188.088 199.533C187.755 199.158 187.635 198.7 187.734 198.158C187.843 197.616 188.067 197.033 188.401 196.408C187.552 197.34 186.698 198.116 185.838 198.741C184.974 199.356 184.156 199.731 183.38 199.866C182.599 200.002 181.932 199.861 181.38 199.429ZM184.109 197.262C184.442 197.653 184.859 197.778 185.359 197.637C185.859 197.486 186.39 197.179 186.963 196.721C187.531 196.262 188.109 195.736 188.692 195.137C189.286 194.528 189.828 193.95 190.317 193.408C190.661 192.898 190.974 192.398 191.255 191.908C191.531 191.408 191.828 190.918 192.151 190.429C192.343 189.945 192.422 189.554 192.38 189.262C192.349 188.96 192.234 188.715 192.026 188.533C191.635 188.2 191.052 188.179 190.276 188.471C189.51 188.752 188.698 189.215 187.838 189.866C186.974 190.523 186.213 191.252 185.547 192.054C184.739 192.986 184.161 193.939 183.817 194.908C183.468 195.866 183.567 196.653 184.109 197.262Z" fill="#C8B7A1"/>
<path d="M41.115 234.185C40.5733 233.67 40.3598 233.05 40.4692 232.331C40.5681 231.607 40.9067 230.836 41.49 230.019C42.0629 229.196 42.7973 228.383 43.6983 227.581C44.464 226.883 45.365 226.232 46.4067 225.623C47.4379 225.024 48.49 224.498 49.5733 224.04C50.6671 223.592 51.6983 223.269 52.6567 223.06C53.3233 222.029 53.9796 220.977 54.6358 219.894C55.2869 218.8 55.9535 217.722 56.6358 216.665C55.4692 218.097 54.2608 219.264 53.0108 220.165C51.7712 221.071 50.6462 221.644 49.6358 221.894C48.6358 222.154 47.9067 222.029 47.4483 221.519C47.0629 221.06 46.9588 220.508 47.1358 219.852C47.3181 219.185 47.6515 218.477 48.1358 217.727C48.6202 216.967 49.1046 216.206 49.5942 215.456C50.1358 214.613 50.6619 213.764 51.1775 212.915C51.6879 212.071 52.2608 211.222 52.8858 210.373C53.1202 210.055 53.4119 209.868 53.7608 209.81C54.1046 209.743 54.4275 209.784 54.7192 209.935C55.0108 210.092 55.1879 210.342 55.2608 210.685C55.3442 211.019 55.2192 211.415 54.8858 211.873C54.6619 212.18 54.2869 212.581 53.7608 213.081C53.2452 213.571 52.6827 214.097 52.0733 214.665C51.4744 215.222 50.9327 215.784 50.4483 216.352C49.9588 216.925 49.6254 217.456 49.4483 217.956C49.266 218.456 49.3546 218.889 49.7192 219.248C49.9952 219.529 50.3754 219.706 50.865 219.79C51.365 219.863 51.9692 219.722 52.6775 219.373C53.3858 219.029 54.2192 218.389 55.1775 217.456C56.1462 216.514 57.2504 215.18 58.49 213.456C58.766 212.946 59.0369 212.446 59.3025 211.956C59.5785 211.456 59.9119 210.967 60.3025 210.477C60.7035 209.935 61.1462 209.685 61.6358 209.727C62.1358 209.769 62.49 209.998 62.6983 210.415C62.9171 210.821 62.8025 211.342 62.3442 211.977C62.0629 212.394 61.615 212.904 60.99 213.498C60.3754 214.081 59.7244 214.738 59.0317 215.456C58.3494 216.18 57.766 216.946 57.2817 217.748C56.7088 218.665 56.1567 219.54 55.615 220.373C55.0838 221.196 54.5733 221.977 54.0733 222.727C55.7504 222.227 57.1254 221.623 58.1983 220.915C59.266 220.196 60.2192 219.368 61.0525 218.435C61.8858 217.508 62.7869 216.493 63.7608 215.394L64.0733 215.581C63.1671 216.613 62.1983 217.717 61.1567 218.894C60.115 220.076 58.9275 221.165 57.5942 222.165C56.2712 223.175 54.7296 223.915 52.9692 224.373C51.0785 227.107 49.4588 229.217 48.115 230.706C46.7712 232.206 45.6358 233.248 44.7192 233.831C43.8025 234.425 43.0681 234.711 42.5108 234.685C41.9431 234.654 41.4796 234.488 41.115 234.185ZM43.1567 232.06C43.9067 232.602 45.0004 232.238 46.4275 230.977C47.8442 229.711 49.4952 227.717 51.3858 224.998L51.5733 224.685C50.0004 225.102 48.615 225.592 47.4067 226.165C46.1983 226.748 45.2348 227.352 44.5108 227.977C44.0681 228.352 43.6567 228.795 43.2817 229.31C42.8962 229.836 42.6671 230.342 42.5942 230.831C42.5108 231.316 42.6983 231.727 43.1567 232.06Z" fill="#C8B7A1"/>
<path d="M78.6367 221.248C78.0117 220.639 77.8138 219.925 78.0534 219.102C78.2878 218.269 79.0378 217.3 80.3034 216.186C81.0951 215.493 81.8711 214.8 82.6367 214.102C83.4128 213.41 84.0117 212.701 84.4284 211.977C84.6784 211.55 84.668 211.165 84.4076 210.831C84.1576 210.498 83.8294 210.269 83.4284 210.144C83.0378 210.008 82.7253 210.055 82.4909 210.29C82.1263 210.623 81.6263 211.123 80.9909 211.79C80.3503 212.446 79.6576 213.165 78.9076 213.956C78.1576 214.738 77.4336 215.508 76.7409 216.269L76.5117 215.998L81.6159 210.165C81.8346 209.889 81.9128 209.571 81.8451 209.206C81.7878 208.847 81.6888 208.451 81.5534 208.019C81.4284 207.576 81.3659 207.113 81.3659 206.623C81.3659 206.206 81.4961 205.883 81.7617 205.644C82.0221 205.394 82.3294 205.258 82.6784 205.227C83.0378 205.186 83.3659 205.269 83.6576 205.477C83.9596 205.675 84.1576 206.008 84.2409 206.477C84.2826 206.852 84.2096 207.18 84.0326 207.456C83.8503 207.722 83.7409 208.139 83.6992 208.706C83.6992 208.946 83.8086 209.165 84.0326 209.373C84.2669 209.571 84.5378 209.785 84.8451 210.019C85.1471 210.258 85.418 210.514 85.6576 210.79C85.8919 211.055 85.9961 211.373 85.9701 211.748C85.9388 212.404 85.7201 213.04 85.3034 213.665C84.8971 214.279 84.418 214.863 83.8659 215.415C83.3086 215.956 82.7826 216.467 82.2826 216.936C81.7826 217.394 81.4128 217.821 81.1784 218.206C80.9544 218.597 80.9544 218.93 81.1784 219.206C81.7201 219.821 82.6367 219.785 83.9284 219.102C85.2305 218.425 86.9388 216.951 89.0534 214.686L89.3242 214.811C88.0169 216.561 86.668 218.05 85.2826 219.269C83.8919 220.493 82.6055 221.305 81.4284 221.706C80.2617 222.092 79.3294 221.941 78.6367 221.248Z" fill="#C8B7A1"/>
<path d="M91.6026 221.561C90.7276 220.967 90.2328 220.217 90.1234 219.311C90.0296 218.394 90.1911 217.426 90.6234 216.394C91.0661 215.368 91.6911 214.389 92.4984 213.457C93.3161 212.472 94.2328 211.644 95.2484 210.978C96.2744 210.311 97.2588 209.894 98.2067 209.728C99.1651 209.561 99.9203 209.722 100.478 210.207C100.863 210.54 101.024 211.035 100.957 211.686C100.899 212.327 100.644 213.014 100.186 213.748C99.738 214.488 99.1286 215.181 98.3526 215.832C97.5869 216.488 96.6651 216.978 95.5817 217.311C95.0921 217.467 94.6963 217.452 94.3942 217.269C94.1026 217.077 93.9203 216.811 93.8526 216.478C93.7953 216.134 93.8578 215.827 94.0401 215.561C94.2171 215.285 94.5401 215.144 94.9984 215.144C96.2328 215.144 97.2328 214.967 97.9984 214.603C98.7588 214.228 99.3213 213.764 99.6859 213.207C100.061 212.655 100.248 212.118 100.248 211.603C100.248 211.092 100.108 210.702 99.8317 210.436C99.4984 210.103 99.0609 210.03 98.5192 210.207C97.9776 210.389 97.3942 210.728 96.7692 211.228C96.1546 211.728 95.5661 212.321 94.9984 212.998C94.4567 213.613 93.9984 214.285 93.6234 215.019C93.2588 215.759 93.0505 216.472 92.9984 217.165C92.9411 217.863 93.1078 218.493 93.4984 219.061C94.0401 219.769 94.7692 220.092 95.6859 220.019C96.6026 219.936 97.6338 219.53 98.7901 218.79C99.9411 218.04 101.149 217.035 102.415 215.769L102.644 215.998C102.004 216.847 101.217 217.707 100.29 218.582C99.3578 219.457 98.3734 220.217 97.3317 220.853C96.2901 221.478 95.2692 221.879 94.2692 222.061C93.2692 222.238 92.3786 222.071 91.6026 221.561Z" fill="#C8B7A1"/>
<path d="M105.618 221.562C104.743 220.968 104.248 220.218 104.139 219.312C104.045 218.395 104.207 217.426 104.639 216.395C105.082 215.369 105.707 214.39 106.514 213.457C107.332 212.473 108.248 211.634 109.264 210.937C110.29 210.244 111.274 209.806 112.222 209.624C113.181 209.447 113.936 209.64 114.493 210.207C114.993 210.655 115.222 211.197 115.181 211.832C115.139 212.457 114.952 213.077 114.618 213.687C114.285 214.301 113.889 214.812 113.431 215.228C112.957 215.645 112.493 215.78 112.035 215.624C111.577 215.473 111.254 215.176 111.077 214.728C110.91 214.27 111.019 213.806 111.41 213.332C111.618 213.114 111.91 212.884 112.285 212.645C112.66 212.411 113.019 212.181 113.368 211.957C113.712 211.723 113.952 211.478 114.077 211.228C114.202 210.968 114.123 210.702 113.847 210.437C113.514 210.103 113.077 210.03 112.535 210.207C111.993 210.39 111.41 210.728 110.785 211.228C110.17 211.728 109.582 212.322 109.014 212.999C108.472 213.614 108.014 214.286 107.639 215.02C107.274 215.759 107.066 216.473 107.014 217.166C106.957 217.864 107.123 218.494 107.514 219.062C108.056 219.77 108.785 220.093 109.702 220.02C110.618 219.937 111.649 219.53 112.806 218.791C113.957 218.041 115.165 217.036 116.431 215.77L116.66 215.999C115.868 216.957 114.993 217.874 114.035 218.749C113.087 219.624 112.108 220.369 111.097 220.978C110.097 221.577 109.123 221.942 108.181 222.082C107.248 222.218 106.394 222.046 105.618 221.562Z" fill="#C8B7A1"/>
<path d="M119.634 221.561C118.759 220.967 118.264 220.217 118.155 219.311C118.061 218.394 118.222 217.426 118.655 216.394C119.097 215.368 119.722 214.389 120.53 213.457C121.347 212.472 122.264 211.644 123.28 210.978C124.306 210.311 125.29 209.894 126.238 209.728C127.196 209.561 127.952 209.722 128.509 210.207C128.894 210.54 129.056 211.035 128.988 211.686C128.931 212.327 128.675 213.014 128.217 213.748C127.769 214.488 127.16 215.181 126.384 215.832C125.618 216.488 124.696 216.978 123.613 217.311C123.123 217.467 122.728 217.452 122.425 217.269C122.134 217.077 121.952 216.811 121.884 216.478C121.827 216.134 121.889 215.827 122.071 215.561C122.248 215.285 122.571 215.144 123.03 215.144C124.264 215.144 125.264 214.967 126.03 214.603C126.79 214.228 127.353 213.764 127.717 213.207C128.092 212.655 128.28 212.118 128.28 211.603C128.28 211.092 128.139 210.702 127.863 210.436C127.53 210.103 127.092 210.03 126.55 210.207C126.009 210.389 125.425 210.728 124.8 211.228C124.186 211.728 123.597 212.321 123.03 212.998C122.488 213.613 122.03 214.285 121.655 215.019C121.29 215.759 121.082 216.472 121.03 217.165C120.972 217.863 121.139 218.493 121.53 219.061C122.071 219.769 122.8 220.092 123.717 220.019C124.634 219.936 125.665 219.53 126.821 218.79C127.972 218.04 129.181 217.035 130.446 215.769L130.675 215.998C130.035 216.847 129.248 217.707 128.321 218.582C127.389 219.457 126.405 220.217 125.363 220.853C124.321 221.478 123.3 221.879 122.3 222.061C121.3 222.238 120.41 222.071 119.634 221.561Z" fill="#C8B7A1"/>
<path d="M123.509 232.727C123.218 233.128 122.884 233.373 122.509 233.456C122.134 233.55 121.801 233.518 121.509 233.352C121.218 233.185 121.041 232.925 120.968 232.581C120.884 232.232 120.999 231.852 121.301 231.435C121.666 230.919 122.171 230.258 122.822 229.456C123.463 228.649 124.296 227.586 125.322 226.268C126.353 224.961 127.593 223.315 129.051 221.331C129.4 220.888 129.822 220.279 130.322 219.498C130.822 218.706 131.358 217.862 131.926 216.956C132.509 216.039 133.093 215.138 133.676 214.248C134.259 213.362 134.791 212.56 135.28 211.852C135.765 211.143 136.161 210.623 136.468 210.289C136.978 209.748 137.457 209.529 137.905 209.623C138.364 209.706 138.666 209.987 138.822 210.456C138.973 210.914 138.822 211.414 138.364 211.956L136.968 213.498C137.994 212.597 138.999 211.81 139.989 211.143C140.989 210.477 141.895 210.029 142.718 209.789C143.551 209.555 144.223 209.633 144.739 210.018C145.348 210.477 145.676 211.097 145.718 211.873C145.759 212.654 145.582 213.508 145.197 214.435C144.806 215.352 144.28 216.263 143.614 217.164C143.015 217.956 142.348 218.701 141.614 219.393C140.89 220.091 140.155 220.659 139.405 221.102C139.666 221.143 139.957 221.159 140.28 221.143C140.598 221.117 140.937 221.05 141.301 220.935C142.384 220.602 143.603 219.977 144.968 219.06C146.327 218.133 147.64 216.987 148.905 215.623L149.218 215.768C148.103 217.185 146.786 218.409 145.259 219.435C143.728 220.466 142.244 221.222 140.801 221.706C139.437 222.175 138.202 222.362 137.093 222.268C135.978 222.185 135.207 221.742 134.78 220.935C134.03 219.867 134.306 218.701 135.614 217.435C135.973 217.076 136.327 216.977 136.676 217.143C137.02 217.31 137.239 217.576 137.322 217.935C137.405 218.3 137.197 218.633 136.697 218.935C136.322 219.175 135.937 219.43 135.551 219.706C135.161 219.972 135.056 220.284 135.239 220.643C135.416 220.992 135.739 221.097 136.197 220.956C136.666 220.821 137.207 220.508 137.822 220.018C138.447 219.534 139.093 218.935 139.759 218.227C140.426 217.518 141.041 216.779 141.614 215.998C142.155 215.248 142.619 214.529 143.009 213.831C143.411 213.123 143.655 212.487 143.739 211.914C143.832 211.347 143.687 210.93 143.301 210.664C142.968 210.414 142.395 210.492 141.593 210.893C140.801 211.284 139.905 211.883 138.905 212.685C137.905 213.477 136.884 214.352 135.843 215.31C134.801 216.258 133.848 217.18 132.989 218.081C132.53 218.654 132.041 219.242 131.53 219.852C131.02 220.451 130.504 221.071 129.989 221.706C129.687 222.091 129.28 222.69 128.78 223.498C128.27 224.315 127.733 225.227 127.176 226.227C126.608 227.237 126.062 228.211 125.53 229.143C125.004 230.086 124.551 230.883 124.176 231.539C123.801 232.19 123.582 232.586 123.509 232.727Z" fill="#C8B7A1"/>
<path d="M151.833 221.562C150.958 220.968 150.463 220.218 150.354 219.312C150.26 218.395 150.422 217.426 150.854 216.395C151.297 215.369 151.922 214.39 152.729 213.457C153.547 212.473 154.463 211.634 155.479 210.937C156.505 210.244 157.489 209.806 158.437 209.624C159.396 209.447 160.151 209.64 160.708 210.207C161.208 210.655 161.437 211.197 161.396 211.832C161.354 212.457 161.166 213.077 160.833 213.687C160.5 214.301 160.104 214.812 159.646 215.228C159.172 215.645 158.708 215.78 158.25 215.624C157.791 215.473 157.468 215.176 157.291 214.728C157.125 214.27 157.234 213.806 157.625 213.332C157.833 213.114 158.125 212.884 158.5 212.645C158.875 212.411 159.234 212.181 159.583 211.957C159.927 211.723 160.166 211.478 160.291 211.228C160.416 210.968 160.338 210.702 160.062 210.437C159.729 210.103 159.291 210.03 158.75 210.207C158.208 210.39 157.625 210.728 157 211.228C156.385 211.728 155.797 212.322 155.229 212.999C154.687 213.614 154.229 214.286 153.854 215.02C153.489 215.759 153.281 216.473 153.229 217.166C153.172 217.864 153.338 218.494 153.729 219.062C154.271 219.77 155 220.093 155.916 220.02C156.833 219.937 157.864 219.53 159.021 218.791C160.172 218.041 161.38 217.036 162.646 215.77L162.875 215.999C162.083 216.957 161.208 217.874 160.25 218.749C159.302 219.624 158.323 220.369 157.312 220.978C156.312 221.577 155.338 221.942 154.396 222.082C153.463 222.218 152.609 222.046 151.833 221.562Z" fill="#C8B7A1"/>
<path d="M163.189 221.52C162.804 221.062 162.7 220.51 162.877 219.854C163.059 219.187 163.397 218.479 163.897 217.729C164.382 216.968 164.866 216.208 165.356 215.458C165.897 214.614 166.423 213.765 166.939 212.916C167.45 212.072 168.012 211.224 168.627 210.375C168.861 210.057 169.153 209.869 169.502 209.812C169.845 209.744 170.168 209.786 170.46 209.937C170.762 210.093 170.95 210.343 171.022 210.687C171.106 211.02 170.981 211.416 170.647 211.875C170.408 212.182 170.033 212.583 169.522 213.083C169.007 213.572 168.444 214.099 167.835 214.666C167.236 215.224 166.689 215.786 166.189 216.354C165.7 216.927 165.366 217.458 165.189 217.958C165.022 218.458 165.111 218.89 165.46 219.25C166.054 219.822 166.965 219.802 168.189 219.187C169.408 218.562 170.95 217.27 172.814 215.312L173.064 215.416C172.189 216.557 171.262 217.604 170.293 218.562C169.319 219.51 168.366 220.286 167.439 220.895C166.507 221.494 165.668 221.859 164.918 222C164.184 222.151 163.606 221.989 163.189 221.52ZM171.064 205.895C171.481 205.302 171.96 204.916 172.502 204.75C173.054 204.583 173.543 204.64 173.96 204.916C174.345 205.182 174.548 205.614 174.564 206.208C174.575 206.791 174.387 207.354 174.002 207.895C173.611 208.468 173.137 208.833 172.585 209C172.028 209.166 171.533 209.119 171.106 208.854C170.715 208.604 170.522 208.182 170.522 207.583C170.522 206.974 170.7 206.411 171.064 205.895Z" fill="#C8B7A1"/>
<path d="M174.729 221.686C173.979 221.092 173.62 220.342 173.646 219.436C173.677 218.535 173.979 217.556 174.563 216.499C175.156 215.447 175.938 214.389 176.896 213.332C177.854 212.28 178.833 211.431 179.833 210.79C180.833 210.155 181.771 209.759 182.646 209.603C183.521 209.436 184.229 209.577 184.771 210.02C185.547 210.618 185.802 211.577 185.542 212.895C185.292 214.217 184.635 215.598 183.583 217.04C183.76 217.332 184.115 217.493 184.646 217.52C185.188 217.535 185.844 217.332 186.625 216.915C187.417 216.488 188.24 215.785 189.104 214.811L189.333 215.04C188.375 216.28 187.484 217.181 186.667 217.749C185.844 218.306 185.083 218.618 184.375 218.686C183.677 218.759 183.052 218.66 182.5 218.395C181.594 219.426 180.635 220.264 179.625 220.915C178.625 221.556 177.693 221.941 176.833 222.082C175.969 222.217 175.271 222.087 174.729 221.686ZM176.896 219.082C177.49 219.582 178.229 219.717 179.104 219.478C179.99 219.243 180.901 218.728 181.833 217.936C181.708 217.785 181.573 217.577 181.438 217.311C181.297 217.035 181.25 216.681 181.292 216.249C181.344 215.806 181.568 215.301 181.958 214.728C182.359 214.134 182.734 213.77 183.083 213.645C183.427 213.52 183.734 213.52 184 213.645C184.276 213.759 184.484 213.889 184.625 214.04C184.875 213.348 184.969 212.728 184.917 212.186C184.875 211.645 184.708 211.243 184.417 210.978C184.01 210.618 183.484 210.457 182.833 210.499C182.193 210.54 181.526 210.764 180.833 211.165C180.135 211.556 179.49 212.098 178.896 212.79C178.229 213.598 177.667 214.415 177.208 215.249C176.76 216.082 176.5 216.842 176.417 217.52C176.344 218.202 176.505 218.723 176.896 219.082ZM181.792 207.811C182.667 207.353 183.276 206.978 183.625 206.686C183.969 206.384 184.24 206.124 184.438 205.915C184.63 205.697 184.896 205.478 185.229 205.27C185.646 205.061 185.99 205.061 186.271 205.27C186.563 205.478 186.714 205.743 186.729 206.061C186.74 206.384 186.542 206.645 186.125 206.853C185.734 207.061 185.396 207.186 185.104 207.228C184.823 207.259 184.464 207.342 184.021 207.478C183.589 207.603 182.948 207.884 182.104 208.311C181.865 208.426 181.698 208.395 181.604 208.228C181.505 208.061 181.568 207.926 181.792 207.811Z" fill="#C8B7A1"/>
<path d="M195.356 221.436C194.882 220.925 194.7 220.363 194.814 219.748C194.939 219.123 195.231 218.477 195.689 217.811C196.158 217.144 196.695 216.493 197.294 215.852C197.903 215.201 198.481 214.597 199.023 214.04C199.564 213.472 199.971 212.988 200.252 212.582C200.528 212.165 200.554 211.852 200.335 211.644C200.028 211.342 199.554 211.363 198.919 211.707C198.294 212.056 197.59 212.602 196.814 213.352C196.049 214.092 195.252 214.925 194.419 215.852C193.512 216.852 192.658 217.863 191.856 218.873C191.049 219.873 190.387 220.665 189.877 221.248C189.492 221.722 189.075 221.925 188.627 221.873C188.169 221.821 187.846 221.597 187.648 221.207C187.455 220.806 187.538 220.347 187.898 219.832C188.137 219.514 188.476 219.076 188.919 218.519C189.351 217.951 189.804 217.347 190.273 216.707C190.742 216.056 191.148 215.488 191.481 214.998C191.992 214.222 192.387 213.613 192.669 213.165C192.96 212.722 193.215 212.311 193.439 211.936C193.658 211.561 193.924 211.134 194.231 210.644C194.507 210.175 194.84 209.884 195.231 209.769C195.617 209.66 195.96 209.681 196.252 209.832C196.554 209.988 196.731 210.243 196.773 210.602C196.825 210.967 196.674 211.373 196.314 211.832C195.825 212.472 195.158 213.16 194.314 213.894C193.481 214.634 192.715 215.436 192.023 216.311C191.507 216.951 191.075 217.519 190.731 218.019C190.382 218.509 190.299 218.811 190.481 218.936C190.632 219.035 190.924 218.868 191.356 218.436C191.783 217.993 192.304 217.41 192.919 216.686C193.528 215.951 194.158 215.222 194.814 214.498C195.481 213.748 196.158 213.019 196.856 212.311C197.549 211.602 198.221 210.998 198.877 210.498C199.544 209.998 200.169 209.681 200.752 209.54C201.346 209.405 201.861 209.535 202.294 209.936C202.71 210.326 202.861 210.806 202.752 211.373C202.653 211.946 202.387 212.55 201.96 213.186C201.544 213.826 201.064 214.488 200.523 215.165C199.981 215.832 199.471 216.467 199.002 217.061C198.528 217.644 198.179 218.175 197.96 218.644C197.736 219.102 197.742 219.446 197.981 219.665C198.314 219.972 198.877 220.014 199.669 219.79C200.471 219.556 201.403 219.061 202.46 218.311C203.512 217.55 204.59 216.576 205.689 215.394L205.919 215.623C205.002 216.681 204.023 217.675 202.981 218.602C201.95 219.519 200.945 220.29 199.96 220.915C198.971 221.53 198.07 221.894 197.252 222.019C196.445 222.155 195.814 221.962 195.356 221.436Z" fill="#C8B7A1"/>
<mask id="mask6_2310_2951" style="mask-type:luminance" maskUnits="userSpaceOnUse" x="56" y="246" width="142" height="19">
<path d="M197.747 246H56.4141V264.667H197.747V246Z" fill="white"/>
</mask>
<g mask="url(#mask6_2310_2951)">
<mask id="mask7_2310_2951" style="mask-type:luminance" maskUnits="userSpaceOnUse" x="56" y="248" width="13" height="13">
<path d="M56.4961 248.666H68.4128V260.666H56.4961V248.666Z" fill="white"/>
</mask>
<g mask="url(#mask7_2310_2951)">
<path d="M62.1862 259.255L58.2904 249.817C58.2174 249.682 58.082 249.598 57.8737 249.567C57.6758 249.525 57.5247 249.505 57.4154 249.505H57.332V249.275H59.6654V249.505H59.5612C59.4883 249.505 59.3841 249.515 59.2487 249.525C59.1237 249.541 59.0091 249.577 58.9154 249.63C58.832 249.671 58.8008 249.734 58.832 249.817L62.4779 258.588L66.082 249.817C66.1237 249.734 66.0872 249.671 65.9779 249.63C65.8633 249.577 65.7279 249.541 65.5612 249.525C65.4049 249.515 65.2799 249.505 65.1862 249.505H65.0195V249.275H67.3737V249.505H67.332C67.2747 249.505 67.1706 249.515 67.0195 249.525C66.8633 249.541 66.7174 249.567 66.582 249.609C66.457 249.65 66.3633 249.723 66.3112 249.817L62.582 258.859L62.3529 259.4H62.2487L62.1862 259.255Z" fill="#C8B7A1"/>
</g>
<path d="M69.1641 259.193H69.3516C69.4766 259.193 69.6276 259.172 69.8099 259.13C69.987 259.078 70.0807 258.984 70.0807 258.859V249.859C70.0807 249.776 70.0286 249.714 69.9349 249.672C69.8359 249.62 69.7266 249.583 69.6016 249.568C69.487 249.542 69.3828 249.526 69.2891 249.526C69.2057 249.516 69.1641 249.505 69.1641 249.505V249.297H74.6849V250.172H74.5807C74.5807 250.146 74.5443 250.083 74.4766 249.984C74.4036 249.875 74.3203 249.771 74.2266 249.672C74.1276 249.563 74.0286 249.505 73.9349 249.505H70.5807V253.693H73.9557C74.0391 253.693 74.1068 253.641 74.1641 253.526C74.2318 253.401 74.2682 253.339 74.2682 253.339H74.3516V254.234H74.2682C74.2682 254.234 74.2318 254.182 74.1641 254.068C74.1068 253.958 74.0391 253.901 73.9557 253.901H70.5807V259.193H74.2474C74.3828 259.193 74.5182 259.146 74.6432 259.047C74.7682 258.938 74.8724 258.828 74.9557 258.714C75.0391 258.604 75.0859 258.536 75.1016 258.505H75.3516L74.7891 259.401H69.1641V259.193Z" fill="#C8B7A1"/>
<path d="M77.332 259.193C77.582 259.193 77.7956 259.167 77.9779 259.109C78.1549 259.057 78.2487 258.964 78.2487 258.839V249.839C78.2487 249.714 78.1549 249.63 77.9779 249.589C77.7956 249.536 77.582 249.505 77.332 249.505V249.297H80.707C81.2904 249.297 81.8112 249.411 82.2695 249.63C82.7383 249.854 83.1133 250.167 83.3945 250.568C83.6706 250.974 83.8112 251.458 83.8112 252.026C83.8112 252.526 83.6966 252.979 83.4779 253.38C83.2539 253.771 82.957 254.089 82.582 254.339C82.207 254.578 81.7747 254.734 81.2904 254.818C81.6654 255 81.9883 255.208 82.2695 255.443C82.5612 255.667 82.7695 256.042 82.8945 256.568C82.9466 256.807 83.0195 257.068 83.1029 257.359C83.1862 257.651 83.2956 257.938 83.4362 258.214C83.5716 258.495 83.7383 258.729 83.9362 258.922C84.1445 259.104 84.3789 259.193 84.6445 259.193V259.401H83.8112C83.4622 259.125 83.1966 258.839 83.0195 258.547C82.8372 258.245 82.6966 257.917 82.6029 257.568C82.5195 257.224 82.4206 256.849 82.3112 256.443C82.2383 256.208 82.1133 255.974 81.9362 255.734C81.7695 255.484 81.5716 255.276 81.3529 255.109C81.1289 254.943 80.9206 254.859 80.7279 254.859H78.7695V258.839C78.7695 258.964 78.8581 259.057 79.0404 259.109C79.2174 259.167 79.4362 259.193 79.6862 259.193V259.401H77.332V259.193ZM80.707 254.651C81.1914 254.651 81.6237 254.536 81.9987 254.297C82.3841 254.063 82.6966 253.745 82.9362 253.339C83.1706 252.938 83.2904 252.5 83.2904 252.026C83.2904 251.557 83.1706 251.13 82.9362 250.755C82.6966 250.38 82.3841 250.083 81.9987 249.859C81.6237 249.625 81.1914 249.505 80.707 249.505H79.4987C79.3737 249.521 79.2174 249.547 79.0404 249.589C78.8581 249.63 78.7695 249.724 78.7695 249.859V254.651H80.707Z" fill="#C8B7A1"/>
<path d="M93.8828 259.191H94.0703C94.1953 259.191 94.3464 259.171 94.5286 259.129C94.7057 259.077 94.7995 258.983 94.7995 258.858V249.858C94.7995 249.733 94.7057 249.65 94.5286 249.608C94.3464 249.556 94.1953 249.52 94.0703 249.504H93.8828V249.316H96.237V249.504H96.0495C95.9245 249.52 95.7682 249.556 95.5911 249.608C95.4089 249.65 95.3203 249.733 95.3203 249.858V258.858C95.3203 258.983 95.4089 259.077 95.5911 259.129C95.7682 259.171 95.9245 259.191 96.0495 259.191H96.237V259.4H93.8828V259.191Z" fill="#C8B7A1"/>
<path d="M98.5977 259.193C98.8477 259.193 99.0612 259.172 99.2435 259.13C99.4206 259.078 99.5143 258.984 99.5143 258.859V249.839C99.5143 249.714 99.4206 249.63 99.2435 249.589C99.0612 249.536 98.8477 249.505 98.5977 249.505V249.297H100.014L105.806 258.38V249.839C105.806 249.714 105.712 249.63 105.535 249.589C105.353 249.536 105.139 249.505 104.889 249.505V249.297H106.931V249.505C106.681 249.505 106.462 249.536 106.285 249.589C106.103 249.63 106.014 249.714 106.014 249.839V259.401H105.827L99.7227 249.776V258.859C99.7227 258.984 99.8112 259.078 99.9935 259.13C100.171 259.172 100.389 259.193 100.639 259.193V259.401H98.5977V259.193Z" fill="#C8B7A1"/>
<path d="M109.285 259.191H109.473C109.598 259.191 109.749 259.171 109.931 259.129C110.108 259.077 110.202 258.983 110.202 258.858V249.858C110.202 249.775 110.15 249.712 110.056 249.671C109.973 249.618 109.868 249.582 109.743 249.566C109.618 249.556 109.504 249.546 109.41 249.546C109.327 249.535 109.285 249.525 109.285 249.525V249.316H114.827V250.191H114.702C114.702 250.165 114.665 250.098 114.598 249.983C114.525 249.874 114.441 249.77 114.348 249.671C114.249 249.577 114.15 249.525 114.056 249.525H110.723V253.691H114.098C114.165 253.691 114.228 253.639 114.285 253.525C114.353 253.415 114.389 253.358 114.389 253.358H114.493V254.254H114.389C114.389 254.254 114.353 254.202 114.285 254.087C114.228 253.978 114.165 253.921 114.098 253.921H110.723V258.858C110.723 258.983 110.811 259.077 110.993 259.129C111.171 259.171 111.327 259.191 111.452 259.191H111.639V259.4H109.285V259.191Z" fill="#C8B7A1"/>
<path d="M121.314 259.609C120.73 259.609 120.178 259.469 119.668 259.193C119.152 258.917 118.694 258.536 118.293 258.047C117.902 257.547 117.595 256.995 117.376 256.38C117.152 255.755 117.043 255.104 117.043 254.422C117.043 253.745 117.152 253.089 117.376 252.464C117.595 251.839 117.902 251.292 118.293 250.818C118.694 250.333 119.152 249.953 119.668 249.672C120.178 249.38 120.73 249.234 121.314 249.234H121.439C122.022 249.234 122.569 249.38 123.085 249.672C123.611 249.953 124.069 250.333 124.46 250.818C124.845 251.307 125.147 251.859 125.355 252.484C125.574 253.109 125.689 253.755 125.689 254.422C125.689 255.104 125.574 255.755 125.355 256.38C125.147 257.005 124.845 257.563 124.46 258.047C124.069 258.536 123.616 258.917 123.105 259.193C122.59 259.469 122.033 259.609 121.439 259.609H121.314ZM120.085 259.109C120.944 259.469 121.798 259.469 122.647 259.109C123.147 258.875 123.585 258.521 123.96 258.047C124.335 257.578 124.626 257.026 124.835 256.401C125.053 255.766 125.168 255.104 125.168 254.422C125.168 253.672 125.033 252.964 124.772 252.297C124.522 251.62 124.168 251.036 123.71 250.547C123.262 250.063 122.762 249.734 122.21 249.568C122.069 249.526 121.928 249.5 121.793 249.484C121.652 249.474 121.507 249.464 121.355 249.464C121.23 249.464 121.09 249.474 120.939 249.484C120.798 249.5 120.668 249.526 120.543 249.568C119.97 249.734 119.465 250.063 119.022 250.547C118.574 251.036 118.22 251.62 117.96 252.297C117.694 252.964 117.564 253.672 117.564 254.422C117.564 255.104 117.673 255.766 117.897 256.401C118.116 257.026 118.418 257.578 118.793 258.047C119.168 258.521 119.595 258.875 120.085 259.109Z" fill="#C8B7A1"/>
<path d="M127.543 259.193C127.793 259.193 128.007 259.167 128.189 259.109C128.366 259.057 128.46 258.964 128.46 258.839V249.839C128.46 249.714 128.366 249.63 128.189 249.589C128.007 249.536 127.793 249.505 127.543 249.505V249.297H130.918C131.501 249.297 132.022 249.411 132.48 249.63C132.949 249.854 133.324 250.167 133.605 250.568C133.882 250.974 134.022 251.458 134.022 252.026C134.022 252.526 133.908 252.979 133.689 253.38C133.465 253.771 133.168 254.089 132.793 254.339C132.418 254.578 131.986 254.734 131.501 254.818C131.876 255 132.199 255.208 132.48 255.443C132.772 255.667 132.98 256.042 133.105 256.568C133.158 256.807 133.23 257.068 133.314 257.359C133.397 257.651 133.507 257.938 133.647 258.214C133.783 258.495 133.949 258.729 134.147 258.922C134.355 259.104 134.59 259.193 134.855 259.193V259.401H134.022C133.673 259.125 133.408 258.839 133.23 258.547C133.048 258.245 132.908 257.917 132.814 257.568C132.73 257.224 132.632 256.849 132.522 256.443C132.449 256.208 132.324 255.974 132.147 255.734C131.98 255.484 131.783 255.276 131.564 255.109C131.34 254.943 131.132 254.859 130.939 254.859H128.98V258.839C128.98 258.964 129.069 259.057 129.251 259.109C129.428 259.167 129.647 259.193 129.897 259.193V259.401H127.543V259.193ZM130.918 254.651C131.402 254.651 131.835 254.536 132.21 254.297C132.595 254.063 132.908 253.745 133.147 253.339C133.382 252.938 133.501 252.5 133.501 252.026C133.501 251.557 133.382 251.13 133.147 250.755C132.908 250.38 132.595 250.083 132.21 249.859C131.835 249.625 131.402 249.505 130.918 249.505H129.71C129.585 249.521 129.428 249.547 129.251 249.589C129.069 249.63 128.98 249.724 128.98 249.859V254.651H130.918Z" fill="#C8B7A1"/>
<path d="M137.434 259.193C137.684 259.193 137.897 259.172 138.079 259.13C138.257 259.078 138.35 258.984 138.35 258.859V249.839C138.35 249.714 138.257 249.63 138.079 249.589C137.897 249.536 137.684 249.505 137.434 249.505V249.297H138.913L142.6 258.422L146.225 249.297H147.704V249.505C147.454 249.505 147.236 249.536 147.059 249.589C146.876 249.63 146.788 249.714 146.788 249.839V258.859C146.788 258.984 146.876 259.078 147.059 259.13C147.236 259.172 147.454 259.193 147.704 259.193V259.401H145.35V259.193C145.6 259.193 145.814 259.172 145.996 259.13C146.173 259.078 146.267 258.984 146.267 258.859V249.734L142.454 259.339H142.413L138.559 249.797V258.859C138.559 258.984 138.647 259.078 138.829 259.13C139.007 259.172 139.225 259.193 139.475 259.193V259.401H137.434V259.193Z" fill="#C8B7A1"/>
<path d="M149.492 259.193C149.701 259.193 149.909 259.182 150.117 259.151C150.336 259.125 150.477 259.036 150.534 258.88L154.263 249.297H154.471V249.318L158.18 258.901C158.263 259.026 158.388 259.109 158.555 259.151C158.732 259.182 158.93 259.193 159.138 259.193V259.401H156.784V259.193C157.018 259.193 157.227 259.172 157.409 259.13C157.602 259.089 157.669 259 157.617 258.859L156.138 255.026H152.263L150.763 258.859H150.784C150.742 258.958 150.773 259.036 150.888 259.089C151.013 259.13 151.164 259.161 151.346 259.172C151.523 259.188 151.69 259.193 151.846 259.193V259.401H149.492V259.193ZM156.055 254.818L154.201 250.026L152.346 254.818H156.055Z" fill="#C8B7A1"/>
<path d="M165.197 259.588C164.598 259.588 164.04 259.452 163.53 259.192C163.014 258.916 162.561 258.541 162.176 258.067C161.785 257.598 161.478 257.046 161.259 256.421C161.035 255.786 160.926 255.109 160.926 254.4C160.926 253.682 161.035 253.005 161.259 252.38C161.478 251.755 161.785 251.208 162.176 250.734C162.561 250.265 163.014 249.895 163.53 249.63C164.04 249.354 164.598 249.213 165.197 249.213C165.806 249.213 166.374 249.348 166.905 249.609L166.884 249.588C167.145 249.702 167.389 249.817 167.613 249.942C167.848 250.067 168.035 250.182 168.176 250.275C168.311 250.359 168.384 250.4 168.384 250.4L168.592 251.338H168.613L168.426 251.463C168.217 251.005 167.936 250.63 167.592 250.338C167.259 250.036 166.884 249.807 166.467 249.65C166.051 249.499 165.624 249.421 165.197 249.421C164.681 249.421 164.197 249.562 163.738 249.838C163.29 250.104 162.895 250.473 162.551 250.942C162.202 251.416 161.931 251.952 161.738 252.546C161.54 253.13 161.447 253.749 161.447 254.4C161.447 255.015 161.53 255.604 161.697 256.171C161.874 256.729 162.124 257.234 162.447 257.692C162.764 258.15 163.134 258.525 163.551 258.817C163.967 259.109 164.41 259.291 164.884 259.359C164.936 259.374 164.988 259.38 165.03 259.38C165.082 259.38 165.139 259.38 165.197 259.38C165.863 259.38 166.493 259.182 167.092 258.775C167.702 258.359 168.197 257.807 168.572 257.109L168.759 257.192L168.488 258.296C168.488 258.296 168.405 258.354 168.238 258.463C168.072 258.562 167.853 258.682 167.592 258.817C167.327 258.958 167.04 259.098 166.738 259.234H166.759C166.27 259.468 165.749 259.588 165.197 259.588Z" fill="#C8B7A1"/>
<path d="M171.113 259.191H171.301C171.426 259.191 171.577 259.171 171.759 259.129C171.936 259.077 172.03 258.983 172.03 258.858V249.858C172.03 249.733 171.936 249.65 171.759 249.608C171.577 249.556 171.426 249.52 171.301 249.504H171.113V249.316H173.467V249.504H173.28C173.155 249.52 172.999 249.556 172.822 249.608C172.639 249.65 172.551 249.733 172.551 249.858V258.858C172.551 258.983 172.639 259.077 172.822 259.129C172.999 259.171 173.155 259.191 173.28 259.191H173.467V259.4H171.113V259.191Z" fill="#C8B7A1"/>
<mask id="mask8_2310_2951" style="mask-type:luminance" maskUnits="userSpaceOnUse" x="175" y="246" width="11" height="15">
<path d="M175.078 246.234H185.745V260.667H175.078V246.234Z" fill="white"/>
</mask>
<g mask="url(#mask8_2310_2951)">
<path d="M179.37 248.359L180.599 246.922L180.953 247.297L179.516 248.505L179.37 248.359ZM180.099 259.609C179.516 259.609 178.964 259.469 178.453 259.193C177.937 258.917 177.479 258.536 177.078 258.047C176.687 257.547 176.38 256.995 176.161 256.38C175.937 255.755 175.828 255.104 175.828 254.422C175.828 253.745 175.937 253.089 176.161 252.464C176.38 251.839 176.687 251.292 177.078 250.818C177.479 250.333 177.937 249.953 178.453 249.672C178.964 249.38 179.516 249.234 180.099 249.234H180.224C180.807 249.234 181.354 249.38 181.87 249.672C182.396 249.953 182.854 250.333 183.245 250.818C183.63 251.307 183.932 251.859 184.141 252.484C184.359 253.109 184.474 253.755 184.474 254.422C184.474 255.104 184.359 255.755 184.141 256.38C183.932 257.005 183.63 257.563 183.245 258.047C182.854 258.536 182.401 258.917 181.891 259.193C181.375 259.469 180.818 259.609 180.224 259.609H180.099ZM178.87 259.109C179.729 259.469 180.583 259.469 181.432 259.109C181.932 258.875 182.37 258.521 182.745 258.047C183.12 257.578 183.411 257.026 183.62 256.401C183.839 255.766 183.953 255.104 183.953 254.422C183.953 253.672 183.818 252.964 183.557 252.297C183.307 251.62 182.953 251.036 182.495 250.547C182.047 250.063 181.547 249.734 180.995 249.568C180.854 249.526 180.714 249.5 180.578 249.484C180.437 249.474 180.292 249.464 180.141 249.464C180.016 249.464 179.875 249.474 179.724 249.484C179.583 249.5 179.453 249.526 179.328 249.568C178.755 249.734 178.25 250.063 177.807 250.547C177.359 251.036 177.005 251.62 176.745 252.297C176.479 252.964 176.349 253.672 176.349 254.422C176.349 255.104 176.458 255.766 176.682 256.401C176.901 257.026 177.203 257.578 177.578 258.047C177.953 258.521 178.38 258.875 178.87 259.109Z" fill="#C8B7A1"/>
</g>
<path d="M186.703 259.193C186.953 259.193 187.167 259.172 187.349 259.13C187.526 259.078 187.62 258.984 187.62 258.859V249.839C187.62 249.714 187.526 249.63 187.349 249.589C187.167 249.536 186.953 249.505 186.703 249.505V249.297H188.12L193.911 258.38V249.839C193.911 249.714 193.818 249.63 193.641 249.589C193.458 249.536 193.245 249.505 192.995 249.505V249.297H195.036V249.505C194.786 249.505 194.568 249.536 194.391 249.589C194.208 249.63 194.12 249.714 194.12 249.839V259.401H193.932L187.828 249.776V258.859C187.828 258.984 187.917 259.078 188.099 259.13C188.276 259.172 188.495 259.193 188.745 259.193V259.401H186.703V259.193Z" fill="#C8B7A1"/>
</g>
</svg>
