<svg width="74" height="71" viewBox="0 0 74 71" fill="none" xmlns="http://www.w3.org/2000/svg">
<mask id="mask0_2348_82" style="mask-type:luminance" maskUnits="userSpaceOnUse" x="0" y="0" width="74" height="71">
<path d="M73.3333 0H0V70.6667H73.3333V0Z" fill="white"/>
</mask>
<g mask="url(#mask0_2348_82)">
<mask id="mask1_2348_82" style="mask-type:luminance" maskUnits="userSpaceOnUse" x="10" y="0" width="33" height="34">
<path d="M10.6641 0.494141H42.6641V33.3327H10.6641V0.494141Z" fill="white"/>
</mask>
<g mask="url(#mask1_2348_82)">
<mask id="mask2_2348_82" style="mask-type:luminance" maskUnits="userSpaceOnUse" x="11" y="0" width="32" height="33">
<path d="M23.2148 0.972656L42.2461 11.8685L30.5742 32.2539L11.543 21.3633L23.2148 0.972656Z" fill="white"/>
</mask>
<g mask="url(#mask2_2348_82)">
<mask id="mask3_2348_82" style="mask-type:luminance" maskUnits="userSpaceOnUse" x="10" y="-1" width="33" height="35">
<path d="M42.6641 -0.00195312H10.6641V33.3314H42.6641V-0.00195312Z" fill="white"/>
</mask>
<g mask="url(#mask3_2348_82)">
<mask id="mask4_2348_82" style="mask-type:luminance" maskUnits="userSpaceOnUse" x="18" y="3" width="20" height="29">
<path d="M18.6641 3.99805H37.3307V31.998H18.6641V3.99805Z" fill="white"/>
</mask>
<g mask="url(#mask4_2348_82)">
<mask id="mask5_2348_82" style="mask-type:luminance" maskUnits="userSpaceOnUse" x="11" y="0" width="32" height="33">
<path d="M23.2148 0.972656L42.2461 11.8685L30.5742 32.2539L11.543 21.3633L23.2148 0.972656Z" fill="white"/>
</mask>
<g mask="url(#mask5_2348_82)">
<mask id="mask6_2348_82" style="mask-type:luminance" maskUnits="userSpaceOnUse" x="12" y="1" width="31" height="32">
<path d="M42.7578 12.1595L23.7266 1.26367L12.0547 21.6543L31.0859 32.5449L42.7578 12.1595Z" fill="white"/>
</mask>
<g mask="url(#mask6_2348_82)">
<path d="M30.9495 5.43517C30.9547 5.4508 31.012 5.50288 31.0797 5.54976C31.2099 5.64871 31.4911 5.90392 31.5536 5.98726C31.5745 6.0133 31.5849 6.09142 31.5797 6.15913C31.5536 6.37788 31.4234 6.50809 30.9599 6.79455C30.6526 6.98205 30.5484 7.02371 30.3661 7.03934C30.288 7.04455 30.163 7.06017 30.0849 7.0758C29.9338 7.10184 29.5016 7.11746 28.6266 7.12788C27.1891 7.14871 25.6161 7.2008 25.6213 7.22163C25.6266 7.23205 25.8088 7.29455 26.0276 7.36746C26.762 7.61226 27.2828 7.81538 28.0745 8.16434C28.5693 8.38309 29.9078 9.14351 30.2984 9.42476C30.663 9.68517 31.4599 10.3102 31.8193 10.6123C32.6682 11.331 33.9911 12.6435 34.5484 13.3258C35.6474 14.6695 36.1943 16.0914 36.3922 18.1383C36.5172 19.4248 36.3818 20.6643 35.9443 22.18C35.4495 23.8935 34.9703 25.1539 34.1838 26.8102C33.5693 28.1018 33.1266 28.8727 32.6318 29.5185C32.3088 29.9456 32.1161 30.1695 31.6474 30.6487C31.4234 30.8779 31.1682 31.1487 31.0797 31.2477C30.8974 31.456 30.7307 31.5758 30.5901 31.5966C30.5016 31.607 30.4859 31.607 30.4599 31.5602C30.4234 31.4873 30.4286 31.3623 30.4807 31.1539C30.5172 30.9873 30.538 30.9404 30.7516 30.5914C30.8818 30.3831 31.0901 30.0758 31.2203 29.9091C31.9599 28.9352 32.3922 28.1227 32.9026 26.7529C33.3609 25.5133 33.6161 24.6591 34.0224 22.9664C34.4443 21.2112 34.512 20.8466 34.5328 20.2945C34.5588 19.5862 34.4495 18.6331 34.2307 17.6435C33.9911 16.5498 33.512 15.5498 32.8036 14.6591C32.3453 14.0862 31.2411 12.9612 30.4599 12.2789C29.6109 11.5393 29.0588 11.1435 28.1526 10.6227C26.887 9.89351 25.6005 9.33101 23.9547 8.76851C23.4755 8.60705 22.7359 8.38309 22.7047 8.3883C22.6891 8.39351 22.9338 8.66955 23.2463 8.99767C24.6526 10.4925 25.0693 10.9925 25.3297 11.5237C25.6891 12.2425 25.9443 13.2737 25.913 13.8987C25.8974 14.2477 25.8766 14.3518 25.8036 14.4091C25.7047 14.4873 25.5953 14.4508 25.1474 14.1904C24.7307 13.9508 24.4391 13.732 23.9911 13.3466C23.4599 12.8831 23.2516 12.6487 22.8557 12.107C22.7568 11.9716 22.3453 11.4195 21.9391 10.8831C21.1474 9.83101 20.5641 8.98726 20.3141 8.52371C20.1266 8.16955 19.9651 7.78934 19.9495 7.65913C19.9338 7.52371 19.9651 7.05496 19.9963 7.00809C20.0068 6.98205 20.0172 6.93517 20.012 6.90392C20.0068 6.75288 20.163 6.34663 20.2724 6.21642C20.3713 6.10184 20.4755 6.08101 20.9182 6.06017C21.6891 6.02892 22.3036 5.97163 22.7359 5.87788C23.4703 5.72163 23.6786 5.68517 24.5953 5.53934C25.8088 5.35184 28.2932 5.19559 29.4703 5.23726C30.2932 5.26851 30.762 5.31017 30.8557 5.36226C30.9026 5.3883 30.9495 5.42476 30.9495 5.43517Z" fill="white"/>
</g>
</g>
</g>
</g>
</g>
</g>
<path d="M7.53166 58.2626C7.14625 57.971 6.95874 57.5491 6.96916 56.9918C6.98479 56.4397 7.11499 55.8199 7.36499 55.1376C7.61499 54.4605 7.85979 53.773 8.09416 53.0751C8.35979 52.2991 8.60458 51.5282 8.84416 50.7626C9.09416 50.0022 9.38583 49.2209 9.71916 48.4293C9.82854 48.1532 10.016 47.9605 10.2817 47.8459C10.5577 47.7209 10.8285 47.6949 11.0942 47.7626C11.3546 47.8199 11.5525 47.9709 11.6775 48.2209C11.8025 48.4709 11.766 48.8147 11.5733 49.2418C11.4483 49.523 11.2244 49.9032 10.9067 50.3876C10.5994 50.8772 10.2608 51.4032 9.88583 51.9709C9.52125 52.5439 9.20354 53.0959 8.92749 53.6376C8.66187 54.1689 8.50041 54.648 8.44833 55.0751C8.39624 55.4918 8.54208 55.8147 8.90666 56.0335C9.47437 56.3668 10.1827 56.1793 11.0317 55.471C11.8754 54.7522 12.8494 53.4397 13.9483 51.5334L14.1775 51.5959C13.7035 52.6532 13.1671 53.6532 12.5733 54.596C11.9744 55.5282 11.3702 56.3199 10.7608 56.971C10.1462 57.6116 9.5577 58.0543 8.98999 58.3043C8.43791 58.5647 7.94833 58.5543 7.53166 58.2626ZM10.8025 44.4293C11.0108 43.8876 11.3077 43.5022 11.6983 43.2626C12.0994 43.0282 12.4952 42.9866 12.8858 43.1376C13.2452 43.2626 13.4796 43.5647 13.5942 44.0334C13.7192 44.4918 13.6775 44.9657 13.4692 45.4501C13.2712 45.9814 12.9744 46.3668 12.5733 46.6168C12.1671 46.8564 11.7712 46.9084 11.3858 46.7834C11.0108 46.648 10.766 46.3407 10.6567 45.8668C10.5421 45.3824 10.5942 44.9032 10.8025 44.4293Z" fill="white"/>
<path d="M20.1609 55.1603C19.7026 54.8426 19.463 54.4311 19.4526 53.9311C19.437 53.4207 19.5411 52.8582 19.7651 52.2436C19.9995 51.6186 20.2963 50.9936 20.6609 50.3686C21.0203 49.7436 21.3536 49.1603 21.6609 48.6186C21.9786 48.0665 22.2078 47.5978 22.3484 47.2228C22.4995 46.8478 22.463 46.5978 22.2443 46.4728C21.937 46.2957 21.5672 46.3999 21.1401 46.7853C20.7078 47.1759 20.2547 47.7436 19.7859 48.4936C19.3276 49.2332 18.8536 50.0353 18.3693 50.9103C17.8693 51.8843 17.3901 52.8426 16.9318 53.7853C16.4838 54.7332 16.1193 55.4832 15.8276 56.0353C15.6088 56.4936 15.3172 56.7332 14.9526 56.7645C14.5932 56.8061 14.3016 56.6863 14.0776 56.4103C13.8432 56.1343 13.8172 55.7593 13.9943 55.2853C14.1349 55.0093 14.3224 54.6082 14.5568 54.077C14.7807 53.5353 15.0255 52.9728 15.2859 52.3895C15.5516 51.7957 15.7599 51.2645 15.9109 50.8061C16.1713 50.1134 16.3745 49.5561 16.5151 49.1395C16.6505 48.7228 16.7703 48.3478 16.8693 48.0145C16.9786 47.6811 17.1036 47.2957 17.2443 46.8478C17.3797 46.4311 17.588 46.1395 17.8693 45.9728C18.1609 45.8061 18.437 45.7593 18.7026 45.827C18.963 45.8999 19.1505 46.0718 19.2651 46.3478C19.3745 46.629 19.3276 46.9832 19.1193 47.4103C18.8536 47.9936 18.463 48.6551 17.9526 49.3895C17.437 50.129 16.9838 50.9103 16.5984 51.7436C16.3172 52.3582 16.088 52.8843 15.9109 53.327C15.7338 53.7749 15.7234 54.0301 15.8901 54.0978C16.0151 54.1551 16.2026 53.9676 16.4526 53.5353C16.713 53.1082 17.0203 52.5509 17.3693 51.8686C17.713 51.1759 18.0672 50.4728 18.4318 49.7645C18.8172 49.0561 19.2234 48.3582 19.6401 47.6603C20.0568 46.9676 20.4734 46.3634 20.8901 45.8478C21.3068 45.3374 21.7286 44.9676 22.1609 44.7436C22.6036 44.5249 23.0463 44.5301 23.4943 44.7645C23.8797 45.004 24.0828 45.3478 24.0984 45.8061C24.1245 46.2645 24.0359 46.7957 23.8276 47.3895C23.6193 47.9728 23.3588 48.5874 23.0568 49.2228C22.7651 49.8478 22.4838 50.4415 22.2234 50.9936C21.9578 51.5509 21.7859 52.0353 21.7026 52.452C21.6193 52.8582 21.687 53.1186 21.9109 53.2436C22.2443 53.4415 22.6922 53.3686 23.2651 53.0353C23.8484 52.702 24.4838 52.1343 25.1818 51.327C25.8745 50.5249 26.5411 49.5509 27.1818 48.4103L27.4109 48.5561C26.8797 49.5718 26.2963 50.5457 25.6609 51.4728C25.0359 52.3895 24.3901 53.1915 23.7234 53.8686C23.0568 54.5353 22.4161 55.004 21.8068 55.2645C21.1922 55.5145 20.6453 55.4832 20.1609 55.1603Z" fill="white"/>
<path d="M28.9063 52.667C28.3646 52.3753 27.9688 51.917 27.7188 51.292C27.4687 50.667 27.4687 49.8961 27.7188 48.9795C27.8177 48.5941 28.0104 48.3232 28.3021 48.167C28.5833 48.0003 28.8438 47.9534 29.0938 48.0211C29.5365 47.1618 29.9479 46.2451 30.3229 45.2711C30.7083 44.2868 31.1354 43.2607 31.5938 42.1878C31.6198 42.0524 31.6667 41.9118 31.7396 41.7711C31.9896 41.3701 32.3021 41.1201 32.6771 41.0211C33.0521 40.9274 33.4271 40.9326 33.8021 41.042C34.1771 41.1409 34.4792 41.3076 34.7188 41.542C34.9792 41.7816 35.0625 42.0784 34.9688 42.4378C34.8854 42.8024 34.6823 43.0628 34.3646 43.2295C34.0417 43.3857 33.7031 43.3232 33.3438 43.042C33.2292 42.9586 33.0833 42.8024 32.9063 42.5628C32.7396 42.3284 32.599 42.2711 32.4896 42.3961C32.1667 42.7711 32.0781 43.2607 32.2188 43.8545C32.3542 44.4378 32.5833 45.0836 32.9063 45.792C33.2396 46.5003 33.5521 47.2191 33.8438 47.9378C34.1354 48.6461 34.2917 49.2868 34.3229 49.8545C34.849 49.5524 35.375 49.0784 35.9063 48.4378C36.4323 47.7868 37 46.8857 37.6146 45.7295L37.8646 45.8545C37.1823 47.3284 36.4479 48.5524 35.6563 49.5211C34.8646 50.4795 34.1146 51.2451 33.4063 51.8128C33.0156 52.2295 32.5521 52.5368 32.0104 52.7295C31.4688 52.9274 30.9167 53.0159 30.3646 53.0003C29.8229 52.9743 29.3385 52.8649 28.9063 52.667ZM29.1979 52.167C29.5 52.3909 29.8438 52.417 30.2188 52.2503C30.6042 52.0732 30.9792 51.7607 31.3438 51.3128C31.7031 50.8545 31.9948 50.2868 32.2188 49.6045C32.4375 48.9274 32.5365 48.1878 32.5104 47.3961C32.5104 46.9378 32.4271 46.4691 32.2604 45.9795C32.0938 45.4795 31.9323 44.9795 31.7813 44.4795C31.625 43.9691 31.5313 43.4899 31.4896 43.042C31.1823 43.9586 30.8542 44.8232 30.5104 45.6253C30.1615 46.4326 29.7865 47.2711 29.3854 48.1461C29.6875 48.3961 29.7656 48.8024 29.6146 49.3545C29.5313 49.6357 29.401 49.9586 29.2188 50.3336C29.026 50.7086 28.901 51.0628 28.8438 51.3961C28.776 51.7191 28.8958 51.9743 29.1979 52.167Z" fill="white"/>
<path d="M35.3797 60.9112C35.2287 61.2966 35.0204 61.557 34.7547 61.682C34.4787 61.8174 34.2079 61.8539 33.9422 61.7862C33.6818 61.7133 33.4839 61.5466 33.3589 61.2862C33.2235 61.0206 33.2339 60.7029 33.4006 60.3279C33.5829 59.8383 33.8537 59.2133 34.2131 58.4529C34.562 57.6872 35.0204 56.6872 35.5881 55.4529C36.1454 54.2289 36.812 52.7029 37.5881 50.8695C37.7704 50.4529 37.9839 49.8904 38.2339 49.182C38.4839 48.4737 38.7547 47.7133 39.0464 46.8904C39.3277 46.057 39.6089 45.2393 39.9006 44.432C40.1922 43.6143 40.4527 42.8799 40.6922 42.2237C40.9422 41.5727 41.161 41.0779 41.3589 40.7445C41.6506 40.2185 41.9839 39.9529 42.3589 39.9529C42.7443 39.9424 43.0464 40.1091 43.2547 40.4529C43.4631 40.7862 43.4318 41.2029 43.1714 41.7029L42.3381 43.182C43.0047 42.281 43.661 41.4737 44.3172 40.7654C44.9683 40.057 45.5933 39.531 46.1922 39.182C46.786 38.8383 47.3277 38.7654 47.8172 38.9737C48.4006 39.2237 48.7756 39.656 48.9422 40.2654C49.1193 40.8643 49.1402 41.5674 49.0047 42.3695C48.8797 43.1612 48.635 43.9737 48.2756 44.807C47.9527 45.5727 47.5725 46.2966 47.1297 46.9737C46.6975 47.6404 46.2235 48.2237 45.7131 48.7237C45.9214 48.7133 46.1506 48.6612 46.4006 48.5779C46.6506 48.4945 46.911 48.3799 47.1922 48.2237C47.9683 47.7654 48.8068 47.0466 49.7131 46.057C50.6141 45.057 51.4318 43.906 52.1714 42.5987L52.4422 42.6612C51.8277 43.9945 51.0152 45.2133 50.0047 46.307C48.9891 47.406 47.9631 48.281 46.9214 48.932C45.9318 49.5727 44.9943 49.9633 44.1089 50.0987C43.2183 50.2393 42.5308 50.031 42.0464 49.4737C41.2391 48.7654 41.2391 47.7966 42.0464 46.557C42.2547 46.1977 42.51 46.0518 42.8172 46.1195C43.1193 46.1924 43.3381 46.3643 43.4631 46.6404C43.5881 46.906 43.4943 47.1977 43.1922 47.5154C42.911 47.7966 42.6506 48.0727 42.4006 48.3487C42.1506 48.6299 42.1297 48.8904 42.3381 49.1404C42.5464 49.3904 42.8172 49.4216 43.1506 49.2237C43.4943 49.031 43.8641 48.682 44.2547 48.182C44.6558 47.682 45.0516 47.0883 45.4422 46.3904C45.8277 45.6977 46.1766 44.9945 46.4839 44.2862C46.7756 43.5935 47.0047 42.932 47.1714 42.307C47.3485 41.6716 47.4214 41.1195 47.3797 40.6612C47.3485 40.2029 47.161 39.906 46.8172 39.7654C46.4943 39.6299 46.0568 39.7966 45.5047 40.2654C44.9631 40.7237 44.3641 41.3643 43.7131 42.182C43.0725 43.0049 42.4318 43.8904 41.7964 44.8487C41.1558 45.7966 40.5933 46.6977 40.1089 47.557C39.8485 48.0883 39.5672 48.6404 39.2756 49.2237C38.9735 49.807 38.6818 50.4008 38.4006 50.9945C38.2235 51.3695 38.0152 51.9164 37.7756 52.6404C37.5412 53.3747 37.2964 54.1924 37.0464 55.0987C36.7964 55.9997 36.5568 56.8695 36.3172 57.7029C36.0829 58.5466 35.8745 59.2654 35.6922 59.8487C35.5152 60.432 35.411 60.7862 35.3797 60.9112Z" fill="white"/>
<path d="M55.0046 46.9748C54.2859 46.6415 53.8536 46.1206 53.7129 45.4123C53.5619 44.6935 53.6244 43.8602 53.9004 42.9123C54.1661 41.9696 54.5671 40.9904 55.1088 39.9748C55.6609 38.9748 56.2754 38.131 56.9421 37.4331C57.6088 36.7404 58.2754 36.2456 58.9421 35.954C59.6088 35.6623 60.1921 35.6362 60.6921 35.8706C61.4109 36.204 61.7963 36.9227 61.8379 38.0165C61.89 39.0998 61.6348 40.3081 61.0671 41.6415C61.2754 41.8394 61.5931 41.8915 62.0254 41.8081C62.4525 41.7248 62.9317 41.4435 63.4629 40.954C64.0046 40.4696 64.515 39.7612 65.0046 38.829L65.2338 38.954C64.7181 40.1206 64.1921 41.006 63.6504 41.5998C63.1088 42.1987 62.5671 42.5894 62.0254 42.7665C61.4838 42.9487 60.9681 42.9956 60.4838 42.9123C59.9838 43.8862 59.39 44.7248 58.7129 45.4331C58.0306 46.1415 57.364 46.6362 56.7129 46.9123C56.0723 47.1779 55.5046 47.1935 55.0046 46.9748ZM56.1921 44.5165C56.7598 44.7977 57.364 44.7612 58.0046 44.4123C58.6556 44.0685 59.2806 43.4852 59.8796 42.6623C59.739 42.5685 59.5879 42.4279 59.4213 42.2456C59.265 42.0685 59.1713 41.8029 59.1296 41.454C59.0879 41.0946 59.1609 40.6519 59.3588 40.1206C59.5671 39.579 59.7963 39.2248 60.0463 39.0581C60.3067 38.8915 60.5515 38.829 60.7754 38.8706C61.0098 38.9123 61.1973 38.9748 61.3379 39.0581C61.4056 38.4748 61.3692 37.9748 61.2338 37.5581C61.0931 37.1415 60.8796 36.8654 60.5879 36.7248C60.1973 36.506 59.7546 36.4696 59.2546 36.6206C58.7546 36.7769 58.265 37.079 57.7963 37.5373C57.3223 37.9852 56.9213 38.5321 56.5879 39.1831C56.2129 39.9331 55.9265 40.6831 55.7338 41.4331C55.5515 42.1831 55.489 42.8394 55.5463 43.3915C55.614 43.9331 55.8275 44.3081 56.1921 44.5165Z" fill="white"/>
</g>
</svg>
