<svg width="211" height="238" viewBox="0 0 211 238" fill="none" xmlns="http://www.w3.org/2000/svg">
<mask id="mask0_2305_345" style="mask-type:luminance" maskUnits="userSpaceOnUse" x="0" y="0" width="211" height="238">
<path d="M0.285156 0.333984H210.665V237.667H0.285156V0.333984Z" fill="white"/>
</mask>
<g mask="url(#mask0_2305_345)">
<mask id="mask1_2305_345" style="mask-type:luminance" maskUnits="userSpaceOnUse" x="-150" y="-128" width="1792" height="1043">
<path d="M1641.2 -127.898H-149.203V914.902H1641.2V-127.898Z" fill="black" fill-opacity="0.67"/>
</mask>
<g mask="url(#mask1_2305_345)">
<mask id="mask2_2305_345" style="mask-type:luminance" maskUnits="userSpaceOnUse" x="-1" y="0" width="212" height="238">
<path d="M210.663 0.333984H-0.00390625V237.667H210.663V0.333984Z" fill="white"/>
</mask>
<g mask="url(#mask2_2305_345)">
<mask id="mask3_2305_345" style="mask-type:luminance" maskUnits="userSpaceOnUse" x="5" y="67" width="163" height="103">
<path d="M5.32812 67H167.995V169.667H5.32812V67Z" fill="white"/>
</mask>
<g mask="url(#mask3_2305_345)">
<mask id="mask4_2305_345" style="mask-type:luminance" maskUnits="userSpaceOnUse" x="0" y="2" width="209" height="233">
<path d="M208.938 183.558L65.9531 234.954L0.6875 53.4017L143.672 2.00586L208.938 183.558Z" fill="white"/>
</mask>
<g mask="url(#mask4_2305_345)">
<mask id="mask5_2305_345" style="mask-type:luminance" maskUnits="userSpaceOnUse" x="0" y="2" width="209" height="233">
<path d="M208.938 183.558L65.9531 234.954L0.6875 53.4017L143.672 2.00586L208.938 183.558Z" fill="white"/>
</mask>
<g mask="url(#mask5_2305_345)">
<mask id="mask6_2305_345" style="mask-type:luminance" maskUnits="userSpaceOnUse" x="4" y="26" width="164" height="185">
<path d="M167.641 170.589L56.125 210.678L4.375 66.7194L115.891 26.6309L167.641 170.589Z" fill="white"/>
</mask>
<g mask="url(#mask6_2305_345)">
<mask id="mask7_2305_345" style="mask-type:luminance" maskUnits="userSpaceOnUse" x="5" y="26" width="163" height="185">
<path d="M167.641 170.589L56.8125 210.433L5.0625 66.4746L115.891 26.6309L167.641 170.589Z" fill="white"/>
</mask>
<g mask="url(#mask7_2305_345)">
<path d="M5.60938 67.6875C22.1979 69.1927 38.8698 71.224 55.026 75.7188C71.1927 80.3333 86.2292 87.8021 101.12 95.2917C108.505 99.1354 116.12 102.677 122.906 107.823C129.688 112.979 135.167 119.516 140.172 126.193C150.292 139.516 159.255 153.708 166.859 168.563L166.672 168.667C157.911 154.474 148.516 140.745 138.406 127.536C133.328 120.99 128.104 114.516 121.667 109.422C115.208 104.375 107.75 100.536 100.557 96.3333C93.3073 92.2396 85.9427 88.3229 78.2604 85.1094C70.599 81.8385 62.625 79.4167 54.5625 77.4375C38.4896 73.3021 22.0104 70.8437 5.57812 67.9063L5.60938 67.6875Z" fill="#FFF0DD"/>
</g>
</g>
</g>
</g>
</g>
<mask id="mask8_2305_345" style="mask-type:luminance" maskUnits="userSpaceOnUse" x="153" y="153" width="29" height="42">
<path d="M153.328 153.666H181.328V194.999H153.328V153.666Z" fill="white"/>
</mask>
<g mask="url(#mask8_2305_345)">
<mask id="mask9_2305_345" style="mask-type:luminance" maskUnits="userSpaceOnUse" x="0" y="2" width="209" height="233">
<path d="M208.938 183.556L65.9531 234.952L0.6875 53.3997L143.672 2.00391L208.938 183.556Z" fill="white"/>
</mask>
<g mask="url(#mask9_2305_345)">
<mask id="mask10_2305_345" style="mask-type:luminance" maskUnits="userSpaceOnUse" x="0" y="2" width="209" height="233">
<path d="M208.938 183.556L65.9531 234.952L0.6875 53.3997L143.672 2.00391L208.938 183.556Z" fill="white"/>
</mask>
<g mask="url(#mask10_2305_345)">
<path d="M154.547 159.717C155.245 157.701 156.37 155.602 158.49 154.607C160.683 153.69 163.099 154.399 165.125 155.159C167.193 155.982 169.115 157.029 170.995 158.097C172.933 159.18 174.75 160.513 176.391 162.086C177.99 163.685 179.407 165.592 180.235 167.8C181.078 170.003 181.245 172.336 181.256 174.529C181.235 178.914 180.782 183.253 179.948 187.524C179.745 188.586 179.532 189.659 179.292 190.711L178.917 192.295C178.771 192.81 178.787 193.352 178.365 193.977C177.901 194.607 177.032 194.623 176.495 194.446C175.917 194.274 175.407 193.956 174.969 193.638C174.089 193.019 173.177 192.435 172.308 191.779C168.782 189.263 165.344 186.565 162.287 183.435C159.302 180.284 156.506 176.774 154.901 172.592C154.089 170.534 153.605 168.331 153.516 166.133C153.469 163.94 153.808 161.753 154.547 159.717ZM154.75 159.784C154.042 161.8 153.771 163.982 154.078 166.081C154.417 168.18 155.12 170.185 156.131 172.024C158.146 175.701 160.886 178.967 163.61 182.232C166.355 185.467 169.323 188.607 172.724 191.222C173.573 191.873 174.438 192.508 175.334 193.086C176.136 193.67 177.334 194.144 177.756 193.524C177.959 193.248 178.021 192.649 178.131 192.128L178.375 190.545C178.532 189.482 178.667 188.42 178.776 187.352C179.193 183.092 179.334 178.81 179.224 174.571C179.157 172.467 178.907 170.43 178.146 168.618C177.381 166.8 176.203 165.149 174.766 163.717C173.355 162.248 171.667 161.013 169.917 159.873C168.094 158.717 166.344 157.477 164.526 156.451C162.724 155.461 160.683 154.612 158.703 155.17C156.724 155.795 155.459 157.815 154.75 159.784Z" fill="#FFF0DD"/>
</g>
</g>
</g>
<mask id="mask11_2305_345" style="mask-type:luminance" maskUnits="userSpaceOnUse" x="147" y="137" width="45" height="16">
<path d="M147.996 137.666H191.996V152.333H147.996V137.666Z" fill="white"/>
</mask>
<g mask="url(#mask11_2305_345)">
<mask id="mask12_2305_345" style="mask-type:luminance" maskUnits="userSpaceOnUse" x="0" y="2" width="209" height="233">
<path d="M208.938 183.556L65.9531 234.952L0.6875 53.3997L143.672 2.00391L208.938 183.556Z" fill="white"/>
</mask>
<g mask="url(#mask12_2305_345)">
<mask id="mask13_2305_345" style="mask-type:luminance" maskUnits="userSpaceOnUse" x="0" y="2" width="209" height="233">
<path d="M208.938 183.556L65.9531 234.952L0.6875 53.3997L143.672 2.00391L208.938 183.556Z" fill="white"/>
</mask>
<g mask="url(#mask13_2305_345)">
<path d="M157.38 139.879C159.938 141.473 162.365 143.249 164.792 144.999C165.974 145.879 167.177 146.681 168.432 147.202C169.656 147.738 171 147.848 172.448 147.879C173.896 147.905 175.438 147.863 177.01 148.119C178.583 148.379 180.042 148.879 181.453 149.389C184.214 150.436 187.208 151.426 189.974 150.488L189.943 151.212L184.646 149.27C182.87 148.608 181.068 147.733 179.531 146.441C178 145.212 176.766 143.77 175.401 142.639C174.036 141.483 172.625 140.738 170.969 140.488C169.318 140.244 167.464 140.316 165.573 140.327L159.948 140.28C158.078 140.28 156.198 140.197 154.323 140.139C153.375 140.113 152.49 140.035 151.677 140.259C151.276 140.363 150.87 140.608 150.422 140.806C149.995 141.004 149.396 141.16 148.922 140.889L149.005 140.691C149.88 140.884 150.469 140.014 151.401 139.572C152.354 139.103 153.375 139.066 154.292 138.978C156.161 138.806 158.036 138.613 159.901 138.509L165.51 138.145C167.37 138.087 169.286 137.874 171.344 138.212C173.438 138.494 175.396 139.707 176.802 141.046C178.255 142.395 179.453 143.832 180.745 145.056C183.297 147.457 186.865 148.905 190.24 150.499L191.198 150.952L190.203 151.228C187.083 152.108 184.042 150.983 181.167 150.342C179.714 150.009 178.266 149.707 176.854 149.65C175.448 149.608 173.99 149.785 172.438 149.796C170.906 149.811 169.193 149.624 167.682 148.905C166.177 148.228 164.953 147.212 163.802 146.228C161.568 144.212 159.344 142.217 157.245 140.046L157.38 139.879Z" fill="#FFF0DD"/>
</g>
</g>
</g>
<mask id="mask14_2305_345" style="mask-type:luminance" maskUnits="userSpaceOnUse" x="97" y="99" width="29" height="90">
<path d="M97.3281 99H125.328V188.333H97.3281V99Z" fill="white"/>
</mask>
<g mask="url(#mask14_2305_345)">
<mask id="mask15_2305_345" style="mask-type:luminance" maskUnits="userSpaceOnUse" x="0" y="2" width="209" height="233">
<path d="M208.938 183.558L65.9531 234.954L0.6875 53.4017L143.672 2.00586L208.938 183.558Z" fill="white"/>
</mask>
<g mask="url(#mask15_2305_345)">
<mask id="mask16_2305_345" style="mask-type:luminance" maskUnits="userSpaceOnUse" x="0" y="2" width="209" height="233">
<path d="M208.938 183.558L65.9531 234.954L0.6875 53.4017L143.672 2.00586L208.938 183.558Z" fill="white"/>
</mask>
<g mask="url(#mask16_2305_345)">
<path d="M119.401 143.71C115.349 145.699 111.281 147.715 107.854 150.517C106.146 151.908 104.646 153.517 103.391 155.277C102.161 157.059 101.229 159.038 100.609 161.121C99.3801 165.303 99.0781 169.741 99.4478 174.168C99.776 178.605 100.661 183.033 101.635 187.439L100.963 187.23C107.208 181.944 112.495 175.543 116.792 168.611C117.87 166.892 118.859 165.105 119.854 163.324C120.828 161.538 121.792 159.751 122.406 157.913C123.052 156.069 123.255 154.225 122.755 152.444C122.307 150.642 121.224 148.954 120.333 146.975C119.891 145.991 119.516 144.913 119.338 143.757C119.182 142.595 119.187 141.564 119.219 140.491C119.302 138.355 119.562 136.288 119.807 134.277C120.036 132.251 120.203 130.267 120.073 128.329C119.927 126.361 119.672 124.335 119.297 122.361C117.745 114.454 114.453 106.829 109.406 100.355L109.573 100.215C115.307 106.147 119.292 113.819 121.167 121.965C121.641 124.012 122 126.048 122.229 128.163C122.417 130.324 122.26 132.449 122.062 134.512C121.875 136.574 121.588 138.59 121.521 140.569C121.474 141.538 121.495 142.559 121.599 143.444C121.708 144.324 121.99 145.21 122.365 146.1C123.104 147.887 124.24 149.73 124.766 151.939C125.338 154.158 125 156.569 124.213 158.559C123.432 160.59 122.365 162.392 121.307 164.163C120.24 165.944 119.088 167.663 117.896 169.35C113.12 176.116 107.542 182.225 101.516 187.85L101.021 188.309L100.838 187.637C99.6718 183.272 98.4062 178.897 97.802 174.34C97.2291 169.798 97.3333 165.012 98.8437 160.559C100.26 156.095 103.187 152.048 107.016 149.428C110.771 146.694 115.047 144.975 119.312 143.507L119.401 143.71Z" fill="#FFF0DD"/>
</g>
</g>
</g>
<mask id="mask17_2305_345" style="mask-type:luminance" maskUnits="userSpaceOnUse" x="119" y="131" width="25" height="27">
<path d="M119.996 131H143.996V157.667H119.996V131Z" fill="white"/>
</mask>
<g mask="url(#mask17_2305_345)">
<mask id="mask18_2305_345" style="mask-type:luminance" maskUnits="userSpaceOnUse" x="0" y="2" width="209" height="233">
<path d="M208.938 183.558L65.9531 234.954L0.6875 53.4017L143.672 2.00586L208.938 183.558Z" fill="white"/>
</mask>
<g mask="url(#mask18_2305_345)">
<mask id="mask19_2305_345" style="mask-type:luminance" maskUnits="userSpaceOnUse" x="0" y="2" width="209" height="233">
<path d="M208.938 183.558L65.9531 234.954L0.6875 53.4017L143.672 2.00586L208.938 183.558Z" fill="white"/>
</mask>
<g mask="url(#mask19_2305_345)">
<path d="M121.036 139.345C121.594 141.668 122.875 143.621 124.422 145.236C125.979 146.876 127.906 148.106 129.906 149.267C131.89 150.46 133.984 151.611 136.125 152.637C138.281 153.653 140.495 154.522 142.745 155.278L142.229 155.908C140.656 153.616 139.015 151.366 137.5 149.043C136.015 146.699 134.469 144.392 133.052 142.001C131.63 139.653 130.302 137.309 128.469 135.418C126.651 133.569 124.338 132.059 121.568 131.772L121.557 131.564C124.406 131.059 127.411 132.278 129.651 134.126C131.927 136.012 133.599 138.434 135.026 140.819C136.469 143.189 137.771 145.642 139.14 148.059C140.479 150.486 141.693 152.996 142.974 155.465L143.578 156.621L142.448 156.1C140.276 155.085 138.073 154.179 135.802 153.429C133.505 152.715 131.198 152.033 128.989 150.929C126.823 149.814 124.765 148.278 123.203 146.293C121.656 144.33 120.656 141.824 120.823 139.371L121.036 139.345Z" fill="#FFF0DD"/>
</g>
</g>
</g>
<mask id="mask20_2305_345" style="mask-type:luminance" maskUnits="userSpaceOnUse" x="91" y="120" width="31" height="21">
<path d="M91.9961 120.334H121.329V140.334H91.9961V120.334Z" fill="white"/>
</mask>
<g mask="url(#mask20_2305_345)">
<mask id="mask21_2305_345" style="mask-type:luminance" maskUnits="userSpaceOnUse" x="0" y="2" width="209" height="233">
<path d="M208.938 183.558L65.9531 234.954L0.6875 53.4017L143.672 2.00586L208.938 183.558Z" fill="white"/>
</mask>
<g mask="url(#mask21_2305_345)">
<mask id="mask22_2305_345" style="mask-type:luminance" maskUnits="userSpaceOnUse" x="0" y="2" width="209" height="233">
<path d="M208.938 183.558L65.9531 234.954L0.6875 53.4017L143.672 2.00586L208.938 183.558Z" fill="white"/>
</mask>
<g mask="url(#mask22_2305_345)">
<path d="M120.901 121.407C118.094 121.235 115.667 122.589 113.214 123.839C110.766 125.105 108.443 126.558 106.12 128.037C103.792 129.491 101.469 131.058 99.4427 132.964C97.4271 134.892 95.7344 137.136 94.3125 139.517L93.724 138.61C96.5208 137.902 99.3802 137.673 102.156 137.438C104.927 137.194 107.63 136.829 110.115 135.985C112.594 135.162 114.88 133.741 116.74 131.819C118.62 129.907 120.083 127.548 120.99 124.892L121.203 124.928C120.984 127.787 119.823 130.589 118.01 132.918C116.193 135.23 113.724 137.142 110.885 138.152C108.052 139.173 105.104 139.355 102.276 139.459C99.4479 139.574 96.6823 139.485 93.9323 139.761L92.5 139.907L93.349 138.85C95.1198 136.621 97.0156 134.537 98.9427 132.475C100.88 130.423 102.833 128.339 105.083 126.563C107.354 124.829 109.875 123.423 112.51 122.324C115.057 121.272 118.135 120.204 120.948 121.194L120.901 121.407Z" fill="#FFF0DD"/>
</g>
</g>
</g>
<mask id="mask23_2305_345" style="mask-type:luminance" maskUnits="userSpaceOnUse" x="105" y="143" width="15" height="27">
<path d="M105.328 143H119.995V169.667H105.328V143Z" fill="white"/>
</mask>
<g mask="url(#mask23_2305_345)">
<mask id="mask24_2305_345" style="mask-type:luminance" maskUnits="userSpaceOnUse" x="0" y="2" width="209" height="233">
<path d="M208.938 183.558L65.9531 234.954L0.6875 53.4017L143.672 2.00586L208.938 183.558Z" fill="white"/>
</mask>
<g mask="url(#mask24_2305_345)">
<mask id="mask25_2305_345" style="mask-type:luminance" maskUnits="userSpaceOnUse" x="0" y="2" width="209" height="233">
<path d="M208.938 183.558L65.9531 234.954L0.6875 53.4017L143.672 2.00586L208.938 183.558Z" fill="white"/>
</mask>
<g mask="url(#mask25_2305_345)">
<path d="M106.531 168.99C106.562 166.453 107.615 164.052 109.078 162.109C109.859 161.151 110.839 160.37 111.594 159.427C112.37 158.495 112.969 157.458 113.51 156.37C114.547 154.177 115.714 152.156 116.682 150.073C117.755 148.036 118.667 145.99 119.453 143.641L119.667 143.651C120.276 146.12 119.745 148.766 118.76 151.052C117.687 153.318 116.224 155.339 114.469 157.052C113.62 157.927 112.797 158.818 112.161 159.839C111.516 160.849 111.115 162.026 110.583 163.083C109.443 165.161 108.167 167.016 106.74 169.063L106.531 168.99Z" fill="#FFF0DD"/>
</g>
</g>
</g>
<mask id="mask26_2305_345" style="mask-type:luminance" maskUnits="userSpaceOnUse" x="121" y="135" width="13" height="11">
<path d="M121.328 135H133.328V145.667H121.328V135Z" fill="white"/>
</mask>
<g mask="url(#mask26_2305_345)">
<mask id="mask27_2305_345" style="mask-type:luminance" maskUnits="userSpaceOnUse" x="0" y="2" width="209" height="233">
<path d="M208.938 183.558L65.9531 234.954L0.6875 53.4017L143.672 2.00586L208.938 183.558Z" fill="white"/>
</mask>
<g mask="url(#mask27_2305_345)">
<mask id="mask28_2305_345" style="mask-type:luminance" maskUnits="userSpaceOnUse" x="0" y="2" width="209" height="233">
<path d="M208.938 183.558L65.9531 234.954L0.6875 53.4017L143.672 2.00586L208.938 183.558Z" fill="white"/>
</mask>
<g mask="url(#mask28_2305_345)">
<path d="M132.332 145.646C131.046 145.078 130.186 144.406 129.483 143.505C129.16 143.021 128.941 142.38 128.504 141.969C128.087 141.547 127.514 141.344 126.915 141.193C125.686 140.943 124.551 140.474 123.483 139.698C122.509 138.87 121.603 137.521 121.801 136.078L121.999 136C123.087 136.818 123.926 137.255 124.863 137.849C125.723 138.505 126.707 139.182 127.525 140.182C127.957 140.661 128.384 141.109 128.926 141.417C129.457 141.724 130.16 141.859 130.707 142.198C131.744 142.943 132.452 144.109 132.514 145.526L132.332 145.646Z" fill="#FFF0DD"/>
</g>
</g>
</g>
<mask id="mask29_2305_345" style="mask-type:luminance" maskUnits="userSpaceOnUse" x="102" y="121" width="20" height="14">
<path d="M102.66 121.666H121.327V134.999H102.66V121.666Z" fill="white"/>
</mask>
<g mask="url(#mask29_2305_345)">
<mask id="mask30_2305_345" style="mask-type:luminance" maskUnits="userSpaceOnUse" x="0" y="2" width="209" height="233">
<path d="M208.938 183.556L65.9531 234.952L0.6875 53.3997L143.672 2.00391L208.938 183.556Z" fill="white"/>
</mask>
<g mask="url(#mask30_2305_345)">
<mask id="mask31_2305_345" style="mask-type:luminance" maskUnits="userSpaceOnUse" x="0" y="2" width="209" height="233">
<path d="M208.938 183.556L65.9531 234.952L0.6875 53.3997L143.672 2.00391L208.938 183.556Z" fill="white"/>
</mask>
<g mask="url(#mask31_2305_345)">
<path d="M103.891 133.816C105.104 132.394 106.5 131.446 108.068 130.785C108.875 130.493 109.781 130.383 110.557 130.014C111.339 129.66 112 129.107 112.635 128.508C113.859 127.264 115.219 126.253 116.615 125.305C118.062 124.43 119.432 123.758 120.979 122.811L121.146 122.936C120.693 124.779 119.266 126.18 117.896 127.206C116.458 128.17 114.938 128.993 113.245 129.519C112.411 129.805 111.604 130.128 110.906 130.623C110.193 131.102 109.615 131.831 108.927 132.352C107.49 133.326 105.844 133.925 103.984 134.003L103.891 133.816Z" fill="#FFF0DD"/>
</g>
</g>
</g>
<mask id="mask32_2305_345" style="mask-type:luminance" maskUnits="userSpaceOnUse" x="109" y="99" width="82" height="31">
<path d="M109.328 99H190.661V129.667H109.328V99Z" fill="white"/>
</mask>
<g mask="url(#mask32_2305_345)">
<mask id="mask33_2305_345" style="mask-type:luminance" maskUnits="userSpaceOnUse" x="0" y="2" width="209" height="233">
<path d="M208.938 183.558L65.9531 234.954L0.6875 53.4017L143.672 2.00586L208.938 183.558Z" fill="white"/>
</mask>
<g mask="url(#mask33_2305_345)">
<mask id="mask34_2305_345" style="mask-type:luminance" maskUnits="userSpaceOnUse" x="0" y="2" width="209" height="233">
<path d="M208.938 183.558L65.9531 234.954L0.6875 53.4017L143.672 2.00586L208.938 183.558Z" fill="white"/>
</mask>
<g mask="url(#mask34_2305_345)">
<path d="M145.277 101.829C147.892 105.318 150.658 108.662 153.642 111.766C156.652 114.798 159.939 117.662 163.913 118.86C165.897 119.454 168.012 119.803 170.184 120.292C172.345 120.782 174.465 121.449 176.507 122.282C180.632 123.87 184.47 125.969 188.397 127.839L187.913 128.396C183.928 122.146 179.496 116.021 173.73 111.469C170.85 109.209 167.725 107.282 164.329 106.1C160.975 104.844 157.329 104.558 153.6 104.042C149.876 103.511 146.324 102.933 142.71 103.094C140.892 103.141 139.043 103.303 137.168 103.412C135.288 103.501 133.408 103.542 131.527 103.516C124.007 103.469 116.507 102.355 109.34 100.271L109.392 100.053C116.736 101.324 124.137 101.839 131.501 101.631C135.194 101.527 138.803 101.048 142.621 100.834C146.465 100.584 150.303 101.24 153.928 101.834C157.548 102.428 161.397 102.813 165.022 104.256C168.616 105.693 171.855 107.818 174.652 110.376C180.298 115.485 184.283 121.896 188.553 127.969L189.376 129.146L188.069 128.537C184.132 126.688 180.09 125.074 175.991 123.751C173.934 123.11 171.866 122.548 169.788 122.094C167.715 121.652 165.507 121.407 163.329 120.652C158.944 119.131 155.428 116.063 152.605 112.709C149.741 109.376 147.215 105.777 145.105 101.943L145.277 101.829Z" fill="#FFF0DD"/>
</g>
</g>
</g>
<mask id="mask35_2305_345" style="mask-type:luminance" maskUnits="userSpaceOnUse" x="133" y="77" width="31" height="26">
<path d="M133.328 77.666H163.995V102.999H133.328V77.666Z" fill="white"/>
</mask>
<g mask="url(#mask35_2305_345)">
<mask id="mask36_2305_345" style="mask-type:luminance" maskUnits="userSpaceOnUse" x="0" y="2" width="209" height="233">
<path d="M208.938 183.556L65.9531 234.952L0.6875 53.3997L143.672 2.00391L208.938 183.556Z" fill="white"/>
</mask>
<g mask="url(#mask36_2305_345)">
<mask id="mask37_2305_345" style="mask-type:luminance" maskUnits="userSpaceOnUse" x="0" y="2" width="209" height="233">
<path d="M208.938 183.556L65.9531 234.952L0.6875 53.3997L143.672 2.00391L208.938 183.556Z" fill="white"/>
</mask>
<g mask="url(#mask37_2305_345)">
<path d="M140.906 101.801C143.542 101.28 145.234 99.1706 146.385 96.957C147.547 94.707 148.578 92.1029 150.135 89.8685C151.667 87.6081 153.568 85.6393 155.568 83.8268C157.573 82.0247 159.625 80.3112 161.781 78.707L162.021 79.4154C158.76 79.7279 155.516 80.2331 152.526 81.2018C151.047 81.7122 149.615 82.3268 148.359 83.1914C147.094 84.0508 145.979 85.1289 144.906 86.2643C142.781 88.5924 140.943 91.1966 139.26 93.9831C137.583 96.7591 135.953 99.582 134.5 102.525L134.297 102.457C135.047 99.2279 136.266 96.1237 137.714 93.1341C139.141 90.1602 140.88 87.1914 143.219 84.707C145.495 82.1602 148.682 80.2018 152.01 79.4206C155.349 78.5768 158.708 78.6862 161.979 78.6341L163.359 78.6133L162.219 79.3424C160 80.7643 157.953 82.4779 156.255 84.5039C154.531 86.4987 153.12 88.7174 151.74 90.9102C151.052 92.0143 150.385 93.1237 149.755 94.2591C149.151 95.4102 148.505 96.6081 147.766 97.7747C146.328 100.072 143.766 102.238 140.917 102.009L140.906 101.801Z" fill="#FFF0DD"/>
</g>
</g>
</g>
<mask id="mask38_2305_345" style="mask-type:luminance" maskUnits="userSpaceOnUse" x="147" y="101" width="40" height="26">
<path d="M147.996 101.666H186.663V126.999H147.996V101.666Z" fill="white"/>
</mask>
<g mask="url(#mask38_2305_345)">
<mask id="mask39_2305_345" style="mask-type:luminance" maskUnits="userSpaceOnUse" x="0" y="2" width="209" height="233">
<path d="M208.938 183.556L65.9531 234.952L0.6875 53.3997L143.672 2.00391L208.938 183.556Z" fill="white"/>
</mask>
<g mask="url(#mask39_2305_345)">
<mask id="mask40_2305_345" style="mask-type:luminance" maskUnits="userSpaceOnUse" x="0" y="2" width="209" height="233">
<path d="M208.938 183.556L65.9531 234.952L0.6875 53.3997L143.672 2.00391L208.938 183.556Z" fill="white"/>
</mask>
<g mask="url(#mask40_2305_345)">
<path d="M148.759 102.123C150.535 103.003 151.868 104.472 153.145 105.831C154.421 107.269 155.551 108.43 157.046 109.394C158.493 110.41 160.155 111.326 161.915 111.962C163.681 112.597 165.525 113.008 167.363 113.571C169.223 114.102 171.02 114.826 172.702 115.758C174.395 116.66 176.046 117.66 177.572 118.8C180.618 121.123 183.332 123.779 185.754 126.727L185.608 126.894C182.306 124.972 179.275 122.764 176.228 120.665C173.233 118.472 170.176 116.462 166.926 114.66C165.285 113.785 163.525 113.118 161.707 112.628C159.884 112.139 157.967 111.816 156.145 110.946C154.311 110.092 152.868 108.399 151.848 106.878C150.733 105.347 149.848 103.717 148.629 102.295L148.759 102.123Z" fill="#FFF0DD"/>
</g>
</g>
</g>
<mask id="mask41_2305_345" style="mask-type:luminance" maskUnits="userSpaceOnUse" x="130" y="101" width="26" height="30">
<path d="M130.66 101.666H155.993V130.999H130.66V101.666Z" fill="white"/>
</mask>
<g mask="url(#mask41_2305_345)">
<mask id="mask42_2305_345" style="mask-type:luminance" maskUnits="userSpaceOnUse" x="0" y="2" width="209" height="233">
<path d="M208.938 183.556L65.9531 234.952L0.6875 53.3997L143.672 2.00391L208.938 183.556Z" fill="white"/>
</mask>
<g mask="url(#mask42_2305_345)">
<mask id="mask43_2305_345" style="mask-type:luminance" maskUnits="userSpaceOnUse" x="0" y="2" width="209" height="233">
<path d="M208.938 183.556L65.9531 234.952L0.6875 53.3997L143.672 2.00391L208.938 183.556Z" fill="white"/>
</mask>
<g mask="url(#mask43_2305_345)">
<path d="M131.63 102.566C132.291 105.441 132.38 108.431 134.057 110.53C135.609 112.754 137.942 114.473 139.979 116.551C142.062 118.572 144.119 120.639 146.447 122.389C148.755 124.155 151.249 125.665 153.76 127.124L152.697 128.092C151.322 125.941 150.015 123.743 148.739 121.54C147.447 119.337 146.171 117.129 145.005 114.868C143.802 112.624 142.729 110.301 141.598 108.014C141.072 106.889 140.515 105.785 139.786 104.806C139.083 103.816 138.229 102.905 137.057 102.452L137.104 102.238C138.447 102.363 139.635 103.202 140.578 104.118C141.526 105.061 142.317 106.129 143.031 107.233C144.343 109.415 145.734 111.566 146.979 113.78C148.26 115.988 149.432 118.249 150.593 120.525C151.77 122.785 152.921 125.061 153.994 127.379L155.328 130.233L152.932 128.348C150.624 126.54 148.385 124.66 146.057 122.905C143.744 121.129 141.27 119.556 138.911 117.811C136.588 116.077 134.244 114.155 132.609 111.452C131.781 110.15 131.328 108.488 131.286 107.004C131.203 105.504 131.322 104.046 131.411 102.582L131.63 102.566Z" fill="#FFF0DD"/>
</g>
</g>
</g>
<mask id="mask44_2305_345" style="mask-type:luminance" maskUnits="userSpaceOnUse" x="134" y="101" width="20" height="26">
<path d="M134.66 101.666H153.327V126.999H134.66V101.666Z" fill="white"/>
</mask>
<g mask="url(#mask44_2305_345)">
<mask id="mask45_2305_345" style="mask-type:luminance" maskUnits="userSpaceOnUse" x="0" y="2" width="209" height="233">
<path d="M208.938 183.556L65.9531 234.952L0.6875 53.3997L143.672 2.00391L208.938 183.556Z" fill="white"/>
</mask>
<g mask="url(#mask45_2305_345)">
<mask id="mask46_2305_345" style="mask-type:luminance" maskUnits="userSpaceOnUse" x="0" y="2" width="209" height="233">
<path d="M208.938 183.556L65.9531 234.952L0.6875 53.3997L143.672 2.00391L208.938 183.556Z" fill="white"/>
</mask>
<g mask="url(#mask46_2305_345)">
<path d="M135.064 102.457C136.163 104.759 137.372 106.702 138.601 108.738C139.168 109.738 139.778 110.915 140.517 111.9C141.262 112.905 142.168 113.759 143.122 114.587C145.059 116.197 146.767 118.009 148.382 119.9C149.924 121.848 151.345 123.905 152.434 126.249L152.273 126.384C150.127 124.947 148.325 123.217 146.637 121.384C145.033 119.493 143.502 117.52 142.22 115.353C141.559 114.28 140.851 113.249 139.981 112.353C139.132 111.436 138.043 110.79 137.148 109.785C135.502 107.785 134.476 105.118 134.851 102.483L135.064 102.457Z" fill="#FFF0DD"/>
</g>
</g>
</g>
<mask id="mask47_2305_345" style="mask-type:luminance" maskUnits="userSpaceOnUse" x="42" y="57" width="93" height="25">
<path d="M42.6602 57.666H134.66V81.666H42.6602V57.666Z" fill="white"/>
</mask>
<g mask="url(#mask47_2305_345)">
<mask id="mask48_2305_345" style="mask-type:luminance" maskUnits="userSpaceOnUse" x="0" y="2" width="209" height="233">
<path d="M208.938 183.556L65.9531 234.952L0.6875 53.3997L143.672 2.00391L208.938 183.556Z" fill="white"/>
</mask>
<g mask="url(#mask48_2305_345)">
<mask id="mask49_2305_345" style="mask-type:luminance" maskUnits="userSpaceOnUse" x="0" y="2" width="209" height="233">
<path d="M208.938 183.556L65.9531 234.952L0.6875 53.3997L143.672 2.00391L208.938 183.556Z" fill="white"/>
</mask>
<g mask="url(#mask49_2305_345)">
<path d="M70.9076 61.8894C74.8503 66.0508 79.7617 68.8842 84.819 71.4831C89.8398 74.1602 94.8346 76.905 100.262 78.0873C105.668 79.3269 111.35 79.2852 116.928 78.4258C122.512 77.5612 127.96 75.7748 133.168 73.5196L133.116 74.1185C126.496 69.629 119.168 66.2019 111.585 63.8998C107.783 62.7644 103.913 61.9154 99.9909 61.4675C96.0794 60.9883 92.1107 60.9883 88.1367 61.1029C84.1732 61.2227 80.1211 61.4258 76.1888 61.7331C72.2513 62.0925 68.4805 62.806 65.0951 64.806C63.3711 65.7592 61.7044 66.8685 59.9284 67.8737C58.1471 68.8633 56.3242 69.7592 54.4492 70.5508C50.7201 72.1602 46.7878 73.2123 42.819 73.8998L42.7773 73.681C46.6576 72.681 50.3867 71.2123 53.9492 69.4571C57.5586 67.7331 60.6992 65.4154 64.1836 63.2383C67.6784 60.9987 71.944 59.8789 75.9805 59.5612C80.043 59.2175 84.0117 58.9831 88.069 58.8321C96.1523 58.5717 104.454 59.53 112.111 62.28C119.809 64.9414 126.845 69.0456 133.501 73.5508L134.033 73.905L133.439 74.155C128.178 76.379 122.783 78.3425 117.147 79.6185C111.538 80.8737 105.579 81.2435 99.8398 79.9467C94.0638 78.6342 88.9805 75.6654 84.0794 72.806C81.6315 71.3425 79.1523 69.8529 76.8451 68.1133C74.5742 66.3373 72.4753 64.3217 70.7409 62.0248L70.9076 61.8894Z" fill="#FFF0DD"/>
</g>
</g>
</g>
<mask id="mask50_2305_345" style="mask-type:luminance" maskUnits="userSpaceOnUse" x="59" y="24" width="43" height="42">
<path d="M59.9961 24.334H101.329V65.6673H59.9961V24.334Z" fill="white"/>
</mask>
<g mask="url(#mask50_2305_345)">
<mask id="mask51_2305_345" style="mask-type:luminance" maskUnits="userSpaceOnUse" x="0" y="2" width="209" height="233">
<path d="M208.938 183.558L65.9531 234.954L0.6875 53.4017L143.672 2.00586L208.938 183.558Z" fill="white"/>
</mask>
<g mask="url(#mask51_2305_345)">
<mask id="mask52_2305_345" style="mask-type:luminance" maskUnits="userSpaceOnUse" x="0" y="2" width="209" height="233">
<path d="M208.938 183.558L65.9531 234.954L0.6875 53.4017L143.672 2.00586L208.938 183.558Z" fill="white"/>
</mask>
<g mask="url(#mask52_2305_345)">
<path d="M100.161 25.4688C97.2656 29.2604 94.1927 32.7656 90.9583 36.1771C89.3021 37.8281 87.5469 39.4219 86.0052 41.1927C84.4375 42.9531 83.2344 44.9792 81.5365 46.7813C79.8177 48.651 77.474 49.6615 75.5521 50.8021C73.5625 51.9635 71.6823 53.2813 69.9219 54.7031C66.3385 57.4948 63.4115 61.0208 61.4583 65.349L61.25 65.2865C61.875 60.5 64.7396 56.0625 68.4635 52.9271C70.3281 51.349 72.4323 50.099 74.5885 49.0208C76.776 47.8958 78.9688 47.276 80.7448 45.901C84.3438 43.026 86.75 38.7188 89.6198 34.9844C92.625 31.3281 96.0938 28.0313 100.005 25.3125L100.161 25.4688Z" fill="#FFF0DD"/>
</g>
</g>
</g>
<mask id="mask53_2305_345" style="mask-type:luminance" maskUnits="userSpaceOnUse" x="67" y="15" width="45" height="42">
<path d="M67.9961 15H111.996V56.3333H67.9961V15Z" fill="white"/>
</mask>
<g mask="url(#mask53_2305_345)">
<mask id="mask54_2305_345" style="mask-type:luminance" maskUnits="userSpaceOnUse" x="0" y="2" width="209" height="233">
<path d="M208.938 183.558L65.9531 234.954L0.6875 53.4017L143.672 2.00586L208.938 183.558Z" fill="white"/>
</mask>
<g mask="url(#mask54_2305_345)">
<mask id="mask55_2305_345" style="mask-type:luminance" maskUnits="userSpaceOnUse" x="0" y="2" width="209" height="233">
<path d="M208.938 183.558L65.9531 234.954L0.6875 53.4017L143.672 2.00586L208.938 183.558Z" fill="white"/>
</mask>
<g mask="url(#mask55_2305_345)">
<mask id="mask56_2305_345" style="mask-type:luminance" maskUnits="userSpaceOnUse" x="60" y="13" width="61" height="47">
<path d="M120.993 40.8229L70.3008 59.0469L60.5195 31.8333L111.207 13.6094L120.993 40.8229Z" fill="white"/>
</mask>
<g mask="url(#mask56_2305_345)">
<path d="M85.3461 49.9538C82.8252 52.0736 80.0179 53.8652 76.8721 55.0579C75.2836 55.5892 73.5648 55.985 71.7315 55.6413C70.8304 55.4694 69.8565 55.0007 69.2002 54.1673C68.5492 53.334 68.3304 52.334 68.2367 51.4382C68.0804 44.4434 70.8877 37.8704 75.1065 32.61C79.3304 27.3184 85.0336 23.3496 91.1794 20.8704C97.3461 18.3444 103.81 16.9694 110.31 15.8913L111.669 15.6621L110.622 16.6204C108.075 18.959 107.502 22.5527 106.455 25.9694C105.919 27.6934 105.242 29.485 104.013 31.0163C102.794 32.6257 101.106 33.5527 99.7836 34.5736C97.07 36.6152 94.7523 39.2923 92.5231 42.0423C90.2575 44.7819 88.0544 47.6309 85.3461 49.9538ZM85.2106 49.7871C87.9138 47.485 89.8825 44.5059 91.8148 41.5267C93.7731 38.5788 95.7523 35.4902 98.6429 33.1204C100.086 31.9382 101.554 31.0684 102.518 29.8184C103.539 28.584 104.216 27.0267 104.872 25.4121C105.508 23.7975 106.06 22.0788 106.815 20.4225C107.565 18.7559 108.638 17.1569 110.101 15.9798L110.419 16.7142C103.929 17.3913 97.5179 19.1517 91.7263 22.0632C85.9658 24.9954 80.6742 28.8704 76.8461 33.9694C72.9815 38.9694 70.4919 45.1725 70.0752 51.3027C70.0961 52.7715 70.6586 53.8913 72.0804 54.3184C73.4606 54.7559 75.0961 54.6204 76.6377 54.2559C79.7471 53.485 82.7002 51.8652 85.2106 49.7871Z" fill="#FFF0DD"/>
</g>
</g>
</g>
</g>
<mask id="mask57_2305_345" style="mask-type:luminance" maskUnits="userSpaceOnUse" x="71" y="61" width="61" height="13">
<path d="M71.9961 61.666H131.996V73.666H71.9961V61.666Z" fill="white"/>
</mask>
<g mask="url(#mask57_2305_345)">
<mask id="mask58_2305_345" style="mask-type:luminance" maskUnits="userSpaceOnUse" x="0" y="2" width="209" height="233">
<path d="M208.938 183.556L65.9531 234.952L0.6875 53.3997L143.672 2.00391L208.938 183.556Z" fill="white"/>
</mask>
<g mask="url(#mask58_2305_345)">
<mask id="mask59_2305_345" style="mask-type:luminance" maskUnits="userSpaceOnUse" x="0" y="2" width="209" height="233">
<path d="M208.938 183.556L65.9531 234.952L0.6875 53.3997L143.672 2.00391L208.938 183.556Z" fill="white"/>
</mask>
<g mask="url(#mask59_2305_345)">
<path d="M72.4414 61.9883C77.3112 63.4414 81.9206 65.3424 86.5247 67.2018C88.8112 68.2018 91.0924 69.2539 93.5039 69.9154C95.9049 70.5872 98.3945 70.8945 100.889 70.9362C105.863 71.0091 110.889 70.7852 115.921 71.0768C120.78 71.3893 126.108 71.2799 130.879 73.207L130.832 73.4206C125.806 72.8477 120.962 73.4779 115.827 73.3737C110.832 73.0768 105.801 73.0091 100.775 72.1133C98.2695 71.6914 95.8008 71.1133 93.332 70.5924C90.8685 70.0768 88.3529 69.6237 85.9154 68.8893C81.0872 67.306 76.582 64.9727 72.3477 62.181L72.4414 61.9883Z" fill="#FFF0DD"/>
</g>
</g>
</g>
<mask id="mask60_2305_345" style="mask-type:luminance" maskUnits="userSpaceOnUse" x="54" y="76" width="33" height="87">
<path d="M54.6602 76.334H86.6602V163.001H54.6602V76.334Z" fill="white"/>
</mask>
<g mask="url(#mask60_2305_345)">
<mask id="mask61_2305_345" style="mask-type:luminance" maskUnits="userSpaceOnUse" x="0" y="2" width="209" height="233">
<path d="M208.938 183.558L65.9531 234.954L0.6875 53.4017L143.672 2.00586L208.938 183.558Z" fill="white"/>
</mask>
<g mask="url(#mask61_2305_345)">
<mask id="mask62_2305_345" style="mask-type:luminance" maskUnits="userSpaceOnUse" x="0" y="2" width="209" height="233">
<path d="M208.938 183.558L65.9531 234.954L0.6875 53.4017L143.672 2.00586L208.938 183.558Z" fill="white"/>
</mask>
<g mask="url(#mask62_2305_345)">
<path d="M77.2292 113.344C73.6563 116.495 71.1146 120.594 69.5729 124.985C68.0625 129.396 67.3438 134.094 67.625 138.735C67.7865 141.037 68.0833 143.308 68.9531 145.402C69.8125 147.506 71.0208 149.495 72.4063 151.386C75.2292 155.157 78.4479 158.704 82.099 161.73L81.5156 161.923C83.526 154.365 85.1823 146.537 84.5156 138.808C84.1823 134.954 83.2865 131.235 81.6979 127.719C80.1823 124.173 78.2396 120.74 76.7083 117.016C75.9323 115.178 75.2917 113.173 74.9583 111.251L73.7708 105.443C72.9219 101.714 71.6719 98.0527 69.9271 94.6204C66.4531 87.7454 61.2969 81.6829 54.9062 77.1152L55.0156 76.9277C61.8802 80.8236 67.7396 86.6934 71.5833 93.735C73.5573 97.2298 75.0365 101.016 75.9635 104.943C76.9323 108.74 77.2969 112.688 78.7969 116.188C80.1719 119.766 82.0313 123.251 83.526 126.959C85.0677 130.667 85.901 134.73 85.9948 138.73C86.1563 146.787 84.0104 154.469 82.224 162.105L82.099 162.667L81.6354 162.298C77.9167 159.271 74.3698 156.001 71.2448 152.303C69.6823 150.454 68.224 148.428 67.2604 146.1C66.2865 143.787 65.7969 141.277 65.7344 138.824C65.6042 133.933 66.3333 128.985 68.2344 124.475C70.099 119.975 73.0938 115.865 77.0938 113.167L77.2292 113.344Z" fill="#FFF0DD"/>
</g>
</g>
</g>
<mask id="mask63_2305_345" style="mask-type:luminance" maskUnits="userSpaceOnUse" x="38" y="96" width="36" height="23">
<path d="M38.6602 96.334H73.3268V119.001H38.6602V96.334Z" fill="white"/>
</mask>
<g mask="url(#mask63_2305_345)">
<mask id="mask64_2305_345" style="mask-type:luminance" maskUnits="userSpaceOnUse" x="0" y="2" width="209" height="233">
<path d="M208.938 183.558L65.9531 234.954L0.6875 53.4017L143.672 2.00586L208.938 183.558Z" fill="white"/>
</mask>
<g mask="url(#mask64_2305_345)">
<mask id="mask65_2305_345" style="mask-type:luminance" maskUnits="userSpaceOnUse" x="0" y="2" width="209" height="233">
<path d="M208.938 183.558L65.9531 234.954L0.6875 53.4017L143.672 2.00586L208.938 183.558Z" fill="white"/>
</mask>
<g mask="url(#mask65_2305_345)">
<path d="M72.2669 99.5888C72.444 101.245 71.8398 102.849 71.1211 104.313C70.3763 105.776 69.4023 107.12 68.2982 108.375C66.0951 110.922 63.0794 112.636 60.0273 113.854C56.9492 115.078 53.8034 115.87 50.6159 116.542C47.4336 117.209 44.1992 117.62 40.9596 117.766L39.1836 117.849L40.4336 116.703C42.8919 114.453 45.2878 112.141 47.5638 109.714C49.8867 107.313 51.7773 104.584 54.3398 102.235C56.9648 99.8388 60.4232 98.7086 63.6419 98.0107C65.2201 97.6669 66.8451 97.068 68.569 96.9117C69.418 96.8596 70.3503 96.844 71.1263 97.3336C71.8971 97.844 72.1836 98.7607 72.2669 99.5888ZM72.0534 99.6148C71.9492 98.818 71.6576 97.9742 70.9648 97.5888C70.2669 97.2398 69.4336 97.2815 68.6576 97.4794C67.0898 97.8753 65.6576 98.6721 64.0638 99.3284C60.9701 100.61 57.9753 101.677 55.4544 103.615C54.1419 104.532 52.9232 105.63 51.6888 106.755C50.4544 107.87 49.2201 109 48.0586 110.188C45.7253 112.558 43.5065 115.047 41.3451 117.584L40.8242 116.521C43.9701 115.969 47.0794 115.308 50.1576 114.542C53.2148 113.745 56.2721 112.808 59.1992 111.729C62.1263 110.63 64.8815 109.245 67.3451 107.37C68.5742 106.401 69.6992 105.282 70.6211 104.011C71.5169 102.729 72.1732 101.198 72.0534 99.6148Z" fill="#FFF0DD"/>
</g>
</g>
</g>
<mask id="mask66_2305_345" style="mask-type:luminance" maskUnits="userSpaceOnUse" x="73" y="101" width="29" height="22">
<path d="M73.3281 101.666H101.328V122.999H73.3281V101.666Z" fill="white"/>
</mask>
<g mask="url(#mask66_2305_345)">
<mask id="mask67_2305_345" style="mask-type:luminance" maskUnits="userSpaceOnUse" x="0" y="2" width="209" height="233">
<path d="M208.938 183.556L65.9531 234.952L0.6875 53.3997L143.672 2.00391L208.938 183.556Z" fill="white"/>
</mask>
<g mask="url(#mask67_2305_345)">
<mask id="mask68_2305_345" style="mask-type:luminance" maskUnits="userSpaceOnUse" x="0" y="2" width="209" height="233">
<path d="M208.938 183.556L65.9531 234.952L0.6875 53.3997L143.672 2.00391L208.938 183.556Z" fill="white"/>
</mask>
<g mask="url(#mask68_2305_345)">
<path d="M76.0833 110.811C77.6406 112.457 79.4635 113.733 81.3281 114.9C83.1979 116.066 85.1771 117.046 87.1979 117.853C89.2083 118.629 91.3438 119.421 93.5104 120.061C95.6719 120.733 97.8958 121.176 100.125 121.655L99.6979 122.202C98.25 119.77 96.5104 117.546 94.8281 115.306C93.125 113.082 91.3854 110.879 89.3802 109.134C87.3906 107.316 85.1302 106.259 82.3594 105.603C79.6823 104.863 76.7552 104.29 74.2656 102.759L74.3594 102.566C77.0729 103.358 79.8802 103.4 82.7188 103.863C84.1354 104.098 85.6094 104.337 87.0625 104.941C88.4792 105.551 89.7917 106.389 90.901 107.415C93.1406 109.447 94.7813 111.858 96.3385 114.249C97.8958 116.671 99.1302 119.275 100.37 121.842L100.745 122.634L99.9375 122.395C97.776 121.759 95.5469 121.332 93.2969 121.035C91.0365 120.702 88.7448 120.426 86.5156 119.645C84.2917 118.832 82.2708 117.618 80.4219 116.202C78.599 114.77 76.9271 113.025 75.9063 110.936L76.0833 110.811Z" fill="#FFF0DD"/>
</g>
</g>
</g>
<mask id="mask69_2305_345" style="mask-type:luminance" maskUnits="userSpaceOnUse" x="42" y="97" width="30" height="20">
<path d="M42.6602 97.666H71.9935V116.333H42.6602V97.666Z" fill="white"/>
</mask>
<g mask="url(#mask69_2305_345)">
<mask id="mask70_2305_345" style="mask-type:luminance" maskUnits="userSpaceOnUse" x="0" y="2" width="209" height="233">
<path d="M208.938 183.556L65.9531 234.952L0.6875 53.3997L143.672 2.00391L208.938 183.556Z" fill="white"/>
</mask>
<g mask="url(#mask70_2305_345)">
<mask id="mask71_2305_345" style="mask-type:luminance" maskUnits="userSpaceOnUse" x="0" y="2" width="209" height="233">
<path d="M208.938 183.556L65.9531 234.952L0.6875 53.3997L143.672 2.00391L208.938 183.556Z" fill="white"/>
</mask>
<g mask="url(#mask71_2305_345)">
<path d="M43.8242 115.779C44.543 114.493 45.8346 113.654 46.9492 112.946C48.1003 112.227 49.293 111.561 50.5638 111.055C51.8398 110.581 53.194 110.253 54.4492 109.712C55.6992 109.175 56.8451 108.441 57.9805 107.66C60.194 106.014 62.6836 104.857 64.6628 103.331C66.7409 101.878 68.6523 100.003 70.8867 98.3105L71.0638 98.446C69.8867 100.972 68.319 103.331 66.0534 105.17C64.9023 106.071 63.6003 106.701 62.3451 107.264C61.0846 107.837 59.8138 108.285 58.5065 108.722C57.2148 109.16 55.9388 109.654 54.7617 110.337C53.5846 111.014 52.5221 111.899 51.3763 112.649C50.2253 113.378 48.9805 113.925 47.7148 114.436C46.4284 114.956 45.1836 115.258 43.9857 115.925L43.8242 115.779Z" fill="#FFF0DD"/>
</g>
</g>
</g>
</g>
</g>
</g>
</svg>
