<svg width="192" height="43" viewBox="0 0 192 43" fill="none" xmlns="http://www.w3.org/2000/svg">
<mask id="mask0_2300_50" style="mask-type:luminance" maskUnits="userSpaceOnUse" x="0" y="0" width="192" height="43">
<path d="M0 0H192V42.7774H0V0Z" fill="white"/>
</mask>
<g mask="url(#mask0_2300_50)">
<path d="M154.38 14.9271V30.6217H152.155V23.7916L139.223 31.2364V14.3125L152.194 21.7958V14.9271H154.38ZM37.6068 14.9271V30.6217H39.8321V23.7916L52.7644 31.2364V14.3125L39.8321 21.7958V14.9271H37.6068ZM96.0129 2.76202C84.9608 2.76202 76.0193 11.7035 76.0193 22.7555C76.0193 33.8068 84.9608 42.7483 96.0129 42.7483C107.065 42.7483 116.006 33.8068 116.006 22.7555C116.006 11.742 107.065 2.76202 96.0129 2.76202ZM91.6384 31.2364V14.3125L106.297 22.7933L91.6384 31.2364ZM187.843 16.0394V18.227H177.789L176.599 20.8367L177.674 21.681L178.557 19.877H187.882V22.0261L191.988 18.9942L187.843 16.0394ZM180.667 29.5094V27.3218H190.759L191.95 24.7121L190.875 23.8678L190.031 25.6333H180.667V23.4842L176.599 26.5161L180.667 29.5094ZM191.95 -11.8973H33.8077C33.1938 -14.6218 30.5071 -16.3102 27.7826 -15.6963C25.9023 -15.2742 24.4056 -13.7775 23.9835 -11.8973H0.0761719V-9.67116H23.9835C24.5974 -6.94665 27.2834 -5.25819 30.0087 -5.87211C31.8889 -6.29423 33.3856 -7.79089 33.8077 -9.67116H191.95V-11.8973ZM12.7012 25.6718H9.90037L8.55701 22.7555L9.90037 19.8385H12.7012V22.1409L16.8075 19.1098L12.7012 16.0779V18.3803H8.97912L7.75128 21.0285L6.52344 18.4188H0.0761719V19.877H5.60219L6.94556 22.7933L5.60219 25.7103H0.0761719V27.1685H6.56121L7.78979 24.5588L9.01763 27.1685H12.7397V29.4709L16.846 26.439L12.7782 23.408V25.6718H12.7012Z" fill="#FFF0DD"/>
</g>
</svg>
