<svg width="263" height="330" viewBox="0 0 263 330" fill="none" xmlns="http://www.w3.org/2000/svg">
<mask id="mask0_2307_2289" style="mask-type:luminance" maskUnits="userSpaceOnUse" x="37" y="0" width="226" height="254">
<path d="M37.668 0.333984H262.715V253.667H37.668V0.333984Z" fill="white"/>
</mask>
<g mask="url(#mask0_2307_2289)">
<mask id="mask1_2307_2289" style="mask-type:luminance" maskUnits="userSpaceOnUse" x="-1379" y="-144" width="1792" height="1043">
<path d="M412.201 -143.898H-1378.2V898.902H412.201V-143.898Z" fill="black" fill-opacity="0.62"/>
</mask>
<g mask="url(#mask1_2307_2289)">
<mask id="mask2_2307_2289" style="mask-type:luminance" maskUnits="userSpaceOnUse" x="37" y="0" width="226" height="254">
<path d="M263.001 0.333984H37.668V253.667H263.001V0.333984Z" fill="white"/>
</mask>
<g mask="url(#mask2_2307_2289)">
<mask id="mask3_2307_2289" style="mask-type:luminance" maskUnits="userSpaceOnUse" x="39" y="1" width="224" height="251">
<path d="M39 1.66797H262.714V251.001H39V1.66797Z" fill="white"/>
</mask>
<g mask="url(#mask3_2307_2289)">
<mask id="mask4_2307_2289" style="mask-type:luminance" maskUnits="userSpaceOnUse" x="39" y="1" width="224" height="250">
<path d="M262.068 195.777L108.74 250.897L39.0781 57.1159L192.406 1.99609L262.068 195.777Z" fill="white"/>
</mask>
<g mask="url(#mask4_2307_2289)">
<mask id="mask5_2307_2289" style="mask-type:luminance" maskUnits="userSpaceOnUse" x="39" y="1" width="224" height="251">
<path d="M263 1.66797H39V251.001H263V1.66797Z" fill="white"/>
</mask>
<g mask="url(#mask5_2307_2289)">
<mask id="mask6_2307_2289" style="mask-type:luminance" maskUnits="userSpaceOnUse" x="125" y="16" width="74" height="195">
<path d="M125.668 16.334H199.001V211.001H125.668V16.334Z" fill="white"/>
</mask>
<g mask="url(#mask6_2307_2289)">
<mask id="mask7_2307_2289" style="mask-type:luminance" maskUnits="userSpaceOnUse" x="39" y="1" width="224" height="250">
<path d="M262.068 195.777L108.74 250.897L39.0781 57.1159L192.406 1.99609L262.068 195.777Z" fill="white"/>
</mask>
<g mask="url(#mask7_2307_2289)">
<mask id="mask8_2307_2289" style="mask-type:luminance" maskUnits="userSpaceOnUse" x="39" y="1" width="224" height="250">
<path d="M109.177 250.741L262.51 195.621L192.849 1.83984L39.5156 56.9596L109.177 250.741Z" fill="white"/>
</mask>
<g mask="url(#mask8_2307_2289)">
<mask id="mask9_2307_2289" style="mask-type:luminance" maskUnits="userSpaceOnUse" x="79" y="15" width="175" height="198">
<path d="M134.333 212.027L253.271 169.267L198.078 15.7305L79.1406 58.4857L134.333 212.027Z" fill="white"/>
</mask>
<g mask="url(#mask9_2307_2289)">
<mask id="mask10_2307_2289" style="mask-type:luminance" maskUnits="userSpaceOnUse" x="79" y="15" width="174" height="198">
<path d="M134.333 212.027L252.536 169.533L197.344 15.9961L79.1406 58.4857L134.333 212.027Z" fill="white"/>
</mask>
<g mask="url(#mask10_2307_2289)">
<path d="M197.72 17.3652C185.095 29.8704 172.767 42.86 162.527 57.5267C152.366 72.3027 145.074 88.6517 137.908 104.923C134.449 113.105 130.59 121.183 128.507 130.021C126.428 138.87 126.361 147.969 126.777 156.86C127.501 174.683 129.767 192.443 133.6 209.829L133.824 209.787C131.392 192.162 129.798 174.49 129.142 156.761C128.871 147.928 128.772 139.058 130.611 130.495C132.491 121.964 136.022 113.74 139.085 105.396C142.262 97.11 145.663 88.8861 149.798 81.0267C153.876 73.1309 158.788 65.7298 164.079 58.6257C174.491 44.3079 186.376 31.0944 197.892 17.5215L197.72 17.3652Z" fill="#FFF0DD"/>
</g>
</g>
</g>
</g>
</g>
<mask id="mask11_2307_2289" style="mask-type:luminance" maskUnits="userSpaceOnUse" x="120" y="192" width="29" height="47">
<path d="M120.332 192.334H148.332V239.001H120.332V192.334Z" fill="white"/>
</mask>
<g mask="url(#mask11_2307_2289)">
<mask id="mask12_2307_2289" style="mask-type:luminance" maskUnits="userSpaceOnUse" x="39" y="1" width="224" height="250">
<path d="M262.068 195.777L108.74 250.897L39.0781 57.1159L192.406 1.99609L262.068 195.777Z" fill="white"/>
</mask>
<g mask="url(#mask12_2307_2289)">
<mask id="mask13_2307_2289" style="mask-type:luminance" maskUnits="userSpaceOnUse" x="39" y="1" width="224" height="250">
<path d="M109.177 250.741L262.51 195.621L192.849 1.83984L39.5156 56.9596L109.177 250.741Z" fill="white"/>
</mask>
<g mask="url(#mask13_2307_2289)">
<path d="M137.719 194.188C135.776 193.011 133.427 192.042 131.005 192.662C128.584 193.402 127.073 195.625 125.922 197.631C124.781 199.709 123.912 201.875 123.094 204.027C122.235 206.235 121.641 208.563 121.365 210.974C121.13 213.375 121.266 215.902 122.084 218.282C122.886 220.672 124.328 222.698 125.813 224.511C128.807 228.099 132.125 231.36 135.714 234.308C136.599 235.047 137.505 235.782 138.412 236.485L139.802 237.532C140.271 237.86 140.625 238.313 141.396 238.542C142.203 238.745 142.932 238.172 143.25 237.657C143.61 237.125 143.813 236.516 143.959 235.959C144.266 234.849 144.615 233.75 144.886 232.62C146.078 228.157 147.073 223.605 147.459 218.954C147.776 214.339 147.693 209.547 146.172 205.021C145.438 202.777 144.344 200.631 142.922 198.766C141.474 196.933 139.714 195.365 137.719 194.188ZM137.599 194.386C139.547 195.563 141.255 197.178 142.422 199.11C143.573 201.063 144.36 203.193 144.776 205.391C145.61 209.782 145.578 214.323 145.557 218.865C145.495 223.391 145.182 227.985 144.162 232.443C143.906 233.558 143.625 234.667 143.281 235.756C143.021 236.777 142.354 237.974 141.589 237.756C141.235 237.667 140.776 237.219 140.334 236.865L139.057 235.73C138.209 234.954 137.375 234.178 136.563 233.375C133.323 230.152 130.297 226.724 127.511 223.167C126.141 221.391 124.959 219.542 124.354 217.537C123.75 215.521 123.599 213.365 123.807 211.209C123.969 209.042 124.516 206.881 125.182 204.756C125.901 202.568 126.495 200.36 127.297 198.282C128.104 196.245 129.209 194.162 131.219 193.277C133.266 192.443 135.677 193.245 137.599 194.386Z" fill="#FFF0DD"/>
</g>
</g>
</g>
<mask id="mask14_2307_2289" style="mask-type:luminance" maskUnits="userSpaceOnUse" x="100" y="173" width="30" height="40">
<path d="M100.332 173.668H129.665V212.335H100.332V173.668Z" fill="white"/>
</mask>
<g mask="url(#mask14_2307_2289)">
<mask id="mask15_2307_2289" style="mask-type:luminance" maskUnits="userSpaceOnUse" x="39" y="1" width="224" height="250">
<path d="M262.068 195.777L108.74 250.897L39.0781 57.1159L192.406 1.99609L262.068 195.777Z" fill="white"/>
</mask>
<g mask="url(#mask15_2307_2289)">
<mask id="mask16_2307_2289" style="mask-type:luminance" maskUnits="userSpaceOnUse" x="39" y="1" width="224" height="250">
<path d="M109.177 250.741L262.51 195.621L192.849 1.83984L39.5156 56.9596L109.177 250.741Z" fill="white"/>
</mask>
<g mask="url(#mask16_2307_2289)">
<path d="M121.917 179.804C120.896 182.851 120.104 185.955 119.297 189.044C118.922 190.57 118.479 192.044 117.802 193.33C117.156 194.601 116.125 195.601 114.958 196.611C113.786 197.617 112.49 198.627 111.365 199.908C110.25 201.184 109.391 202.59 108.583 203.971C107.021 206.705 105.229 209.554 102.313 210.658L102.839 211.236L105.87 206.038C106.88 204.283 107.766 202.346 108.156 200.242C108.583 198.189 108.62 196.163 108.974 194.309C109.307 192.434 109.964 190.861 111.156 189.528C112.349 188.205 113.922 187.007 115.484 185.731L120.078 181.877C121.615 180.606 123.109 179.262 124.604 177.939C125.37 177.273 126.047 176.611 126.865 176.242C127.266 176.054 127.766 175.981 128.271 175.84C128.755 175.715 129.354 175.429 129.557 174.893L129.354 174.783C128.771 175.533 127.693 175.215 126.625 175.486C125.526 175.747 124.656 176.413 123.844 176.965C122.188 178.09 120.521 179.205 118.917 180.387L114.052 183.898C112.484 185.111 110.766 186.236 109.307 187.913C107.771 189.564 106.99 191.893 106.734 193.95C106.458 196.044 106.448 198.038 106.219 199.924C105.75 203.632 103.797 207.247 102.104 210.846L101.625 211.872L102.63 211.424C105.792 210.028 107.526 207.038 109.458 204.559C110.427 203.294 111.417 202.064 112.536 201.059C113.667 200.07 114.984 199.226 116.271 198.184C117.536 197.153 118.818 195.835 119.573 194.221C120.354 192.643 120.667 190.971 120.948 189.387C121.417 186.21 121.885 183.059 122.146 179.846L121.917 179.804Z" fill="#FFF0DD"/>
</g>
</g>
</g>
<mask id="mask17_2307_2289" style="mask-type:luminance" maskUnits="userSpaceOnUse" x="133" y="113" width="69" height="69">
<path d="M133.668 113.668H201.668V181.668H133.668V113.668Z" fill="white"/>
</mask>
<g mask="url(#mask17_2307_2289)">
<mask id="mask18_2307_2289" style="mask-type:luminance" maskUnits="userSpaceOnUse" x="39" y="1" width="224" height="250">
<path d="M262.068 195.777L108.74 250.897L39.0781 57.1159L192.406 1.99609L262.068 195.777Z" fill="white"/>
</mask>
<g mask="url(#mask18_2307_2289)">
<mask id="mask19_2307_2289" style="mask-type:luminance" maskUnits="userSpaceOnUse" x="39" y="1" width="224" height="250">
<path d="M109.177 250.741L262.51 195.621L192.849 1.83984L39.5156 56.9596L109.177 250.741Z" fill="white"/>
</mask>
<g mask="url(#mask19_2307_2289)">
<path d="M155.75 157.158C160.438 156.043 165.151 154.939 169.87 154.913C172.224 154.897 174.547 155.204 176.771 155.798C178.995 156.434 181.104 157.428 183.031 158.72C186.886 161.324 190.146 164.767 192.844 168.663C195.589 172.533 197.87 176.777 200.057 181.064L200.469 180.428C191.74 180.324 183.047 178.647 174.807 175.866C172.75 175.189 170.729 174.387 168.698 173.6C166.682 172.788 164.682 171.975 162.927 170.876C161.146 169.803 159.724 168.423 158.922 166.621C158.068 164.829 157.813 162.71 157.203 160.48C156.896 159.366 156.474 158.22 155.833 157.152C155.177 156.095 154.474 155.251 153.714 154.387C152.198 152.689 150.583 151.163 149.016 149.678C147.453 148.168 145.964 146.652 144.761 144.965C143.542 143.251 142.375 141.408 141.344 139.527C137.25 131.975 134.776 123.47 134.531 114.715H134.302C133.61 123.486 135.547 132.501 139.537 140.475C140.531 142.48 141.625 144.397 142.87 146.293C144.182 148.199 145.755 149.835 147.318 151.402C148.875 152.97 150.479 154.434 151.875 156.012C152.573 156.783 153.25 157.637 153.766 158.434C154.276 159.23 154.641 160.147 154.943 161.137C155.542 163.105 155.86 165.397 156.927 167.569C157.964 169.783 159.88 171.538 161.88 172.637C163.901 173.783 166 174.533 168.073 175.277C170.162 176.012 172.276 176.647 174.401 177.225C182.922 179.543 191.656 180.783 200.438 181.319L201.156 181.355L200.849 180.684C198.844 176.303 196.917 171.845 194.313 167.684C191.703 163.559 188.37 159.689 184.104 157.053C179.906 154.35 174.745 153.007 169.823 153.449C164.875 153.751 160.193 155.246 155.688 156.928L155.75 157.158Z" fill="#FFF0DD"/>
</g>
</g>
</g>
<mask id="mask20_2307_2289" style="mask-type:luminance" maskUnits="userSpaceOnUse" x="140" y="148" width="15" height="37">
<path d="M140.332 148.334H154.999V184.334H140.332V148.334Z" fill="white"/>
</mask>
<g mask="url(#mask20_2307_2289)">
<mask id="mask21_2307_2289" style="mask-type:luminance" maskUnits="userSpaceOnUse" x="39" y="1" width="224" height="250">
<path d="M262.068 195.777L108.74 250.897L39.0781 57.1159L192.406 1.99609L262.068 195.777Z" fill="white"/>
</mask>
<g mask="url(#mask21_2307_2289)">
<mask id="mask22_2307_2289" style="mask-type:luminance" maskUnits="userSpaceOnUse" x="39" y="1" width="224" height="250">
<path d="M109.177 250.741L262.51 195.621L192.849 1.83984L39.5156 56.9596L109.177 250.741Z" fill="white"/>
</mask>
<g mask="url(#mask22_2307_2289)">
<path d="M151.443 154.678C152.563 156.969 152.834 159.443 152.662 161.824C152.495 164.23 151.745 166.553 150.886 168.865C150.063 171.193 149.125 173.563 148.058 175.86C146.979 178.157 145.745 180.376 144.407 182.521L145.261 182.693C145 179.735 144.823 176.777 144.49 173.834C144.12 170.896 143.823 167.949 143.365 165.021C142.943 162.12 142.443 159.298 142.667 156.495C142.907 153.74 143.782 150.928 145.865 148.813L145.735 148.631C143.047 150.152 141.401 153.193 140.813 156.235C140.219 159.334 140.495 162.459 140.938 165.391C141.36 168.318 141.959 171.225 142.474 174.141C143.021 177.042 143.724 179.938 144.349 182.834L144.636 184.199L145.209 183.001C146.308 180.688 147.5 178.449 148.865 176.287C150.266 174.141 151.703 172.011 152.766 169.61C153.797 167.219 154.443 164.558 154.381 161.865C154.318 159.199 153.438 156.459 151.636 154.553L151.443 154.678Z" fill="#FFF0DD"/>
</g>
</g>
</g>
<mask id="mask23_2307_2289" style="mask-type:luminance" maskUnits="userSpaceOnUse" x="139" y="132" width="38" height="17">
<path d="M139 132.334H176.333V148.334H139V132.334Z" fill="white"/>
</mask>
<g mask="url(#mask23_2307_2289)">
<mask id="mask24_2307_2289" style="mask-type:luminance" maskUnits="userSpaceOnUse" x="39" y="1" width="224" height="250">
<path d="M262.068 195.777L108.74 250.897L39.0781 57.1159L192.406 1.99609L262.068 195.777Z" fill="white"/>
</mask>
<g mask="url(#mask24_2307_2289)">
<mask id="mask25_2307_2289" style="mask-type:luminance" maskUnits="userSpaceOnUse" x="39" y="1" width="224" height="250">
<path d="M109.177 250.741L262.51 195.621L192.849 1.83984L39.5156 56.9596L109.177 250.741Z" fill="white"/>
</mask>
<g mask="url(#mask25_2307_2289)">
<path d="M139.375 139.834C141.568 137.787 144.484 137.251 147.344 136.615C150.219 135.99 153.115 135.61 156.031 135.251C158.937 134.86 161.911 134.574 164.875 134.766C167.839 134.98 170.75 135.683 173.542 136.673L173.406 135.527C170.625 136.844 168.12 138.6 165.677 140.287C163.234 141.969 160.766 143.506 158.146 144.506C155.547 145.506 152.703 145.891 149.87 145.574C147.026 145.277 144.214 144.334 141.667 142.761L141.521 142.938C143.635 145.141 146.495 146.652 149.568 147.339C152.63 148.006 155.964 147.902 158.984 146.808C162.01 145.719 164.557 143.87 166.948 142.037C169.354 140.209 171.573 138.256 174.016 136.615L175.292 135.766L173.88 135.469C170.906 134.839 167.932 134.412 164.948 134.027C161.964 133.652 158.943 133.266 155.885 133.334C152.839 133.449 149.813 134.001 146.896 134.891C144.089 135.756 140.833 136.964 139.188 139.693L139.375 139.834Z" fill="#FFF0DD"/>
</g>
</g>
</g>
<mask id="mask26_2307_2289" style="mask-type:luminance" maskUnits="userSpaceOnUse" x="155" y="156" width="30" height="14">
<path d="M155 156.334H184.333V169.667H155V156.334Z" fill="white"/>
</mask>
<g mask="url(#mask26_2307_2289)">
<mask id="mask27_2307_2289" style="mask-type:luminance" maskUnits="userSpaceOnUse" x="39" y="1" width="224" height="250">
<path d="M262.068 195.777L108.74 250.897L39.0781 57.1159L192.406 1.99609L262.068 195.777Z" fill="white"/>
</mask>
<g mask="url(#mask27_2307_2289)">
<mask id="mask28_2307_2289" style="mask-type:luminance" maskUnits="userSpaceOnUse" x="39" y="1" width="224" height="250">
<path d="M109.177 250.741L262.51 195.621L192.849 1.83984L39.5156 56.9596L109.177 250.741Z" fill="white"/>
</mask>
<g mask="url(#mask28_2307_2289)">
<path d="M183.507 169.215C181.757 167.142 179.262 165.887 176.741 165.283C175.444 165.027 174.105 165.048 172.85 164.783C171.579 164.543 170.382 164.1 169.199 163.569C166.855 162.475 164.522 161.605 162.314 160.548C160.043 159.6 157.908 158.538 155.668 157.137L155.496 157.293C156.668 159.736 158.908 161.553 161.267 162.767C163.689 163.897 166.267 164.569 168.871 164.783C170.163 164.928 171.444 165.1 172.663 165.512C173.882 165.902 175.007 166.595 176.163 167.105C178.512 168.043 180.819 168.704 183.382 169.413L183.507 169.215Z" fill="#FFF0DD"/>
</g>
</g>
</g>
<mask id="mask29_2307_2289" style="mask-type:luminance" maskUnits="userSpaceOnUse" x="144" y="152" width="7" height="17">
<path d="M144.332 152.334H150.999V168.334H144.332V152.334Z" fill="white"/>
</mask>
<g mask="url(#mask29_2307_2289)">
<mask id="mask30_2307_2289" style="mask-type:luminance" maskUnits="userSpaceOnUse" x="39" y="1" width="224" height="250">
<path d="M262.068 195.777L108.74 250.897L39.0781 57.1159L192.406 1.99609L262.068 195.777Z" fill="white"/>
</mask>
<g mask="url(#mask30_2307_2289)">
<mask id="mask31_2307_2289" style="mask-type:luminance" maskUnits="userSpaceOnUse" x="39" y="1" width="224" height="250">
<path d="M109.177 250.741L262.51 195.621L192.849 1.83984L39.5156 56.9596L109.177 250.741Z" fill="white"/>
</mask>
<g mask="url(#mask31_2307_2289)">
<path d="M146.433 167.533C147.105 166.195 147.355 165.059 147.324 163.84C147.256 163.226 147.006 162.544 147.084 161.913C147.142 161.283 147.475 160.726 147.866 160.195C148.704 159.158 149.319 158.002 149.668 156.632C149.907 155.288 149.735 153.564 148.6 152.518L148.386 152.585C148.043 153.997 147.652 154.929 147.282 156.049C147.022 157.174 146.668 158.398 146.678 159.778C146.647 160.465 146.6 161.122 146.36 161.742C146.136 162.356 145.647 162.945 145.428 163.596C145.079 164.913 145.293 166.351 146.204 167.564L146.433 167.533Z" fill="#FFF0DD"/>
</g>
</g>
</g>
<mask id="mask32_2307_2289" style="mask-type:luminance" maskUnits="userSpaceOnUse" x="139" y="137" width="24" height="7">
<path d="M139 137.668H163V143.001H139V137.668Z" fill="white"/>
</mask>
<g mask="url(#mask32_2307_2289)">
<mask id="mask33_2307_2289" style="mask-type:luminance" maskUnits="userSpaceOnUse" x="39" y="1" width="224" height="250">
<path d="M262.068 195.777L108.74 250.897L39.0781 57.1159L192.406 1.99609L262.068 195.777Z" fill="white"/>
</mask>
<g mask="url(#mask33_2307_2289)">
<mask id="mask34_2307_2289" style="mask-type:luminance" maskUnits="userSpaceOnUse" x="39" y="1" width="224" height="250">
<path d="M109.177 250.741L262.51 195.621L192.849 1.83984L39.5156 56.9596L109.177 250.741Z" fill="white"/>
</mask>
<g mask="url(#mask34_2307_2289)">
<path d="M161.79 138.491C159.827 138.147 158.04 138.314 156.301 138.834C155.436 139.147 154.613 139.668 153.728 139.892C152.842 140.131 151.926 140.126 150.999 140.064C149.145 139.871 147.337 139.965 145.546 140.131C143.759 140.397 142.181 140.772 140.264 141.043L140.207 141.261C141.837 142.47 143.962 142.652 145.78 142.569C147.624 142.381 149.431 142.027 151.181 141.314C152.061 140.98 152.941 140.699 153.853 140.631C154.764 140.538 155.733 140.746 156.655 140.709C158.499 140.532 160.259 139.907 161.842 138.709L161.79 138.491Z" fill="#FFF0DD"/>
</g>
</g>
</g>
<mask id="mask35_2307_2289" style="mask-type:luminance" maskUnits="userSpaceOnUse" x="87" y="113" width="48" height="81">
<path d="M87 113.668H135V193.668H87V113.668Z" fill="white"/>
</mask>
<g mask="url(#mask35_2307_2289)">
<mask id="mask36_2307_2289" style="mask-type:luminance" maskUnits="userSpaceOnUse" x="39" y="1" width="224" height="250">
<path d="M262.068 195.777L108.74 250.897L39.0781 57.1159L192.406 1.99609L262.068 195.777Z" fill="white"/>
</mask>
<g mask="url(#mask36_2307_2289)">
<mask id="mask37_2307_2289" style="mask-type:luminance" maskUnits="userSpaceOnUse" x="39" y="1" width="224" height="250">
<path d="M109.177 250.741L262.51 195.621L192.849 1.83984L39.5156 56.9596L109.177 250.741Z" fill="white"/>
</mask>
<g mask="url(#mask37_2307_2289)">
<path d="M106.038 140.287C106.257 144.928 106.252 149.558 105.903 154.136C105.481 158.678 104.731 163.261 102.272 166.943C101.049 168.782 99.5381 170.506 98.085 172.381C96.6423 174.256 95.3558 176.245 94.236 178.313C91.9287 182.417 90.1943 186.751 88.2308 190.959L89.012 191.084C88.0433 183.24 87.5277 175.193 89.1787 167.532C90.012 163.719 91.2777 160.016 93.262 156.735C95.1735 153.423 97.9756 150.709 100.694 147.756C103.392 144.792 105.924 141.902 109.007 139.579C110.533 138.386 112.163 137.261 113.778 136.084C115.387 134.876 116.96 133.631 118.491 132.339C124.642 127.188 130.054 121.178 134.528 114.6L134.345 114.459C129.168 120.485 123.429 125.938 117.231 130.766C114.121 133.193 110.825 135.245 107.549 137.662C104.21 140.063 101.502 143.214 98.9235 146.162C96.3506 149.11 93.4443 152.042 91.4443 155.688C89.4652 159.313 88.2464 163.261 87.6787 167.261C86.5016 175.298 87.5798 183.277 88.1943 191.173L88.3141 192.699L88.9808 191.308C90.96 187.115 93.1891 183.042 95.6631 179.167C96.9183 177.245 98.2412 175.381 99.637 173.594C101.043 171.824 102.694 170.126 103.97 168.027C106.543 163.798 107.351 158.881 107.397 154.209C107.486 149.521 107.121 144.844 106.257 140.261L106.038 140.287Z" fill="#FFF0DD"/>
</g>
</g>
</g>
<mask id="mask38_2307_2289" style="mask-type:luminance" maskUnits="userSpaceOnUse" x="75" y="124" width="42" height="17">
<path d="M75 124.334H116.333V140.334H75V124.334Z" fill="white"/>
</mask>
<g mask="url(#mask38_2307_2289)">
<mask id="mask39_2307_2289" style="mask-type:luminance" maskUnits="userSpaceOnUse" x="39" y="1" width="224" height="250">
<path d="M262.068 195.777L108.74 250.897L39.0781 57.1159L192.406 1.99609L262.068 195.777Z" fill="white"/>
</mask>
<g mask="url(#mask39_2307_2289)">
<mask id="mask40_2307_2289" style="mask-type:luminance" maskUnits="userSpaceOnUse" x="39" y="1" width="224" height="250">
<path d="M109.177 250.741L262.51 195.621L192.849 1.83984L39.5156 56.9596L109.177 250.741Z" fill="white"/>
</mask>
<g mask="url(#mask40_2307_2289)">
<path d="M109.603 137.298C107.087 138.657 104.264 138.069 101.811 137.032C99.332 135.97 96.7122 134.527 93.9154 133.751C91.1237 132.933 88.2174 132.605 85.3477 132.47C82.4727 132.35 79.6237 132.334 76.7539 132.475L77.0456 133.225C79.9362 131.267 82.9466 129.48 86.0612 128.246C87.6289 127.662 89.2227 127.194 90.8424 127.053C92.4674 126.897 94.1133 127.027 95.7695 127.235C99.0977 127.709 102.374 128.6 105.65 129.751C108.915 130.897 112.176 132.11 115.368 133.543L115.493 133.35C112.681 131.204 109.572 129.475 106.348 128.001C103.155 126.527 99.707 125.267 96.1029 124.808C92.4987 124.261 88.5508 124.813 85.2747 126.428C81.957 128.001 79.2695 130.371 76.5456 132.553L75.3945 133.47L76.832 133.298C79.6185 132.964 82.4674 132.98 85.2383 133.49C88.0143 133.964 90.681 134.829 93.3008 135.699C94.6237 136.136 95.9206 136.595 97.2122 137.105C98.4883 137.636 99.832 138.188 101.238 138.642C103.978 139.553 107.551 139.595 109.743 137.475L109.603 137.298Z" fill="#FFF0DD"/>
</g>
</g>
</g>
<mask id="mask41_2307_2289" style="mask-type:luminance" maskUnits="userSpaceOnUse" x="88" y="141" width="17" height="48">
<path d="M88.332 141.668H104.332V188.335H88.332V141.668Z" fill="white"/>
</mask>
<g mask="url(#mask41_2307_2289)">
<mask id="mask42_2307_2289" style="mask-type:luminance" maskUnits="userSpaceOnUse" x="39" y="1" width="224" height="250">
<path d="M262.068 195.777L108.74 250.897L39.0781 57.1159L192.406 1.99609L262.068 195.777Z" fill="white"/>
</mask>
<g mask="url(#mask42_2307_2289)">
<mask id="mask43_2307_2289" style="mask-type:luminance" maskUnits="userSpaceOnUse" x="39" y="1" width="224" height="250">
<path d="M109.177 250.741L262.51 195.621L192.849 1.83984L39.5156 56.9596L109.177 250.741Z" fill="white"/>
</mask>
<g mask="url(#mask43_2307_2289)">
<path d="M103.371 142.896C102.507 144.829 102.408 146.938 102.283 148.923C102.21 150.975 102.064 152.693 101.496 154.501C100.991 156.324 100.246 158.199 99.2359 159.923C98.215 161.641 96.9702 163.235 95.8452 164.949C94.6786 166.641 93.689 168.459 92.939 170.37C92.1577 172.261 91.4807 174.204 91.0015 176.178C90.0744 180.157 89.6421 184.183 89.6525 188.251L89.8869 188.292C91.2984 184.464 92.2879 180.589 93.3661 176.798C94.3452 172.964 95.4963 169.23 96.9442 165.542C97.6942 163.709 98.6942 161.964 99.8557 160.329C101.022 158.688 102.376 157.12 103.288 155.167C104.215 153.214 104.257 150.85 104.059 148.902C103.939 146.891 103.559 144.943 103.595 142.949L103.371 142.896Z" fill="#FFF0DD"/>
</g>
</g>
</g>
<mask id="mask44_2307_2289" style="mask-type:luminance" maskUnits="userSpaceOnUse" x="111" y="131" width="14" height="40">
<path d="M111 131H124.333V171H111V131Z" fill="white"/>
</mask>
<g mask="url(#mask44_2307_2289)">
<mask id="mask45_2307_2289" style="mask-type:luminance" maskUnits="userSpaceOnUse" x="39" y="1" width="224" height="250">
<path d="M262.068 195.775L108.74 250.895L39.0781 57.1139L192.406 1.99414L262.068 195.775Z" fill="white"/>
</mask>
<g mask="url(#mask45_2307_2289)">
<mask id="mask46_2307_2289" style="mask-type:luminance" maskUnits="userSpaceOnUse" x="39" y="1" width="224" height="250">
<path d="M109.177 250.739L262.51 195.619L192.849 1.83789L39.5156 56.9577L109.177 250.739Z" fill="white"/>
</mask>
<g mask="url(#mask46_2307_2289)">
<path d="M117.754 131.624C119.166 134.436 121.124 136.957 121.166 139.822C121.405 142.707 120.65 145.702 120.39 148.796C120.046 151.874 119.759 154.973 119.03 157.988C118.332 161.009 117.306 163.947 116.233 166.848L117.765 166.926C117.436 164.223 117.02 161.525 116.572 158.848C116.14 156.16 115.686 153.478 115.108 150.822C114.577 148.16 113.879 145.525 113.259 142.874C112.926 141.592 112.634 140.306 112.567 139.004C112.473 137.712 112.561 136.384 113.218 135.212L113.03 135.072C112.015 136.082 111.608 137.587 111.452 138.978C111.311 140.4 111.39 141.811 111.551 143.207C111.952 145.895 112.27 148.603 112.749 151.27C113.192 153.957 113.765 156.613 114.358 159.27C114.921 161.931 115.525 164.587 116.212 167.217L117.056 170.473L117.749 167.296C118.416 164.243 118.983 161.176 119.702 158.15C120.4 155.113 121.364 152.145 122.124 149.108C122.853 146.103 123.478 142.931 122.989 139.598C122.78 137.967 122.025 136.29 121.051 135.04C120.103 133.749 119.015 132.634 117.947 131.488L117.754 131.624Z" fill="#FFF0DD"/>
</g>
</g>
</g>
<mask id="mask47_2307_2289" style="mask-type:luminance" maskUnits="userSpaceOnUse" x="113" y="133" width="6" height="33">
<path d="M113.668 133.668H119.001V165.668H113.668V133.668Z" fill="white"/>
</mask>
<g mask="url(#mask47_2307_2289)">
<mask id="mask48_2307_2289" style="mask-type:luminance" maskUnits="userSpaceOnUse" x="39" y="1" width="224" height="250">
<path d="M262.068 195.777L108.74 250.897L39.0781 57.1159L192.406 1.99609L262.068 195.777Z" fill="white"/>
</mask>
<g mask="url(#mask48_2307_2289)">
<mask id="mask49_2307_2289" style="mask-type:luminance" maskUnits="userSpaceOnUse" x="39" y="1" width="224" height="250">
<path d="M109.177 250.741L262.51 195.621L192.849 1.83984L39.5156 56.9596L109.177 250.741Z" fill="white"/>
</mask>
<g mask="url(#mask49_2307_2289)">
<path d="M114.859 133.87C115.521 136.506 115.849 138.923 116.219 141.433C116.432 142.641 116.729 144.027 116.792 145.339C116.859 146.667 116.693 147.99 116.474 149.313C115.974 151.959 115.797 154.605 115.75 157.256C115.807 159.907 116.036 162.563 116.729 165.23L116.958 165.235C117.745 162.594 118.052 159.949 118.198 157.292C118.229 154.646 118.151 151.985 117.729 149.334C117.547 148.006 117.432 146.673 117.536 145.35C117.609 144.016 118.068 142.74 118.125 141.308C118.115 138.548 117.156 135.657 115.052 133.74L114.859 133.87Z" fill="#FFF0DD"/>
</g>
</g>
</g>
<mask id="mask50_2307_2289" style="mask-type:luminance" maskUnits="userSpaceOnUse" x="95" y="47" width="78" height="64">
<path d="M95 47H172.333V111H95V47Z" fill="white"/>
</mask>
<g mask="url(#mask50_2307_2289)">
<mask id="mask51_2307_2289" style="mask-type:luminance" maskUnits="userSpaceOnUse" x="39" y="1" width="224" height="250">
<path d="M262.068 195.775L108.74 250.895L39.0781 57.1139L192.406 1.99414L262.068 195.775Z" fill="white"/>
</mask>
<g mask="url(#mask51_2307_2289)">
<mask id="mask52_2307_2289" style="mask-type:luminance" maskUnits="userSpaceOnUse" x="39" y="1" width="224" height="250">
<path d="M109.177 250.739L262.51 195.619L192.849 1.83789L39.5156 56.9577L109.177 250.739Z" fill="white"/>
</mask>
<g mask="url(#mask52_2307_2289)">
<path d="M140.079 56.9323C139.658 63.0365 137.548 68.6979 135.152 74.276C132.84 79.8854 130.595 85.5365 126.939 90.1927C123.329 94.8802 118.632 98.7083 113.46 101.786C108.283 104.87 102.585 107.099 96.7721 108.781L97.2201 109.234C99.6211 101.047 103.314 93.2552 107.991 86.2135C110.345 82.6979 112.954 79.3698 115.871 76.3385C118.762 73.2865 122.027 70.5937 125.376 67.9896C128.72 65.3958 132.189 62.8125 135.632 60.3958C139.116 58.0156 142.699 56.0417 146.84 55.3906C148.908 55.0052 151.027 54.7813 153.173 54.401C155.314 54.0052 157.418 53.5052 159.496 52.8854C163.658 51.6719 167.605 49.8698 171.335 47.7396L171.22 47.5312C167.35 49.3437 163.288 50.6719 159.163 51.6458C155.022 52.6771 150.866 52.901 146.527 53.4792C142.132 54.0104 137.861 55.9844 134.329 58.4688C130.751 60.9427 127.329 63.4427 123.887 66.0729C117.064 71.3542 110.887 77.776 106.46 85.2396C101.934 92.6563 98.9336 100.813 96.5169 109.031L96.3242 109.682L96.9805 109.49C102.819 107.74 108.585 105.698 114.085 102.917C119.553 100.141 124.704 96.401 128.548 91.4323C132.408 86.4323 134.569 80.5365 136.663 74.8594C137.678 71.9896 138.704 69.0833 139.423 66.0885C140.085 63.0833 140.439 60 140.309 56.9375L140.079 56.9323Z" fill="#FFF0DD"/>
</g>
</g>
</g>
<mask id="mask53_2307_2289" style="mask-type:luminance" maskUnits="userSpaceOnUse" x="91" y="45" width="60" height="9">
<path d="M91 45.668H151V53.668H91V45.668Z" fill="white"/>
</mask>
<g mask="url(#mask53_2307_2289)">
<mask id="mask54_2307_2289" style="mask-type:luminance" maskUnits="userSpaceOnUse" x="39" y="1" width="224" height="250">
<path d="M262.068 195.777L108.74 250.897L39.0781 57.1159L192.406 1.99609L262.068 195.777Z" fill="white"/>
</mask>
<g mask="url(#mask54_2307_2289)">
<mask id="mask55_2307_2289" style="mask-type:luminance" maskUnits="userSpaceOnUse" x="39" y="1" width="224" height="250">
<path d="M109.177 250.741L262.51 195.621L192.849 1.83984L39.5156 56.9596L109.177 250.741Z" fill="white"/>
</mask>
<g mask="url(#mask55_2307_2289)">
<path d="M91.2852 46.8512C96.2383 48.0022 101.15 48.7991 106.124 49.4085C108.608 49.6376 111.134 49.7626 113.608 50.1689C116.092 50.5543 118.457 51.4033 121.072 51.7314C123.754 52.1012 126.374 51.3408 128.728 50.971C131.155 50.5751 133.592 50.3876 136.004 50.3616C140.848 50.221 145.65 51.1376 150.191 53.3668L150.327 53.1793C146.561 49.6637 141.191 47.9606 136.004 47.9085C133.395 47.872 130.811 48.2783 128.311 48.8512C125.743 49.4137 123.52 50.3928 121.124 50.471C116.212 50.5491 111.311 48.6376 106.415 47.5178C101.457 46.5491 96.3737 46.1949 91.306 46.6168L91.2852 46.8512Z" fill="#FFF0DD"/>
</g>
</g>
</g>
<mask id="mask56_2307_2289" style="mask-type:luminance" maskUnits="userSpaceOnUse" x="75" y="33" width="62" height="25">
<path d="M75 33.668H136.333V57.668H75V33.668Z" fill="white"/>
</mask>
<g mask="url(#mask56_2307_2289)">
<mask id="mask57_2307_2289" style="mask-type:luminance" maskUnits="userSpaceOnUse" x="39" y="1" width="224" height="250">
<path d="M262.068 195.777L108.74 250.897L39.0781 57.1159L192.406 1.99609L262.068 195.777Z" fill="white"/>
</mask>
<g mask="url(#mask57_2307_2289)">
<mask id="mask58_2307_2289" style="mask-type:luminance" maskUnits="userSpaceOnUse" x="39" y="1" width="224" height="250">
<path d="M109.177 250.741L262.51 195.621L192.849 1.83984L39.5156 56.9596L109.177 250.741Z" fill="white"/>
</mask>
<g mask="url(#mask58_2307_2289)">
<mask id="mask59_2307_2289" style="mask-type:luminance" maskUnits="userSpaceOnUse" x="74" y="25" width="65" height="49">
<path d="M84.5768 73.6257L138.639 54.1882L128.207 25.1621L74.1445 44.5996L84.5768 73.6257Z" fill="white"/>
</mask>
<g mask="url(#mask59_2307_2289)">
<path d="M120.092 56.9279C123.603 56.9644 127.129 56.5269 130.53 55.3706C132.197 54.73 133.879 53.8862 135.15 52.3602C135.775 51.605 136.259 50.5633 136.233 49.4279C136.202 48.3029 135.702 47.3289 135.171 46.5269C130.551 40.6727 123.78 37.1727 116.738 35.7092C109.665 34.2248 102.285 34.8342 95.5456 36.9696C88.7591 39.0789 82.5091 42.3342 76.431 45.8654L75.1602 46.5998L76.6654 46.6779C80.3529 46.8706 83.2643 49.4383 86.4466 51.5373C88.056 52.5894 89.832 53.5998 91.8789 54.0269C93.9779 54.5217 95.9935 54.1414 97.7747 54.0842C101.389 53.9175 105.118 54.5477 108.822 55.2925C112.54 56.006 116.285 56.855 120.092 56.9279ZM120.092 56.6987C116.306 56.6414 112.66 55.5269 109.051 54.3914C105.441 53.2925 101.712 52.0998 97.7279 52.1102C95.7331 52.1206 93.9414 52.4019 92.2956 52.0269C90.6185 51.7092 89.0039 50.8862 87.3737 50.0008C85.7539 49.105 84.1289 48.0685 82.3841 47.2144C80.6341 46.3602 78.6654 45.7664 76.6602 45.7925L76.8997 46.6154C82.6966 42.7612 89.1654 39.8602 95.9049 38.3185C102.634 36.8185 109.613 36.4175 116.228 38.006C122.801 39.4956 129.061 42.9071 133.572 47.6675C134.551 48.8862 134.848 50.1935 133.967 51.5112C133.124 52.8029 131.691 53.8029 130.176 54.5529C127.092 56.0321 123.566 56.6987 120.092 56.6987Z" fill="#FFF0DD"/>
</g>
</g>
</g>
</g>
<mask id="mask60_2307_2289" style="mask-type:luminance" maskUnits="userSpaceOnUse" x="97" y="57" width="44" height="52">
<path d="M97.668 57.668H140.335V108.335H97.668V57.668Z" fill="white"/>
</mask>
<g mask="url(#mask60_2307_2289)">
<mask id="mask61_2307_2289" style="mask-type:luminance" maskUnits="userSpaceOnUse" x="39" y="1" width="224" height="250">
<path d="M262.068 195.777L108.74 250.897L39.0781 57.1159L192.406 1.99609L262.068 195.777Z" fill="white"/>
</mask>
<g mask="url(#mask61_2307_2289)">
<mask id="mask62_2307_2289" style="mask-type:luminance" maskUnits="userSpaceOnUse" x="39" y="1" width="224" height="250">
<path d="M109.177 250.741L262.51 195.621L192.849 1.83984L39.5156 56.9596L109.177 250.741Z" fill="white"/>
</mask>
<g mask="url(#mask62_2307_2289)">
<path d="M138.88 58.0645C135.865 62.5645 133.365 67.2572 130.839 71.9134C129.641 74.2884 128.479 76.7051 126.943 78.8874C125.422 81.0697 123.583 83.0124 121.563 84.7415C117.521 88.179 113.234 91.4082 109.297 95.0645C105.51 98.6165 101.052 102.148 98.4375 106.971L98.6198 107.117C102.37 103.231 106.781 100.46 110.932 96.8874C114.833 93.252 118.927 89.778 122.453 85.6322C124.229 83.5801 125.865 81.429 127.542 79.3301C129.219 77.2259 130.979 75.1426 132.49 72.8874C135.38 68.3092 137.505 63.3301 139.089 58.1582L138.88 58.0645Z" fill="#FFF0DD"/>
</g>
</g>
</g>
<mask id="mask63_2307_2289" style="mask-type:luminance" maskUnits="userSpaceOnUse" x="160" y="57" width="42" height="92">
<path d="M160.332 57.668H201.665V148.335H160.332V57.668Z" fill="white"/>
</mask>
<g mask="url(#mask63_2307_2289)">
<mask id="mask64_2307_2289" style="mask-type:luminance" maskUnits="userSpaceOnUse" x="39" y="1" width="224" height="250">
<path d="M262.068 195.777L108.74 250.897L39.0781 57.1159L192.406 1.99609L262.068 195.777Z" fill="white"/>
</mask>
<g mask="url(#mask64_2307_2289)">
<mask id="mask65_2307_2289" style="mask-type:luminance" maskUnits="userSpaceOnUse" x="39" y="1" width="224" height="250">
<path d="M109.177 250.741L262.51 195.621L192.849 1.83984L39.5156 56.9596L109.177 250.741Z" fill="white"/>
</mask>
<g mask="url(#mask65_2307_2289)">
<path d="M169.817 103.549C174.895 103.715 179.77 105.361 184.02 107.924C188.254 110.528 192.035 113.903 194.952 117.908C196.39 119.913 197.686 121.981 198.395 124.294C199.114 126.611 199.473 129.07 199.614 131.564C199.853 136.58 199.619 141.684 198.666 146.653L199.275 146.413C192.494 141.564 185.817 136.247 181.114 129.434C178.77 126.044 176.983 122.372 175.9 118.403C174.739 114.46 174.004 110.32 172.739 106.215C172.129 104.174 171.296 102.09 170.265 100.283L167.296 94.7051C165.463 91.0592 164.004 87.1947 163.108 83.1895C161.296 75.179 161.421 66.6947 163.577 58.5905L163.358 58.5176C160.358 66.377 159.525 75.1842 161.145 83.5905C161.895 87.804 163.249 91.9238 165.155 95.778C166.931 99.5645 169.317 103.059 170.457 106.95C171.759 110.83 172.593 114.96 173.884 119.023C175.134 123.117 177.207 127.028 179.843 130.382C185.181 137.111 192.166 141.976 198.817 147.044L199.306 147.424L199.436 146.804C200.436 141.788 201.134 136.695 201.192 131.528C201.218 128.945 201.046 126.288 200.254 123.721C199.489 121.153 198.186 118.757 196.572 116.7C193.358 112.59 189.4 109.012 184.77 106.596C180.186 104.158 174.931 102.814 169.806 103.309L169.817 103.549Z" fill="#FFF0DD"/>
</g>
</g>
</g>
<mask id="mask66_2307_2289" style="mask-type:luminance" maskUnits="userSpaceOnUse" x="163" y="77" width="42" height="17">
<path d="M163 77.668H204.333V93.668H163V77.668Z" fill="white"/>
</mask>
<g mask="url(#mask66_2307_2289)">
<mask id="mask67_2307_2289" style="mask-type:luminance" maskUnits="userSpaceOnUse" x="39" y="1" width="224" height="250">
<path d="M262.068 195.777L108.74 250.897L39.0781 57.1159L192.406 1.99609L262.068 195.777Z" fill="white"/>
</mask>
<g mask="url(#mask67_2307_2289)">
<mask id="mask68_2307_2289" style="mask-type:luminance" maskUnits="userSpaceOnUse" x="39" y="1" width="224" height="250">
<path d="M109.177 250.741L262.51 195.621L192.849 1.83984L39.5156 56.9596L109.177 250.741Z" fill="white"/>
</mask>
<g mask="url(#mask68_2307_2289)">
<path d="M164.559 88.8655C165.538 90.3447 167.127 91.2561 168.71 91.9697C170.319 92.6728 172.028 93.1155 173.793 93.3968C177.335 93.9957 180.976 93.3551 184.314 92.2874C187.673 91.2041 190.804 89.7197 193.877 88.1051C196.95 86.4957 199.887 84.6363 202.653 82.5582L204.168 81.4176L202.361 81.3238C198.814 81.1416 195.272 80.8707 191.752 80.4176C188.215 80.0218 184.804 79.0582 181.101 78.8655C177.314 78.6832 173.705 80.0947 170.585 81.7145C169.054 82.5009 167.309 83.1103 165.783 84.152C165.048 84.6832 164.272 85.3082 163.965 86.2405C163.679 87.178 164.064 88.1311 164.559 88.8655ZM164.752 88.7405C164.304 88.0166 163.965 87.1259 164.272 86.3395C164.611 85.5791 165.325 85.0426 166.101 84.678C167.653 83.9384 169.371 83.6259 171.132 83.0791C174.543 82.0374 177.736 80.8811 181.121 80.7561C182.819 80.6207 184.575 80.6989 186.351 80.7874C188.127 80.8603 189.908 80.9593 191.668 81.1468C195.2 81.5061 198.71 82.0478 202.215 82.6676L201.913 81.4384C198.955 83.1259 195.95 84.6884 192.897 86.1468C189.84 87.5739 186.694 88.8759 183.548 89.9749C180.403 91.0582 177.194 91.7926 173.892 91.9228C172.226 91.9593 170.538 91.803 168.918 91.3864C167.309 90.9436 165.731 90.1259 164.752 88.7405Z" fill="#FFF0DD"/>
</g>
</g>
</g>
<mask id="mask69_2307_2289" style="mask-type:luminance" maskUnits="userSpaceOnUse" x="153" y="92" width="17" height="37">
<path d="M153.668 92.334H169.668V128.334H153.668V92.334Z" fill="white"/>
</mask>
<g mask="url(#mask69_2307_2289)">
<mask id="mask70_2307_2289" style="mask-type:luminance" maskUnits="userSpaceOnUse" x="39" y="1" width="224" height="250">
<path d="M262.068 195.777L108.74 250.897L39.0781 57.1159L192.406 1.99609L262.068 195.777Z" fill="white"/>
</mask>
<g mask="url(#mask70_2307_2289)">
<mask id="mask71_2307_2289" style="mask-type:luminance" maskUnits="userSpaceOnUse" x="39" y="1" width="224" height="250">
<path d="M109.177 250.741L262.51 195.621L192.849 1.83984L39.5156 56.9596L109.177 250.741Z" fill="white"/>
</mask>
<g mask="url(#mask71_2307_2289)">
<path d="M169.038 100.689C168.877 103.101 168.246 105.387 167.502 107.611C166.757 109.846 165.793 111.997 164.684 114.023C163.559 116.033 162.335 118.132 160.991 120.132C159.668 122.153 158.142 124.028 156.632 125.934L157.356 126.09C156.898 123.111 156.814 120.096 156.674 117.117C156.569 114.132 156.502 111.137 156.965 108.34C157.371 105.492 158.512 103.09 160.34 100.669C162.043 98.2415 164.059 95.7832 165.069 92.8353L164.861 92.7363C163.168 95.2363 160.887 97.1686 158.866 99.4811C157.861 100.637 156.809 101.83 156.028 103.314C155.273 104.778 154.767 106.361 154.549 107.955C154.085 111.148 154.377 114.247 154.72 117.273C155.08 120.32 155.84 123.299 156.559 126.257L156.788 127.158L157.293 126.413C158.637 124.424 160.179 122.559 161.83 120.783C163.46 118.976 165.158 117.195 166.46 115.038C167.736 112.861 168.575 110.492 169.137 108.064C169.663 105.653 169.851 103.085 169.273 100.674L169.038 100.689Z" fill="#FFF0DD"/>
</g>
</g>
</g>
<mask id="mask72_2307_2289" style="mask-type:luminance" maskUnits="userSpaceOnUse" x="164" y="81" width="35" height="9">
<path d="M164.332 81.668H198.999V89.668H164.332V81.668Z" fill="white"/>
</mask>
<g mask="url(#mask72_2307_2289)">
<mask id="mask73_2307_2289" style="mask-type:luminance" maskUnits="userSpaceOnUse" x="39" y="1" width="224" height="250">
<path d="M262.068 195.777L108.74 250.897L39.0781 57.1159L192.406 1.99609L262.068 195.777Z" fill="white"/>
</mask>
<g mask="url(#mask73_2307_2289)">
<mask id="mask74_2307_2289" style="mask-type:luminance" maskUnits="userSpaceOnUse" x="39" y="1" width="224" height="250">
<path d="M109.177 250.741L262.51 195.621L192.849 1.83984L39.5156 56.9596L109.177 250.741Z" fill="white"/>
</mask>
<g mask="url(#mask74_2307_2289)">
<path d="M198.949 82.8653C197.486 82.2976 195.85 82.4851 194.454 82.6621C193.017 82.8496 191.585 83.1101 190.199 83.558C188.824 84.0319 187.491 84.6882 186.09 85.0944C184.699 85.5007 183.257 85.6778 181.793 85.8028C178.85 85.9538 176.017 86.6934 173.361 86.7819C170.663 86.9955 167.814 86.7507 164.829 86.8809L164.777 87.1101C167.46 88.3861 170.35 89.2663 173.46 89.2351C175.017 89.1986 176.517 88.834 177.934 88.4382C179.361 88.058 180.71 87.5632 182.079 87.0319C183.444 86.5163 184.824 86.058 186.251 85.8184C187.684 85.5788 189.163 85.584 190.616 85.4226C192.053 85.2403 193.449 84.8444 194.835 84.4069C196.251 83.959 197.475 83.3653 198.918 83.0996L198.949 82.8653Z" fill="#FFF0DD"/>
</g>
</g>
</g>
</g>
</g>
</g>
</g>
</g>
</g>
<mask id="mask75_2307_2289" style="mask-type:luminance" maskUnits="userSpaceOnUse" x="0" y="201" width="102" height="129">
<path d="M101.669 201.666H0.335938V329.666H101.669V201.666Z" fill="white"/>
</mask>
<g mask="url(#mask75_2307_2289)">
<mask id="mask76_2307_2289" style="mask-type:luminance" maskUnits="userSpaceOnUse" x="0" y="202" width="99" height="127">
<path d="M0.574219 202.098H99.0013V328.332H0.574219V202.098Z" fill="white"/>
</mask>
<g mask="url(#mask76_2307_2289)">
<mask id="mask77_2307_2289" style="mask-type:luminance" maskUnits="userSpaceOnUse" x="0" y="202" width="100" height="126">
<path d="M0.621094 208.883L90.3451 202.326L99.0169 320.967L9.29297 327.524L0.621094 208.883Z" fill="white"/>
</mask>
<g mask="url(#mask77_2307_2289)">
<mask id="mask78_2307_2289" style="mask-type:luminance" maskUnits="userSpaceOnUse" x="0" y="202" width="100" height="126">
<path d="M0.621094 208.883L90.3451 202.326L99.0169 320.967L9.29297 327.524L0.621094 208.883Z" fill="white"/>
</mask>
<g mask="url(#mask78_2307_2289)">
<mask id="mask79_2307_2289" style="mask-type:luminance" maskUnits="userSpaceOnUse" x="0" y="202" width="100" height="126">
<path d="M0.621094 208.883L90.3451 202.326L99.0169 320.967L9.29297 327.524L0.621094 208.883Z" fill="white"/>
</mask>
<g mask="url(#mask79_2307_2289)">
<path fill-rule="evenodd" clip-rule="evenodd" d="M84.1667 202.836C84.3333 205.169 86.1146 206.94 88.1354 206.794C89.1146 206.721 89.9688 206.216 90.5729 205.451L90.8958 209.857C88.5625 210.029 86.7917 211.81 86.9427 213.826C87.0885 215.846 89.099 217.352 91.4323 217.18L91.5885 219.31C89.2552 219.482 87.4844 221.263 87.6302 223.279C87.7813 225.299 89.7917 226.805 92.1198 226.633L92.2708 228.685C89.9427 228.857 88.1667 230.638 88.3177 232.659C88.4635 234.68 90.474 236.18 92.8073 236.013L92.9583 238.065C90.625 238.237 88.8542 240.013 89 242.034C89.1458 244.055 91.1615 245.56 93.4948 245.388L93.6458 247.461C91.3125 247.633 89.5365 249.414 89.6875 251.435C89.8333 253.456 91.849 254.956 94.1771 254.789L94.3333 256.919C92 257.086 90.2292 258.867 90.375 260.888C90.526 262.909 92.5365 264.414 94.8698 264.242L95.0208 266.294C92.6875 266.461 90.9115 268.242 91.0625 270.263C91.2083 272.284 93.224 273.789 95.5521 273.617H95.5573L95.7083 275.669H95.7031C93.3698 275.841 91.599 277.622 91.7448 279.643C91.8906 281.664 93.9063 283.164 96.2396 282.997L96.3906 285.07C94.0573 285.242 92.2813 287.018 92.4323 289.039C92.5781 291.06 94.5938 292.565 96.9219 292.393H96.9271L97.0833 294.523H97.0781C94.75 294.695 92.974 296.471 93.1198 298.492C93.2708 300.513 95.2813 302.018 97.6146 301.846H97.6198L97.849 305.003C95.5208 305.174 93.75 306.951 93.8958 308.971C94.0417 310.992 96.0521 312.497 98.3854 312.326L98.7865 317.841C98.0781 317.169 97.1563 316.794 96.1823 316.867C94.1615 317.013 92.6563 319.029 92.8281 321.357L90.6979 321.513C90.526 319.185 88.75 317.409 86.724 317.56C84.7031 317.706 83.2031 319.716 83.3698 322.049L81.2969 322.201C81.125 319.872 79.349 318.096 77.3281 318.242C75.3021 318.393 73.8021 320.404 73.974 322.737L71.9167 322.888C71.7448 320.555 69.9688 318.784 67.9479 318.93C65.9219 319.076 64.4219 321.091 64.5938 323.424L62.5417 323.576C62.3698 321.242 60.5885 319.466 58.5677 319.617C56.5469 319.763 55.0417 321.779 55.2135 324.107L53.0833 324.263C52.9115 321.935 51.1354 320.159 49.1146 320.305C47.0885 320.456 45.5885 322.466 45.7604 324.799L43.6823 324.951C43.5156 322.617 41.7344 320.846 39.7135 320.992C37.6927 321.143 36.1875 323.154 36.3594 325.487L34.3021 325.638C34.1354 323.305 32.3542 321.534 30.3333 321.68C28.3125 321.826 26.8073 323.841 26.9792 326.174L24.9271 326.32C24.7552 323.992 22.974 322.216 20.9531 322.367C18.9323 322.513 17.4271 324.529 17.599 326.857L15.4688 327.013C15.3021 324.68 13.5208 322.909 11.5 323.055C10.5208 323.128 9.66667 323.633 9.0625 324.404L8.69792 319.398C11.0313 319.227 12.8073 317.451 12.6563 315.43C12.5104 313.409 10.4948 311.904 8.16667 312.076H8.16146L7.93229 308.919C10.2604 308.747 12.0313 306.971 11.8854 304.951C11.7344 302.93 9.72396 301.424 7.39583 301.596L7.23958 299.466C9.56771 299.294 11.3438 297.513 11.1927 295.497C11.0469 293.477 9.03646 291.971 6.70313 292.143L6.55208 290.065C8.88542 289.893 10.6563 288.117 10.5104 286.096C10.3594 284.076 8.34896 282.576 6.01563 282.742L5.86458 280.69C8.19792 280.518 9.96875 278.737 9.82292 276.716C9.67708 274.695 7.66146 273.195 5.33333 273.362L5.18229 271.315C7.51563 271.143 9.28646 269.362 9.14063 267.341C8.98959 265.32 6.97917 263.82 4.64583 263.987L4.48958 261.862C6.82292 261.69 8.59896 259.909 8.44792 257.888C8.30208 255.867 6.28646 254.362 3.95833 254.534H3.95313L3.80208 252.461C6.13542 252.289 7.91146 250.513 7.76563 248.492C7.61459 246.471 5.60417 244.966 3.27083 245.138H3.26563L3.11979 243.081C5.45313 242.914 7.22396 241.133 7.07813 239.112C6.93229 237.091 4.91667 235.586 2.58333 235.758L2.43229 233.706H2.4375C4.76563 233.534 6.54167 231.758 6.39583 229.737C6.24479 227.716 4.23438 226.211 1.90104 226.383H1.89583L1.73958 224.253H1.74479C4.07813 224.081 5.85417 222.305 5.70313 220.284C5.55729 218.263 3.54167 216.758 1.20833 216.93L0.84375 212.008C1.55729 212.68 2.47396 213.055 3.45313 212.987C5.47396 212.836 6.97917 210.826 6.80729 208.492L8.9375 208.336C9.10938 210.669 10.8854 212.44 12.9063 212.294C14.9323 212.143 16.4323 210.133 16.2604 207.799L18.3125 207.648C18.4844 209.982 20.2656 211.758 22.2865 211.607C24.3073 211.461 25.8125 209.445 25.6406 207.117L27.6927 206.966C27.8646 209.294 29.6458 211.07 31.6667 210.924C33.6875 210.773 35.1927 208.763 35.0208 206.43L37.0938 206.279C37.2656 208.612 39.0469 210.383 41.0677 210.237C43.0885 210.086 44.5938 208.076 44.4219 205.742L46.5521 205.586C46.7188 207.919 48.5 209.69 50.5208 209.544C52.5417 209.398 54.0469 207.383 53.875 205.049L55.9271 204.898C56.099 207.232 57.8802 209.008 59.901 208.857C61.9219 208.711 63.4271 206.695 63.2552 204.367L65.3073 204.216C65.4792 206.549 67.2604 208.32 69.2813 208.174C71.3021 208.023 72.8073 206.013 72.6354 203.68L74.7083 203.529C74.8802 205.862 76.6563 207.633 78.6823 207.487C80.7031 207.336 82.2031 205.326 82.0365 202.992L84.1667 202.836Z" fill="#ECECEC"/>
</g>
</g>
</g>
</g>
<mask id="mask80_2307_2289" style="mask-type:luminance" maskUnits="userSpaceOnUse" x="8" y="209" width="84" height="109">
<path d="M8.33594 209.666H91.0026V317.666H8.33594V209.666Z" fill="white"/>
</mask>
<g mask="url(#mask80_2307_2289)">
<mask id="mask81_2307_2289" style="mask-type:luminance" maskUnits="userSpaceOnUse" x="0" y="202" width="100" height="126">
<path d="M0.621094 208.885L90.3451 202.328L99.0169 320.969L9.29297 327.526L0.621094 208.885Z" fill="white"/>
</mask>
<g mask="url(#mask81_2307_2289)">
<mask id="mask82_2307_2289" style="mask-type:luminance" maskUnits="userSpaceOnUse" x="0" y="202" width="100" height="126">
<path d="M0.621094 208.885L90.3451 202.328L99.0169 320.969L9.29297 327.526L0.621094 208.885Z" fill="white"/>
</mask>
<g mask="url(#mask82_2307_2289)">
<mask id="mask83_2307_2289" style="mask-type:luminance" maskUnits="userSpaceOnUse" x="0" y="202" width="100" height="126">
<path d="M0.621094 208.885L90.3451 202.328L99.0169 320.969L9.29297 327.526L0.621094 208.885Z" fill="white"/>
</mask>
<g mask="url(#mask83_2307_2289)">
<path fill-rule="evenodd" clip-rule="evenodd" d="M8.79297 215.605L83.2357 210.162L90.6888 312.152L16.2513 317.594L8.79297 215.605Z" fill="#EED6C4"/>
</g>
</g>
</g>
</g>
<mask id="mask84_2307_2289" style="mask-type:luminance" maskUnits="userSpaceOnUse" x="43" y="249" width="7" height="60">
<path d="M43 249.666H49.6667V308.333H43V249.666Z" fill="white"/>
</mask>
<g mask="url(#mask84_2307_2289)">
<mask id="mask85_2307_2289" style="mask-type:luminance" maskUnits="userSpaceOnUse" x="0" y="202" width="100" height="126">
<path d="M0.621094 208.885L90.3451 202.328L99.0169 320.969L9.29297 327.526L0.621094 208.885Z" fill="white"/>
</mask>
<g mask="url(#mask85_2307_2289)">
<mask id="mask86_2307_2289" style="mask-type:luminance" maskUnits="userSpaceOnUse" x="0" y="202" width="100" height="126">
<path d="M0.621094 208.885L90.3451 202.328L99.0169 320.969L9.29297 327.526L0.621094 208.885Z" fill="white"/>
</mask>
<g mask="url(#mask86_2307_2289)">
<mask id="mask87_2307_2289" style="mask-type:luminance" maskUnits="userSpaceOnUse" x="0" y="202" width="100" height="126">
<path d="M0.621094 208.885L90.3451 202.328L99.0169 320.969L9.29297 327.526L0.621094 208.885Z" fill="white"/>
</mask>
<g mask="url(#mask87_2307_2289)">
<path fill-rule="evenodd" clip-rule="evenodd" d="M46.9961 250.797C47.9336 263.656 47.4596 276.385 45.944 289.203C45.2461 295.125 43.9075 300.995 43.0638 306.901C43.0221 307.214 43.2357 307.5 43.543 307.542C43.8555 307.589 44.1419 307.37 44.1836 307.062C45.0325 301.146 46.3711 295.266 47.069 289.339C48.5898 276.448 49.069 263.646 48.1263 250.719C48.1002 250.406 47.8294 250.172 47.5169 250.193C47.2096 250.214 46.97 250.49 46.9961 250.797Z" fill="#806B37"/>
</g>
</g>
</g>
</g>
<mask id="mask88_2307_2289" style="mask-type:luminance" maskUnits="userSpaceOnUse" x="47" y="268" width="8" height="10">
<path d="M47 268.332H55V277.665H47V268.332Z" fill="white"/>
</mask>
<g mask="url(#mask88_2307_2289)">
<mask id="mask89_2307_2289" style="mask-type:luminance" maskUnits="userSpaceOnUse" x="0" y="202" width="100" height="126">
<path d="M0.621094 208.883L90.3451 202.326L99.0169 320.967L9.29297 327.524L0.621094 208.883Z" fill="white"/>
</mask>
<g mask="url(#mask89_2307_2289)">
<mask id="mask90_2307_2289" style="mask-type:luminance" maskUnits="userSpaceOnUse" x="0" y="202" width="100" height="126">
<path d="M0.621094 208.883L90.3451 202.326L99.0169 320.967L9.29297 327.524L0.621094 208.883Z" fill="white"/>
</mask>
<g mask="url(#mask90_2307_2289)">
<mask id="mask91_2307_2289" style="mask-type:luminance" maskUnits="userSpaceOnUse" x="0" y="202" width="100" height="126">
<path d="M0.621094 208.883L90.3451 202.326L99.0169 320.967L9.29297 327.524L0.621094 208.883Z" fill="white"/>
</mask>
<g mask="url(#mask91_2307_2289)">
<path fill-rule="evenodd" clip-rule="evenodd" d="M48.3407 276.457C49.7417 273.415 51.8302 272.207 54.5334 270.457C54.799 270.285 54.8719 269.936 54.7052 269.67C54.5334 269.41 54.1844 269.332 53.9188 269.504C51.0177 271.384 48.8146 272.717 47.3094 275.983C47.1792 276.269 47.3042 276.603 47.5855 276.738C47.8719 276.868 48.2105 276.743 48.3407 276.457Z" fill="#806B37"/>
</g>
</g>
</g>
</g>
<mask id="mask92_2307_2289" style="mask-type:luminance" maskUnits="userSpaceOnUse" x="40" y="258" width="10" height="12">
<path d="M40.3359 258.998H49.6693V269.665H40.3359V258.998Z" fill="white"/>
</mask>
<g mask="url(#mask92_2307_2289)">
<mask id="mask93_2307_2289" style="mask-type:luminance" maskUnits="userSpaceOnUse" x="0" y="202" width="100" height="126">
<path d="M0.621094 208.883L90.3451 202.326L99.0169 320.967L9.29297 327.524L0.621094 208.883Z" fill="white"/>
</mask>
<g mask="url(#mask93_2307_2289)">
<mask id="mask94_2307_2289" style="mask-type:luminance" maskUnits="userSpaceOnUse" x="0" y="202" width="100" height="126">
<path d="M0.621094 208.883L90.3451 202.326L99.0169 320.967L9.29297 327.524L0.621094 208.883Z" fill="white"/>
</mask>
<g mask="url(#mask94_2307_2289)">
<mask id="mask95_2307_2289" style="mask-type:luminance" maskUnits="userSpaceOnUse" x="0" y="202" width="100" height="126">
<path d="M0.621094 208.883L90.3451 202.326L99.0169 320.967L9.29297 327.524L0.621094 208.883Z" fill="white"/>
</mask>
<g mask="url(#mask95_2307_2289)">
<path fill-rule="evenodd" clip-rule="evenodd" d="M41.1091 260.93C42.3747 261.992 43.4424 263.248 44.5466 264.471C45.057 265.039 45.7601 265.68 46.3435 266.393C46.8591 267.013 47.2914 267.685 47.3487 268.414C47.3695 268.727 47.6403 268.961 47.9528 268.94C48.2653 268.914 48.4997 268.643 48.4789 268.331C48.4216 267.555 48.0726 266.82 47.583 266.138C46.9268 265.227 46.0205 264.414 45.3903 263.711C44.2497 262.451 43.1456 261.159 41.8383 260.06C41.5987 259.857 41.2393 259.888 41.0362 260.128C40.8383 260.367 40.8695 260.727 41.1091 260.93Z" fill="#806B37"/>
</g>
</g>
</g>
</g>
<mask id="mask96_2307_2289" style="mask-type:luminance" maskUnits="userSpaceOnUse" x="39" y="281" width="8" height="12">
<path d="M39 281.666H47V292.333H39V281.666Z" fill="white"/>
</mask>
<g mask="url(#mask96_2307_2289)">
<mask id="mask97_2307_2289" style="mask-type:luminance" maskUnits="userSpaceOnUse" x="0" y="202" width="100" height="126">
<path d="M0.621094 208.885L90.3451 202.328L99.0169 320.969L9.29297 327.526L0.621094 208.885Z" fill="white"/>
</mask>
<g mask="url(#mask97_2307_2289)">
<mask id="mask98_2307_2289" style="mask-type:luminance" maskUnits="userSpaceOnUse" x="0" y="202" width="100" height="126">
<path d="M0.621094 208.885L90.3451 202.328L99.0169 320.969L9.29297 327.526L0.621094 208.885Z" fill="white"/>
</mask>
<g mask="url(#mask98_2307_2289)">
<mask id="mask99_2307_2289" style="mask-type:luminance" maskUnits="userSpaceOnUse" x="0" y="202" width="100" height="126">
<path d="M0.621094 208.885L90.3451 202.328L99.0169 320.969L9.29297 327.526L0.621094 208.885Z" fill="white"/>
</mask>
<g mask="url(#mask99_2307_2289)">
<path fill-rule="evenodd" clip-rule="evenodd" d="M46.6489 290.729L46.3625 290.323C46.0239 289.526 45.3677 288.714 44.8625 288.011C44.5864 287.636 44.2427 287.333 43.951 286.974C43.4823 286.386 43.1385 285.708 42.6698 285.125C42.0135 284.302 41.2895 283.547 40.7948 282.615C40.6489 282.339 40.3052 282.235 40.0291 282.38C39.7531 282.526 39.6437 282.87 39.7948 283.146C40.3208 284.141 41.0864 284.953 41.7843 285.828C42.2531 286.417 42.5968 287.094 43.0708 287.682C43.3468 288.026 43.6802 288.313 43.9406 288.672C44.4041 289.313 45.0187 290.047 45.3208 290.771C45.3781 290.917 45.7218 291.396 45.8156 291.5C45.9354 291.63 46.05 291.662 46.0812 291.672C46.3833 291.766 46.701 291.599 46.7895 291.297C46.8573 291.089 46.7948 290.875 46.6489 290.729Z" fill="#806B37"/>
</g>
</g>
</g>
</g>
<mask id="mask100_2307_2289" style="mask-type:luminance" maskUnits="userSpaceOnUse" x="44" y="288" width="10" height="10">
<path d="M44.3359 288.332H53.6693V297.665H44.3359V288.332Z" fill="white"/>
</mask>
<g mask="url(#mask100_2307_2289)">
<mask id="mask101_2307_2289" style="mask-type:luminance" maskUnits="userSpaceOnUse" x="0" y="202" width="100" height="126">
<path d="M0.621094 208.883L90.3451 202.326L99.0169 320.967L9.29297 327.524L0.621094 208.883Z" fill="white"/>
</mask>
<g mask="url(#mask101_2307_2289)">
<mask id="mask102_2307_2289" style="mask-type:luminance" maskUnits="userSpaceOnUse" x="0" y="202" width="100" height="126">
<path d="M0.621094 208.883L90.3451 202.326L99.0169 320.967L9.29297 327.524L0.621094 208.883Z" fill="white"/>
</mask>
<g mask="url(#mask102_2307_2289)">
<mask id="mask103_2307_2289" style="mask-type:luminance" maskUnits="userSpaceOnUse" x="0" y="202" width="100" height="126">
<path d="M0.621094 208.883L90.3451 202.326L99.0169 320.967L9.29297 327.524L0.621094 208.883Z" fill="white"/>
</mask>
<g mask="url(#mask103_2307_2289)">
<path fill-rule="evenodd" clip-rule="evenodd" d="M45.1571 295.384C45.0112 295.488 44.9175 295.65 44.9123 295.837C44.8966 295.92 44.8393 296.249 44.8185 296.4C44.8081 296.514 44.8133 296.603 44.8185 296.65C44.855 296.848 44.9591 296.957 45.0321 297.019C45.1518 297.108 45.2821 297.15 45.4279 297.139C45.5685 297.129 45.7456 297.071 45.881 296.874C45.9279 296.811 45.9852 296.681 46.0268 296.519C46.0633 296.363 46.105 296.108 46.1154 296.014C46.2248 295.712 46.4383 295.478 46.6466 295.285C46.9227 295.03 47.2091 294.848 47.3654 294.712C49.23 293.087 51.1518 292.025 52.6414 289.988C52.8289 289.738 52.7716 289.384 52.5216 289.196C52.2664 289.014 51.9123 289.066 51.73 289.316C50.2873 291.28 48.4227 292.29 46.6206 293.858C46.2977 294.134 45.5425 294.618 45.1571 295.384ZM45.0321 296.202C45.1623 296.384 45.3446 296.431 45.5216 296.415C45.3237 296.431 45.1466 296.342 45.0321 296.202Z" fill="#806B37"/>
</g>
</g>
</g>
</g>
<mask id="mask104_2307_2289" style="mask-type:luminance" maskUnits="userSpaceOnUse" x="49" y="260" width="16" height="14">
<path d="M49.668 260.332H64.3346V273.665H49.668V260.332Z" fill="white"/>
</mask>
<g mask="url(#mask104_2307_2289)">
<mask id="mask105_2307_2289" style="mask-type:luminance" maskUnits="userSpaceOnUse" x="0" y="202" width="100" height="126">
<path d="M0.621094 208.883L90.3451 202.326L99.0169 320.967L9.29297 327.524L0.621094 208.883Z" fill="white"/>
</mask>
<g mask="url(#mask105_2307_2289)">
<mask id="mask106_2307_2289" style="mask-type:luminance" maskUnits="userSpaceOnUse" x="0" y="202" width="100" height="126">
<path d="M0.621094 208.883L90.3451 202.326L99.0169 320.967L9.29297 327.524L0.621094 208.883Z" fill="white"/>
</mask>
<g mask="url(#mask106_2307_2289)">
<mask id="mask107_2307_2289" style="mask-type:luminance" maskUnits="userSpaceOnUse" x="0" y="202" width="100" height="126">
<path d="M0.621094 208.883L90.3451 202.326L99.0169 320.967L9.29297 327.524L0.621094 208.883Z" fill="white"/>
</mask>
<g mask="url(#mask107_2307_2289)">
<path fill-rule="evenodd" clip-rule="evenodd" d="M51.5599 272.705C48.5755 269.153 53.5807 264.851 57.4765 263.669C58.263 263.429 59.0963 263.377 59.888 263.138C60.8776 262.841 61.9505 262.419 62.8203 261.856C62.8567 261.83 63.138 261.528 63.2578 261.575C63.3255 261.606 63.2786 261.721 63.2734 261.789C63.2578 262.914 63.0807 264.028 62.8463 265.127C62.3411 267.466 61.1796 269.362 59.1484 270.773C58.2109 271.424 56.6536 271.924 55.664 272.403C53.4036 273.497 51.5703 272.83 51.5599 272.705Z" fill="#806B37"/>
</g>
</g>
</g>
</g>
<mask id="mask108_2307_2289" style="mask-type:luminance" maskUnits="userSpaceOnUse" x="32" y="249" width="13" height="14">
<path d="M32.3359 249.666H44.3359V262.999H32.3359V249.666Z" fill="white"/>
</mask>
<g mask="url(#mask108_2307_2289)">
<mask id="mask109_2307_2289" style="mask-type:luminance" maskUnits="userSpaceOnUse" x="0" y="202" width="100" height="126">
<path d="M0.621094 208.885L90.3451 202.328L99.0169 320.969L9.29297 327.526L0.621094 208.885Z" fill="white"/>
</mask>
<g mask="url(#mask109_2307_2289)">
<mask id="mask110_2307_2289" style="mask-type:luminance" maskUnits="userSpaceOnUse" x="0" y="202" width="100" height="126">
<path d="M0.621094 208.885L90.3451 202.328L99.0169 320.969L9.29297 327.526L0.621094 208.885Z" fill="white"/>
</mask>
<g mask="url(#mask110_2307_2289)">
<mask id="mask111_2307_2289" style="mask-type:luminance" maskUnits="userSpaceOnUse" x="0" y="202" width="100" height="126">
<path d="M0.621094 208.885L90.3451 202.328L99.0169 320.969L9.29297 327.526L0.621094 208.885Z" fill="white"/>
</mask>
<g mask="url(#mask111_2307_2289)">
<path fill-rule="evenodd" clip-rule="evenodd" d="M43.0136 262.286C43.3105 256.145 41.9927 254.963 36.6907 252.322C36.2427 252.104 33.5657 250.078 33.4146 250.088C33.399 250.088 33.7167 250.921 33.8157 251.255C34.0448 252.015 34.2948 252.76 34.5032 253.525C35.2375 256.213 35.9615 260.635 39.1282 261.614C39.748 261.801 41.6959 262.083 42.2323 261.463" fill="#806B37"/>
</g>
</g>
</g>
</g>
<mask id="mask112_2307_2289" style="mask-type:luminance" maskUnits="userSpaceOnUse" x="49" y="278" width="13" height="15">
<path d="M49.668 278.998H61.668V292.331H49.668V278.998Z" fill="white"/>
</mask>
<g mask="url(#mask112_2307_2289)">
<mask id="mask113_2307_2289" style="mask-type:luminance" maskUnits="userSpaceOnUse" x="0" y="202" width="100" height="126">
<path d="M0.621094 208.883L90.3451 202.326L99.0169 320.967L9.29297 327.524L0.621094 208.883Z" fill="white"/>
</mask>
<g mask="url(#mask113_2307_2289)">
<mask id="mask114_2307_2289" style="mask-type:luminance" maskUnits="userSpaceOnUse" x="0" y="202" width="100" height="126">
<path d="M0.621094 208.883L90.3451 202.326L99.0169 320.967L9.29297 327.524L0.621094 208.883Z" fill="white"/>
</mask>
<g mask="url(#mask114_2307_2289)">
<mask id="mask115_2307_2289" style="mask-type:luminance" maskUnits="userSpaceOnUse" x="0" y="202" width="100" height="126">
<path d="M0.621094 208.883L90.3451 202.326L99.0169 320.967L9.29297 327.524L0.621094 208.883Z" fill="white"/>
</mask>
<g mask="url(#mask115_2307_2289)">
<path fill-rule="evenodd" clip-rule="evenodd" d="M50.569 291.055C50.1159 289.675 50.3346 289.018 50.8034 287.628C51.8294 284.565 54.6315 283.581 57.3398 282.18C58.4752 281.591 59.595 281.013 60.6523 280.289C60.6992 280.263 60.7669 280.164 60.845 280.195C60.8554 280.201 61.2148 281.831 60.1471 285.419C59.3034 288.237 57.1054 291.169 54.0273 291.722C52.9648 291.914 51.9804 291.472 50.9648 291.544" fill="#806B37"/>
</g>
</g>
</g>
</g>
<mask id="mask116_2307_2289" style="mask-type:luminance" maskUnits="userSpaceOnUse" x="33" y="269" width="12" height="17">
<path d="M33.668 269.666H44.3346V285.666H33.668V269.666Z" fill="white"/>
</mask>
<g mask="url(#mask116_2307_2289)">
<mask id="mask117_2307_2289" style="mask-type:luminance" maskUnits="userSpaceOnUse" x="0" y="202" width="100" height="126">
<path d="M0.621094 208.885L90.3451 202.328L99.0169 320.969L9.29297 327.526L0.621094 208.885Z" fill="white"/>
</mask>
<g mask="url(#mask117_2307_2289)">
<mask id="mask118_2307_2289" style="mask-type:luminance" maskUnits="userSpaceOnUse" x="0" y="202" width="100" height="126">
<path d="M0.621094 208.885L90.3451 202.328L99.0169 320.969L9.29297 327.526L0.621094 208.885Z" fill="white"/>
</mask>
<g mask="url(#mask118_2307_2289)">
<mask id="mask119_2307_2289" style="mask-type:luminance" maskUnits="userSpaceOnUse" x="0" y="202" width="100" height="126">
<path d="M0.621094 208.885L90.3451 202.328L99.0169 320.969L9.29297 327.526L0.621094 208.885Z" fill="white"/>
</mask>
<g mask="url(#mask119_2307_2289)">
<path fill-rule="evenodd" clip-rule="evenodd" d="M41.0049 285.126C35.5674 285.032 34.2653 280.813 33.9945 275.938C33.932 274.74 34.0622 273.558 33.9737 272.371C33.9632 272.219 33.682 270.537 34.0101 270.641C34.8695 270.917 35.6872 271.73 36.4112 272.23C39.182 274.147 41.7862 276.35 42.7757 279.704C43.2653 281.36 43.3747 283.485 41.807 284.589C41.5257 284.787 41.3643 285.1 41.0049 285.126Z" fill="#806B37"/>
</g>
</g>
</g>
</g>
<mask id="mask120_2307_2289" style="mask-type:luminance" maskUnits="userSpaceOnUse" x="31" y="224" width="34" height="26">
<path d="M31 224.332H64.3333V249.665H31V224.332Z" fill="white"/>
</mask>
<g mask="url(#mask120_2307_2289)">
<mask id="mask121_2307_2289" style="mask-type:luminance" maskUnits="userSpaceOnUse" x="0" y="202" width="100" height="126">
<path d="M0.621094 208.883L90.3451 202.326L99.0169 320.967L9.29297 327.524L0.621094 208.883Z" fill="white"/>
</mask>
<g mask="url(#mask121_2307_2289)">
<mask id="mask122_2307_2289" style="mask-type:luminance" maskUnits="userSpaceOnUse" x="0" y="202" width="100" height="126">
<path d="M0.621094 208.883L90.3451 202.326L99.0169 320.967L9.29297 327.524L0.621094 208.883Z" fill="white"/>
</mask>
<g mask="url(#mask122_2307_2289)">
<mask id="mask123_2307_2289" style="mask-type:luminance" maskUnits="userSpaceOnUse" x="0" y="202" width="100" height="126">
<path d="M0.621094 208.883L90.3451 202.326L99.0169 320.967L9.29297 327.524L0.621094 208.883Z" fill="white"/>
</mask>
<g mask="url(#mask123_2307_2289)">
<path fill-rule="evenodd" clip-rule="evenodd" d="M46.9288 248.399C45.7204 247.852 44.4652 247.399 43.3298 246.722C41.6163 245.69 40.1579 244.263 38.4288 243.253C35.3142 241.445 32.4079 239.024 32.1371 235.3C31.7882 230.57 34.3715 229.518 37.5954 227.013C38.1684 226.565 39.5382 226.935 40.2257 226.763C42.5277 226.185 44.8142 225.466 47.1632 225.076C48.2152 224.904 49.2413 225.227 50.2934 225.201C51.0486 225.185 52.0017 224.893 52.7517 225.024C53.5121 225.154 54.1632 225.576 54.9236 225.748C59.1788 226.69 64.3819 227.737 64.059 233.143C63.908 235.659 58.3507 243.347 56.0173 244.732C54.3194 245.742 48.9288 247.675 48.335 249.123" fill="#B27A5E"/>
</g>
</g>
</g>
</g>
<mask id="mask124_2307_2289" style="mask-type:luminance" maskUnits="userSpaceOnUse" x="43" y="245" width="10" height="8">
<path d="M43 245.666H52.3333V252.333H43V245.666Z" fill="white"/>
</mask>
<g mask="url(#mask124_2307_2289)">
<mask id="mask125_2307_2289" style="mask-type:luminance" maskUnits="userSpaceOnUse" x="0" y="202" width="100" height="126">
<path d="M0.621094 208.885L90.3451 202.328L99.0169 320.969L9.29297 327.526L0.621094 208.885Z" fill="white"/>
</mask>
<g mask="url(#mask125_2307_2289)">
<mask id="mask126_2307_2289" style="mask-type:luminance" maskUnits="userSpaceOnUse" x="0" y="202" width="100" height="126">
<path d="M0.621094 208.885L90.3451 202.328L99.0169 320.969L9.29297 327.526L0.621094 208.885Z" fill="white"/>
</mask>
<g mask="url(#mask126_2307_2289)">
<mask id="mask127_2307_2289" style="mask-type:luminance" maskUnits="userSpaceOnUse" x="0" y="202" width="100" height="126">
<path d="M0.621094 208.885L90.3451 202.328L99.0169 320.969L9.29297 327.526L0.621094 208.885Z" fill="white"/>
</mask>
<g mask="url(#mask127_2307_2289)">
<path fill-rule="evenodd" clip-rule="evenodd" d="M47.6799 252.271C46.8935 250.594 45.9872 250.589 44.6799 249.391C44.1695 248.922 43.5445 248.464 43.4924 247.734C43.4768 247.552 44.1747 247.438 44.2685 247.427C45.0654 247.339 45.8779 247.307 46.6747 247.297C47.1487 247.292 47.6435 247.287 48.107 247.172C48.956 246.953 50.5654 246.125 51.4404 246.792C51.8674 247.12 51.7268 248.026 51.5393 248.448C51.0966 249.458 49.8935 250.021 48.9716 250.516C48.6904 250.667 48.5497 251.037 48.2789 251.052" fill="#806B37"/>
</g>
</g>
</g>
</g>
<mask id="mask128_2307_2289" style="mask-type:luminance" maskUnits="userSpaceOnUse" x="44" y="229" width="4" height="4">
<path d="M44.3359 229.666H47.0026V232.333H44.3359V229.666Z" fill="white"/>
</mask>
<g mask="url(#mask128_2307_2289)">
<mask id="mask129_2307_2289" style="mask-type:luminance" maskUnits="userSpaceOnUse" x="0" y="202" width="100" height="126">
<path d="M0.621094 208.885L90.3451 202.328L99.0169 320.969L9.29297 327.526L0.621094 208.885Z" fill="white"/>
</mask>
<g mask="url(#mask129_2307_2289)">
<mask id="mask130_2307_2289" style="mask-type:luminance" maskUnits="userSpaceOnUse" x="0" y="202" width="100" height="126">
<path d="M0.621094 208.885L90.3451 202.328L99.0169 320.969L9.29297 327.526L0.621094 208.885Z" fill="white"/>
</mask>
<g mask="url(#mask130_2307_2289)">
<mask id="mask131_2307_2289" style="mask-type:luminance" maskUnits="userSpaceOnUse" x="0" y="202" width="100" height="126">
<path d="M0.621094 208.885L90.3451 202.328L99.0169 320.969L9.29297 327.526L0.621094 208.885Z" fill="white"/>
</mask>
<g mask="url(#mask131_2307_2289)">
<path fill-rule="evenodd" clip-rule="evenodd" d="M46.627 229.797C45.8302 229.589 45.3823 230.141 45.4291 230.563C45.4604 230.86 45.7156 231.146 46.2885 231.105C46.3823 231.094 46.4552 231.016 46.4448 230.922C46.4395 230.829 46.3562 230.756 46.2625 230.766C45.95 230.787 45.7833 230.688 45.7677 230.527C45.7364 230.266 46.0541 229.995 46.5437 230.126C46.6323 230.146 46.726 230.094 46.752 230.001C46.7729 229.912 46.7208 229.818 46.627 229.797Z" fill="#D6B29F"/>
</g>
</g>
</g>
</g>
<mask id="mask132_2307_2289" style="mask-type:luminance" maskUnits="userSpaceOnUse" x="44" y="229" width="5" height="4">
<path d="M44.3359 229.666H48.3359V232.333H44.3359V229.666Z" fill="white"/>
</mask>
<g mask="url(#mask132_2307_2289)">
<mask id="mask133_2307_2289" style="mask-type:luminance" maskUnits="userSpaceOnUse" x="0" y="202" width="100" height="126">
<path d="M0.621094 208.885L90.3451 202.328L99.0169 320.969L9.29297 327.526L0.621094 208.885Z" fill="white"/>
</mask>
<g mask="url(#mask133_2307_2289)">
<mask id="mask134_2307_2289" style="mask-type:luminance" maskUnits="userSpaceOnUse" x="0" y="202" width="100" height="126">
<path d="M0.621094 208.885L90.3451 202.328L99.0169 320.969L9.29297 327.526L0.621094 208.885Z" fill="white"/>
</mask>
<g mask="url(#mask134_2307_2289)">
<mask id="mask135_2307_2289" style="mask-type:luminance" maskUnits="userSpaceOnUse" x="0" y="202" width="100" height="126">
<path d="M0.621094 208.885L90.3451 202.328L99.0169 320.969L9.29297 327.526L0.621094 208.885Z" fill="white"/>
</mask>
<g mask="url(#mask135_2307_2289)">
<path fill-rule="evenodd" clip-rule="evenodd" d="M47.3913 231.109C47.3861 231.115 47.3497 231.135 47.3184 231.146C47.2611 231.172 47.1882 231.193 47.1049 231.219C46.8184 231.292 46.4278 231.354 46.1726 231.37C46.0841 231.375 46.0163 231.38 45.9851 231.37C45.9643 231.365 45.9486 231.339 45.9278 231.318C45.8757 231.266 45.8288 231.193 45.808 231.146C45.7716 231.063 45.6726 231.021 45.5841 231.063C45.5007 231.099 45.4591 231.198 45.5007 231.286C45.5372 231.365 45.6257 231.505 45.7195 231.594C45.7768 231.646 45.8341 231.677 45.8861 231.693C45.9382 231.714 46.0528 231.719 46.1934 231.708C46.4695 231.693 46.8861 231.625 47.1934 231.547C47.4174 231.484 47.5893 231.401 47.6466 231.333C47.8236 231.13 47.8549 230.927 47.8028 230.766C47.7247 230.531 47.4695 230.344 47.1413 230.313C46.9903 230.297 46.5893 230.302 46.4174 230.297C46.3236 230.297 46.2507 230.375 46.2507 230.469C46.2507 230.563 46.3236 230.641 46.4174 230.641C46.5788 230.641 46.9643 230.635 47.1101 230.651C47.282 230.667 47.4382 230.74 47.4747 230.865C47.5007 230.937 47.4695 231.021 47.3913 231.109Z" fill="#D6B29F"/>
</g>
</g>
</g>
</g>
<mask id="mask136_2307_2289" style="mask-type:luminance" maskUnits="userSpaceOnUse" x="43" y="228" width="4" height="5">
<path d="M43 228.332H47V232.332H43V228.332Z" fill="white"/>
</mask>
<g mask="url(#mask136_2307_2289)">
<mask id="mask137_2307_2289" style="mask-type:luminance" maskUnits="userSpaceOnUse" x="0" y="202" width="100" height="126">
<path d="M0.621094 208.883L90.3451 202.326L99.0169 320.967L9.29297 327.524L0.621094 208.883Z" fill="white"/>
</mask>
<g mask="url(#mask137_2307_2289)">
<mask id="mask138_2307_2289" style="mask-type:luminance" maskUnits="userSpaceOnUse" x="0" y="202" width="100" height="126">
<path d="M0.621094 208.883L90.3451 202.326L99.0169 320.967L9.29297 327.524L0.621094 208.883Z" fill="white"/>
</mask>
<g mask="url(#mask138_2307_2289)">
<mask id="mask139_2307_2289" style="mask-type:luminance" maskUnits="userSpaceOnUse" x="0" y="202" width="100" height="126">
<path d="M0.621094 208.883L90.3451 202.326L99.0169 320.967L9.29297 327.524L0.621094 208.883Z" fill="white"/>
</mask>
<g mask="url(#mask139_2307_2289)">
<path fill-rule="evenodd" clip-rule="evenodd" d="M46.5794 229.149C46.3555 229.123 45.9857 229.04 45.6471 229.024C45.3815 229.019 45.1367 229.05 44.9648 229.154C44.8086 229.243 44.6836 229.389 44.5742 229.55C44.4857 229.685 44.4023 229.831 44.3138 229.946C44.2513 230.019 44.1315 230.086 44.0377 230.159C43.9388 230.232 43.8607 230.316 43.8242 230.404C43.7044 230.696 43.7565 230.977 43.9023 231.222C44.1002 231.555 44.4805 231.821 44.7825 231.946C44.8659 231.977 44.97 231.935 45.0013 231.852C45.0377 231.764 44.9961 231.665 44.9127 231.628C44.7044 231.545 44.4544 231.378 44.2825 231.17C44.1315 230.988 44.0377 230.769 44.1367 230.534C44.1575 230.477 44.2305 230.435 44.293 230.389C44.4023 230.316 44.5169 230.238 44.5794 230.154C44.6732 230.034 44.7617 229.883 44.8555 229.743C44.9388 229.623 45.0221 229.514 45.1367 229.446C45.2617 229.368 45.444 229.357 45.6315 229.368C45.9648 229.378 46.3242 229.461 46.5377 229.488C46.6315 229.498 46.72 229.43 46.7305 229.336C46.7409 229.243 46.6732 229.159 46.5794 229.149Z" fill="#D6B29F"/>
</g>
</g>
</g>
</g>
<mask id="mask140_2307_2289" style="mask-type:luminance" maskUnits="userSpaceOnUse" x="45" y="228" width="6" height="6">
<path d="M45.668 228.332H51.0013V233.665H45.668V228.332Z" fill="white"/>
</mask>
<g mask="url(#mask140_2307_2289)">
<mask id="mask141_2307_2289" style="mask-type:luminance" maskUnits="userSpaceOnUse" x="0" y="202" width="100" height="126">
<path d="M0.621094 208.883L90.3451 202.326L99.0169 320.967L9.29297 327.524L0.621094 208.883Z" fill="white"/>
</mask>
<g mask="url(#mask141_2307_2289)">
<mask id="mask142_2307_2289" style="mask-type:luminance" maskUnits="userSpaceOnUse" x="0" y="202" width="100" height="126">
<path d="M0.621094 208.883L90.3451 202.326L99.0169 320.967L9.29297 327.524L0.621094 208.883Z" fill="white"/>
</mask>
<g mask="url(#mask142_2307_2289)">
<mask id="mask143_2307_2289" style="mask-type:luminance" maskUnits="userSpaceOnUse" x="0" y="202" width="100" height="126">
<path d="M0.621094 208.883L90.3451 202.326L99.0169 320.967L9.29297 327.524L0.621094 208.883Z" fill="white"/>
</mask>
<g mask="url(#mask143_2307_2289)">
<path fill-rule="evenodd" clip-rule="evenodd" d="M47.1638 229.201C47.294 229.191 47.6429 229.159 47.7575 229.159C47.8877 229.159 48.0179 229.17 48.1481 229.175C48.2627 229.185 48.3721 229.206 48.4867 229.217C48.6846 229.232 48.7888 229.269 48.8408 229.336C48.8877 229.409 48.8773 229.498 48.8721 229.597C48.8669 229.81 48.8617 230.05 49.0231 230.269C49.1481 230.441 49.3929 230.602 49.5648 230.79C49.6377 230.868 49.695 230.951 49.7002 231.05C49.7002 231.118 49.6794 231.191 49.6273 231.269C49.4763 231.519 49.2106 231.675 48.9085 231.79C48.419 231.972 47.8304 232.024 47.4033 232.055C47.3096 232.06 47.2419 232.144 47.2471 232.237C47.2523 232.331 47.3356 232.399 47.4294 232.394C47.8773 232.362 48.5075 232.305 49.0283 232.107C49.4085 231.967 49.7315 231.758 49.919 231.446C50.0127 231.295 50.044 231.159 50.0388 231.04C50.0335 230.857 49.945 230.701 49.8148 230.56C49.6533 230.383 49.419 230.232 49.2992 230.071C49.221 229.967 49.2106 229.847 49.2106 229.737C49.2106 229.644 49.2158 229.545 49.2158 229.461C49.2054 229.305 49.169 229.175 49.0544 229.071C48.9606 228.977 48.7992 228.904 48.5179 228.878C48.4033 228.868 48.2888 228.847 48.1742 228.836C48.0335 228.826 47.8981 228.821 47.7575 228.821C47.6377 228.816 47.2731 228.852 47.1377 228.862C47.044 228.873 46.971 228.956 46.9815 229.05C46.9919 229.144 47.07 229.211 47.1638 229.201Z" fill="#D6B29F"/>
</g>
</g>
</g>
</g>
<mask id="mask144_2307_2289" style="mask-type:luminance" maskUnits="userSpaceOnUse" x="43" y="230" width="7" height="4">
<path d="M43 230.998H49.6667V233.665H43V230.998Z" fill="white"/>
</mask>
<g mask="url(#mask144_2307_2289)">
<mask id="mask145_2307_2289" style="mask-type:luminance" maskUnits="userSpaceOnUse" x="0" y="202" width="100" height="126">
<path d="M0.621094 208.883L90.3451 202.326L99.0169 320.967L9.29297 327.524L0.621094 208.883Z" fill="white"/>
</mask>
<g mask="url(#mask145_2307_2289)">
<mask id="mask146_2307_2289" style="mask-type:luminance" maskUnits="userSpaceOnUse" x="0" y="202" width="100" height="126">
<path d="M0.621094 208.883L90.3451 202.326L99.0169 320.967L9.29297 327.524L0.621094 208.883Z" fill="white"/>
</mask>
<g mask="url(#mask146_2307_2289)">
<mask id="mask147_2307_2289" style="mask-type:luminance" maskUnits="userSpaceOnUse" x="0" y="202" width="100" height="126">
<path d="M0.621094 208.883L90.3451 202.326L99.0169 320.967L9.29297 327.524L0.621094 208.883Z" fill="white"/>
</mask>
<g mask="url(#mask147_2307_2289)">
<path fill-rule="evenodd" clip-rule="evenodd" d="M43.2374 231.347C43.2166 231.503 43.1385 231.758 43.1228 231.993C43.102 232.222 43.1385 232.43 43.2374 232.571C43.451 232.878 43.7635 233.05 44.1176 233.139C44.5708 233.253 45.0968 233.217 45.5135 233.212C45.6541 233.206 45.7843 233.243 45.9145 233.284C46.0812 233.331 46.2478 233.394 46.4249 233.425C47.0864 233.54 48.076 233.462 48.7114 233.222C48.8572 233.165 48.9301 233.003 48.878 232.857C48.8208 232.712 48.6593 232.639 48.5135 232.691C47.9562 232.899 47.102 232.967 46.5239 232.868C46.1749 232.805 45.8624 232.639 45.503 232.644C45.1853 232.649 44.8051 232.675 44.4458 232.628C44.1541 232.587 43.8728 232.493 43.701 232.248C43.6853 232.227 43.6853 232.196 43.6801 232.165C43.6801 232.097 43.6853 232.019 43.6958 231.946C43.727 231.748 43.7791 231.55 43.7999 231.425C43.8208 231.269 43.7114 231.128 43.5551 231.107C43.4041 231.081 43.2583 231.191 43.2374 231.347Z" fill="#D6B29F"/>
</g>
</g>
</g>
</g>
<mask id="mask148_2307_2289" style="mask-type:luminance" maskUnits="userSpaceOnUse" x="43" y="226" width="6" height="5">
<path d="M43 226.998H48.3333V230.998H43V226.998Z" fill="white"/>
</mask>
<g mask="url(#mask148_2307_2289)">
<mask id="mask149_2307_2289" style="mask-type:luminance" maskUnits="userSpaceOnUse" x="0" y="202" width="100" height="126">
<path d="M0.621094 208.883L90.3451 202.326L99.0169 320.967L9.29297 327.524L0.621094 208.883Z" fill="white"/>
</mask>
<g mask="url(#mask149_2307_2289)">
<mask id="mask150_2307_2289" style="mask-type:luminance" maskUnits="userSpaceOnUse" x="0" y="202" width="100" height="126">
<path d="M0.621094 208.883L90.3451 202.326L99.0169 320.967L9.29297 327.524L0.621094 208.883Z" fill="white"/>
</mask>
<g mask="url(#mask150_2307_2289)">
<mask id="mask151_2307_2289" style="mask-type:luminance" maskUnits="userSpaceOnUse" x="0" y="202" width="100" height="126">
<path d="M0.621094 208.883L90.3451 202.326L99.0169 320.967L9.29297 327.524L0.621094 208.883Z" fill="white"/>
</mask>
<g mask="url(#mask151_2307_2289)">
<path fill-rule="evenodd" clip-rule="evenodd" d="M43.554 230.311C43.7155 229.864 43.8509 229.306 44.2311 228.978C44.4915 228.754 44.778 228.66 45.0749 228.608C45.4186 228.556 45.7832 228.551 46.1478 228.509C46.4967 228.468 46.8509 228.337 47.2103 228.379C47.4186 228.4 47.6165 228.489 47.8197 228.546C47.9707 228.587 48.127 228.499 48.1686 228.348C48.2155 228.202 48.1269 228.046 47.9759 227.999C47.7415 227.936 47.5124 227.843 47.2728 227.817C46.8717 227.77 46.4707 227.9 46.0801 227.947C45.7051 227.989 45.3353 227.994 44.9811 228.051C44.5853 228.119 44.2051 228.249 43.8561 228.551C43.4082 228.942 43.2155 229.582 43.0228 230.119C42.9655 230.265 43.0436 230.431 43.1895 230.483C43.3353 230.535 43.502 230.457 43.554 230.311Z" fill="#D6B29F"/>
</g>
</g>
</g>
</g>
<mask id="mask152_2307_2289" style="mask-type:luminance" maskUnits="userSpaceOnUse" x="48" y="226" width="6" height="8">
<path d="M48.3359 226.998H53.6693V233.665H48.3359V226.998Z" fill="white"/>
</mask>
<g mask="url(#mask152_2307_2289)">
<mask id="mask153_2307_2289" style="mask-type:luminance" maskUnits="userSpaceOnUse" x="0" y="202" width="100" height="126">
<path d="M0.621094 208.883L90.3451 202.326L99.0169 320.967L9.29297 327.524L0.621094 208.883Z" fill="white"/>
</mask>
<g mask="url(#mask153_2307_2289)">
<mask id="mask154_2307_2289" style="mask-type:luminance" maskUnits="userSpaceOnUse" x="0" y="202" width="100" height="126">
<path d="M0.621094 208.883L90.3451 202.326L99.0169 320.967L9.29297 327.524L0.621094 208.883Z" fill="white"/>
</mask>
<g mask="url(#mask154_2307_2289)">
<mask id="mask155_2307_2289" style="mask-type:luminance" maskUnits="userSpaceOnUse" x="0" y="202" width="100" height="126">
<path d="M0.621094 208.883L90.3451 202.326L99.0169 320.967L9.29297 327.524L0.621094 208.883Z" fill="white"/>
</mask>
<g mask="url(#mask155_2307_2289)">
<path fill-rule="evenodd" clip-rule="evenodd" d="M52.106 230.926C52.0539 230.993 51.9237 231.077 51.7726 231.181C51.2778 231.509 50.533 231.905 50.2935 232.077C50.1633 232.17 50.1372 232.342 50.2258 232.473C50.3143 232.598 50.4914 232.629 50.6216 232.54C50.8612 232.368 51.6008 231.978 52.0851 231.655C52.3403 231.483 52.5278 231.322 52.5955 231.212C52.6737 231.092 52.6945 230.926 52.6528 230.733C52.5955 230.457 52.4028 230.118 52.3247 229.978C51.658 228.806 50.8299 228.587 49.5747 228.16C49.4237 228.113 49.2622 228.191 49.2153 228.337C49.1633 228.488 49.2414 228.65 49.3924 228.697C50.4966 229.072 51.2466 229.233 51.8351 230.259C51.8872 230.353 52.0122 230.572 52.0799 230.769C52.0955 230.822 52.106 230.905 52.106 230.926Z" fill="#D6B29F"/>
</g>
</g>
</g>
</g>
<mask id="mask156_2307_2289" style="mask-type:luminance" maskUnits="userSpaceOnUse" x="40" y="226" width="5" height="9">
<path d="M40.3359 226.998H44.3359V234.998H40.3359V226.998Z" fill="white"/>
</mask>
<g mask="url(#mask156_2307_2289)">
<mask id="mask157_2307_2289" style="mask-type:luminance" maskUnits="userSpaceOnUse" x="0" y="202" width="100" height="126">
<path d="M0.621094 208.883L90.3451 202.326L99.0169 320.967L9.29297 327.524L0.621094 208.883Z" fill="white"/>
</mask>
<g mask="url(#mask157_2307_2289)">
<mask id="mask158_2307_2289" style="mask-type:luminance" maskUnits="userSpaceOnUse" x="0" y="202" width="100" height="126">
<path d="M0.621094 208.883L90.3451 202.326L99.0169 320.967L9.29297 327.524L0.621094 208.883Z" fill="white"/>
</mask>
<g mask="url(#mask158_2307_2289)">
<mask id="mask159_2307_2289" style="mask-type:luminance" maskUnits="userSpaceOnUse" x="0" y="202" width="100" height="126">
<path d="M0.621094 208.883L90.3451 202.326L99.0169 320.967L9.29297 327.524L0.621094 208.883Z" fill="white"/>
</mask>
<g mask="url(#mask159_2307_2289)">
<path fill-rule="evenodd" clip-rule="evenodd" d="M43.0671 228.284C42.6348 228.643 42.015 229.071 41.6556 229.571C41.4421 229.873 41.416 230.138 41.4264 230.409C41.4316 230.591 41.4629 230.768 41.4004 230.972C41.3066 231.274 41.1296 231.539 41.015 231.826C40.7754 232.409 40.8066 232.857 40.9889 233.196C41.1556 233.508 41.4525 233.742 41.8275 233.893C42.3171 234.097 42.9369 234.159 43.4577 234.143C43.6139 234.138 43.7389 234.008 43.7337 233.852C43.7285 233.696 43.5983 233.571 43.4421 233.576C43.015 233.591 42.5098 233.545 42.0983 233.393C41.8327 233.295 41.6035 233.154 41.4889 232.93C41.3744 232.711 41.3796 232.42 41.5358 232.045C41.6608 231.742 41.8379 231.461 41.9421 231.143C42.0098 230.92 42.0098 230.711 41.9994 230.513C41.9889 230.315 41.9629 230.123 42.1191 229.904C42.4473 229.44 43.0306 229.055 43.4316 228.716C43.5514 228.617 43.5671 228.44 43.4681 228.315C43.3691 228.196 43.1869 228.18 43.0671 228.284Z" fill="#D6B29F"/>
</g>
</g>
</g>
</g>
<mask id="mask160_2307_2289" style="mask-type:luminance" maskUnits="userSpaceOnUse" x="43" y="230" width="11" height="5">
<path d="M43 230.998H53.6667V234.998H43V230.998Z" fill="white"/>
</mask>
<g mask="url(#mask160_2307_2289)">
<mask id="mask161_2307_2289" style="mask-type:luminance" maskUnits="userSpaceOnUse" x="0" y="202" width="100" height="126">
<path d="M0.621094 208.883L90.3451 202.326L99.0169 320.967L9.29297 327.524L0.621094 208.883Z" fill="white"/>
</mask>
<g mask="url(#mask161_2307_2289)">
<mask id="mask162_2307_2289" style="mask-type:luminance" maskUnits="userSpaceOnUse" x="0" y="202" width="100" height="126">
<path d="M0.621094 208.883L90.3451 202.326L99.0169 320.967L9.29297 327.524L0.621094 208.883Z" fill="white"/>
</mask>
<g mask="url(#mask162_2307_2289)">
<mask id="mask163_2307_2289" style="mask-type:luminance" maskUnits="userSpaceOnUse" x="0" y="202" width="100" height="126">
<path d="M0.621094 208.883L90.3451 202.326L99.0169 320.967L9.29297 327.524L0.621094 208.883Z" fill="white"/>
</mask>
<g mask="url(#mask163_2307_2289)">
<path fill-rule="evenodd" clip-rule="evenodd" d="M44.0578 234.571C45.0578 234.769 46.787 234.889 48.313 234.774C49.3651 234.696 50.3235 234.498 50.912 234.149C51.3026 233.915 51.5683 233.545 51.8183 233.17C52.0266 232.858 52.2193 232.535 52.5162 232.327C52.6412 232.238 52.6724 232.061 52.5839 231.931C52.4953 231.806 52.3183 231.774 52.1881 231.863C51.8391 232.113 51.5943 232.483 51.3495 232.858C51.1464 233.165 50.938 233.472 50.6203 233.665C50.0943 233.978 49.2245 234.139 48.2714 234.212C46.7974 234.321 45.1308 234.207 44.1672 234.019C44.011 233.988 43.8651 234.087 43.8339 234.243C43.8026 234.394 43.9016 234.545 44.0578 234.571Z" fill="#D6B29F"/>
</g>
</g>
</g>
</g>
<mask id="mask164_2307_2289" style="mask-type:luminance" maskUnits="userSpaceOnUse" x="49" y="225" width="6" height="9">
<path d="M49.668 225.666H55.0013V233.666H49.668V225.666Z" fill="white"/>
</mask>
<g mask="url(#mask164_2307_2289)">
<mask id="mask165_2307_2289" style="mask-type:luminance" maskUnits="userSpaceOnUse" x="0" y="202" width="100" height="126">
<path d="M0.621094 208.885L90.3451 202.328L99.0169 320.969L9.29297 327.526L0.621094 208.885Z" fill="white"/>
</mask>
<g mask="url(#mask165_2307_2289)">
<mask id="mask166_2307_2289" style="mask-type:luminance" maskUnits="userSpaceOnUse" x="0" y="202" width="100" height="126">
<path d="M0.621094 208.885L90.3451 202.328L99.0169 320.969L9.29297 327.526L0.621094 208.885Z" fill="white"/>
</mask>
<g mask="url(#mask166_2307_2289)">
<mask id="mask167_2307_2289" style="mask-type:luminance" maskUnits="userSpaceOnUse" x="0" y="202" width="100" height="126">
<path d="M0.621094 208.885L90.3451 202.328L99.0169 320.969L9.29297 327.526L0.621094 208.885Z" fill="white"/>
</mask>
<g mask="url(#mask167_2307_2289)">
<path fill-rule="evenodd" clip-rule="evenodd" d="M49.9218 227.204C50.6093 227.297 51.8541 227.506 52.8645 227.917C53.4739 228.172 53.9999 228.49 54.2031 228.938C54.3281 229.219 54.2604 229.683 54.2395 229.98C54.1874 230.683 54.2187 231.001 54.0572 231.318C53.9479 231.521 53.7604 231.725 53.427 232.042C53.3124 232.146 53.3072 232.329 53.4166 232.443C53.526 232.553 53.7031 232.558 53.8177 232.454C54.2187 232.074 54.4322 231.824 54.5624 231.574C54.7499 231.209 54.7447 230.844 54.8072 230.021C54.8333 229.652 54.8802 229.063 54.7187 228.704C54.4687 228.146 53.8385 227.709 53.0781 227.396C52.026 226.959 50.7187 226.745 50.0052 226.641C49.8489 226.62 49.7031 226.73 49.6822 226.881C49.6614 227.037 49.7708 227.183 49.9218 227.204Z" fill="#D6B29F"/>
</g>
</g>
</g>
</g>
<mask id="mask168_2307_2289" style="mask-type:luminance" maskUnits="userSpaceOnUse" x="37" y="226" width="8" height="11">
<path d="M37.668 226.998H44.3346V236.331H37.668V226.998Z" fill="white"/>
</mask>
<g mask="url(#mask168_2307_2289)">
<mask id="mask169_2307_2289" style="mask-type:luminance" maskUnits="userSpaceOnUse" x="0" y="202" width="100" height="126">
<path d="M0.621094 208.883L90.3451 202.326L99.0169 320.967L9.29297 327.524L0.621094 208.883Z" fill="white"/>
</mask>
<g mask="url(#mask169_2307_2289)">
<mask id="mask170_2307_2289" style="mask-type:luminance" maskUnits="userSpaceOnUse" x="0" y="202" width="100" height="126">
<path d="M0.621094 208.883L90.3451 202.326L99.0169 320.967L9.29297 327.524L0.621094 208.883Z" fill="white"/>
</mask>
<g mask="url(#mask170_2307_2289)">
<mask id="mask171_2307_2289" style="mask-type:luminance" maskUnits="userSpaceOnUse" x="0" y="202" width="100" height="126">
<path d="M0.621094 208.883L90.3451 202.326L99.0169 320.967L9.29297 327.524L0.621094 208.883Z" fill="white"/>
</mask>
<g mask="url(#mask171_2307_2289)">
<path fill-rule="evenodd" clip-rule="evenodd" d="M42.69 227.279C42.0598 227.555 41.5754 227.847 40.9765 228.217C40.6379 228.425 40.2577 228.519 39.8931 228.644C39.44 228.8 39.0129 229.008 38.6796 229.425C38.1327 230.107 38.1327 230.566 38.19 231.066C38.2161 231.316 38.2681 231.576 38.2265 231.915C38.2109 232.024 38.1484 232.123 38.0911 232.227C38.0286 232.347 37.9713 232.472 37.9348 232.592C37.7161 233.295 37.7942 233.769 38.0129 234.102C38.1484 234.316 38.3515 234.482 38.6119 234.613C38.9244 234.769 39.3306 234.878 39.789 234.982C40.1119 235.06 40.4088 235.087 40.7421 235.081C40.9609 235.081 41.1379 234.899 41.1379 234.68C41.1327 234.462 40.9556 234.284 40.7369 234.29C40.4713 234.29 40.2265 234.274 39.9713 234.212C39.6379 234.133 39.3411 234.06 39.0911 233.962C38.914 233.889 38.7629 233.805 38.6744 233.67C38.5546 233.482 38.5702 233.222 38.69 232.826C38.7317 232.696 38.815 232.566 38.8775 232.435C38.9452 232.3 38.9973 232.154 39.0129 232.008C39.065 231.602 39.0129 231.279 38.9817 230.977C38.9452 230.654 38.9452 230.363 39.2942 229.925C39.5286 229.633 39.8359 229.503 40.1588 229.394C40.5702 229.248 41.0025 229.133 41.3931 228.894C41.9556 228.545 42.4088 228.264 43.0025 228.008C43.2056 227.92 43.2994 227.691 43.2109 227.488C43.1223 227.284 42.8931 227.196 42.69 227.279Z" fill="#D6B29F"/>
</g>
</g>
</g>
</g>
<mask id="mask172_2307_2289" style="mask-type:luminance" maskUnits="userSpaceOnUse" x="44" y="225" width="6" height="4">
<path d="M44.3359 225.666H49.6693V228.333H44.3359V225.666Z" fill="white"/>
</mask>
<g mask="url(#mask172_2307_2289)">
<mask id="mask173_2307_2289" style="mask-type:luminance" maskUnits="userSpaceOnUse" x="0" y="202" width="100" height="126">
<path d="M0.621094 208.885L90.3451 202.328L99.0169 320.969L9.29297 327.526L0.621094 208.885Z" fill="white"/>
</mask>
<g mask="url(#mask173_2307_2289)">
<mask id="mask174_2307_2289" style="mask-type:luminance" maskUnits="userSpaceOnUse" x="0" y="202" width="100" height="126">
<path d="M0.621094 208.885L90.3451 202.328L99.0169 320.969L9.29297 327.526L0.621094 208.885Z" fill="white"/>
</mask>
<g mask="url(#mask174_2307_2289)">
<mask id="mask175_2307_2289" style="mask-type:luminance" maskUnits="userSpaceOnUse" x="0" y="202" width="100" height="126">
<path d="M0.621094 208.885L90.3451 202.328L99.0169 320.969L9.29297 327.526L0.621094 208.885Z" fill="white"/>
</mask>
<g mask="url(#mask175_2307_2289)">
<path fill-rule="evenodd" clip-rule="evenodd" d="M45.1385 227.51C46.3052 227.171 47.4979 227.181 48.6906 227.301C48.9094 227.327 49.1021 227.166 49.1281 226.947C49.149 226.733 48.9875 226.536 48.774 226.515C47.4771 226.385 46.1802 226.385 44.9198 226.749C44.7115 226.806 44.5865 227.03 44.649 227.239C44.7115 227.447 44.9302 227.572 45.1385 227.51Z" fill="#D6B29F"/>
</g>
</g>
</g>
</g>
<mask id="mask176_2307_2289" style="mask-type:luminance" maskUnits="userSpaceOnUse" x="41" y="233" width="12" height="4">
<path d="M41.668 233.666H52.3346V236.333H41.668V233.666Z" fill="white"/>
</mask>
<g mask="url(#mask176_2307_2289)">
<mask id="mask177_2307_2289" style="mask-type:luminance" maskUnits="userSpaceOnUse" x="0" y="202" width="100" height="126">
<path d="M0.621094 208.885L90.3451 202.328L99.0169 320.969L9.29297 327.526L0.621094 208.885Z" fill="white"/>
</mask>
<g mask="url(#mask177_2307_2289)">
<mask id="mask178_2307_2289" style="mask-type:luminance" maskUnits="userSpaceOnUse" x="0" y="202" width="100" height="126">
<path d="M0.621094 208.885L90.3451 202.328L99.0169 320.969L9.29297 327.526L0.621094 208.885Z" fill="white"/>
</mask>
<g mask="url(#mask178_2307_2289)">
<mask id="mask179_2307_2289" style="mask-type:luminance" maskUnits="userSpaceOnUse" x="0" y="202" width="100" height="126">
<path d="M0.621094 208.885L90.3451 202.328L99.0169 320.969L9.29297 327.526L0.621094 208.885Z" fill="white"/>
</mask>
<g mask="url(#mask179_2307_2289)">
<path fill-rule="evenodd" clip-rule="evenodd" d="M42.6043 236.058C42.9845 236.016 43.6877 235.823 44.1199 235.953C44.4377 236.047 44.7293 236.188 45.0731 236.209C45.6252 236.25 46.1824 236.172 46.7345 236.162C48.0627 236.131 49.4689 236.203 50.7085 235.641C51.1043 235.469 51.4377 235.12 51.771 234.86C51.9429 234.724 51.9741 234.48 51.8439 234.302C51.7085 234.131 51.4585 234.099 51.2866 234.235C50.9949 234.459 50.7189 234.766 50.3856 234.922C49.2397 235.433 47.9429 235.339 46.7189 235.37C46.1877 235.381 45.6616 235.459 45.1304 235.422C44.8491 235.401 44.6095 235.271 44.3491 235.193C43.8231 235.037 42.9741 235.219 42.5158 235.266C42.3022 235.292 42.1408 235.49 42.1668 235.703C42.1877 235.922 42.3856 236.078 42.6043 236.058Z" fill="#D6B29F"/>
</g>
</g>
</g>
</g>
<mask id="mask180_2307_2289" style="mask-type:luminance" maskUnits="userSpaceOnUse" x="33" y="228" width="6" height="9">
<path d="M33.668 228.332H39.0013V236.332H33.668V228.332Z" fill="white"/>
</mask>
<g mask="url(#mask180_2307_2289)">
<mask id="mask181_2307_2289" style="mask-type:luminance" maskUnits="userSpaceOnUse" x="0" y="202" width="100" height="126">
<path d="M0.621094 208.883L90.3451 202.326L99.0169 320.967L9.29297 327.524L0.621094 208.883Z" fill="white"/>
</mask>
<g mask="url(#mask181_2307_2289)">
<mask id="mask182_2307_2289" style="mask-type:luminance" maskUnits="userSpaceOnUse" x="0" y="202" width="100" height="126">
<path d="M0.621094 208.883L90.3451 202.326L99.0169 320.967L9.29297 327.524L0.621094 208.883Z" fill="white"/>
</mask>
<g mask="url(#mask182_2307_2289)">
<mask id="mask183_2307_2289" style="mask-type:luminance" maskUnits="userSpaceOnUse" x="0" y="202" width="100" height="126">
<path d="M0.621094 208.883L90.3451 202.326L99.0169 320.967L9.29297 327.524L0.621094 208.883Z" fill="white"/>
</mask>
<g mask="url(#mask183_2307_2289)">
<path fill-rule="evenodd" clip-rule="evenodd" d="M37.3717 230.284C37.4237 230.279 37.6112 230.252 37.6685 230.242C37.8821 230.206 38.0279 229.997 37.9915 229.784C37.955 229.565 37.7467 229.424 37.5331 229.461C37.455 229.471 37.2987 229.482 37.179 229.513C37.0696 229.539 36.9758 229.586 36.9133 229.638C36.5019 229.956 35.1998 231.331 34.9967 231.82C34.8873 232.091 34.9342 232.534 34.981 232.81C35.0175 233.013 35.1217 233.211 35.2623 233.404C35.3925 233.586 35.5644 233.758 35.6477 233.945C35.9758 234.685 36.1112 235.143 36.9237 235.456C37.1269 235.534 37.356 235.435 37.4394 235.232C37.5175 235.023 37.4133 234.794 37.2102 234.716C36.6425 234.497 36.6008 234.138 36.3717 233.622C36.2831 233.424 36.1217 233.226 35.9706 233.034C35.8821 232.914 35.7883 232.805 35.7675 232.674C35.7467 232.581 35.7258 232.456 35.7206 232.331C35.7154 232.252 35.705 232.18 35.731 232.122C35.8977 231.716 36.9862 230.601 37.3717 230.284Z" fill="#D6B29F"/>
</g>
</g>
</g>
</g>
<mask id="mask184_2307_2289" style="mask-type:luminance" maskUnits="userSpaceOnUse" x="52" y="226" width="6" height="9">
<path d="M52.3359 226.998H57.6693V234.998H52.3359V226.998Z" fill="white"/>
</mask>
<g mask="url(#mask184_2307_2289)">
<mask id="mask185_2307_2289" style="mask-type:luminance" maskUnits="userSpaceOnUse" x="0" y="202" width="100" height="126">
<path d="M0.621094 208.883L90.3451 202.326L99.0169 320.967L9.29297 327.524L0.621094 208.883Z" fill="white"/>
</mask>
<g mask="url(#mask185_2307_2289)">
<mask id="mask186_2307_2289" style="mask-type:luminance" maskUnits="userSpaceOnUse" x="0" y="202" width="100" height="126">
<path d="M0.621094 208.883L90.3451 202.326L99.0169 320.967L9.29297 327.524L0.621094 208.883Z" fill="white"/>
</mask>
<g mask="url(#mask186_2307_2289)">
<mask id="mask187_2307_2289" style="mask-type:luminance" maskUnits="userSpaceOnUse" x="0" y="202" width="100" height="126">
<path d="M0.621094 208.883L90.3451 202.326L99.0169 320.967L9.29297 327.524L0.621094 208.883Z" fill="white"/>
</mask>
<g mask="url(#mask187_2307_2289)">
<path fill-rule="evenodd" clip-rule="evenodd" d="M55.3651 227.935C55.5579 228.117 55.8443 228.31 56.1099 228.524C56.3079 228.68 56.5006 228.847 56.5839 229.045C56.6412 229.185 56.5735 229.258 56.511 229.341C56.386 229.498 56.2454 229.664 56.162 229.899C56.0579 230.19 56.037 230.519 56.0266 230.852C56.0214 231.112 56.0214 231.367 55.9589 231.602C55.8495 231.982 55.5631 232.321 55.2193 232.628C54.636 233.154 53.886 233.576 53.3912 233.878C53.2089 233.992 53.1516 234.237 53.2662 234.425C53.3808 234.612 53.6256 234.67 53.8079 234.555C54.3339 234.232 55.1308 233.774 55.7506 233.216C56.2089 232.805 56.5735 232.331 56.7193 231.821C56.8026 231.524 56.8131 231.201 56.8235 230.878C56.8287 230.628 56.8339 230.383 56.912 230.164C56.9797 229.972 57.1256 229.852 57.2193 229.716C57.3964 229.456 57.5006 229.18 57.3183 228.742C57.2089 228.487 57.011 228.253 56.7662 228.039C56.4797 227.784 56.1308 227.565 55.9016 227.357C55.7401 227.206 55.4901 227.216 55.3391 227.378C55.1933 227.539 55.2037 227.789 55.3651 227.935Z" fill="#D6B29F"/>
</g>
</g>
</g>
</g>
</g>
</svg>
