<svg width="33" height="46" viewBox="0 0 33 46" fill="none" xmlns="http://www.w3.org/2000/svg">
<mask id="mask0_2301_6" style="mask-type:luminance" maskUnits="userSpaceOnUse" x="0" y="0" width="24" height="24">
<path d="M0 0H23.2642V23.7159H0V0Z" fill="white"/>
</mask>
<g mask="url(#mask0_2301_6)">
<mask id="mask1_2301_6" style="mask-type:luminance" maskUnits="userSpaceOnUse" x="0" y="0" width="24" height="24">
<path d="M8.89156 0.0996094L23.197 8.28814L14.4226 23.6153L0.117188 15.4267L8.89156 0.0996094Z" fill="white"/>
</mask>
<g mask="url(#mask1_2301_6)">
<mask id="mask2_2301_6" style="mask-type:luminance" maskUnits="userSpaceOnUse" x="0" y="0" width="24" height="24">
<path d="M23.2642 0H0V23.7159H23.2642V0Z" fill="white"/>
</mask>
<g mask="url(#mask2_2301_6)">
<mask id="mask3_2301_6" style="mask-type:luminance" maskUnits="userSpaceOnUse" x="6" y="3" width="13" height="21">
<path d="M6.32422 3.16211H18.9727V23.2642H6.32422V3.16211Z" fill="white"/>
</mask>
<g mask="url(#mask3_2301_6)">
<mask id="mask4_2301_6" style="mask-type:luminance" maskUnits="userSpaceOnUse" x="0" y="0" width="24" height="24">
<path d="M8.89156 0.0976562L23.197 8.28618L14.4226 23.6133L0.117188 15.4248L8.89156 0.0976562Z" fill="white"/>
</mask>
<g mask="url(#mask4_2301_6)">
<mask id="mask5_2301_6" style="mask-type:luminance" maskUnits="userSpaceOnUse" x="0" y="0" width="24" height="24">
<path d="M23.5798 8.50582L9.27437 0.316406L0.5 15.6435L14.8054 23.8329L23.5798 8.50582Z" fill="white"/>
</mask>
<g mask="url(#mask5_2301_6)">
<path d="M14.7039 3.45405C14.7066 3.46376 14.7498 3.50346 14.801 3.53963C14.898 3.61198 15.1089 3.8052 15.1557 3.86785C15.1715 3.88902 15.1795 3.94549 15.1751 3.99754C15.1565 4.15988 15.0586 4.26135 14.711 4.47486C14.4798 4.61691 14.4022 4.64867 14.2628 4.65838C14.2063 4.66455 14.1128 4.67514 14.0537 4.68573C13.9381 4.70514 13.6161 4.71837 12.9561 4.72543C11.8735 4.73955 10.6922 4.77837 10.6992 4.7969C10.701 4.80395 10.8369 4.85248 11.0036 4.90718C11.5568 5.08982 11.9468 5.24069 12.5423 5.50537C12.9129 5.67125 13.9205 6.2412 14.2134 6.45119C14.4869 6.64882 15.0851 7.11643 15.3559 7.34583C15.9956 7.88667 16.9873 8.87307 17.4064 9.38304C18.2357 10.3941 18.6469 11.4635 18.7951 13.004C18.8886 13.9701 18.7845 14.8991 18.4563 16.0408C18.0849 17.3289 17.7249 18.2774 17.1346 19.5205C16.6732 20.4902 16.3406 21.0698 15.9674 21.5586C15.723 21.878 15.5783 22.0457 15.2271 22.4065C15.0586 22.5786 14.8672 22.7815 14.801 22.8565C14.6642 23.0144 14.5381 23.1035 14.4313 23.1194C14.3651 23.1282 14.3537 23.1256 14.336 23.0903C14.3087 23.0365 14.3122 22.9421 14.3493 22.785C14.3766 22.6624 14.3942 22.628 14.5548 22.365C14.651 22.2089 14.8098 21.976 14.9051 21.8498C15.4609 21.1175 15.7865 20.5078 16.1694 19.4782C16.5162 18.5456 16.7058 17.9051 17.012 16.631C17.3287 15.3129 17.3808 15.0385 17.3958 14.6238C17.4143 14.0892 17.3332 13.3727 17.169 12.6299C16.9873 11.8093 16.6273 11.0567 16.0953 10.388C15.7512 9.95476 14.9201 9.11129 14.3343 8.59956C13.6972 8.04284 13.2826 7.74551 12.6006 7.35377C11.6468 6.80499 10.6833 6.38149 9.44284 5.95799C9.08463 5.83623 8.52879 5.66948 8.5032 5.67389C8.4935 5.67654 8.67701 5.88388 8.91082 6.13268C9.97045 7.25407 10.2819 7.63257 10.4786 8.02784C10.7495 8.56957 10.9392 9.3451 10.918 9.81359C10.9066 10.0792 10.8898 10.1568 10.8324 10.2009C10.7601 10.2565 10.678 10.2292 10.3428 10.035C10.0278 9.85241 9.80899 9.69096 9.47284 9.39892C9.07316 9.05306 8.91435 8.8766 8.61702 8.46634C8.54555 8.36576 8.23499 7.95196 7.92971 7.54964C7.33329 6.75911 6.89655 6.12386 6.70774 5.77359C6.56481 5.50626 6.44659 5.22392 6.43512 5.12423C6.42276 5.02276 6.4457 4.67073 6.46688 4.63367C6.47658 4.61779 6.48452 4.58162 6.48188 4.55515C6.47658 4.4431 6.59305 4.13783 6.67775 4.03901C6.75098 3.95607 6.8295 3.93666 7.16124 3.92255C7.74002 3.90049 8.20234 3.85461 8.52702 3.78579C9.07845 3.66933 9.23727 3.6411 9.92457 3.53258C10.8386 3.38965 12.7073 3.2723 13.5914 3.30406C14.2107 3.327 14.5628 3.35788 14.6316 3.39759C14.6686 3.41876 14.7013 3.44346 14.7039 3.45405Z" fill="white"/>
</g>
</g>
</g>
</g>
</g>
</g>
<path d="M4.4759 41.268C4.07357 41.021 3.83359 40.6663 3.75595 40.2022C3.67831 39.7363 3.71624 39.2105 3.86888 38.6247C4.01975 38.0388 4.22533 37.4309 4.48648 36.8001C4.74764 36.1675 5.02644 35.5534 5.32289 34.9579C5.6167 34.3606 5.87432 33.8374 6.09578 33.3874C5.88844 33.4721 5.6864 33.5656 5.48876 33.6662C5.28937 33.765 5.07585 33.8418 4.84999 33.8956C4.73529 33.9238 4.62765 33.9124 4.52883 33.8603C4.43002 33.8065 4.36649 33.7218 4.33826 33.6062C4.30826 33.4774 4.32326 33.3618 4.38414 33.2603C4.4459 33.1598 4.53413 33.0945 4.64882 33.0662C4.92675 33.0009 5.20908 32.9551 5.49582 32.9286C5.77992 32.9004 6.05519 32.8713 6.32164 32.8404C6.55898 32.3207 6.79543 31.7622 7.03101 31.164C7.26569 30.5641 7.49333 29.9879 7.71213 29.4347C7.93271 28.8824 8.13563 28.4113 8.31915 28.0231C8.49561 27.6207 8.72235 27.3561 9.00028 27.229C9.27996 27.1002 9.53494 27.0843 9.7661 27.1831C9.99638 27.2819 10.1437 27.4672 10.2072 27.7372C10.2725 28.0054 10.1808 28.3328 9.93197 28.7183C9.67964 29.1065 9.29849 29.6174 8.78853 30.25C8.27768 30.8808 7.75801 31.6713 7.22864 32.6216C7.48009 32.528 7.72272 32.4328 7.95564 32.3357C8.19033 32.2369 8.43914 32.1557 8.7003 32.0922C8.81499 32.064 8.92352 32.0816 9.02498 32.1451C9.12556 32.2069 9.19173 32.3022 9.22261 32.431C9.25085 32.5466 9.2332 32.6498 9.16967 32.7416C9.10615 32.8333 9.01616 32.8933 8.90146 32.9215C8.59266 32.9974 8.27062 33.0371 7.93447 33.0415C7.60008 33.0442 7.27452 33.0645 6.95689 33.1015L6.69221 33.6309C5.99079 35.0761 5.49847 36.3148 5.21349 37.3471C4.92939 38.3803 5.0185 39.072 5.48171 39.4223C5.87697 39.7099 6.43987 39.5669 7.17217 38.9952C7.90359 38.4217 8.71618 37.3462 9.61082 35.7696L9.80139 35.8049C9.43171 36.636 9.01439 37.4247 8.54854 38.1729C8.08269 38.9211 7.60979 39.5687 7.12982 40.114C6.64986 40.6601 6.17783 41.0448 5.71463 41.268C5.25407 41.4912 4.84116 41.4912 4.4759 41.268Z" fill="white"/>
<path d="M11.3738 39.4544C10.8303 39.1914 10.5339 38.7591 10.4844 38.1592C10.435 37.5592 10.5718 36.8728 10.8938 36.0981C11.2141 35.3217 11.6314 34.5374 12.1467 33.7442C12.6637 32.9607 13.2125 32.3069 13.7913 31.782C14.37 31.2552 14.9171 30.882 15.4323 30.6632C15.9493 30.4444 16.364 30.4091 16.6746 30.5573C16.926 30.6729 17.0857 30.8767 17.1546 31.1679C17.1846 31.0744 17.2145 30.9808 17.2428 30.8891C17.271 30.7956 17.3107 30.7073 17.3628 30.6244C17.4589 30.3774 17.6169 30.2106 17.8357 30.1233C18.0545 30.0368 18.2698 30.0236 18.4815 30.0844C18.695 30.1462 18.853 30.2803 18.9544 30.4868C19.055 30.6941 19.0285 30.972 18.8733 31.3196C18.7744 31.5508 18.6015 31.8517 18.3545 32.2231C18.1074 32.5928 17.841 32.9925 17.5569 33.423C17.2719 33.8518 17.0169 34.2753 16.791 34.6935C16.5652 35.11 16.4187 35.4893 16.3534 35.8299C16.2899 36.1714 16.3676 36.436 16.5864 36.624C17.024 37.0192 17.6107 36.9222 18.3474 36.331C19.0832 35.7382 19.8932 34.6653 20.7755 33.1125L20.9696 33.1689C20.5928 34.0353 20.172 34.8417 19.7061 35.5899C19.242 36.3381 18.7621 36.9751 18.2662 37.4992C17.7722 38.0215 17.2992 38.3806 16.8475 38.5756C16.3975 38.7715 15.997 38.7476 15.6441 38.505C15.3732 38.3127 15.2285 38.0374 15.21 37.6792C15.1932 37.3219 15.2426 36.9231 15.3582 36.4828C14.9647 37.1983 14.543 37.8159 14.0912 38.3356C13.6395 38.8562 13.179 39.2205 12.7113 39.4296C12.2455 39.637 11.7991 39.6449 11.3738 39.4544ZM12.7819 37.6686C13.0519 37.8618 13.336 37.8759 13.6325 37.711C13.9289 37.5468 14.2192 37.2751 14.5042 36.8957C14.7909 36.5146 15.0759 36.0875 15.3582 35.6146C15.6405 35.1417 15.8955 34.6988 16.124 34.2841C16.2581 33.9056 16.3764 33.5413 16.4805 33.1901C16.5864 32.8372 16.6993 32.4825 16.8193 32.1243C16.8757 31.7837 16.8687 31.5235 16.7981 31.3444C16.7275 31.1635 16.6128 31.0303 16.4558 30.9456C16.1637 30.7929 15.7941 30.8644 15.3476 31.1608C14.903 31.4573 14.4565 31.8799 14.0101 32.4278C13.5654 32.9739 13.1922 33.5492 12.8913 34.1536C12.5261 34.8647 12.3073 35.5511 12.2349 36.2146C12.1643 36.8763 12.3461 37.3607 12.7819 37.6686Z" fill="white"/>
<path d="M18.7917 45.2624C18.677 45.5659 18.5076 45.7741 18.2835 45.887C18.0603 46.0017 17.8424 46.0291 17.6307 45.9682C17.4189 45.9064 17.2627 45.7723 17.1613 45.5659C17.058 45.3585 17.073 45.1009 17.2072 44.793C17.3554 44.4136 17.5724 43.9178 17.8565 43.3037C18.1389 42.6914 18.5059 41.892 18.9576 40.9039C19.4076 39.9175 19.9458 38.6876 20.574 37.2124C20.7178 36.8877 20.8898 36.4386 21.0892 35.8642C21.2869 35.2907 21.5004 34.6705 21.728 34.0044C21.9539 33.3391 22.1824 32.6809 22.4127 32.0316C22.6429 31.3822 22.8591 30.7964 23.062 30.274C23.2641 29.7517 23.437 29.3618 23.5808 29.1024C23.8226 28.6815 24.0934 28.4662 24.3925 28.4565C24.6907 28.4451 24.9254 28.5748 25.0948 28.8447C25.2642 29.1129 25.243 29.4535 25.0313 29.8647L24.389 31.054C24.9016 30.327 25.4195 29.6767 25.9418 29.1024C26.4659 28.5289 26.9723 28.1054 27.4594 27.8319C27.9481 27.5592 28.3849 27.5063 28.7687 27.6731C29.2292 27.8733 29.5292 28.2148 29.6686 28.6965C29.8098 29.1791 29.8283 29.7429 29.7251 30.387C29.6236 31.0319 29.4304 31.691 29.1463 32.3633C28.8922 32.9588 28.5852 33.5315 28.2252 34.082C27.867 34.6326 27.4858 35.1037 27.0817 35.4937C27.2529 35.4848 27.4382 35.4478 27.6358 35.3843C27.8352 35.3207 28.0425 35.2281 28.2569 35.1055C28.8869 34.7314 29.5636 34.1473 30.2862 33.3515C31.0079 32.5565 31.6635 31.6319 32.252 30.5775L32.4743 30.6305C31.9873 31.6945 31.3379 32.6686 30.5262 33.5526C29.7163 34.4349 28.8931 35.1425 28.0558 35.6737C27.2626 36.173 26.5082 36.4774 25.7936 36.5877C25.0807 36.6989 24.5266 36.5365 24.1314 36.1007C23.4961 35.529 23.4943 34.7455 24.1278 33.7503C24.3043 33.4662 24.5143 33.3506 24.7596 33.4044C25.0039 33.4591 25.1778 33.5941 25.2819 33.8103C25.3851 34.0247 25.3066 34.2655 25.0454 34.5337C24.8354 34.7384 24.6299 34.9564 24.4278 35.1866C24.2249 35.4178 24.2064 35.6331 24.3713 35.8325C24.5425 36.0327 24.764 36.0539 25.0348 35.896C25.3048 35.7363 25.5977 35.454 25.9136 35.049C26.2312 34.6449 26.5471 34.1685 26.8629 33.6197C27.1806 33.0718 27.4576 32.5098 27.6958 31.9327C27.9261 31.3804 28.1131 30.8493 28.2569 30.3411C28.4025 29.8329 28.4599 29.3935 28.4299 29.0212C28.399 28.6497 28.2437 28.4106 27.964 28.3048C27.7117 28.1918 27.3641 28.3242 26.9194 28.7C26.4765 29.0741 25.9983 29.5912 25.483 30.2493C24.9695 30.9058 24.456 31.6151 23.9408 32.3774C23.4255 33.138 22.9703 33.8658 22.575 34.562C22.3659 34.9908 22.1444 35.4363 21.9115 35.8995C21.6768 36.361 21.4457 36.8339 21.2198 37.3182C21.0839 37.6076 20.9189 38.0461 20.7257 38.6346C20.5307 39.2249 20.3305 39.8804 20.1258 40.6004C19.9211 41.3221 19.7234 42.02 19.5329 42.6931C19.3405 43.3681 19.1755 43.9407 19.0388 44.4118C18.9029 44.8848 18.82 45.168 18.7917 45.2624Z" fill="white"/>
</svg>
