<svg width="181" height="66" viewBox="0 0 181 66" fill="none" xmlns="http://www.w3.org/2000/svg">
<mask id="mask0_2325_896" style="mask-type:luminance" maskUnits="userSpaceOnUse" x="0" y="0" width="181" height="66">
<path d="M180.668 0.666016H0.667969V65.9994H180.668V0.666016Z" fill="white"/>
</mask>
<g mask="url(#mask0_2325_896)">
<mask id="mask1_2325_896" style="mask-type:luminance" maskUnits="userSpaceOnUse" x="0" y="3" width="31" height="29">
<path d="M0.773438 3.33203H30.0026V31.332H0.773438V3.33203Z" fill="white"/>
</mask>
<g mask="url(#mask1_2325_896)">
<path d="M11.8047 29.8566C10.4974 30.0076 9.20573 29.9659 7.92969 29.7316C6.64844 29.5128 5.49219 29.1014 4.45052 28.5024C3.41927 27.9087 2.59635 27.143 1.97135 26.2107C1.35677 25.2837 1.05469 24.2003 1.05469 22.9607C1.05469 21.9503 1.35156 21.0232 1.95052 20.1899C2.54427 19.3462 3.3776 18.6691 4.45052 18.1691C5.51823 17.6587 6.7526 17.3878 8.15885 17.3566C9.5599 17.3305 11.0547 17.6014 12.638 18.1691C13.1641 18.3514 13.4974 18.6274 13.638 19.0024C13.7891 19.367 13.7943 19.7212 13.6589 20.0649C13.5182 20.4139 13.2891 20.6639 12.9714 20.8149C12.6484 20.9555 12.2734 20.9139 11.8464 20.6899C10.4557 19.8982 9.15885 19.393 7.95052 19.1691C6.7526 18.9347 5.70052 18.9399 4.78385 19.1899C3.8776 19.4295 3.17969 19.8722 2.67969 20.5232C2.1901 21.1639 1.98177 21.9607 2.05469 22.9191C2.1224 23.867 2.42969 24.6795 2.97135 25.3566C3.52344 26.0389 4.2474 26.5805 5.13802 26.9816C6.02344 27.3722 7.0026 27.6378 8.07552 27.7732C9.14323 27.8982 10.2109 27.8774 11.2839 27.7107C12.6172 27.5024 13.8568 27.0857 15.013 26.4607C16.1797 25.8253 17.1224 24.9712 17.8464 23.8982C18.5651 22.8305 18.9089 21.5545 18.8672 20.0649C18.8359 19.1222 18.6016 18.268 18.1589 17.5024C17.7109 16.7264 17.2109 15.9816 16.6589 15.2732C16.2005 14.6378 15.7214 13.9712 15.2214 13.2732C14.7318 12.5805 14.3672 11.8514 14.1172 11.0857C13.8776 10.3253 13.8932 9.51282 14.1589 8.64824C14.4766 7.58053 15.0651 6.6899 15.9297 5.98157C16.7891 5.26282 17.7839 4.72636 18.9089 4.3774C20.0443 4.01803 21.2057 3.82532 22.388 3.79407C23.5807 3.76803 24.6693 3.90865 25.6589 4.21074C26.6432 4.5024 27.4089 4.95553 27.9505 5.5649C28.5026 6.17949 28.7214 6.9399 28.5964 7.85657C28.4557 8.6899 28.0859 9.38782 27.4922 9.9399C26.8932 10.4816 26.1849 10.9191 25.3672 11.2524C24.5443 11.5857 23.7422 11.8149 22.9505 11.9399C22.1589 12.0649 21.4974 12.1066 20.9714 12.0649C20.4714 11.9972 20.1484 11.7941 20.013 11.4607C19.888 11.1274 19.9297 10.8253 20.138 10.5441C20.3464 10.2524 20.6797 10.1639 21.138 10.2732C22.888 10.7212 24.2682 10.7941 25.2839 10.5024C26.3099 10.2003 26.7318 9.34615 26.5547 7.9399C26.4401 7.01282 26.0755 6.26803 25.4505 5.71074C24.8255 5.14303 24.0651 4.77324 23.1797 4.60657C22.3047 4.4399 21.3984 4.47636 20.4714 4.71074C19.5391 4.9347 18.7109 5.36699 17.9922 6.0024C17.2682 6.64303 16.7526 7.51803 16.4505 8.6274C16.0859 10.1014 16.013 11.3097 16.2214 12.2524C16.4297 13.1847 16.7839 14.018 17.2839 14.7524C17.6589 15.2837 18.0547 15.7941 18.4714 16.2941C18.8984 16.7837 19.2943 17.3097 19.6589 17.8774C20.0339 18.4347 20.2943 19.0962 20.4505 19.8566C20.8255 21.3722 20.7266 22.8462 20.1589 24.2732C19.6016 25.6899 18.6224 26.9087 17.2214 27.9191C15.8151 28.9347 14.013 29.5805 11.8047 29.8566Z" fill="white"/>
</g>
<path d="M24.1021 29.1897C23.4666 28.6637 23.2062 27.997 23.3312 27.1897C23.4562 26.372 23.8521 25.497 24.5187 24.5647C25.1958 23.6376 26.0083 22.721 26.9562 21.8147C27.8989 20.9397 28.8416 20.247 29.7896 19.7314C30.7323 19.221 31.5812 18.898 32.3312 18.773C33.0916 18.648 33.6541 18.7314 34.0187 19.023C34.3208 19.2626 34.4771 19.5855 34.4771 20.0022C34.5448 19.8772 34.6125 19.7626 34.6854 19.648C34.7531 19.5387 34.8312 19.4345 34.9146 19.3355C35.1229 19.0439 35.3833 18.8772 35.7062 18.8355C36.0396 18.7835 36.3364 18.8303 36.6021 18.9814C36.8625 19.122 37.0239 19.3512 37.0812 19.6689C37.1489 19.9762 37.0239 20.3355 36.7062 20.7522C36.4979 21.0335 36.1698 21.3772 35.7271 21.7939C35.2791 22.2001 34.8 22.6428 34.2896 23.1272C33.7739 23.6168 33.2948 24.1012 32.8521 24.5855C32.4198 25.0595 32.1073 25.5178 31.9146 25.9605C31.7166 26.3928 31.7323 26.7678 31.9562 27.0855C32.4146 27.7522 33.2271 27.8147 34.3937 27.273C35.5708 26.721 37.0031 25.5439 38.6854 23.7522L38.9146 23.8772C38.1333 24.9189 37.3156 25.8668 36.4562 26.7105C35.5916 27.5595 34.7479 28.2522 33.9146 28.7939C33.0916 29.3355 32.3521 29.6585 31.6854 29.773C31.0187 29.898 30.4875 29.7366 30.1021 29.2939C29.7948 28.9501 29.6854 28.5387 29.7687 28.0647C29.8625 27.5803 30.0656 27.0595 30.3729 26.5022C29.6073 27.3355 28.8416 28.0335 28.0812 28.5855C27.3156 29.1272 26.5864 29.4605 25.8937 29.5855C25.1958 29.7105 24.6021 29.5803 24.1021 29.1897ZM26.5396 27.273C26.8416 27.6064 27.2166 27.7105 27.6646 27.5855C28.1073 27.4605 28.5812 27.2001 29.0812 26.7939C29.5916 26.3772 30.1125 25.898 30.6437 25.3564C31.1698 24.8147 31.6541 24.3043 32.1021 23.8147C32.3937 23.3564 32.6646 22.9137 32.9146 22.4814C33.175 22.0387 33.4406 21.6012 33.7062 21.1689C33.8989 20.7262 33.9771 20.372 33.9354 20.1064C33.9041 19.846 33.7948 19.6376 33.6021 19.4814C33.2687 19.1793 32.7531 19.1585 32.0604 19.4189C31.3625 19.6689 30.6333 20.0855 29.8729 20.6689C29.1073 21.2522 28.425 21.898 27.8312 22.6064C27.1073 23.4397 26.5916 24.2887 26.2896 25.148C25.9823 26.0126 26.0656 26.721 26.5396 27.273Z" fill="white"/>
<path d="M39.1593 29.3565C38.6489 28.9294 38.5239 28.2679 38.7843 27.3773C39.0499 26.4763 39.6437 25.4294 40.576 24.2315C41.3104 23.2731 41.977 22.3356 42.576 21.419C43.1697 20.4919 43.6489 19.794 44.0135 19.3356C44.2635 19.0179 44.5447 18.8461 44.8676 18.8148C45.201 18.7731 45.477 18.8461 45.701 19.0231C45.9354 19.2054 46.0395 19.4606 46.0135 19.794C45.9822 20.1273 45.7426 20.5023 45.2843 20.919C44.826 21.3669 44.1906 21.8929 43.3885 22.5023C42.5812 23.1013 41.8104 23.8252 41.076 24.669C40.6697 25.1846 40.4354 25.7263 40.3676 26.294C40.2947 26.8513 40.477 27.3252 40.9093 27.7106C41.5031 28.2679 42.3051 28.3565 43.3051 27.9815C44.3051 27.5961 45.3676 26.8721 46.4926 25.8148C46.3104 25.1794 46.4406 24.3096 46.8885 23.2106C47.3312 22.1013 48.2218 20.7731 49.5551 19.2315C49.8312 18.9138 50.1801 18.7679 50.5968 18.794C51.0135 18.8096 51.352 18.9502 51.6176 19.2106C51.8781 19.4763 51.9093 19.8148 51.701 20.2315C51.6593 20.3461 51.5968 20.4711 51.5135 20.6065C51.4301 20.7315 51.2947 20.9294 51.1176 21.1898C50.9354 21.4554 50.6229 21.8565 50.1801 22.3981C49.9562 22.7471 49.701 23.0961 49.4093 23.4398C49.1176 23.7888 48.8104 24.1377 48.4926 24.4815L47.701 25.4398C48.0447 25.8981 48.5239 26.1898 49.1385 26.3148C49.7479 26.4398 50.451 26.3044 51.2426 25.8981C52.0447 25.4971 52.9197 24.7627 53.8676 23.6898L54.1176 23.8148C53.326 24.8304 52.477 25.6221 51.576 26.1898C50.6854 26.7471 49.8468 27.0804 49.0551 27.1898C48.2635 27.2888 47.6281 27.1638 47.1593 26.8148C46.9926 26.7054 46.826 26.5336 46.6593 26.294C45.7426 27.1429 44.7947 27.8877 43.826 28.5231C42.8676 29.1481 41.977 29.5544 41.1593 29.7315C40.352 29.9242 39.6854 29.7992 39.1593 29.3565Z" fill="white"/>
<path d="M56.461 29.3563C55.6693 28.8302 55.2214 28.1636 55.1277 27.3563C55.0443 26.5386 55.1954 25.6688 55.586 24.7521C55.9714 23.8354 56.5287 22.9604 57.2527 22.1271C57.9714 21.2521 58.7839 20.5177 59.6902 19.9188C60.6068 19.325 61.487 18.9552 62.336 18.8146C63.1954 18.6636 63.8777 18.8042 64.3777 19.2313C64.7214 19.5386 64.862 19.9761 64.7943 20.5438C64.737 21.1167 64.5079 21.7313 64.1068 22.3979C63.7162 23.0542 63.1745 23.6688 62.4818 24.2521C61.7839 24.8354 60.961 25.2729 60.0027 25.5646C59.5547 25.7052 59.2006 25.6896 58.9402 25.5229C58.6745 25.3563 58.5131 25.1271 58.461 24.8354C58.4037 24.5334 58.4506 24.2625 58.6068 24.0229C58.7735 23.7729 59.0652 23.6479 59.4818 23.6479C60.5756 23.6479 61.4662 23.4813 62.1485 23.1479C62.8256 22.8146 63.336 22.4084 63.6693 21.9188C64.0027 21.4188 64.1693 20.9396 64.1693 20.4813C64.1693 20.0229 64.0443 19.6792 63.7943 19.4396C63.487 19.1479 63.0912 19.0854 62.6068 19.2521C62.1329 19.4084 61.6172 19.7052 61.0652 20.1479C60.5079 20.5959 59.9818 21.1167 59.4818 21.7104C58.9922 22.2677 58.586 22.8719 58.2527 23.5229C57.9193 24.1792 57.7318 24.8146 57.6902 25.4396C57.6485 26.0646 57.7995 26.6271 58.1485 27.1271C58.6172 27.7677 59.2631 28.0542 60.086 27.9813C60.9037 27.9136 61.8256 27.5438 62.8568 26.8771C63.8985 26.2104 64.9818 25.3146 66.1068 24.1896L66.3152 24.3979C65.7318 25.1636 65.0235 25.9344 64.1902 26.7104C63.3672 27.4917 62.4922 28.1636 61.5652 28.7313C60.6329 29.2886 59.7162 29.6479 58.8152 29.8146C57.9245 29.9813 57.1381 29.825 56.461 29.3563Z" fill="white"/>
<path d="M76.6732 29.3983C76.2148 28.94 76.0065 28.3931 76.0482 27.7525C76.0898 27.1015 76.3138 26.414 76.7148 25.69C77.1055 24.9556 77.5794 24.2056 78.1315 23.44C78.6732 22.6796 79.2357 21.9504 79.819 21.2525C80.4023 20.5442 80.9128 19.9296 81.3607 19.3983C81.0534 19.4556 80.7461 19.5181 80.444 19.5858C80.1523 19.6588 79.8451 19.69 79.5273 19.69C79.3711 19.69 79.2357 19.6431 79.1107 19.5442C78.9961 19.4348 78.944 19.2942 78.944 19.1275C78.944 18.9504 78.9961 18.8046 79.1107 18.69C79.2357 18.565 79.3711 18.5025 79.5273 18.5025C79.9128 18.5025 80.3034 18.539 80.694 18.6067C81.0951 18.664 81.4753 18.7108 81.8398 18.7525C82.3242 18.1275 82.819 17.4556 83.319 16.7317C83.819 16.0129 84.3034 15.315 84.7773 14.6483C85.2461 13.9817 85.6732 13.4192 86.0482 12.9608C86.4076 12.4765 86.7982 12.2004 87.2148 12.1275C87.6315 12.0442 87.9701 12.1067 88.2357 12.315C88.5117 12.5233 88.6523 12.815 88.6523 13.19C88.6523 13.565 88.4232 13.9765 87.9648 14.4192C87.5065 14.8515 86.8294 15.4088 85.944 16.0858C85.069 16.7681 84.1211 17.6588 83.1107 18.7525C83.4857 18.7108 83.8398 18.664 84.1732 18.6067C84.5169 18.539 84.8815 18.5025 85.2565 18.5025C85.4076 18.5025 85.5378 18.565 85.6523 18.69C85.7773 18.8046 85.8398 18.9504 85.8398 19.1275C85.8398 19.2942 85.7773 19.4348 85.6523 19.5442C85.5378 19.6431 85.4076 19.69 85.2565 19.69C84.8086 19.69 84.3659 19.6431 83.9232 19.5442C83.4753 19.4348 83.0326 19.3515 82.5898 19.2942L82.0898 19.9192C80.6836 21.6275 79.6211 23.1275 78.9023 24.4192C78.194 25.7004 78.1003 26.6483 78.6107 27.2733C79.0378 27.7733 79.8294 27.7629 80.9857 27.2317C82.1523 26.7056 83.5794 25.5338 85.2773 23.7108L85.5273 23.815C84.7617 24.8046 83.9492 25.7265 83.0898 26.5858C82.2253 27.4348 81.3867 28.1431 80.569 28.7108C79.7617 29.2838 79.0117 29.6379 78.319 29.7942C77.6419 29.9452 77.0898 29.815 76.6732 29.3983Z" fill="white"/>
<path d="M91.0112 29.3575C90.5945 28.8992 90.4174 28.394 90.4904 27.8367C90.5737 27.269 90.8029 26.6856 91.1779 26.0867C91.5633 25.4929 92.0164 24.9096 92.532 24.3367C93.0424 23.769 93.532 23.2325 93.9904 22.7325C94.4591 22.2221 94.8133 21.7742 95.0529 21.3992C95.2872 21.0138 95.3133 20.7273 95.1362 20.545C94.9122 20.295 94.5372 20.3575 94.0112 20.7325C93.4956 21.1075 92.8654 21.6908 92.1154 22.4825C91.4487 23.1648 90.7456 23.9304 90.0112 24.7742C89.2872 25.6075 88.6154 26.4148 87.9904 27.1908C87.3758 27.9565 86.8758 28.5867 86.4904 29.0867C86.1466 29.5033 85.756 29.7169 85.3237 29.7325C84.881 29.7429 84.5477 29.6075 84.3237 29.3158C84.0893 29.0138 84.0945 28.6179 84.3445 28.1283C84.5112 27.8263 84.6362 27.6075 84.7195 27.4825C84.8029 27.3471 84.9383 27.1492 85.1154 26.8992C85.2977 26.6388 85.6102 26.2221 86.0529 25.6492C86.4799 25.0658 87.1154 24.2221 87.9487 23.1075C88.7924 21.9981 89.9174 20.4981 91.3237 18.6075C91.5841 18.2221 91.9591 17.7065 92.4487 17.0658C92.9331 16.4304 93.4539 15.7221 94.0112 14.9408C94.5789 14.1492 95.1414 13.3888 95.6987 12.6492C96.2664 11.8992 96.782 11.2273 97.2404 10.6283C97.6987 10.0346 98.0633 9.58147 98.3445 9.27417C98.8029 8.7898 99.2508 8.58147 99.6987 8.64917C100.157 8.70647 100.459 8.93043 100.615 9.31584C100.782 9.70647 100.657 10.1804 100.24 10.7325C100.058 10.9565 99.5424 11.4513 98.6987 12.2117C97.8654 12.9617 96.8549 13.9148 95.6779 15.0658C94.5112 16.2221 93.3289 17.519 92.1362 18.9617C91.9799 19.17 91.6987 19.545 91.282 20.0867C90.8654 20.6283 90.3966 21.2325 89.8862 21.8992C89.3862 22.5554 88.9122 23.2117 88.4695 23.8783C88.0372 24.545 87.7039 25.1179 87.4695 25.5867C87.2456 26.0606 87.2195 26.3523 87.3862 26.4617C87.4956 26.5606 87.7195 26.4408 88.0529 26.1075C88.3862 25.7742 88.7716 25.3523 89.2195 24.8367C89.6779 24.3263 90.1258 23.795 90.5737 23.2533C91.0164 22.7117 91.3914 22.2846 91.6987 21.9617C92.5008 21.1179 93.2091 20.394 93.8237 19.795C94.4487 19.2013 95.0164 18.8158 95.532 18.6492C96.0424 18.4721 96.532 18.5867 96.9904 19.0033C97.3237 19.295 97.4331 19.6804 97.3237 20.1492C97.2247 20.6231 96.9956 21.1492 96.6362 21.7325C96.2716 22.3054 95.8654 22.8888 95.407 23.4825C94.9487 24.0815 94.5216 24.6596 94.1362 25.2117C93.7456 25.7533 93.4591 26.2325 93.282 26.6492C93.1154 27.0658 93.1362 27.3731 93.3445 27.5658C93.6466 27.8471 94.1466 27.8888 94.8445 27.6908C95.5529 27.4981 96.3654 27.0658 97.282 26.3992C98.2091 25.7325 99.1779 24.8731 100.178 23.8158L100.449 23.9617C99.6154 24.9096 98.7404 25.8054 97.8237 26.6492C96.907 27.4981 96.0008 28.2117 95.1154 28.795C94.2404 29.3679 93.4331 29.7169 92.6987 29.8575C91.9747 29.9929 91.4122 29.8263 91.0112 29.3575Z" fill="white"/>
<path d="M102.828 29.3563C102.037 28.8302 101.589 28.1636 101.495 27.3563C101.412 26.5386 101.563 25.6688 101.953 24.7521C102.339 23.8354 102.896 22.9604 103.62 22.1271C104.339 21.2521 105.151 20.5177 106.057 19.9188C106.974 19.325 107.854 18.9552 108.703 18.8146C109.563 18.6636 110.245 18.8042 110.745 19.2313C111.089 19.5386 111.229 19.9761 111.162 20.5438C111.104 21.1167 110.875 21.7313 110.474 22.3979C110.083 23.0542 109.542 23.6688 108.849 24.2521C108.151 24.8354 107.328 25.2729 106.37 25.5646C105.922 25.7052 105.568 25.6896 105.307 25.5229C105.042 25.3563 104.88 25.1271 104.828 24.8354C104.771 24.5334 104.818 24.2625 104.974 24.0229C105.141 23.7729 105.432 23.6479 105.849 23.6479C106.943 23.6479 107.833 23.4813 108.516 23.1479C109.193 22.8146 109.703 22.4084 110.037 21.9188C110.37 21.4188 110.537 20.9396 110.537 20.4813C110.537 20.0229 110.412 19.6792 110.162 19.4396C109.854 19.1479 109.458 19.0854 108.974 19.2521C108.5 19.4084 107.984 19.7052 107.432 20.1479C106.875 20.5959 106.349 21.1167 105.849 21.7104C105.359 22.2677 104.953 22.8719 104.62 23.5229C104.287 24.1792 104.099 24.8146 104.057 25.4396C104.016 26.0646 104.167 26.6271 104.516 27.1271C104.984 27.7677 105.63 28.0542 106.453 27.9813C107.271 27.9136 108.193 27.5438 109.224 26.8771C110.266 26.2104 111.349 25.3146 112.474 24.1896L112.682 24.3979C112.099 25.1636 111.391 25.9344 110.557 26.7104C109.734 27.4917 108.859 28.1636 107.932 28.7313C107 29.2886 106.083 29.6479 105.182 29.8146C104.292 29.9813 103.505 29.825 102.828 29.3563Z" fill="white"/>
<path d="M131.251 29.3977C130.876 29.0123 130.693 28.5331 130.709 27.9602C130.735 27.3768 130.902 26.7675 131.209 26.1268C130.443 27.0175 129.646 27.7727 128.813 28.3977C127.99 29.0227 127.219 29.4289 126.501 29.606C125.777 29.7727 125.152 29.6477 124.626 29.231C123.99 28.705 123.73 28.0331 123.855 27.2102C123.98 26.3925 124.376 25.5175 125.042 24.5852C125.719 23.6581 126.532 22.7466 127.48 21.856C128.422 20.981 129.365 20.2883 130.313 19.7727C131.256 19.2623 132.105 18.9393 132.855 18.8143C133.615 18.6789 134.178 18.7623 134.542 19.0643C134.803 19.2466 134.948 19.481 134.98 19.7727C135.006 20.0539 134.964 20.356 134.855 20.6893C135.172 20.2883 135.469 19.9341 135.751 19.6268C136.027 19.3248 136.251 19.0539 136.417 18.8143C136.709 18.455 137.094 17.955 137.584 17.3143C138.068 16.6633 138.594 15.955 139.167 15.1893C139.735 14.4133 140.297 13.6477 140.855 12.8977C141.407 12.1373 141.917 11.455 142.376 10.856C142.834 10.2466 143.172 9.7883 143.396 9.48101C143.771 8.99663 144.146 8.73101 144.521 8.68934C144.896 8.64767 145.214 8.74142 145.48 8.96017C145.74 9.16851 145.881 9.46017 145.896 9.83517C145.907 10.1998 145.719 10.5643 145.334 10.9393C144.969 11.2727 144.334 11.8664 143.417 12.7102C142.511 13.5435 141.49 14.5435 140.355 15.7102C139.214 16.8664 138.115 18.0956 137.063 19.3977C136.146 20.5539 135.323 21.6581 134.605 22.7102C133.881 23.7518 133.376 24.6685 133.084 25.4602C132.792 26.2518 132.818 26.856 133.167 27.2727C133.61 27.7727 134.407 27.7623 135.563 27.231C136.73 26.705 138.157 25.5331 139.855 23.7102L140.105 23.8143C139.339 24.8039 138.527 25.7258 137.667 26.5852C136.803 27.4341 135.964 28.1425 135.146 28.7102C134.339 29.2831 133.589 29.6373 132.896 29.7935C132.198 29.9445 131.652 29.8143 131.251 29.3977ZM127.063 27.2935C127.438 27.7102 127.917 27.8039 128.501 27.5643C129.084 27.3143 129.698 26.8873 130.355 26.2727C131.006 25.6477 131.626 24.981 132.209 24.2727C132.459 23.8873 132.719 23.4914 133.001 23.0852C133.277 22.6841 133.563 22.2935 133.855 21.9185C134.105 21.5331 134.271 21.1425 134.355 20.7518C134.438 20.3664 134.36 20.0852 134.126 19.9185C133.761 19.6268 133.292 19.5383 132.709 19.6477C132.126 19.7623 131.501 20.0331 130.834 20.4602C130.167 20.8768 129.532 21.3873 128.938 21.981C128.339 22.58 127.834 23.2102 127.417 23.8768C127.001 24.5435 126.74 25.1789 126.646 25.7727C126.563 26.3716 126.698 26.8768 127.063 27.2935Z" fill="white"/>
<path d="M141.055 29.1897C140.42 28.6637 140.159 27.997 140.284 27.1897C140.409 26.372 140.805 25.497 141.472 24.5647C142.149 23.6376 142.961 22.721 143.909 21.8147C144.852 20.9397 145.795 20.247 146.743 19.7314C147.685 19.221 148.534 18.898 149.284 18.773C150.045 18.648 150.607 18.7314 150.972 19.023C151.274 19.2626 151.43 19.5855 151.43 20.0022C151.498 19.8772 151.566 19.7626 151.639 19.648C151.706 19.5387 151.784 19.4345 151.868 19.3355C152.076 19.0439 152.336 18.8772 152.659 18.8355C152.993 18.7835 153.29 18.8303 153.555 18.9814C153.816 19.122 153.977 19.3512 154.034 19.6689C154.102 19.9762 153.977 20.3355 153.659 20.7522C153.451 21.0335 153.123 21.3772 152.68 21.7939C152.232 22.2001 151.753 22.6428 151.243 23.1272C150.727 23.6168 150.248 24.1012 149.805 24.5855C149.373 25.0595 149.06 25.5178 148.868 25.9605C148.67 26.3928 148.685 26.7678 148.909 27.0855C149.368 27.7522 150.18 27.8147 151.347 27.273C152.524 26.721 153.956 25.5439 155.639 23.7522L155.868 23.8772C155.086 24.9189 154.269 25.8668 153.409 26.7105C152.545 27.5595 151.701 28.2522 150.868 28.7939C150.045 29.3355 149.305 29.6585 148.639 29.773C147.972 29.898 147.441 29.7366 147.055 29.2939C146.748 28.9501 146.639 28.5387 146.722 28.0647C146.816 27.5803 147.019 27.0595 147.326 26.5022C146.56 27.3355 145.795 28.0335 145.034 28.5855C144.269 29.1272 143.54 29.4605 142.847 29.5855C142.149 29.7105 141.555 29.5803 141.055 29.1897ZM143.493 27.273C143.795 27.6064 144.17 27.7105 144.618 27.5855C145.06 27.4605 145.534 27.2001 146.034 26.7939C146.545 26.3772 147.066 25.898 147.597 25.3564C148.123 24.8147 148.607 24.3043 149.055 23.8147C149.347 23.3564 149.618 22.9137 149.868 22.4814C150.128 22.0387 150.394 21.6012 150.659 21.1689C150.852 20.7262 150.93 20.372 150.889 20.1064C150.857 19.846 150.748 19.6376 150.555 19.4814C150.222 19.1793 149.706 19.1585 149.014 19.4189C148.316 19.6689 147.586 20.0855 146.826 20.6689C146.06 21.2522 145.378 21.898 144.784 22.6064C144.06 23.4397 143.545 24.2887 143.243 25.148C142.935 26.0126 143.019 26.721 143.493 27.273Z" fill="white"/>
<path d="M156.661 29.3983C156.203 28.94 155.995 28.3931 156.036 27.7525C156.078 27.1015 156.302 26.414 156.703 25.69C157.094 24.9556 157.568 24.2056 158.12 23.44C158.661 22.6796 159.224 21.9504 159.807 21.2525C160.391 20.5442 160.901 19.9296 161.349 19.3983C161.042 19.4556 160.734 19.5181 160.432 19.5858C160.141 19.6588 159.833 19.69 159.516 19.69C159.359 19.69 159.224 19.6431 159.099 19.5442C158.984 19.4348 158.932 19.2942 158.932 19.1275C158.932 18.9504 158.984 18.8046 159.099 18.69C159.224 18.565 159.359 18.5025 159.516 18.5025C159.901 18.5025 160.292 18.539 160.682 18.6067C161.083 18.664 161.464 18.7108 161.828 18.7525C162.312 18.1275 162.807 17.4556 163.307 16.7317C163.807 16.0129 164.292 15.315 164.766 14.6483C165.234 13.9817 165.661 13.4192 166.036 12.9608C166.396 12.4765 166.786 12.2004 167.203 12.1275C167.62 12.0442 167.958 12.1067 168.224 12.315C168.5 12.5233 168.641 12.815 168.641 13.19C168.641 13.565 168.411 13.9765 167.953 14.4192C167.495 14.8515 166.818 15.4088 165.932 16.0858C165.057 16.7681 164.109 17.6588 163.099 18.7525C163.474 18.7108 163.828 18.664 164.161 18.6067C164.505 18.539 164.87 18.5025 165.245 18.5025C165.396 18.5025 165.526 18.565 165.641 18.69C165.766 18.8046 165.828 18.9504 165.828 19.1275C165.828 19.2942 165.766 19.4348 165.641 19.5442C165.526 19.6431 165.396 19.69 165.245 19.69C164.797 19.69 164.354 19.6431 163.911 19.5442C163.464 19.4348 163.021 19.3515 162.578 19.2942L162.078 19.9192C160.672 21.6275 159.609 23.1275 158.891 24.4192C158.182 25.7004 158.089 26.6483 158.599 27.2733C159.026 27.7733 159.818 27.7629 160.974 27.2317C162.141 26.7056 163.568 25.5338 165.266 23.7108L165.516 23.815C164.75 24.8046 163.937 25.7265 163.078 26.5858C162.214 27.4348 161.375 28.1431 160.557 28.7108C159.75 29.2838 159 29.6379 158.307 29.7942C157.63 29.9452 157.078 29.815 156.661 29.3983Z" fill="white"/>
<path d="M167.832 29.3563C167.04 28.8302 166.593 28.1636 166.499 27.3563C166.415 26.5386 166.566 25.6688 166.957 24.7521C167.343 23.8354 167.9 22.9604 168.624 22.1271C169.343 21.2521 170.155 20.5177 171.061 19.9188C171.978 19.325 172.858 18.9552 173.707 18.8146C174.566 18.6636 175.249 18.8042 175.749 19.2313C176.093 19.5386 176.233 19.9761 176.165 20.5438C176.108 21.1167 175.879 21.7313 175.478 22.3979C175.087 23.0542 174.546 23.6688 173.853 24.2521C173.155 24.8354 172.332 25.2729 171.374 25.5646C170.926 25.7052 170.572 25.6896 170.311 25.5229C170.046 25.3563 169.884 25.1271 169.832 24.8354C169.775 24.5334 169.822 24.2625 169.978 24.0229C170.145 23.7729 170.436 23.6479 170.853 23.6479C171.947 23.6479 172.837 23.4813 173.52 23.1479C174.197 22.8146 174.707 22.4084 175.04 21.9188C175.374 21.4188 175.54 20.9396 175.54 20.4813C175.54 20.0229 175.415 19.6792 175.165 19.4396C174.858 19.1479 174.462 19.0854 173.978 19.2521C173.504 19.4084 172.988 19.7052 172.436 20.1479C171.879 20.5959 171.353 21.1167 170.853 21.7104C170.363 22.2677 169.957 22.8719 169.624 23.5229C169.29 24.1792 169.103 24.8146 169.061 25.4396C169.02 26.0646 169.171 26.6271 169.52 27.1271C169.988 27.7677 170.634 28.0542 171.457 27.9813C172.275 27.9136 173.197 27.5438 174.228 26.8771C175.27 26.2104 176.353 25.3146 177.478 24.1896L177.686 24.3979C177.103 25.1636 176.395 25.9344 175.561 26.7104C174.738 27.4917 173.863 28.1636 172.936 28.7313C172.004 29.2886 171.087 29.6479 170.186 29.8146C169.296 29.9813 168.509 29.825 167.832 29.3563Z" fill="white"/>
<path d="M52.6641 60.3231C52.1068 57.5315 52.1068 55.021 52.6641 52.7815C53.2161 50.5315 54.2682 48.4481 55.8099 46.5315C56.737 45.3544 57.7786 44.3179 58.9349 43.4273C60.1016 42.5263 61.2943 41.7763 62.5182 41.1773C63.7526 40.5679 64.9557 40.1148 66.1224 39.8231C67.2891 39.521 68.3516 39.3856 69.3099 39.4273C69.6432 39.4429 69.8776 39.5315 70.0182 39.6981C70.1693 39.8544 70.2318 40.0315 70.2057 40.2398C70.1745 40.4481 70.0807 40.6252 69.9141 40.7606C69.7474 40.8856 69.5443 40.9221 69.3099 40.8648C67.7786 40.5471 66.4036 40.5106 65.1849 40.7606C63.9766 41.0106 62.8724 41.4794 61.8724 42.1565C60.8724 42.8388 59.9453 43.6565 59.1016 44.6148C58.2526 45.5627 57.4349 46.5731 56.6432 47.6565C55.8776 48.6721 55.2109 49.7085 54.6432 50.7606C54.0703 51.8023 53.6328 52.8544 53.3307 53.9065C53.0391 54.9481 52.9245 55.9794 52.9974 56.9898C53.0807 57.9898 53.4141 58.9377 53.9974 59.844C54.1901 60.146 54.2474 60.4117 54.1641 60.6356C54.0807 60.87 53.9349 61.0315 53.7266 61.1148C53.5182 61.1981 53.3099 61.1825 53.1016 61.0731C52.8932 60.9585 52.7474 60.7085 52.6641 60.3231Z" fill="white"/>
<path d="M64.1439 57.2598C63.7845 56.9421 63.7012 56.4682 63.8939 55.8432C64.0762 55.2077 64.4876 54.463 65.1439 53.614C65.6543 52.9213 66.1282 52.2494 66.5605 51.5932C66.9876 50.9421 67.3314 50.4577 67.5814 50.1348C67.7585 49.9005 67.9616 49.7755 68.1855 49.7598C68.4199 49.7338 68.623 49.7807 68.7897 49.9057C68.9564 50.0307 69.0241 50.213 68.998 50.4473C68.9824 50.6869 68.8157 50.9577 68.498 51.2598C68.1647 51.5671 67.7116 51.9369 67.1439 52.364C66.571 52.7963 66.0241 53.3171 65.498 53.9265C65.2064 54.2911 65.0293 54.6713 64.9772 55.0723C64.9355 55.463 65.071 55.7963 65.3939 56.0723C65.8105 56.4786 66.373 56.5463 67.0814 56.2807C67.7897 56.0046 68.5449 55.489 69.3522 54.739C69.2272 54.2807 69.3157 53.6661 69.623 52.8848C69.9407 52.0932 70.5814 51.1505 71.5397 50.0515C71.7324 49.8327 71.9772 49.7286 72.2689 49.739C72.5605 49.7546 72.7949 49.8588 72.9772 50.0515C73.1699 50.2338 73.196 50.4682 73.0605 50.7598C73.0189 50.8432 72.9668 50.9369 72.9147 51.0307C72.8574 51.114 72.7585 51.2546 72.623 51.4473C72.498 51.6296 72.2793 51.9161 71.9772 52.3015C71.8105 52.5515 71.623 52.8015 71.4147 53.0515C71.2168 53.2911 71.0032 53.5307 70.7689 53.7807L70.2064 54.4682C70.4564 54.7911 70.7949 54.9994 71.2272 55.0932C71.6543 55.1765 72.1543 55.0827 72.7272 54.8015C73.2949 54.5098 73.9199 53.9838 74.6022 53.2182L74.7689 53.3015C74.2116 54.0255 73.6126 54.588 72.9772 54.989C72.3366 55.3952 71.7324 55.6296 71.1647 55.6973C70.6074 55.7702 70.1543 55.6869 69.8105 55.4473C69.696 55.364 69.5866 55.239 69.4772 55.0723C68.821 55.6869 68.1491 56.213 67.4564 56.6557C66.7741 57.1036 66.1439 57.3848 65.5605 57.5098C64.9876 57.6452 64.5189 57.5619 64.1439 57.2598Z" fill="white"/>
<path d="M74.5195 57.2389C74.2695 56.9368 74.207 56.5722 74.332 56.1556C74.4466 55.7389 74.6602 55.2962 74.9779 54.8222C75.2799 54.3378 75.5872 53.8587 75.8945 53.3847C76.2383 52.8431 76.5716 52.3118 76.8945 51.7806C77.2279 51.2389 77.5872 50.6972 77.9779 50.1556C78.1133 49.9628 78.2956 49.8431 78.5195 49.8014C78.7383 49.7597 78.9414 49.791 79.1237 49.8847C79.3164 49.9837 79.4362 50.1347 79.4779 50.3431C79.5299 50.5514 79.457 50.8118 79.2487 51.1139C79.0924 51.3118 78.8529 51.5618 78.5195 51.8639C78.1966 52.1712 77.8424 52.5045 77.457 52.8639C77.082 53.2285 76.7331 53.5878 76.4154 53.9472C76.1081 54.3118 75.8997 54.6503 75.7904 54.9681C75.6758 55.291 75.7331 55.5618 75.957 55.7806C76.3424 56.1451 76.9206 56.1295 77.6862 55.7389C78.4622 55.3535 79.4414 54.5306 80.6237 53.2806L80.7904 53.3639C80.2331 54.0878 79.6445 54.7545 79.0195 55.3639C78.4049 55.9628 77.8008 56.4576 77.207 56.8431C76.6237 57.2181 76.0924 57.4472 75.6237 57.5306C75.1549 57.6243 74.7852 57.5306 74.5195 57.2389ZM79.5195 47.3014C79.7799 46.9264 80.0872 46.692 80.4362 46.5931C80.7799 46.4837 81.0872 46.5201 81.3529 46.6972C81.6029 46.8639 81.7279 47.1347 81.7279 47.5097C81.7383 47.8847 81.6237 48.2389 81.3737 48.5722C81.1341 48.9368 80.8372 49.1712 80.4779 49.2806C80.1289 49.3951 79.8164 49.3639 79.5404 49.1972C79.3008 49.0306 79.1862 48.7597 79.1862 48.3847C79.1862 47.9993 79.2956 47.6347 79.5195 47.3014Z" fill="white"/>
<path d="M86.1792 57.2821C85.9292 57.006 85.8094 56.6675 85.8251 56.2613C85.8355 55.8446 85.9501 55.4071 86.1584 54.9488C85.6167 55.5894 85.0542 56.131 84.4709 56.5738C83.8876 57.0217 83.3355 57.3029 82.8251 57.4279C82.3094 57.5373 81.8667 57.4488 81.4917 57.1571C81.0334 56.7821 80.8563 56.3133 80.9501 55.7404C81.0334 55.1571 81.3146 54.5321 81.7834 53.8654C82.2678 53.1988 82.8459 52.5477 83.5126 51.9071C84.1792 51.2977 84.8459 50.8133 85.5126 50.4488C86.1897 50.0738 86.7938 49.8446 87.3251 49.7613C87.8667 49.6675 88.2678 49.7196 88.5334 49.9279C88.7105 50.0685 88.8147 50.2404 88.8459 50.4488C88.8719 50.6467 88.8459 50.855 88.7626 51.0738C88.9813 50.7977 89.1897 50.5529 89.3876 50.3446C89.5803 50.1258 89.7417 49.9279 89.8667 49.7613C90.0751 49.5008 90.3459 49.1363 90.6792 48.6779C91.023 48.2196 91.398 47.7196 91.8042 47.1779C92.2209 46.6258 92.6219 46.0842 93.0126 45.5529C93.4136 45.0113 93.773 44.5269 94.0959 44.0946C94.4292 43.6675 94.6688 43.3394 94.8251 43.1154C95.0855 42.7821 95.3511 42.605 95.6167 42.5738C95.8928 42.5321 96.1219 42.5894 96.3042 42.7404C96.4969 42.8967 96.5959 43.105 96.5959 43.3654C96.6063 43.631 96.4761 43.8967 96.2001 44.1571C95.9344 44.3967 95.4813 44.8133 94.8459 45.4071C94.2053 46.006 93.4761 46.7196 92.6584 47.5529C91.8511 48.3758 91.0751 49.2508 90.3251 50.1779C89.6688 51.0008 89.0855 51.7821 88.5751 52.5321C88.0594 53.2717 87.7001 53.9227 87.4917 54.4904C87.2938 55.0477 87.3147 55.4696 87.5542 55.7613C87.8719 56.1258 88.4397 56.1154 89.2626 55.7404C90.0803 55.3654 91.0959 54.5321 92.3042 53.2404L92.4917 53.3029C91.9501 54.0113 91.3719 54.6727 90.7626 55.2821C90.148 55.881 89.5542 56.3863 88.9709 56.8029C88.3876 57.2092 87.8459 57.454 87.3459 57.5529C86.8563 57.6623 86.4709 57.5738 86.1792 57.2821ZM83.2209 55.7821C83.4813 56.0738 83.8251 56.1363 84.2417 55.9696C84.6584 55.8029 85.0959 55.5008 85.5542 55.0529C86.023 54.6102 86.4605 54.1363 86.8667 53.6363C87.0438 53.3602 87.2313 53.0842 87.4292 52.8029C87.6219 52.5113 87.8303 52.2352 88.0542 51.9696C88.2313 51.6935 88.3511 51.4175 88.4084 51.1363C88.4605 50.8602 88.4084 50.6675 88.2417 50.5529C87.9761 50.3342 87.6376 50.2613 87.2209 50.3446C86.8042 50.4279 86.3563 50.6258 85.8876 50.9279C85.4136 51.2352 84.9605 51.605 84.5334 52.0321C84.1167 52.4488 83.7626 52.8967 83.4709 53.3654C83.1792 53.8394 82.9969 54.2925 82.9292 54.7196C82.8563 55.1363 82.9553 55.4904 83.2209 55.7821Z" fill="white"/>
<path d="M94.1494 57.26C93.5921 56.885 93.2796 56.4058 93.2119 55.8225C93.1442 55.2391 93.2432 54.6245 93.5244 53.9683C93.8004 53.3172 94.1963 52.6975 94.7119 52.1141C95.2379 51.4891 95.8213 50.9683 96.4619 50.5516C97.0973 50.1245 97.7171 49.8589 98.3161 49.76C98.9254 49.6506 99.4098 49.7495 99.7744 50.0516C100.024 50.26 100.129 50.5725 100.087 50.9891C100.045 51.3954 99.8786 51.8329 99.5869 52.3016C99.3057 52.76 98.9202 53.1975 98.4202 53.6141C97.9307 54.0308 97.3473 54.3433 96.6702 54.5516C96.3629 54.6506 96.1129 54.6454 95.9202 54.5308C95.7379 54.4058 95.6286 54.2391 95.5869 54.0308C95.5452 53.812 95.5765 53.6141 95.6911 53.4475C95.8004 53.2808 96.0036 53.1975 96.2952 53.1975C97.0869 53.1975 97.7171 53.0829 98.1911 52.8433C98.6754 52.5933 99.0348 52.2964 99.2744 51.9475C99.5088 51.6037 99.6286 51.2704 99.6286 50.9475C99.6286 50.6141 99.5348 50.3641 99.3577 50.1975C99.1494 49.9891 98.8682 49.9422 98.5244 50.0516C98.1911 50.1662 97.8213 50.3797 97.4202 50.6975C97.0296 51.0204 96.6546 51.3954 96.2952 51.8225C95.9619 52.2131 95.6754 52.6454 95.4411 53.1141C95.2015 53.5725 95.0661 54.0256 95.0244 54.4683C94.9932 54.9006 95.0973 55.2964 95.3369 55.6558C95.6807 56.1141 96.1494 56.3225 96.7327 56.2808C97.3161 56.2287 97.9723 55.9631 98.7119 55.4891C99.4463 55.0204 100.212 54.3797 101.004 53.5725L101.149 53.7183C100.743 54.26 100.243 54.812 99.6494 55.3641C99.0661 55.9214 98.4411 56.4006 97.7744 56.8016C97.1182 57.2079 96.4723 57.4579 95.8369 57.5725C95.1963 57.6818 94.6338 57.5777 94.1494 57.26Z" fill="white"/>
<path d="M102.426 57.3238C101.957 56.9488 101.728 56.4801 101.739 55.9072C101.754 55.3395 101.947 54.7197 102.322 54.053C102.697 53.3759 103.187 52.6988 103.801 52.0322C104.395 51.3655 105.015 50.8343 105.655 50.428C106.291 50.0113 106.89 49.7561 107.447 49.6572C107.999 49.5634 108.452 49.652 108.801 49.928C109.285 50.303 109.447 50.9176 109.28 51.7613C109.124 52.5947 108.707 53.4697 108.03 54.3863C108.155 54.5686 108.384 54.6676 108.718 54.678C109.062 54.6936 109.489 54.5686 109.989 54.303C110.489 54.0426 111.009 53.5947 111.551 52.9697L111.697 53.1155C111.082 53.8967 110.515 54.4645 109.989 54.8238C109.473 55.1884 108.994 55.3863 108.551 55.428C108.103 55.4697 107.702 55.4072 107.343 55.2405C106.77 55.8967 106.166 56.428 105.53 56.8447C104.905 57.2509 104.312 57.4905 103.759 57.5738C103.218 57.6676 102.77 57.5843 102.426 57.3238ZM103.801 55.6988C104.176 56.0061 104.64 56.0895 105.197 55.9488C105.765 55.7978 106.343 55.4645 106.926 54.9488C106.853 54.8551 106.77 54.7197 106.676 54.553C106.593 54.3759 106.562 54.1467 106.593 53.8655C106.619 53.5895 106.759 53.277 107.009 52.928C107.27 52.553 107.515 52.3238 107.739 52.2405C107.957 52.1572 108.155 52.152 108.322 52.2197C108.489 52.2926 108.614 52.3759 108.697 52.4697C108.864 52.0426 108.926 51.652 108.884 51.303C108.853 50.9593 108.749 50.7093 108.572 50.553C108.306 50.3186 107.973 50.2145 107.572 50.2405C107.166 50.2717 106.744 50.4072 106.301 50.6572C105.853 50.9072 105.447 51.2561 105.072 51.6988C104.655 52.1988 104.301 52.7197 104.009 53.2613C103.718 53.7926 103.541 54.2717 103.489 54.6988C103.447 55.1311 103.551 55.4645 103.801 55.6988Z" fill="white"/>
<path d="M126.738 41.7392C127.306 44.5309 127.306 47.0517 126.738 49.3017C126.181 51.5413 125.134 53.6142 123.592 55.5309C122.66 56.7132 121.613 57.7445 120.446 58.6351C119.29 59.5361 118.097 60.2913 116.863 60.9059C115.639 61.5153 114.446 61.9684 113.28 62.2601C112.129 62.5517 111.066 62.6767 110.092 62.6351C109.759 62.6195 109.524 62.5309 109.384 62.3642C109.248 62.208 109.191 62.0309 109.217 61.8226C109.233 61.6142 109.321 61.4476 109.488 61.3226C109.655 61.1976 109.858 61.1559 110.092 61.1976C111.623 61.5309 112.988 61.5622 114.196 61.3017C115.415 61.0517 116.519 60.583 117.509 59.9059C118.509 59.2392 119.431 58.4267 120.28 57.4684C121.139 56.5101 121.967 55.4892 122.759 54.4059C123.509 53.3955 124.165 52.3642 124.738 51.3226C125.321 50.2705 125.759 49.2184 126.05 48.1767C126.352 47.1247 126.467 46.0934 126.384 45.0934C126.311 44.0934 125.988 43.1351 125.405 42.2184C125.207 41.9267 125.155 41.6715 125.238 41.4476C125.321 41.2132 125.457 41.0517 125.655 40.9684C125.863 40.8747 126.071 40.8799 126.28 40.9892C126.498 41.1038 126.655 41.3538 126.738 41.7392Z" fill="white"/>
</g>
</svg>
