<svg width="337" height="42" viewBox="0 0 337 42" fill="none" xmlns="http://www.w3.org/2000/svg">
<path d="M11.4847 41.6761C8.09404 41.6761 5.48987 40.9522 3.67217 39.5095C1.86487 38.0668 0.911749 35.9626 0.817999 33.197C0.750291 31.197 1.30758 29.4209 2.5055 27.8636C3.71383 26.3115 5.32841 25.0251 7.35967 24.0095C9.38571 22.999 11.6409 22.2907 14.1305 21.8845C16.6149 21.4678 19.094 21.4157 21.568 21.7178C22.4117 21.8168 22.9951 22.1136 23.318 22.6136C23.6513 23.1032 23.7399 23.6293 23.5888 24.197C23.4326 24.7543 23.094 25.1918 22.568 25.5095C22.0367 25.8324 21.3492 25.8845 20.5055 25.6761C17.9638 25.0407 15.5732 24.7282 13.3388 24.7386C11.1149 24.7543 9.17217 25.0668 7.5055 25.6761C5.84925 26.2907 4.568 27.1345 3.65133 28.2178C2.74508 29.3011 2.32841 30.5876 2.40133 32.072C2.45341 33.5303 2.92217 34.6553 3.79717 35.447C4.68258 36.2386 5.87008 36.7386 7.35967 36.947C8.84404 37.1553 10.5159 37.124 12.3805 36.8428C14.2399 36.5407 16.2138 36.0251 18.2972 35.3011C20.3805 34.5668 22.4742 33.6501 24.5888 32.5511C26.7138 31.4574 28.7347 30.2126 30.6513 28.822C32.5784 27.4365 34.3076 25.947 35.8388 24.3636C38.1722 21.9626 40.3857 19.5459 42.4847 17.1136C44.5784 14.6709 46.5784 12.4365 48.4847 10.4053C50.4013 8.37925 52.2451 6.75425 54.0263 5.53029C55.8024 4.31154 57.5524 3.69696 59.2763 3.69696C60.094 3.69696 60.6097 3.95738 60.818 4.46779C61.0368 4.96779 61.0055 5.47821 60.7138 5.98863C60.4326 6.50425 59.8909 6.75946 59.0888 6.75946C58.5472 6.75946 57.8232 7.25946 56.9222 8.25946C56.0159 9.24904 55.0263 10.5824 53.943 12.2595C52.8701 13.9261 51.8076 15.7699 50.7555 17.7803C49.7138 19.7959 48.7555 21.8324 47.8805 23.8845C47.0159 25.9261 46.3493 27.8428 45.8805 29.6345C45.4065 31.4261 45.219 32.9261 45.318 34.1345C45.4274 35.3324 45.9222 36.0668 46.7972 36.3428C48.2138 36.7751 49.5159 36.7074 50.7138 36.1345C51.9222 35.5668 53.068 34.6136 54.1513 33.2803C55.2347 31.9365 56.3284 30.3324 57.443 28.4678C58.568 26.6084 59.7659 24.6136 61.0472 22.4886C62.3388 20.3532 63.7607 18.2178 65.318 16.0928C67.4534 13.2178 69.7243 10.6449 72.1305 8.36363C74.5315 6.07196 77.068 4.21779 79.7347 2.80113C82.4013 1.37404 85.1618 0.525086 88.0263 0.259461C90.8857 -0.0165806 93.8388 0.441753 96.8805 1.63446C97.7243 1.92613 98.2399 2.36363 98.4222 2.94696C98.6149 3.51988 98.5888 4.06675 98.3388 4.59279C98.0888 5.12404 97.7034 5.52509 97.193 5.80113C96.6774 6.06675 96.1357 6.04592 95.568 5.73863C92.5263 4.18654 89.7451 3.29071 87.2347 3.05113C84.7347 2.81675 82.4013 3.19696 80.2347 4.19696C78.068 5.18654 75.9638 6.72821 73.9222 8.82196C71.8805 10.9209 69.7868 13.5303 67.6513 16.6553C65.9534 19.1136 64.2607 21.5824 62.568 24.0511C60.8857 26.5251 59.2243 28.8636 57.5888 31.072C55.9482 33.2699 54.3597 35.1865 52.818 36.822C51.2763 38.4626 49.7868 39.7074 48.3597 40.5511C46.943 41.3949 45.6305 41.7022 44.4222 41.4678C42.7972 41.1188 41.7763 40.3168 41.3597 39.0511C40.9534 37.7907 40.9951 36.1918 41.4847 34.2595C41.9847 32.3324 42.7867 30.197 43.9013 27.8636C45.0263 25.5303 46.3388 23.1136 47.8388 20.6136C49.3388 18.1032 50.9013 15.6553 52.5263 13.2803C54.1513 10.8949 55.6774 8.68654 57.1097 6.65529C56.8284 6.11363 56.2399 6.12404 55.3388 6.67613C54.4482 7.23342 53.318 8.19175 51.943 9.55113C50.5784 10.9001 49.0315 12.5043 47.2972 14.3636C45.5732 16.2282 43.7555 18.1918 41.8388 20.2595C39.9326 22.3168 38.0055 24.3428 36.0472 26.3428C34.1149 28.2751 32.1565 30.1553 30.1722 31.9886C28.1982 33.8115 26.1774 35.447 24.1097 36.9053C22.0524 38.3532 19.9638 39.5095 17.8388 40.3845C15.7242 41.2438 13.6097 41.6761 11.4847 41.6761Z" fill="#1F3D58"/>
<path d="M74.5449 40.509C74.0449 39.8996 73.9199 39.1653 74.1699 38.3007C74.4199 37.4257 74.8366 36.5194 75.4199 35.5715C74.0553 37.0038 72.6908 38.2174 71.3158 39.2174C69.9512 40.2069 68.7168 40.8319 67.6074 41.0924C66.5085 41.3684 65.6595 41.1757 65.0658 40.509C64.5553 39.8996 64.4147 39.1653 64.6491 38.3007C64.8887 37.4257 65.3262 36.4986 65.9616 35.509C66.6126 34.509 67.2585 33.5194 67.8991 32.5299C68.6074 31.4205 69.3001 30.3111 69.9824 29.1965C70.6595 28.0715 71.4043 26.9569 72.2116 25.8424C72.5137 25.4257 72.8991 25.1757 73.3574 25.0924C73.8158 25.009 74.2376 25.0715 74.6283 25.2799C75.0137 25.4778 75.2585 25.7955 75.3574 26.2382C75.4512 26.6861 75.2845 27.2121 74.8574 27.8215C74.5501 28.2278 74.0553 28.7486 73.3783 29.384C72.696 30.0246 71.9616 30.7174 71.1699 31.4674C70.3783 32.2069 69.6543 32.9465 69.0033 33.6965C68.3626 34.4465 67.9251 35.1549 67.6908 35.8215C67.4512 36.4778 67.571 37.0403 68.0449 37.509C68.7949 38.2486 69.9251 38.2538 71.4408 37.5299C72.9668 36.8111 74.8626 35.259 77.1283 32.884L77.3991 32.5299C78.1074 31.4205 78.7949 30.3111 79.4616 29.1965C80.1387 28.0715 80.8887 26.9569 81.7116 25.8424C82.0137 25.4257 82.3887 25.1757 82.8366 25.0924C83.2949 25.009 83.7168 25.0715 84.1074 25.2799C84.4928 25.4778 84.7376 25.7955 84.8366 26.2382C84.946 26.6861 84.7793 27.2121 84.3366 27.8215C84.0293 28.2278 83.5345 28.7486 82.8574 29.384C82.1908 30.0246 81.4512 30.7174 80.6491 31.4674C79.8574 32.2069 79.1387 32.9465 78.5033 33.6965C77.8626 34.4465 77.4251 35.1549 77.1908 35.8215C76.9512 36.4778 77.071 37.0403 77.5449 37.509C78.321 38.2486 79.5085 38.2121 81.1074 37.4049C82.7168 36.5871 84.7428 34.8944 87.1908 32.3215L87.5449 32.4882C86.3887 33.9778 85.1699 35.3424 83.8783 36.5924C82.597 37.8424 81.347 38.8736 80.1283 39.6757C78.9043 40.4674 77.8001 40.9517 76.8158 41.134C75.8418 41.3111 75.0866 41.1028 74.5449 40.509Z" fill="#1F3D58"/>
<path d="M91.0379 40.5497C89.8817 39.7737 89.2359 38.7893 89.1004 37.5914C88.9754 36.3831 89.1942 35.107 89.7671 33.7581C90.3504 32.3987 91.1629 31.107 92.2046 29.8831C93.2879 28.607 94.4963 27.5289 95.8296 26.6539C97.1629 25.7685 98.4546 25.2112 99.7046 24.9872C100.965 24.7685 101.965 24.982 102.705 25.6331C103.215 26.0654 103.434 26.706 103.35 27.5497C103.267 28.3987 102.923 29.3101 102.33 30.2789C101.731 31.2372 100.923 32.1487 99.9129 33.0081C98.8973 33.8726 97.6838 34.5237 96.2671 34.9664C95.6265 35.1747 95.1109 35.1539 94.7254 34.9039C94.3348 34.6435 94.09 34.2945 93.9963 33.8622C93.9129 33.4195 93.9859 33.0237 94.2254 32.6747C94.4754 32.3154 94.8973 32.1331 95.4963 32.1331C97.1213 32.1331 98.4338 31.8935 99.4338 31.4039C100.434 30.9039 101.173 30.2945 101.663 29.5706C102.163 28.8362 102.413 28.1331 102.413 27.4664C102.413 26.7893 102.225 26.2737 101.85 25.9247C101.403 25.4976 100.83 25.3987 100.121 25.6331C99.4129 25.8726 98.6473 26.3206 97.8296 26.9872C97.0223 27.6435 96.2463 28.4039 95.4963 29.2789C94.7879 30.1018 94.189 30.9872 93.7046 31.9456C93.215 32.9039 92.939 33.8414 92.8713 34.7581C92.7984 35.6747 93.0171 36.5081 93.5171 37.2581C94.2359 38.206 95.1942 38.6279 96.3921 38.5289C97.5848 38.4195 98.9442 37.8779 100.475 36.9039C102.001 35.9195 103.59 34.6018 105.246 32.9456L105.559 33.2372C104.71 34.3622 103.673 35.5029 102.455 36.6539C101.231 37.7945 99.9338 38.7789 98.5588 39.6122C97.1942 40.4456 95.8556 40.9768 94.5379 41.2164C93.215 41.4508 92.0484 41.2268 91.0379 40.5497Z" fill="#1F3D58"/>
<path d="M106.874 39.7805C106.124 39.1138 105.666 38.2492 105.499 37.1763C105.332 36.1086 105.619 34.8794 106.353 33.4888C106.661 32.9211 107.062 32.5669 107.562 32.4263C108.072 32.2909 108.52 32.3221 108.895 32.5305C109.905 31.3534 110.905 30.0617 111.895 28.6555C112.879 27.2544 113.926 25.7909 115.041 24.2596C115.135 24.0513 115.27 23.8638 115.437 23.6971C115.978 23.1555 116.562 22.8794 117.187 22.8638C117.822 22.8534 118.421 22.9992 118.978 23.3013C119.53 23.6086 119.942 23.9784 120.207 24.4055C120.551 24.9211 120.582 25.4419 120.291 25.968C119.999 26.4836 119.572 26.8117 119.02 26.9471C118.463 27.0878 117.947 26.8638 117.478 26.2805C117.338 26.1138 117.171 25.8169 116.978 25.3846C116.796 24.9419 116.588 24.8013 116.353 24.968C115.739 25.4159 115.426 26.1346 115.416 27.1346C115.4 28.1242 115.51 29.2336 115.749 30.468C115.984 31.7076 116.197 32.9419 116.395 34.1763C116.603 35.4159 116.609 36.4888 116.416 37.4055C117.385 37.1294 118.405 36.5826 119.478 35.7596C120.546 34.9263 121.791 33.7336 123.207 32.1763L123.562 32.4263C121.905 34.4992 120.275 36.1503 118.666 37.3846C117.051 38.6242 115.588 39.5409 114.27 40.1346C113.489 40.6503 112.635 40.9523 111.707 41.0513C110.775 41.1607 109.879 41.0982 109.02 40.8638C108.155 40.6294 107.447 40.2701 106.874 39.7805ZM107.478 39.1346C107.879 39.5669 108.405 39.7284 109.062 39.6138C109.728 39.4888 110.426 39.1346 111.166 38.5513C111.916 37.9576 112.593 37.1711 113.207 36.1971C113.817 35.2128 114.26 34.093 114.541 32.843C114.707 32.1346 114.754 31.3586 114.687 30.5096C114.614 29.6659 114.551 28.8117 114.499 27.9471C114.457 27.0721 114.484 26.2805 114.582 25.5721C113.734 26.8951 112.885 28.1294 112.041 29.2805C111.192 30.4367 110.28 31.6242 109.312 32.843C109.713 33.343 109.676 34.0044 109.207 34.8221C108.968 35.2544 108.629 35.7284 108.187 36.2388C107.739 36.7388 107.426 37.2388 107.228 37.7388C107.02 38.2284 107.103 38.6919 107.478 39.1346Z" fill="#1F3D58"/>
<path d="M124.675 40.5929C124.008 39.9262 123.711 39.1241 123.779 38.1762C123.836 37.2179 124.154 36.197 124.737 35.1137C125.31 34.0304 126.003 32.9366 126.821 31.822C127.623 30.7127 128.456 29.645 129.321 28.6137C130.18 27.572 130.935 26.6658 131.591 25.8845C131.144 25.9575 130.701 26.0408 130.258 26.1345C129.826 26.2335 129.367 26.2804 128.883 26.2804C128.644 26.2804 128.446 26.2127 128.279 26.072C128.112 25.921 128.029 25.7179 128.029 25.4679C128.029 25.2075 128.112 24.9887 128.279 24.822C128.446 24.6554 128.644 24.572 128.883 24.572C129.466 24.572 130.039 24.6137 130.612 24.697C131.196 24.7804 131.758 24.8585 132.3 24.9262C133.008 24.0095 133.727 23.02 134.466 21.947C135.216 20.8793 135.935 19.8585 136.633 18.8845C137.326 17.9002 137.946 17.0668 138.487 16.3845C139.029 15.6762 139.602 15.27 140.216 15.1554C140.826 15.0304 141.331 15.1241 141.737 15.4262C142.138 15.7335 142.341 16.1658 142.341 16.7179C142.341 17.2752 141.998 17.8793 141.321 18.5304C140.654 19.171 139.664 19.9887 138.362 20.9887C137.055 21.9887 135.659 23.3012 134.175 24.9262C134.716 24.8585 135.237 24.7804 135.737 24.697C136.248 24.6137 136.779 24.572 137.321 24.572C137.555 24.572 137.758 24.6554 137.925 24.822C138.091 24.9887 138.175 25.2075 138.175 25.4679C138.175 25.7179 138.091 25.921 137.925 26.072C137.758 26.2127 137.555 26.2804 137.321 26.2804C136.68 26.2804 136.029 26.2127 135.362 26.072C134.706 25.921 134.055 25.8116 133.404 25.7387L132.654 26.6345C130.581 29.1502 129.019 31.3585 127.966 33.2595C126.925 35.1502 126.779 36.546 127.529 37.447C128.164 38.197 129.341 38.1866 131.05 37.4054C132.758 36.6293 134.862 34.9002 137.362 32.2179L137.716 32.3845C136.602 33.8325 135.409 35.1866 134.133 36.447C132.867 37.697 131.633 38.7491 130.425 39.5929C129.227 40.4418 128.123 40.9679 127.112 41.1762C126.102 41.395 125.289 41.2023 124.675 40.5929Z" fill="#1F3D58"/>
<path d="M142.491 40.1337C141.684 39.3316 141.428 38.3837 141.72 37.3003C142.022 36.217 143.012 34.9462 144.678 33.4878C145.72 32.5868 146.746 31.6753 147.762 30.7587C148.772 29.842 149.553 28.9149 150.095 27.967C150.439 27.3837 150.439 26.8785 150.095 26.4462C149.762 26.0035 149.329 25.6962 148.803 25.5295C148.288 25.3628 147.876 25.4358 147.574 25.7378C147.085 26.1701 146.418 26.8212 145.574 27.6962C144.741 28.5608 143.829 29.5035 142.845 30.5295C141.855 31.5608 140.913 32.5816 140.012 33.592L139.699 33.2378L146.408 25.5712C146.699 25.2118 146.803 24.7951 146.72 24.3212C146.637 23.8368 146.512 23.3108 146.345 22.7378C146.178 22.1545 146.095 21.5451 146.095 20.9045C146.095 20.3628 146.262 19.9358 146.595 19.6128C146.939 19.2951 147.35 19.1128 147.824 19.0712C148.293 19.0191 148.725 19.1285 149.116 19.4045C149.501 19.6701 149.746 20.1024 149.845 20.6962C149.913 21.2118 149.829 21.6493 149.595 22.0087C149.355 22.3576 149.204 22.9045 149.137 23.6545C149.137 23.9618 149.288 24.2535 149.595 24.5295C149.897 24.7951 150.251 25.0816 150.658 25.3837C151.059 25.691 151.413 26.0243 151.72 26.3837C152.022 26.7326 152.163 27.1545 152.137 27.6545C152.095 28.5035 151.803 29.3368 151.262 30.1545C150.72 30.9618 150.085 31.7326 149.366 32.467C148.642 33.191 147.949 33.8576 147.283 34.467C146.626 35.066 146.147 35.6233 145.845 36.1337C145.538 36.6493 145.538 37.0868 145.845 37.4462C146.553 38.2691 147.762 38.2326 149.47 37.342C151.178 36.441 153.418 34.4983 156.199 31.5087L156.553 31.6753C154.829 33.967 153.053 35.9201 151.22 37.5295C149.387 39.1441 147.699 40.2118 146.158 40.7378C144.626 41.2483 143.408 41.0503 142.491 40.1337Z" fill="#1F3D58"/>
<path d="M157.354 40.3012C156.411 39.5252 156.036 38.5408 156.229 37.3429C156.411 36.1345 157 34.8429 158 33.4679C159 32.0929 160.187 30.7491 161.562 29.4262C162.947 28.1502 164.338 27.1293 165.729 26.3637C167.114 25.6033 168.364 25.1293 169.479 24.947C170.604 24.7543 171.437 24.8793 171.979 25.322C172.421 25.671 172.645 26.145 172.645 26.7387C172.739 26.572 172.838 26.4054 172.937 26.2387C173.031 26.072 173.151 25.921 173.291 25.7804C173.593 25.3377 173.984 25.0877 174.458 25.0304C174.927 24.9627 175.359 25.0408 175.75 25.2595C176.135 25.4679 176.38 25.8012 176.479 26.2595C176.588 26.7179 176.406 27.2543 175.937 27.8637C175.63 28.27 175.145 28.7752 174.479 29.3845C173.823 29.9991 173.114 30.6554 172.354 31.3637C171.588 32.072 170.885 32.7804 170.25 33.4887C169.609 34.197 169.145 34.8793 168.854 35.5304C168.562 36.171 168.588 36.7283 168.937 37.197C169.604 38.1866 170.796 38.2752 172.52 37.4679C174.255 36.6502 176.359 34.921 178.833 32.2804L179.187 32.4887C178.031 34.0043 176.817 35.395 175.541 36.6554C174.276 37.9054 173.031 38.9262 171.812 39.7179C170.604 40.5095 169.505 40.9887 168.52 41.1554C167.546 41.322 166.77 41.0825 166.187 40.447C165.755 39.947 165.604 39.3429 165.729 38.6345C165.864 37.9158 166.156 37.1502 166.604 36.3429C165.479 37.5512 164.343 38.5668 163.208 39.3845C162.083 40.1918 161.01 40.6918 160 40.8845C158.984 41.0616 158.104 40.8741 157.354 40.3012ZM160.958 37.447C161.401 37.9627 161.947 38.1293 162.604 37.947C163.27 37.7543 163.968 37.3533 164.708 36.7387C165.458 36.1293 166.218 35.4262 167 34.6345C167.776 33.8429 168.484 33.0929 169.125 32.3845C169.567 31.7075 169.979 31.046 170.354 30.4054C170.729 29.7543 171.114 29.1085 171.52 28.4679C171.781 27.8325 171.885 27.3168 171.833 26.9262C171.791 26.5408 171.635 26.2283 171.375 25.9887C170.859 25.546 170.093 25.5095 169.083 25.8845C168.067 26.2595 166.989 26.8793 165.854 27.7387C164.729 28.6033 163.718 29.5512 162.833 30.5929C161.791 31.8168 161.041 33.0668 160.583 34.3429C160.125 35.6085 160.25 36.645 160.958 37.447Z" fill="#1F3D58"/>
<path d="M202.817 40.5496C202.218 39.8725 201.973 39.1225 202.088 38.2996C202.213 37.4663 202.551 36.6121 203.108 35.7371C203.661 34.8517 204.322 33.9819 205.088 33.1329C205.848 32.2892 206.567 31.4975 207.233 30.7579C207.911 30.0079 208.426 29.3569 208.775 28.7996C209.134 28.2475 209.181 27.8309 208.921 27.5496C208.572 27.1902 208.015 27.2892 207.254 27.8413C206.504 28.3986 205.567 29.2527 204.442 30.4038C203.468 31.4194 202.447 32.5444 201.379 33.7788C200.306 35.0184 199.317 36.2059 198.4 37.3413C197.494 38.4663 196.754 39.3986 196.171 40.1329C195.671 40.7475 195.103 41.0548 194.463 41.0704C193.812 41.0965 193.317 40.8934 192.983 40.4454C192.64 40.0027 192.65 39.4246 193.025 38.7163C193.265 38.2892 193.442 37.9663 193.567 37.7579C193.681 37.5496 193.874 37.2684 194.15 36.9038C194.416 36.5288 194.874 35.9194 195.525 35.0704C196.161 34.2267 197.098 32.9819 198.338 31.3413C199.572 29.7059 201.218 27.4975 203.275 24.7163C203.692 24.1486 204.254 23.3934 204.963 22.4454C205.671 21.4871 206.431 20.435 207.254 19.2788C208.088 18.1277 208.921 17.0027 209.754 15.9038C210.588 14.81 211.338 13.8204 212.004 12.9454C212.681 12.06 213.223 11.3986 213.629 10.9663C214.306 10.2579 214.973 9.94545 215.629 10.0288C216.296 10.1121 216.744 10.4454 216.983 11.0288C217.218 11.6017 217.03 12.2892 216.421 13.0913C216.155 13.4246 215.405 14.1538 214.171 15.2788C212.931 16.3934 211.447 17.7944 209.713 19.4871C207.989 21.185 206.254 23.0913 204.504 25.2163C204.265 25.5236 203.843 26.0809 203.233 26.8829C202.619 27.6746 201.942 28.5652 201.192 29.5496C200.452 30.5236 199.759 31.5027 199.108 32.4871C198.468 33.4611 197.983 34.2944 197.65 34.9871C197.317 35.685 197.265 36.1121 197.504 36.2788C197.671 36.4194 197.994 36.2475 198.483 35.7579C198.968 35.2579 199.536 34.6329 200.192 33.8829C200.858 33.1225 201.515 32.3413 202.171 31.5496C202.838 30.7475 203.39 30.1069 203.838 29.6329C205.015 28.3829 206.067 27.3204 206.983 26.4454C207.9 25.56 208.739 24.9871 209.504 24.7371C210.265 24.4871 210.983 24.6694 211.65 25.2788C212.119 25.7111 212.28 26.2736 212.129 26.9663C211.973 27.6642 211.634 28.435 211.108 29.2788C210.593 30.1277 209.994 30.9975 209.317 31.8829C208.65 32.7579 208.025 33.6069 207.442 34.4246C206.869 35.2319 206.452 35.9402 206.192 36.5496C205.942 37.1486 205.968 37.6017 206.275 37.9038C206.718 38.3204 207.452 38.3829 208.483 38.0913C209.509 37.7996 210.713 37.1694 212.088 36.1954C213.463 35.2111 214.869 33.9402 216.317 32.3829L216.733 32.5704C215.509 33.9611 214.218 35.2892 212.858 36.5496C211.509 37.7996 210.181 38.8517 208.879 39.6954C207.588 40.5288 206.405 41.0496 205.338 41.2579C204.265 41.4663 203.426 41.2267 202.817 40.5496Z" fill="#1F3D58"/>
<path d="M216.632 40.5092C216.122 39.8998 215.981 39.1655 216.215 38.3009C216.455 37.4259 216.898 36.4988 217.549 35.5092C218.184 34.5092 218.825 33.5196 219.465 32.5301C220.174 31.4207 220.867 30.3113 221.549 29.1967C222.226 28.0717 222.971 26.9571 223.778 25.8426C224.08 25.4259 224.465 25.1759 224.924 25.0926C225.382 25.0092 225.804 25.0717 226.195 25.2801C226.58 25.478 226.825 25.7957 226.924 26.2384C227.033 26.6863 226.867 27.2123 226.424 27.8217C226.117 28.228 225.622 28.7488 224.945 29.3842C224.278 30.0248 223.538 30.7176 222.736 31.4676C221.945 32.2071 221.226 32.9467 220.59 33.6967C219.95 34.4467 219.507 35.1551 219.257 35.8217C219.018 36.478 219.143 37.0405 219.632 37.5092C220.408 38.2488 221.596 38.2123 223.195 37.4051C224.804 36.5873 226.825 34.8946 229.257 32.3217L229.611 32.4884C228.471 33.978 227.257 35.3426 225.965 36.5926C224.674 37.8426 223.413 38.8738 222.195 39.6759C220.986 40.4676 219.887 40.9519 218.903 41.1342C217.934 41.3113 217.174 41.103 216.632 40.5092ZM226.986 19.9467C227.528 19.1707 228.158 18.6707 228.882 18.4467C229.601 18.228 230.236 18.3009 230.778 18.6759C231.288 19.0092 231.554 19.5665 231.57 20.3426C231.58 21.1238 231.34 21.8738 230.84 22.5926C230.325 23.3321 229.705 23.8113 228.986 24.0301C228.262 24.254 227.611 24.1967 227.028 23.8634C226.528 23.5196 226.278 22.9467 226.278 22.1551C226.278 21.3634 226.512 20.629 226.986 19.9467Z" fill="#1F3D58"/>
<path d="M230.28 39.7805C229.53 39.1138 229.072 38.2492 228.905 37.1763C228.739 36.1086 229.025 34.8794 229.76 33.4888C230.067 32.9211 230.468 32.5669 230.968 32.4263C231.478 32.2909 231.926 32.3221 232.301 32.5305C233.312 31.3534 234.312 30.0617 235.301 28.6555C236.286 27.2544 237.332 25.7909 238.447 24.2596C238.541 24.0513 238.676 23.8638 238.843 23.6971C239.385 23.1555 239.968 22.8794 240.593 22.8638C241.228 22.8534 241.827 22.9992 242.385 23.3013C242.937 23.6086 243.348 23.9784 243.614 24.4055C243.957 24.9211 243.989 25.4419 243.697 25.968C243.405 26.4836 242.978 26.8117 242.426 26.9471C241.869 27.0878 241.353 26.8638 240.885 26.2805C240.744 26.1138 240.577 25.8169 240.385 25.3846C240.202 24.9419 239.994 24.8013 239.76 24.968C239.145 25.4159 238.832 26.1346 238.822 27.1346C238.806 28.1242 238.916 29.2336 239.155 30.468C239.39 31.7076 239.603 32.9419 239.801 34.1763C240.01 35.4159 240.015 36.4888 239.822 37.4055C240.791 37.1294 241.812 36.5826 242.885 35.7596C243.952 34.9263 245.197 33.7336 246.614 32.1763L246.968 32.4263C245.312 34.4992 243.681 36.1503 242.072 37.3846C240.457 38.6242 238.994 39.5409 237.676 40.1346C236.895 40.6503 236.041 40.9523 235.114 41.0513C234.181 41.1607 233.286 41.0982 232.426 40.8638C231.562 40.6294 230.853 40.2701 230.28 39.7805ZM230.885 39.1346C231.286 39.5669 231.812 39.7284 232.468 39.6138C233.135 39.4888 233.832 39.1346 234.572 38.5513C235.322 37.9576 235.999 37.1711 236.614 36.1971C237.223 35.2128 237.666 34.093 237.947 32.843C238.114 32.1346 238.161 31.3586 238.093 30.5096C238.02 29.6659 237.957 28.8117 237.905 27.9471C237.864 27.0721 237.89 26.2805 237.989 25.5721C237.14 26.8951 236.291 28.1294 235.447 29.2805C234.598 30.4367 233.687 31.6242 232.718 32.843C233.119 33.343 233.082 34.0044 232.614 34.8221C232.374 35.2544 232.036 35.7284 231.593 36.2388C231.145 36.7388 230.832 37.2388 230.635 37.7388C230.426 38.2284 230.51 38.6919 230.885 39.1346Z" fill="#1F3D58"/>
<path d="M248.081 40.5929C247.414 39.9262 247.117 39.1241 247.185 38.1762C247.242 37.2179 247.56 36.197 248.144 35.1137C248.716 34.0304 249.409 32.9366 250.227 31.822C251.029 30.7127 251.862 29.645 252.727 28.6137C253.586 27.572 254.341 26.6658 254.998 25.8845C254.55 25.9575 254.107 26.0408 253.664 26.1345C253.232 26.2335 252.774 26.2804 252.289 26.2804C252.05 26.2804 251.852 26.2127 251.685 26.072C251.519 25.921 251.435 25.7179 251.435 25.4679C251.435 25.2075 251.519 24.9887 251.685 24.822C251.852 24.6554 252.05 24.572 252.289 24.572C252.873 24.572 253.446 24.6137 254.019 24.697C254.602 24.7804 255.164 24.8585 255.706 24.9262C256.414 24.0095 257.133 23.02 257.873 21.947C258.623 20.8793 259.341 19.8585 260.039 18.8845C260.732 17.9002 261.352 17.0668 261.894 16.3845C262.435 15.6762 263.008 15.27 263.623 15.1554C264.232 15.0304 264.737 15.1241 265.144 15.4262C265.545 15.7335 265.748 16.1658 265.748 16.7179C265.748 17.2752 265.404 17.8793 264.727 18.5304C264.06 19.171 263.071 19.9887 261.769 20.9887C260.461 21.9887 259.065 23.3012 257.581 24.9262C258.123 24.8585 258.644 24.7804 259.144 24.697C259.654 24.6137 260.185 24.572 260.727 24.572C260.961 24.572 261.164 24.6554 261.331 24.822C261.498 24.9887 261.581 25.2075 261.581 25.4679C261.581 25.7179 261.498 25.921 261.331 26.072C261.164 26.2127 260.961 26.2804 260.727 26.2804C260.086 26.2804 259.435 26.2127 258.769 26.072C258.112 25.921 257.461 25.8116 256.81 25.7387L256.06 26.6345C253.987 29.1502 252.425 31.3585 251.373 33.2595C250.331 35.1502 250.185 36.546 250.935 37.447C251.571 38.197 252.748 38.1866 254.456 37.4054C256.164 36.6293 258.269 34.9002 260.769 32.2179L261.123 32.3845C260.008 33.8325 258.815 35.1866 257.539 36.447C256.274 37.697 255.039 38.7491 253.831 39.5929C252.633 40.4418 251.529 40.9679 250.519 41.1762C249.508 41.395 248.696 41.2023 248.081 40.5929Z" fill="#1F3D58"/>
<path d="M263.207 40.6955C262.238 39.9195 261.764 38.9403 261.79 37.758C261.821 36.5809 262.222 35.2945 262.998 33.9039C263.79 32.5184 264.811 31.1278 266.061 29.7372C267.311 28.3518 268.592 27.232 269.915 26.383C271.233 25.5393 272.462 25.0184 273.603 24.8205C274.754 24.6122 275.691 24.7997 276.415 25.383C277.425 26.1643 277.759 27.4247 277.415 29.1747C277.082 30.9143 276.217 32.7268 274.832 34.6122C275.066 34.9872 275.54 35.1955 276.248 35.2372C276.957 35.2684 277.821 35.0028 278.853 34.4455C279.894 33.8778 280.967 32.9559 282.082 31.6747L282.394 31.9664C281.144 33.5914 279.978 34.7789 278.894 35.5289C277.811 36.2684 276.811 36.6851 275.894 36.7789C274.978 36.8622 274.149 36.732 273.415 36.383C272.233 37.7476 270.983 38.8518 269.665 39.6955C268.342 40.5289 267.113 41.0341 265.978 41.2164C264.837 41.4091 263.915 41.2372 263.207 40.6955ZM266.061 37.2997C266.837 37.9403 267.811 38.107 268.978 37.7997C270.144 37.4976 271.332 36.8205 272.54 35.7789C272.373 35.5705 272.191 35.2945 271.998 34.9455C271.816 34.5861 271.759 34.1226 271.832 33.5497C271.899 32.9664 272.191 32.3101 272.707 31.5705C273.248 30.7945 273.748 30.3205 274.207 30.1539C274.665 29.9768 275.066 29.9611 275.415 30.1122C275.774 30.2684 276.04 30.4455 276.207 30.6539C276.54 29.7372 276.67 28.9247 276.603 28.2164C276.53 27.508 276.316 26.982 275.957 26.633C275.415 26.1643 274.717 25.9559 273.873 26.008C273.024 26.0653 272.144 26.357 271.228 26.883C270.311 27.3986 269.462 28.1122 268.686 29.0289C267.811 30.0705 267.071 31.1486 266.478 32.258C265.894 33.357 265.545 34.357 265.436 35.258C265.337 36.1486 265.545 36.8309 266.061 37.2997Z" fill="#1F3D58"/>
<path d="M286.807 40.1337C286 39.3316 285.745 38.3837 286.036 37.3003C286.339 36.217 287.328 34.9462 288.995 33.4878C290.036 32.5868 291.063 31.6753 292.078 30.7587C293.089 29.842 293.87 28.9149 294.411 27.967C294.755 27.3837 294.755 26.8785 294.411 26.4462C294.078 26.0035 293.646 25.6962 293.12 25.5295C292.604 25.3628 292.193 25.4358 291.891 25.7378C291.401 26.1701 290.734 26.8212 289.891 27.6962C289.057 28.5608 288.146 29.5035 287.161 30.5295C286.172 31.5608 285.229 32.5816 284.328 33.592L284.016 33.2378L290.724 25.5712C291.016 25.2118 291.12 24.7951 291.036 24.3212C290.953 23.8368 290.828 23.3108 290.661 22.7378C290.495 22.1545 290.411 21.5451 290.411 20.9045C290.411 20.3628 290.578 19.9358 290.911 19.6128C291.255 19.2951 291.667 19.1128 292.141 19.0712C292.609 19.0191 293.042 19.1285 293.432 19.4045C293.818 19.6701 294.063 20.1024 294.161 20.6962C294.229 21.2118 294.146 21.6493 293.911 22.0087C293.672 22.3576 293.521 22.9045 293.453 23.6545C293.453 23.9618 293.604 24.2535 293.911 24.5295C294.214 24.7951 294.568 25.0816 294.974 25.3837C295.375 25.691 295.729 26.0243 296.036 26.3837C296.339 26.7326 296.479 27.1545 296.453 27.6545C296.411 28.5035 296.12 29.3368 295.578 30.1545C295.036 30.9618 294.401 31.7326 293.682 32.467C292.958 33.191 292.266 33.8576 291.599 34.467C290.943 35.066 290.464 35.6233 290.161 36.1337C289.854 36.6493 289.854 37.0868 290.161 37.4462C290.87 38.2691 292.078 38.2326 293.786 37.342C295.495 36.441 297.734 34.4983 300.516 31.5087L300.87 31.6753C299.146 33.967 297.37 35.9201 295.536 37.5295C293.703 39.1441 292.016 40.2118 290.474 40.7378C288.943 41.2483 287.724 41.0503 286.807 40.1337Z" fill="#1F3D58"/>
<path d="M300.308 40.5092C299.798 39.8998 299.657 39.1655 299.891 38.3009C300.131 37.4259 300.574 36.4988 301.225 35.5092C301.86 34.5092 302.501 33.5196 303.141 32.5301C303.85 31.4207 304.542 30.3113 305.225 29.1967C305.902 28.0717 306.646 26.9571 307.454 25.8426C307.756 25.4259 308.141 25.1759 308.6 25.0926C309.058 25.0092 309.48 25.0717 309.87 25.2801C310.256 25.478 310.501 25.7957 310.6 26.2384C310.709 26.6863 310.542 27.2123 310.1 27.8217C309.792 28.228 309.298 28.7488 308.62 29.3842C307.954 30.0248 307.214 30.7176 306.412 31.4676C305.62 32.2071 304.902 32.9467 304.266 33.6967C303.626 34.4467 303.183 35.1551 302.933 35.8217C302.693 36.478 302.818 37.0405 303.308 37.5092C304.084 38.2488 305.271 38.2123 306.87 37.4051C308.48 36.5873 310.501 34.8946 312.933 32.3217L313.287 32.4884C312.146 33.978 310.933 35.3426 309.641 36.5926C308.35 37.8426 307.089 38.8738 305.87 39.6759C304.662 40.4676 303.563 40.9519 302.579 41.1342C301.61 41.3113 300.85 41.103 300.308 40.5092ZM310.662 19.9467C311.204 19.1707 311.834 18.6707 312.558 18.4467C313.277 18.228 313.912 18.3009 314.454 18.6759C314.964 19.0092 315.23 19.5665 315.245 20.3426C315.256 21.1238 315.016 21.8738 314.516 22.5926C314.001 23.3321 313.381 23.8113 312.662 24.0301C311.938 24.254 311.287 24.1967 310.704 23.8634C310.204 23.5196 309.954 22.9467 309.954 22.1551C309.954 21.3634 310.188 20.629 310.662 19.9467Z" fill="#1F3D58"/>
<path d="M314.709 40.3012C313.767 39.5252 313.392 38.5408 313.584 37.3429C313.767 36.1345 314.355 34.8429 315.355 33.4679C316.355 32.0929 317.543 30.7491 318.918 29.4262C320.303 28.1502 321.694 27.1293 323.084 26.3637C324.47 25.6033 325.72 25.1293 326.834 24.947C327.959 24.7543 328.793 24.8793 329.334 25.322C329.777 25.671 330.001 26.145 330.001 26.7387C330.095 26.572 330.194 26.4054 330.293 26.2387C330.386 26.072 330.506 25.921 330.647 25.7804C330.949 25.3377 331.339 25.0877 331.813 25.0304C332.282 24.9627 332.714 25.0408 333.105 25.2595C333.49 25.4679 333.735 25.8012 333.834 26.2595C333.944 26.7179 333.761 27.2543 333.293 27.8637C332.985 28.27 332.501 28.7752 331.834 29.3845C331.178 29.9991 330.47 30.6554 329.709 31.3637C328.944 32.072 328.24 32.7804 327.605 33.4887C326.964 34.197 326.501 34.8793 326.209 35.5304C325.918 36.171 325.944 36.7283 326.293 37.197C326.959 38.1866 328.152 38.2752 329.876 37.4679C331.61 36.6502 333.714 34.921 336.188 32.2804L336.543 32.4887C335.386 34.0043 334.173 35.395 332.897 36.6554C331.631 37.9054 330.386 38.9262 329.168 39.7179C327.959 40.5095 326.86 40.9887 325.876 41.1554C324.902 41.322 324.126 41.0825 323.543 40.447C323.11 39.947 322.959 39.3429 323.084 38.6345C323.22 37.9158 323.511 37.1502 323.959 36.3429C322.834 37.5512 321.699 38.5668 320.563 39.3845C319.438 40.1918 318.365 40.6918 317.355 40.8845C316.339 41.0616 315.459 40.8741 314.709 40.3012ZM318.313 37.447C318.756 37.9627 319.303 38.1293 319.959 37.947C320.626 37.7543 321.324 37.3533 322.063 36.7387C322.813 36.1293 323.574 35.4262 324.355 34.6345C325.131 33.8429 325.839 33.0929 326.48 32.3845C326.923 31.7075 327.334 31.046 327.709 30.4054C328.084 29.7543 328.47 29.1085 328.876 28.4679C329.136 27.8325 329.24 27.3168 329.188 26.9262C329.147 26.5408 328.99 26.2283 328.73 25.9887C328.214 25.546 327.449 25.5095 326.438 25.8845C325.423 26.2595 324.345 26.8793 323.209 27.7387C322.084 28.6033 321.074 29.5512 320.188 30.5929C319.147 31.8168 318.397 33.0668 317.938 34.3429C317.48 35.6085 317.605 36.645 318.313 37.447Z" fill="#1F3D58"/>
</svg>
