<svg width="414" height="96" viewBox="0 0 414 96" fill="none" xmlns="http://www.w3.org/2000/svg">
<mask id="mask0_2316_5499" style="mask-type:luminance" maskUnits="userSpaceOnUse" x="0" y="0" width="414" height="96">
<path d="M413.333 0H0V96H413.333V0Z" fill="white"/>
</mask>
<g mask="url(#mask0_2316_5499)">
<path d="M20.5532 68.918C14.9543 68.918 10.6574 67.5326 7.65741 64.7721C4.65741 61.9961 3.07407 58.3086 2.90741 53.7096C2.79803 50.4076 3.68866 47.4284 5.59491 44.7721C7.49595 42.1055 10.1001 39.9076 13.4074 38.168C16.7095 36.4336 20.3657 35.2617 24.3657 34.6471C28.3657 34.0378 32.4126 34.0638 36.5116 34.7305C37.8032 34.9544 38.6574 35.4909 39.0741 36.3346C39.4907 37.168 39.5584 38.0221 39.2824 38.8971C39.0012 39.7617 38.4543 40.4492 37.6366 40.9596C36.8293 41.4596 35.8345 41.4805 34.6574 41.0221C30.5168 39.4544 26.6678 38.7201 23.1157 38.8138C19.5584 38.8971 16.4491 39.5846 13.7824 40.8763C11.1262 42.1576 9.07407 43.8294 7.61574 45.8971C6.15741 47.9701 5.45428 50.2409 5.51157 52.7096C5.56366 55.0586 6.29282 57.0326 7.69907 58.6263C9.10012 60.2253 10.9491 61.3763 13.2407 62.0846C15.5324 62.7826 18.0793 62.9596 20.8866 62.6263C24.6887 62.168 28.8449 60.918 33.3449 58.8763C37.8553 56.8346 42.4543 54.1211 47.1366 50.7305C51.8137 47.3451 56.2824 43.4701 60.5324 39.1055C64.3918 35.1211 68.0741 31.1159 71.5741 27.0846C75.0741 23.0586 78.4178 19.3659 81.6157 16.0013C84.8084 12.6419 87.897 9.95443 90.8866 7.9388C93.8866 5.92839 96.8137 4.91797 99.6782 4.91797C101.022 4.91797 101.876 5.34505 102.241 6.1888C102.6 7.02214 102.543 7.85547 102.074 8.6888C101.6 9.52214 100.689 9.9388 99.3449 9.9388C97.8293 9.9388 96.2616 10.8867 94.6366 12.7721C93.0116 14.6471 91.3032 17.1419 89.5116 20.2513C87.7199 23.3503 85.8293 26.8242 83.8449 30.668C81.8553 34.5013 79.6991 38.3919 77.3657 42.3346C75.0428 46.2826 72.5376 50.0169 69.8449 53.543C67.1626 57.0742 64.2512 60.0638 61.1157 62.5221C63.3501 61.7461 65.8449 60.168 68.5949 57.793C71.3449 55.4076 74.2824 52.5534 77.4074 49.2305C80.5428 45.8971 83.7928 42.4701 87.1574 38.9388C92.3084 33.4388 96.7616 28.8451 100.512 25.1471C104.262 21.4544 107.449 18.4596 110.074 16.168C112.709 13.8763 114.913 12.1159 116.678 10.8763C118.439 9.64193 119.871 8.78776 120.97 8.3138C122.064 7.84505 122.949 7.57943 123.616 7.52214C124.282 7.47005 124.897 7.4388 125.47 7.4388C126.137 7.4388 126.73 7.6888 127.262 8.1888C127.803 8.6888 128.074 9.33464 128.074 10.1263C128.074 10.8503 127.803 11.4701 127.262 11.9805C126.73 12.4805 126.137 12.7305 125.47 12.7305C125.064 12.7305 124.6 12.7044 124.074 12.6471C123.543 12.5794 123.032 12.7201 122.532 13.0638C120.282 14.6367 117.85 16.7669 115.241 19.4596C112.642 22.1419 110.053 25.2044 107.47 28.6471C104.897 32.0951 102.496 35.7305 100.262 39.5638C98.022 43.3971 96.1366 47.2305 94.5949 51.0638C93.0532 54.8971 92.022 58.5638 91.5116 62.0638C91.0116 65.5638 91.2407 68.7148 92.1991 71.5221C92.5845 72.6992 93.0741 73.3451 93.6574 73.4596C94.2512 73.569 94.871 73.4805 95.5116 73.1888C96.1626 72.9076 96.7668 72.7721 97.3241 72.7721C98.4491 72.7721 99.1887 73.1576 99.5532 73.9388C99.9126 74.7305 99.9126 75.5013 99.5532 76.2513C99.1887 77.0117 98.4491 77.3971 97.3241 77.3971C96.4751 77.3971 95.6157 77.2305 94.7407 76.8971C93.8762 76.5638 93.0585 76.1732 92.2824 75.7305C89.3657 73.9909 87.4543 71.7513 86.5532 69.0013C85.6626 66.2513 85.5376 63.168 86.1782 59.7513C86.8293 56.3346 88.0637 52.7826 89.8866 49.0846C91.7043 45.3919 93.9126 41.7096 96.5116 38.043C99.121 34.3763 101.897 30.8763 104.845 27.543C107.788 24.2096 110.709 21.2461 113.616 18.6471C116.532 16.0378 119.189 13.9753 121.595 12.4596C121.204 11.5169 120.366 11.3451 119.074 11.9388C117.793 12.5221 116.209 13.6576 114.324 15.3346C112.449 17.0013 110.418 19.0326 108.241 21.418C106.058 23.793 103.845 26.3138 101.595 28.9805C99.3553 31.6367 97.2199 34.2096 95.1782 36.7096C93.1366 39.1992 91.3293 41.3919 89.7616 43.293C86.9543 46.7669 83.8553 49.918 80.4699 52.7513C77.0949 55.5742 73.7095 58.0117 70.3241 60.0638C66.9334 62.1055 63.7928 63.6888 60.9074 64.8138C58.0168 65.9284 55.7043 66.4805 53.9699 66.4805C52.7459 66.4805 51.9178 66.0638 51.4907 65.2305C51.0741 64.3867 51.0741 63.543 51.4907 62.7096C51.9178 61.8659 52.7459 61.4388 53.9699 61.4388C54.8137 61.4388 55.5741 61.6211 56.2407 61.9805C56.9178 62.3451 57.5376 62.6419 58.0949 62.8763C60.7303 61.6992 63.1991 59.8086 65.4907 57.2096C67.7824 54.6003 69.9595 51.5586 72.0324 48.0846C74.1157 44.6159 76.1209 40.9909 78.0532 37.2096C79.9803 33.4336 81.9126 29.7513 83.8449 26.168C85.772 22.5846 87.746 19.3503 89.7616 16.4596C91.772 13.5742 93.871 11.3451 96.0532 9.77214C94.6626 9.32943 92.8032 9.99088 90.4699 11.7513C88.147 13.5169 85.4751 16.0117 82.4491 19.2305C79.4334 22.4544 76.1001 26.0951 72.4491 30.1471C68.8084 34.2044 64.9751 38.2826 60.9491 42.3763C57.7512 45.5742 54.5168 48.7409 51.2407 51.8763C47.9751 55.0013 44.6626 57.8555 41.3032 60.4388C37.9387 63.0117 34.522 65.0638 31.0532 66.6055C27.5793 68.1471 24.0793 68.918 20.5532 68.918Z" fill="white"/>
<path d="M111.068 66.1464C109.443 64.8548 108.667 63.2298 108.735 61.2714C108.792 59.3131 109.459 57.1881 110.735 54.8964C112.026 52.5944 113.703 50.2923 115.776 48.0006C117.844 45.7089 119.969 43.8652 122.151 42.4589C124.344 41.0579 126.391 40.1881 128.297 39.8548C130.198 39.5214 131.74 39.8287 132.922 40.7714C134.599 42.0631 135.156 44.1569 134.589 47.0423C134.031 49.9173 132.61 52.9277 130.318 56.0631C130.703 56.6777 131.485 57.011 132.651 57.0631C133.828 57.1204 135.276 56.6881 136.985 55.7714C138.693 54.8444 140.469 53.3131 142.318 51.1881L142.818 51.6881C140.745 54.386 138.818 56.3496 137.026 57.5839C135.235 58.8079 133.578 59.4902 132.068 59.6256C130.568 59.7662 129.198 59.5579 127.964 59.0006C126.005 61.2402 123.927 63.0579 121.735 64.4589C119.552 65.8652 117.526 66.7142 115.651 67.0214C113.776 67.3235 112.245 67.0319 111.068 66.1464ZM115.776 60.5214C117.068 61.5787 118.677 61.8548 120.61 61.3548C122.537 60.8548 124.511 59.7402 126.526 58.0006C126.245 57.6673 125.953 57.2089 125.651 56.6256C125.344 56.0319 125.245 55.261 125.36 54.3131C125.469 53.3548 125.943 52.261 126.776 51.0214C127.677 49.7298 128.505 48.9485 129.255 48.6673C130.016 48.3912 130.693 48.3756 131.276 48.6256C131.86 48.8756 132.297 49.1777 132.589 49.5214C133.141 48.011 133.365 46.6621 133.255 45.4798C133.141 44.3027 132.776 43.4329 132.151 42.8756C131.261 42.0996 130.115 41.7506 128.714 41.8339C127.307 41.9173 125.849 42.3964 124.339 43.2714C122.839 44.136 121.443 45.3235 120.151 46.8339C118.693 48.5735 117.469 50.3496 116.485 52.1673C115.511 53.9902 114.943 55.6412 114.776 57.1256C114.61 58.5996 114.943 59.7298 115.776 60.5214Z" fill="white"/>
<path d="M145.337 66.1464C143.712 64.8548 142.936 63.2298 143.004 61.2714C143.061 59.3131 143.728 57.1881 145.004 54.8964C146.296 52.5944 147.973 50.2923 150.046 48.0006C152.113 45.7089 154.238 43.8652 156.421 42.4589C158.613 41.0579 160.66 40.1881 162.567 39.8548C164.468 39.5214 166.009 39.8287 167.192 40.7714C168.869 42.0631 169.426 44.1569 168.858 47.0423C168.301 49.9173 166.879 52.9277 164.587 56.0631C164.973 56.6777 165.754 57.011 166.921 57.0631C168.098 57.1204 169.546 56.6881 171.254 55.7714C172.962 54.8444 174.738 53.3131 176.587 51.1881L177.087 51.6881C175.014 54.386 173.087 56.3496 171.296 57.5839C169.504 58.8079 167.848 59.4902 166.337 59.6256C164.837 59.7662 163.468 59.5579 162.233 59.0006C160.275 61.2402 158.197 63.0579 156.004 64.4589C153.822 65.8652 151.796 66.7142 149.921 67.0214C148.046 67.3235 146.514 67.0319 145.337 66.1464ZM150.046 60.5214C151.337 61.5787 152.947 61.8548 154.879 61.3548C156.806 60.8548 158.78 59.7402 160.796 58.0006C160.514 57.6673 160.223 57.2089 159.921 56.6256C159.613 56.0319 159.514 55.261 159.629 54.3131C159.738 53.3548 160.212 52.261 161.046 51.0214C161.947 49.7298 162.775 48.9485 163.525 48.6673C164.285 48.3912 164.962 48.3756 165.546 48.6256C166.129 48.8756 166.567 49.1777 166.858 49.5214C167.41 48.011 167.634 46.6621 167.525 45.4798C167.41 44.3027 167.046 43.4329 166.421 42.8756C165.53 42.0996 164.384 41.7506 162.983 41.8339C161.577 41.9173 160.119 42.3964 158.608 43.2714C157.108 44.136 155.712 45.3235 154.421 46.8339C152.962 48.5735 151.738 50.3496 150.754 52.1673C149.78 53.9902 149.212 55.6412 149.046 57.1256C148.879 58.5996 149.212 59.7298 150.046 60.5214Z" fill="white"/>
<path d="M194.639 65.9801C193.748 65.0217 193.332 63.8499 193.389 62.4592C193.441 61.0582 193.832 59.5738 194.556 58.0009C192.707 60.1832 190.774 62.0321 188.764 63.5426C186.748 65.0582 184.858 66.0217 183.097 66.4384C181.332 66.8551 179.806 66.5634 178.514 65.5634C176.946 64.2717 176.321 62.6363 176.639 60.6467C176.946 58.6624 177.92 56.5374 179.556 54.2717C181.207 51.9957 183.186 49.7665 185.493 47.5842C187.785 45.4592 190.076 43.7665 192.368 42.5009C194.67 41.2405 196.748 40.454 198.597 40.1467C200.441 39.8446 201.811 40.053 202.701 40.7717C203.326 41.2196 203.681 41.7926 203.764 42.5009C203.847 43.1988 203.748 43.9384 203.472 44.7301C204.248 43.7717 204.972 42.9176 205.639 42.1676C206.316 41.4071 206.852 40.7457 207.243 40.1884C207.962 39.2874 208.915 38.0582 210.097 36.5009C211.274 34.9332 212.561 33.2092 213.951 31.3342C215.352 29.4592 216.727 27.5999 218.076 25.7509C219.42 23.8915 220.649 22.2249 221.764 20.7509C222.889 19.2665 223.733 18.1571 224.306 17.4176C225.191 16.2509 226.097 15.6155 227.014 15.5009C227.941 15.3915 228.727 15.5999 229.368 16.1259C230.019 16.6571 230.358 17.3707 230.389 18.2717C230.415 19.1624 229.951 20.0582 228.993 20.9592C228.102 21.7926 226.545 23.2301 224.326 25.2717C222.118 27.3134 219.623 29.7509 216.847 32.5842C214.082 35.4176 211.415 38.4332 208.847 41.6259C206.597 44.4176 204.587 47.0946 202.826 49.6467C201.061 52.1884 199.832 54.428 199.139 56.3551C198.441 58.2874 198.514 59.7613 199.347 60.7717C200.415 62.0113 202.358 61.9801 205.181 60.6884C208.014 59.3967 211.498 56.5426 215.639 52.1259L216.222 52.3759C214.373 54.7821 212.399 57.0165 210.306 59.0842C208.207 61.1571 206.165 62.8915 204.181 64.2926C202.191 65.6988 200.358 66.5738 198.681 66.9384C196.998 67.2978 195.649 66.9801 194.639 65.9801ZM184.472 60.8551C185.373 61.8551 186.54 62.0634 187.972 61.4801C189.399 60.8967 190.91 59.8499 192.493 58.3342C194.087 56.8238 195.587 55.1988 196.993 53.4592C197.602 52.5009 198.243 51.5374 198.91 50.5634C199.587 49.579 200.295 48.6415 201.035 47.7509C201.644 46.7926 202.045 45.8446 202.243 44.8967C202.436 43.9384 202.253 43.2665 201.701 42.8759C200.795 42.1571 199.628 41.9332 198.201 42.2092C196.785 42.4905 195.264 43.1467 193.639 44.1884C192.014 45.2196 190.472 46.4592 189.014 47.9176C187.556 49.3759 186.316 50.9176 185.306 52.5426C184.306 54.1676 183.691 55.7092 183.472 57.1676C183.248 58.6155 183.582 59.8446 184.472 60.8551Z" fill="white"/>
<path d="M222.1 65.898C220.256 65.0542 219.22 63.5803 218.996 61.4813C218.777 59.3876 219.173 56.9396 220.183 54.148C221.183 51.3459 222.637 48.4292 224.538 45.398C226.439 42.3719 228.652 39.5178 231.183 36.8355C234.142 33.7521 237.34 30.3771 240.788 26.7105C244.23 23.0438 248.001 19.7521 252.1 16.8355C253.319 15.9501 254.454 15.5855 255.496 15.7521C256.538 15.9188 257.35 16.3876 257.933 17.148C258.517 17.898 258.725 18.7521 258.558 19.7105C258.392 20.6584 257.689 21.4605 256.454 22.1271C251.079 25.0438 246.527 27.7521 242.808 30.2521C239.084 32.7417 235.819 35.5438 233.017 38.6688C231.626 40.2417 230.314 41.9969 229.079 43.9396C227.84 45.8719 226.871 47.8042 226.163 49.7313C225.465 51.6636 225.131 53.4396 225.163 55.0646C225.189 56.6896 225.767 58.0021 226.892 59.0021C228.069 60.0178 229.543 60.4136 231.308 60.1896C233.069 59.9553 234.819 59.0855 236.558 57.5855C236.225 56.2417 236.152 54.7834 236.35 53.2105C236.543 51.6428 236.86 50.0855 237.308 48.5438C237.751 47.0021 238.173 45.6792 238.579 44.5646C238.965 43.7209 239.496 42.9501 240.163 42.2521C240.84 41.5438 241.709 41.273 242.767 41.4396C244.001 41.6792 244.814 42.1688 245.204 42.9188C245.59 43.6688 245.73 44.4709 245.621 45.3146C245.397 46.8876 244.959 48.4136 244.308 49.898C243.668 51.3876 242.876 52.8511 241.933 54.2938C241.652 55.2001 241.517 56.0021 241.517 56.7105C241.517 57.4084 241.735 57.9761 242.183 58.4188C242.793 58.9761 243.746 58.9761 245.038 58.4188C246.329 57.8667 247.725 56.9553 249.225 55.6896C250.735 54.4292 252.084 53.0959 253.267 51.6896L253.683 52.2938C252.793 53.4084 251.704 54.5803 250.413 55.8146C249.121 57.0542 247.756 58.1636 246.329 59.148C244.913 60.1219 243.569 60.8042 242.308 61.1896C241.043 61.5803 239.939 61.523 238.996 61.023C238.715 60.8563 238.444 60.648 238.183 60.398C237.933 60.148 237.694 59.9084 237.475 59.6688C235.793 61.3511 234.001 62.7678 232.1 63.9188C230.194 65.0751 228.376 65.8459 226.642 66.2313C224.902 66.6167 223.392 66.5074 222.1 65.898Z" fill="white"/>
<path d="M257.037 66.1464C255.412 64.8548 254.636 63.2298 254.703 61.2714C254.761 59.3131 255.427 57.1881 256.703 54.8964C257.995 52.5944 259.672 50.2923 261.745 48.0006C263.813 45.7089 265.938 43.8652 268.12 42.4589C270.313 41.0579 272.36 40.1881 274.266 39.8548C276.167 39.5214 277.709 39.8287 278.891 40.7714C280.568 42.0631 281.125 44.1569 280.557 47.0423C280 49.9173 278.578 52.9277 276.287 56.0631C276.672 56.6777 277.453 57.011 278.62 57.0631C279.797 57.1204 281.245 56.6881 282.953 55.7714C284.662 54.8444 286.438 53.3131 288.287 51.1881L288.787 51.6881C286.714 54.386 284.787 56.3496 282.995 57.5839C281.203 58.8079 279.547 59.4902 278.037 59.6256C276.537 59.7662 275.167 59.5579 273.932 59.0006C271.974 61.2402 269.896 63.0579 267.703 64.4589C265.521 65.8652 263.495 66.7142 261.62 67.0214C259.745 67.3235 258.214 67.0319 257.037 66.1464ZM261.745 60.5214C263.037 61.5787 264.646 61.8548 266.578 61.3548C268.505 60.8548 270.479 59.7402 272.495 58.0006C272.214 57.6673 271.922 57.2089 271.62 56.6256C271.313 56.0319 271.214 55.261 271.328 54.3131C271.438 53.3548 271.912 52.261 272.745 51.0214C273.646 49.7298 274.474 48.9485 275.224 48.6673C275.985 48.3912 276.662 48.3756 277.245 48.6256C277.828 48.8756 278.266 49.1777 278.557 49.5214C279.11 48.011 279.334 46.6621 279.224 45.4798C279.11 44.3027 278.745 43.4329 278.12 42.8756C277.229 42.0996 276.084 41.7506 274.682 41.8339C273.276 41.9173 271.818 42.3964 270.307 43.2714C268.807 44.136 267.412 45.3235 266.12 46.8339C264.662 48.5735 263.438 50.3496 262.453 52.1673C261.479 53.9902 260.912 55.6412 260.745 57.1256C260.578 58.5996 260.912 59.7298 261.745 60.5214Z" fill="white"/>
<path d="M290.385 65.4804C288.817 64.1888 288.192 62.5534 288.51 60.5638C288.817 58.5794 289.791 56.4544 291.427 54.1888C293.078 51.9127 295.057 49.6836 297.364 47.5013C299.656 45.3763 301.947 43.6836 304.239 42.4179C306.541 41.1575 308.619 40.3711 310.468 40.0638C312.312 39.7617 313.682 39.97 314.572 40.6888C315.307 41.2461 315.677 42.0325 315.677 43.0429C315.843 42.7669 316.01 42.4909 316.177 42.2096C316.343 41.9336 316.536 41.6784 316.76 41.4388C317.26 40.72 317.895 40.3034 318.677 40.1888C319.468 40.0794 320.182 40.2044 320.822 40.5638C321.474 40.9284 321.885 41.4909 322.052 42.2513C322.218 43.0013 321.911 43.8867 321.135 44.8971C320.635 45.5638 319.833 46.4075 318.739 47.4179C317.64 48.4179 316.458 49.5117 315.197 50.6888C313.947 51.8711 312.786 53.0534 311.718 54.2304C310.661 55.3971 309.89 56.5169 309.406 57.5846C308.932 58.6419 308.974 59.5638 309.531 60.3554C310.656 61.9804 312.64 62.1211 315.489 60.7721C318.349 59.4284 321.828 56.5742 325.927 52.2096L326.51 52.5429C324.604 55.0586 322.599 57.3502 320.489 59.4179C318.39 61.4909 316.333 63.1836 314.322 64.5013C312.307 65.8242 310.489 66.6159 308.864 66.8971C307.239 67.1731 305.953 66.7825 305.01 65.7304C304.27 64.8867 304.015 63.8763 304.239 62.7096C304.474 61.5325 304.953 60.2669 305.677 58.9179C303.828 60.9336 301.968 62.6159 300.093 63.9596C298.218 65.3086 296.437 66.1367 294.76 66.4388C293.078 66.7409 291.619 66.4284 290.385 65.4804ZM296.343 60.7721C297.078 61.6054 297.989 61.8711 299.072 61.5638C300.166 61.2617 301.328 60.6054 302.552 59.6054C303.786 58.595 305.052 57.4284 306.343 56.1054C307.635 54.7877 308.812 53.5429 309.885 52.3763C310.604 51.2513 311.27 50.1627 311.885 49.1054C312.51 48.0377 313.156 46.97 313.822 45.8971C314.265 44.845 314.447 43.9961 314.364 43.3554C314.281 42.7044 314.015 42.1836 313.572 41.7929C312.724 41.0586 311.458 41.0013 309.781 41.6263C308.114 42.2409 306.333 43.2617 304.447 44.6888C302.572 46.1211 300.911 47.7044 299.468 49.4388C297.729 51.4544 296.479 53.5117 295.718 55.6054C294.968 57.7044 295.177 59.4284 296.343 60.7721Z" fill="white"/>
<path d="M334.652 65.2308C333.303 63.8871 332.882 62.3142 333.382 60.5225C333.892 58.7308 335.517 56.6267 338.257 54.21C339.991 52.6996 341.699 51.1892 343.382 49.6892C345.059 48.1787 346.35 46.6371 347.257 45.0642C347.809 44.1058 347.803 43.2673 347.236 42.5433C346.678 41.8089 345.965 41.3037 345.09 41.0225C344.225 40.7464 343.548 40.8558 343.048 41.3558C342.267 42.0954 341.178 43.1787 339.777 44.6058C338.371 46.0225 336.861 47.585 335.236 49.2933C333.611 51.0017 332.038 52.6996 330.527 54.3767L330.027 53.7933L341.111 41.1058C341.621 40.4964 341.803 39.8037 341.652 39.0225C341.512 38.2308 341.303 37.3662 341.027 36.4183C340.746 35.46 340.611 34.4496 340.611 33.3767C340.611 32.4912 340.887 31.7829 341.444 31.2517C342.012 30.71 342.684 30.3975 343.465 30.3142C344.257 30.2308 344.97 30.4183 345.611 30.8767C346.246 31.3246 346.652 32.0433 346.819 33.0433C346.928 33.8923 346.788 34.6058 346.402 35.1892C346.012 35.7725 345.762 36.6839 345.652 37.9183C345.652 38.4183 345.902 38.8975 346.402 39.3558C346.913 39.8037 347.507 40.2725 348.173 40.7725C348.84 41.2725 349.423 41.8246 349.923 42.4183C350.434 43.0017 350.663 43.7204 350.611 44.5642C350.553 45.9548 350.074 47.3246 349.173 48.6683C348.283 50.0173 347.236 51.2933 346.027 52.5017C344.819 53.6996 343.663 54.8037 342.569 55.8142C341.486 56.8298 340.694 57.7517 340.194 58.585C339.694 59.4183 339.694 60.1475 340.194 60.7725C341.371 62.1214 343.371 62.0537 346.194 60.5642C349.027 59.0798 352.736 55.8714 357.319 50.9392L357.923 51.1892C355.059 54.9964 352.116 58.2308 349.09 60.8975C346.074 63.5537 343.288 65.3142 340.736 66.1892C338.194 67.0485 336.163 66.7308 334.652 65.2308Z" fill="white"/>
<path d="M375.295 65.9801C374.405 65.0217 373.988 63.8499 374.045 62.4592C374.097 61.0582 374.488 59.5738 375.212 58.0009C373.363 60.1832 371.431 62.0321 369.42 63.5426C367.405 65.0582 365.514 66.0217 363.753 66.4384C361.988 66.8551 360.462 66.5634 359.17 65.5634C357.602 64.2717 356.977 62.6363 357.295 60.6467C357.602 58.6624 358.576 56.5374 360.212 54.2717C361.863 51.9957 363.842 49.7665 366.149 47.5842C368.441 45.4592 370.733 43.7665 373.024 42.5009C375.326 41.2405 377.405 40.454 379.253 40.1467C381.097 39.8446 382.467 40.053 383.358 40.7717C383.983 41.2196 384.337 41.7926 384.42 42.5009C384.503 43.1988 384.405 43.9384 384.128 44.7301C384.905 43.7717 385.628 42.9176 386.295 42.1676C386.972 41.4071 387.509 40.7457 387.899 40.1884C388.618 39.2874 389.571 38.0582 390.753 36.5009C391.931 34.9332 393.217 33.2092 394.608 31.3342C396.009 29.4592 397.384 27.5999 398.733 25.7509C400.076 23.8915 401.306 22.2249 402.42 20.7509C403.545 19.2665 404.389 18.1571 404.962 17.4176C405.847 16.2509 406.753 15.6155 407.67 15.5009C408.597 15.3915 409.384 15.5999 410.024 16.1259C410.675 16.6571 411.014 17.3707 411.045 18.2717C411.071 19.1624 410.608 20.0582 409.649 20.9592C408.759 21.7926 407.201 23.2301 404.983 25.2717C402.774 27.3134 400.28 29.7509 397.503 32.5842C394.738 35.4176 392.071 38.4332 389.503 41.6259C387.253 44.4176 385.243 47.0946 383.483 49.6467C381.717 52.1884 380.488 54.428 379.795 56.3551C379.097 58.2874 379.17 59.7613 380.003 60.7717C381.071 62.0113 383.014 61.9801 385.837 60.6884C388.67 59.3967 392.155 56.5426 396.295 52.1259L396.878 52.3759C395.03 54.7821 393.056 57.0165 390.962 59.0842C388.863 61.1571 386.821 62.8915 384.837 64.2926C382.847 65.6988 381.014 66.5738 379.337 66.9384C377.655 67.2978 376.306 66.9801 375.295 65.9801ZM365.128 60.8551C366.03 61.8551 367.196 62.0634 368.628 61.4801C370.056 60.8967 371.566 59.8499 373.149 58.3342C374.743 56.8238 376.243 55.1988 377.649 53.4592C378.259 52.5009 378.899 51.5374 379.566 50.5634C380.243 49.579 380.951 48.6415 381.691 47.7509C382.3 46.7926 382.701 45.8446 382.899 44.8967C383.092 43.9384 382.91 43.2665 382.358 42.8759C381.451 42.1571 380.285 41.9332 378.858 42.2092C377.441 42.4905 375.92 43.1467 374.295 44.1884C372.67 45.2196 371.128 46.4592 369.67 47.9176C368.212 49.3759 366.972 50.9176 365.962 52.5426C364.962 54.1676 364.347 55.7092 364.128 57.1676C363.905 58.6155 364.238 59.8446 365.128 60.8551Z" fill="white"/>
</g>
</svg>
