<svg width="272" height="66" viewBox="0 0 272 66" fill="none" xmlns="http://www.w3.org/2000/svg">
<mask id="mask0_2300_236" style="mask-type:luminance" maskUnits="userSpaceOnUse" x="0" y="0" width="272" height="66">
<path d="M272 0H0V65.3333H272V0Z" fill="white"/>
</mask>
<g mask="url(#mask0_2300_236)">
<path d="M5.52994 45.134C3.91536 43.9153 2.85807 42.2695 2.34244 40.1965C1.8164 38.1132 1.79557 35.7695 2.27994 33.1549C2.7539 30.5299 3.67057 27.7903 5.02994 24.9257C6.40494 22.0663 8.16536 19.233 10.3216 16.4257C12.4726 13.6236 14.7487 11.2122 17.1549 9.19655C19.556 7.1705 21.9466 5.6028 24.3216 4.48821C26.707 3.37884 28.9779 2.7955 31.1341 2.73821C33.2851 2.6705 35.1758 3.19654 36.8008 4.32155C38.5195 5.58717 39.6601 7.23821 40.2174 9.27988C40.7695 11.3111 40.806 13.6132 40.3216 16.1965C39.8476 18.7695 38.8893 21.4882 37.4466 24.3632C36.0143 27.2278 34.181 30.1132 31.9466 33.0299C29.7904 35.7955 27.4987 38.207 25.0716 40.259C22.6549 42.3163 20.2487 43.9153 17.8633 45.0507C15.4883 46.1861 13.2279 46.7851 11.0924 46.8424C8.96744 46.8945 7.11327 46.3268 5.52994 45.134ZM9.40494 39.3632C11.2799 40.7955 13.4258 41.4622 15.8424 41.3632C18.2695 41.2695 20.7851 40.4153 23.3841 38.8007C25.9779 37.1913 28.431 34.8215 30.7383 31.6965C33.1549 28.4361 34.7851 25.3215 35.6341 22.3632C36.4779 19.4049 36.6601 16.7799 36.1758 14.4882C35.7018 12.1965 34.6185 10.4622 32.9258 9.27988C31.1185 7.93613 29.0508 7.33196 26.7174 7.46738C24.3945 7.59238 21.9674 8.483 19.4258 10.134C16.8945 11.7903 14.4049 14.2486 11.9466 17.509C9.59765 20.5507 7.93619 23.4986 6.96744 26.3424C6.00911 29.1913 5.73827 31.7486 6.15494 34.009C6.58202 36.2747 7.66536 38.0611 9.40494 39.3632Z" fill="white"/>
<path d="M46.8742 46.5712C46.5669 46.9566 46.2388 47.1545 45.895 47.1545C45.5513 47.1545 45.3117 47.0139 45.1867 46.7379C45.0513 46.4722 45.1138 46.165 45.3742 45.8212C45.3742 45.8212 45.7544 45.3368 46.52 44.3629C47.2961 43.3785 48.3586 42.0608 49.7075 40.4045C51.0513 38.7535 52.5617 36.8733 54.2284 34.7587C55.895 32.6493 57.6294 30.4618 59.4367 28.1962C61.2544 25.9202 63.0409 23.6754 64.7909 21.467C66.5409 19.2587 68.1502 17.217 69.6242 15.342C71.1086 13.4566 72.3325 11.8733 73.2909 10.592C71.3325 11.441 69.7127 11.9566 68.4367 12.1337C67.1711 12.3004 65.8117 12.2899 64.3534 12.092C63.4627 11.9827 62.5669 11.6754 61.6659 11.1754C60.7596 10.6754 59.8638 10.1285 58.9784 9.52953C58.1034 8.93578 57.2179 8.41495 56.3325 7.96703C55.4419 7.52432 54.5825 7.31599 53.7492 7.34203C52.9263 7.35766 52.1138 7.75349 51.3117 8.52953C50.7804 9.02953 50.3429 9.70661 49.9992 10.5504C49.6502 11.3837 49.3586 12.1754 49.1242 12.9254C48.8846 13.6754 48.6554 14.191 48.4367 14.467C47.9784 15.0399 47.4836 15.342 46.9575 15.3837C46.4419 15.4254 45.9836 15.2743 45.5825 14.9254C45.1815 14.5816 44.9523 14.1493 44.895 13.6337C44.8273 13.1077 45.0409 12.592 45.5409 12.092C46.1659 11.441 46.9054 10.7691 47.77 10.0712C48.6294 9.37849 49.3742 8.72745 49.9992 8.11287C51.2179 6.81078 52.5669 5.76912 54.0409 4.98787C55.5252 4.1962 56.9419 3.83682 58.2909 3.90453C59.0929 3.98787 59.9836 4.31078 60.9575 4.86287C61.9419 5.42016 62.9888 6.05037 64.1034 6.7587C65.2284 7.46703 66.3742 8.11287 67.5409 8.6962C68.7179 9.26912 69.9211 9.61287 71.145 9.73787C72.3794 9.85245 73.5929 9.58162 74.7909 8.92537C75.2492 8.66495 75.5409 8.3837 75.6659 8.09203C75.8013 7.80037 75.9211 7.50349 76.02 7.1962C76.1138 6.89412 76.3169 6.60245 76.6242 6.3212C77.0513 5.97745 77.4784 5.96182 77.895 6.27953C78.3221 6.58682 78.4419 6.9462 78.2492 7.36287C78.1346 7.79516 77.9575 8.12849 77.7075 8.36287C77.4575 8.58682 77.145 8.84203 76.77 9.1337C76.4055 9.41495 75.9784 9.89932 75.4784 10.592C71.6294 16.1754 67.8742 21.7743 64.2075 27.3837C60.5409 32.9983 56.7804 38.566 52.9367 44.092C52.6294 44.566 52.2544 44.8316 51.8117 44.8837C51.3638 44.941 50.8742 44.9618 50.3325 44.9462C49.7909 44.9202 49.2179 45.0035 48.6242 45.1962C48.0409 45.3941 47.4575 45.8524 46.8742 46.5712Z" fill="white"/>
<path d="M82.3912 45.7171C82.0006 45.3317 81.7871 44.7796 81.7454 44.0713C81.7141 43.363 81.9121 42.665 82.3287 41.9671C82.7975 41.2327 83.3496 40.7379 83.9746 40.4879C84.61 40.2379 85.1412 40.29 85.5579 40.6338C85.985 40.9827 86.2141 41.5192 86.2454 42.2379C86.2871 42.9463 86.0996 43.6442 85.6829 44.3213C85.2506 45.0609 84.7089 45.5505 84.0579 45.8005C83.4016 46.0505 82.8496 46.0192 82.3912 45.7171Z" fill="white"/>
<path d="M95.1881 45.134C93.5736 43.9153 92.5163 42.2695 92.0006 40.1965C91.4746 38.1132 91.4538 35.7695 91.9381 33.1549C92.4121 30.5299 93.3288 27.7903 94.6881 24.9257C96.0631 22.0663 97.8236 19.233 99.9798 16.4257C102.131 13.6236 104.407 11.2122 106.813 9.19655C109.214 7.1705 111.605 5.6028 113.98 4.48821C116.365 3.37884 118.636 2.7955 120.792 2.73821C122.943 2.6705 124.834 3.19654 126.459 4.32155C128.178 5.58717 129.318 7.23821 129.876 9.27988C130.428 11.3111 130.464 13.6132 129.98 16.1965C129.506 18.7695 128.548 21.4882 127.105 24.3632C125.673 27.2278 123.839 30.1132 121.605 33.0299C119.449 35.7955 117.157 38.207 114.73 40.259C112.313 42.3163 109.907 43.9153 107.521 45.0507C105.146 46.1861 102.886 46.7851 100.751 46.8424C98.6256 46.8945 96.7715 46.3268 95.1881 45.134ZM99.0631 39.3632C100.938 40.7955 103.084 41.4622 105.501 41.3632C107.928 41.2695 110.443 40.4153 113.042 38.8007C115.636 37.1913 118.089 34.8215 120.396 31.6965C122.813 28.4361 124.443 25.3215 125.292 22.3632C126.136 19.4049 126.318 16.7799 125.834 14.4882C125.36 12.1965 124.277 10.4622 122.584 9.27988C120.777 7.93613 118.709 7.33196 116.376 7.46738C114.053 7.59238 111.626 8.483 109.084 10.134C106.553 11.7903 104.063 14.2486 101.605 17.509C99.2559 20.5507 97.5944 23.4986 96.6256 26.3424C95.6673 29.1913 95.3965 31.7486 95.8131 34.009C96.2402 36.2747 97.3236 38.0611 99.0631 39.3632Z" fill="white"/>
<path d="M144.145 46.3425C142.103 46.5768 140.009 46.4935 137.874 46.0925C135.749 45.6914 133.79 44.9623 131.999 43.905C130.218 42.8529 128.811 41.4987 127.77 39.8425C127.384 39.1914 127.259 38.5873 127.395 38.03C127.535 37.4623 127.827 37.0196 128.27 36.6966C128.697 36.3633 129.191 36.2591 129.749 36.3841C130.316 36.4987 130.832 36.8998 131.29 37.5925C133.207 40.6237 135.27 42.6966 137.478 43.8216C139.697 44.9362 141.811 45.3529 143.811 45.0716C145.337 44.8529 146.759 44.3112 148.082 43.4466C149.415 42.5716 150.561 41.4779 151.52 40.155C152.488 38.8216 153.186 37.405 153.603 35.905C154.061 34.405 154.238 32.9258 154.145 31.4675C154.046 30.0091 153.65 28.7331 152.957 27.6341C152.275 26.5404 151.27 25.7591 149.936 25.3008C148.613 24.8425 146.936 24.8425 144.895 25.3008C144.322 25.4154 143.853 25.3321 143.478 25.0508C143.113 24.7591 142.905 24.405 142.853 23.9883C142.796 23.5612 142.921 23.1862 143.228 22.8633C143.53 22.53 144.087 22.3633 144.895 22.3633C145.129 22.3633 145.478 22.4362 145.936 22.5716C146.395 22.6966 146.926 22.8581 147.54 23.0508C149.165 23.1654 150.879 22.9154 152.686 22.3008C154.488 21.6914 156.171 20.7279 157.728 19.405C159.28 18.0716 160.462 16.4258 161.27 14.4675C161.77 13.2748 162.103 12.0508 162.27 10.8008C162.447 9.55081 162.384 8.40497 162.082 7.36331C161.775 6.32164 161.103 5.57164 160.061 5.11331C158.363 4.31122 156.546 4.17581 154.603 4.71747C152.671 5.25914 150.863 6.3581 149.186 8.00914C147.52 9.66539 146.218 11.7539 145.29 14.28C145.066 14.9779 144.691 15.4623 144.165 15.7383C143.65 16.0039 143.129 16.0821 142.603 15.9675C142.087 15.8425 141.697 15.5508 141.436 15.0925C141.171 14.6341 141.15 14.0039 141.374 13.1966C141.65 12.1966 142.238 11.1498 143.145 10.0508C144.046 8.95706 145.15 7.9206 146.457 6.94664C147.759 5.96227 149.197 5.14456 150.77 4.48831C152.353 3.83727 153.999 3.44143 155.707 3.30081C157.415 3.16539 159.093 3.4206 160.749 4.07164C162.134 4.61331 163.28 5.43622 164.186 6.52997C165.087 7.62893 165.645 8.94664 165.853 10.4883C166.072 12.0196 165.796 13.7279 165.02 15.6133C164.254 17.4623 163.108 18.9258 161.582 20.0091C160.066 21.0821 158.311 21.9154 156.311 22.5091C154.311 23.1081 152.197 23.6133 149.978 24.03L151.353 24.6133C154.77 26.155 156.983 28.0612 157.999 30.3216C159.025 32.5873 159.113 34.8737 158.27 37.1758C157.613 38.9831 156.546 40.53 155.061 41.8216C153.587 43.1133 151.9 44.1341 149.999 44.8841C148.093 45.6341 146.145 46.1185 144.145 46.3425Z" fill="white"/>
<path d="M170.319 45.7171C169.928 45.3317 169.715 44.7796 169.673 44.0713C169.642 43.363 169.84 42.665 170.256 41.9671C170.725 41.2327 171.277 40.7379 171.902 40.4879C172.538 40.2379 173.069 40.29 173.486 40.6338C173.913 40.9827 174.142 41.5192 174.173 42.2379C174.215 42.9463 174.027 43.6442 173.611 44.3213C173.178 45.0609 172.637 45.5505 171.986 45.8005C171.329 46.0505 170.777 46.0192 170.319 45.7171Z" fill="white"/>
<path d="M180.305 45.2587C179.764 45.8733 179.196 46.1806 178.597 46.1962C178.003 46.2223 177.503 46.0556 177.097 45.6962C176.696 45.3212 176.472 44.8525 176.43 44.2795C176.389 43.6962 176.639 43.1337 177.18 42.592C178.571 41.217 180.253 39.9566 182.222 38.8004C184.206 37.6493 186.253 36.6129 188.368 35.6962C190.477 34.7691 192.456 33.9566 194.305 33.2587C197.889 31.915 201.331 30.5816 204.639 29.2587C207.941 27.9254 210.951 26.4358 213.659 24.7795C216.368 23.1285 218.545 21.1285 220.201 18.7795C221.128 17.4775 221.857 16.1129 222.389 14.6962C222.93 13.2691 223.206 11.8941 223.222 10.5712C223.248 9.23788 222.935 8.066 222.284 7.05038C221.628 6.03996 220.555 5.29517 219.055 4.82121C217.623 4.36288 216.034 4.2535 214.284 4.48788C212.534 4.71183 210.784 5.26913 209.034 6.15454C207.295 7.04517 205.711 8.26913 204.284 9.82121C202.868 11.3785 201.81 13.2691 201.118 15.4879C200.852 16.3785 200.357 16.8993 199.639 17.0504C198.93 17.2066 198.295 17.0504 197.743 16.592C197.185 16.1337 196.982 15.441 197.139 14.5087C197.331 13.441 197.93 12.2795 198.93 11.0295C199.93 9.77954 201.206 8.59204 202.764 7.46704C204.316 6.33162 206.055 5.38371 207.972 4.63371C209.899 3.88371 211.92 3.43579 214.034 3.27954C216.144 3.1285 218.222 3.43579 220.264 4.19621C222.373 4.96183 223.915 6.00871 224.889 7.34204C225.873 8.66496 226.441 10.1077 226.597 11.6754C226.748 13.2327 226.602 14.7535 226.159 16.2379C225.727 17.7118 225.107 18.9827 224.305 20.0504C222.566 22.3577 220.623 24.1962 218.472 25.5712C216.316 26.9358 213.993 28.066 211.493 28.967C208.993 29.8733 206.368 30.717 203.618 31.5087C200.868 32.29 198.076 33.2535 195.243 34.4045C193.003 35.2952 190.961 36.316 189.118 37.467C187.269 38.6233 185.56 39.9254 183.993 41.3837C185.909 40.316 187.816 39.4566 189.722 38.8004C191.623 38.1493 193.576 37.9983 195.576 38.342C197.034 38.6077 198.534 39.1337 200.076 39.9254C201.618 40.7066 203.118 41.5087 204.576 42.342C206.034 43.1754 207.368 43.8004 208.576 44.217C209.795 44.6337 210.79 44.6129 211.555 44.1545C212.972 43.2795 213.711 42.191 213.784 40.8837C213.868 39.566 213.394 38.2535 212.368 36.9462C211.784 36.1858 211.524 35.4827 211.597 34.842C211.68 34.2066 211.956 33.717 212.43 33.3837C212.915 33.04 213.461 32.9358 214.076 33.0712C214.701 33.1962 215.222 33.6441 215.639 34.4045C216.264 35.4879 216.524 36.7066 216.43 38.0504C216.331 39.3993 215.915 40.6962 215.18 41.9462C214.456 43.1962 213.42 44.2275 212.076 45.0295C210.576 45.9045 208.935 46.415 207.159 46.5712C205.394 46.7379 203.639 46.5816 201.889 46.1129C200.139 45.6545 198.498 44.967 196.972 44.0504C195.149 42.9254 193.347 42.1077 191.555 41.592C189.774 41.0816 187.956 41.0712 186.097 41.5712C184.232 42.0712 182.305 43.3004 180.305 45.2587Z" fill="white"/>
<path d="M232.482 45.1962C231.242 44.6545 230.149 43.7274 229.19 42.4045C228.232 41.0712 227.581 39.441 227.232 37.5087C226.888 35.566 227.013 33.3837 227.607 30.967C228.206 28.5399 229.425 25.941 231.274 23.1753C233.117 20.4826 235.326 17.8785 237.899 15.3628C240.466 12.8368 243.274 10.6128 246.315 8.69616C249.357 6.76908 252.409 5.36283 255.482 4.48783C257.826 3.83679 260.128 3.52429 262.378 3.55033C264.628 3.56596 266.753 4.06596 268.753 5.05033C269.472 5.39929 269.904 5.81596 270.045 6.30033C270.18 6.78991 270.107 7.22741 269.815 7.61283C269.524 7.98783 269.128 8.22741 268.628 8.32116C268.128 8.42012 267.612 8.25346 267.086 7.82116C265.237 6.36283 263.341 5.47741 261.399 5.1545C259.451 4.82116 257.482 4.94616 255.482 5.5295C253.133 6.21179 250.795 7.44096 248.461 9.217C246.138 10.9826 243.862 13.1545 241.628 15.7378C239.404 18.3107 237.258 21.1493 235.19 24.2587C236.992 22.191 238.899 20.6024 240.899 19.4878C242.899 18.3628 244.847 17.6753 246.753 17.4253C248.654 17.1753 250.357 17.342 251.857 17.9253C253.399 18.467 254.633 19.4149 255.565 20.7587C256.508 22.092 257.034 23.7743 257.149 25.8003C257.274 27.816 256.795 30.1493 255.711 32.8003C254.68 35.3732 253.253 37.6232 251.42 39.5503C249.597 41.467 247.571 42.9878 245.336 44.1128C243.112 45.2274 240.878 45.8837 238.628 46.092C236.378 46.3003 234.326 45.9982 232.482 45.1962ZM232.128 29.7378C231.17 31.9357 230.586 34.0295 230.378 36.0295C230.17 38.0295 230.321 39.7482 230.836 41.1753C231.347 42.592 232.222 43.566 233.461 44.092C235.154 44.7899 236.826 44.9982 238.482 44.717C240.133 44.4253 241.722 43.7587 243.253 42.717C244.795 41.6753 246.196 40.3628 247.461 38.7795C248.737 37.1857 249.8 35.441 250.649 33.5503C252.341 29.8993 252.992 27.0087 252.607 24.8837C252.216 22.7482 251.237 21.2899 249.67 20.5087C248.513 19.8993 247.138 19.6649 245.545 19.8003C243.946 19.9253 242.305 20.3993 240.628 21.217C238.961 22.0243 237.378 23.1493 235.878 24.592C234.378 26.0243 233.128 27.7378 232.128 29.7378Z" fill="white"/>
</g>
</svg>
