<svg width="234" height="65" viewBox="0 0 234 65" fill="none" xmlns="http://www.w3.org/2000/svg">
<path d="M23.9783 34.4227C23.5616 35.8133 22.6658 37.1258 21.2908 38.3602C19.9158 39.5842 18.3429 40.7925 16.5825 41.9852C14.9002 43.1779 13.1918 44.381 11.4575 45.5894C9.73871 46.8081 8.24392 48.0894 6.9783 49.4227C5.70226 50.7665 4.89496 52.2248 4.56163 53.7977C4.2283 55.4331 4.32726 56.8915 4.8533 58.1727C5.36892 59.4644 6.18663 60.4904 7.31163 61.256C8.42621 62.0165 9.70746 62.4956 11.1658 62.6935C13.2908 62.954 15.1137 62.6831 16.645 61.881C18.171 61.0737 19.27 60.0946 19.9366 58.9435C20.4627 58.0112 20.7127 57.0685 20.6866 56.1102C20.671 55.1623 20.3377 54.3237 19.6866 53.5894C19.0304 52.8654 18.02 52.3706 16.645 52.1102C15.7804 51.9279 15.2804 51.5477 15.145 50.9644C15.02 50.381 15.1554 49.8498 15.5616 49.381C15.9783 48.9227 16.6033 48.8029 17.4366 49.0269C18.921 49.4435 20.0304 50.1987 20.77 51.2977C21.52 52.3915 21.895 53.6415 21.895 55.0477C21.895 56.4487 21.5252 57.8237 20.7908 59.1727C19.9262 60.6987 18.6033 61.9956 16.8116 63.0685C15.02 64.1519 12.7387 64.6779 9.9783 64.6519C7.96788 64.6102 6.12413 64.1206 4.45746 63.1935C2.78038 62.2612 1.53559 60.954 0.728297 59.2769C-0.0737869 57.5946 -0.214411 55.6362 0.31163 53.4019C0.759546 51.5373 1.55121 50.0165 2.68663 48.8394C3.82726 47.6571 5.18142 46.6571 6.74913 45.8394C8.30642 45.0165 9.90538 44.2248 11.5408 43.4644C13.1918 42.6987 14.7387 41.7977 16.1866 40.756C17.2387 40.006 18.1866 39.1206 19.02 38.0894C19.8637 37.0633 20.5095 35.8394 20.9575 34.4227C21.2179 33.6883 21.6137 33.2456 22.145 33.0894C22.6866 32.9383 23.1658 32.9956 23.5825 33.256C23.9991 33.5217 24.1293 33.9123 23.9783 34.4227ZM24.145 25.131C24.546 24.4227 25.0668 23.954 25.7075 23.7144C26.3429 23.48 26.8845 23.506 27.3325 23.7977C27.7491 24.1727 27.9627 24.7092 27.9783 25.4019C27.9887 26.0842 27.796 26.7665 27.395 27.4435C26.9366 28.1519 26.4002 28.631 25.7908 28.881C25.1762 29.1206 24.6658 29.0633 24.2491 28.7144C23.8429 28.381 23.6241 27.8758 23.5825 27.1935C23.5408 26.5008 23.7283 25.8133 24.145 25.131Z" fill="white"/>
<path d="M56.661 39.6932C59.6037 38.8339 62.2026 37.4797 64.4526 35.6307C66.713 33.787 68.687 31.3703 70.3693 28.3807C70.7703 27.6464 71.2651 27.2141 71.8485 27.0891C72.4318 26.9537 72.9526 27.037 73.411 27.3391C73.8797 27.6307 74.1505 28.0839 74.2235 28.6932C74.3068 29.3078 74.0255 30.0214 73.3901 30.8391C71.8589 32.8287 69.9578 34.5995 67.6818 36.1516C65.4005 37.6932 62.9422 38.9537 60.3068 39.9224C57.6818 40.8807 55.0359 41.5162 52.3693 41.8391C49.7026 42.1568 47.1922 42.0943 44.8484 41.6516C42.4995 41.2037 40.4943 40.3547 38.8276 39.0891C37.1766 37.813 36.0307 36.0578 35.3901 33.8182C34.7547 31.5005 34.6974 29.1464 35.2234 26.7557C35.7547 24.3703 36.7234 22.0162 38.1401 19.6932C39.5568 17.3599 41.3276 15.1516 43.4526 13.0682C45.5776 10.9745 47.9318 9.06824 50.5151 7.3599C53.1089 5.64115 55.8276 4.18282 58.661 2.9849C62.286 1.45886 65.5203 0.547403 68.3693 0.255736C71.2287 -0.0463466 73.6245 0.151569 75.5568 0.859903C77.4995 1.56824 78.8693 2.66719 79.661 4.15157C80.5464 5.79219 80.7235 7.39115 80.1818 8.94324C79.6401 10.4849 78.6714 11.9224 77.286 13.2557C75.911 14.5787 74.3693 15.7453 72.661 16.7557C71.1297 17.6464 69.3953 18.4589 67.4526 19.1932C65.5047 19.9172 63.437 20.2766 61.2443 20.2766C60.312 20.2766 59.6297 20.0266 59.2026 19.5266C58.7703 19.0162 58.5828 18.4432 58.6401 17.8182C58.6922 17.1828 58.9943 16.662 59.536 16.2557C60.0776 15.8391 60.8537 15.7453 61.8693 15.9641C63.9526 16.3807 65.8485 16.6724 67.5568 16.8391C69.2755 17.0057 70.8276 16.662 72.2026 15.7974C73.7703 14.787 74.8537 13.7297 75.4526 12.6307C76.0464 11.537 76.3172 10.4641 76.2651 9.4224C76.2078 8.38074 75.9787 7.44324 75.5776 6.6099C74.6037 4.70886 73.2235 3.43282 71.4318 2.77657C69.6401 2.12553 67.6089 1.97449 65.3485 2.31824C63.0985 2.65157 60.7755 3.39636 58.3901 4.5474C55.1818 6.07865 52.4318 7.89636 50.1401 10.0057C47.8484 12.1203 45.9995 14.3495 44.5984 16.6932C43.1922 19.0422 42.213 21.4016 41.6609 23.7766C41.1037 26.1412 40.937 28.3703 41.1609 30.4641C41.4526 32.8547 42.2287 34.8964 43.4943 36.5891C44.7703 38.287 46.5151 39.4537 48.7234 40.0891C50.9422 40.7141 53.588 40.5839 56.661 39.6932Z" fill="white"/>
<path d="M86.9742 40.6522C86.4169 39.9751 86.2762 39.1626 86.5575 38.2147C86.8335 37.2564 87.2919 36.2564 87.9325 35.2147C86.4429 36.7876 84.9429 38.121 83.4325 39.2147C81.9169 40.3137 80.5471 41.0064 79.3283 41.298C78.12 41.6001 77.1825 41.3866 76.5158 40.6522C75.9637 39.9751 75.8179 39.1626 76.0783 38.2147C76.3283 37.2564 76.8075 36.2303 77.5158 35.1314C78.2346 34.0376 78.9533 32.9439 79.6617 31.8605C80.4377 30.6262 81.1929 29.397 81.9325 28.173C82.6825 26.9387 83.5054 25.7043 84.4117 24.4647C84.745 24.022 85.1617 23.7564 85.6617 23.673C86.1721 23.5793 86.6408 23.6418 87.0575 23.8605C87.4846 24.0845 87.7554 24.4387 87.87 24.923C87.9794 25.4126 87.7971 25.9855 87.3283 26.6522C86.9794 27.1001 86.4325 27.673 85.6825 28.3814C84.9429 29.0897 84.1408 29.8553 83.2658 30.673C82.3908 31.496 81.5992 32.3189 80.8908 33.1522C80.1825 33.9751 79.6929 34.746 79.4325 35.4647C79.1669 36.1887 79.2971 36.8137 79.8283 37.3397C80.646 38.1626 81.8908 38.173 83.5575 37.3814C85.2346 36.5793 87.3283 34.871 89.8283 32.2564L90.12 31.8605C90.896 30.6262 91.6617 29.397 92.4117 28.173C93.1617 26.9387 93.9794 25.7043 94.87 24.4647C95.2033 24.022 95.62 23.7564 96.12 23.673C96.6304 23.5793 97.1044 23.6418 97.5367 23.8605C97.9637 24.0845 98.2346 24.4387 98.3492 24.923C98.4585 25.4126 98.271 25.9855 97.7867 26.6522C97.4533 27.1001 96.9117 27.673 96.1617 28.3814C95.4117 29.0897 94.5992 29.8553 93.7242 30.673C92.8492 31.496 92.0575 32.3189 91.3492 33.1522C90.6408 33.9751 90.1512 34.746 89.8908 35.4647C89.6252 36.1887 89.7554 36.8137 90.2867 37.3397C91.146 38.1626 92.4585 38.1262 94.2242 37.2355C96.0002 36.3345 98.2294 34.4647 100.912 31.6314L101.307 31.798C100.042 33.4387 98.7033 34.9543 97.2867 36.3397C95.87 37.7147 94.4846 38.8397 93.1408 39.7147C91.7919 40.5897 90.5783 41.1314 89.495 41.3397C88.4117 41.548 87.5679 41.3189 86.9742 40.6522Z" fill="white"/>
<path d="M102.931 40.4227C101.889 39.5633 101.473 38.4748 101.681 37.1518C101.879 35.8185 102.525 34.4018 103.618 32.9018C104.728 31.3914 106.046 29.9018 107.577 28.4435C109.103 27.0268 110.629 25.9018 112.16 25.0685C113.686 24.2248 115.066 23.6935 116.306 23.4852C117.54 23.2768 118.457 23.4175 119.056 23.9018C119.54 24.2768 119.785 24.8081 119.785 25.4852C119.895 25.2925 120.004 25.105 120.118 24.9227C120.228 24.73 120.353 24.5633 120.493 24.4227C120.837 23.9383 121.27 23.6623 121.785 23.5893C122.311 23.506 122.79 23.5893 123.223 23.8393C123.65 24.0789 123.921 24.4435 124.035 24.9435C124.145 25.4435 123.936 26.0373 123.41 26.7143C123.077 27.1623 122.54 27.7248 121.806 28.4018C121.082 29.0685 120.296 29.7925 119.452 30.5685C118.618 31.3498 117.848 32.131 117.139 32.9227C116.431 33.7039 115.915 34.4435 115.598 35.1518C115.29 35.8602 115.316 36.48 115.681 37.006C116.431 38.0893 117.754 38.1883 119.66 37.2977C121.561 36.3966 123.874 34.4852 126.598 31.5685L126.993 31.7977C125.728 33.48 124.395 35.0164 122.993 36.4018C121.587 37.7768 120.212 38.9018 118.868 39.7768C117.535 40.6518 116.327 41.1779 115.243 41.3602C114.16 41.5529 113.296 41.2977 112.66 40.5893C112.186 40.0373 112.02 39.3706 112.16 38.5893C112.311 37.7977 112.629 36.9539 113.118 36.0477C111.879 37.3966 110.639 38.5216 109.389 39.4227C108.139 40.3133 106.952 40.8602 105.827 41.0685C104.712 41.2612 103.749 41.0477 102.931 40.4227ZM106.91 37.2768C107.395 37.8498 107.999 38.0268 108.723 37.8185C109.441 37.6102 110.212 37.1727 111.035 36.506C111.868 35.8289 112.707 35.0477 113.556 34.1727C114.415 33.2977 115.202 32.4748 115.91 31.6935C116.395 30.9435 116.837 30.2143 117.243 29.506C117.66 28.7977 118.087 28.0893 118.535 27.381C118.837 26.6727 118.962 26.105 118.91 25.6727C118.853 25.2456 118.671 24.8966 118.368 24.631C117.811 24.1466 116.973 24.1102 115.848 24.5268C114.733 24.9331 113.556 25.6102 112.306 26.5685C111.056 27.5164 109.941 28.5685 108.973 29.7352C107.816 31.0685 106.983 32.4383 106.473 33.8393C105.973 35.2456 106.118 36.3914 106.91 37.2768ZM115.514 20.7143C116.79 20.0477 117.681 19.5008 118.181 19.0685C118.681 18.6414 119.066 18.2716 119.348 17.9643C119.639 17.6466 120.02 17.3341 120.493 17.0268C121.087 16.7352 121.598 16.7456 122.014 17.0477C122.431 17.3393 122.645 17.7248 122.66 18.1935C122.671 18.6518 122.379 19.0268 121.785 19.3185C121.228 19.6258 120.743 19.8081 120.327 19.8602C119.921 19.9175 119.4 20.0425 118.764 20.2352C118.139 20.4175 117.207 20.8185 115.973 21.4435C115.639 21.5998 115.395 21.5581 115.243 21.3185C115.087 21.0685 115.181 20.8706 115.514 20.7143Z" fill="white"/>
<path d="M135.901 40.5276C135.219 39.7776 134.964 38.9599 135.13 38.0692C135.297 37.1682 135.714 36.2359 136.38 35.2776C137.057 34.3088 137.839 33.3557 138.714 32.4234C139.589 31.4963 140.412 30.6213 141.193 29.7984C141.984 28.9651 142.578 28.2515 142.984 27.6526C143.401 27.0588 143.443 26.6109 143.109 26.3192C142.662 25.8765 141.984 25.9026 141.068 26.4026C140.151 26.9026 139.13 27.6942 138.005 28.7776C136.891 29.8609 135.74 31.0797 134.547 32.4234C133.24 33.8713 131.995 35.3192 130.818 36.7776C129.651 38.2359 128.693 39.3974 127.943 40.2567C127.391 40.9234 126.787 41.2151 126.13 41.1317C125.479 41.064 125.016 40.7463 124.734 40.1734C124.458 39.5901 124.578 38.9234 125.089 38.1734C125.422 37.7307 125.912 37.1005 126.547 36.2776C127.188 35.4599 127.849 34.5849 128.526 33.6526C129.219 32.7255 129.807 31.9026 130.297 31.1942C131.047 30.0692 131.62 29.1838 132.026 28.5276C132.443 27.8765 132.807 27.2776 133.13 26.7359C133.448 26.1942 133.828 25.5692 134.276 24.8609C134.677 24.1942 135.156 23.7776 135.714 23.6109C136.281 23.4442 136.781 23.4755 137.214 23.6942C137.641 23.9182 137.891 24.2932 137.964 24.8192C138.031 25.3349 137.807 25.9234 137.297 26.5901C136.589 27.5224 135.62 28.5224 134.401 29.5901C133.193 30.663 132.089 31.8297 131.089 33.0901C130.339 34.0224 129.703 34.8401 129.193 35.5484C128.693 36.2567 128.573 36.7099 128.839 36.9026C129.057 37.0432 129.474 36.7984 130.089 36.1734C130.714 35.538 131.469 34.689 132.359 33.6317C133.26 32.564 134.177 31.5067 135.109 30.4651C136.078 29.3817 137.068 28.3297 138.068 27.2984C139.078 26.2724 140.057 25.3974 141.005 24.6734C141.964 23.939 142.865 23.4755 143.714 23.2776C144.573 23.0692 145.323 23.2672 145.964 23.8609C146.557 24.4182 146.781 25.1057 146.63 25.9234C146.49 26.7463 146.109 27.6213 145.484 28.5484C144.87 29.4807 144.172 30.4338 143.38 31.4026C142.599 32.3765 141.865 33.2932 141.172 34.1526C140.49 35.0172 139.99 35.7776 139.672 36.4442C139.349 37.1109 139.359 37.6213 139.693 37.9651C140.177 38.413 140.995 38.4651 142.151 38.1317C143.318 37.788 144.662 37.064 146.193 35.9651C147.719 34.8713 149.287 33.4599 150.901 31.7359L151.234 32.0901C149.885 33.6213 148.464 35.0588 146.964 36.4026C145.474 37.7359 144.01 38.8557 142.568 39.7567C141.135 40.6474 139.828 41.1786 138.651 41.3609C137.484 41.5536 136.568 41.2776 135.901 40.5276Z" fill="white"/>
<path d="M163.708 40.7557C163.109 40.1203 162.823 39.3338 162.854 38.4015C162.896 37.4745 163.156 36.4849 163.646 35.4432C162.406 36.8911 161.115 38.1203 159.771 39.1307C158.438 40.1463 157.177 40.7922 156 41.0682C154.833 41.3443 153.818 41.1411 152.958 40.464C151.917 39.6203 151.5 38.537 151.708 37.214C151.906 35.8807 152.552 34.4588 153.646 32.9432C154.755 31.4328 156.073 29.9536 157.604 28.5057C159.13 27.089 160.656 25.964 162.188 25.1307C163.714 24.287 165.094 23.7557 166.333 23.5474C167.568 23.339 168.484 23.4797 169.083 23.964C169.484 24.2713 169.714 24.662 169.771 25.1307C169.823 25.589 169.76 26.0786 169.583 26.589C170.094 25.964 170.573 25.4015 171.021 24.9015C171.479 24.3911 171.839 23.9432 172.104 23.5682C172.589 22.9745 173.219 22.1515 174 21.1099C174.776 20.0682 175.63 18.9224 176.563 17.6724C177.505 16.4224 178.422 15.188 179.313 13.964C180.214 12.7297 181.031 11.6203 181.771 10.6307C182.521 9.63071 183.083 8.89113 183.458 8.40154C184.052 7.6255 184.656 7.20363 185.271 7.13071C185.896 7.04738 186.417 7.188 186.833 7.54738C187.26 7.89634 187.484 8.3703 187.5 8.96404C187.526 9.563 187.219 10.162 186.583 10.7557C185.984 11.313 184.948 12.2765 183.479 13.6515C182.005 15.0161 180.344 16.6411 178.5 18.5265C176.651 20.4015 174.875 22.4015 173.167 24.5265C171.667 26.3911 170.323 28.1724 169.146 29.8807C167.979 31.5786 167.156 33.0682 166.688 34.3599C166.229 35.6411 166.276 36.6099 166.833 37.2765C167.542 38.0995 168.839 38.0838 170.729 37.2349C172.615 36.3755 174.938 34.4745 177.688 31.5265L178.083 31.6932C176.844 33.2922 175.526 34.787 174.125 36.1724C172.734 37.5474 171.375 38.7036 170.042 39.6307C168.719 40.563 167.5 41.1411 166.375 41.3807C165.26 41.6307 164.375 41.4224 163.708 40.7557ZM156.938 37.339C157.531 38.0057 158.302 38.1463 159.25 37.7557C160.208 37.3703 161.214 36.6724 162.271 35.6724C163.339 34.662 164.339 33.5786 165.271 32.4224C165.688 31.787 166.115 31.1411 166.563 30.4849C167.005 29.8338 167.469 29.2088 167.958 28.6099C168.359 27.9745 168.625 27.339 168.75 26.714C168.885 26.0786 168.771 25.6255 168.396 25.3599C167.797 24.8755 167.021 24.7297 166.063 24.9224C165.115 25.1047 164.104 25.5422 163.021 26.2349C161.948 26.9328 160.927 27.7661 159.958 28.7349C158.984 29.6932 158.156 30.714 157.479 31.7974C156.813 32.8807 156.401 33.912 156.25 34.8807C156.109 35.8547 156.339 36.6724 156.938 37.339Z" fill="white"/>
<path d="M180.432 40.8599C179.349 40.0005 178.828 38.9172 178.87 37.6099C178.911 36.3078 179.359 34.8911 180.203 33.3599C181.062 31.8339 182.187 30.3078 183.578 28.7766C184.953 27.2505 186.37 26.0214 187.828 25.0891C189.286 24.162 190.646 23.5839 191.911 23.3599C193.172 23.1255 194.203 23.3286 194.995 23.9641C196.104 24.8286 196.474 26.2245 196.099 28.1516C195.724 30.0682 194.771 32.0682 193.245 34.1516C193.505 34.5578 194.026 34.7766 194.807 34.8182C195.599 34.8599 196.562 34.5786 197.703 33.9641C198.838 33.3391 200.021 32.3182 201.245 30.9016L201.599 31.2349C200.208 33.0266 198.916 34.3339 197.724 35.1516C196.526 35.9745 195.422 36.4328 194.411 36.5266C193.411 36.6255 192.5 36.4849 191.682 36.1099C190.375 37.5995 188.995 38.813 187.536 39.7557C186.088 40.688 184.745 41.2453 183.495 41.4432C182.245 41.6516 181.224 41.4536 180.432 40.8599ZM183.578 37.1099C184.422 37.8182 185.495 38.0057 186.786 37.6724C188.078 37.3391 189.39 36.5995 190.724 35.4432C190.541 35.2245 190.349 34.9172 190.14 34.5266C189.932 34.1255 189.859 33.6099 189.932 32.9849C190.015 32.3495 190.338 31.6203 190.911 30.7974C191.495 29.938 192.036 29.4172 192.536 29.2349C193.047 29.0422 193.5 29.0266 193.89 29.1932C194.276 29.3599 194.567 29.5578 194.765 29.7766C195.14 28.7766 195.286 27.8911 195.203 27.1099C195.13 26.3182 194.89 25.7349 194.474 25.3599C193.875 24.8495 193.109 24.6203 192.182 24.6724C191.25 24.7297 190.276 25.0474 189.265 25.6307C188.265 26.2036 187.333 26.9849 186.474 27.9849C185.5 29.1516 184.687 30.3391 184.036 31.5474C183.38 32.7557 183 33.8599 182.89 34.8599C182.776 35.8495 183.005 36.5995 183.578 37.1099Z" fill="white"/>
<path d="M209.93 30.235C210.331 28.86 211.232 27.5579 212.638 26.3183C214.04 25.084 215.597 23.8704 217.305 22.6725C219.024 21.4798 220.743 20.2767 222.451 19.0683C224.17 17.86 225.67 16.584 226.951 15.235C228.243 13.8913 229.04 12.4381 229.347 10.8808C229.68 9.20376 229.581 7.7298 229.055 6.46418C228.54 5.18813 227.727 4.16209 226.618 3.38084C225.519 2.58918 224.227 2.12043 222.743 1.96418C220.618 1.71418 218.79 1.9798 217.263 2.75584C215.732 3.53709 214.628 4.52147 213.951 5.71418C213.435 6.62043 213.185 7.55793 213.201 8.52668C213.211 9.50063 213.555 10.3496 214.222 11.0683C214.899 11.7923 215.915 12.2871 217.263 12.5475C218.123 12.7038 218.618 13.0788 218.743 13.6725C218.868 14.2715 218.722 14.8079 218.305 15.2767C217.899 15.735 217.29 15.8548 216.472 15.6308C214.982 15.2142 213.868 14.459 213.118 13.36C212.368 12.2663 211.998 11.0058 212.013 9.58918C212.04 8.17251 212.409 6.81313 213.118 5.50584C213.977 3.9798 215.31 2.6673 217.118 1.56834C218.92 0.458967 221.185 -0.061866 223.909 0.00584204C225.961 0.0475087 227.816 0.537093 229.472 1.46418C231.138 2.39647 232.373 3.70376 233.18 5.38084C233.982 7.06313 234.123 9.02147 233.597 11.2558C233.149 13.1308 232.357 14.6621 231.222 15.8392C230.081 17.0058 228.727 18.0006 227.159 18.8183C225.586 19.6413 223.982 20.4329 222.347 21.1933C220.706 21.959 219.159 22.86 217.701 23.9017C216.659 24.6517 215.711 25.5423 214.868 26.5683C214.034 27.5996 213.394 28.8183 212.951 30.235C212.727 30.985 212.331 31.4381 211.763 31.5892C211.206 31.7298 210.722 31.6621 210.305 31.3808C209.899 31.1048 209.774 30.7246 209.93 30.235ZM206.513 37.235C206.956 36.5267 207.482 36.0579 208.097 35.8183C208.722 35.5683 209.232 35.61 209.638 35.9433C210.055 36.2767 210.274 36.7923 210.305 37.485C210.347 38.1673 210.165 38.8496 209.763 39.5267C209.347 40.235 208.816 40.7142 208.18 40.9642C207.555 41.1986 207.019 41.1621 206.576 40.86C206.201 40.485 205.993 39.959 205.951 39.2767C205.909 38.584 206.097 37.9017 206.513 37.235Z" fill="white"/>
</svg>
