<svg width="324" height="80" viewBox="0 0 324 80" fill="none" xmlns="http://www.w3.org/2000/svg">
<path d="M60.6131 69.1879C58.1455 70.1405 55.4942 70.3758 52.6479 69.8995C49.813 69.4289 46.9379 68.5566 44.0169 67.2826C41.1074 66.0144 38.2668 64.7232 35.5007 63.4033C33.7849 66.8465 31.7706 69.8478 29.4636 72.4015C27.1509 74.9438 24.5571 76.8318 21.682 78.0713C20.0293 78.76 18.1699 79.1502 16.104 79.242C14.0496 79.3338 12.0181 79.0986 9.99806 78.5304C7.98953 77.968 6.17037 77.0556 4.53485 75.7988C2.89933 74.5478 1.65978 72.895 0.816191 70.8406C0.0357315 68.9468 -0.182339 67.1105 0.150505 65.3315C0.47187 63.541 1.15477 61.9227 2.19347 60.4651C3.22069 58.996 4.46598 57.745 5.93508 56.7005C7.40418 55.6446 8.87328 54.9101 10.3424 54.4969C13.3265 53.6705 16.104 53.5098 18.6749 54.0148C21.2459 54.5084 23.8168 55.3692 26.3877 56.6087C28.9586 57.8368 31.7017 59.1968 34.6284 60.6946C36.218 57.3433 37.3486 53.682 38.0257 49.6993C38.7144 45.7224 39.2882 41.6365 39.7473 37.4415C40.2179 33.2523 40.8778 29.1951 41.7214 25.2756C42.6224 20.8109 44.0628 16.9143 46.0369 13.5916C48.0225 10.2575 50.295 7.73245 52.8545 6.01659C55.4254 4.28925 58.0881 3.64078 60.8427 4.06544C63.2587 4.42124 65.1926 5.57471 66.6502 7.5316C68.1193 9.49422 69.0031 11.8241 69.313 14.5328C69.6343 17.2414 69.3359 19.9616 68.4177 22.6817C67.2815 26.1134 65.9214 28.8565 64.3318 30.9224C62.7364 32.9769 61.0837 34.4517 59.3736 35.3527C57.6749 36.2594 56.0566 36.6726 54.5301 36.5922C52.9979 36.5176 51.6838 36.0356 50.5819 35.1461C49.417 34.1705 48.7226 32.8449 48.4931 31.1749C48.275 29.4935 48.4931 27.6399 49.1358 25.6199C49.79 23.5999 50.8344 21.62 52.2576 19.6746C53.6923 17.735 55.477 15.9961 57.6061 14.4639C58.398 13.9015 59.1211 13.6949 59.7638 13.8441C60.418 13.9819 60.9345 14.3204 61.3018 14.8541C61.669 15.3936 61.8183 15.933 61.7609 16.4839C61.715 17.0348 61.3821 17.4882 60.7738 17.8383C58.7194 18.9401 56.883 20.2141 55.2647 21.6487C53.6579 23.0719 52.4011 24.5525 51.5001 26.079C50.5934 27.594 50.1343 29.0287 50.1228 30.3715C50.1056 31.7201 50.6852 32.8678 51.8674 33.8147C52.4011 34.2451 53.0725 34.4747 53.8874 34.5033C54.6966 34.5378 55.6434 34.2049 56.7338 33.5163C57.8356 32.8162 58.9948 31.5881 60.2229 29.8435C61.4625 28.0875 62.7077 25.5969 63.9645 22.3833C65.095 19.491 65.6459 16.8397 65.6173 14.418C65.6 11.9848 65.1352 9.98201 64.217 8.40388C63.3103 6.83148 62.065 5.91903 60.4754 5.67227C56.5272 5.10988 53.0266 7.61194 49.9851 13.1785C46.9379 18.7335 44.5735 27.1578 42.8921 38.4516C42.2781 42.5547 41.446 46.566 40.3901 50.4798C39.3341 54.3993 38.0028 58.0778 36.3959 61.521C38.766 62.531 41.4288 63.3689 44.3842 64.0231C47.3338 64.683 50.2893 65.0273 53.2447 65.056C56.2116 65.0905 58.926 64.683 61.3936 63.8394C63.8727 62.9844 65.8468 61.544 67.3159 59.5239C67.9873 58.6402 68.1997 57.7737 67.9586 56.9301C67.7291 56.075 67.3503 55.1855 66.8339 54.2673C66.3116 53.3491 65.9271 52.3965 65.6861 51.398C65.4566 50.0551 65.6746 49.1197 66.3518 48.5975C67.0232 48.0638 67.7979 47.8974 68.6702 48.0925C69.554 48.2934 70.1164 48.9074 70.3459 49.9289C70.6329 50.9561 70.7648 52.3277 70.7361 54.0378C70.7017 55.7536 70.3803 57.59 69.7721 59.5469C69.1752 61.4923 68.148 63.3344 66.6961 65.079C65.2557 66.8121 63.23 68.1779 60.6131 69.1879ZM2.12461 70.0372C2.9395 72.1375 4.37417 73.5493 6.44009 74.2838C8.51749 75.0069 10.9162 75.202 13.6249 74.8806C16.3336 74.5478 19.002 73.8649 21.6361 72.8377C24.5399 71.7244 26.9444 70.2782 28.8439 68.4992C30.7376 66.7088 32.3444 64.7117 33.6643 62.5081L33.2512 62.3244C30.4966 60.9816 28.0404 59.9945 25.8827 59.3633C23.7364 58.7205 21.6131 58.4106 19.5013 58.4221C17.3895 58.4393 15.0309 58.755 12.4313 59.3633C9.93494 59.9773 7.82311 60.8438 6.09577 61.9571C4.36843 63.0762 3.13461 64.3444 2.40006 65.7676C1.65404 67.1793 1.56222 68.6025 2.12461 70.0372Z" fill="white"/>
<path d="M88.7239 54.2396C87.8172 53.5222 87.404 52.5065 87.4844 51.1866C87.5762 49.8552 87.8861 48.4091 88.4255 46.8481C86.922 49.3445 85.3381 51.5309 83.6739 53.4132C82.0212 55.284 80.443 56.5809 78.9452 57.3155C77.4417 58.05 76.1505 58.0328 75.0659 57.2696C74.1477 56.5522 73.7288 55.5365 73.8034 54.2166C73.8665 52.9024 74.2051 51.4161 74.8134 49.7634C75.4102 48.1107 76.0128 46.4923 76.6268 44.897C77.3154 43.0491 77.9639 41.2128 78.578 39.3879C79.1863 37.5687 79.8978 35.7266 80.7127 33.8558C81.0169 33.1672 81.4817 32.6966 82.113 32.4326C82.7557 32.1571 83.3812 32.1055 83.9953 32.2719C84.6208 32.4441 85.0799 32.8343 85.3725 33.4426C85.6595 34.0394 85.5849 34.8428 85.143 35.8529C84.8503 36.5415 84.3166 37.4597 83.5362 38.6074C82.7672 39.7551 81.9293 40.9947 81.0111 42.3261C80.1044 43.646 79.3125 44.9372 78.6239 46.2054C77.9352 47.4794 77.522 48.6271 77.3843 49.6486C77.2466 50.6758 77.5966 51.4506 78.4402 51.967C79.7544 52.8106 81.3899 52.472 83.3525 50.957C85.3094 49.4305 87.5418 46.5899 90.0553 42.4408L90.3078 41.867C90.9792 40.0191 91.6219 38.1828 92.236 36.3579C92.8443 34.5387 93.5674 32.6966 94.3937 30.8258C94.6979 30.1544 95.1627 29.6895 95.794 29.4255C96.4367 29.1501 97.0622 29.0984 97.6762 29.2649C98.3018 29.437 98.7609 29.8158 99.0535 30.4126C99.3405 31.0094 99.2659 31.8243 98.824 32.8458C98.5141 33.5344 97.9747 34.4526 97.1942 35.6004C96.4252 36.7366 95.5931 37.9647 94.6921 39.2961C93.7854 40.6159 92.9935 41.9129 92.3048 43.1984C91.6162 44.4723 91.203 45.6201 91.0653 46.6416C90.9276 47.6688 91.2776 48.4435 92.1212 48.96C93.4641 49.7863 95.1742 49.3674 97.2401 47.6975C99.306 46.016 101.676 42.9344 104.356 38.4467L104.907 38.5615C103.725 41.0578 102.411 43.4164 100.959 45.6315C99.5011 47.8524 98.0263 49.729 96.5285 51.2554C95.025 52.7877 93.596 53.8436 92.236 54.4232C90.8874 55.0085 89.7167 54.9454 88.7239 54.2396Z" fill="white"/>
<path d="M100.317 51.7281C99.4452 50.9648 99.0779 49.9319 99.2157 48.6292C99.3534 47.3151 99.7838 45.8517 100.501 44.2449C101.207 42.6266 101.913 41.0427 102.613 39.4932C103.393 37.6913 104.139 35.9008 104.863 34.1219C105.58 32.3486 106.406 30.5409 107.342 28.7045C107.692 28.0503 108.191 27.6142 108.834 27.3961C109.488 27.1666 110.125 27.1551 110.739 27.3502C111.347 27.5511 111.778 27.9643 112.024 28.5898C112.283 29.2038 112.151 30.0015 111.634 30.9771C111.313 31.6542 110.722 32.538 109.867 33.6398C109.023 34.7302 108.105 35.9066 107.112 37.1748C106.131 38.4488 105.258 39.6998 104.495 40.9394C103.743 42.1675 103.267 43.2808 103.072 44.2908C102.871 45.3008 103.175 46.0985 103.99 46.6781C105.287 47.5848 107.02 47.2634 109.178 45.714C111.336 44.1703 113.889 41.2378 116.845 36.9223L117.396 37.083C116.064 39.5047 114.601 41.7772 113.011 43.9005C111.416 46.0124 109.826 47.7971 108.237 49.249C106.659 50.6894 105.172 51.6535 103.784 52.1413C102.395 52.6463 101.236 52.5085 100.317 51.7281ZM110.647 19.4079C111.244 18.1569 112.053 17.2846 113.08 16.7911C114.102 16.2861 115.043 16.2516 115.904 16.6763C116.73 17.0436 117.241 17.7953 117.442 18.9259C117.637 20.0621 117.453 21.1984 116.891 22.3461C116.305 23.557 115.513 24.4063 114.503 24.8941C113.505 25.3876 112.541 25.4565 111.611 25.1007C110.785 24.7047 110.28 23.93 110.096 22.7822C109.913 21.623 110.096 20.4983 110.647 19.4079Z" fill="white"/>
<path d="M114.446 48.2718C113.253 47.4168 112.449 46.2174 112.036 44.6679C111.612 43.1242 111.83 41.2879 112.702 39.1588C113.069 38.2406 113.614 37.6438 114.332 37.3683C115.055 37.0929 115.692 37.0814 116.26 37.3224C117.574 35.4402 118.837 33.3914 120.047 31.1706C121.27 28.9555 122.578 26.637 123.973 24.2153C124.093 23.8939 124.271 23.5955 124.501 23.3201C125.201 22.465 126.016 21.9772 126.934 21.851C127.852 21.7305 128.736 21.8452 129.597 22.1953C130.469 22.5339 131.14 23.0102 131.617 23.6185C132.179 24.3243 132.294 25.0819 131.961 25.891C131.622 26.7059 131.048 27.2568 130.239 27.5437C129.442 27.8192 128.655 27.5782 127.875 26.8092C127.657 26.5796 127.381 26.1607 127.049 25.5467C126.71 24.9212 126.371 24.7605 126.039 25.0646C125.212 25.7992 124.868 26.9125 125.006 28.3931C125.143 29.8622 125.476 31.4862 126.016 33.2595C126.567 35.0212 127.083 36.7887 127.577 38.562C128.064 40.341 128.231 41.9134 128.082 43.2907C129.47 42.7283 130.882 41.7527 132.305 40.3754C133.74 38.9867 135.381 37.0412 137.217 34.5449L137.791 34.8433C135.68 38.1373 133.533 40.823 131.364 42.9004C129.206 44.9663 127.209 46.5445 125.373 47.6291C124.317 48.5014 123.112 49.0924 121.769 49.3966C120.42 49.6893 119.089 49.7294 117.775 49.5114C116.472 49.299 115.365 48.8859 114.446 48.2718ZM115.25 47.2389C115.904 47.807 116.707 47.9504 117.66 47.675C118.607 47.3995 119.577 46.774 120.575 45.7927C121.585 44.7999 122.458 43.5374 123.192 42.0052C123.927 40.4615 124.386 38.7571 124.569 36.8863C124.719 35.8189 124.684 34.6712 124.455 33.4431C124.225 32.2035 124.001 30.9583 123.789 29.7015C123.571 28.4332 123.491 27.2798 123.536 26.2353C122.492 28.3012 121.448 30.2467 120.392 32.0658C119.336 33.8907 118.171 35.7615 116.903 37.6897C117.603 38.3784 117.666 39.3597 117.086 40.6279C116.811 41.3165 116.386 42.0683 115.824 42.8775C115.261 43.6924 114.871 44.4728 114.653 45.2188C114.423 45.9706 114.624 46.642 115.25 47.2389Z" fill="white"/>
<path d="M138.276 70.4389C137.254 69.4289 136.853 68.2238 137.082 66.835C137.3 65.4405 137.977 63.9485 139.125 62.3589C140.261 60.7807 141.713 59.2256 143.487 57.6991C145.002 56.3677 146.769 55.1282 148.789 53.9804C150.798 52.8442 152.858 51.8514 154.987 50.9963C157.11 50.1355 159.107 49.5272 160.978 49.1599C162.275 47.1858 163.578 45.1543 164.88 43.054C166.194 40.9422 167.52 38.8705 168.851 36.8333C166.556 39.6051 164.18 41.8489 161.736 43.559C159.285 45.2749 157.081 46.3709 155.125 46.8415C153.179 47.3121 151.767 47.0481 150.878 46.0381C150.143 45.1371 149.96 44.0525 150.327 42.7785C150.694 41.5103 151.36 40.1502 152.324 38.6926C153.3 37.2235 154.275 35.7774 155.239 34.3542C156.295 32.7187 157.334 31.0831 158.361 29.4419C159.383 27.8064 160.507 26.1708 161.736 24.5296C162.195 23.95 162.757 23.6056 163.434 23.4966C164.106 23.3761 164.725 23.4679 165.294 23.7721C165.873 24.082 166.235 24.564 166.372 25.2182C166.51 25.8609 166.246 26.6184 165.592 27.4907C165.133 28.1048 164.398 28.8795 163.388 29.8091C162.378 30.7446 161.276 31.7546 160.083 32.8392C158.901 33.9123 157.833 34.9969 156.869 36.0987C155.905 37.1891 155.239 38.2106 154.872 39.1747C154.505 40.1388 154.671 40.9766 155.377 41.6767C155.911 42.2276 156.651 42.5892 157.604 42.7556C158.551 42.9277 159.716 42.681 161.093 42.021C162.47 41.3668 164.106 40.1388 166.005 38.3483C167.899 36.5463 170.068 33.9812 172.501 30.6585C173.064 29.6829 173.615 28.7245 174.154 27.7891C174.705 26.8423 175.359 25.8954 176.128 24.9428C176.92 23.9041 177.792 23.4277 178.745 23.5196C179.692 23.6114 180.375 24.0647 180.788 24.8739C181.201 25.6888 180.949 26.7045 180.03 27.9269C179.479 28.7073 178.59 29.6657 177.368 30.7962C176.157 31.9325 174.877 33.195 173.534 34.5837C172.203 35.961 171.055 37.4186 170.091 38.9451C168.955 40.7356 167.853 42.4227 166.786 43.9951C165.712 45.5733 164.697 47.0825 163.733 48.5402C166.992 47.622 169.661 46.4857 171.744 45.1199C173.838 43.7426 175.703 42.176 177.345 40.4142C178.997 38.641 180.788 36.6841 182.716 34.5378L183.313 34.951C181.534 36.9136 179.623 39.0312 177.574 41.3094C175.52 43.5762 173.196 45.6651 170.596 47.5761C168.008 49.487 164.984 50.8643 161.529 51.7079C157.822 56.9531 154.643 61.0103 151.98 63.8739C149.317 66.7317 147.102 68.7288 145.323 69.8651C143.532 70.9956 142.086 71.5235 140.984 71.4489C139.883 71.3858 138.982 71.0472 138.276 70.4389ZM142.316 66.353C143.756 67.4376 145.874 66.7719 148.674 64.3559C151.475 61.9342 154.734 58.1123 158.453 52.8786L158.82 52.2818C155.756 53.045 153.047 53.9689 150.694 55.0593C148.341 56.1439 146.448 57.2859 145.025 58.4795C144.187 59.2141 143.383 60.0692 142.614 61.0505C141.851 62.0433 141.386 63.0131 141.214 63.9657C141.048 64.9126 141.415 65.7103 142.316 66.353Z" fill="white"/>
<path d="M217.92 52.1757C215.057 52.0208 212.302 51.4641 209.657 50.5C207.005 49.5359 204.681 48.2275 202.678 46.5748C200.687 44.922 199.201 42.9881 198.225 40.7672C197.244 38.5521 196.986 36.1017 197.445 33.4217C197.812 31.264 198.788 29.4047 200.383 27.8437C201.99 26.2713 204.021 25.1351 206.489 24.4464C208.951 23.7463 211.688 23.6143 214.707 24.0562C217.72 24.5038 220.818 25.6344 224.003 27.4535C225.071 28.0389 225.691 28.7505 225.863 29.5883C226.046 30.4319 225.92 31.1951 225.495 31.8838C225.082 32.5724 224.497 33.0258 223.751 33.2381C223.016 33.4389 222.224 33.2094 221.387 32.5495C218.707 30.363 216.118 28.8021 213.628 27.8667C211.149 26.937 208.888 26.5583 206.856 26.7419C204.819 26.9141 203.149 27.5912 201.852 28.7849C200.567 29.9785 199.821 31.6255 199.625 33.7201C199.396 35.7746 199.746 37.6224 200.681 39.2752C201.611 40.9164 202.954 42.3396 204.698 43.5447C206.454 44.7384 208.452 45.668 210.69 46.3223C212.922 46.9822 215.223 47.3495 217.599 47.4241C220.537 47.4585 223.361 47.0109 226.069 46.0927C228.778 45.1745 231.102 43.7054 233.047 41.6854C235.004 39.6539 236.204 37.0256 236.651 33.812C236.956 31.7919 236.766 29.8752 236.078 28.0503C235.4 26.2312 234.614 24.4637 233.713 22.7478C232.944 21.2041 232.158 19.603 231.349 17.9503C230.551 16.2861 230.04 14.5874 229.811 12.8543C229.593 11.1098 229.914 9.38244 230.775 7.66658C231.842 5.45145 233.438 3.74133 235.55 2.54769C237.673 1.34257 240.014 0.567845 242.574 0.229264C245.145 -0.10358 247.698 -0.0748856 250.241 0.321082C252.777 0.705573 255.044 1.39421 257.035 2.387C259.038 3.38553 260.524 4.63656 261.488 6.15157C262.452 7.6551 262.613 9.36523 261.97 11.2934C261.374 13.0093 260.329 14.3464 258.849 15.3105C257.362 16.2746 255.687 16.9632 253.821 17.3764C251.951 17.7896 250.137 17.9847 248.381 17.9503C246.637 17.9216 245.213 17.7609 244.112 17.4682C243.067 17.1354 242.47 16.5902 242.321 15.8384C242.166 15.0752 242.367 14.4267 242.918 13.8873C243.469 13.3536 244.209 13.2905 245.145 13.7037C248.726 15.2818 251.664 15.9417 253.959 15.6778C256.255 15.4195 257.471 13.7496 257.609 10.6736C257.701 8.68806 257.179 6.9722 256.048 5.53179C254.929 4.07991 253.454 3.00678 251.618 2.31814C249.781 1.6295 247.819 1.36552 245.741 1.51473C243.676 1.65245 241.747 2.28371 239.957 3.39701C238.178 4.49883 236.772 6.17453 235.733 8.42408C234.402 11.4426 233.782 13.9963 233.874 16.0909C233.977 18.1913 234.431 20.108 235.228 21.8526C235.825 23.1266 236.479 24.3661 237.202 25.5712C237.92 26.7821 238.568 28.0618 239.153 29.4047C239.75 30.7532 240.077 32.2683 240.14 33.9497C240.37 37.3355 239.613 40.4459 237.868 43.2922C236.135 46.1386 233.587 48.3767 230.224 50.018C226.855 51.6707 222.752 52.388 217.92 52.1757Z" fill="white"/>
<path d="M240.328 55.7566C239.244 54.2588 238.963 52.6807 239.479 51.0279C239.996 49.3637 241.086 47.6938 242.739 46.0238C244.391 44.3596 246.394 42.7872 248.753 41.3181C251.077 39.8662 253.344 38.8046 255.547 38.1274C257.763 37.456 259.731 37.2035 261.447 37.3699C263.157 37.5248 264.408 38.1618 265.188 39.2751C266.302 40.7901 266.273 42.7183 265.097 45.0597C263.932 47.3896 261.986 49.622 259.266 51.7625C259.45 52.3765 260.035 52.8586 261.034 53.2086C262.026 53.5472 263.363 53.5243 265.051 53.1398C266.732 52.7438 268.632 51.8543 270.743 50.477L271.042 51.0509C268.609 52.8413 266.474 54.0522 264.637 54.6777C262.813 55.309 261.24 55.4984 259.909 55.2516C258.577 55.0106 257.453 54.4941 256.534 53.7136C254.296 55.1712 252.07 56.2214 249.855 56.8814C247.651 57.5528 245.706 57.7996 244.024 57.6159C242.337 57.4323 241.109 56.8125 240.328 55.7566ZM245.723 52.0609C246.561 53.289 247.869 53.9202 249.648 53.9661C251.421 54.012 253.378 53.5243 255.524 52.497C255.387 52.147 255.249 51.6821 255.111 51.0968C254.985 50.5172 255.088 49.8343 255.41 49.0538C255.743 48.2734 256.425 47.447 257.453 46.5747C258.52 45.691 259.41 45.2204 260.115 45.1745C260.833 45.1171 261.412 45.2663 261.86 45.6336C262.319 45.9894 262.623 46.3394 262.778 46.6895C263.633 45.5303 264.155 44.4285 264.339 43.384C264.523 42.3453 264.419 41.5132 264.041 40.882C263.455 40.0097 262.554 39.4358 261.332 39.1604C260.104 38.8849 258.738 38.9423 257.223 39.321C255.72 39.7055 254.228 40.3942 252.747 41.387C251.094 42.5232 249.625 43.7513 248.34 45.0827C247.054 46.4026 246.159 47.6765 245.654 48.9161C245.16 50.1442 245.183 51.1886 245.723 52.0609Z" fill="white"/>
<path d="M244.305 78.459C243.422 79.36 242.561 79.8363 241.734 79.8822C240.897 79.9396 240.214 79.7215 239.691 79.2165C239.175 78.723 238.951 78.1147 239.026 77.3801C239.089 76.6456 239.548 75.9455 240.403 75.2912C243.863 72.6744 247.077 70.2412 250.044 67.9917C253.017 65.7536 255.863 63.5671 258.583 61.4266C261.309 59.2689 264.035 57.0824 266.778 54.8616C269.532 52.6292 272.425 50.2706 275.455 47.7915C277.211 46.3569 279.219 44.7328 281.469 42.9251C283.73 41.1232 286.025 39.3385 288.355 37.5767C290.679 35.8207 292.809 34.2712 294.737 32.9399C296.665 31.597 298.14 30.6444 299.167 30.0935C300.206 29.4967 301.107 29.3073 301.876 29.5196C302.656 29.7377 303.213 30.1623 303.551 30.8051C303.884 31.4478 303.93 32.125 303.689 32.8251C303.442 33.5309 302.817 34.1106 301.807 34.5696C301.176 34.8336 299.649 35.505 297.216 36.5897C294.783 37.68 291.787 39.218 288.241 41.2035C284.706 43.1949 280.964 45.7658 277.016 48.9163L272.103 52.9104C269.544 55.2518 268.511 57.2431 269.005 58.8786C269.464 60.5658 271.093 61.2602 273.894 60.9675C276.694 60.6634 280.447 59.2689 285.165 56.7898L285.555 57.2489C283.213 58.8098 280.872 60.1526 278.531 61.2659C276.201 62.385 274.009 63.1826 271.943 63.6762C269.888 64.1812 268.132 64.3189 266.663 64.0894C265.194 63.8598 264.167 63.1941 263.587 62.0923C263.277 61.4381 263.197 60.8413 263.335 60.3018C260.213 63.0851 257.103 65.9774 253.992 68.9787C250.87 71.9743 247.645 75.1363 244.305 78.459Z" fill="white"/>
<path d="M275.064 66.0443C274.697 64.931 274.915 63.8407 275.707 62.7848C276.487 61.7174 277.589 60.6729 279.012 59.6629C280.435 58.6414 281.847 57.62 283.259 56.61C284.848 55.4794 286.403 54.3317 287.918 53.1668C289.445 51.9903 291.075 50.8483 292.808 49.7465C293.433 49.3678 294.082 49.2415 294.759 49.3792C295.43 49.5055 295.981 49.8096 296.412 50.2974C296.836 50.7737 297.008 51.3476 296.917 52.019C296.825 52.6962 296.303 53.316 295.356 53.8784C294.724 54.2915 293.772 54.7621 292.486 55.2786C291.201 55.7836 289.806 56.3345 288.309 56.9313C286.822 57.5167 285.439 58.1479 284.154 58.8366C282.868 59.5137 281.881 60.2368 281.193 61.0173C280.516 61.7862 280.378 62.6183 280.78 63.5193C281.451 64.9597 283.104 65.5623 285.738 65.3327C288.383 65.0917 292.079 63.8579 296.825 61.637L297.215 62.0502C294.839 63.4734 292.429 64.7015 289.984 65.723C287.534 66.733 285.261 67.4503 283.167 67.8807C281.066 68.3226 279.293 68.4087 277.841 68.1332C276.407 67.8692 275.477 67.1806 275.064 66.0443ZM294.897 45.2703C296.808 45.058 298.185 44.8113 299.029 44.5358C299.866 44.2489 300.532 43.9734 301.026 43.7094C301.531 43.4512 302.15 43.2503 302.885 43.1126C303.786 43.038 304.423 43.2848 304.79 43.8472C305.157 44.4153 305.232 44.9949 305.02 45.5917C304.819 46.1885 304.274 46.5271 303.39 46.6017C302.546 46.6935 301.852 46.6706 301.301 46.5329C300.762 46.3951 300.05 46.2976 299.166 46.2344C298.277 46.1598 296.922 46.2058 295.103 46.3722C294.598 46.3894 294.311 46.2115 294.254 45.8442C294.191 45.4769 294.403 45.2876 294.897 45.2703Z" fill="white"/>
<path d="M289.62 71.1641C288.828 69.5286 288.926 67.9677 289.919 66.4814C290.929 65.0008 292.524 63.6522 294.716 62.4414C296.902 61.219 299.341 60.1631 302.039 59.2736C304.684 58.4186 307.169 57.9193 309.499 57.7816C311.84 57.6324 313.814 57.7758 315.421 58.2177C317.028 58.6653 318.049 59.354 318.497 60.2836C318.876 61.0067 318.876 61.7757 318.497 62.602C318.727 62.4356 318.962 62.2692 319.209 62.097C319.45 61.9306 319.714 61.7986 319.989 61.7068C320.643 61.3108 321.309 61.219 321.986 61.4314C322.675 61.6322 323.209 62.0052 323.593 62.5561C323.972 63.0956 324.087 63.6981 323.937 64.3696C323.782 65.0295 323.209 65.6263 322.216 66.16C321.539 66.4986 320.569 66.8659 319.301 67.2618C318.044 67.6636 316.684 68.0997 315.215 68.5703C313.757 69.0466 312.38 69.5573 311.083 70.1082C309.78 70.6591 308.73 71.2732 307.938 71.9446C307.157 72.6332 306.848 73.3965 307.02 74.2401C307.307 75.9846 308.856 76.8454 311.657 76.8339C314.469 76.8167 318.359 75.8239 323.318 73.8498L323.639 74.3548C321.171 75.6518 318.704 76.7479 316.225 77.6374C313.745 78.5211 311.439 79.1122 309.315 79.4049C307.186 79.709 305.413 79.6688 303.99 79.2901C302.567 78.9056 301.671 78.1022 301.304 76.8799C301.04 75.9272 301.218 75.0205 301.832 74.1482C302.458 73.2874 303.313 72.4496 304.403 71.6232C302.165 72.5701 300.03 73.2301 297.999 73.5973C295.979 73.9646 294.234 73.9531 292.765 73.5744C291.296 73.1899 290.246 72.3865 289.62 71.1641ZM296.185 69.6032C296.461 70.5558 297.092 71.1125 298.09 71.2789C299.083 71.4511 300.271 71.365 301.648 71.0264C303.037 70.6764 304.5 70.2115 306.033 69.6262C307.576 69.0466 309 68.4899 310.302 67.9505C311.312 67.325 312.259 66.6995 313.149 66.0682C314.05 65.4255 314.968 64.8057 315.903 64.2089C316.684 63.5202 317.154 62.9005 317.326 62.3495C317.493 61.7872 317.47 61.2592 317.258 60.7657C316.856 59.8819 315.863 59.3654 314.273 59.2277C312.678 59.0785 310.859 59.2277 308.81 59.6868C306.756 60.1344 304.816 60.7771 302.98 61.615C300.822 62.5963 299.037 63.79 297.631 65.1959C296.237 66.6076 295.755 68.0767 296.185 69.6032Z" fill="white"/>
</svg>
