<svg width="208" height="69" viewBox="0 0 208 69" fill="none" xmlns="http://www.w3.org/2000/svg">
<path d="M24.3741 38.0192C23.9575 39.3942 23.0616 40.7014 21.6866 41.9358C20.3116 43.1598 18.7491 44.3681 16.9991 45.5608C15.3168 46.7535 13.6085 47.9567 11.8741 49.165C10.1554 50.3733 8.66059 51.6442 7.39496 52.9775C6.11892 54.3212 5.31163 55.7796 4.9783 57.3525C4.64496 58.9879 4.74392 60.4462 5.26996 61.7275C5.78559 63.0192 6.6033 64.04 7.7283 64.79C8.84288 65.5504 10.1241 66.0296 11.5825 66.2275C13.6918 66.4879 15.5095 66.2171 17.0408 65.415C18.5668 64.6077 19.671 63.6285 20.3533 62.4775C20.8637 61.5452 21.1085 60.6025 21.0825 59.6442C21.0668 58.6962 20.7335 57.8629 20.0825 57.1442C19.4418 56.4202 18.4262 55.9254 17.0408 55.665C16.1918 55.4827 15.697 55.1025 15.5616 54.5192C15.4366 53.9462 15.572 53.4254 15.9783 52.9567C16.395 52.4983 17.0095 52.3785 17.8325 52.6025C19.3168 53.0035 20.4262 53.7535 21.1658 54.8525C21.9158 55.9462 22.2908 57.191 22.2908 58.5817C22.2908 59.9827 21.921 61.3577 21.1866 62.7067C20.322 64.2327 18.9991 65.5296 17.2075 66.6025C15.4262 67.6858 13.1554 68.2119 10.395 68.1858C8.39496 68.1442 6.55642 67.6546 4.87413 66.7275C3.19705 65.7952 1.95746 64.4879 1.1658 62.8108C0.363714 61.1442 0.223089 59.191 0.74913 56.9567C1.19705 55.0921 1.98871 53.5712 3.12413 52.3942C4.24913 51.2275 5.59809 50.2327 7.1658 49.415C8.72309 48.5921 10.322 47.8004 11.9575 47.04C13.5929 46.2744 15.145 45.3733 16.6033 44.3317C17.645 43.5817 18.5825 42.7014 19.4158 41.6858C20.2595 40.6598 20.9054 39.4358 21.3533 38.0192C21.6137 37.2692 22.0095 36.8264 22.5408 36.6858C23.0825 36.5348 23.5512 36.5921 23.9575 36.8525C24.3741 37.1025 24.5095 37.4931 24.3741 38.0192ZM24.5408 28.7483C24.9418 28.04 25.4575 27.5712 26.0825 27.3317C26.7179 27.0817 27.2595 27.1129 27.7075 27.415C28.1241 27.7796 28.3377 28.3056 28.3533 28.9983C28.3793 29.6962 28.1866 30.3733 27.77 31.04C27.322 31.7483 26.7908 32.2275 26.1658 32.4775C25.5512 32.7171 25.046 32.6598 24.645 32.3108C24.2283 31.9775 23.9991 31.4723 23.9575 30.79C23.9262 30.0973 24.1241 29.415 24.5408 28.7483Z" fill="white"/>
<path d="M35.3146 44.832C34.0802 44.3216 33.3771 43.457 33.2104 42.2487C33.0437 41.0299 33.2625 39.6132 33.8562 37.9987C34.4552 36.3737 35.2729 34.681 36.3146 32.9153C37.3562 31.1393 38.4708 29.431 39.6687 27.7903C41.8198 24.7799 44.2937 21.9049 47.0854 19.1653C49.8875 16.4309 52.799 14.0195 55.8146 11.9362C56.2156 9.10282 56.0958 6.69657 55.4604 4.70699C54.8354 2.70699 53.6271 1.59762 51.8354 1.37366C50.4604 1.19657 49.3042 1.40491 48.3771 1.99866C47.4448 2.59762 46.6479 3.43616 45.9812 4.51949C45.3146 5.59241 44.6948 6.77991 44.1271 8.08199C43.5698 9.38928 42.9917 10.6549 42.3979 11.8737C42.1062 12.4726 41.6948 12.8476 41.1687 12.9987C40.6531 13.1549 40.1531 13.1132 39.6687 12.8737C39.1792 12.6237 38.8354 12.2487 38.6271 11.7487C38.4292 11.2382 38.5021 10.6237 38.8354 9.91532C39.4292 8.69657 40.2104 7.48824 41.1687 6.29032C42.1375 5.09762 43.2365 4.02991 44.4604 3.08199C45.6948 2.13928 46.9708 1.41532 48.2937 0.915323C49.6115 0.404907 50.924 0.222615 52.2312 0.373657C54.4656 0.639282 56.1062 1.64449 57.1479 3.39449C58.1896 5.14449 58.5958 7.43616 58.3771 10.2695C60.9865 8.63407 63.575 7.31116 66.1479 6.31116C68.7156 5.30074 71.1531 4.66012 73.4604 4.39449C75.7625 4.13407 77.8042 4.32157 79.5854 4.95699C81.3771 5.58199 82.799 6.73824 83.8562 8.41532C85.2312 10.6549 85.7833 13.0976 85.5229 15.7487C85.2573 18.3893 84.3979 21.0559 82.9396 23.7487C81.4917 26.4466 79.6271 29.0716 77.3354 31.6237C75.0437 34.181 72.5542 36.4987 69.8771 38.582C67.4604 40.4882 64.9812 42.1185 62.4396 43.4778C59.9083 44.8216 57.5021 45.7799 55.2104 46.3528C52.9292 46.9362 50.9187 47.0403 49.1687 46.6653C47.4187 46.3007 46.0906 45.3372 45.1896 43.7695C44.6323 42.7695 44.5958 41.6862 45.0854 40.5195C45.5698 39.3424 46.4448 38.1445 47.7104 36.9362C48.9708 35.7278 50.4656 34.582 52.1896 33.4987C53.924 32.4153 55.7521 31.4778 57.6687 30.6862C59.5958 29.8841 61.4708 29.2903 63.2937 28.9153C64.2208 28.7382 64.9292 28.806 65.4187 29.1237C65.9031 29.431 66.174 29.8268 66.2312 30.3112C66.2833 30.8007 66.1583 31.2487 65.8562 31.6653C65.5646 32.0716 65.0958 32.2695 64.4604 32.2695C61.3771 32.2695 58.8146 32.5351 56.7729 33.0612C54.7417 33.5768 52.95 34.3007 51.3979 35.2278C50.0229 36.0507 49.075 37.0351 48.5646 38.1862C48.0646 39.3424 48.2781 40.6237 49.2104 42.0403C49.9604 43.2382 51.0437 43.9726 52.4604 44.2487C53.8771 44.5299 55.5021 44.4153 57.3354 43.9153C59.1792 43.4153 61.1115 42.5976 63.1271 41.457C65.1375 40.3216 67.075 38.9518 68.9396 37.3528C72.8146 34.0351 75.6687 30.7643 77.5021 27.5403C79.3458 24.3216 80.3562 21.3632 80.5229 18.6653C80.6896 15.9726 80.174 13.7278 78.9812 11.9362C77.8667 10.2591 76.2729 9.08199 74.1896 8.41532C72.1062 7.74866 69.6792 7.74345 66.9187 8.39449C64.1687 9.05074 61.1896 10.5299 57.9812 12.832C57.3562 16.0716 55.9812 19.7174 53.8562 23.7695C52.7 25.9674 51.4812 28.1549 50.1896 30.332C48.9083 32.5143 47.6062 34.5612 46.2729 36.4778C44.95 38.3945 43.6375 40.056 42.3354 41.457C41.0437 42.8476 39.799 43.8632 38.6062 44.4987C37.4135 45.1341 36.3146 45.2487 35.3146 44.832ZM38.9396 40.4778C39.7573 40.8841 40.7365 40.6393 41.8771 39.7487C43.0125 38.8632 44.3875 37.1549 46.0021 34.6237C47.6271 32.082 49.5906 28.5768 51.8979 24.1028C53.424 21.1341 54.5646 18.082 55.3146 14.957C53.0333 16.8216 50.8823 18.8216 48.8562 20.957C46.825 23.0976 45.0073 25.2278 43.3979 27.3528C41.799 29.4778 40.5125 31.4674 39.5437 33.3112C38.5854 35.1445 38.0281 36.6966 37.8771 37.957C37.7208 39.2226 38.075 40.0612 38.9396 40.4778Z" fill="white"/>
<path d="M82.6625 44.4362C81.5791 43.5924 81.0583 42.5143 81.1 41.207C81.1416 39.9049 81.5896 38.4883 82.4333 36.957C83.2927 35.431 84.4125 33.9049 85.7875 32.3737C87.1729 30.8477 88.5896 29.6185 90.0375 28.6862C91.4958 27.7591 92.8552 27.181 94.1208 26.957C95.3812 26.7383 96.4021 26.9466 97.1833 27.582C98.3083 28.431 98.6833 29.8112 98.3083 31.7279C97.9333 33.6445 96.9802 35.6549 95.4541 37.7487C95.7146 38.1549 96.2354 38.3737 97.0166 38.4154C97.7927 38.4466 98.751 38.1549 99.8916 37.5404C101.027 36.931 102.215 35.9154 103.454 34.4987L103.787 34.832C102.397 36.6237 101.105 37.931 99.9125 38.7487C98.7302 39.5716 97.6312 40.0299 96.6208 40.1237C95.6208 40.207 94.7093 40.0612 93.8916 39.6862C92.5843 41.1862 91.2041 42.4049 89.7458 43.332C88.2979 44.2643 86.9541 44.8216 85.7041 45.0195C84.4541 45.2279 83.4385 45.0299 82.6625 44.4362ZM85.7875 40.707C86.6468 41.4154 87.7146 41.6029 88.9958 41.2695C90.2875 40.9258 91.6 40.1758 92.9333 39.0195C92.751 38.8008 92.5583 38.4935 92.35 38.1029C92.1521 37.7174 92.0896 37.207 92.1625 36.582C92.2302 35.9466 92.5479 35.2174 93.1208 34.3945C93.7041 33.5352 94.2458 33.0143 94.7458 32.832C95.2562 32.6393 95.7093 32.6237 96.1 32.7904C96.4854 32.957 96.7771 33.1549 96.975 33.3737C97.3343 32.3737 97.4802 31.4883 97.4125 30.707C97.3396 29.9154 97.1 29.3424 96.6833 28.9779C96.0843 28.4518 95.3187 28.2174 94.3916 28.2695C93.4593 28.3268 92.4854 28.6445 91.475 29.2279C90.475 29.8008 89.5479 30.5924 88.7041 31.6029C87.7302 32.7591 86.9177 33.9362 86.2666 35.1445C85.6104 36.3529 85.2302 37.4518 85.1208 38.4362C85.0062 39.4258 85.2302 40.181 85.7875 40.707ZM92.8916 24.3945C94.1521 23.7279 95.0375 23.181 95.5375 22.7487C96.0375 22.3216 96.4229 21.9466 96.7041 21.6237C96.9958 21.306 97.376 20.9987 97.85 20.707C98.4437 20.4049 98.9437 20.4049 99.35 20.707C99.7666 20.9987 99.9802 21.3841 99.9958 21.8529C100.022 22.3112 99.7354 22.6966 99.1416 22.9987C98.5843 23.2904 98.1 23.4674 97.6833 23.5195C97.2771 23.5768 96.7562 23.7018 96.1208 23.8945C95.4958 24.0768 94.5635 24.4883 93.3291 25.1237C92.9958 25.2643 92.751 25.2174 92.6 24.9779C92.4593 24.7435 92.5583 24.5508 92.8916 24.3945Z" fill="white"/>
<path d="M112.491 44.1024C111.825 43.3681 111.575 42.5556 111.741 41.6649C111.908 40.7639 112.325 39.8264 112.991 38.8524C113.658 37.8837 114.429 36.9306 115.304 35.9983C116.179 35.0712 117.002 34.1962 117.783 33.3733C118.575 32.5556 119.169 31.8524 119.575 31.2691C119.991 30.6754 120.033 30.2222 119.7 29.9149C119.252 29.4722 118.575 29.4983 117.658 29.9983C116.741 30.4983 115.721 31.2899 114.596 32.3733C113.481 33.4566 112.335 34.6649 111.158 35.9983C109.851 37.4566 108.606 38.9149 107.429 40.3733C106.262 41.8212 105.304 42.9722 104.554 43.8316C104.002 44.4983 103.398 44.7899 102.741 44.7066C102.09 44.6389 101.627 44.3212 101.346 43.7483C101.07 43.1649 101.195 42.5087 101.721 41.7691C102.054 41.3108 102.544 40.6754 103.179 39.8524C103.804 39.0347 104.46 38.1597 105.137 37.2274C105.83 36.3004 106.419 35.4774 106.908 34.7691C107.643 33.6597 108.21 32.7795 108.616 32.1233C109.033 31.4722 109.398 30.8733 109.721 30.3316C110.038 29.7899 110.419 29.1754 110.866 28.4774C111.283 27.8004 111.768 27.3733 112.325 27.2066C112.877 27.0399 113.372 27.0712 113.804 27.2899C114.231 27.5139 114.481 27.8889 114.554 28.4149C114.637 28.9306 114.413 29.5295 113.887 30.2066C113.179 31.1389 112.221 32.1337 111.012 33.1858C109.804 34.2431 108.689 35.4097 107.679 36.6858C106.939 37.6181 106.314 38.4358 105.804 39.1441C105.304 39.8524 105.184 40.3004 105.45 40.4774C105.669 40.6337 106.085 40.3889 106.7 39.7483C107.325 39.1129 108.08 38.2639 108.971 37.2066C109.856 36.1545 110.768 35.1024 111.7 34.0608C112.669 32.9774 113.658 31.9254 114.658 30.8941C115.669 29.8681 116.648 28.9931 117.596 28.2691C118.554 27.5504 119.455 27.0816 120.304 26.8733C121.163 26.6649 121.913 26.8629 122.554 27.4566C123.137 28.0139 123.351 28.7014 123.2 29.5191C123.059 30.342 122.684 31.217 122.075 32.1441C121.46 33.0764 120.762 34.0295 119.971 34.9983C119.189 35.9722 118.455 36.8889 117.762 37.7483C117.08 38.5972 116.58 39.3629 116.262 40.0399C115.939 40.7066 115.95 41.2066 116.283 41.5399C116.768 41.9879 117.585 42.0399 118.741 41.7066C119.893 41.3733 121.231 40.6597 122.762 39.5608C124.288 38.467 125.851 37.0556 127.45 35.3316L127.804 35.6649C126.455 37.1962 125.038 38.6337 123.554 39.9774C122.064 41.3108 120.601 42.4306 119.158 43.3316C117.726 44.2222 116.419 44.7535 115.241 44.9358C114.075 45.1285 113.158 44.8524 112.491 44.1024Z" fill="white"/>
<path d="M140.25 44.3319C139.651 43.6965 139.365 42.91 139.396 41.9777C139.438 41.0506 139.698 40.0611 140.188 39.0194C138.964 40.4777 137.677 41.7173 136.333 42.7277C135 43.7277 133.74 44.3683 132.563 44.6444C131.396 44.9204 130.38 44.7277 129.521 44.0611C128.479 43.2017 128.062 42.1131 128.271 40.7902C128.469 39.4569 129.115 38.0402 130.208 36.5402C131.318 35.0298 132.635 33.5506 134.167 32.1027C135.677 30.6861 137.198 29.5611 138.729 28.7277C140.255 27.884 141.63 27.3631 142.854 27.1652C144.089 26.9569 145.005 27.0975 145.604 27.5819C146.021 27.8736 146.255 28.259 146.313 28.7277C146.365 29.1861 146.297 29.6808 146.104 30.2069C146.63 29.5715 147.115 28.9986 147.563 28.4986C148.005 27.9986 148.359 27.5611 148.625 27.1861C149.109 26.5923 149.74 25.7694 150.521 24.7277C151.297 23.6861 152.151 22.5402 153.083 21.2902C154.01 20.0402 154.922 18.8058 155.813 17.5819C156.714 16.3475 157.531 15.2381 158.271 14.2485C159.021 13.2642 159.583 12.5298 159.958 12.0402C160.552 11.2642 161.156 10.8423 161.771 10.7694C162.396 10.686 162.917 10.8267 163.333 11.186C163.76 11.535 163.984 12.009 164 12.6027C164.026 13.2017 163.719 13.8006 163.083 14.3944C162.484 14.9517 161.448 15.91 159.979 17.2694C158.521 18.634 156.865 20.259 155.021 22.1444C153.172 24.0194 151.396 26.0142 149.688 28.1236C148.198 29.9881 146.865 31.7642 145.688 33.4569C144.521 35.1548 143.698 36.6444 143.229 37.9361C142.771 39.2173 142.818 40.1965 143.375 40.8736C144.083 41.6965 145.375 41.6756 147.25 40.8111C149.135 39.9517 151.458 38.0558 154.208 35.1236L154.604 35.2902C153.365 36.8892 152.047 38.3736 150.646 39.7486C149.255 41.1236 147.901 42.2798 146.583 43.2069C145.26 44.1392 144.042 44.7173 142.917 44.9569C141.802 45.2069 140.917 44.9986 140.25 44.3319ZM133.479 40.9152C134.073 41.5975 134.844 41.7433 135.792 41.3527C136.75 40.9517 137.755 40.2486 138.813 39.2486C139.88 38.2486 140.88 37.1652 141.813 35.9986C142.214 35.3736 142.635 34.7381 143.083 34.0819C143.542 33.4308 144.01 32.8058 144.5 32.2069C144.901 31.5819 145.167 30.9517 145.292 30.3111C145.427 29.6756 145.313 29.2277 144.938 28.9777C144.339 28.4933 143.563 28.3475 142.604 28.5402C141.656 28.7225 140.646 29.16 139.563 29.8527C138.49 30.535 137.469 31.3631 136.5 32.3319C135.526 33.2902 134.708 34.3111 134.042 35.3944C133.375 36.4777 132.964 37.509 132.813 38.4777C132.656 39.4361 132.88 40.2486 133.479 40.9152Z" fill="white"/>
<path d="M158.405 44.2704C157.124 43.4266 156.41 42.3433 156.259 41.0204C156.124 39.687 156.363 38.2808 156.988 36.7912C157.624 35.3068 158.52 33.8901 159.676 32.5412C160.869 31.1245 162.202 29.937 163.676 28.9787C165.145 28.0099 166.572 27.4058 167.947 27.1662C169.322 26.9162 170.416 27.1454 171.238 27.8537C171.791 28.3433 172.02 29.0516 171.926 29.9787C171.843 30.911 171.473 31.911 170.822 32.9787C170.166 34.036 169.28 35.036 168.155 35.9787C167.041 36.9266 165.707 37.6401 164.155 38.1245C163.447 38.3485 162.874 38.3224 162.447 38.0412C162.014 37.7651 161.749 37.3849 161.655 36.8954C161.572 36.411 161.655 35.9735 161.905 35.5829C162.166 35.1974 162.634 34.9995 163.301 34.9995C165.093 34.9995 166.535 34.7287 167.634 34.187C168.728 33.6454 169.551 32.9787 170.093 32.187C170.634 31.3849 170.905 30.6141 170.905 29.8745C170.905 29.1245 170.702 28.562 170.301 28.187C169.811 27.7026 169.176 27.5933 168.384 27.8537C167.603 28.1193 166.764 28.6141 165.863 29.3329C164.973 30.0568 164.119 30.9058 163.301 31.8745C162.52 32.7651 161.863 33.7443 161.322 34.812C160.78 35.8693 160.473 36.9058 160.405 37.9162C160.332 38.9162 160.577 39.8276 161.134 40.6454C161.91 41.687 162.957 42.1558 164.28 42.0412C165.613 41.9318 167.113 41.3329 168.78 40.2495C170.457 39.1662 172.207 37.7183 174.03 35.8954L174.363 36.2287C173.431 37.4683 172.291 38.7183 170.947 39.9787C169.613 41.2443 168.186 42.3329 166.676 43.2495C165.176 44.1558 163.697 44.7339 162.238 44.9995C160.791 45.2599 159.514 45.0204 158.405 44.2704Z" fill="white"/>
<path d="M183.804 33.8327C184.221 32.4577 185.122 31.1608 186.512 29.9369C187.913 28.7025 189.471 27.489 191.179 26.2911C192.887 25.0983 194.596 23.8952 196.304 22.6869C198.023 21.4786 199.523 20.2077 200.804 18.8744C202.096 17.5306 202.892 16.0723 203.2 14.4994C203.533 12.8327 203.434 11.3692 202.908 10.1036C202.392 8.82751 201.58 7.80147 200.471 7.02022C199.372 6.24418 198.08 5.78064 196.596 5.62438C194.471 5.36397 192.642 5.62438 191.116 6.41605C189.601 7.1973 188.502 8.18168 187.825 9.37438C187.309 10.265 187.059 11.1973 187.075 12.1661C187.085 13.1244 187.429 13.9733 188.096 14.7077C188.773 15.4317 189.783 15.9265 191.116 16.1869C191.976 16.3275 192.471 16.6973 192.596 17.2911C192.731 17.89 192.596 18.4265 192.179 18.8952C191.773 19.3536 191.163 19.4733 190.346 19.2494C188.856 18.8483 187.741 18.0983 186.991 16.9994C186.241 15.89 185.872 14.6348 185.887 13.2286C185.913 11.8119 186.283 10.4525 186.991 9.14522C187.851 7.61918 189.184 6.30668 190.991 5.20772C192.793 4.11397 195.054 3.59834 197.762 3.66605C199.814 3.70772 201.668 4.1973 203.325 5.12438C204.991 6.05668 206.221 7.36397 207.012 9.04105C207.814 10.7077 207.955 12.6608 207.429 14.8952C206.981 16.7598 206.189 18.2806 205.054 19.4577C203.929 20.6244 202.58 21.6192 201.012 22.4369C199.439 23.2598 197.835 24.0515 196.2 24.8119C194.559 25.5775 193.017 26.4786 191.575 27.5202C190.533 28.2702 189.585 29.1608 188.741 30.1869C187.908 31.2025 187.267 32.4161 186.825 33.8327C186.601 34.5827 186.205 35.0358 185.637 35.1869C185.08 35.3275 184.596 35.2598 184.179 34.9786C183.773 34.7025 183.648 34.3223 183.804 33.8327ZM180.408 40.8119C180.851 40.1036 181.377 39.6348 181.991 39.3952C182.601 39.1452 183.116 39.1869 183.533 39.5202C183.934 39.8536 184.158 40.3692 184.2 41.0619C184.241 41.7598 184.054 42.4369 183.637 43.1036C183.231 43.8119 182.71 44.2911 182.075 44.5411C181.45 44.7754 180.908 44.739 180.45 44.4369C180.085 44.0619 179.887 43.5358 179.846 42.8536C179.804 42.1608 179.991 41.4786 180.408 40.8119Z" fill="white"/>
</svg>
